<svg width="60" height="60" viewBox="0 0 60 60" fill="none" xmlns="http://www.w3.org/2000/svg">
<circle cx="30" cy="30" r="28.5" fill="#F8F8F8" stroke="#4E0087" stroke-width="3"/>
<path d="M42 31.5C42.8284 31.5 43.5 30.8284 43.5 30C43.5 29.1716 42.8284 28.5 42 28.5L42 31.5ZM17.9393 28.9393C17.3536 29.5251 17.3536 30.4749 17.9393 31.0607L27.4853 40.6066C28.0711 41.1924 29.0208 41.1924 29.6066 40.6066C30.1924 40.0208 30.1924 39.0711 29.6066 38.4853L21.1213 30L29.6066 21.5147C30.1924 20.9289 30.1924 19.9792 29.6066 19.3934C29.0208 18.8076 28.0711 18.8076 27.4853 19.3934L17.9393 28.9393ZM42 28.5L19 28.5L19 31.5L42 31.5L42 28.5Z" fill="#4E0087"/>
</svg>
