<svg width="94" height="89" viewBox="0 0 94 89" fill="none" xmlns="http://www.w3.org/2000/svg">
<path fill-rule="evenodd" clip-rule="evenodd" d="M21.844 17.5774C21.9469 15.365 21.9885 13.2458 22.1625 11.1363C22.2923 9.57323 22.5202 8.01258 22.8313 6.47643C23.5639 2.87493 26.6361 1.26039 29.5492 0.954135C32.4598 0.650336 35.3875 0.564585 38.2957 0.317135C41.6718 0.0304852 45.0356 -0.0283143 48.4093 0.0108857C49.8548 0.025586 51.2954 0.192186 52.7409 0.282835C53.4122 0.324485 54.0884 0.385735 54.7597 0.373485C58.1456 0.307335 61.5045 0.618485 64.861 1.00068C66.3384 1.16973 67.6442 1.76508 68.8325 2.62503C70.0918 3.53888 70.7729 4.83493 71.1526 6.29758C71.6304 8.13753 71.846 10.0191 71.9268 11.9179C72.0077 13.775 72.0934 15.6345 72.1816 17.5945C72.4952 17.6166 72.8039 17.6533 73.1126 17.6631C76.0698 17.7513 79.0269 17.8248 81.9841 17.9228C82.8195 17.9498 83.6574 17.9865 84.4806 18.1139C84.8677 18.1727 85.3136 18.3687 85.5586 18.6529C85.8453 18.9812 86.1785 19.0719 86.5362 19.187C87.3006 19.432 88.0748 19.655 88.8195 19.9416C92.2055 21.2499 93.8347 23.8151 93.967 27.3578C94.0331 29.1536 93.9866 30.9544 93.9425 32.7502C93.6975 42.4473 93.4378 52.1444 93.183 61.839C93.0311 67.6186 92.8817 73.3981 92.7273 79.1752C92.6807 80.8559 92.4088 82.4852 91.6983 84.0385C91.0319 85.4987 90.0544 86.6306 88.6113 87.3533C86.5313 88.397 84.3263 88.8454 82.0037 88.8111C80.0731 88.7841 78.1449 88.8258 76.2143 88.7988C68.2102 88.6837 60.2036 88.5685 52.197 88.4264C50.6878 88.3995 49.181 88.2133 47.6718 88.1716C46.6134 88.1422 45.5526 88.2304 44.4942 88.2672C41.9878 88.3529 39.4815 88.4754 36.9751 88.5171C29.7403 88.6347 22.5054 88.7253 15.2706 88.8209C13.9207 88.8405 12.5683 88.8993 11.2232 88.8258C9.05741 88.7057 6.95776 88.2647 5.04676 87.1573C3.98836 86.5424 3.17741 85.7069 2.61146 84.624C1.79316 83.0609 1.35461 81.4023 1.30806 79.6383C1.06306 70.6517 0.803364 61.6626 0.570614 52.6736C0.364814 44.8067 0.181064 36.9397 0.00466459 29.0752C-0.0149354 28.1785 0.0267149 27.272 0.139415 26.3851C0.519164 23.3618 2.10676 21.2181 4.94141 20.0445C5.65191 19.7481 6.38201 19.4982 7.12191 19.2801C7.67071 19.116 8.18521 18.991 8.60416 18.5108C8.83936 18.2438 9.34406 18.1139 9.73606 18.0943C12.6565 17.9449 15.5793 17.8371 18.5046 17.7244C19.3719 17.6925 20.2392 17.6852 21.1065 17.6607C21.3246 17.6509 21.5426 17.6141 21.844 17.5774ZM82.7656 19.285L82.7901 19.3095C81.7464 18.8612 81.0261 18.9886 80.2397 19.7628C80.0804 19.9196 79.9187 20.0813 79.7521 20.2283C75.8346 23.6093 71.917 26.9878 67.9995 30.3664C67.8892 30.4619 67.7545 30.5281 67.6344 30.6065C71.5618 26.6179 75.7611 22.9404 80.0731 19.1723C78.9436 19.0057 78.1327 19.04 77.3021 19.7995C74.5532 22.3181 71.7088 24.7314 68.9011 27.1838C68.7051 27.3553 68.487 27.5023 68.2788 27.664C68.2298 27.6003 68.1808 27.5391 68.1342 27.4778C71.0767 24.6946 74.024 21.909 77.0498 19.0498C76.5377 19.0498 76.1237 19.0694 75.7121 19.0449C75.3323 19.0204 75.0579 19.1552 74.7713 19.4124C70.3515 23.3447 65.7234 27.027 61.0145 30.6065C60.7548 30.8049 60.4682 30.9666 60.1913 31.143C64.5695 26.8849 69.2661 23.0262 74.1318 19.0694C73.3821 19.0376 72.8431 18.9812 72.309 19.0057C72.0836 19.0155 71.8068 19.1405 71.6524 19.3046C69.4793 21.6052 66.9705 23.5113 64.5278 25.4982C64.2681 25.7089 63.9839 25.8829 63.712 26.074C66.0125 23.5529 68.5336 21.294 71.329 19.0229C70.2118 18.9592 69.2637 18.6309 68.536 19.5815C68.3817 19.7824 68.1661 19.9367 67.9652 20.096C64.6038 22.7371 61.2424 25.3757 57.881 28.0144C57.7389 28.1222 57.5821 28.203 57.4326 28.2986C60.8381 24.969 64.5376 21.9972 68.2298 18.9543C67.4115 18.8612 66.6201 18.8367 65.8288 18.8783C65.6058 18.8881 65.3633 19.0523 65.1771 19.2066C62.9035 21.0417 60.6421 22.8939 58.371 24.7338C58.1382 24.9225 57.8687 25.0646 57.6139 25.2287C59.7381 22.9282 62.1513 20.978 64.6675 18.871C63.7022 18.8269 62.9647 18.7705 62.2273 18.7779C62.0068 18.7779 61.7544 18.9151 61.5756 19.0645C59.6793 20.6521 57.7977 22.2544 55.9063 23.8469C55.7274 23.9964 55.5143 24.1042 55.3158 24.234C55.2717 24.1728 55.2252 24.1115 55.1786 24.0527C57.1484 22.3108 59.1158 20.5688 61.1101 18.8024C59.939 18.5353 59.0202 18.7975 58.1309 19.5545C56.7834 20.6938 55.3281 21.7056 53.9169 22.7689C53.6964 22.9331 53.4661 23.0874 53.2407 23.2442C54.6911 21.49 56.5727 20.243 58.4641 18.7264C58.0133 18.6995 57.7389 18.7019 57.4694 18.6627C56.6168 18.5378 55.9724 18.8489 55.3036 19.3977C51.6065 22.4455 47.8703 25.437 44.1438 28.4456C43.9625 28.5926 43.7567 28.7077 43.5656 28.8376C43.5166 28.7739 43.4725 28.7102 43.426 28.6465C47.2676 25.3561 51.1116 22.0658 54.9728 18.7607C53.9193 18.4667 53.3975 18.501 52.8511 18.8318C51.0381 19.9343 49.2202 21.0245 47.4023 22.1148C47.172 22.2544 46.927 22.3696 46.6894 22.4945C46.6575 22.4431 46.6257 22.3892 46.5938 22.3353C48.2549 21.1225 49.9136 19.9073 51.6972 18.6064C50.5408 18.4079 49.6784 18.4716 48.7964 19.0621C47.248 20.0935 45.6114 20.9902 44.0042 21.9359C43.8449 22.0315 43.6514 22.0633 43.4725 22.1246C43.4456 22.0682 43.4211 22.0168 43.3941 21.9604C45.0258 20.8359 46.6575 19.7113 48.3137 18.5696C47.1255 18.1409 47.1255 18.1801 46.1675 18.7901C44.5407 19.824 42.8845 20.8089 41.2357 21.8085C41.0372 21.9286 40.8094 21.9996 40.5962 22.0927C40.5693 22.0462 40.5399 21.9947 40.5129 21.9457C42.0491 20.8334 43.5852 19.7236 45.3051 18.479C44.8225 18.479 44.5995 18.4765 44.3766 18.4814C36.7595 18.6505 29.1425 18.8391 21.5255 18.9837C17.9901 19.0523 14.4523 19.0376 10.917 19.0621C10.6597 19.0645 10.3976 19.0498 10.1501 19.1013C9.50331 19.2409 9.37591 19.4369 9.42491 20.1156C9.43471 20.243 9.45676 20.3704 9.46901 20.4978C9.69931 22.7346 9.94186 24.9666 10.1575 27.2034C10.5764 31.5816 10.9758 35.9622 11.3923 40.3403C11.4903 41.3791 11.6177 42.413 11.7426 43.5547C13.5899 42.2513 15.1971 40.8328 17.0322 39.7499C17.0787 39.8111 17.1253 39.8748 17.1718 39.9361C15.4005 41.362 13.6267 42.7879 11.7794 44.275C11.897 45.8357 12.0219 47.5041 12.1567 49.2951C14.3984 47.438 16.5079 45.696 18.6149 43.9516C18.6663 44.0129 18.7178 44.0766 18.7692 44.1403C16.601 46.017 14.4303 47.8937 12.1224 49.8929C12.2841 51.4364 12.4311 53.1612 12.6614 54.8737C12.8451 56.2383 13.0975 57.5932 13.3768 58.9407C13.5532 59.7859 13.8178 60.6165 14.4744 61.2706C17.9313 57.6814 21.8097 54.6115 25.5091 51.3408C25.5581 51.3947 25.6071 51.4486 25.6537 51.5025C22.0596 54.8835 18.463 58.2669 14.7929 61.7214C15.2461 62.0644 15.7214 62.4246 16.2482 62.8215C17.8701 61.3172 19.4748 59.8864 21.1947 58.5977C21.2413 58.6516 21.2903 58.7055 21.3393 58.7594C19.9403 60.2294 18.5389 61.6994 17.0885 63.2257C17.4095 63.3678 17.6202 63.4413 17.8113 63.5491C18.4042 63.8848 18.8672 63.7647 19.3352 63.2649C19.7296 62.8411 20.227 62.5103 20.6802 62.1404C20.7292 62.1943 20.7782 62.2482 20.8297 62.3021C20.3372 62.8288 19.8448 63.3556 19.2739 63.9681C19.933 64.1567 20.5063 64.3209 21.1996 64.5218C21.1996 64.0195 21.1727 63.6055 21.2045 63.1963C21.3687 61.1163 22.7431 59.536 24.779 59.4674C26.0628 59.4209 27.3491 59.3719 28.6329 59.3841C30.7154 59.4037 32.0335 60.5528 32.8199 62.3878C33.0159 62.846 33.109 63.3482 33.2389 63.799C35.5762 63.9313 37.8522 64.0832 40.1307 64.1861C43.279 64.3258 46.4272 64.4434 49.5755 64.5438C50.7613 64.5806 51.9422 64.6247 53.1231 64.3552C55.208 63.875 57.3444 63.9828 59.4588 63.9044C59.8042 63.8921 60.1472 63.8529 60.4755 63.8284C60.5784 63.2453 60.6152 62.7308 60.7573 62.2433C61.1762 60.8076 62.068 59.7247 63.5919 59.563C65.2432 59.3915 66.9264 59.4037 68.5875 59.4821C70.6528 59.5752 71.6426 61.0256 72.3286 62.7578C72.5516 63.3213 72.7451 63.897 72.9754 64.5267C74.2543 64.1249 75.445 63.8333 76.572 63.3801C78.4953 62.6083 80.0878 61.4078 80.5606 59.2592C80.9894 57.3212 81.3936 55.3588 81.5823 53.3866C82.0894 48.0505 82.4422 42.6997 82.9175 37.3587C83.432 31.6036 84.0151 25.8535 84.5664 20.1009C84.6301 19.4296 84.5002 19.2238 83.8485 19.0939C83.4761 19.0204 83.0792 18.9543 82.7656 19.285ZM8.27341 19.7628C6.92836 20.0617 5.69111 20.4904 4.56656 21.174C2.76091 22.274 1.62901 23.8641 1.49426 26.0152C1.33011 28.6416 1.16841 31.2631 1.24681 33.9042C1.48201 41.8667 1.61431 49.8292 1.82011 57.7916C2.00386 64.8868 2.22681 71.9796 2.43996 79.0748C2.48406 80.5423 2.86136 81.9217 3.56696 83.2153C4.04226 84.0899 4.66946 84.8225 5.58331 85.212C6.58536 85.6408 7.61191 86.0205 8.65071 86.3341C9.96881 86.7286 11.3874 86.7457 12.6246 87.4489C12.779 87.5346 12.9995 87.5297 13.1881 87.5273C17.3997 87.4783 21.6137 87.4097 25.8276 87.3729C31.0682 87.3264 36.3112 87.2847 41.5542 87.2798C43.6416 87.2774 45.7314 87.4121 47.8213 87.4097C49.8768 87.4048 51.9348 87.2431 53.9928 87.2578C62.8349 87.3239 71.6794 87.4293 80.5239 87.515C80.8081 87.5199 81.1437 87.5714 81.374 87.4464C82.6186 86.7629 84.0176 86.6796 85.3553 86.3513C86.5778 86.0499 87.7612 85.6481 88.8391 84.9915C89.7726 84.4182 90.3631 83.5877 90.7477 82.4607C89.7505 83.0242 88.8955 83.5705 87.989 84.0066C87.0727 84.4476 86.1197 84.8396 85.0515 84.7637C85.2205 84.6216 85.419 84.5554 85.6027 84.4574C86.8449 83.7935 88.1115 83.1663 89.3218 82.446C90.1891 81.9266 90.8187 81.1401 91.2916 80.241C91.6395 79.5819 91.6983 78.8984 91.5293 78.1046C89.2385 80.8731 87.1511 82.5268 85.3553 82.9556C85.5611 82.7939 85.6836 82.7106 85.7963 82.6077C87.0066 81.5027 88.2463 80.4321 89.4051 79.2781C90.3459 78.3447 91.0319 77.2103 91.544 75.9829C91.7792 75.4194 91.8919 74.8412 91.7277 74.0964C90.341 76.2916 88.8465 78.2393 86.5999 79.4521C86.6415 79.2487 86.7469 79.0968 86.8596 78.9523C87.7318 77.8424 88.6799 76.7816 89.459 75.6105C90.1842 74.5202 90.7355 73.3173 91.343 72.156C91.4753 71.9036 91.5341 71.6096 91.5979 71.3279C91.6517 71.0853 91.6665 70.8305 91.7008 70.5806C90.5027 72.4181 89.3561 74.2311 87.8028 75.7477C87.9253 75.341 88.1409 74.9931 88.3369 74.6329C89.4688 72.5798 90.5934 70.5292 91.713 68.4687C92.0021 67.9346 92.0732 67.3613 91.9115 66.6092C90.6277 68.9073 89.0621 70.7619 86.9772 72.1535C89.0131 69.8432 90.8065 67.3956 91.8012 64.4409C90.6595 65.7958 89.5644 67.1751 88.0797 68.1845C88.4153 67.5279 88.8686 66.9595 89.2434 66.347C90.1572 64.8403 91.0686 63.3286 91.9164 61.7851C92.2814 61.1187 92.2177 60.9129 92.0119 60.2171C89.8608 63.7059 89.6207 64.0146 88.6995 64.4409C88.9053 64.1543 89.0646 63.9191 89.2312 63.6888C90.7403 61.6357 91.7081 59.3498 92.1418 56.8386C92.2079 56.4637 92.2936 56.0742 92.1124 55.5597C91.1887 57.3849 90.1671 58.9407 88.7289 60.1902C89.0572 59.4601 89.4786 58.7912 89.8731 58.1052C90.2552 57.4364 90.6277 56.7626 90.9805 56.0766C91.4901 55.0966 91.6371 54.5871 91.6591 53.8545C90.6301 55.1824 89.6721 56.5152 88.2659 57.4119C88.4594 57.0297 88.7387 56.7161 88.9641 56.3682C89.998 54.7855 91.0294 53.1954 92.0413 51.5981C92.4063 51.0199 92.4946 50.378 92.3108 49.5695C91.3063 51.0738 90.4586 52.5389 89.1773 53.6634C89.2557 53.3376 89.4174 53.0705 89.5668 52.7937C90.4292 51.1816 91.3038 49.5744 92.1491 47.9525C92.4946 47.291 92.5509 46.578 92.3647 45.6838C91.8502 46.5511 91.4435 47.3008 90.9755 48.0137C90.515 48.7095 89.9931 49.3661 89.5006 50.0374C89.4492 50.0031 89.3953 49.9664 89.3414 49.9296C89.5178 49.6013 89.7113 49.2755 89.8755 48.9398C90.6081 47.4404 91.3602 45.9508 92.056 44.4367C92.4235 43.6307 92.6979 42.7781 92.5142 41.705C91.5072 43.2705 90.6081 44.7528 89.4125 46.0243C89.9343 44.9267 90.5591 43.8904 91.0956 42.8099C91.6077 41.7809 92.0462 40.7103 92.4774 39.6421C92.595 39.3554 92.573 39.0173 92.6146 38.7037C91.8551 39.5098 91.2573 40.3379 90.613 41.1317C89.5301 42.4694 89.1087 42.832 88.3957 43.126C88.7167 42.7095 89.0327 42.3469 89.2998 41.9451C90.1891 40.6123 91.1005 39.2868 91.9212 37.9124C92.3941 37.1235 92.7199 36.2439 92.7175 35.0459C92.279 35.7294 91.9653 36.2366 91.6297 36.7315C91.2867 37.2362 90.929 37.7311 90.5615 38.2186C89.8951 39.0957 89.8731 39.108 89.2679 39.4191C90.6081 37.0671 92.1564 34.8842 92.7518 32.2553C90.7575 35.4746 88.528 37.9246 87.2124 38.3632C88.1581 37.1872 89.1822 35.9499 90.1622 34.6833C91.1936 33.3529 91.9457 31.8633 92.5215 30.2855C92.6318 29.9793 92.8351 29.651 92.5509 29.2982C90.4341 32.1034 89.067 33.4362 88.163 33.6494C89.1013 32.3999 90.1328 31.1259 91.0442 29.771C91.6125 28.9258 92.0095 27.9654 92.4627 27.0466C92.6489 26.6742 92.6636 26.2871 92.3647 25.8241C91.4729 27.8208 90.1842 29.3741 88.6971 30.7755C88.8024 30.435 88.9813 30.1459 89.1577 29.8543C89.8192 28.7543 90.5125 27.6714 91.1226 26.5419C91.4729 25.9 91.7204 25.192 91.9408 24.4937C92.1197 23.9327 92.0168 23.8004 91.4631 23.3667C91.348 24.7191 90.9854 25.9686 90.047 26.9976C90.0348 26.7649 90.118 26.5664 90.1867 26.3631C90.5811 25.2312 90.7649 24.0674 90.7306 22.8645C90.7085 22.1466 90.3876 21.6713 89.6501 21.3724C89.8853 22.8816 89.7579 24.2683 88.8637 25.4835C88.9078 24.5942 89.0229 23.7195 89.116 22.8449C89.1944 22.1099 88.9592 21.4484 88.5476 20.8555C88.457 20.7232 88.2561 20.6644 87.9743 20.4929C88.457 21.8649 88.3736 23.0801 87.7612 24.1654C87.7612 23.4108 87.8273 22.7395 87.7416 22.0878C87.6583 21.4557 87.4182 20.8457 87.2271 20.1597C86.7444 20.0396 86.2397 19.9147 85.664 19.7726C85.5537 21.0049 85.4655 22.0878 85.3602 23.1707C85 26.9119 84.6399 30.6506 84.2724 34.3893C83.9367 37.8413 83.6256 41.2934 83.2409 44.7405C82.7779 48.9202 82.185 53.0852 81.7685 57.2673C81.4353 60.641 79.8501 63.0616 76.7876 64.5046C75.6116 65.0559 74.3768 65.3891 73.0538 65.2298C72.9117 65.2151 72.7549 65.2935 72.5393 65.3425C72.5712 65.7835 72.5981 66.1927 72.63 66.6018C72.7378 68.0743 72.897 69.5418 72.9411 71.0143C72.9975 72.8052 72.1596 73.8391 70.4005 74.2189C69.7806 74.3512 69.1289 74.3977 68.4895 74.4051C66.723 74.4173 64.9517 74.4859 63.1926 74.3536C61.311 74.214 60.4559 73.2364 60.2795 71.372C60.2648 71.2152 60.2575 71.051 60.2624 70.8918C60.2942 69.8971 60.3432 68.9024 60.3653 67.9101C60.3824 67.082 60.3677 66.2539 60.3677 65.3646C59.2824 65.3646 58.1652 65.3401 57.0504 65.3695C54.5784 65.4307 52.1039 65.5802 49.6318 65.5704C47.221 65.563 44.8151 65.4136 42.4068 65.3107C41.831 65.2886 41.2553 65.1416 40.682 65.149C38.401 65.1857 36.1225 65.2568 33.8416 65.3205C33.6284 65.3254 33.4153 65.3768 33.1654 65.4087C33.1923 65.8154 33.2119 66.1682 33.2389 66.5185C33.3516 67.9885 33.5084 69.4585 33.5696 70.9285C33.6456 72.7734 32.8077 73.8367 31.0143 74.2189C30.3626 74.3585 29.679 74.4051 29.0077 74.41C27.2731 74.4247 25.5312 74.4859 23.8064 74.3536C21.9346 74.2091 21.0771 73.2266 20.9056 71.3622C20.8909 71.2029 20.8836 71.0412 20.8885 70.882C20.9203 69.8873 20.9693 68.8926 20.9914 67.8979C21.0085 67.0404 20.9938 66.1829 20.9938 65.2568C20.6533 65.2568 20.2711 65.2935 19.8962 65.2519C16.868 64.9236 12.7814 62.6328 12.3061 57.7402C12.0513 55.0918 11.6593 52.4531 11.3727 49.8071C10.7724 44.2848 10.182 38.7601 9.62581 33.2353C9.19706 28.9552 8.82466 24.6677 8.42041 20.3851C8.40571 20.2062 8.33956 20.0298 8.27341 19.7628ZM64.3833 17.499C64.4274 17.2491 64.4617 17.1535 64.4568 17.0604C64.3808 15.2033 64.3931 13.3315 64.1995 11.4842C63.9521 9.12733 62.6585 7.20163 60.0125 6.93948C58.0035 6.73858 55.9749 6.74593 53.9561 6.67243C51.68 6.59158 49.404 7.02278 47.1255 6.72388C46.8143 6.67978 46.486 6.77533 46.1651 6.79738C45.7829 6.82188 45.4007 6.85618 45.016 6.85128C41.9315 6.81453 38.8494 6.74103 35.7673 6.74593C34.9098 6.74838 34.0425 6.92723 33.1997 7.10853C32.1927 7.32413 31.3377 7.86803 30.8158 8.76963C30.2401 9.76188 29.7574 10.8056 29.755 11.9987C29.755 12.2854 29.7207 12.572 29.7084 12.8587C29.6447 14.3581 29.5859 15.8575 29.5173 17.4965C41.1671 17.1511 52.7458 17.1437 64.3833 17.499ZM37.7787 5.34208C38.9082 5.64588 38.428 4.34983 39.1654 4.20283C39.2389 4.58258 39.3149 4.97458 39.3933 5.36903C40.1699 5.41313 39.8906 4.33268 40.6158 4.30328C40.6918 4.63648 40.7653 4.97458 40.8461 5.33963C41.1034 5.33963 41.3508 5.33963 41.5493 5.33963C41.9315 4.97948 41.782 4.33758 42.3847 4.12198C42.4337 4.53358 42.4778 4.90108 42.517 5.25878C43.5338 5.55768 43.2545 4.31063 43.9527 4.18323C43.9527 4.55318 43.9527 4.91088 43.9527 5.40333C44.8078 5.05053 44.6902 3.99213 45.5281 3.62708C45.4791 4.25428 45.4374 4.77368 45.3982 5.27838C45.8074 5.41313 46.0695 5.35923 46.1945 4.95253C46.2998 4.60708 46.3537 4.21753 46.8339 3.89168C46.8339 4.45518 46.8339 4.87658 46.8339 5.32983C47.1108 5.32983 47.2945 5.32983 47.5028 5.32983C47.711 4.82023 47.6841 4.16608 48.424 3.91373C48.424 4.42333 48.424 4.86188 48.424 5.27593C48.9042 5.48908 49.0414 5.27593 49.1369 4.89863C49.2398 4.48948 49.2937 4.01418 49.9381 3.83043C49.9381 4.38658 49.9381 4.86923 49.9381 5.36903C50.3497 5.41803 50.5849 5.32493 50.7098 5.00398C50.8201 4.72713 50.8201 4.36698 51.288 4.25428C51.3738 4.67323 51.4546 5.06523 51.5355 5.46703C51.8956 5.52093 52.197 5.56258 52.2386 5.07258C52.2729 4.67568 52.3587 4.28368 52.8413 3.98478C52.9712 4.50418 53.0765 4.92803 53.1843 5.35678C53.395 5.35678 53.5763 5.35678 53.7478 5.35678C53.9046 4.70263 54.0835 4.11218 54.7254 3.51683C54.7254 4.24938 54.7254 4.79818 54.7254 5.38128C55.7397 5.42783 55.3648 4.23958 56.1145 4.06808C56.2101 4.52623 56.2983 4.95498 56.384 5.36903C56.7932 5.51358 56.999 5.39108 57.1313 4.99908C57.2415 4.67568 57.2856 4.26898 57.7903 4.02643C57.7903 4.57033 57.7903 5.00398 57.7903 5.48418C58.1358 5.48418 58.4004 5.48418 58.638 5.48418C58.8977 4.90598 58.8365 4.23713 59.5494 3.77408C59.5837 4.43558 59.6107 4.95498 59.6425 5.55278C60.4976 5.14853 60.3408 4.01663 61.2032 3.60503C61.3649 4.46498 61.0562 5.15343 60.7328 5.85413C60.9386 5.94233 61.1101 6.02563 61.2865 6.09178C61.458 6.15548 61.6344 6.20448 61.8034 6.25838C62.3106 5.04318 62.5605 4.70753 63.3567 4.32533C62.9819 5.17548 62.6756 5.87618 62.2934 6.74348C63.369 6.31963 64.1726 5.61158 65.1697 5.39598C65.2114 5.45478 65.253 5.51603 65.2947 5.57973C64.6258 6.14568 63.957 6.71408 63.2244 7.33638C63.3886 7.41233 63.538 7.54218 63.6679 7.52503C63.8443 7.49808 63.9962 7.32168 64.1775 7.27268C64.79 7.10118 65.3804 6.71898 66.2232 7.00073C65.5348 7.75043 64.6577 7.79943 63.9545 8.14243C64.0501 8.54913 64.202 8.75983 64.6332 8.69858C65.1844 8.61773 65.7332 8.67408 66.2551 9.10528C65.7161 9.24003 65.1771 9.37723 64.6062 9.52178C64.7116 9.76678 64.7973 9.96278 64.8659 10.1269C65.6597 10.2102 66.4462 10.0412 67.1787 10.7517C66.3727 10.8595 65.7161 10.9501 65.0252 11.0432C65.0717 11.2858 65.1134 11.494 65.1648 11.766C65.9807 11.6631 66.7647 11.5969 67.5903 11.8419C66.8921 12.403 66.5834 12.4667 65.2138 12.376C65.2138 12.7043 65.2138 13.0277 65.2138 13.3732C66.1277 13.1184 66.9435 13.1282 67.8794 13.5814C66.9313 13.9661 66.1007 14.0592 65.1722 13.8656C65.1991 14.2723 65.2212 14.5761 65.2432 14.8799C66.2355 14.8848 67.1934 14.6153 68.1612 15.2352C67.2473 15.953 66.3114 16.0535 65.231 15.806C65.2873 16.2176 65.3265 16.5116 65.3706 16.8154C66.2453 16.715 67.0268 16.5802 67.9407 16.8644C67.632 17.1241 67.4213 17.2932 67.1248 17.5406C67.8476 17.5406 68.4576 17.5406 69.0677 17.5406C69.6606 17.5406 70.2535 17.5406 70.8341 17.5406C70.866 17.3177 70.8978 17.2221 70.8929 17.129C70.7851 14.755 70.7361 12.3785 70.5352 10.0118C70.425 8.71083 70.1016 7.41968 69.7904 6.14568C69.5552 5.19018 68.9917 4.39638 68.1906 3.80103C67.2816 3.12238 66.2845 2.61278 65.1624 2.37758C61.5584 1.62298 57.9202 1.32899 54.2403 1.46128C52.9932 1.50538 51.7339 1.64994 50.5212 1.16973C50.3227 1.09133 50.0753 1.13543 49.8523 1.13543C47.956 1.13543 46.0597 1.13543 44.161 1.14278C43.9062 1.14278 43.6293 1.12074 43.399 1.20403C42.4656 1.54948 41.5052 1.49803 40.5399 1.49558C38.646 1.48823 36.7399 1.39514 34.8559 1.55683C32.7195 1.73568 30.5708 2.02478 28.481 2.50498C25.9991 3.07583 24.3576 4.64873 23.8897 7.25553C23.8211 7.63528 23.7182 8.01258 23.6912 8.39478C23.4879 11.2735 23.3017 14.1547 23.1155 17.0359C23.1057 17.1878 23.1547 17.3422 23.1841 17.5406C23.7966 17.5406 24.3674 17.5431 24.9383 17.5382C26.0016 17.5333 27.0624 17.5284 28.1233 17.5137C28.4124 17.5088 28.7382 17.5063 28.6304 17.031C27.8489 16.9404 27.0649 16.8497 26.2809 16.7566C26.2735 16.6905 26.2662 16.6219 26.2613 16.5533C26.7121 16.4357 27.1727 16.3475 27.6112 16.1907C27.9787 16.0633 28.6059 16.3965 28.7064 15.6247C27.8905 15.5341 27.1188 15.4483 26.1437 15.3405C27.0306 14.755 27.9469 14.875 28.8534 14.3287C28.2164 14.2797 27.8097 14.2674 27.4079 14.2111C26.9889 14.1498 26.5724 14.0469 26.1535 13.9636C26.1584 13.8926 26.1633 13.8215 26.1682 13.748C26.9963 13.552 27.8244 13.3536 28.8656 13.1061C28.0816 12.8415 27.5304 12.6529 26.9791 12.4667C26.9791 12.3858 26.9791 12.305 26.9816 12.2266C27.4887 12.0845 27.991 11.9252 28.5055 11.8101C28.8583 11.7317 29.0175 11.5896 28.873 11.2515C28.3609 11.0702 27.8734 10.9011 27.327 10.71C27.8905 10.0608 28.7358 10.6512 29.2674 10.0167C28.7456 9.73003 28.2923 9.48258 27.8391 9.23268C27.8562 9.15673 27.8758 9.08078 27.893 9.00728C28.4932 9.00728 29.0935 9.00728 29.9436 9.00728C29.118 8.02238 28.0743 7.51033 27.7558 6.33188C28.8607 6.49603 29.5345 7.24083 30.4018 7.72348C30.6002 7.50053 30.7815 7.29963 30.953 7.10853C30.3969 6.25348 29.8848 5.45968 29.8946 4.37923C30.5488 5.06278 31.2054 5.74633 31.8889 6.45683C32.0555 6.36128 32.2417 6.25838 32.4377 6.14813C32.1217 5.35923 32.0702 4.59973 32.2564 3.69568C32.9449 4.28858 33.1188 5.02603 33.4373 5.67528C33.5182 5.14853 33.5941 4.66098 33.6774 4.12443C34.3267 4.50173 33.9347 5.29308 34.508 5.66303C34.8142 5.09463 34.4541 4.41108 35.0249 3.85493C35.2307 4.46498 35.3973 4.96478 35.5982 5.56993C35.7648 4.99663 35.9045 4.50908 36.0466 4.02398C36.1348 4.03133 36.223 4.03623 36.3112 4.04358C36.3822 4.49193 36.4508 4.94028 36.5243 5.40823C36.9016 5.52583 37.1368 5.48663 37.2201 5.04073C37.2961 4.63893 37.2961 4.18323 37.7787 3.83288C37.7787 4.39148 37.7787 4.83493 37.7787 5.34208ZM31.8693 67.5524C31.8742 67.55 31.884 67.55 31.8914 67.55C31.862 66.9742 31.8301 66.396 31.8007 65.8203C31.7713 65.2127 31.7591 64.6026 31.7174 63.995C31.5851 62.1477 30.4924 60.8737 28.7064 60.5013C27.9836 60.3494 27.256 60.1902 26.521 60.1387C24.2645 59.977 22.2433 60.8076 22.2164 63.6888C22.2041 64.9383 22.0473 66.1853 21.964 67.4324C21.8807 68.6794 21.746 69.9265 21.7411 71.1735C21.7337 72.4818 22.2458 73.0306 23.5443 73.0282C25.7933 73.0208 28.0424 72.9522 30.2866 72.8224C31.6709 72.7415 32.1315 72.1192 32.0555 70.7227C32.0016 69.6643 31.9306 68.6084 31.8693 67.5524ZM71.2457 67.6014C71.2506 67.6014 71.2555 67.6014 71.2604 67.6014C71.2041 66.4156 71.1624 65.2298 71.0914 64.044C70.9762 62.1355 69.8982 60.8786 68.0338 60.494C67.2816 60.3372 66.5197 60.1583 65.7553 60.1265C63.5086 60.026 61.6393 60.8835 61.5952 63.6373C61.5756 64.9187 61.4188 66.1976 61.3355 67.4789C61.2522 68.7578 61.1199 70.0367 61.1248 71.3132C61.1272 72.4622 61.6319 72.913 62.7712 73.0306C62.9304 73.0478 63.0921 73.0551 63.2538 73.0502C65.3412 72.9865 67.4311 72.9473 69.5136 72.842C71.0154 72.7611 71.5103 72.1535 71.427 70.6762C71.3707 69.6521 71.307 68.628 71.2457 67.6014Z" fill="#5A9EFF"/>
<path fill-rule="evenodd" clip-rule="evenodd" d="M63.6899 35.7697C63.6041 36.7277 63.5992 37.6611 63.4179 38.5603C62.8642 41.3288 62.1733 44.0556 61.186 46.7114C59.9169 50.1218 57.658 52.4738 54.1692 53.5935C52.9785 53.9781 51.7902 54.3848 50.575 54.6666C49.7739 54.8552 48.9213 54.9018 48.0932 54.9067C45.7093 54.9263 43.3598 54.6225 41.0176 54.1692C37.6268 53.5102 35.3483 51.4277 33.7019 48.5734C32.5749 46.6183 31.9893 44.4305 31.4283 42.2549C31.1661 41.2308 30.8868 40.2067 30.7055 39.1654C30.5169 38.0678 30.436 36.9531 30.2964 35.7379C30.8084 35.6105 31.1955 35.4488 31.5875 35.4292C34.3119 35.2969 37.0388 35.145 39.7681 35.0911C46.7383 34.9514 53.7086 35.0102 60.6764 35.2724C61.6343 35.3091 62.6021 35.3189 63.6899 35.7697ZM62.9573 36.5096C62.7123 36.4557 62.6511 36.4288 62.5898 36.4288C57.6433 36.2916 52.6967 36.1568 47.7526 36.0245C47.2038 36.0098 46.6575 36.0123 46.1136 36.0368C44.8616 36.0931 43.6121 36.2009 42.3602 36.2279C38.6974 36.3087 35.0347 36.3602 31.3695 36.4288C31.2862 36.4288 31.2029 36.4827 31.0657 36.5341C31.247 37.3916 31.4087 38.2418 31.6096 39.0821C32.2221 41.6718 32.8419 44.2614 33.8734 46.7335C34.5471 48.348 35.5516 49.7029 36.9898 50.6853C39.0943 52.1235 41.4218 53.0496 43.9821 53.1672C47.7306 53.3362 51.4203 52.9834 54.9948 51.7045C56.0826 51.3174 57.0161 50.7588 57.8687 50.0091C59.0618 48.9581 59.8777 47.6522 60.353 46.17C61.0561 43.9723 61.6784 41.7502 62.2934 39.5256C62.5653 38.5431 62.7344 37.5313 62.9573 36.5096Z" fill="#5A9EFF"/>
<path fill-rule="evenodd" clip-rule="evenodd" d="M82.7655 19.2838C82.5818 19.5754 82.4495 19.9233 82.2045 20.1487C76.6136 25.2643 71.0129 30.3676 65.4098 35.471C65.3265 35.5469 65.2187 35.5959 65.0423 35.5714C65.4392 35.1721 65.8238 34.758 66.233 34.3709C71.3779 29.5297 76.5254 24.691 81.6826 19.8645C81.9791 19.5876 82.2167 19.0829 82.7876 19.3083C82.79 19.3083 82.7655 19.2838 82.7655 19.2838Z" fill="#5A9EFF"/>
<path fill-rule="evenodd" clip-rule="evenodd" d="M24.0074 49.2117C23.3704 49.8732 22.7628 50.5641 22.0939 51.1913C19.6366 53.4918 17.1621 55.7752 14.6827 58.0537C14.3495 58.3575 14.031 58.7422 13.4699 58.7471C13.3425 58.2644 13.6635 58.0415 13.9011 57.821C14.7439 57.0321 15.5941 56.2505 16.4663 55.4959C18.7448 53.5237 21.0355 51.5637 23.3238 49.6037C23.5174 49.4395 23.7256 49.295 23.9265 49.1406C23.9559 49.1651 23.9804 49.1896 24.0074 49.2117Z" fill="#5A9EFF"/>
<path fill-rule="evenodd" clip-rule="evenodd" d="M23.3924 45.8971C21.234 47.96 19.0804 50.0254 16.9146 52.0809C16.0057 52.9433 15.0698 53.7788 14.1412 54.6191C13.9526 54.7906 13.7468 54.9499 13.5263 55.0748C13.443 55.1214 13.2568 55.092 13.1882 55.0258C13.1196 54.9572 13.0804 54.7612 13.1294 54.6902C13.2886 54.4525 13.4748 54.2247 13.688 54.036C15.7264 52.223 17.7672 50.4051 19.8228 48.6093C20.9498 47.6244 22.1086 46.6762 23.2552 45.7109C23.3018 45.7722 23.3459 45.8359 23.3924 45.8971Z" fill="#5A9EFF"/>
<path fill-rule="evenodd" clip-rule="evenodd" d="M12.8498 52.4434C12.8302 52.147 12.7543 51.9461 12.8204 51.8236C12.9233 51.6349 13.1144 51.4879 13.281 51.3409C16.2872 48.7268 19.2958 46.1151 22.3044 43.5058C22.4416 43.3882 22.5959 43.2927 22.8654 43.1016C22.1892 44.1232 13.9915 51.7746 12.8498 52.4434Z" fill="#5A9EFF"/>
<path fill-rule="evenodd" clip-rule="evenodd" d="M21.0819 38.5488C19.5458 40.4451 13.2713 46.0434 12.3109 46.3839C12.3452 46.1732 12.3207 45.9723 12.4065 45.8449C12.551 45.6391 12.7519 45.4652 12.9479 45.301C15.4788 43.1695 18.0121 41.0405 20.5478 38.9114C20.6581 38.8208 20.7855 38.7497 21.0819 38.5488Z" fill="#5A9EFF"/>
<path fill-rule="evenodd" clip-rule="evenodd" d="M5.60779 77.3423C5.54654 78.1165 5.61514 78.8613 6.07084 79.6576C9.24114 76.4236 12.3061 73.1602 15.7777 70.3329C15.8341 70.3745 15.888 70.4186 15.9419 70.4627C15.8512 70.6367 15.7924 70.84 15.6626 70.9821C14.9251 71.7857 14.2073 72.6163 13.4159 73.3635C11.1938 75.4558 8.93734 77.5138 6.69314 79.5816C6.55349 79.709 6.39669 79.8193 6.21049 79.9687C6.98714 81.2795 8.17294 81.9655 9.29749 82.7715C10.9561 80.8948 12.4629 78.9667 14.4498 77.5138C14.5086 77.4722 14.6238 77.5089 14.8982 77.5089C13.3522 79.6184 11.4388 81.1668 9.59149 82.8107C10.0594 83.3448 10.6107 83.4673 11.2844 83.4355C13.1758 83.3424 15.0721 83.2934 16.9684 83.2713C17.5368 83.2664 17.9117 83.068 18.2767 82.6441C18.8647 81.9655 19.5189 81.3432 20.1632 80.716C20.4082 80.4808 20.7047 80.297 21.0477 80.1549C20.8737 80.8311 20.3715 81.255 19.906 81.6984C19.4209 82.159 18.9235 82.6074 18.4115 83.0802C19.2298 83.3007 30.806 83.0974 38.5358 82.9357C45.2218 82.7985 51.9079 82.9087 58.6037 83.019C57.6752 83.0876 56.7491 83.188 55.8205 83.2174C49.4603 83.4183 43.1001 83.6339 36.7375 83.7858C30.7595 83.9255 24.7815 84.0063 18.801 84.0872C16.1036 84.1239 13.3963 84.2146 10.7062 84.0676C7.36199 83.8789 4.82869 81.6102 4.47834 78.5649C4.17699 75.963 4.20149 73.3562 4.55919 70.7567C4.58859 70.5509 4.67434 70.3525 4.73069 70.1467C4.79929 70.1442 4.86789 70.1393 4.93649 70.1369C5.07614 70.9527 5.21579 71.771 5.37504 72.7045C6.47754 71.5971 7.50654 70.5632 8.53554 69.5293C8.60659 69.5832 8.68009 69.6322 8.74869 69.6861C8.61639 69.8968 8.50859 70.1344 8.33954 70.3133C7.56534 71.1242 6.80094 71.9548 5.97529 72.7143C5.44854 73.1994 5.17414 73.6967 5.42894 74.4807C5.60779 74.3435 5.78419 74.2357 5.92384 74.0961C6.70049 73.3292 7.45754 72.5379 8.24644 71.7833C8.55024 71.4942 8.92509 71.2786 9.33424 71.0997C9.26809 71.673 8.91284 72.0283 8.56004 72.3737C7.70744 73.2018 6.86954 74.0471 5.96794 74.8213C5.49754 75.2255 5.30154 75.6494 5.41914 76.2423C5.49264 76.6147 5.55389 76.9871 5.62004 77.3595L5.60779 77.3423Z" fill="#5A9EFF"/>
<path fill-rule="evenodd" clip-rule="evenodd" d="M54.3162 84.6065C40.3928 85.05 26.4719 85.2264 12.529 86.0275C12.6858 85.513 13.1439 85.4763 13.5212 85.415C14.5992 85.246 15.6821 85.0647 16.7699 85.0132C20.2661 84.8466 23.7647 84.6825 27.2657 84.6188C33.4324 84.5012 39.6015 84.4448 45.7706 84.3885C48.0491 84.3664 50.3325 84.413 52.6134 84.4522C53.1818 84.4595 53.7478 84.5526 54.3162 84.6065Z" fill="#5A9EFF"/>
<path fill-rule="evenodd" clip-rule="evenodd" d="M7.84214 81.1424C8.79764 79.567 12.823 75.9459 13.7564 75.625C13.9622 76.115 13.5506 76.3404 13.3007 76.5658C12.2766 77.4943 11.2305 78.3959 10.1745 79.2853C9.41259 79.9247 8.62124 80.525 7.84214 81.1424Z" fill="#5A9EFF"/>
<path fill-rule="evenodd" clip-rule="evenodd" d="M5.61992 77.3603C6.19322 76.7674 6.76897 76.1745 7.33492 75.5791C8.15322 74.7192 8.95927 73.8494 9.78002 72.9944C10.0226 72.7445 10.3019 72.5313 10.6767 72.3672C10.6351 72.4848 10.6228 72.6342 10.542 72.7151C9.09892 74.2169 7.65342 75.7139 6.18832 77.1937C6.06827 77.3137 5.80857 77.3015 5.61257 77.3456C5.60767 77.3431 5.61992 77.3603 5.61992 77.3603Z" fill="#5A9EFF"/>
<path fill-rule="evenodd" clip-rule="evenodd" d="M12.4653 82.7468C13.5874 81.2891 14.7266 79.8558 16.3534 78.9199C15.4371 80.5835 13.9279 81.6492 12.4653 82.7468Z" fill="#5A9EFF"/>
<path fill-rule="evenodd" clip-rule="evenodd" d="M18.6099 79.6595C18.6221 79.7771 18.6883 79.9462 18.6368 80.0001C17.6225 81.0389 16.5396 82.0017 15.2999 82.7833C16.1721 81.5485 17.3285 80.6003 18.3967 79.5664C18.4678 79.5983 18.5388 79.6301 18.6099 79.6595Z" fill="#5A9EFF"/>
<path fill-rule="evenodd" clip-rule="evenodd" d="M23.4486 80.7852C23.0101 81.6819 22.2236 82.091 21.5033 82.7084C21.7312 81.7627 22.6205 80.8685 23.4486 80.7852Z" fill="#5A9EFF"/>
<path fill-rule="evenodd" clip-rule="evenodd" d="M23.8259 82.5581C24.142 82.024 24.556 81.6394 25.3204 81.4336C24.948 82.1931 24.3919 82.3866 23.8259 82.5581Z" fill="#5A9EFF"/>
<path fill-rule="evenodd" clip-rule="evenodd" d="M25.7982 81.5625C26.8272 81.8834 26.8884 81.9765 26.3886 82.4641C26.1975 82.1725 26.0113 81.8883 25.7982 81.5625Z" fill="#5A9EFF"/>
<path fill-rule="evenodd" clip-rule="evenodd" d="M23.5171 66.9906C23.5171 66.1552 23.4901 65.3173 23.5244 64.4843C23.5563 63.7174 23.9875 63.1613 24.7249 63.0657C25.8642 62.9114 26.9985 62.6958 28.1696 62.9824C29.0222 63.1907 29.5686 63.6366 29.745 64.4647C29.892 65.1507 29.9581 65.8538 30.0267 66.5545C30.1051 67.3165 30.1419 68.0858 30.1958 68.8502C30.2129 69.0755 30.2521 69.2985 30.2546 69.5214C30.2619 70.4132 29.9336 70.7562 29.0541 70.7685C28.0912 70.7807 27.1235 70.8248 26.1631 70.7783C25.531 70.7489 24.8866 70.6362 24.279 70.4573C23.7082 70.2907 23.4191 69.8571 23.4583 69.2029C23.5024 68.468 23.4681 67.7281 23.4681 66.9906C23.4852 66.9906 23.4999 66.9906 23.5171 66.9906ZM27.0671 63.7689C27.05 63.7076 27.0304 63.6464 27.0132 63.5851C26.3591 63.6243 25.7 63.6268 25.0508 63.7125C24.2496 63.8179 24.1565 63.9502 24.1516 64.7832C24.1443 66.2238 24.159 67.6644 24.1492 69.1074C24.1467 69.4847 24.2864 69.737 24.6563 69.8105C25.8666 70.058 27.0769 70.1339 28.2333 69.5778C28.7772 69.3156 28.9561 68.8575 28.8556 68.1495C28.493 68.4386 28.2358 68.6762 27.9442 68.8624C27.6625 69.0412 27.4665 69.4651 26.9128 69.2715C27.1455 69.029 27.3023 68.833 27.4934 68.6762C27.8928 68.3528 28.3019 68.0392 28.7233 67.7477C29.0443 67.5272 29.2329 67.2944 28.961 66.8485C28.4685 67.2871 27.9957 67.7134 27.5204 68.1348C27.0451 68.5537 26.582 68.9947 25.9597 69.2176C26.7952 68.2769 27.6943 67.412 28.6278 66.5864C28.9463 66.3046 29.1766 66.0768 28.863 65.6162C27.6086 66.6697 26.4718 67.8138 25.0091 68.5586C25.0728 68.3504 25.2664 68.2793 25.4085 68.1519C26.4595 67.2136 27.5008 66.2556 28.5543 65.3148C28.8189 65.0772 29.0565 64.8738 28.6498 64.6019C27.3366 65.6309 26.0357 66.6476 24.7347 67.6644C24.6784 67.5933 24.6196 67.5247 24.5632 67.4537C25.8593 66.3536 27.1553 65.2511 28.4636 64.1388C27.8217 63.7223 27.8266 63.7272 27.4003 64.0947C26.7241 64.6754 26.0749 65.2928 25.3252 65.773C25.2492 65.6897 25.1757 65.6064 25.0998 65.5255C25.7564 64.9375 26.4105 64.3544 27.0671 63.7689Z" fill="#5A9EFF"/>
<path fill-rule="evenodd" clip-rule="evenodd" d="M66.7083 70.7593C66.0664 70.7593 65.422 70.8009 64.7875 70.7446C64.3514 70.7005 63.9177 70.5461 63.5037 70.3869C63.0014 70.1909 62.7883 69.7768 62.7981 69.2427C62.825 67.7727 62.852 66.3003 62.8838 64.8303C62.9083 63.5832 63.342 63.1471 64.6062 62.9903C65.6278 62.8678 66.6348 62.7478 67.6589 63.0099C68.3816 63.1961 68.8937 63.5783 69.0578 64.2986C69.2244 65.0091 69.3249 65.7392 69.4008 66.4644C69.489 67.2582 69.516 68.0569 69.5699 68.8507C69.5846 69.0418 69.6164 69.2329 69.6262 69.424C69.6605 70.4212 69.3298 70.7666 68.3424 70.7691C67.7985 70.7715 67.2522 70.7691 66.7083 70.7691C66.7083 70.7666 66.7083 70.7617 66.7083 70.7593ZM68.3228 66.1067C67.0978 67.1945 66.0149 68.3926 64.5449 69.1325C64.834 68.6253 65.177 68.1745 65.5592 67.7629C66.3285 66.9397 67.1125 66.1337 67.9014 65.3325C68.1758 65.0508 68.3767 64.7911 68.046 64.4995C66.6421 65.8691 65.2407 67.2239 63.8516 68.5935C63.2954 69.1398 63.4155 69.6984 64.1701 69.8528C65.2138 70.0659 66.2795 70.0757 67.311 69.7254C67.7152 69.5882 68.0803 69.3579 68.1954 68.9095C68.3155 68.4391 68.389 67.9565 68.5041 67.366C67.6197 67.8462 67.3379 68.8115 66.3065 69.0908C66.8602 67.8707 67.9406 67.2239 68.3228 66.1067ZM66.5441 63.7743C66.6054 63.8307 66.6642 63.8846 66.7254 63.9385C66.5221 64.208 66.3457 64.5044 66.1129 64.7372C65.4147 65.4428 64.7042 66.1361 63.9741 66.805C63.5992 67.1455 63.511 67.4934 63.7364 68.0349C64.4151 67.2925 65.0227 66.6041 65.6572 65.9352C66.2795 65.2762 66.9263 64.6416 67.725 63.8282C66.8161 63.718 66.1399 63.6371 65.4122 63.5465C65.0815 64.747 63.9079 65.308 63.6629 66.4595C64.1848 66.0259 64.6111 65.5114 65.0815 65.0459C65.5421 64.5926 65.8459 63.9434 66.5441 63.7743ZM63.6482 65.5163C64.1284 64.8523 64.518 64.3133 64.9639 63.6959C63.511 63.7988 63.4032 63.9409 63.6482 65.5163Z" fill="#5A9EFF"/>
<path fill-rule="evenodd" clip-rule="evenodd" d="M60.1104 38.1725C59.7184 38.224 59.3289 38.3024 58.9369 38.3244C52.8413 38.6576 46.7432 38.5106 40.6452 38.3514C39.0429 38.3097 37.4455 38.2583 35.8579 37.7438C36.3381 37.6899 36.8207 37.5968 37.3009 37.5943C41.8261 37.587 46.3537 37.5527 50.8788 37.6139C53.7649 37.6507 56.651 37.832 59.5371 37.952C59.7209 37.9594 59.9071 37.9888 60.0908 38.0108C60.0982 38.0647 60.1031 38.1186 60.1104 38.1725Z" fill="#5A9EFF"/>
<path fill-rule="evenodd" clip-rule="evenodd" d="M42.0833 40.2825C42.7644 39.7852 43.5337 39.7631 44.2834 39.7092C49.1271 39.3613 53.9683 39.501 58.8021 39.9101C59.0153 39.9273 59.2235 40.0008 59.4342 40.0473C59.4318 40.111 59.4293 40.1747 59.4269 40.2384C57.5061 40.2482 55.5853 40.2654 53.6645 40.2703C51.7388 40.2776 49.8131 40.2678 47.8874 40.2703C45.9543 40.2752 44.0213 40.4369 42.0833 40.2825Z" fill="#5A9EFF"/>
<path fill-rule="evenodd" clip-rule="evenodd" d="M56.8201 40.9449C53.956 41.1899 51.0895 41.5966 48.125 41.2438C49.0095 40.624 55.0242 40.4059 56.8201 40.9449Z" fill="#5A9EFF"/>
<path fill-rule="evenodd" clip-rule="evenodd" d="M51.0993 41.9653C51.6922 41.6272 52.6036 41.6591 54.5979 42.0903C53.8433 42.4823 51.8368 42.4112 51.0993 41.9653Z" fill="#5A9EFF"/>
</svg>
