<svg width="135" height="115" viewBox="0 0 135 115" fill="none" xmlns="http://www.w3.org/2000/svg">
<path fill-rule="evenodd" clip-rule="evenodd" d="M132.401 79.7088C132.583 80.5221 132.766 81.3382 132.964 82.2435C132.575 82.2701 132.197 82.2687 131.832 82.3258C129.252 82.7302 126.672 83.1223 124.098 83.5593C121.046 84.0732 117.999 84.6044 114.961 85.1769C113.68 85.4171 112.42 85.7827 111.15 86.0947C108.357 86.7816 105.537 87.3732 102.781 88.1901C99.7762 89.0778 96.8359 90.1908 93.8602 91.1797C92.3289 91.6912 90.7802 92.142 89.2443 92.6267C86.832 93.3893 84.4081 94.1115 82.0229 94.9477C81.1336 95.2574 80.0584 95.4077 79.667 96.5656C79.6005 96.7595 79.0583 96.8297 78.7233 96.8815C76.9565 97.1478 75.1884 97.3988 73.42 97.6375C69.0369 98.2248 64.8303 99.5302 60.5966 100.74C57.5789 101.604 54.5172 102.301 51.5165 103.213C47.9326 104.303 44.3578 105.447 40.8456 106.745C37.4552 107.999 34.143 109.462 30.8115 110.868C28.9631 111.648 27.2004 112.597 25.6558 113.905C25.4977 114.041 25.2856 114.108 25.0891 114.207C24.4024 113.825 24.3183 113.125 24.1123 112.534C23.8751 111.855 23.5437 111.328 22.9494 110.898C22.6426 110.676 22.442 110.224 22.3316 109.837C21.0842 105.417 19.8569 100.992 18.6355 96.5643C16.9216 90.366 15.2404 84.1615 13.4976 77.9715C9.4576 63.6132 5.38499 49.2611 1.33341 34.906C1.05469 33.9174 0.857665 32.9085 0.62227 31.9075C0.73121 31.8733 0.839327 31.8362 0.948266 31.802C1.10233 32.211 1.28816 32.6109 1.40755 33.0297C2.36316 36.349 3.31958 39.6712 4.25208 42.9971C5.82106 48.5996 7.34671 54.2143 8.93508 59.8081C13.6224 76.3056 18.332 92.7936 23.0337 109.287C23.1638 109.743 23.2939 110.2 23.4076 110.598C26.5814 109.363 29.6422 108.125 32.7359 106.98C39.2395 104.573 45.8226 102.391 52.5379 100.661C58.5723 99.106 64.6503 97.7263 70.7106 96.2735C72.4882 95.848 74.2593 95.3993 76.0513 95.0571C76.709 94.9321 77.4165 95.0802 78.2214 95.11C78.8408 94.1058 80.103 93.9865 81.1767 93.5898C89.5179 90.4967 97.9295 87.6179 106.505 85.2482C114.114 83.1478 121.792 81.3432 129.584 80.0495C130.527 79.8933 131.487 79.832 132.44 79.7257L132.401 79.7088ZM59.8889 100.295C59.8667 100.196 59.8445 100.096 59.8214 99.993C47.7551 103.067 35.8956 106.779 24.2248 111.493C24.5247 112.216 24.8007 112.878 25.0454 113.473C26.407 112.651 27.6089 111.762 28.9394 111.148C32.1369 109.678 35.381 108.294 38.6321 106.945C44.2325 104.624 49.9803 102.755 55.8995 101.42C57.2438 101.118 58.5602 100.674 59.8889 100.295ZM132.01 80.6698C126.835 81.7452 121.948 82.7572 117.062 83.7721C118.846 83.6948 120.595 83.4553 122.336 83.1746C125.296 82.6994 128.251 82.1974 131.205 81.7049C131.416 81.6667 131.693 81.6627 131.817 81.5274C131.944 81.3914 131.921 81.1137 132.01 80.6698ZM75.9139 96.4924C75.9213 96.5184 75.9295 96.5473 75.9369 96.5733C76.201 96.5136 76.4671 96.4502 76.7333 96.3869C76.7218 96.3464 76.7139 96.308 76.7024 96.2676C76.4396 96.3425 76.1767 96.4175 75.9139 96.4924Z" fill="#5A9EFF"/>
<path fill-rule="evenodd" clip-rule="evenodd" d="M28.5916 103.477C27.8026 103.646 27.5715 103.196 27.3788 102.52C26.2153 98.4389 25.0122 94.3719 23.8198 90.2987C20.3188 78.3353 16.838 66.3661 13.2871 54.4138C12.9269 53.2047 12.7085 51.9458 12.0813 50.7754C11.5637 49.8142 11.5553 48.5798 11.2998 47.4752C11.2158 47.115 11.0568 46.7761 10.829 46.1415C10.5838 47.0015 10.4243 47.5592 10.2647 48.1169C10.4299 46.352 10.9318 44.5849 9.74921 42.8357C9.57488 43.2102 9.40923 43.5604 9.24358 43.9106C9.20563 43.9089 9.16767 43.9072 9.12972 43.9055C9.17115 43.6126 9.16019 43.3003 9.26144 43.031C9.76019 41.7238 9.27157 40.5576 8.82299 39.3675C8.685 39.0039 8.66378 38.6008 8.61278 38.3343C9.34236 38.0888 9.96003 38.0095 10.3992 37.6876C10.7344 37.439 10.8828 36.897 11.0522 36.4614C11.4741 35.3885 11.8584 34.3045 12.2589 33.2222C12.3488 33.2528 12.4387 33.2833 12.5307 33.3102C12.1302 34.5675 11.7296 35.8248 11.2683 37.2743C12.2567 36.8739 13.0164 36.5698 13.7753 36.2629C14.54 35.9544 15.3038 35.6429 16.1556 35.3001C15.8604 35.0314 15.5642 34.8472 15.3829 34.5835C14.7448 33.6597 15.0643 32.5348 16.0866 32.0779C16.6821 31.8113 17.2928 31.5654 17.913 31.3636C23.065 29.7044 28.2943 28.3605 33.6496 27.5241C36.488 27.0835 39.3153 26.5274 42.2065 26.5902C43.0329 26.6076 43.8626 26.6584 44.6831 26.7649C46.0416 26.9398 46.5623 27.5503 46.6147 28.9284C46.6237 29.1788 46.6144 29.4313 46.6139 29.7032C48.8508 29.7058 51.0226 29.6769 53.1923 29.7174C56.0972 29.7732 56.072 29.8054 56.9805 32.6197C60.7869 44.4492 64.1108 56.4162 67.3952 68.3976C68.4812 72.3606 69.6423 76.3022 70.7778 80.2854C70.8798 80.2377 71.0613 80.1515 71.4311 79.9805C71.125 81.339 70.927 82.6166 71.7494 83.8469C71.9529 83.5859 72.128 83.3674 72.3526 83.0816C72.3657 83.259 72.4069 83.3815 72.3759 83.481C72.094 84.3546 71.7069 85.2208 72.3924 86.1903C72.5766 85.9161 72.7558 85.6464 72.935 85.3766C72.5154 86.808 72.6524 88.1432 73.3991 89.6013C73.7114 88.9875 73.9819 88.4575 74.2533 87.9304C74.3292 87.9557 74.4051 87.9809 74.481 88.0061C74.338 88.4903 74.2362 88.9879 74.0503 89.4531C73.7813 90.1201 73.6031 90.7549 74.4361 91.4201C73.0126 91.6635 73.1059 92.8674 72.487 93.6435C72.5607 93.1134 72.6353 92.5862 72.7074 92.0722C72.5882 92.0156 72.5177 91.9545 72.4455 91.9532C71.6703 91.9399 71.0004 92.4057 70.1683 92.3244C69.3836 92.2451 68.5628 92.5322 67.7578 92.6555C66.9433 92.7784 66.126 92.8802 65.3164 93.0204C64.5019 93.1651 63.687 93.3194 62.8828 93.5111C58.8109 94.4783 54.7428 95.4474 50.6746 96.4385C45.1668 97.7806 39.7619 99.4838 34.4283 101.404C32.9947 101.919 31.5895 102.522 30.1592 103.049C29.645 103.239 29.0872 103.32 28.5454 103.446C28.8083 103.24 29.0494 102.969 29.3494 102.849C32.8728 101.47 36.3616 99.9909 39.9439 98.7854C43.7374 97.5104 47.5919 96.4053 51.4678 95.3972C56.2651 94.1483 61.1012 93.0352 65.9421 91.9613C66.7438 91.7827 67.2919 91.5578 67.5939 90.8095C67.6028 91.06 67.6118 91.3104 67.6207 91.5608C68.8782 91.5459 68.8782 91.5459 69.5033 90.8243C69.8839 91.9182 70.5425 90.9965 71.1385 91.1702C71.3693 89.5584 72.6396 88.1531 71.4096 86.3362C71.1551 86.9772 70.9807 87.461 70.7716 87.9329C70.5093 88.5136 70.216 89.0845 69.9359 89.6578C69.9972 89.3249 70.0209 88.9808 70.1243 88.664C70.4297 87.7524 70.7772 86.8569 71.0835 85.9482C71.379 85.0675 71.1203 84.3136 70.5205 83.4914C69.7015 85.68 68.9449 87.7259 68.1631 89.7603C68.0155 90.1521 67.7653 90.5014 67.5638 90.8681C67.663 90.4494 67.7276 90.0187 67.8636 89.6083C68.5803 87.4551 69.2755 85.2924 70.0541 83.159C70.5223 81.8762 69.9354 80.8691 69.3589 79.7998C68.5723 82.1353 67.7895 84.4729 67.003 86.8085C66.9159 86.218 67.0466 85.6904 67.2045 85.1707C67.8167 83.1659 68.457 81.1719 69.0345 79.1552C69.1553 78.7241 69.0908 78.2241 69.035 77.7652C69.0222 77.6658 68.6835 77.6062 68.6126 77.5764C68.5821 76.8887 68.6646 76.2249 68.5036 75.6274C66.8187 69.2897 65.1648 62.94 63.3644 56.6352C60.8916 47.9829 58.3025 39.3607 55.7641 30.7302C55.0665 30.6823 54.5079 30.6292 53.948 30.6045C47.9745 30.3678 42.03 30.7476 36.0935 31.3967C28.5078 32.2318 21.1909 34.1083 14.0654 36.7986C13.5211 37.0037 13.0391 37.263 12.8267 37.8545C12.7677 37.7463 12.7184 37.5512 12.6511 37.5453C11.8813 37.4743 11.0901 37.9747 10.8392 38.6834C10.6967 39.0926 10.6279 39.5307 10.4639 39.9304C9.95773 41.1678 10.4559 42.2251 11.003 43.5745C11.2176 42.8481 11.3346 42.3931 11.4892 41.9493C11.6838 41.3941 11.9094 40.8488 12.121 40.2981C11.8756 41.3987 11.601 42.4952 11.4019 43.6045C11.3125 44.1016 11.2202 44.687 11.3977 45.1236C11.7438 45.965 12.0659 46.7883 12.1054 47.7046C12.1099 47.8408 12.2133 47.9737 12.2891 48.152C12.5001 47.9388 12.6136 47.8221 12.8564 47.578C12.6325 48.7537 12.3265 49.8279 13.2836 50.6763C13.3248 50.7114 13.2571 50.8462 13.2715 50.9296C13.3878 51.6116 13.4501 52.3122 13.6416 52.9729C14.9822 57.5879 16.3603 62.1922 17.7124 66.8039C21.0957 78.3324 24.4674 89.8642 27.8506 101.393C28.0581 102.099 28.3436 102.783 28.5916 103.477ZM26.5818 31.7314C26.6226 31.042 26.6598 30.3506 26.7044 29.5977C26.103 30.0627 25.8859 30.9116 25.9762 32.3788C26.2321 32.0934 26.42 31.8869 26.6078 31.6803C26.8186 31.7732 27.0347 31.9396 27.2451 31.9327C27.3631 31.9303 27.5378 31.6557 27.5758 31.4824C27.7264 30.7836 27.8345 30.0782 27.9567 29.3781C27.4328 29.2713 27.2758 29.5316 27.1679 29.909C26.9918 30.5183 26.7819 31.1185 26.5818 31.7314ZM25.2896 30.332C24.56 29.9091 24.3141 29.923 24.1401 30.5067C23.914 31.2583 23.7807 32.0396 23.609 32.8069C23.6886 32.856 23.7719 32.9072 23.8515 32.9564C24.1413 32.6583 24.4348 32.3622 24.7246 32.0641C24.8021 32.2044 24.8796 32.3447 24.9579 32.4879C25.1118 32.3816 25.373 32.3009 25.3987 32.1718C25.5464 31.4519 25.6368 30.7172 25.7594 29.9201C25.5861 29.9914 25.5316 29.9976 25.5085 30.026C25.43 30.1233 25.3607 30.2306 25.2896 30.332ZM34.5606 30.2158C34.8507 29.5023 35.1407 28.7887 35.5246 27.8454C35.0467 28.0534 34.6052 28.1043 34.5086 28.313C34.1425 29.1107 33.8875 29.958 33.5924 30.7854C33.6736 30.8404 33.7549 30.8953 33.8332 30.951C34.0809 30.7024 34.3249 30.4517 34.5697 30.2039C34.9919 30.7644 35.3627 30.8711 35.5717 30.4429C35.972 29.623 36.2856 28.7621 36.6377 27.9153C36.5469 27.86 36.4554 27.8018 36.3638 27.7435C36.1623 28.0227 35.9571 28.2999 35.7519 28.577C35.3551 29.1242 34.9574 29.6686 34.5606 30.2158ZM20.8177 32.4376C20.8179 32.8436 20.8152 33.2504 20.8136 33.8255C22.185 33.1035 21.871 31.7501 22.4864 30.7532C21.7826 30.6728 21.4334 30.8941 21.2639 31.4172C21.1675 31.2979 21.0706 31.0787 20.9691 31.0733C20.4262 31.0532 20.1335 31.3521 19.9405 31.8694C19.6405 32.6795 19.2489 33.4533 18.8965 34.2439C19.0997 33.3459 19.3036 32.4507 19.5315 31.4425C19.1849 31.5413 18.9501 31.6489 18.7038 31.6723C17.8055 31.7534 17.3877 32.2598 17.1731 33.1174C17.0258 33.7184 16.6538 34.2649 16.3886 34.8246C16.5599 33.9793 16.7312 33.1341 16.9323 32.1304C16.0059 32.3976 16.1779 33.1762 15.8769 33.6212C15.5279 34.1392 15.8004 34.6019 16.4117 34.7961C16.9854 35.1323 17.3658 35.0426 17.5602 34.3438C17.7491 33.6591 17.8997 32.9384 18.549 32.466C18.3303 33.1342 18.1117 33.8024 17.8236 34.6872C18.3134 34.4664 18.6093 34.3321 18.9106 34.1837C19.7696 34.2168 20.363 33.9102 20.5191 32.9787C20.5522 32.7881 20.7157 32.6166 20.8177 32.4376ZM40.9693 29.8974C41.1914 29.0877 41.4126 28.2751 41.6338 27.4624C41.0662 27.2244 40.9505 27.651 40.7625 27.9888C40.4387 28.5839 40.0972 29.1716 39.7593 29.7614C39.9863 28.9908 40.2104 28.2211 40.4857 27.2806C39.4086 27.7313 39.5671 29.0104 38.5996 29.7141C38.9294 28.8112 39.16 28.1739 39.4307 27.4252C37.8723 27.579 38.2867 29.2848 37.2166 29.8585C37.5178 29.0418 37.7703 28.3608 38.0249 27.676C36.692 28.1497 36.6334 29.4782 35.9843 30.4659C37.1482 30.4402 38.2506 30.3195 39.3449 30.1481C39.5124 30.1223 39.6438 29.8599 39.7961 29.7041C40.117 30.4902 40.5711 30.0672 41.0024 29.8381C41.8216 30.1261 42.603 30.1282 43.2989 29.5238C43.5305 30.0731 43.9159 30.0226 44.122 29.5953C44.4037 29.0059 44.5328 28.3413 44.7242 27.7089C44.6516 27.6515 44.5762 27.595 44.5036 27.5376C44.315 27.6975 44.1292 27.8567 43.9406 28.0166C43.8804 27.2467 43.4177 27.541 43.0187 27.6642L43.0484 27.6807C42.6088 27.2782 42.3331 27.4067 42.0816 27.9157C41.7429 28.59 41.3435 29.238 40.9693 29.8974ZM29.5161 31.5508C29.7609 30.6128 29.9698 29.8005 30.2336 28.7759C29.229 29.3714 29.4599 30.4331 28.7325 31.1464C28.8295 30.3692 28.9045 29.7669 28.9787 29.1617C28.8694 29.1398 28.763 29.117 28.6537 29.0951C28.3685 29.9353 28.1555 30.7987 27.8979 31.8122C28.5337 31.7091 28.9905 31.6351 29.5161 31.5508ZM22.1038 33.0923C22.1652 33.1872 22.2258 33.2793 22.2872 33.3742C22.6091 33.145 23.101 32.986 23.2221 32.6767C23.5006 31.9664 23.5968 31.1863 23.7688 30.4314C23.7049 30.3715 23.6389 30.3154 23.575 30.2555C23.3067 30.4538 22.9069 30.5959 22.7974 30.8582C22.4995 31.5772 22.3278 32.3444 22.1038 33.0923ZM73.093 90.8941C72.7981 90.1661 72.56 89.5719 72.3198 88.9813C72.2443 88.9904 72.1725 89.0015 72.0999 89.0097C71.9072 89.6486 71.7175 90.2868 71.4889 91.0516C72.0875 90.9933 72.5373 90.9494 73.093 90.8941ZM30.0175 31.3923C30.3324 31.3025 30.6674 31.2945 30.7017 31.1847C30.9703 30.3742 31.1808 29.5459 31.4765 28.4684C30.641 29.1532 30.6199 29.1998 30.0175 31.3923ZM32.2531 30.9736C32.5576 30.968 32.8096 31.0305 32.8653 30.9521C33.4207 30.1504 33.498 29.1945 33.7808 28.3019C33.6966 28.2696 33.6154 28.2366 33.5341 28.2035C33.1346 29.0701 32.7352 29.9367 32.2531 30.9736ZM31.4625 31.1365C31.9665 30.6586 32.3586 29.6786 32.5079 28.5148C31.9366 28.9869 31.5478 29.9566 31.4625 31.1365ZM45.64 27.9851C44.8224 28.5024 44.6563 28.8839 44.8364 29.8226C45.1021 29.2097 45.3714 28.5988 45.64 27.9851ZM10.4359 38.3861C9.57371 38.9442 9.57371 38.9442 10.0048 39.777C10.142 39.3381 10.2478 38.9863 10.4359 38.3861Z" fill="#5A9EFF"/>
<path fill-rule="evenodd" clip-rule="evenodd" d="M120.761 67.5965C121.475 66.5841 121.355 65.5596 121.022 64.405C119.557 59.3633 118.188 54.2974 116.777 49.24C113.366 37.0229 109.955 24.803 106.547 12.5851C106.429 12.172 106.31 11.7561 106.156 11.213C90.0806 13.197 75.9547 19.7506 62.7228 28.6291C63.7827 32.687 64.7631 36.6738 65.8706 40.6245C67.9109 47.9134 70.014 55.1813 72.1122 62.4537C74.5055 70.7289 76.9257 78.9995 79.3199 87.2776C79.457 87.7476 79.4756 88.2513 79.55 88.7424C79.4345 88.7753 79.3198 88.8111 79.2013 88.8449C79.0118 88.3992 78.7711 87.9712 78.6365 87.5099C77.2667 82.7595 75.9431 77.996 74.551 73.2551C72.2033 65.2386 69.7479 57.2498 67.4637 49.2152C65.716 43.0734 64.1569 36.881 62.5247 30.7063C62.3251 29.9511 62.1976 29.1754 62.0162 28.3089C64.3728 26.2223 67.1664 24.7919 69.9135 23.0999C69.7144 22.785 69.4988 22.4779 69.3191 22.1544C68.8551 21.3153 68.9835 20.4511 69.7129 19.7996C71.2848 18.3896 73.0814 17.3184 74.9863 16.4411C81.2125 13.5762 87.6212 11.209 94.2852 9.56226C95.1283 9.35317 95.9857 9.1837 96.8439 9.03899C98.4601 8.7594 99.2958 9.75173 98.8192 11.3555C98.7948 11.4343 98.7985 11.5238 98.7773 11.7235C101.391 11.3158 103.972 10.9143 106.696 10.4905C107.641 13.8036 108.602 17.1526 109.547 20.5029C110.489 23.8292 111.43 27.1526 112.355 30.4839C113.288 33.8564 114.201 37.2347 115.128 40.606C116.053 43.9809 116.974 47.3568 117.916 50.7268C118.844 54.0572 119.803 57.3786 120.724 60.7078C121.644 64.0341 122.718 67.3168 123.524 70.8377C123.894 70.5013 124.149 70.2692 124.549 69.9084C123.83 71.8314 123.83 71.8314 124.261 72.6329C125.088 71.3696 125.896 70.1398 126.704 68.91C126.78 68.9476 126.853 68.9831 126.929 69.0207C126.746 69.354 126.567 69.6893 126.377 70.0184C125.788 71.0421 125.172 72.0484 124.612 73.0857C124.184 73.8759 124.291 74.2828 124.967 74.9239L124.933 74.9024C125.162 75.4744 125.016 75.8501 124.375 75.9673C124.163 75.5967 123.953 75.2224 123.665 74.7049C123.402 75.239 123.221 75.6028 122.977 76.094C123.567 76.0259 123.984 75.9758 124.404 75.9277C123.833 76.7183 122.902 76.6963 122.097 76.8852C120.982 77.1469 119.818 77.185 118.701 77.441C115.287 78.227 111.858 78.9733 108.488 79.9153C104.042 81.1607 99.639 82.5534 95.2299 83.9258C89.9801 85.5598 84.9199 87.6832 79.919 89.9489C79.7258 90.0384 79.5141 90.1393 79.3087 90.1417C79.1688 90.144 78.9585 90.0197 78.9012 89.8955C78.8431 89.7684 78.8837 89.5164 78.9819 89.4228C79.1615 89.2529 79.407 89.1392 79.639 89.0324C85.776 86.1836 92.0836 83.8014 98.5989 81.9722C103.088 80.7145 107.575 79.451 112.064 78.1961C112.527 78.0673 112.992 77.9128 113.463 77.8785C114.629 77.7835 115.537 77.3529 115.984 76.2041C115.917 76.5605 115.848 76.9207 115.767 77.3468C116.28 77.2411 116.692 77.1081 117.109 77.0798C117.82 77.0332 118.324 76.774 118.527 76.0414C118.57 75.895 118.734 75.7796 118.841 75.6521C118.785 76.0053 118.734 76.3605 118.67 76.7845C119.167 76.6866 119.552 76.5458 119.934 76.5493C120.773 76.5568 121.16 76.0966 121.438 75.374C121.707 74.6851 122.004 73.9823 122.43 73.3859C123.329 72.124 122.947 70.9587 122.276 69.4821C121.778 70.3767 121.39 71.084 120.99 71.7851C120.304 72.9956 119.614 74.2012 118.924 75.4067C119.8 73.6142 120.555 71.7498 121.594 70.0576C122.329 68.8674 122.113 67.9357 121.558 66.7884C121.237 67.1174 120.999 67.357 120.761 67.5965ZM81.1726 15.4522C81.1302 16.0702 81.0848 16.689 81.0407 17.3231C81.5997 17.3668 81.739 17.0554 81.835 16.5595C81.9765 15.8508 82.2397 15.1636 82.451 14.4694C82.3602 15.2355 82.2693 16.0016 82.1694 16.8671C82.8206 16.6096 83.4107 16.3789 83.9893 16.1515C84.1169 15.1969 84.2334 14.3235 84.3892 13.161C83.2838 14.082 83.7249 15.3555 82.8902 16.0869C82.969 15.3555 83.0487 14.6269 83.1246 13.8963C83.059 13.8744 82.9943 13.8554 82.9287 13.8335C82.7672 14.0669 82.605 14.2974 82.4464 14.53C82.1514 13.8239 81.8195 14.2371 81.5891 14.5464C81.3809 14.8244 81.285 15.189 81.1404 15.5145C81.1162 15.2434 81.0929 14.9752 81.0663 14.6517C80.337 15.1282 80.0795 15.7919 79.7308 17.9651C80.332 17.9156 80.6572 17.676 80.7377 17.0378C80.8098 16.502 81.0209 15.9827 81.1726 15.4522ZM75.0841 20.005C75.342 19.9346 75.8131 19.9002 75.8314 19.7888C75.9916 18.8062 76.0727 17.8086 76.1801 16.8161C76.0584 16.7945 75.9367 16.773 75.8179 16.7507C75.7241 17.046 75.6067 17.3356 75.5422 17.635C75.3717 18.4395 75.2268 19.246 75.0696 20.0529C75.0648 19.1485 75.0562 18.2421 75.0514 17.3377C74.9532 17.322 74.853 17.3099 74.7519 17.295C74.5306 18.3045 74.3064 19.3147 74.085 20.3242C74.005 20.3064 73.9287 20.2906 73.8515 20.272C73.911 19.4836 73.9725 18.6915 74.0312 17.9003C73.9347 17.8903 73.8344 17.8783 73.737 17.8654C73.2764 18.89 73.2799 19.9977 73.1858 21.4425C73.8427 20.6462 74.7729 20.8308 75.0841 20.005ZM70.4591 22.7133C71.318 22.2748 71.899 22.0123 72.4385 21.6805C72.6184 21.5668 72.7613 21.2793 72.7875 21.0532C72.8787 20.2558 72.9114 19.45 72.9667 18.6472C72.5537 18.765 72.2936 18.9703 72.1829 19.2392C72.0523 19.5481 72.0571 19.9153 71.9954 20.2577C71.9391 20.5424 71.8696 20.8245 71.8059 21.105C71.7473 21.0967 71.6888 21.0885 71.6331 21.0793C71.647 20.5476 71.6646 20.0178 71.6815 19.4852C70.8034 20.3164 70.842 21.4048 70.4591 22.7133ZM92.2952 13.2965C92.3486 12.4099 92.7414 11.5858 92.2848 10.6635C92.069 11.4839 91.8503 12.3052 91.6344 13.1257C91.5618 13.1121 91.4884 13.0955 91.4187 13.081C91.455 12.3867 91.4913 11.6924 91.5276 10.998C91.417 10.9827 91.3065 10.9674 91.1959 10.952C90.7527 11.7967 90.8264 12.7783 90.5708 13.7881C91.2092 13.6061 91.732 13.4571 92.2952 13.2965ZM123.189 72.6854C122.541 73.9727 121.996 75.0525 121.454 76.1315C121.542 76.2095 121.63 76.2875 121.718 76.3655C122.043 76.1479 122.525 75.998 122.663 75.6932C123.055 74.832 123.956 74.0598 123.189 72.6854ZM79.8805 15.3239C79.8051 15.2674 79.7317 15.2071 79.6562 15.1505C79.4952 15.2651 79.2225 15.3491 79.1865 15.4968C78.94 16.4728 78.7406 17.4604 78.5279 18.4455C78.6574 18.4835 78.7898 18.5207 78.9223 18.5579C79.6498 17.6259 79.4937 16.3774 79.8805 15.3239ZM77.4108 18.9201C77.5746 18.9577 77.7346 18.9933 77.8984 19.0309C78.2769 17.9923 78.4129 16.8916 78.5783 15.6202C78.2634 15.7755 78.0084 15.8233 77.9861 15.9202C77.773 16.9148 77.5975 17.9205 77.4108 18.9201ZM77.3464 16.24C76.5935 16.7544 76.5203 17.0345 76.3634 19.4529C77.0001 19.2652 77.0191 19.266 77.0688 18.8489C77.1691 18.0395 77.2431 17.2251 77.3464 16.24ZM93.836 10.1994C93.4984 10.3956 93.2091 10.4656 93.1777 10.5963C92.9833 11.4044 92.8454 12.2246 92.6646 13.1569C93.3847 12.8454 93.3847 12.8454 93.836 10.1994ZM85.51 15.4931C86.2732 14.9383 86.5379 13.7634 86.1835 12.4434C85.4906 13.4529 85.6596 14.4511 85.51 15.4931ZM89.3558 11.6077C88.6657 12.1668 88.4687 13.1412 88.764 14.6592C89.3312 13.5699 89.3482 12.6437 89.3558 11.6077ZM89.4145 14.202C89.8053 14.05 90.0731 14.0143 90.0884 13.9256C90.2668 13.0721 90.4785 12.2153 90.263 11.0868C89.5994 12.1224 89.7143 13.0953 89.4145 14.202ZM87.6232 14.7439C87.7883 14.6438 88.0887 14.5581 88.1016 14.4389C88.1998 13.6332 88.4867 12.8206 88.2088 11.7911C87.5122 12.7548 87.6428 13.717 87.6232 14.7439ZM94.7392 10.0263C94.1648 10.849 94.0871 11.8362 93.8402 12.8217C94.5339 12.5272 94.5339 12.5272 94.7392 10.0263ZM94.8973 12.6078C95.7993 12.4194 95.5369 11.7946 95.6143 11.354C95.7041 10.8474 95.7808 10.3384 95.8603 9.82848C95.7584 9.81068 95.6544 9.79659 95.5497 9.77961C95.3408 10.6793 95.1348 11.5782 94.8973 12.6078ZM87.3837 12.4354C87.2661 12.4065 87.1485 12.3775 87.031 12.3486C86.7041 13.2069 86.6454 14.1076 86.6329 15.0169C86.7348 15.0347 86.8396 15.0516 86.9415 15.0694C87.0876 14.1907 87.2346 13.3149 87.3837 12.4354ZM97.713 9.35966C97.599 10.3291 97.5016 11.1377 97.4099 11.9447C97.4986 11.96 97.5873 11.9753 97.676 11.9906C97.8242 11.1957 97.976 10.4028 98.1044 9.60414C98.1102 9.55876 97.9065 9.47943 97.713 9.35966ZM96.1315 12.281C97.0748 12.0402 96.6767 11.3448 96.7908 10.8906C96.9079 10.4137 96.9251 9.91534 96.9877 9.42277C96.9308 9.42026 96.873 9.41486 96.8152 9.40946C96.6006 10.3108 96.3859 11.2122 96.1315 12.281ZM70.2094 22.2316C70.3138 21.5023 70.3826 21.0423 70.475 20.4132C69.6181 20.9354 69.683 21.426 70.2094 22.2316ZM85.0048 14.4659C84.6861 14.8379 84.4956 15.2763 84.8811 15.763C84.923 15.3294 84.962 14.8966 85.0048 14.4659Z" fill="#5A9EFF"/>
<path fill-rule="evenodd" clip-rule="evenodd" d="M57.909 23.4727C54.2937 22.0423 50.8815 22.4309 47.5086 22.5523C42.2713 22.7398 37.1128 23.5981 31.9687 24.5399C22.5144 26.2699 13.3218 29.006 4.09884 31.6352C2.72969 32.0255 2.72804 32.0197 1.64105 31.7893C2.12267 31.5395 2.42769 31.3277 2.76359 31.2132C5.60681 30.2309 8.4212 29.1475 11.3089 28.3212C16.7962 26.7538 22.2972 25.2012 27.8532 23.886C35.4527 22.0913 43.1491 20.8561 51.0086 21.0142C53.1127 21.0547 55.1808 21.2647 57.2228 22.2816C57.5232 20.8811 58.595 20.1821 59.5919 19.4169C62.6166 17.0992 65.9512 15.2991 69.3675 13.6537C77.8842 9.55494 86.8359 6.65329 95.9297 4.17337C99.879 3.09437 103.878 2.20105 107.864 1.24915C108.239 1.16108 108.695 0.86554 109.103 1.36747C108.56 1.95011 107.811 2.06065 107.121 2.26034C102.305 3.66145 97.4693 4.98375 92.6756 6.45337C84.4189 8.98825 76.2825 11.8792 68.5687 15.7929C65.3509 17.4223 62.3045 19.3901 59.198 21.2345C58.8856 21.4204 58.637 21.7754 58.4532 22.1058C58.2248 22.5207 58.0958 22.9885 57.909 23.4727Z" fill="#5A9EFF"/>
<path fill-rule="evenodd" clip-rule="evenodd" d="M132.441 79.7238C132.164 78.8531 131.87 77.9845 131.62 77.1064C127.014 61.0042 122.428 44.8962 117.809 28.8011C115.263 19.9354 112.661 11.0825 110.089 2.22427C109.948 1.74272 109.849 1.25252 109.732 0.764378C109.828 0.730604 109.928 0.696007 110.028 0.664299C110.129 0.854142 110.262 1.03493 110.326 1.23837C110.87 2.99171 111.428 4.74094 111.934 6.505C113.72 12.7264 115.462 18.9602 117.265 25.1738C121.793 40.7953 126.342 56.411 130.893 72.0259C131.531 74.2084 132.225 76.3715 132.886 78.5474C133.04 79.0533 133.262 79.6145 132.402 79.7069L132.441 79.7238Z" fill="#5A9EFF"/>
<path fill-rule="evenodd" clip-rule="evenodd" d="M113.792 58.9679C113.457 59.1043 113.13 59.2724 112.782 59.3778C107.7 60.9232 102.619 62.4686 97.5291 63.9945C91.4958 65.805 85.7612 68.2799 80.4263 71.6528C80.0528 71.8874 79.6376 72.0526 79.1222 72.3151C79.0992 71.4346 79.6286 71.1993 80.0442 70.9591C82.0356 69.8042 84.0241 68.6283 86.0698 67.5767C90.0379 65.5335 94.273 64.1857 98.5278 62.9072C103.073 61.5397 107.637 60.2416 112.197 58.9261C112.687 58.7833 113.2 58.7089 113.704 58.6028C113.732 58.7228 113.764 58.845 113.792 58.9679Z" fill="#5A9EFF"/>
<path fill-rule="evenodd" clip-rule="evenodd" d="M106.649 29.5274C106.101 29.7523 105.565 30.0082 105.006 30.1956C99.1888 32.1506 93.3815 34.1403 87.5441 36.0354C82.0059 37.8297 77.0896 40.721 72.5269 44.2829C72.136 44.588 71.7018 44.8398 71.2874 45.1172C71.2231 45.045 71.1596 44.9756 71.0953 44.9034C71.253 44.6898 71.3766 44.4328 71.5755 44.2762C74.8867 41.6488 78.2413 39.0747 82.1666 37.4185C84.2919 36.5253 86.4634 35.7283 88.6504 35.008C94.4387 33.1049 100.248 31.2646 106.051 29.4012C106.214 29.3485 106.386 29.3275 106.557 29.2913C106.585 29.3705 106.617 29.4489 106.649 29.5274Z" fill="#5A9EFF"/>
<path fill-rule="evenodd" clip-rule="evenodd" d="M102.873 18.4396C101.969 18.6974 101.075 18.9898 100.159 19.207C94.1837 20.6293 88.1935 21.9996 82.4158 24.1152C78.8038 25.4353 75.4802 27.351 72.192 29.3252C71.3736 29.8178 70.5754 30.3483 69.7586 30.8466C69.4392 31.0407 69.0942 31.189 68.7615 31.3588C68.6947 31.2779 68.6337 31.1954 68.5669 31.1145C68.7783 30.9137 68.969 30.6844 69.2072 30.5228C75.102 26.4843 81.3561 23.2023 88.3601 21.5212C92.8503 20.4441 97.3377 19.3679 101.828 18.3004C102.147 18.2251 102.477 18.2121 102.802 18.1694C102.825 18.2597 102.847 18.3501 102.873 18.4396Z" fill="#5A9EFF"/>
<path fill-rule="evenodd" clip-rule="evenodd" d="M74.8079 57.0402C75.1187 56.783 75.418 56.5071 75.7457 56.2763C79.4328 53.6854 83.3749 51.5404 87.5936 50.0036C93.9313 47.694 100.338 45.5834 106.72 43.3956C107.363 43.1749 108.028 43.0197 108.68 42.8336C108.714 42.9178 108.748 43.0049 108.781 43.0891C108.329 43.2992 107.89 43.5556 107.421 43.7174C102.439 45.425 97.4467 47.0979 92.4672 48.8141C86.7288 50.7935 81.2541 53.3255 76.1712 56.6734C75.8002 56.9166 75.3999 57.1119 75.0119 57.3287C74.9439 57.2326 74.8759 57.1364 74.8079 57.0402Z" fill="#5A9EFF"/>
<path fill-rule="evenodd" clip-rule="evenodd" d="M120.365 68.4162C119.217 70.5048 118.076 72.5947 116.917 74.6742C116.779 74.9229 116.532 75.1088 116.334 75.3244C117.485 73.1818 118.629 71.0379 119.798 68.9056C119.912 68.7015 120.173 68.577 120.365 68.4162Z" fill="#5A9EFF"/>
<path fill-rule="evenodd" clip-rule="evenodd" d="M8.99738 33.2928C8.3123 35.031 7.62722 36.7691 6.94213 38.5073L6.97554 38.5259C7.32358 37.4241 7.63162 36.3025 8.03865 35.2214C8.28865 34.5536 8.69292 33.9449 9.02996 33.3085L8.99738 33.2928Z" fill="#5A9EFF"/>
<path fill-rule="evenodd" clip-rule="evenodd" d="M124.968 74.9208C125.641 73.7202 126.32 72.5209 127.102 71.133C126.977 72.1961 126.504 73.2116 125.529 74.5672C125.408 74.7358 125.141 74.7963 124.94 74.9006C124.934 74.8993 124.968 74.9208 124.968 74.9208Z" fill="#5A9EFF"/>
<path fill-rule="evenodd" clip-rule="evenodd" d="M128.896 73.7253C128.743 74.1312 128.591 74.537 128.435 74.9437C128.351 74.9144 128.272 74.8871 128.189 74.8578C128.333 74.4544 128.478 74.0538 128.625 73.6496C128.713 73.6744 128.804 73.6984 128.896 73.7253Z" fill="#5A9EFF"/>
<path fill-rule="evenodd" clip-rule="evenodd" d="M124.883 69.1262C125.061 68.8631 125.241 68.5962 125.553 68.1356C125.348 68.6561 125.233 68.9515 125.116 69.2439C125.04 69.2063 124.96 69.1667 124.883 69.1262Z" fill="#5A9EFF"/>
<path fill-rule="evenodd" clip-rule="evenodd" d="M127.986 72.8571C127.866 73.1037 127.745 73.3475 127.624 73.5913C127.575 73.5739 127.525 73.5537 127.477 73.5363C127.577 73.2641 127.676 72.9955 127.776 72.7233C127.845 72.7691 127.917 72.8113 127.986 72.8571Z" fill="#5A9EFF"/>
<path fill-rule="evenodd" clip-rule="evenodd" d="M9.02975 33.3082C9.07449 33.0049 9.1184 32.6988 9.16232 32.3927C9.25224 32.4233 9.3401 32.4576 9.43002 32.4882C9.28505 32.7575 9.14296 33.026 8.99716 33.2925L9.02975 33.3082Z" fill="#5A9EFF"/>
<path fill-rule="evenodd" clip-rule="evenodd" d="M6.94179 38.5062C6.86608 38.8651 6.78954 39.2211 6.71383 39.58C6.53256 39.1413 6.53815 38.7555 6.9752 38.5247L6.94179 38.5062Z" fill="#5A9EFF"/>
<path fill-rule="evenodd" clip-rule="evenodd" d="M28.1143 82.9998C28.6012 82.8235 29.08 82.6183 29.5776 82.4796C34.2281 81.1758 38.8814 79.8711 43.5385 78.5903C47.2783 77.5649 51.0473 76.631 54.903 76.2096C57.6229 75.9121 60.3694 75.8724 63.1052 75.7515C63.6358 75.7283 64.2391 75.6532 64.8138 76.3764C64.2175 76.4433 63.7847 76.5136 63.3519 76.5401C60.3165 76.7277 57.2589 76.7498 54.2473 77.1304C51.362 77.4938 48.4975 78.1168 45.673 78.8251C40.2692 80.1813 34.9007 81.6836 29.5153 83.1158C29.0862 83.2318 28.6406 83.2902 28.1995 83.3753C28.1727 83.2486 28.1439 83.1257 28.1143 82.9998Z" fill="#5A9EFF"/>
<path fill-rule="evenodd" clip-rule="evenodd" d="M57.1151 49.1405C56.7158 49.1419 56.3135 49.166 55.9133 49.1427C53.9598 49.0281 52.006 48.9011 50.05 48.7778C46.0066 48.5188 42.0619 49.2091 38.1535 50.114C32.2145 51.4885 26.2862 52.9224 20.3509 54.3207C19.8187 54.4475 19.2707 54.4975 18.6792 54.3507C20.4412 53.8484 22.1896 53.2875 23.9684 52.8554C29.303 51.5627 34.6519 50.3314 39.9868 49.0511C44.6607 47.928 49.3785 47.8355 54.1323 48.3511C54.8674 48.432 55.6072 48.496 56.3394 48.5996C56.6162 48.6394 56.8794 48.7736 57.1462 48.8662C57.1375 48.9561 57.1267 49.0498 57.1151 49.1405Z" fill="#5A9EFF"/>
<path fill-rule="evenodd" clip-rule="evenodd" d="M51.9802 36.179C51.5734 36.1982 51.1637 36.24 50.754 36.2381C46.4443 36.1955 42.1201 36.1789 37.8817 36.9999C34.4276 37.6691 31.0138 38.5892 27.6289 39.5666C24.2036 40.5555 20.8363 41.7591 17.443 42.8607C17.0118 43.0024 16.5715 43.1122 16.1353 43.2366C16.0966 43.1446 16.0608 43.0517 16.0258 42.9617C16.2973 42.8187 16.5573 42.6353 16.8479 42.5369C20.849 41.1901 24.8303 39.7741 28.8681 38.545C31.7772 37.6626 34.7375 36.8936 37.7232 36.3236C42.272 35.4516 46.896 35.5233 51.5097 35.6791C51.6645 35.685 51.8154 35.7763 51.968 35.8296C51.9725 35.9438 51.9778 36.061 51.9802 36.179Z" fill="#5A9EFF"/>
<path fill-rule="evenodd" clip-rule="evenodd" d="M24.015 66.9876C25.0982 66.6788 26.174 66.3221 27.2691 66.0662C34.0936 64.4674 40.8823 62.6883 47.8138 61.5744C51.6457 60.9598 55.5166 60.7996 59.3951 61.0057C59.7214 61.022 60.0407 61.134 60.3637 61.2043C60.3628 61.2889 60.3627 61.3764 60.3627 61.4638C60.0619 61.4934 59.7607 61.5542 59.4603 61.5524C55.7113 61.5155 51.9635 61.5595 48.2648 62.1922C44.3639 62.8608 40.4754 63.6382 36.6053 64.4697C32.9004 65.2667 29.2283 66.201 25.5369 67.0565C25.05 67.1672 24.5413 67.1686 24.0446 67.2227C24.0347 67.1444 24.0248 67.066 24.015 66.9876Z" fill="#5A9EFF"/>
<path fill-rule="evenodd" clip-rule="evenodd" d="M12.0866 40.3602C12.2598 39.8392 12.433 39.3183 12.6053 38.7944C12.433 39.3183 12.2598 39.8392 12.0866 40.3602Z" fill="#5A9EFF"/>
<path fill-rule="evenodd" clip-rule="evenodd" d="M69.9729 89.597C69.8076 90.0251 69.6424 90.4533 69.4771 90.8814C69.6424 90.4533 69.8076 90.0251 69.9729 89.597Z" fill="#5A9EFF"/>
<path fill-rule="evenodd" clip-rule="evenodd" d="M43.0188 27.6647C42.9492 28.0562 42.8797 28.4477 42.8101 28.8392C42.5059 28.3419 42.6807 27.9797 43.0485 27.6812L43.0188 27.6647Z" fill="#5A9EFF"/>
<path fill-rule="evenodd" clip-rule="evenodd" d="M25.3024 30.2664C25.104 30.8851 24.9027 31.5047 24.7014 32.1242C24.6404 31.4171 24.7423 30.7665 25.3024 30.2664Z" fill="#5A9EFF"/>
</svg>
