<svg width="50" height="50" viewBox="0 0 50 50" fill="none" xmlns="http://www.w3.org/2000/svg">
<path d="M7.67588 7.67588C12.2705 3.08124 18.5022 0.5 25 0.5C31.4978 0.5 37.7295 3.08124 42.3241 7.67588C46.9188 12.2705 49.5 18.5022 49.5 25C49.5 31.4978 46.9188 37.7295 42.3241 42.3241C37.7295 46.9188 31.4978 49.5 25 49.5C18.5022 49.5 12.2705 46.9188 7.67588 42.3241C3.08124 37.7295 0.5 31.4978 0.5 25C0.5 18.5022 3.08124 12.2705 7.67588 7.67588Z" fill="#29B6F6" stroke="#2C292D"/>
<path d="M36.9472 13.6519L36.9472 13.652L36.9472 13.6521L36.9471 13.6523L36.9471 13.6525L36.9471 13.6525L36.9468 13.6539L32.2647 37.5595L32.2647 37.5598C32.2646 37.5599 32.2646 37.5601 32.2645 37.5603C32.2641 37.562 32.2631 37.5663 32.2613 37.5729C32.2573 37.5877 32.2495 37.6134 32.2367 37.6462C32.2107 37.7127 32.1664 37.8021 32.0954 37.8904C31.9668 38.0503 31.7188 38.25 31.1987 38.25C30.9205 38.25 30.7197 38.1843 30.5952 38.126C30.5323 38.0965 30.488 38.0685 30.4627 38.0509C30.4513 38.0429 30.4438 38.0371 30.4405 38.0344L30.4369 38.0311L30.4268 38.0227L20.2843 29.6065L20.2407 29.5703L20.19 29.5448L15.2275 27.0435L15.1812 27.0201L15.131 27.0068L8.7711 25.3154C8.76687 25.3141 8.75947 25.3116 8.74934 25.3081C8.7277 25.3006 8.69418 25.2882 8.65283 25.2705C8.56867 25.2346 8.45978 25.1803 8.35424 25.1061C8.1369 24.9535 8 24.7694 8 24.5313C8 24.4074 8.09766 24.2494 8.35689 24.0798C8.47169 24.0047 8.59015 23.9466 8.68194 23.9071C8.72711 23.8876 8.76405 23.8734 8.78851 23.8644C8.80069 23.8599 8.80965 23.8568 8.81484 23.855L8.81889 23.8536L8.8193 23.8535L8.81963 23.8534L8.81968 23.8534L8.81983 23.8533L8.81991 23.8533L8.83481 23.8485L8.85085 23.8422L35.4944 13.2577L35.5113 13.2518C35.5309 13.2449 35.5614 13.2346 35.6006 13.222C35.6792 13.1966 35.7907 13.1627 35.9191 13.1288C36.1862 13.0586 36.4875 12.9995 36.7177 13H36.7188C36.8423 13 36.9315 13.0284 36.973 13.0555C36.9888 13.0658 36.9919 13.0719 36.9921 13.0723L36.9921 13.0723C36.9926 13.0731 36.9942 13.0762 36.9959 13.0831C36.9976 13.0902 37 13.1036 37 13.125C37 13.251 36.9872 13.3834 36.9731 13.4886C36.9663 13.5401 36.9594 13.5827 36.9545 13.6118L36.9487 13.6442L36.9473 13.6514L36.9472 13.6519Z" fill="white" stroke="#2C292D"/>
<path d="M20.3178 30.9319L23.0053 33.1625L19.3804 36.7324L20.3178 30.9319Z" fill="#B0BEC5" stroke="#2C292D"/>
<path d="M31.7518 18.0577L31.7754 18.0435L31.7973 18.0269C31.8549 17.9832 31.9315 17.9944 31.9739 18.0483C32.0167 18.106 32.0034 18.1821 31.9514 18.2216L31.9321 18.2363L31.9142 18.2528L19.6242 29.6228L19.4977 29.7399L19.4702 29.9101L18.4954 35.9416C18.2709 35.2396 17.5275 33.1232 16.8377 31.1749C16.4835 30.1742 16.1417 29.2134 15.8886 28.5028C15.7754 28.1849 15.6799 27.9171 15.6089 27.7182L31.7518 18.0577Z" fill="#CFD8DC" stroke="#2C292D"/>
</svg>
