<?xml version="1.0" encoding="utf-8"?>
<!-- Generator: Adobe Illustrator 25.2.3, SVG Export Plug-In . SVG Version: 6.00 Build 0)  -->
<svg version="1.1" id="Слой_1" xmlns="http://www.w3.org/2000/svg" xmlns:xlink="http://www.w3.org/1999/xlink" x="0px" y="0px"
	 viewBox="0 0 80.9 81.1" style="enable-background:new 0 0 80.9 81.1;" xml:space="preserve">
<style type="text/css">
	.st0{filter:url(#a);}
	.st1{mask:url(#c_1_);}
	.st2{clip-path:url(#SVGID_2_);}
	.st3{clip-path:url(#SVGID_4_);}
	.st4{fill:url(#SVGID_5_);}
	.st5{fill:#FFFFFF;}
</style>
<filter  height="100%" id="a" width="100%" x="0%" xmlns:xlink="http://www.w3.org/1999/xlink" y="0%">
	<feColorMatrix  color-interpolation-filters="sRGB" values="0 0 0 0 1 0 0 0 0 1 0 0 0 0 1 0 0 0 1 0"></feColorMatrix>
</filter>
<defs>
	<filter id="Adobe_OpacityMaskFilter" filterUnits="userSpaceOnUse" x="0" y="0" width="80.9" height="81.1">
		<feColorMatrix  type="matrix" values="1 0 0 0 0  0 1 0 0 0  0 0 1 0 0  0 0 0 1 0"/>
	</filter>
</defs>
<mask maskUnits="userSpaceOnUse" x="0" y="0" width="80.9" height="81.1" id="c_1_">
	<g class="st0">
		<g transform="matrix(.24 0 0 .24 147.12 146.88)">
			
				<image style="overflow:visible;" width="81" height="81" xlink:href="A9B5D79D.png"  transform="matrix(4.1667 0 0 4.1667 -613 -612)">
			</image>
		</g>
	</g>
</mask>
<g class="st1">
	<g transform="matrix(.24 0 0 .24 147.12 146.88)">
		<g style="enable-background:new    ;">
			
				<image style="overflow:visible;" width="337" height="338" xlink:href="A9B5D79F.jpg"  xlink:actuate="onLoad" xlink:show="embed" xlink:type="simple" transform="matrix(1 0 0 1 -613 -612)">
			</image>
		</g>
	</g>
</g>
<g>
	<defs>
		<rect id="SVGID_1_" x="3.9" y="4.1" width="72" height="72"/>
	</defs>
	<clipPath id="SVGID_2_">
		<use xlink:href="#SVGID_1_"  style="overflow:visible;"/>
	</clipPath>
	<g class="st2">
		<g>
			<defs>
				<path id="SVGID_3_" d="M4.7,76.1l5-18.4C6.6,52.4,5,46.3,5,40C5,20.5,20.9,4.6,40.4,4.6c9.5,0,18.4,3.7,25,10.4
					c6.7,6.7,10.4,15.6,10.4,25.1c0,19.5-15.9,35.4-35.4,35.4h0c-5.9,0-11.7-1.5-16.9-4.3L4.7,76.1z"/>
			</defs>
			<clipPath id="SVGID_4_">
				<use xlink:href="#SVGID_3_"  style="overflow:visible;"/>
			</clipPath>
			<g class="st3">
				
					<linearGradient id="SVGID_5_" gradientUnits="userSpaceOnUse" x1="-270.6675" y1="437.081" x2="-270.6675" y2="438.0809" gradientTransform="matrix(71.0859 0 0 -71.5097 19280.8574 31331.6484)">
					<stop  offset="0" style="stop-color:#20B038"/>
					<stop  offset="1.600000e-02" style="stop-color:#20B038"/>
					<stop  offset="2.300000e-02" style="stop-color:#21B139"/>
					<stop  offset="3.100000e-02" style="stop-color:#22B139"/>
					<stop  offset="3.900000e-02" style="stop-color:#22B13A"/>
					<stop  offset="4.700000e-02" style="stop-color:#23B23A"/>
					<stop  offset="5.500000e-02" style="stop-color:#23B23B"/>
					<stop  offset="6.300000e-02" style="stop-color:#24B23B"/>
					<stop  offset="7.000000e-02" style="stop-color:#24B23B"/>
					<stop  offset="7.800000e-02" style="stop-color:#25B33C"/>
					<stop  offset="8.600000e-02" style="stop-color:#25B33C"/>
					<stop  offset="9.400000e-02" style="stop-color:#26B33D"/>
					<stop  offset="0.102" style="stop-color:#26B43D"/>
					<stop  offset="0.109" style="stop-color:#27B43D"/>
					<stop  offset="0.117" style="stop-color:#27B43E"/>
					<stop  offset="0.125" style="stop-color:#28B53E"/>
					<stop  offset="0.133" style="stop-color:#28B53F"/>
					<stop  offset="0.141" style="stop-color:#29B53F"/>
					<stop  offset="0.148" style="stop-color:#29B53F"/>
					<stop  offset="0.156" style="stop-color:#2AB640"/>
					<stop  offset="0.164" style="stop-color:#2AB640"/>
					<stop  offset="0.172" style="stop-color:#2BB640"/>
					<stop  offset="0.18" style="stop-color:#2BB741"/>
					<stop  offset="0.188" style="stop-color:#2CB741"/>
					<stop  offset="0.195" style="stop-color:#2CB742"/>
					<stop  offset="0.203" style="stop-color:#2DB842"/>
					<stop  offset="0.211" style="stop-color:#2DB842"/>
					<stop  offset="0.219" style="stop-color:#2EB843"/>
					<stop  offset="0.227" style="stop-color:#2EB843"/>
					<stop  offset="0.234" style="stop-color:#2FB944"/>
					<stop  offset="0.242" style="stop-color:#2FB944"/>
					<stop  offset="0.25" style="stop-color:#30B944"/>
					<stop  offset="0.258" style="stop-color:#30BA45"/>
					<stop  offset="0.266" style="stop-color:#31BA45"/>
					<stop  offset="0.273" style="stop-color:#31BA46"/>
					<stop  offset="0.281" style="stop-color:#32BA46"/>
					<stop  offset="0.289" style="stop-color:#32BB46"/>
					<stop  offset="0.297" style="stop-color:#33BB47"/>
					<stop  offset="0.305" style="stop-color:#33BB47"/>
					<stop  offset="0.313" style="stop-color:#34BC48"/>
					<stop  offset="0.32" style="stop-color:#34BC48"/>
					<stop  offset="0.328" style="stop-color:#35BC48"/>
					<stop  offset="0.336" style="stop-color:#35BD49"/>
					<stop  offset="0.344" style="stop-color:#36BD49"/>
					<stop  offset="0.352" style="stop-color:#36BD49"/>
					<stop  offset="0.359" style="stop-color:#37BD4A"/>
					<stop  offset="0.367" style="stop-color:#37BE4A"/>
					<stop  offset="0.375" style="stop-color:#38BE4B"/>
					<stop  offset="0.383" style="stop-color:#38BE4B"/>
					<stop  offset="0.391" style="stop-color:#39BF4B"/>
					<stop  offset="0.398" style="stop-color:#39BF4C"/>
					<stop  offset="0.406" style="stop-color:#3ABF4C"/>
					<stop  offset="0.414" style="stop-color:#3AC04D"/>
					<stop  offset="0.422" style="stop-color:#3BC04D"/>
					<stop  offset="0.43" style="stop-color:#3BC04D"/>
					<stop  offset="0.438" style="stop-color:#3CC04E"/>
					<stop  offset="0.445" style="stop-color:#3CC14E"/>
					<stop  offset="0.453" style="stop-color:#3DC14F"/>
					<stop  offset="0.461" style="stop-color:#3DC14F"/>
					<stop  offset="0.469" style="stop-color:#3EC24F"/>
					<stop  offset="0.477" style="stop-color:#3EC250"/>
					<stop  offset="0.484" style="stop-color:#3FC250"/>
					<stop  offset="0.492" style="stop-color:#3FC250"/>
					<stop  offset="0.5" style="stop-color:#40C351"/>
					<stop  offset="0.508" style="stop-color:#40C351"/>
					<stop  offset="0.516" style="stop-color:#41C352"/>
					<stop  offset="0.523" style="stop-color:#41C452"/>
					<stop  offset="0.531" style="stop-color:#42C452"/>
					<stop  offset="0.539" style="stop-color:#42C453"/>
					<stop  offset="0.547" style="stop-color:#43C553"/>
					<stop  offset="0.555" style="stop-color:#43C554"/>
					<stop  offset="0.563" style="stop-color:#44C554"/>
					<stop  offset="0.57" style="stop-color:#44C554"/>
					<stop  offset="0.578" style="stop-color:#45C655"/>
					<stop  offset="0.586" style="stop-color:#45C655"/>
					<stop  offset="0.594" style="stop-color:#46C656"/>
					<stop  offset="0.602" style="stop-color:#46C756"/>
					<stop  offset="0.609" style="stop-color:#47C756"/>
					<stop  offset="0.617" style="stop-color:#47C757"/>
					<stop  offset="0.625" style="stop-color:#48C857"/>
					<stop  offset="0.633" style="stop-color:#48C858"/>
					<stop  offset="0.641" style="stop-color:#49C858"/>
					<stop  offset="0.648" style="stop-color:#49C858"/>
					<stop  offset="0.656" style="stop-color:#4AC959"/>
					<stop  offset="0.664" style="stop-color:#4AC959"/>
					<stop  offset="0.672" style="stop-color:#4BC959"/>
					<stop  offset="0.68" style="stop-color:#4BCA5A"/>
					<stop  offset="0.688" style="stop-color:#4CCA5A"/>
					<stop  offset="0.695" style="stop-color:#4CCA5B"/>
					<stop  offset="0.703" style="stop-color:#4DCB5B"/>
					<stop  offset="0.711" style="stop-color:#4DCB5B"/>
					<stop  offset="0.719" style="stop-color:#4ECB5C"/>
					<stop  offset="0.727" style="stop-color:#4ECB5C"/>
					<stop  offset="0.734" style="stop-color:#4FCC5D"/>
					<stop  offset="0.742" style="stop-color:#4FCC5D"/>
					<stop  offset="0.75" style="stop-color:#50CC5D"/>
					<stop  offset="0.758" style="stop-color:#50CD5E"/>
					<stop  offset="0.766" style="stop-color:#51CD5E"/>
					<stop  offset="0.773" style="stop-color:#51CD5F"/>
					<stop  offset="0.781" style="stop-color:#52CD5F"/>
					<stop  offset="0.789" style="stop-color:#52CE5F"/>
					<stop  offset="0.797" style="stop-color:#53CE60"/>
					<stop  offset="0.805" style="stop-color:#53CE60"/>
					<stop  offset="0.813" style="stop-color:#54CF61"/>
					<stop  offset="0.82" style="stop-color:#54CF61"/>
					<stop  offset="0.828" style="stop-color:#55CF61"/>
					<stop  offset="0.836" style="stop-color:#55D062"/>
					<stop  offset="0.844" style="stop-color:#56D062"/>
					<stop  offset="0.852" style="stop-color:#56D062"/>
					<stop  offset="0.859" style="stop-color:#57D063"/>
					<stop  offset="0.867" style="stop-color:#57D163"/>
					<stop  offset="0.875" style="stop-color:#58D164"/>
					<stop  offset="0.883" style="stop-color:#58D164"/>
					<stop  offset="0.891" style="stop-color:#59D264"/>
					<stop  offset="0.898" style="stop-color:#59D265"/>
					<stop  offset="0.906" style="stop-color:#5AD265"/>
					<stop  offset="0.914" style="stop-color:#5AD366"/>
					<stop  offset="0.922" style="stop-color:#5BD366"/>
					<stop  offset="0.93" style="stop-color:#5BD366"/>
					<stop  offset="0.938" style="stop-color:#5CD367"/>
					<stop  offset="0.945" style="stop-color:#5CD467"/>
					<stop  offset="0.953" style="stop-color:#5DD468"/>
					<stop  offset="0.961" style="stop-color:#5DD468"/>
					<stop  offset="0.969" style="stop-color:#5ED568"/>
					<stop  offset="0.977" style="stop-color:#5ED569"/>
					<stop  offset="0.984" style="stop-color:#5FD569"/>
					<stop  offset="0.992" style="stop-color:#5FD569"/>
					<stop  offset="1" style="stop-color:#60D66A"/>
				</linearGradient>
				<path class="st4" d="M4.7,4.6v71.5h71.1V4.6H4.7z"/>
			</g>
		</g>
	</g>
</g>
<path class="st5" d="M3.4,77.4l5.2-19C5.4,52.8,3.7,46.5,3.7,40c0-20.2,16.5-36.7,36.7-36.7c9.8,0,19,3.8,25.9,10.8
	c6.9,6.9,10.7,16.2,10.7,26c0,20.2-16.5,36.7-36.7,36.7h0c-6.1,0-12.2-1.5-17.5-4.5L3.4,77.4z M23.7,65.6l1.1,0.7
	c4.7,2.8,10,4.2,15.5,4.3h0c16.8,0,30.5-13.7,30.5-30.5c0-8.2-3.2-15.8-8.9-21.6S48.5,9.5,40.4,9.5C23.5,9.5,9.9,23.2,9.9,40
	c0,5.8,1.6,11.4,4.7,16.2l0.7,1.2l-3.1,11.2L23.7,65.6z"/>
<path class="st5" d="M31.2,24.7c-0.7-1.5-1.4-1.6-2.1-1.6c-0.5,0-1.1,0-1.8,0c-0.6,0-1.6,0.2-2.4,1.1c-0.8,0.9-3.2,3.1-3.2,7.7
	c0,4.5,3.3,8.9,3.7,9.5s6.3,10.2,15.6,13.9c7.7,3.1,9.3,2.4,11,2.3c1.7-0.2,5.4-2.2,6.2-4.4c0.8-2.1,0.8-4,0.5-4.4
	c-0.2-0.4-0.8-0.6-1.8-1.1c-0.9-0.5-5.4-2.7-6.3-3s-1.5-0.5-2.1,0.5c-0.6,0.9-2.4,3-2.9,3.6c-0.5,0.6-1.1,0.7-2,0.2
	c-0.9-0.5-3.9-1.4-7.4-4.6c-2.7-2.4-4.6-5.4-5.1-6.4c-0.5-0.9-0.1-1.4,0.4-1.9c0.4-0.4,0.9-1.1,1.4-1.6c0.5-0.5,0.6-0.9,0.9-1.5
	c0.3-0.6,0.2-1.1-0.1-1.6C33.8,31,32,26.5,31.2,24.7z"/>
</svg>
