<svg width="421" height="401" viewBox="0 0 421 401" fill="none" xmlns="http://www.w3.org/2000/svg">
  <mask id="path-1-inside-1_375_30740" fill="white">
    <path d="M332.034 24.681C331.987 29.7162 334.292 25.207 336.735 26.4941C336.076 29.2522 332.056 30.3168 331.997 32.1376C334.225 33.9597 339.456 27.2173 340.717 31.3218C339.285 34.9498 336.832 29.6878 335.979 33.8475C341.939 37.4188 345.301 34.4409 345.088 37.2352C345.041 38.2834 345.738 38.2913 346.61 38.1923C350.678 38.3281 348.714 45.8296 353.122 37.2795C352.888 36.0024 351.668 36.9231 350.863 36.8406C348.209 36.7073 347.482 34.1934 349.342 32.6787C350.194 34.0594 351.56 35.9792 353.363 33.9604C356.375 31.7935 354.749 38.3875 357.763 37.0135C359.614 39.3129 359.935 42.9158 361.166 45.9808C362.967 47.9382 363.763 51.8348 366.941 51.0395C367.891 52.3983 370.943 53.7031 372.388 53.9738C372.572 54.0398 372.891 54.5142 372.9 54.6C371.186 57.4017 376.292 58.115 378.104 57.7356C377.612 65.8522 388.096 68.1277 392.098 73.127C392.883 77.7093 397.187 80.5994 398.302 85.0681C401.743 88.1431 400.784 93.7054 405.784 95.8212C414.438 103.671 417.212 116.436 420.208 127.361C420.198 135.065 416.576 141.972 410.55 147.164C408.613 147.906 409.544 150.657 409.03 151.574C406.162 153.55 404.632 157.102 401.627 158.649C396.88 159.536 396.611 165.628 392.589 165.998C390.071 165.512 390.876 168.712 388.705 169.046C384.684 169.328 387.03 175.211 383.637 174.118C382.931 178.794 385.198 177.754 381.343 181.049C381.305 184.606 378.019 186.793 376.887 189.952C376.364 191.576 375.898 192.921 373.815 193.245C371.578 195.237 369.097 197.506 366.492 199.366C357.056 212.561 350.534 209.488 343.299 224.942C334.571 237.372 333.016 267.162 310.855 256C305.089 254.916 303.141 253.323 300.553 248.424C297.984 243.599 295.329 241.999 290.523 241.589C287.762 242.076 281.918 236.417 281.637 241.728C282.016 242.728 281.183 243.952 280.126 243.203C280.252 241.972 278.866 239.881 278.043 241.875C277.249 244.225 281.716 246.314 277.424 246.541C274.197 246.907 275.679 251.41 271.814 250.73C271.582 250.235 271.543 249.892 270.971 250.304C273.046 251.459 272.019 256.421 269.644 253.399C268.578 252.477 268.646 253.077 268.569 253.955C267.59 255.446 264.266 254.183 265.303 257.096C262.93 259.44 264.324 253.915 261.331 255.472C257.126 255.688 255.178 256.431 255.789 261.033C252.592 262.352 254.726 268.693 250.15 267.3C248.107 265.544 243.467 270.492 243.862 266.286C245.392 264.201 242.011 260.782 240.402 262.953C237.758 265.241 236.876 263.701 237.633 268.036C229.185 277.479 237.474 256.615 229.637 261.318C229.948 261.717 230.297 262.459 230.559 262.43C233.872 263.694 230.026 268.639 226.848 267.001C224.057 266.546 222.631 264.101 220.946 267.062C216.354 270.875 217.597 276.372 216.589 281.505C217.617 289.786 212.154 292.926 210.952 300.244C200.046 318.287 207.035 337.928 213.308 355.934C215.237 369.045 222.294 382.279 218.654 396.033C216.601 402.762 204.673 400.998 204.032 393.792C197.112 385.659 203.37 377.062 203.038 368.007C201.417 349.831 188.663 333.006 193.068 314.31C194.027 306.412 193.784 298.042 197.599 290.504C199.585 287.074 198.053 281.36 195.127 278.835C193.982 276.532 193.807 273.434 191.975 271.306C191.027 269.86 183.951 259.571 182.866 260.911C180.278 262.237 176.326 262.349 176.936 266.169C175.951 279.186 173.472 292.374 173.194 305.398C175.888 309.774 179.611 318.444 172.702 321.303C170.562 321.807 168.856 324.684 166.607 323.549C159.894 321.03 161.51 313.568 159.135 308.21C158.988 304.587 156.023 300.937 157.611 297.118C156.691 292.811 160.082 289.309 160.042 285.066C158.79 277.147 159.815 267.59 152.926 261.974C146.762 259.718 140.871 257.53 136.974 251.997C136.238 250.962 136.024 249.074 133.951 249.396C133.777 249.416 133.359 248.855 133.321 248.512C133.146 245.414 130.075 247.066 128.67 244.803C126.867 244.486 125.462 244.558 125.617 242.031C125.675 241.764 125.52 241.955 125.355 242.061C125.549 242.213 125.646 242.289 125.84 242.441C126.072 242.154 126.43 241.418 125.617 242.031C121.886 244.095 118.767 242.2 116.208 239.894C114.967 238.297 113.088 238.771 111.538 237.567C110.461 236.647 110.355 237.267 110.462 238.211C111.189 240.725 105.395 240.948 105.007 238.309C101.925 237.528 99.909 234.553 96.9734 234.277C94.7153 234.621 95.8005 231.727 94.7534 231.064C91.1203 231.65 91.623 229.17 89.6667 229.74C89.4338 229.245 89.3949 228.902 88.8232 229.314C89.6569 229.654 89.6671 230.522 89.59 231.4C87.2532 231.828 86.6519 228.865 84.2498 229.399C84.0753 229.419 83.4753 228.802 83.3394 228.383C82.7661 223.332 80.5283 225.411 85.4303 223.551C81.8553 221.534 76.4871 221.622 77.9986 216.257C76.2728 215.063 71.8941 216.863 71.7874 214.366C71.9707 212.868 70.5463 213.551 70.0518 213.085C68.5207 211.271 66.9129 215.69 66.1177 212.576C65.1777 210.521 68.2586 208.183 66.9603 206.766C66.2235 206.502 64.7598 206.06 64.6929 207.806C64.6247 209.541 61.3114 209.83 60.3912 208.728C61.631 207.197 60.9726 206.066 58.9169 206.636C57.4158 206.643 56.5346 205.787 57.2791 204.66C59.1201 201.42 55.2834 204.104 54.4404 204.461C50.9043 205.123 50.1963 199.663 53.1409 198.459C56.5897 197.807 56.7243 191.209 53.4893 192.966C49.1677 188.264 55.5125 188.315 53.4876 185.167C51.1918 185.177 48.2752 186.627 47.2763 183.275C43.5556 183.089 47.8966 180.956 48.6026 180.268C51.0258 178.265 48.9315 176.939 47.576 175.017C47.3529 174.608 48.1164 168.199 48.4069 167.645C49.318 165.553 50.5286 163.765 48.7841 161.627C47.7569 159.582 50.1898 160.001 51.4592 159.509C52.0102 159.012 53.6383 158.567 51.9996 157.362C53.3753 151.579 50.2182 156.358 50.4112 152.61C50.5074 151.122 53.0751 152.047 52.7254 150.523C52.2125 149.896 49.7033 149.486 51.1261 148.108C52.2316 146.95 52.7541 145.327 54.5566 144.861C54.731 144.841 54.7306 144.059 54.7801 143.717C54.2568 143.776 53.7334 143.836 53.2296 144.067C51.2416 137.448 56.349 143.626 58.0058 140.32C58.0338 138.231 54.9432 140.581 55.1359 138.386C56.8998 136.024 59.9731 142.085 61.3962 139.153C62.2198 136.289 63.2377 139.031 63.9156 140.334C64.9416 137.795 62.733 135.362 64.2932 132.762C64.873 131.741 63.5557 130.934 62.9354 130.918C60.2797 130.871 61.2878 128.856 61.2484 127.731C61.5389 122.505 68.8151 124.536 66.7919 126.852C66.2195 128.035 66.8504 129.702 67.2569 130.949C68.2549 130.401 69.7463 130.405 70.2412 129.317C67.8962 128.019 70.5799 126.074 69.7263 124.78C67.9046 118.751 64.076 113.819 62.4276 107.858C61.0976 96.9171 58.8487 84.7879 65.8814 75.3316C66.7417 64.2292 66.5207 72.4019 69.8133 67.2591C69.8916 66.3921 71.0446 65.6528 71.6548 64.8014C74.2987 63.2847 70.4713 60.6012 74.0366 60.1966C77.2724 57.6675 81.6535 55.7906 84.8975 52.5545C86.9316 50.3357 88.9378 47.7723 92.4256 47.4634C97.7641 44.0004 102.646 38.8511 109.672 39.3574C110.913 39.3904 111.678 39.1297 111.329 37.605C113.159 35.1486 117.325 33.8067 120.049 32.1179C125.299 27.1006 129.678 21.4109 136.13 17.7347C143.494 16.5513 146.235 11.9926 152.019 8.56599C154.635 7.4869 157.299 6.92385 159.577 5.19876C171.727 1.22356 186.464 0.496108 198.974 1.24913C204.459 3.7445 210.407 -0.569878 215.61 3.33711C217.443 4.69348 219.893 3.0249 221.813 4.37137C222.288 4.66509 223.45 1.67604 223.586 2.86655C225.126 6.4179 226.744 1.21531 229.216 3.53119C231.822 5.57111 235.135 0.610691 237.867 3.66828C238.692 4.70452 239.002 5.10384 240.039 4.11713C240.116 4.02142 240.939 4.36258 240.968 4.61999C242.355 8.2757 244.351 2.5088 246.153 5.24833C248.217 7.08899 250.115 2.79971 250.708 7.24083C251.124 7.01973 251.957 6.66457 251.937 6.49297C250.649 3.60824 256.172 3.32906 255.368 5.58219C255.213 9.67349 258.342 5.41847 260.329 6.58343C261.968 7.00587 261.385 4.9862 262.256 4.19212C263.167 5.21847 262.306 6.96751 264.399 6.72994C265.436 8.86099 264.409 11.487 268.09 10.5478C272.034 9.49182 269.797 14.6886 275.649 14.9696C279.612 14.183 276.86 10.8561 283.402 13.3185C284.63 14.1241 286.812 13.1052 287.054 14.4575C287.462 16.4969 290.425 13.901 290.087 16.3728C298.711 15.394 298.295 20.2864 301.259 17.7013C304.04 15.7345 302.084 21.0732 303.895 21.4651C306.812 23.1329 310.261 15.3761 311.183 19.606C312.074 22.8834 315.087 16.7403 316.085 20.8638C319.03 21.2248 321.56 24.0555 324.408 21.2228C325.745 19.7675 329.621 22.0978 327.045 23.4331C326.056 23.2846 325.785 24.0106 325.33 24.6706C327.423 25.9866 329.912 24.6612 332.034 24.681ZM51.2556 163.943C51.4301 163.923 51.5173 163.913 51.6917 163.893C51.4589 163.398 51.4211 163.066 50.8483 163.468C51.0422 163.619 51.1489 163.781 52.6115 164.31C52.4176 164.159 52.3109 163.997 52.117 163.845C51.9729 164.035 51.8954 164.131 51.7404 164.322C52.2143 164.703 52.9219 164.71 51.2556 163.943ZM58.6301 58.8272C62.2344 58.7658 71.8288 63.9995 70.8875 57.2623C66.0994 47.7679 69.2014 57.9751 58.8528 53.783C55.2486 53.8444 55.7829 58.5529 58.6301 58.8272ZM20.7298 138.141C18.3167 138.676 17.2809 138.793 19.2664 140.816C20.2835 141.994 21.6893 142.703 21.5546 144.631C21.9031 146.145 26.1861 146.614 26.1276 143.764C24.7986 141.394 24.3421 135.037 20.7298 138.141ZM30.8444 189.996C30.523 184.829 21.9689 190.221 24.8271 192.928C25.7967 193.687 27.2605 194.129 27.2698 195.768C27.5036 200.163 33.2393 196.307 29.4679 194.215C27.871 194.06 27.6767 193.126 27.7246 191.99C26.9107 187.933 28.8772 190.567 30.8444 189.996ZM6.99343 160.829C6.4307 157.428 -0.303502 156.378 0.675496 161.112C0.530313 166.06 7.06162 163.766 6.99343 160.829ZM59.1097 136.034C60.5523 133.274 58.2734 124.092 54.9122 127.852C56.221 130.821 55.0195 138.139 59.1097 136.034ZM378.677 6.14506C378.415 4.52347 375.169 5.50025 376.041 6.95478C376.187 10.5775 381.352 15.7055 381.74 9.00217C382.33 6.4149 378.048 9.07348 378.677 6.14506ZM338.282 14.5317C338.36 15.2181 338.331 16.5249 338.506 16.5051C340.638 16.6108 344.029 21.6794 344.794 17.5188C344.91 13.8664 340.763 14.5977 338.282 14.5317ZM91.0756 256.945C91.018 260.33 95.3488 259.665 95.5715 256.956C96.1236 251.701 90.5713 254.059 91.0756 256.945ZM283.355 256.862C283.54 257.71 283.424 258.244 282.377 258.363C281.766 258.432 280.603 258.304 280.991 259.389C282.087 262.035 286.573 261.179 285.255 258.036C285.826 256.157 283.035 254.041 283.355 256.862ZM12.081 166.053C13.8059 163.348 7.00276 160.133 8.41909 164.828C8.15744 167.194 10.8797 167.145 12.081 166.053ZM48.1888 190.537C47.6456 189.643 45.9688 189.659 44.9802 189.511C42.3451 189.549 42.4531 194.393 45.4654 193.008C47.3458 193.229 47.7341 191.979 48.1888 190.537ZM309.66 10.8599C309.252 11.9382 312.751 13.2793 309.418 14.1789C310.708 16.9766 312.711 14.4896 313.885 13.1506C312.663 11.725 310.492 7.38694 309.66 10.8599ZM381.679 56.6346C381.554 55.5299 381.659 54.1274 379.876 54.7643C374.237 54.7959 382.039 61.3628 381.679 56.6346ZM347.703 27.5849C348.44 29.4025 352.315 29.3972 351.22 26.7513C351.307 23.6236 347.189 26.1659 347.703 27.5849ZM287.071 281.046C286.596 279.97 283.592 278.41 283.33 280.775C282.962 283.761 286.519 283.183 287.071 281.046ZM98.4304 251.787C96.2879 253.149 96.8028 255.35 100.029 255.071C101.589 254.025 99.7469 251.029 98.4304 251.787ZM386.45 19.4615C385.907 19.3493 384.523 22.6242 385.366 23.0499C389.203 22.7014 389.057 20.643 386.45 19.4615ZM232.547 273.719C232.576 273.977 232.45 274.426 232.644 274.577C234.117 275.877 230.444 278.542 234.438 277.926C235.715 276.825 234.28 273.523 232.547 273.719ZM30.357 175.581C28.6218 170.412 23.497 177.316 29.2717 176.139C29.359 176.129 29.8628 175.898 30.357 175.581ZM268.522 260.544C268.415 259.6 268.317 258.742 266.844 258.996C261.758 260.008 268.193 263.873 268.522 260.544ZM84.3485 237.274C88.3211 237.345 84.0182 231.25 82.9808 235.344C83.6016 236.143 82.7784 237.453 84.3485 237.274ZM238.196 278.445C240.143 278.571 239.843 276.704 238.874 275.858C236.305 275.02 236.267 278.577 238.196 278.445ZM354.281 22.6778C352.237 22.4752 354.273 29.5226 355.88 25.0927C355.338 24.2091 354.892 23.3906 354.281 22.6778ZM378.662 31.6107C378.322 30.1719 377.43 29.3171 376.287 28.5886C376.17 29.1125 375.968 29.57 375.987 29.7416C375.853 31.6688 376.995 32.4844 378.662 31.6107ZM112.769 242.968C110.724 242.852 111.2 244.71 112.188 245.63C114.542 246.232 114.784 242.913 112.769 242.968ZM299.031 11.9793C299.437 13.2259 300.348 14.3393 301.705 14.6198C301.908 14.0753 301.937 13.5506 301.781 12.9599C302.004 11.0334 300.347 11.2215 299.031 11.9793ZM379.796 31.482C379.457 33.9431 381.085 33.4976 383.361 32.6309C381.684 31.8653 380.677 29.9046 379.796 31.482ZM37.1232 131.859C39.6223 133.737 40.359 131.666 39.0892 129.04C38.1776 130.349 37.6558 131.103 37.1232 131.859ZM223.148 274.786C222.46 274.169 221.858 273.542 220.589 272.48C219.94 275.324 221.132 277.263 223.148 274.786ZM29.282 181.678C28.333 181.101 27.4015 179.121 26.5313 180.697C26.3861 183.31 27.9837 182.694 29.282 181.678ZM63.0037 74.7891C63.39 74.3976 63.7872 74.0049 64.3405 73.4315C62.6248 70.6713 61.1432 73.186 63.0037 74.7891ZM378.482 52.5C378.287 50.7839 376.737 51.9158 375.438 52.1501C376.05 53.6451 377.939 53.9413 378.482 52.5ZM43.7444 150.597C41.8741 151.243 43.3371 152.457 44.2588 154.351C44.626 152.137 45.4106 151.364 43.7444 150.597ZM89.7181 253.547C90.6686 252.581 90.8236 252.389 89.3014 251.432C88.8949 252.521 88.5573 253.342 89.7181 253.547ZM59.521 50.3286C60.0062 51.4903 60.7219 50.8876 61.7101 50.254C60.5174 49.0858 60.2752 49.2871 59.521 50.3286ZM273.908 252.828C274.799 253.77 274.838 254.113 276.204 252.915C275.069 252.261 274.74 251.691 273.908 252.828ZM361.317 28.7233C362.306 29.6539 362.596 29.0995 363.546 28.1227C362.033 27.2514 361.975 27.5187 361.317 28.7233ZM332.471 24.6315C334.069 24.7978 334.079 23.3301 332.664 22.4477C332.151 23.375 331.522 24.0548 332.471 24.6315ZM250.095 275.28C251.043 274.39 251.392 274.351 250.181 273.022C249.435 274.138 248.864 274.551 250.095 275.28ZM58.6425 75.284C57.4712 75.7646 58.0713 76.4786 58.7103 77.4382C59.9805 76.1751 59.7866 76.0232 58.6425 75.284ZM229.445 270.519C229.638 269.889 230.006 269.239 229.251 268.814C229.114 269.166 228.979 269.529 228.843 269.892C229.047 270.13 229.251 270.367 229.445 270.519Z"/>
  </mask>
  <path d="M332.034 24.681C331.987 29.7162 334.292 25.207 336.735 26.4941C336.076 29.2522 332.056 30.3168 331.997 32.1376C334.225 33.9597 339.456 27.2173 340.717 31.3218C339.285 34.9498 336.832 29.6878 335.979 33.8475C341.939 37.4188 345.301 34.4409 345.088 37.2352C345.041 38.2834 345.738 38.2913 346.61 38.1923C350.678 38.3281 348.714 45.8296 353.122 37.2795C352.888 36.0024 351.668 36.9231 350.863 36.8406C348.209 36.7073 347.482 34.1934 349.342 32.6787C350.194 34.0594 351.56 35.9792 353.363 33.9604C356.375 31.7935 354.749 38.3875 357.763 37.0135C359.614 39.3129 359.935 42.9158 361.166 45.9808C362.967 47.9382 363.763 51.8348 366.941 51.0395C367.891 52.3983 370.943 53.7031 372.388 53.9738C372.572 54.0398 372.891 54.5142 372.9 54.6C371.186 57.4017 376.292 58.115 378.104 57.7356C377.612 65.8522 388.096 68.1277 392.098 73.127C392.883 77.7093 397.187 80.5994 398.302 85.0681C401.743 88.1431 400.784 93.7054 405.784 95.8212C414.438 103.671 417.212 116.436 420.208 127.361C420.198 135.065 416.576 141.972 410.55 147.164C408.613 147.906 409.544 150.657 409.03 151.574C406.162 153.55 404.632 157.102 401.627 158.649C396.88 159.536 396.611 165.628 392.589 165.998C390.071 165.512 390.876 168.712 388.705 169.046C384.684 169.328 387.03 175.211 383.637 174.118C382.931 178.794 385.198 177.754 381.343 181.049C381.305 184.606 378.019 186.793 376.887 189.952C376.364 191.576 375.898 192.921 373.815 193.245C371.578 195.237 369.097 197.506 366.492 199.366C357.056 212.561 350.534 209.488 343.299 224.942C334.571 237.372 333.016 267.162 310.855 256C305.089 254.916 303.141 253.323 300.553 248.424C297.984 243.599 295.329 241.999 290.523 241.589C287.762 242.076 281.918 236.417 281.637 241.728C282.016 242.728 281.183 243.952 280.126 243.203C280.252 241.972 278.866 239.881 278.043 241.875C277.249 244.225 281.716 246.314 277.424 246.541C274.197 246.907 275.679 251.41 271.814 250.73C271.582 250.235 271.543 249.892 270.971 250.304C273.046 251.459 272.019 256.421 269.644 253.399C268.578 252.477 268.646 253.077 268.569 253.955C267.59 255.446 264.266 254.183 265.303 257.096C262.93 259.44 264.324 253.915 261.331 255.472C257.126 255.688 255.178 256.431 255.789 261.033C252.592 262.352 254.726 268.693 250.15 267.3C248.107 265.544 243.467 270.492 243.862 266.286C245.392 264.201 242.011 260.782 240.402 262.953C237.758 265.241 236.876 263.701 237.633 268.036C229.185 277.479 237.474 256.615 229.637 261.318C229.948 261.717 230.297 262.459 230.559 262.43C233.872 263.694 230.026 268.639 226.848 267.001C224.057 266.546 222.631 264.101 220.946 267.062C216.354 270.875 217.597 276.372 216.589 281.505C217.617 289.786 212.154 292.926 210.952 300.244C200.046 318.287 207.035 337.928 213.308 355.934C215.237 369.045 222.294 382.279 218.654 396.033C216.601 402.762 204.673 400.998 204.032 393.792C197.112 385.659 203.37 377.062 203.038 368.007C201.417 349.831 188.663 333.006 193.068 314.31C194.027 306.412 193.784 298.042 197.599 290.504C199.585 287.074 198.053 281.36 195.127 278.835C193.982 276.532 193.807 273.434 191.975 271.306C191.027 269.86 183.951 259.571 182.866 260.911C180.278 262.237 176.326 262.349 176.936 266.169C175.951 279.186 173.472 292.374 173.194 305.398C175.888 309.774 179.611 318.444 172.702 321.303C170.562 321.807 168.856 324.684 166.607 323.549C159.894 321.03 161.51 313.568 159.135 308.21C158.988 304.587 156.023 300.937 157.611 297.118C156.691 292.811 160.082 289.309 160.042 285.066C158.79 277.147 159.815 267.59 152.926 261.974C146.762 259.718 140.871 257.53 136.974 251.997C136.238 250.962 136.024 249.074 133.951 249.396C133.777 249.416 133.359 248.855 133.321 248.512C133.146 245.414 130.075 247.066 128.67 244.803C126.867 244.486 125.462 244.558 125.617 242.031C125.675 241.764 125.52 241.955 125.355 242.061C125.549 242.213 125.646 242.289 125.84 242.441C126.072 242.154 126.43 241.418 125.617 242.031C121.886 244.095 118.767 242.2 116.208 239.894C114.967 238.297 113.088 238.771 111.538 237.567C110.461 236.647 110.355 237.267 110.462 238.211C111.189 240.725 105.395 240.948 105.007 238.309C101.925 237.528 99.909 234.553 96.9734 234.277C94.7153 234.621 95.8005 231.727 94.7534 231.064C91.1203 231.65 91.623 229.17 89.6667 229.74C89.4338 229.245 89.3949 228.902 88.8232 229.314C89.6569 229.654 89.6671 230.522 89.59 231.4C87.2532 231.828 86.6519 228.865 84.2498 229.399C84.0753 229.419 83.4753 228.802 83.3394 228.383C82.7661 223.332 80.5283 225.411 85.4303 223.551C81.8553 221.534 76.4871 221.622 77.9986 216.257C76.2728 215.063 71.8941 216.863 71.7874 214.366C71.9707 212.868 70.5463 213.551 70.0518 213.085C68.5207 211.271 66.9129 215.69 66.1177 212.576C65.1777 210.521 68.2586 208.183 66.9603 206.766C66.2235 206.502 64.7598 206.06 64.6929 207.806C64.6247 209.541 61.3114 209.83 60.3912 208.728C61.631 207.197 60.9726 206.066 58.9169 206.636C57.4158 206.643 56.5346 205.787 57.2791 204.66C59.1201 201.42 55.2834 204.104 54.4404 204.461C50.9043 205.123 50.1963 199.663 53.1409 198.459C56.5897 197.807 56.7243 191.209 53.4893 192.966C49.1677 188.264 55.5125 188.315 53.4876 185.167C51.1918 185.177 48.2752 186.627 47.2763 183.275C43.5556 183.089 47.8966 180.956 48.6026 180.268C51.0258 178.265 48.9315 176.939 47.576 175.017C47.3529 174.608 48.1164 168.199 48.4069 167.645C49.318 165.553 50.5286 163.765 48.7841 161.627C47.7569 159.582 50.1898 160.001 51.4592 159.509C52.0102 159.012 53.6383 158.567 51.9996 157.362C53.3753 151.579 50.2182 156.358 50.4112 152.61C50.5074 151.122 53.0751 152.047 52.7254 150.523C52.2125 149.896 49.7033 149.486 51.1261 148.108C52.2316 146.95 52.7541 145.327 54.5566 144.861C54.731 144.841 54.7306 144.059 54.7801 143.717C54.2568 143.776 53.7334 143.836 53.2296 144.067C51.2416 137.448 56.349 143.626 58.0058 140.32C58.0338 138.231 54.9432 140.581 55.1359 138.386C56.8998 136.024 59.9731 142.085 61.3962 139.153C62.2198 136.289 63.2377 139.031 63.9156 140.334C64.9416 137.795 62.733 135.362 64.2932 132.762C64.873 131.741 63.5557 130.934 62.9354 130.918C60.2797 130.871 61.2878 128.856 61.2484 127.731C61.5389 122.505 68.8151 124.536 66.7919 126.852C66.2195 128.035 66.8504 129.702 67.2569 130.949C68.2549 130.401 69.7463 130.405 70.2412 129.317C67.8962 128.019 70.5799 126.074 69.7263 124.78C67.9046 118.751 64.076 113.819 62.4276 107.858C61.0976 96.9171 58.8487 84.7879 65.8814 75.3316C66.7417 64.2292 66.5207 72.4019 69.8133 67.2591C69.8916 66.3921 71.0446 65.6528 71.6548 64.8014C74.2987 63.2847 70.4713 60.6012 74.0366 60.1966C77.2724 57.6675 81.6535 55.7906 84.8975 52.5545C86.9316 50.3357 88.9378 47.7723 92.4256 47.4634C97.7641 44.0004 102.646 38.8511 109.672 39.3574C110.913 39.3904 111.678 39.1297 111.329 37.605C113.159 35.1486 117.325 33.8067 120.049 32.1179C125.299 27.1006 129.678 21.4109 136.13 17.7347C143.494 16.5513 146.235 11.9926 152.019 8.56599C154.635 7.4869 157.299 6.92385 159.577 5.19876C171.727 1.22356 186.464 0.496108 198.974 1.24913C204.459 3.7445 210.407 -0.569878 215.61 3.33711C217.443 4.69348 219.893 3.0249 221.813 4.37137C222.288 4.66509 223.45 1.67604 223.586 2.86655C225.126 6.4179 226.744 1.21531 229.216 3.53119C231.822 5.57111 235.135 0.610691 237.867 3.66828C238.692 4.70452 239.002 5.10384 240.039 4.11713C240.116 4.02142 240.939 4.36258 240.968 4.61999C242.355 8.2757 244.351 2.5088 246.153 5.24833C248.217 7.08899 250.115 2.79971 250.708 7.24083C251.124 7.01973 251.957 6.66457 251.937 6.49297C250.649 3.60824 256.172 3.32906 255.368 5.58219C255.213 9.67349 258.342 5.41847 260.329 6.58343C261.968 7.00587 261.385 4.9862 262.256 4.19212C263.167 5.21847 262.306 6.96751 264.399 6.72994C265.436 8.86099 264.409 11.487 268.09 10.5478C272.034 9.49182 269.797 14.6886 275.649 14.9696C279.612 14.183 276.86 10.8561 283.402 13.3185C284.63 14.1241 286.812 13.1052 287.054 14.4575C287.462 16.4969 290.425 13.901 290.087 16.3728C298.711 15.394 298.295 20.2864 301.259 17.7013C304.04 15.7345 302.084 21.0732 303.895 21.4651C306.812 23.1329 310.261 15.3761 311.183 19.606C312.074 22.8834 315.087 16.7403 316.085 20.8638C319.03 21.2248 321.56 24.0555 324.408 21.2228C325.745 19.7675 329.621 22.0978 327.045 23.4331C326.056 23.2846 325.785 24.0106 325.33 24.6706C327.423 25.9866 329.912 24.6612 332.034 24.681ZM51.2556 163.943C51.4301 163.923 51.5173 163.913 51.6917 163.893C51.4589 163.398 51.4211 163.066 50.8483 163.468C51.0422 163.619 51.1489 163.781 52.6115 164.31C52.4176 164.159 52.3109 163.997 52.117 163.845C51.9729 164.035 51.8954 164.131 51.7404 164.322C52.2143 164.703 52.9219 164.71 51.2556 163.943ZM58.6301 58.8272C62.2344 58.7658 71.8288 63.9995 70.8875 57.2623C66.0994 47.7679 69.2014 57.9751 58.8528 53.783C55.2486 53.8444 55.7829 58.5529 58.6301 58.8272ZM20.7298 138.141C18.3167 138.676 17.2809 138.793 19.2664 140.816C20.2835 141.994 21.6893 142.703 21.5546 144.631C21.9031 146.145 26.1861 146.614 26.1276 143.764C24.7986 141.394 24.3421 135.037 20.7298 138.141ZM30.8444 189.996C30.523 184.829 21.9689 190.221 24.8271 192.928C25.7967 193.687 27.2605 194.129 27.2698 195.768C27.5036 200.163 33.2393 196.307 29.4679 194.215C27.871 194.06 27.6767 193.126 27.7246 191.99C26.9107 187.933 28.8772 190.567 30.8444 189.996ZM6.99343 160.829C6.4307 157.428 -0.303502 156.378 0.675496 161.112C0.530313 166.06 7.06162 163.766 6.99343 160.829ZM59.1097 136.034C60.5523 133.274 58.2734 124.092 54.9122 127.852C56.221 130.821 55.0195 138.139 59.1097 136.034ZM378.677 6.14506C378.415 4.52347 375.169 5.50025 376.041 6.95478C376.187 10.5775 381.352 15.7055 381.74 9.00217C382.33 6.4149 378.048 9.07348 378.677 6.14506ZM338.282 14.5317C338.36 15.2181 338.331 16.5249 338.506 16.5051C340.638 16.6108 344.029 21.6794 344.794 17.5188C344.91 13.8664 340.763 14.5977 338.282 14.5317ZM91.0756 256.945C91.018 260.33 95.3488 259.665 95.5715 256.956C96.1236 251.701 90.5713 254.059 91.0756 256.945ZM283.355 256.862C283.54 257.71 283.424 258.244 282.377 258.363C281.766 258.432 280.603 258.304 280.991 259.389C282.087 262.035 286.573 261.179 285.255 258.036C285.826 256.157 283.035 254.041 283.355 256.862ZM12.081 166.053C13.8059 163.348 7.00276 160.133 8.41909 164.828C8.15744 167.194 10.8797 167.145 12.081 166.053ZM48.1888 190.537C47.6456 189.643 45.9688 189.659 44.9802 189.511C42.3451 189.549 42.4531 194.393 45.4654 193.008C47.3458 193.229 47.7341 191.979 48.1888 190.537ZM309.66 10.8599C309.252 11.9382 312.751 13.2793 309.418 14.1789C310.708 16.9766 312.711 14.4896 313.885 13.1506C312.663 11.725 310.492 7.38694 309.66 10.8599ZM381.679 56.6346C381.554 55.5299 381.659 54.1274 379.876 54.7643C374.237 54.7959 382.039 61.3628 381.679 56.6346ZM347.703 27.5849C348.44 29.4025 352.315 29.3972 351.22 26.7513C351.307 23.6236 347.189 26.1659 347.703 27.5849ZM287.071 281.046C286.596 279.97 283.592 278.41 283.33 280.775C282.962 283.761 286.519 283.183 287.071 281.046ZM98.4304 251.787C96.2879 253.149 96.8028 255.35 100.029 255.071C101.589 254.025 99.7469 251.029 98.4304 251.787ZM386.45 19.4615C385.907 19.3493 384.523 22.6242 385.366 23.0499C389.203 22.7014 389.057 20.643 386.45 19.4615ZM232.547 273.719C232.576 273.977 232.45 274.426 232.644 274.577C234.117 275.877 230.444 278.542 234.438 277.926C235.715 276.825 234.28 273.523 232.547 273.719ZM30.357 175.581C28.6218 170.412 23.497 177.316 29.2717 176.139C29.359 176.129 29.8628 175.898 30.357 175.581ZM268.522 260.544C268.415 259.6 268.317 258.742 266.844 258.996C261.758 260.008 268.193 263.873 268.522 260.544ZM84.3485 237.274C88.3211 237.345 84.0182 231.25 82.9808 235.344C83.6016 236.143 82.7784 237.453 84.3485 237.274ZM238.196 278.445C240.143 278.571 239.843 276.704 238.874 275.858C236.305 275.02 236.267 278.577 238.196 278.445ZM354.281 22.6778C352.237 22.4752 354.273 29.5226 355.88 25.0927C355.338 24.2091 354.892 23.3906 354.281 22.6778ZM378.662 31.6107C378.322 30.1719 377.43 29.3171 376.287 28.5886C376.17 29.1125 375.968 29.57 375.987 29.7416C375.853 31.6688 376.995 32.4844 378.662 31.6107ZM112.769 242.968C110.724 242.852 111.2 244.71 112.188 245.63C114.542 246.232 114.784 242.913 112.769 242.968ZM299.031 11.9793C299.437 13.2259 300.348 14.3393 301.705 14.6198C301.908 14.0753 301.937 13.5506 301.781 12.9599C302.004 11.0334 300.347 11.2215 299.031 11.9793ZM379.796 31.482C379.457 33.9431 381.085 33.4976 383.361 32.6309C381.684 31.8653 380.677 29.9046 379.796 31.482ZM37.1232 131.859C39.6223 133.737 40.359 131.666 39.0892 129.04C38.1776 130.349 37.6558 131.103 37.1232 131.859ZM223.148 274.786C222.46 274.169 221.858 273.542 220.589 272.48C219.94 275.324 221.132 277.263 223.148 274.786ZM29.282 181.678C28.333 181.101 27.4015 179.121 26.5313 180.697C26.3861 183.31 27.9837 182.694 29.282 181.678ZM63.0037 74.7891C63.39 74.3976 63.7872 74.0049 64.3405 73.4315C62.6248 70.6713 61.1432 73.186 63.0037 74.7891ZM378.482 52.5C378.287 50.7839 376.737 51.9158 375.438 52.1501C376.05 53.6451 377.939 53.9413 378.482 52.5ZM43.7444 150.597C41.8741 151.243 43.3371 152.457 44.2588 154.351C44.626 152.137 45.4106 151.364 43.7444 150.597ZM89.7181 253.547C90.6686 252.581 90.8236 252.389 89.3014 251.432C88.8949 252.521 88.5573 253.342 89.7181 253.547ZM59.521 50.3286C60.0062 51.4903 60.7219 50.8876 61.7101 50.254C60.5174 49.0858 60.2752 49.2871 59.521 50.3286ZM273.908 252.828C274.799 253.77 274.838 254.113 276.204 252.915C275.069 252.261 274.74 251.691 273.908 252.828ZM361.317 28.7233C362.306 29.6539 362.596 29.0995 363.546 28.1227C362.033 27.2514 361.975 27.5187 361.317 28.7233ZM332.471 24.6315C334.069 24.7978 334.079 23.3301 332.664 22.4477C332.151 23.375 331.522 24.0548 332.471 24.6315ZM250.095 275.28C251.043 274.39 251.392 274.351 250.181 273.022C249.435 274.138 248.864 274.551 250.095 275.28ZM58.6425 75.284C57.4712 75.7646 58.0713 76.4786 58.7103 77.4382C59.9805 76.1751 59.7866 76.0232 58.6425 75.284ZM229.445 270.519C229.638 269.889 230.006 269.239 229.251 268.814C229.114 269.166 228.979 269.529 228.843 269.892C229.047 270.13 229.251 270.367 229.445 270.519Z" fill="#42FEFC" fill-opacity="0.8" stroke="#2C292D" stroke-width="2" mask="url(#path-1-inside-1_375_30740)"/>
</svg>
