<svg width="348" height="355" viewBox="0 0 348 355" fill="none" xmlns="http://www.w3.org/2000/svg">
<path fill-rule="evenodd" clip-rule="evenodd" d="M222.345 162.382C222.634 162.645 222.881 162.596 223.316 162.038C222.849 162.191 222.487 161.947 222.345 162.382ZM225.436 160.098C224.686 161.174 223.46 161.015 223.18 162.224C223.694 161.353 225.361 162.16 225.436 160.098ZM124.47 130.697C124.372 130.956 124.292 131.187 124.609 131.487C124.843 131.125 124.951 130.866 124.47 130.697ZM334.756 267.978C335.007 268.159 335.228 268.166 335.398 267.796C335.216 267.908 334.86 267.416 334.756 267.978ZM51.094 32.9035C50.8123 33.1923 50.8249 33.459 51.1227 33.7222C51.4045 33.4426 51.3918 33.1666 51.094 32.9035ZM309.379 319.06C309.189 319.32 309.192 319.541 309.553 319.72C309.449 319.528 309.923 319.164 309.379 319.06ZM315.378 218.193C315.169 218.444 315.199 218.665 315.47 218.984C315.714 218.612 315.812 218.344 315.378 218.193ZM292.419 67.7074C292.701 67.4186 292.688 67.1518 292.39 66.8887C292.118 67.1774 292.121 67.4442 292.419 67.7074ZM238.022 67.1182C237.78 66.9372 237.559 66.9308 237.38 67.3011C237.562 67.1884 237.928 67.6808 238.022 67.1182ZM313.101 345.095C313.343 345.303 313.563 345.282 313.752 344.93C313.569 345.024 313.223 344.55 313.101 345.095ZM312.169 102.993C312.377 102.751 312.356 102.521 312.085 102.203C311.841 102.583 311.734 102.842 312.169 102.993ZM289.342 104.991C289.622 105.245 289.879 105.205 290.305 104.647C289.837 104.8 289.475 104.556 289.342 104.991ZM289.684 146.262C289.452 146.053 289.231 146.074 289.033 146.417C289.225 146.332 289.562 146.806 289.684 146.262ZM286.575 92.7391C286.385 92.99 286.379 93.211 286.749 93.3996C286.637 93.2077 287.12 92.8428 286.575 92.7391ZM229.674 188.39C229.385 188.136 229.138 188.176 228.703 188.743C229.17 188.58 229.532 188.824 229.674 188.39ZM99.5515 125.827C99.8114 126.008 100.033 126.024 100.323 125.716C99.9429 125.482 99.6931 125.375 99.5515 125.827ZM229.847 150.729C230.135 150.992 230.383 150.943 230.818 150.385C230.351 150.538 229.989 150.295 229.847 150.729ZM63.2348 52.1791C63.4767 52.3878 63.6973 52.3666 64.0159 52.0865C63.6446 51.8335 63.3856 51.7263 63.2348 52.1791ZM235.577 185.767C235.297 185.485 235.031 185.488 234.768 185.795C235.047 186.077 235.314 186.074 235.577 185.767ZM338.29 54.0005C338.532 54.2091 338.753 54.188 339.071 53.9079C338.7 53.6641 338.441 53.5569 338.29 54.0005ZM205.624 134.549C206.005 134.848 206.226 134.846 206.463 134.613C206.461 134.456 206.458 134.272 206.447 134.061C206.154 134.23 205.898 134.38 205.624 134.549ZM230.097 153.073C230.505 153.307 230.755 153.451 230.959 153.568C231.062 152.959 231.062 152.959 230.097 153.073ZM161.935 119.626C162.343 119.86 162.593 120.013 162.797 120.121C162.891 119.513 162.891 119.513 161.935 119.626ZM60.4562 255.905C60.0291 255.606 59.6336 255.62 59.2237 255.957C59.6507 256.255 60.0555 256.241 60.4562 255.905ZM124.14 145.555C123.902 145.65 123.618 145.764 123.326 145.887C124.046 146.08 124.385 145.975 124.14 145.555ZM322.361 231.266C322.38 230.622 323.067 231.055 323.282 230.61C322.956 230.274 322.581 230.463 322.075 230.543C322.125 230.846 322.036 231.068 322.361 231.266ZM121.868 151.528C121.64 151.697 121.403 151.875 121.175 152.043C121.483 152.324 121.66 152.506 121.995 152.815C121.951 152.273 122.213 151.874 121.868 151.528ZM88.2081 192.314C88.5435 192.641 88.7899 193.209 89.51 192.657C89.0115 192.534 88.827 191.763 88.2081 192.314ZM175.384 241.978C175.213 242.293 175.337 242.613 175.39 243.183C176.109 242.521 176.109 242.521 175.384 241.978ZM94.8593 185.494C95.1464 184.902 95.1051 184.543 94.8334 184.16C94.6065 184.411 94.434 184.598 94.3796 184.663C94.5209 184.928 94.6714 185.184 94.8593 185.494ZM334.351 266.447C334.738 266.469 335.117 266.63 335.443 266.249C335.248 266.086 335.053 265.932 334.765 265.696C334.63 265.974 334.254 266.07 334.351 266.447ZM62.634 268.136C63.3185 268.413 63.5095 267.499 64.4492 267.579C63.1588 267.421 63.1588 267.421 62.634 268.136ZM255.724 98.3526C255.34 98.6059 255.34 98.6059 254.979 99.1626C255.301 99.1494 255.605 99.1364 256.037 99.1218C256.041 98.6892 256.074 98.4127 255.724 98.3526ZM68.596 251.836C67.9122 251.615 67.3985 251.75 67.1134 252.499C67.788 252.721 68.2926 252.595 68.596 251.836ZM320.967 247.159C321.128 246.752 321.289 246.354 321.503 245.809C320.705 246.039 320.257 246.284 320.337 246.808C320.545 247.275 320.755 247.106 320.967 247.159ZM272.738 298.149C272.638 298.288 272.457 298.539 272.267 298.808C272.721 299.07 273.216 298.898 274.044 298.823C273.515 298.498 273.371 298.031 272.738 298.149ZM310.766 173.303C310.472 173.298 310.121 173.192 309.805 173.711C310.578 173.665 311.233 173.785 311.956 173.528C311.751 173.328 311.612 173.192 311.481 173.064C311.099 172.673 311.052 173.309 310.766 173.303ZM149.211 128.004C149.39 127.642 149.377 127.284 149.17 126.927C148.813 127.125 148.466 127.313 148.109 127.502C148.462 127.718 148.635 128.324 149.211 128.004ZM159.853 119.468C160.14 119.584 160.36 119.563 160.532 119.312C160.391 119.112 160.078 119.033 160.11 118.71C159.931 118.381 160.648 118.317 160.312 117.916C160.147 117.937 159.972 117.957 159.65 117.989C159.804 118.502 159.58 119.011 159.853 119.468ZM241.275 188.788C241.508 189.015 241.694 189.196 241.88 189.387C242.021 188.87 242.733 189.137 242.864 188.565C242.807 188.446 242.732 188.272 242.627 188.034C242.152 188.298 241.723 188.534 241.275 188.788ZM102.841 168.764C103.474 168.674 104.141 169.006 104.762 168.602C104.51 168.339 104.324 168.148 103.82 167.639C103.72 168.44 103.111 168.31 102.841 168.764ZM177.682 129.948C177.118 129.762 176.593 129.75 176.081 130.023C176.084 130.216 176.085 130.345 176.096 130.492C176.801 130.944 177.257 130.57 177.682 129.948ZM295.279 105.063C294.734 104.877 294.209 104.874 293.752 105.11C293.766 105.497 293.779 105.809 293.806 106.462C294.228 105.647 295.012 105.766 295.279 105.063ZM228.923 188.666C228.168 188.639 227.679 189.326 226.951 189.225C226.965 189.574 226.976 189.767 226.979 189.96C227.786 189.785 228.594 189.591 228.923 188.666ZM331.743 207.387C332.148 207.391 332.311 207.122 332.538 206.907C332.665 206.786 332.71 206.703 332.664 206.676C332.257 206.497 331.942 206.363 331.618 206.219C331.524 206.754 330.986 207.166 331.15 207.799C331.473 207.832 331.532 207.389 331.743 207.387ZM278.816 306.632C279.684 306.087 280.447 306.032 280.815 305.254C279.811 305.23 279.811 305.23 278.816 306.632ZM75.6539 178.98C75.3359 179.306 75.0089 179.65 74.691 179.985C74.9036 180.066 75.0296 180.57 75.8095 180.386C75.6744 179.881 75.889 179.381 75.6539 178.98ZM275.147 82.5932C275.622 82.302 275.869 82.1424 276.042 82.039C275.618 81.2805 275.112 81.2224 274.389 81.5535C274.627 82.1948 274.871 82.5966 275.147 82.5932ZM319.641 64.753C318.987 65.4422 318.644 65.9803 318.029 66.034C318.043 66.4479 318.056 66.7791 318.082 67.3862C318.623 66.5051 319.502 66.1444 319.641 64.753ZM195.758 286.725C195.672 286.414 195.87 286.052 195.497 285.698C195.242 285.894 194.814 285.522 194.534 285.977C194.538 286.244 194.55 286.51 194.574 286.924C194.968 286.846 195.378 287.2 195.758 286.725ZM94.9445 193.767C94.9859 193.398 95.1283 193.01 94.7374 192.665C93.8835 192.823 93.6788 193.378 93.95 194.46C94.2293 193.978 94.6246 193.945 94.9445 193.767ZM171.096 25.0974C170.196 24.5473 169.523 24.4545 169.16 24.8547C169.505 25.1633 169.858 25.4626 170.333 25.88C170.249 25.062 171.159 25.7316 171.096 25.0974ZM99.5114 245.412C99.3142 245.838 98.6467 245.441 98.6535 245.984C98.6398 246.362 98.789 246.516 99.1199 246.485C99.2203 246.419 99.3485 246.371 99.4303 246.287C99.8486 245.886 100.258 245.476 100.794 244.954C99.9072 244.68 99.6455 245.097 99.5114 245.412ZM166.403 61.2136C165.755 61.6451 165.755 61.6451 165.46 62.3206C165.646 62.4931 165.833 62.6656 166.084 62.8926C166.657 62.3516 166.844 61.8523 166.403 61.2136ZM88.3606 236.855C88.0103 236.804 87.5961 236.8 87.3611 236.407C87.1024 237.064 86.4349 236.667 85.9334 237.042C86.8122 237.408 87.6321 238.208 88.3606 236.855ZM61.3876 103.123C61.9689 102.508 62.2741 101.888 62.3389 101.187C61.7 100.873 61.5399 101.317 61.1487 101.681C61.2375 102.158 61.0415 102.676 61.3876 103.123ZM77.6917 249.146C78.0669 248.975 78.2865 248.871 78.3688 248.833C78.0136 248.396 77.7332 248.05 77.4155 247.667C77.2575 248.277 76.6559 248.008 76.4582 248.388C76.8421 248.908 77.4327 249.038 77.6917 249.146ZM188.385 123.344C188.598 122.743 188.592 122.21 188.308 121.624C187.988 121.803 187.626 121.55 187.263 121.959C187.646 122.369 187.445 123.218 188.385 123.344ZM116.923 82.8803C116.855 82.5774 117.016 82.2257 116.689 81.8617C116.508 82.0572 116.346 82.3261 116.014 82.3211C115.738 82.3153 115.341 82.2006 115.314 82.9832C115.306 83.1214 115.703 83.1992 116.135 83.8657C116.048 82.836 116.763 83.3056 116.923 82.8803ZM321.864 62.2035C321.229 62.9017 320.648 63.544 319.976 64.2794C320.005 64.3803 319.825 64.7507 320.299 65.0853C320.181 63.7523 321.834 63.4739 321.864 62.2035ZM49.1659 270.016C49.4578 269.81 49.5921 269.514 49.2936 269.195C48.9976 269.07 48.7868 269.147 48.6057 269.379C48.4334 269.584 48.2801 269.834 48.0607 269.956C47.8504 270.06 47.5267 269.935 47.4675 270.35C47.4513 270.525 47.5179 270.699 47.8052 270.861C48.2161 270.608 48.7097 270.335 49.1659 270.016ZM292.29 120.654C292.339 120.883 292.368 121.003 292.398 121.168C292.878 121.328 293.365 121.266 293.815 121.132C294.004 120.835 294.38 120.692 294.253 120.123C293.373 119.665 292.923 120.444 292.29 120.654ZM248.374 20.7158C247.99 20.9231 247.442 20.5158 246.979 21.0186C247.148 21.2925 246.877 21.6733 247.212 21.9636C247.626 21.9492 248.067 21.9345 248.785 21.9071C248.512 21.4411 248.774 21.0605 248.374 20.7158ZM157.89 100.829C159.04 101.606 159.04 101.606 159.987 100.048C159.022 100.17 158.236 99.8121 157.89 100.829ZM223.152 83.4925C222.626 83.3702 222.147 83.3578 221.69 83.5476C221.387 84.3797 222.12 84.8214 222.246 85.3812C223.265 85.1292 222.542 84.0247 223.152 83.4925ZM66.0109 41.6253C65.4819 41.273 65.6291 40.5349 65.3284 40.0417C65.0807 40.1001 64.9613 40.12 64.9613 40.12C64.2255 40.893 65.2931 41.6343 64.7794 42.4966C65.5622 42.542 65.7781 42.1436 66.0109 41.6253ZM91.9976 281.849C92.8852 282.178 93.582 282.703 94.3774 282.279C94.5201 281.919 94.6634 281.604 94.8955 281.03C93.8042 281.339 92.9606 281.579 91.9976 281.849ZM165.967 94.7457C166.076 94.6063 166.185 94.4577 166.302 94.3182C165.986 94.0736 165.509 94.1809 165.302 93.7785C164.847 94.1983 164.484 94.6446 164.879 95.3299C165.384 95.2316 165.652 96.0197 166.228 95.7088C166.728 95.2056 166.118 95.0383 165.967 94.7457ZM158.903 112.706C158.776 112.837 158.593 112.94 158.531 113.088C158.199 113.829 158.348 114.674 157.744 115.693C158.993 115.475 158.878 114.345 159.886 114.038C158.734 113.905 159.368 113.069 158.903 112.706ZM153.844 65.8159C154.231 65.13 155.268 65.614 155.552 64.7914C155.605 64.6342 155.557 64.4416 155.564 64.2666C155.091 64.0241 154.652 64.2136 154.219 64.173C153.6 64.7514 153.395 65.2325 153.844 65.8159ZM24.262 209.689C24.0667 209.526 23.8715 209.372 23.5367 209.091C23.3416 209.682 22.714 209.534 22.4157 209.97C22.5023 210.272 22.2952 210.634 22.6114 210.897C23.0436 210.873 23.4852 210.858 24.2027 210.831C23.3299 210.216 24.5721 210.201 24.262 209.689ZM328.218 236.043C328.536 235.689 328.863 235.335 329.081 235.093C328.722 235.107 328.152 235.133 327.563 235.158C327.775 235.956 326.439 235.78 326.772 236.687C327.001 236.573 327.238 236.405 327.495 236.356C327.816 236.287 328.157 236.32 328.479 236.297C328.395 236.216 328.302 236.134 328.218 236.043ZM334.193 235.462C334.337 235.902 334.104 236.429 334.478 236.903C334.948 236.244 335.749 236.262 336.212 235.759C336.298 235.233 335.818 235.11 335.527 234.727C335.006 235.01 334.632 235.217 334.193 235.462ZM56.0383 265.43C56.0592 265.623 55.9883 265.845 56.257 265.988C56.5644 265.552 57.107 265.518 57.5271 265.264C57.6944 265.391 57.7892 265.61 58.0642 265.524C58.4115 265.336 58.7863 265.129 59.1518 264.921C59.1387 264.609 59.1256 264.296 59.1098 263.772C58.1093 264.714 56.8946 264.729 56.0383 265.43ZM166.588 96.5785C166.288 96.8308 166.525 97.38 166.076 97.5697C166.275 97.9721 166.874 98.0751 166.871 98.5905C166.869 99.1703 167.113 99.4985 167.585 99.7319C168.098 98.7868 166.606 97.9588 167.57 97.0816C167.273 96.8461 167.074 96.416 166.588 96.5785ZM137.469 81.8316C137.256 81.7239 137.08 81.634 136.84 81.5174C136.815 81.7754 136.808 81.9503 136.793 82.2174C137.253 82.2025 137.695 82.1877 138.228 82.1627C138.509 81.8186 139.067 81.5355 139.152 80.9271C138.915 80.4239 138.338 80.6336 138.085 80.2778C137.445 80.5987 137.619 81.2868 137.469 81.8316ZM119.589 123.101C120.448 123.32 121.085 124.205 122.073 123.76C121.993 123.264 121.473 123.648 121.35 123.327C121.144 123.026 121.506 122.534 121.033 122.31C120.354 123.174 119.258 122.396 118.511 122.967C118.552 123.289 118.409 123.631 118.698 123.977C118.998 123.688 119.298 123.39 119.589 123.101ZM183.703 43.4193C184.432 43.5482 184.027 44.2895 184.653 44.3369C184.903 44.3982 185 44.0749 185.201 43.9435C185.402 43.8306 185.725 43.9462 185.804 43.6507C185.98 42.9766 185.598 42.6225 185.143 42.2601C184.416 42.306 184.296 42.9977 183.703 43.4193ZM301.872 78.826C301.565 78.6181 302.12 78.0498 301.326 77.8665C300.662 78.5374 299.591 78.9742 299.427 80.5499C300.347 79.8298 301.265 79.6434 301.872 78.826ZM240.152 17.478C239.935 17.0758 239.7 16.6462 239.474 16.2257C239.189 16.2293 238.922 16.2418 238.453 16.2661C238.929 16.7939 238.13 16.9235 238.228 17.4009C238.487 17.5541 238.591 17.7829 238.531 18.0873C239.282 18.5657 239.728 18.1551 240.152 17.478ZM213.983 351.609C213.85 352.025 213.305 351.856 213.015 352.228C213.224 352.769 212.874 353.472 213.314 354.047C214.377 353.739 214.568 352.807 214.964 352.057C214.64 351.913 214.307 351.761 213.983 351.609ZM257.265 272.942C257.271 272.685 257.368 272.352 257.171 272.06C255.902 272.131 254.896 272.678 254.922 273.285C254.964 273.671 255.342 273.767 255.773 274.378C256.084 273.463 256.989 273.719 257.265 272.942ZM202.852 142.444C202.726 141.921 202.968 141.421 202.548 140.956C201.33 141.413 200.944 142.955 199.505 143.406C200.954 143.765 201.807 142.779 202.852 142.444ZM57.6236 270.03C57.9821 269.998 58.2303 269.976 58.4786 269.955C58.5264 269.365 58.9192 269.13 59.4946 268.782C58.7039 268.838 59.1274 268.115 58.7204 267.955C58.3065 267.969 57.9109 267.983 57.5245 267.997C57.3338 268.202 57.1522 268.398 56.88 268.705C57.1718 269.226 57.4071 269.646 57.6236 270.03ZM277.129 287.235C276.904 286.934 276.605 286.523 276.314 286.122C275.775 286.423 275.355 286.659 274.898 286.922C275.17 287.333 274.674 287.449 274.632 287.735C274.827 287.926 275.023 288.117 275.088 288.18C276.263 288.654 276.467 287.261 277.129 287.235ZM320.979 271.63C320.961 271.657 320.99 271.721 320.999 271.767C322.141 272.517 322.554 272.429 323.688 271.182C323.272 271.003 323.34 270.523 323.078 270.214C322.839 270.226 322.591 270.229 322.232 270.243C321.778 270.755 321.369 271.192 320.979 271.63ZM312.652 262.172C312.127 262.869 312.118 263.679 311.807 264.502C312.248 264.505 312.506 264.511 312.819 264.517C313.529 263.909 314.045 263.167 314.216 262.143C313.616 261.976 313.128 261.991 312.652 262.172ZM335.881 258.577C335.718 258.064 336.433 257.843 336.271 257.339C335.896 256.819 335.441 256.53 334.792 256.815C334.301 257.327 333.986 257.92 333.912 258.602C334.274 258.873 334.752 258.766 334.95 259.178C335.129 258.752 335.608 258.829 335.881 258.577ZM62.679 107.036C63.4844 106.676 63.649 105.855 64.0367 105.215C63.6481 105.055 63.7431 104.556 63.4914 104.293C63.1693 104.297 62.8658 104.31 62.6082 104.322C62.2862 105.062 62.0002 105.738 61.446 107.052C62.2851 106.443 62.4657 106.901 62.679 107.036ZM146.727 305.285C146.991 306.515 146.991 306.515 148.17 306.647C148.605 306.062 149.511 305.683 149.002 304.686C148.733 304.542 148.339 304.657 148.112 304.163C147.677 304.73 147.258 305.085 146.727 305.285ZM140.159 135.719C139.63 136.084 138.886 136.149 138.573 136.898C139.349 137.174 139.271 138.233 140.085 138.563C140.181 138.166 140.531 138.162 140.907 138.074C141.087 137.06 140.765 136.346 140.159 135.719ZM126.226 188.617C125.718 189.222 124.692 188.857 124.316 189.709C125.01 190.031 125.714 190.363 126.5 190.73C126.741 190.102 127.507 190.239 127.821 189.591C127.435 188.952 126.718 188.988 126.226 188.617ZM292.176 167.416C291.992 168.155 292.65 168.533 292.795 169.028C293.536 168.715 294.259 168.402 295.065 168.061C294.81 167.558 294.584 167.128 294.367 166.689C294.082 166.748 293.977 167.209 293.552 167.049C293.431 166.949 293.282 166.832 293.134 166.705C292.964 167.149 292.29 166.927 292.176 167.416ZM116.097 147.726C115.431 146.759 114.384 146.22 112.982 146.651C113.531 147.123 113.886 147.57 114.533 147.801C114.949 147.952 115.668 148.063 115.687 148.817C116.43 148.67 116.601 149.763 117.583 149.566C117.095 148.827 116.518 148.346 116.097 147.726ZM341.118 46.1057C340.757 45.9446 340.396 45.7834 340.128 45.658C339.361 46.1553 337.932 45.9799 338.505 47.6661C338.952 47.32 339.106 47.8335 339.365 47.9591C339.986 47.6016 340.571 47.2629 341.156 46.9335C341.143 46.6576 341.131 46.3909 341.118 46.1057ZM345.722 127.2C345.505 127.47 345.296 127.703 345.178 127.842C344.991 128.378 345.444 128.483 345.503 128.795C345.248 129.01 345.058 129.252 345.34 129.754C345.744 129.694 346.277 129.595 346.614 130.079C346.689 129.443 347.163 129.087 347.526 128.65C347.348 128.413 346.987 128.261 347.12 127.836C346.676 127.639 346.24 127.433 345.722 127.2ZM156.492 284.042C155.534 283.98 154.586 283.974 153.807 284.922C154.189 285.313 154.581 285.732 154.898 286.068C155.413 286.043 155.799 286.029 156.213 286.015C156.288 285.333 157.054 284.799 156.492 284.042ZM220.269 288.406C219.828 288.495 219.356 288.289 218.946 288.607C218.968 288.929 218.982 289.242 218.986 289.61C220.382 289.381 220.854 291.022 222.088 291.08C222.266 290.636 222.141 290.187 222.117 289.736C221.305 289.571 220.873 288.868 220.269 288.406ZM76.4037 183.737C75.3925 183.833 75.1099 184.784 74.3601 185.171C74.5649 185.352 74.7602 185.516 74.9927 185.715C75.655 185.688 76.3633 185.661 77.044 185.634C77.3325 185.152 77.9004 184.943 77.9456 184.141C77.3274 184.011 76.7482 184.055 76.4037 183.737ZM120.931 125.201C120.498 125.142 120.14 125.192 119.88 125.048C119.593 124.877 119.387 124.622 119.041 124.921C119.036 125.234 119.534 125.338 119.392 125.699C119.222 126.143 119.731 126.32 119.753 126.67C119.654 126.791 119.508 126.875 119.481 126.986C119.3 127.918 120.275 128.596 120.084 129.574C120.314 128.08 121.245 126.725 120.931 125.201ZM241.525 301.402C242.057 301.266 242.538 300.773 243.165 300.875C243.176 300.222 243.806 299.818 243.538 298.993C243.302 298.564 242.821 298.367 242.365 298.695C241.955 299.013 241.536 299.322 241.253 299.528C241.195 300.072 241.509 300.151 241.65 300.351C241.423 300.639 241.003 300.893 241.525 301.402ZM259.209 68.0126C259.213 67.5984 259.041 67.0944 259.689 66.6906C258.686 66.6571 259.474 65.6717 258.854 65.3942C258.477 66.1168 258.038 65.6621 257.613 65.4558C257.62 66.0355 257.053 66.3646 257.21 67.1081C257.481 67.4637 257.609 68.0787 257.783 68.7759C258.304 68.4933 258.734 68.267 259.209 68.0126ZM303.745 341.015C303.369 340.394 302.761 340.301 302.215 340.041C301.865 340.763 301.131 340.201 300.647 340.539C300.385 340.956 299.827 341.175 299.762 341.875C299.994 342.019 300.263 342.191 300.699 342.452C301.659 341.999 302.693 341.507 303.745 341.015ZM91.0496 192.877C91.4474 192.301 92.0556 192.367 92.6263 192.378C93.243 192.38 93.5952 191.851 94.145 191.66C93.4003 191.715 93.1146 190.946 92.4762 190.678C91.4524 191.233 90.1735 191.259 89.3697 192.474C90.0105 192.209 90.5031 192.589 91.0496 192.877ZM341.014 139.279C341.021 139.849 340.169 139.427 340.012 140.055C340.388 140.75 340.756 141.435 341.123 142.102C342.215 141.804 342.861 141.262 342.845 140.728C342.721 140.38 342.286 140.183 342.379 139.501C341.721 139.886 341.592 139.142 341.014 139.279ZM310.928 267.062C310.633 267.774 310.383 268.375 310.15 268.931C310.665 269.633 311.307 269.459 311.885 269.323C312.929 268.923 312.63 267.786 313.127 267.08C312.83 266.863 312.362 266.961 312.154 266.55C311.952 267.279 311.2 266.782 310.928 267.062ZM52.8925 263.352C51.5853 264.059 51.2275 264.146 50.5707 263.879C50.3974 264 50.2613 264.158 50.0963 264.207C49.9128 264.255 49.7381 264.266 49.6486 264.47C50.8278 265.302 52.1944 265.662 53.1267 265.153C53.3917 265.003 53.9544 265.106 54.0117 264.535C53.9997 264.314 53.9781 264.057 53.9569 263.836C53.5867 263.666 53.2534 263.514 52.8925 263.352ZM281.281 166.052C282.289 166.445 282.674 166.283 283.946 164.97C284.082 164.83 284.118 164.765 283.97 164.684C283.605 164.229 283.079 164.125 282.58 163.929C282.192 164.587 281.468 164.071 280.948 164.446C280.83 164.604 280.612 164.791 280.541 165.022C280.47 165.253 280.538 165.537 280.551 165.813C280.819 165.902 281.05 165.963 281.281 166.052ZM187.771 3.01307C187.832 2.73622 188.083 2.17169 187.409 2.00527C187.025 2.22174 186.586 2.44811 186.176 2.72014C185.847 2.93592 185.556 3.18805 185.036 3.59028C185.814 3.97628 185.711 4.59416 186.12 4.90195C186.663 4.87675 187.187 4.86099 187.693 4.83625C187.884 4.6314 188.065 4.43586 188.21 4.25919C188.322 3.60438 187.668 3.54814 187.771 3.01307ZM142.786 127.918C143.368 128.104 143.73 127.649 144.289 127.403C144.512 127.593 144.748 128.032 145.259 127.74C145.392 127.278 145.339 126.782 145.204 126.25C144.768 126.007 144.333 125.764 143.869 125.503C141.755 126.44 141.675 126.635 142.786 127.918ZM158.754 305.19C158.522 305.726 159.129 305.774 158.978 306.199C159.063 306.318 158.51 306.306 158.891 306.587C159.314 306.572 159.756 306.558 160.124 306.544C160.716 306.021 161.047 305.317 161.809 305.151C161.829 304.535 162.596 304.037 162.053 303.326C160.911 303.975 159.768 304.616 158.754 305.19ZM292.148 209.29C292.421 209.738 292.647 210.149 292.9 210.578C293.458 210.24 293.951 209.985 294.54 209.969C294.779 209.174 295.008 208.399 295.211 207.687C294.987 207.46 294.848 207.324 294.652 207.124C293.517 207.653 292.725 208.335 292.148 209.29ZM314.842 279.851C316.327 279.354 316.424 278.975 315.341 277.811C314.67 277.838 314.017 277.864 313.327 277.891C313.137 278.142 313.289 278.536 312.988 278.77C312.669 279.013 312.941 279.396 312.809 279.923C313.404 279.611 313.604 280.179 314.176 280.31C314.432 280.132 314.623 279.927 314.842 279.851ZM275.401 307.264C273.833 307.707 272.43 308.101 270.962 308.525C270.765 308.969 270.55 309.432 270.327 309.932C272.125 310.222 273.323 308.919 274.819 308.596C274.98 308.226 275.141 307.847 275.401 307.264ZM85.1463 230.039C84.7967 230.052 84.3888 229.809 84.1815 230.161C84.8025 231.249 85.9515 231.869 86.3354 233.134C87.2166 232.949 88.0405 234.07 89.024 233.239C88.756 233.15 88.5158 233.08 88.2294 232.991C87.9512 232.084 87.49 231.261 86.5812 230.711C86.2316 230.725 85.8453 230.739 85.4682 230.762C85.3546 230.506 85.2505 230.277 85.1463 230.039ZM10.9059 263.16C10.8183 262.784 11.2298 262.567 11.2536 262.263C10.7848 261.579 10.1005 261.311 9.63774 261.105C8.20413 261.271 8.18126 262.384 7.85174 263.263C8.89119 263.958 9.91326 264.001 10.9059 263.16ZM112.637 141.18C113.349 140.702 114.252 140.764 114.786 140.113C114.977 139.181 114.164 138.906 113.725 138.405C112.813 138.362 111.949 138.446 111.193 139.072C111.681 139.784 112.178 140.505 112.637 141.18ZM231.228 150.804C231.821 150.336 232.085 149.385 233.108 149.556C233.719 149.042 234.086 148.228 234.857 148.089C234.924 147.582 234.638 147.466 234.488 147.293C234.467 147.054 234.982 147.029 234.711 146.701C233.87 146.436 233.251 146.977 232.555 147.244C232.339 147.633 232.686 148.153 232.203 148.518C231.856 148.789 231.354 149.109 231.397 149.587C231.461 150.285 230.442 149.792 230.607 150.462C230.928 150.375 230.997 150.742 231.228 150.804ZM170.068 106.971C170.053 106.447 170.028 105.932 170.013 105.481C170.46 105.172 170.675 105.464 170.88 105.663C171.688 105.478 171.869 104.519 172.639 104.289C172.626 103.967 172.613 103.654 172.599 103.277C171.716 103.315 170.879 103.344 169.876 103.384C170.505 104.371 169.063 103.882 169.109 104.563C169.067 104.895 169.408 104.964 169.512 105.184C169.394 105.332 169.267 105.481 169.095 105.686C169.321 106.115 169.557 106.554 169.793 106.993C169.884 106.983 169.976 106.982 170.068 106.971ZM98.4492 235.551C98.1586 235.858 97.9409 236.109 97.723 236.351C97.2747 236.559 96.6997 236.207 96.1735 236.812C97.6181 236.794 98.9085 236.953 99.9824 238.191C100.467 237.209 101.598 237.103 101.768 235.978C100.654 235.219 99.508 235.583 98.4492 235.551ZM343.803 256.187C344.833 256.901 345.874 256.961 346.894 256.148C347.13 255.151 346.816 254.281 346.272 253.459C344.326 254.625 343.89 255.099 343.803 256.187ZM95.4468 196.402C94.4221 196.148 93.7753 196.68 93.0626 197.085C92.3954 197.461 92.0164 198.055 91.2346 198.829C92.4756 198.721 93.2022 199.421 94.2483 199.177C95.0017 198.34 95.8021 197.584 95.4468 196.402ZM250.71 94.8354C249.631 95.4103 249.12 96.5026 248.003 96.9216C249.425 96.6185 250.542 97.5892 251.722 97.7585C252.332 97.2631 252.462 96.6173 252.804 95.9688C252.249 95.0094 251.214 95.4273 250.71 94.8354ZM304.191 208.992C304.14 210.024 303.407 211.036 303.952 211.959C304.85 212.408 305.18 211.529 305.722 211.458C306.107 210.579 306.464 209.737 306.84 208.876C306.747 208.785 306.598 208.649 306.374 208.431C305.488 208.166 304.878 208.689 304.191 208.992ZM264.162 49.0108C263.088 49.2451 263.267 48.1017 262.637 47.8151C262.196 47.8298 261.754 47.8537 261.451 47.8575C260.83 48.2702 260.755 48.851 260.54 49.3506C261.246 49.8664 261.514 50.6729 261.91 51.4318C262.168 50.7751 262.827 51.181 263.237 50.8722C263.773 50.2949 263.848 49.7141 264.162 49.0108ZM152.601 112.077C153.056 110.258 154.157 109.204 155.723 108.614C155.431 108.056 156.513 107.776 155.954 107.194C154.946 107.584 154.946 107.584 154.316 108.724C153.819 109.429 152.913 109.109 152.303 109.669C151.94 110.005 150.652 110.813 150.664 111.024C150.603 111.319 150.99 111.351 151.039 111.618C150.821 111.841 150.557 112.065 150.896 112.659C151.529 112.458 152.02 112.001 152.601 112.077ZM0.774509 225.021C1.33225 225.465 1.34227 226.265 1.82686 226.747C2.22448 226.898 2.32903 226.428 2.6321 226.378C2.80924 226.56 2.98672 226.769 3.38123 226.672C3.68097 226.356 4.03511 225.974 4.29862 225.704C4.27157 225.014 4.25569 224.48 4.23245 224.094C3.8171 223.262 3.18461 223.463 2.33818 223.483C2.19292 224.377 1.04019 224.189 0.774509 225.021ZM197.741 337.032C197.822 336.911 197.939 336.707 198.066 336.494C197.474 336.327 196.989 335.781 196.302 336.001C195.554 336.581 195.586 337.62 195.005 338.299C195.146 338.491 195.45 338.579 195.401 339.021C195.329 339.142 195.202 339.337 195.085 339.541C195.382 339.776 195.851 339.669 196.058 340.072C196.52 339.514 197.246 339.422 197.784 339.01C197.539 338.525 198.227 338.379 198.127 337.727C198.005 337.562 197.691 337.474 197.741 337.032ZM128.062 119.185C127.691 119.686 127.263 120.042 126.75 120.232C126.71 120.739 126.817 121.151 127.134 121.46C127.025 121.627 126.889 121.776 126.827 121.952C126.791 122.054 126.857 122.191 126.886 122.31C127.027 122.538 127.275 122.489 127.412 122.423C128.401 121.96 129.37 121.46 130.348 120.969C130.26 120.556 130.469 120.314 130.706 120.09C130.668 120.036 130.631 119.999 130.584 119.954C130.215 119.885 129.756 119.928 129.912 119.217C129.284 119.004 128.66 119.168 128.062 119.185ZM14.0229 218.818C14.0646 219.213 13.9233 219.684 14.1488 220.059C14.5511 220.578 15.1041 220.645 15.5854 220.869C15.8447 220.258 16.4763 220.72 16.9299 220.199C17.2368 219.716 17.6982 219.085 17.5413 218.314C17.3521 217.166 16.1484 218.055 15.771 217.314C15.1506 217.745 14.4554 218.085 14.0229 218.818ZM280.347 199.499C280.747 199.862 281.175 200.243 281.369 201.023C281.841 200.492 282.354 200.293 282.645 200.031C283.173 199.555 283.701 199.079 284.165 198.669C283.653 198.187 283.14 197.697 282.442 197.015C282.053 196.882 281.703 197.586 281.179 197.638C280.848 198.379 280.597 198.934 280.347 199.499ZM294.372 298.734C295.073 298.136 295.218 298.714 295.597 298.82C295.919 298.071 296.662 298.604 297.155 298.322C297.673 297.773 298.097 297.114 298.859 296.948C298.482 295.508 298.185 295.291 296.491 295.22C296.503 296.195 295.594 296.335 294.801 296.99C295.037 297.493 294.767 297.919 294.372 298.734ZM328.094 209.227C327.938 209.937 327.696 210.502 327.252 211.069C328.091 211.169 327.466 212.005 327.987 212.412C328.241 211.397 329.254 211.421 329.922 211.164C330.948 210.783 330.753 209.865 331.289 209.362C331.046 209.061 330.888 208.87 330.841 208.815C330.64 208.238 331.275 208.193 331.122 207.716C330.088 208.254 329.121 208.892 328.094 209.227ZM284.803 104.817C285.957 103.625 287.269 102.578 288.162 101.14C288.217 101.057 288.243 100.955 288.297 100.835C288.019 100.709 287.896 100.49 287.929 100.186C288.661 99.7902 289.003 99.1877 289.071 97.972C288.654 98.5018 288.454 98.7436 288.283 98.985C287.866 99.5516 287.573 100.384 287.024 100.621C286.008 101.057 285.734 101.962 285.256 102.759C285.139 102.954 285.234 103.201 284.886 103.316C283.969 103.641 283.879 104.516 283.752 105.346C283.735 105.466 283.681 105.577 283.646 105.715C283.445 105.847 283.121 105.722 282.978 106.018C283 106.349 283.014 106.69 283.018 107.03C284.072 106.676 284.14 105.507 284.803 104.817ZM127.184 155.621C127.375 155.481 127.521 155.369 127.63 155.275C128.424 155.422 128.948 156.17 129.903 156.002C130.401 155.277 131.447 155.062 131.961 154.19C132.042 154.051 132.012 153.84 132.028 153.674C131.591 153.293 130.889 153.854 130.642 153.213C129.902 153.646 129.152 154.069 128.412 154.493C127.741 153.783 127.162 154.6 126.536 154.59C125.846 154.58 125.251 154.136 124.479 154.201C124.873 154.785 124.981 155.373 125.575 155.77C126.109 155.009 126.684 155.425 127.184 155.621ZM243.409 160.802C244.62 160.437 245.812 160.155 246.833 159.351C246.806 158.698 246.779 157.971 246.751 157.189C245.868 157.228 245.031 157.257 244.148 157.296C243.921 157.538 243.648 157.836 243.312 158.208C243.352 159.137 243.381 159.993 243.409 160.802ZM311.003 282.614C310.658 282.315 310.314 282.015 309.923 281.67C309.335 281.696 308.672 281.714 308.019 281.74C308.112 281.831 308.205 281.922 308.298 282.004C307.705 282.425 307.103 282.838 306.519 283.241C307.024 283.823 307.041 284.477 307.737 284.965C310 284.9 310 284.9 311.003 282.614ZM290.776 349.69C291.534 349.156 292.197 348.467 292.788 347.944C292.761 347.227 292.735 346.647 292.72 346.169C291.998 345.828 291.368 345.486 290.571 345.772C289.636 346.797 289.36 347.518 289.334 349.156C289.793 349.767 290.311 350.018 290.776 349.69ZM107.105 160.198C106.498 160.224 106.121 160.238 105.753 160.252C105.542 161.037 105.661 161.781 105.634 162.517C105.616 163.3 105.276 164.105 105.519 165.123C106.119 164.536 106.217 165.75 106.949 165.372C107.78 164.165 108.204 162.752 108.109 161.741C107.574 160.919 107.283 160.481 107.105 160.198ZM75.5986 77.5076C74.923 77.2031 74.303 76.9348 73.6182 76.6305C73.1063 76.913 72.8676 77.689 72.1402 77.6613C72.4161 79.1211 72.7972 80.1563 73.2552 80.7211C74.8028 80.8398 75.5818 79.8453 76.2017 78.632C75.9662 78.2024 75.7589 77.8185 75.5986 77.5076ZM256.778 21.5769C257.425 21.7713 258.094 22.2783 258.684 21.6727C259.102 21.2165 259.519 20.7512 259.892 20.3416C259.633 20.262 259.784 19.8183 259.55 19.536C258.214 19.3779 257.278 18.1287 255.913 17.9158C255.68 18.3972 255.501 18.7768 255.249 19.2769C255.793 20.0892 256.272 20.8194 256.778 21.5769ZM336.885 29.2619C337.612 29.2528 338.431 29.1874 338.775 28.7505C339.336 28.0349 340.066 28.265 340.67 27.9906C341.274 27.7161 341.812 27.3044 342.424 26.9195C342.179 26.4624 341.943 26.0328 341.793 25.7494C341.052 25.4089 340.441 25.1313 339.84 24.8535C339.313 25.4399 338.288 25.1398 337.941 26.0645C337.957 26.6625 337.993 27.3338 338.025 28.4286C337.806 28.5878 337.341 28.9249 336.885 29.2619ZM23.8089 243.341C23.497 243.419 23.3465 243.163 23.1511 242.99C22.6426 243.54 21.4462 243.536 21.8398 244.838C21.3489 245.323 20.8963 245.927 20.3025 246.275C19.9371 246.491 19.8283 246.621 19.934 246.979C21.113 247.065 21.1036 247.047 21.8149 246.523C22.362 246.12 22.8981 245.57 23.522 245.415C25.1552 245.018 26.2483 244.12 26.8623 242.447C25.9149 242.486 25.0778 242.515 24.2868 242.553C23.9024 242.723 24.3793 243.325 23.8089 243.341ZM67.194 210.413C67.0034 210.627 66.831 210.822 66.6676 210.999C66.4557 212.456 67.0491 213.543 68.1178 214.367C68.7157 214.342 69.2951 214.316 69.7183 214.301C70.4936 213.749 70.7606 213.018 71.0645 212.297C70.8665 211.922 70.6684 211.538 70.4796 211.154C69.6662 210.879 68.8531 210.613 68.0489 210.337C67.8854 210.505 67.7491 210.645 67.622 210.784C67.4825 210.667 67.3336 210.54 67.194 210.413ZM310.645 347.463C309.553 346.188 308.661 347.746 307.71 347.472C307.584 348.412 306.87 348.762 306.436 349.402C307.276 349.594 306.527 350.726 307.247 350.92C307.869 351.4 308.689 350.718 309.113 351.486C309.34 351.243 309.529 350.937 309.954 351.033C310.407 349.758 311.241 348.716 310.645 347.463ZM285.554 232.463C286.339 233.383 287.276 233.988 288.645 233.787C288.849 233.213 289.5 233.03 289.884 232.777C290.051 232.186 289.471 232.147 289.503 231.77C289.387 231.338 290.131 231.209 289.801 230.606C289.565 230.131 288.83 230.223 288.447 229.758C287.794 229.785 287.132 229.811 286.432 229.838C285.688 230.658 285.441 231.489 285.554 232.463ZM263.78 89.058C264.359 89.0691 264.867 89.9094 265.504 89.3309C266.068 88.8268 266.651 89.8411 267.324 89.1516C267.733 88.7324 268.29 88.3665 268.771 87.8727C268.622 87.7457 268.455 87.6374 268.325 87.501C267.291 86.5108 265.925 86.2242 264.651 85.8812C263.709 85.6261 263.149 86.489 262.828 87.2845C263.139 87.8696 263.459 88.4638 263.78 89.058ZM338.287 196.362C338.311 196.85 338.325 197.236 338.339 197.622C338.645 197.793 338.752 198.206 339.395 198.125C340.796 196.147 342.315 193.983 344.752 193.033C345.041 192.606 344.695 192.177 345.031 191.824C345.303 191.535 345.88 191.298 345.476 190.649C344.925 190.675 344.354 190.691 343.802 190.716C342.982 191.325 342.736 192.276 342.351 193.127C342.14 193.213 341.807 193.051 341.784 193.42C341.896 193.565 342.008 193.693 342.242 193.975C341.754 193.99 341.379 194.124 341.138 193.989C340.665 193.728 340.621 194.649 340.175 194.277C340.053 194.104 339.886 194.032 339.519 194.101C339.217 194.979 338.896 195.802 338.287 196.362ZM184.418 69.6482C184.39 68.9123 184.364 68.2592 184.35 67.8913C183.744 67.2362 183.305 66.7539 182.904 66.3172C182.083 66.1803 181.615 66.996 180.95 66.8202C180.141 68.3305 179.469 69.7838 181.19 71.2807C182.438 70.989 183.791 70.9997 184.418 69.6482ZM303.305 168.308C302.583 168.712 301.998 169.051 301.367 169.399C301.556 169.793 301.218 169.981 301.019 170.232C301.872 170.755 301.167 171.758 301.652 172.332C302.861 173.338 303.918 172.487 305.037 172.142C305.79 171.323 305.73 170.173 306.216 169.274C305.852 168.929 305.564 168.647 305.126 168.239C304.464 168.265 303.801 168.292 303.305 168.308ZM226.808 117.461C227.389 117.61 227.936 117.935 228.519 118.148C229.046 118.344 229.575 117.96 229.835 118.196C230.262 117.722 230.689 117.256 231.115 116.781C230.731 116.206 230.271 115.522 229.765 114.783C229.04 114.912 228.373 114.579 227.805 114.09C226.949 114.809 225.626 114.246 224.847 115.24C224.871 115.709 224.887 116.243 224.914 116.887C225.625 117.117 226.207 117.312 226.808 117.461ZM240.562 28.9031C239.71 28.4904 239.615 27.4884 239.12 26.8964C237.697 25.7087 236.821 27.1001 235.85 27.4527C235.393 28.4248 236.377 29.0567 236.222 29.9329C237.209 30.8593 238.115 31.9431 239.703 31.5919C239.957 31.3126 240.22 31.0148 240.629 30.5772C240.604 30.0345 240.588 29.5009 240.562 28.9031ZM310.038 184.2C312.241 184.485 313.906 183.673 315.379 182.311C315.353 181.713 315.337 181.124 315.31 180.48C313.765 180.536 312.266 180.601 310.73 180.657C310.215 181.446 309.085 181.616 308.566 182.828C309.388 183.067 309.574 183.902 310.038 184.2ZM191.376 2.03844C191.464 2.42388 191.237 2.65679 191.046 2.84324C191.074 3.60675 191.101 4.32424 191.137 4.99561C191.947 5.75852 193.122 5.48614 193.803 6.25066C195.105 5.84784 195.793 4.91893 196.201 3.71742C195.852 3.06837 195.504 2.41012 195.174 1.77004C194.546 1.62145 193.964 1.42627 193.423 0.908455C192.765 1.27561 192.071 1.65243 191.376 2.03844ZM238.257 10.2221C237.643 9.64084 237.121 9.1504 236.563 8.63282C235.764 8.79927 235.201 7.94123 234.335 7.87844C233.793 7.90364 233.458 8.39559 233.037 8.54811C232.888 9.12057 233.579 9.21314 233.393 9.82287C233.331 9.9801 232.928 10.1324 233.147 10.7094C233.903 10.8288 233.894 11.6296 233.995 12.3094C234.906 12.2704 235.043 12.9865 235.354 13.5164C235.888 12.8194 236.666 13.1778 237.538 13.0013C237.293 11.8447 238.425 11.1219 238.257 10.2221ZM13.3049 271.008C12.4134 271.111 12.2256 270.074 11.4171 270.185C10.5901 270.287 10.375 269.278 9.802 269.082C9.05691 269.11 8.40382 269.137 7.98987 269.151C7.49828 269.581 7.16162 269.888 6.85211 270.159C6.90458 271.41 7.57999 272.432 7.46407 273.465C9.26356 273.856 10.9551 272.979 12.6034 273.787C12.8534 273.913 13.2298 273.834 13.4556 273.491C13.7086 273.12 14.2481 273.573 14.5461 273.118C14.4314 272.779 14.6585 272.546 14.9314 272.285C14.3556 271.869 13.948 270.926 13.3049 271.008ZM222.925 13.856C223.592 14.9336 223.592 14.9336 224.425 15.3741C224.735 15.8304 224.221 15.9473 224.188 16.2514C224.768 16.9988 225.748 16.646 226.354 17.255C226.884 16.9631 227.314 16.7276 227.725 16.4924C227.759 16.2895 227.637 16.0702 227.883 15.9014C228.159 15.8612 228.471 15.8112 228.774 15.7706C228.963 14.7191 229.197 14.2468 230.094 13.1404C229.327 12.8556 228.614 12.524 227.866 12.3309C227.118 12.1285 226.894 11.1466 226.057 11.1387C225.549 11.7893 224.826 11.3842 224.001 11.6154C223.911 12.5092 223.414 13.2057 222.925 13.856ZM269.667 206.525C269.531 206.665 269.385 206.805 269.24 206.945C269.101 206.836 268.961 206.709 269.045 206.791C267.704 207.01 266.605 207.456 265.91 208.569C265.937 209.996 266.212 211.354 267.448 212.314C269.398 212.235 269.398 212.235 271.328 211.29C272.663 209.847 271.268 208.65 271.391 207.452C270.877 206.878 270.259 206.739 269.667 206.525ZM238.237 201.241C239.325 200.629 240.442 200.164 241.1 199.088C241.335 198.717 241.739 198.647 242.059 198.515C243.277 197.993 244.204 197.116 244.964 196.085C245.661 195.138 246.415 194.3 247.421 193.837C247.466 193.026 246.444 192.993 246.556 192.329C247.005 191.495 247.7 191.1 248.49 191.035C248.565 190.371 248.103 190.248 247.86 189.948C247.639 190.659 246.888 190.171 246.688 190.395C246.008 191.94 244.916 192.929 244.251 194.245C243.811 195.106 242.725 195.837 241.772 196.162C240.691 196.535 239.926 197.207 239.134 197.907C238.843 198.159 238.645 198.521 238.129 198.509C238.17 199.511 238.199 200.367 238.237 201.241ZM277.668 47.9398C278.465 48.4452 279.071 49.0082 279.287 49.3829C280.28 50.0791 281.244 49.8921 282.182 49.8344C282.5 49.4807 282.818 49.1362 283.108 48.8105C283.252 47.0417 282.332 45.6451 281.625 44.2827C280.656 44.0464 279.928 43.2088 278.662 43.5744C277.274 45.1655 277.274 45.1655 277.668 47.9398ZM128.07 134.48C127.859 134.556 127.566 134.661 127.236 134.785C127.635 135.065 127.856 135.072 128.083 134.83C128.072 134.673 128.07 134.489 128.07 134.48ZM126.366 135.91C126.135 135.038 125.394 134.67 124.926 134.078C125.265 133.236 125.265 133.236 125.259 132.003C125.587 131.704 125.621 132.201 125.998 132.242C127.203 131.445 128.574 130.636 130.169 130.165C130.82 130.709 131.679 130.257 132.546 130.393C132.583 131.12 133.294 131.295 133.784 131.473C134.422 131.704 134.802 131.948 134.793 132.712C134.583 133.598 133.703 133.83 133.065 134.335C130.795 134.612 128.596 135.357 126.366 135.91ZM328.862 252.149C328.142 251.293 328.776 250.494 328.776 249.721C327.505 250.39 326.362 250.993 325.277 251.081C324.668 251.668 324.186 252.125 323.732 252.563C323.98 253.26 323.545 253.808 323.283 254.225C322.39 255.663 322.543 256.858 323.753 257.974C324.693 258.027 325.682 257.683 326.575 258.418C327.424 257.155 328.21 255.986 329.014 254.761C327.98 253.808 329.431 252.814 328.862 252.149ZM107.411 233.184C107.177 232.855 106.963 232.665 106.886 232.426C106.81 232.197 106.852 231.93 106.84 231.663C108.136 231.555 109.197 231.045 110.258 230.544C110.419 230.137 110.58 229.73 110.749 229.286C110.376 228.867 110.02 228.402 109.354 228.134C108.913 228.913 107.918 228.806 107.338 229.559C106.377 229.23 105.567 229.949 104.62 230.062C103.6 230.185 103.081 231.324 101.942 231.522C102.465 232.114 101.353 232.247 101.812 232.941C102.794 232.717 103.497 233.665 104.483 233.791C104.498 234.978 105.801 234.713 106.188 235.463C105.731 235.763 105.831 236.378 105.486 236.751C105.773 236.904 105.88 237.326 106.275 237.256C107.404 237.058 108.156 236.128 109.266 235.829C110.376 235.521 111.409 234.937 112.534 234.445C112.152 234.063 111.798 233.699 111.546 233.445C111.169 233.403 111.004 233.498 110.769 233.832C109.694 233.21 108.541 233.041 107.411 233.184ZM217.08 306.457C217.024 306.375 216.903 306.229 216.678 305.965C217.472 305.421 216.907 304.388 217.609 303.836C217.376 303.6 217.245 303.464 217.115 303.327C217.525 302.982 217.527 302.448 217.78 302.03C217.206 301.78 217.566 301.168 217.342 300.858C216.602 300.573 215.933 300.093 215.054 300.472C214.54 301.326 213.673 301.833 212.675 302.242C212.898 303.214 212.343 303.681 211.738 303.892C211.034 304.968 210.892 306.111 210.472 307.174C210.595 307.449 211.011 307.573 210.888 308.034C210.807 308.146 210.689 308.294 210.662 308.332C210.729 309.279 211.706 309.441 212.002 310.312C214.333 309.712 215.814 308.212 217.08 306.457ZM298.769 286.826C298.998 286.022 299.302 285.264 299.939 284.694C299.844 282.266 299.844 282.266 300.559 280.536C300.328 280.465 300.088 280.395 299.856 280.315C299.545 279.711 299.38 279.005 298.776 278.524C298.187 278.55 297.571 278.576 296.954 278.593C296.948 278.814 296.968 278.943 296.923 279.063C296.862 279.266 296.65 279.269 296.495 279.363C295.206 280.115 293.787 280.713 293.246 282.33C293.14 282.654 292.791 282.75 292.461 282.809C292.397 282.819 292.362 283.022 292.318 283.133C292.203 283.549 292.847 283.55 292.751 283.965C292.558 284.676 291.875 285.228 291.896 286.222C292.121 286.55 292.759 286.744 292.761 286.938C292.777 288.244 293.737 288.435 294.708 288.782C295.13 287.957 295.945 288.416 296.79 288.213C297.249 287.443 298.047 287.194 298.769 286.826ZM178.186 22.4594C178.226 22.735 178.276 23.0565 178.336 23.4146C179.228 23.3299 179.385 24.147 179.778 24.6298C180.232 24.891 180.222 24.1273 180.241 24.1363C180.76 24.4058 180.836 24.6626 181.176 24.5571C181.742 24.2371 182.382 23.8702 183.031 23.5123C183.696 21.5162 183.424 19.6145 182.471 17.7582C182.735 17.5433 182.935 17.3015 182.672 16.8722C182 16.8991 181.283 16.9264 180.547 16.9541C180.202 17.3909 179.614 17.4719 179.185 17.7534C178.593 17.4663 178.037 17.1971 177.565 16.973C177.217 17.1246 177.167 17.4933 176.78 17.443C176.437 17.2816 176.048 17.0932 175.733 16.9499C175.475 16.1801 175.246 15.4651 174.997 14.6952C173.873 14.5988 173.035 15.3547 172 15.7542C172.026 16.3153 172.042 16.9041 172.067 17.3915C171.76 17.8739 171.219 18.0555 171.27 18.4046C171.727 18.9419 172.064 19.3426 172.344 19.6704C173.501 19.4626 174.347 20.1331 175.287 20.2226C175.432 20.0459 175.558 19.8786 175.974 19.9655C176.392 21.0738 177.466 21.5757 178.186 22.4594ZM183.221 341.604C184.733 341.097 185.609 339.797 186.469 338.682C187.303 337.604 187.615 336.091 188.058 334.733C188.173 334.372 188.258 333.801 187.794 333.448C187.459 333.194 187.694 332.814 187.579 332.466C187.123 332.048 186.629 331.594 186.154 331.158C184.494 330.875 183.387 332.132 182.059 332.645C181.981 333.033 182.207 333.38 181.925 333.687C181.622 333.727 181.31 333.777 180.887 333.838C181.163 335.298 179.884 336.068 179.452 337.555C179.664 338.326 179.437 339.295 178.757 340.15C179.698 340.341 179.72 341.325 180.206 341.908C180.599 341.747 180.779 342.113 181.039 342.266C181.22 342.089 181.345 341.783 181.659 341.862C181.835 341.906 181.984 342.042 182.271 342.204C182.412 341.696 182.936 341.699 183.221 341.604ZM214.669 332.89C214.645 331.731 214.807 329.934 213.426 328.47C213.242 328.454 212.919 328.43 212.625 328.416C212.52 328.141 212.434 327.903 212.33 327.646C211.843 327.735 211.393 327.768 211.074 327.312C210.213 328.363 208.699 327.995 207.827 328.89C207.52 329.391 207.287 329.918 207.396 330.524C206.906 331.064 206.416 331.613 205.926 332.153C205.813 332.707 206.19 333.374 205.569 333.814C205.709 333.95 205.84 334.087 206.007 334.269C204.909 336.169 206.378 337.412 207.187 338.828C207.959 338.708 208.535 339.115 209.11 339.503C209.138 339.521 209.202 339.484 209.248 339.474C209.627 338.917 209.988 339.078 210.306 339.461C212.775 338.233 213.879 335.974 214.669 332.89ZM64.8158 202.758C65.8584 201.493 66.4715 199.746 66.5325 198.006C66.1804 197.808 65.8693 197.959 65.7275 197.657C65.8428 197.306 66.39 197.649 66.4325 197.363C65.5581 195.147 63.6012 194.683 61.7251 194.054C61.6524 194.128 61.516 194.259 61.3889 194.398C60.9954 194.578 60.8429 194.157 60.5657 194.068C59.8852 194.84 58.9392 194.263 58.1611 194.595C57.7799 195.023 57.455 195.533 56.7175 195.432C56.5423 195.407 56.3082 195.815 56.0809 196.038C56.7028 196.463 56.6063 196.842 56.1602 197.225C56.9759 197.693 56.3563 198.188 56.1879 198.706C56.4875 199.116 56.7873 199.536 56.6014 200.127C56.4116 200.406 56.0364 200.576 55.9679 200.982C56.6187 201.508 56.267 202.082 56.0713 202.628C56.4373 203.194 57.2912 203.036 57.5394 203.742C57.3576 203.928 57.1482 204.105 57.2451 204.5C57.6124 205.167 58.5872 205.109 59.0857 205.968C61.3606 205.369 63.4288 204.441 64.8158 202.758ZM17.3065 312.786C17.1723 311.619 17.6376 310.564 17.8825 309.539C17.0254 308.712 17.0404 306.963 15.3015 307.004C15.2287 307.069 15.1117 307.282 14.9558 307.321C13.8725 307.537 13.189 308.07 12.4926 309.054C11.6516 310.243 11.55 311.68 10.7896 312.692C9.40811 313.345 9.3864 315.287 7.99926 315.488C7.73104 316.117 7.53425 316.571 7.33735 317.015C7.13537 317.054 6.91315 316.947 6.6975 317.363C7.23615 318.489 5.96279 319.692 6.57725 320.991C7.22954 321.636 7.84536 322.31 8.99959 322.617C9.72525 322.507 10.8062 322.843 11.7175 322.123C12.8997 322.458 13.3214 320.861 14.3185 321.115C14.8017 320.014 15.1663 318.997 15.4393 318.009C15.7383 316.901 15.4185 315.616 15.3657 314.338C16.5265 314.434 16.3609 312.972 17.3065 312.786ZM315.756 69.035C314.778 71.0627 312.879 72.2921 311.55 74.1769C311.516 74.3614 311.732 74.7084 311.469 75.0246C311.175 75.0651 310.863 75.115 310.569 75.1555C309.84 76.4715 308.674 77.434 308.12 78.7846C307.228 78.8786 306.633 79.0701 306.591 80.1842C306.563 80.8655 306.01 81.5259 305.696 82.2016C304.693 82.1866 304.932 83.6285 303.994 83.6954C303.811 84.5076 302.903 84.7858 302.757 85.6251C302.534 85.4346 302.395 85.3076 302.246 85.1806C301.93 85.7091 301.931 86.4729 301.019 86.4659C300.633 86.4616 300.213 86.7521 299.857 86.9867C297.675 88.4128 295.419 89.7387 293.444 91.4936C292.27 92.5298 291.336 93.6643 291.007 95.3065C291.68 95.4546 292.264 95.0055 292.899 95.0252C292.576 94.2561 293.76 94.6739 293.686 93.9478C293.633 93.3502 294.672 93.3188 294.705 93.0055C294.761 92.3422 295.361 92.4727 295.532 92.1393C295.766 91.7038 295.879 91.2054 296.048 90.7432C296.618 90.6808 296.987 89.9952 297.634 90.2264C298.218 89.8509 298.437 89.0015 299.228 88.918C299.537 89.3282 299.523 89.7057 299.344 90.0761C299.155 90.465 298.728 90.8661 298.751 91.2339C298.841 92.5856 297.903 93.3796 297.205 94.235C296.562 95.0345 296.014 96.0998 294.941 96.3801C294.344 96.5256 294.766 97.1277 294.243 97.2815C294.051 97.3391 293.689 97.1136 293.472 97.3924C293.187 99.6783 292.151 101.458 290.467 102.924C290.723 103.556 289.883 104.036 290.094 104.714C292.299 103.702 294.008 102.006 295.736 100.355C296.245 99.8517 297.172 99.6836 297.302 99.0102C297.423 98.3645 298.086 98.4482 298.182 97.9776C298.312 97.3318 298.98 97.0934 299.186 96.5662C299.827 94.9108 301.714 94.1326 302.003 92.2515C302.029 92.1132 302.423 92.0346 302.716 91.9021C302.693 91.4791 302.678 91.0283 302.663 90.6051C303.614 90.0871 303.65 90.0222 303.827 89.431C304.154 88.3593 304.453 87.2604 304.919 86.2607C305.286 85.4738 305.441 84.5608 306.086 83.9085C306.458 83.5265 306.784 83.0991 307.166 82.7262C307.548 82.3717 307.485 81.7007 308.2 81.5077C308.558 81.4112 308.705 80.6639 309.013 80.2735C309.457 79.7342 309.873 79.1492 310.387 79.0415C311.224 77.4849 311.896 76.0868 313.201 75.1594C313.385 74.4669 313.559 73.6732 314.172 73.3619C314.949 72.9656 314.215 71.668 315.328 71.608C315.981 70.1182 317.071 68.9357 318.077 67.6991C318.177 67.5874 318.072 67.3127 318.07 67.1102C316.931 67.2901 316.839 68.7822 315.756 69.035ZM95.2245 255.111C95.8247 253.796 96.3082 252.723 96.7471 251.76C95.9055 249.957 97.2069 248.791 97.8072 247.486C97.0122 246.474 95.836 245.881 94.8671 244.936C95.6729 244.613 95.9213 243.874 96.5522 243.544C97.2014 243.205 97.8316 242.819 98.4712 242.453C99.7847 242.988 99.8952 242.987 100.852 242.193C100.488 241.792 100.271 241.362 100.567 240.816C100.777 240.657 101.276 240.844 101.184 240.09C100.913 239.744 100.228 239.458 100.283 238.647C99.0244 239.593 98.28 240.412 97.9038 241.236C97.4717 241.269 97.0303 241.302 96.5247 241.345C96.0714 241.894 95.6 242.461 95.2554 242.87C93.8804 243.311 92.8679 244.032 91.8553 244.744C89.5947 244.275 89.1011 244.548 87.46 247.247C86.9744 247.419 86.2829 247.317 86.0335 247.983C85.8108 248.575 84.6594 247.751 84.8591 249.001C85.7046 248.907 86.3809 249.267 86.8143 250.071C86.5873 250.313 86.3603 250.565 86.1334 250.816C87.0622 252.231 86.7258 254.03 87.4805 255.502C86.8996 256.89 86.9489 257.147 88.1856 257.426C88.6285 257.521 88.88 257.758 89.1409 258.021C89.4299 258.312 89.7503 258.179 90.2017 258.21C90.7634 257.504 91.3702 256.723 91.8776 256.082C92.6595 256.054 93.1837 256.029 93.6897 256.013C94.1424 255.419 94.9338 255.409 95.2245 255.111ZM322.538 61.6521C323.212 61.0455 324.241 60.9314 324.586 59.8319C324.834 59.0649 325.768 58.6483 325.968 57.7623C326.134 57.0332 327.079 56.7729 327.116 56.0454C327.166 54.9128 328.382 55.0448 328.741 54.2949C328.849 54.0635 329.012 53.8958 329.101 53.6278C329.376 52.8052 330.154 52.4734 330.881 52.4459C331.598 52.4277 332.202 52.1349 332.687 51.9171C333.011 52.0511 333.051 52.3267 333.289 52.2225C333.319 51.6791 333.74 51.4714 334.114 51.2182C334.012 51.1183 333.909 51.0275 333.816 50.9367C333.858 50.6048 334.389 50.3681 334.034 49.9768C333.828 49.7125 333.271 50.0784 333.299 49.3602C333.577 48.7217 334.383 48.4448 334.827 47.887C335.244 47.3664 335.706 46.8085 336.113 46.2604C336.512 45.7216 337.459 45.6638 337.91 44.9863C337.898 44.7195 337.885 44.4528 337.873 44.2045C338.636 43.3943 339.307 42.5576 340.425 42.1755C340.873 42.0134 341.616 41.7925 341.756 41.1649C341.903 40.482 342.93 40.9017 342.901 40.0186C342.874 39.3195 343.972 39.5635 344.09 38.7061C344.149 38.2544 344.899 37.8953 345.117 37.6901C345.178 36.6494 344.948 35.9344 345.373 35.3033C344.999 34.8571 344.463 34.7165 344.075 34.5741C343.334 34.9423 342.609 35.1078 342.037 35.6948C341.51 36.2352 340.647 36.4392 339.952 36.7884C339.966 37.1196 339.978 37.3863 339.981 37.6071C339.848 38.0045 339.31 37.7076 339.198 38.2612C339.163 38.4457 339.398 38.8016 339.079 39.0817C338.84 39.1215 338.545 39.0516 338.424 39.7065C338.415 39.725 338.641 40.0903 338.303 40.3522C338.001 40.4297 337.649 40.2316 337.349 40.5575C337.613 42.5328 335.363 42.9475 334.914 44.5176C334.197 44.5726 333.773 45.2589 333.396 45.3465C331.839 45.2003 330.9 44.4574 330.097 43.5012C329.52 43.7293 329.083 43.3758 328.638 43.1513C328.157 42.8996 327.838 43.8884 327.352 43.2778C326.941 43.5591 326.523 43.96 326.156 43.3572C324.19 44.3666 323.155 46.2293 322.203 48.1094C322.728 48.1581 323.084 48.6414 323.512 49.0226C325.849 48.9749 326.424 49.299 329.046 52.202C328.318 52.8461 328.223 54.0713 327.123 54.4072C327.167 55.7134 325.624 55.9628 325.38 57.1071C325.32 57.3931 325.001 57.6824 324.718 57.8516C323.348 58.6694 322.869 60.1203 322.131 61.4179C322.334 61.535 322.511 61.6709 322.538 61.6521ZM227.402 294.4C227.389 294.097 226.332 294.147 226.297 293.549C226.26 292.795 225.583 293.181 225.321 292.807C225.04 292.414 224.712 291.912 224.058 291.893C223.64 293.049 223.24 294.213 222.581 295.225C221.661 295.218 220.799 295.449 220.001 294.981C219.91 295.783 220.267 296.367 220.357 296.955C220.438 297.497 221.187 297.8 220.745 298.542C220.448 299.043 221.007 299.607 221.06 300.14C221.382 300.136 221.593 300.087 221.724 300.297C221.891 301.142 221.599 302.075 222.152 302.841C222.043 302.971 221.962 303.073 221.862 303.194C222.593 303.498 222.578 304.52 223.225 304.778C223.984 305.073 224.239 305.631 224.349 306.292C224.418 306.669 224.595 306.869 224.819 307.114C225.416 307.779 225.977 308.462 226.565 309.145C227.786 308.9 228.007 310.342 228.931 310.615C229.106 310.668 229.255 310.795 229.457 310.774C229.878 310.576 229.981 310.004 230.468 309.924C230.881 309.79 230.935 310.443 231.374 310.272C231.699 309.743 232.402 309.992 232.858 309.655C232.733 309.243 233.025 309.036 233.215 308.804C232.581 308.14 232.646 307.44 233.034 306.818C232.605 305.637 232.213 304.509 231.437 303.544C231.4 302.78 231.372 301.971 231.333 301.079C230.411 300.934 230.756 299.807 230.097 299.373C229.679 299.093 228.883 297.98 228.839 297.438C228.765 296.656 228.021 296.049 228.361 295.263C228.098 294.852 227.449 295.136 227.402 294.4ZM33.3114 247.409C33.4526 246.929 33.6037 246.504 33.1309 246.225C32.6242 246.185 32.501 246.637 32.1915 246.908C32.5613 247.042 32.6873 247.546 33.3114 247.409ZM33.3425 244.749C33.2095 245.892 34.0168 245.68 34.3075 246.118C35.5148 245.514 36.4051 244.591 37.0608 243.304C37.9147 243.146 38.7439 242.482 39.2698 241.85C39.8228 241.18 40.6485 240.977 41.1186 240.299C41.652 239.538 42.5583 239.149 42.9799 238.279C42.8867 238.188 42.7844 238.097 42.5702 237.897C44.0467 237.483 44.8374 235.955 46.4196 235.898C46.4628 235.667 46.5065 235.483 46.5501 235.289C46.8778 235 47.2934 235.123 47.6707 235.119C48.048 235.114 48.496 234.878 48.7946 235.206C49.1489 235.579 49.7193 235.562 49.8551 235.376C50.2447 234.893 50.4696 235.212 50.8777 235.465C51.7394 234.46 53.3169 234.763 54.1567 233.473C54.182 234.761 52.8253 235.192 52.8949 236.342C51.9147 236.704 51.3548 237.557 50.7477 238.31C49.9774 239.268 49.0079 239.749 47.98 239.974C47.3444 239.927 47.208 239.33 46.7646 239.198C45.4013 239.831 43.6905 239.908 42.9769 241.711C42.5086 241.8 42.004 241.926 41.5684 242.419C41.1874 242.857 40.1771 243.017 40.1266 243.394C40.0178 244.261 38.9261 243.805 38.9536 244.532C38.9795 245.13 38.7836 245.657 38.4484 246.075C38.7 246.33 38.8398 246.466 38.989 246.621C38.3874 247.088 38.085 247.93 37.2043 248.152C36.8706 248.69 36.834 249.445 36.325 249.958C36.3519 250.629 36.3787 251.301 36.4055 251.972C36.0144 252.345 35.1311 252.356 35.2876 253.1C35.464 253.953 34.3946 253.81 34.3949 254.565C34.4011 255.062 33.9379 255.556 33.6149 256.222C33.2771 256.438 32.5796 256.594 32.618 257.449C31.7765 257.865 30.9444 258.299 30.3284 259.079C29.6851 259.888 28.716 260.397 28.0529 261.096C27.0174 262.185 25.3013 262.575 24.8807 264.264C24.1285 264.458 23.7595 265.125 23.2504 265.629C22.9565 265.678 22.6443 265.728 22.2585 265.788C22.2534 266.12 22.2391 266.442 22.2341 266.782C21.2536 267.117 20.5113 268.102 19.2375 267.805C19.0334 267.669 19.1309 267.373 19.091 267.125C19.0316 266.795 19.2877 266.663 19.4686 266.412C19.2177 266.222 18.9667 266.023 18.6415 265.769C18.6274 265.383 18.595 264.997 18.5993 264.61C18.604 264.251 18.0694 264.184 18.192 263.686C18.9102 262.977 19.0881 261.751 20.0935 261.195C19.7713 260.454 20.4101 260.023 20.4292 259.341C21.6718 259.353 21.9855 257.951 22.9558 257.534C24.0636 257.069 24.4986 255.793 25.6708 255.337C25.9771 254.808 25.9212 254.018 26.7814 253.63C27.2574 253.421 27.0985 252.494 27.7923 252.043C28.3127 251.705 28.614 250.781 28.734 250.071C28.9054 249.066 29.3212 248.463 30.1227 247.79C31.1516 246.912 32.292 246.115 33.3425 244.749ZM174.634 245.291C173.445 245.904 172.856 247.31 171.48 247.714C170.699 247.061 169.654 247.369 168.664 246.967C167.547 248.177 165.766 247.739 164.359 248.631C164.826 249.15 163.705 249.275 164.174 249.986C164.614 249.861 165.104 250.058 165.419 250.238C167.067 249.499 168.577 248.818 170.114 248.127C170.375 248.354 170.617 248.553 170.849 248.753C170.554 249.428 170.461 250.083 169.878 250.587C169.51 250.619 169.069 250.652 168.628 250.695C168.266 251.224 167.746 251.552 166.905 252.023C168.189 252.421 168.916 253.148 170.001 253.061C170.58 253.017 170.944 253.399 171.026 254.097C170.281 254.07 170.042 254.837 169.42 255.185C168.484 254.644 167.555 254.665 166.69 255.394C167.383 255.625 166.895 256.367 167.259 256.758C167.734 257.194 168.325 257.389 168.871 257.612C169.071 257.407 169.207 257.268 169.171 257.305C169.755 256.902 169.88 257.388 170.176 257.467C170.791 256.613 171.934 257.463 172.559 256.655C172.877 257.102 173.477 257.269 173.571 258.152C173.262 258.441 172.521 258.8 172.462 259.261C172.361 259.998 171.32 259.882 171.486 260.681C171.219 260.693 170.962 260.706 170.713 260.709C170.112 261.223 169.745 261.982 168.938 262.204C169.555 262.997 170.486 263.105 171.314 263.085C172.225 263.064 172.54 264.027 173.341 264.035C173.251 264.892 174.762 265.03 174.086 266.207C173.672 266.194 173.32 266.723 172.935 266.884C172.024 267.622 172.46 268.602 172.369 269.477C171.522 269.46 171.671 270.314 171.252 270.642C171.392 270.778 171.522 270.923 171.709 271.114C171.167 271.977 171.308 272.951 171.422 273.971C172.286 274.558 173.203 275.081 174.153 275.216C174.48 274.853 174.743 274.564 174.997 274.285C175.238 274.448 175.341 274.594 175.424 274.574C176.893 274.298 178.105 273.307 179.399 273.006C179.731 273.085 179.763 273.416 179.99 273.219C180.528 272.826 181.235 272.698 181.661 272.122C181.034 271.301 181.332 270.11 180.651 269.374C179.929 269.033 179.118 268.979 178.694 268.192C178.98 267.517 179.275 266.832 179.597 266.064C179.993 266.05 180.434 266.036 180.885 266.011C180.819 265.939 180.763 265.857 180.698 265.775C181.072 265.512 181.437 265.259 181.756 265.043C181.495 264.743 181.327 264.552 180.944 264.115C180.618 265.26 179.634 264.601 179.04 264.949C178.989 265.244 178.963 265.428 178.929 265.603C177.614 265.73 177.614 265.73 177.418 265.53C177.406 265.254 177.393 264.988 177.39 264.739C177.632 264.184 178.229 264.149 178.593 263.804C178.93 263.478 179.349 263.159 179.51 262.752C179.715 262.253 179.968 261.909 180.463 261.756C180.958 261.593 180.589 260.788 181.178 260.734C181.913 260.652 181.378 259.802 181.909 259.649C181.629 259.293 181.213 259.142 181.125 258.71C180.96 258.041 182.061 258.515 181.887 257.827C182.635 257.339 183.169 256.623 183.778 255.99C183.905 255.86 184.098 255.793 184.272 255.735C185.042 255.505 185.382 254.746 186.012 254.305C186.741 253.799 187.293 253.029 187.567 252.096C187.492 252.014 187.352 251.877 187.231 251.75C187.031 251.219 187.838 250.997 187.565 250.467C187.307 249.725 186.949 249.057 186.243 248.523C186.617 246.043 185.644 244.049 183.829 242.396C181.819 244.317 180.602 244.922 178.597 244.956C178.727 244.329 178.125 244.014 177.998 243.454C177.379 243.296 176.779 243.12 176.08 242.42C176.339 243.963 174.684 244.158 174.634 245.291ZM116.347 109.659C115.537 109.66 115.225 110.409 114.432 110.355C113.831 110.086 113.155 109.791 112.461 109.487C112.376 109.285 112.281 109.047 112.168 108.828C112.026 108.572 111.612 108.522 111.618 108.273C112.195 107.346 111.903 106.816 111.023 106.348C110.549 106.676 110.272 107.388 109.629 107.452C109.126 108.415 109.131 109.547 108.443 110.457C109.053 110.689 108.866 111.188 108.853 111.649C107.967 112.212 106.903 112.492 106.114 113.386C106.13 113.919 106.156 114.508 106.168 114.765C104.98 116.188 104.381 117.558 104.134 119.153C104.57 119.47 104.557 119.893 104.121 120.304C104.713 121.281 106.103 121.3 106.549 122.399C106.232 123.581 105.015 124.148 104.911 125.383C104.376 125.279 104.232 125.502 104.293 125.952C104.414 126.079 104.544 126.216 104.684 126.361C104.566 126.51 104.449 126.65 104.331 126.798C104.526 126.989 104.722 127.171 104.992 127.416C105.498 127.4 106.077 127.375 106.694 127.358C106.708 127.744 106.721 128.066 106.737 128.618C106.536 128.749 106.198 128.956 106.007 129.078C106.023 129.648 106.037 129.989 106.05 130.302C105.484 131.45 104.161 131.586 103.453 132.368C103.112 133.099 103.752 133.515 103.842 134.102C102.66 135.222 101.868 136.63 100.91 138.078C99.7814 138.313 98.5542 137.325 97.2735 137.939C97.2754 138.823 96.3126 139.111 96.0903 139.73C96.0318 140.201 96.3549 140.279 96.4112 140.371C96.1773 141.533 95.8033 142.532 94.3985 142.798C94.0086 141.79 92.4096 141.976 92.0982 140.627C92.4001 140.485 92.629 140.39 92.9858 140.22C92.0704 139.873 92.7225 139.036 92.2449 138.38C91.2341 137.767 90.6215 136.615 89.9895 135.38C89.9652 134.911 89.9486 134.322 89.9111 133.531C90.3197 133.084 90.8009 132.563 91.2821 132.042C91.1427 131.933 90.9565 131.76 90.8261 131.633C90.1956 132 89.6109 132.339 89.0352 132.668C89.0287 132.88 89.0864 133.082 88.8951 133.24C88.7494 133.362 88.6133 133.52 88.681 133.777C89.6213 134.639 88.9558 135.881 89.3372 136.944C89.652 137.832 89.8024 138.815 90.2641 139.675C90.7352 140.552 91.343 141.318 92.1238 141.934C91.9785 142.092 91.8878 142.194 91.7969 142.287C91.9467 142.488 92.2608 142.585 92.2021 143.046C91.9401 143.436 91.5775 143.873 91.0748 144.155C90.8182 144.242 90.5119 144.034 90.3315 144.321C90.3573 144.919 90.3739 145.508 90.3995 146.078C90.8809 146.311 91.4746 145.945 91.983 146.859C91.8229 145.839 92.351 145.382 92.3975 144.682C92.4206 144.323 91.9958 143.472 92.8867 143.332C93.5503 144.143 94.1197 143.317 94.7622 143.18C95.1539 143.589 95.8009 143.811 95.8461 144.482C95.9006 145.163 96.2287 145.637 96.7847 145.943C97.2851 146.222 97.1852 147.061 97.8854 147.126C98.3472 147.258 98.6456 146.831 99.0221 146.762C99.1524 146.88 99.2457 146.98 99.3014 147.025C100.997 145.761 103.137 146.084 104.828 145.217C105.042 145.416 105.136 145.507 105.21 145.58C105.694 145.289 106.16 144.997 106.635 144.706C106.876 144.841 107.08 144.967 107.256 145.067C108.488 144.269 109.867 144.123 111.211 144.189C111.416 143.652 111.568 143.246 111.746 142.783C110.988 141.808 109.613 142.175 108.875 141.337C108.565 141.581 108.365 141.73 108.191 141.871C107.472 141.723 106.986 141.122 106.258 141.103C106.06 141.391 105.851 141.661 105.417 141.491C105.175 141.319 105.235 140.95 105.038 140.677C104.757 140.285 104.236 140.567 104.037 140.119C104.025 139.889 104.013 139.622 103.987 139.052C103.811 138.962 103.45 138.782 103.228 138.666C103.003 136.846 103.057 135.318 105.11 134.676C105.746 134.723 106.571 134.427 107.284 134.842C107.851 134.54 108.4 134.248 108.829 134.012C109.284 132.838 109.398 131.686 109.238 130.621C110.678 129.544 111.219 129.372 112.559 129.079C113.211 128.942 113.833 128.621 114.427 128.301C114.774 128.112 114.792 127.339 114.531 127.048C113.953 127.166 113.478 126.767 112.961 126.635C112.743 126.813 112.542 126.972 112.205 127.243C111.939 126.565 111.38 126.802 110.882 126.716C109.868 126.536 109.049 127.264 108.082 127.248C107.889 127.251 107.687 127.308 107.574 127.135C107.561 126.776 107.548 126.464 107.535 126.215C107.988 125.602 108.602 125.429 109.179 125.164C109.328 125.291 109.476 125.418 109.634 125.545C110.012 124.795 110.847 125.355 111.494 124.886C111.784 123.769 112.165 122.586 112.842 121.51C113.537 120.397 114.689 119.831 115.059 119.274C116.163 118.46 116.686 119.106 117.295 119.209C117.836 118.347 118.802 118.997 119.45 118.566C118.017 117.304 118.017 117.304 117.618 116.371C117.802 115.595 118.591 116.128 118.936 115.728C119.335 115.272 119.725 114.844 120.566 115.1C120.141 115.686 120.951 115.712 121.04 116.199C121.128 116.658 120.718 116.967 120.788 117.389C121.285 117.401 121.727 117.405 122.187 117.409C122.247 117.794 122.297 118.116 122.347 118.41C122.703 118.93 123.338 118.922 123.775 119.294C124.134 118.599 124.572 118.989 125.008 119.251C125.108 118.476 125.498 118.03 126.389 117.89C125.755 117.189 126.652 116.828 126.598 116.194C126.052 115.943 125.506 115.683 124.96 115.432C124.947 115.147 124.934 114.88 124.935 114.908C124.695 114.129 124.216 114.088 123.8 113.937C123.541 112.367 122.237 111.15 122.353 109.354C121.148 108.716 120.37 107.547 119.262 106.512C120.187 105.433 121.567 105.397 122.495 104.566C122.232 104.137 121.595 103.915 121.586 103.262C120.903 103.05 120.229 102.874 119.706 102.273C119.805 102.143 119.905 102.004 120.004 101.855C119.78 101.582 119.619 101.207 119.104 101.259C118.749 101.567 118.834 102.45 118.327 102.419C117.544 102.383 117.924 103.28 117.345 103.389C116.905 103.468 116.513 103.813 115.782 104.227C116.826 104.499 116.476 105.24 116.712 105.706C117.156 105.885 117.553 106.036 117.849 106.162C118.209 106.175 118.203 105.697 118.85 105.983C119.239 106.144 118.668 106.86 119.033 107.362C119.389 107.845 118.724 108.396 118.593 108.932C117.648 109.155 117.62 109.174 116.691 109.949C116.449 109.75 116.31 109.623 116.347 109.659ZM230.807 175.261C231.156 175.174 231.33 175.135 231.514 175.096C231.389 174.711 231.157 174.539 230.777 174.332C230.791 174.709 230.803 174.884 230.807 175.261ZM130.16 217.64C130.167 216.738 129.835 216.742 129.342 217.061C129.382 217.291 129.284 217.504 129.562 217.666C129.681 217.665 129.856 217.653 130.16 217.64ZM235.929 159.432C236.299 160.348 236.544 160.814 237.344 160.74C237.397 159.856 236.943 159.641 235.929 159.432ZM235.505 157.201C235.778 157.667 235.515 158.039 235.804 158.293C236.71 158.668 236.292 157.606 236.713 157.444C236.888 157.377 236.877 157.258 236.655 157.15C236.379 157.163 236.075 157.176 235.505 157.201ZM231.579 178.868C232.562 178.727 232.871 178.365 232.87 177.591C231.995 177.51 231.799 178.001 231.579 178.868ZM149.521 217.508C150.747 217.659 150.747 217.659 151.231 216.631C150.416 216.209 149.951 216.564 149.521 217.508ZM137.59 203.973C137.241 204.023 137.006 204.33 136.908 204.589C136.729 205.023 136.052 204.627 136.05 205.216C136.065 205.667 136.408 205.828 136.788 206.044C137.045 205.24 137.799 205.194 138.423 205.085C138.451 204.358 138.053 204.169 137.59 203.973ZM228.49 157.068C227.909 157.692 227.483 158.158 227.092 158.577C227.204 158.723 227.382 158.923 227.541 159.123C228.13 158.398 228.995 158.378 229.699 158.02C229.63 157.689 229.801 157.337 229.512 157.028C229.153 157.042 228.776 157.056 228.49 157.068ZM120.017 164.601C120.99 163.733 122.342 164.333 123.287 163.364C122.84 162.946 123.63 162.863 123.523 162.404C121.978 161.052 121.011 163.199 119.6 162.941C119.837 163.518 119.462 163.688 119.327 163.956C119.523 164.138 119.719 164.32 120.017 164.601ZM142.733 153.08C141.682 153.655 141.529 154.733 141.006 155.596C140.749 155.608 140.491 155.621 140.234 155.633C140.4 156.432 139.174 156.281 139.341 157.089C139.518 157.243 139.722 157.416 139.992 157.661C140.191 157.364 140.399 157.039 140.543 156.816C141.242 156.789 141.766 156.737 142.291 156.758C142.89 156.787 143.229 155.991 144.22 156.448C144.378 156.621 144.77 157.058 145.19 157.513C145.656 157.249 146.077 157.014 146.497 156.779C146.317 156.367 146.729 156.214 146.791 155.993C146.239 155.245 146.327 154.213 145.564 153.588C144.963 153.301 144.315 153.005 143.667 152.7C143.434 153.191 142.99 153.049 142.733 153.08ZM139.172 163.45C138.895 164.116 138.19 164.383 138.05 164.946C138.062 165.204 138.064 165.333 138.075 165.47C138.094 166.289 138.994 166.094 139.369 166.669C139.997 167.618 141.456 167.25 142.35 168.104C143.114 168.122 143.905 168.048 144.728 168.378C145.598 168.735 146.388 167.916 147.242 167.804C147.286 167.601 147.283 167.38 147.383 167.231C147.527 167.018 147.746 166.849 147.65 166.519C147.406 166.136 146.901 166.253 146.584 165.971C146.351 166.453 145.917 166.32 145.375 166.373C145.066 166.009 144.693 165.553 144.328 165.116C144.083 165.349 143.955 165.47 143.655 165.75C143.63 165.208 143.653 164.812 143.593 164.426C143.532 163.994 144.239 163.856 143.901 163.308C142.825 162.632 142.448 161.191 141.168 160.453C140.496 160.388 139.617 160.767 139.029 160.084C138.216 160.582 137.56 161.087 136.827 161.4C136.452 161.552 136.26 161.637 136.386 162.197C137.561 161.97 138.165 163.104 139.172 163.45ZM211.099 168.992C209.146 170.342 207.041 171.289 206.446 173.762C206.774 174.209 206.856 174.834 207.366 175.177C208.704 175.428 208.704 175.428 208.959 176.704C209.802 177.153 210.082 178.199 210.826 178.815C211.231 178.801 211.626 178.787 211.994 178.773C212.414 178.464 212.805 178.128 213.234 177.865C213.783 177.536 213.616 176.737 214.155 176.427C214.722 176.088 214.262 175.404 214.653 175.022C214.92 175.009 215.186 174.997 215.453 174.993C215.544 174.182 216.427 174.098 216.778 173.523C216.766 173.265 216.753 172.989 216.75 172.732C216.257 172.278 215.772 171.814 215.204 171.278C214.726 171.294 214.146 171.319 213.604 171.344C213.347 170.694 213.751 169.87 212.937 169.503C212.372 169.262 211.633 169.731 211.099 168.992ZM213.974 165.643C214.463 166.456 214.857 167.04 215.632 167.187C215.785 166.964 215.967 166.787 216.318 166.856C216.485 167.001 216.681 167.174 216.941 167.41C216.968 168.072 216.995 168.799 217.022 169.479C217.356 169.678 217.525 169.943 217.876 170.058C218.375 170.226 218.587 169.451 219.199 169.857C219.607 170.137 220.341 169.944 220.93 169.9C221.426 169.857 221.74 169.209 222.341 169.459C222.696 169.068 223.087 168.741 223.357 168.277C223.898 167.341 225.044 167.032 225.585 166.078C226.526 166.305 226.811 164.829 227.8 165.176C228.4 164.552 229 163.927 229.536 163.369C229.427 162.772 229.551 162.365 229.713 162.133C229.584 161.362 228.942 160.827 229.337 159.975C229.197 159.866 228.993 159.694 228.769 159.504C227.187 159.505 226.31 159.295 226.212 158.882C226.394 158.696 226.604 158.518 226.488 158.069C225.691 157.702 225.063 156.789 223.913 156.767C222.986 157.735 222.414 159.114 220.983 159.481C221.214 160.27 220.696 160.773 220.519 161.374C220.069 161.407 219.628 161.449 219.214 161.491C219.117 161.806 219.046 162.046 219.002 162.212C218.471 162.393 218.046 162.316 217.71 161.943C217.574 162.073 217.438 162.213 217.301 162.344C216.759 162.433 216.436 161.627 215.523 162.2C214.76 162.955 215.029 164.608 213.974 165.643ZM226.979 189.96C226.766 190.607 226.081 191.002 226.156 191.867C226.198 192.271 225.744 192.792 225.399 193.146C224.935 193.612 224.722 194.204 224.481 194.805C225.169 195.395 225.652 194.238 226.354 194.441L227.917 193.63C228.137 192.836 229.032 192.981 229.458 192.497C229.493 192.303 229.343 192.075 229.7 191.905C229.985 191.892 230.371 191.878 230.61 191.875C232.176 191.202 231.674 189.34 232.813 188.433C233.6 188.81 234.564 188.623 235.254 189.378C235.085 189.795 234.821 190.046 234.315 190.09C233.46 190.165 233.33 190.792 233.413 191.518C232.754 191.821 232.235 192.26 231.875 192.89C231.751 193.315 232.258 193.392 232.319 193.814C231.968 194.472 231.396 195.086 231.185 195.917C231.568 196.308 231.539 196.953 232.086 197.287C231.301 197.775 231.107 197.032 230.644 196.752C230.138 196.777 229.567 196.794 228.988 196.819C228.127 197.106 227.704 197.894 227.067 198.509C226.272 198.206 225.987 198.992 225.513 199.348C225.09 199.344 224.668 199.496 224.386 199.003C224.25 199.124 224.122 199.245 223.968 199.385C223.382 199.632 222.954 198.57 222.226 199.177C221.552 199.738 220.896 200.261 220.52 201.103C220.226 201.153 219.913 201.203 219.601 201.244C219.462 201.871 218.888 202.357 219.182 203.09C219.875 203.302 220.482 203.984 221.386 203.375C221.57 204.146 221.725 204.751 222.184 205.426C222.811 205.492 223.243 206.205 223.847 206.685C223.975 206.564 224.102 206.433 224.238 206.303C224.665 206.555 224.303 207.056 224.565 207.384C224.926 207.592 225.32 207.458 225.707 207.444C226.065 207.43 226.155 207.954 226.521 207.829C226.889 207.806 226.956 207.272 227.557 207.448C227.753 207.703 228.062 208.104 228.361 208.506C228.352 208.515 228.261 208.617 228.171 208.72C228.41 209.444 229.025 209.353 229.578 209.374C230.025 210.528 231.372 210.861 231.84 212.208C231.855 212.659 231.139 212.778 230.989 213.332C230.502 213.356 230.06 213.371 229.628 213.395C229.502 214.354 228.509 214.403 228.149 215.07C226.756 214.775 226.045 216.063 224.964 216.5C224.799 216.566 224.673 216.743 224.554 216.854C223.611 216.48 222.826 216.259 221.821 216.87C220.999 217.359 219.941 217.4 219.159 218.155C218.868 218.426 218.19 218.683 217.813 218.66C216.634 218.592 215.787 219.302 214.707 219.766C214.463 220.128 214.879 221.034 214.154 221.172C213.383 221.32 213.595 222.081 213.129 222.363C213.841 222.648 213.255 223.585 214.031 223.87C212.835 225.348 212.324 227.186 210.988 228.51C211.013 229.043 211.029 229.577 211.055 230.175C209.898 230.373 209.667 231.839 208.502 232.121C208.107 232.917 207.722 233.741 208.147 234.665C207.782 234.872 207.342 234.979 207.298 235.182C207.114 235.948 206.464 236.214 205.948 236.174C204.641 236.099 203.779 237.131 202.613 237.357C202.448 237.396 202.157 237.648 202.198 237.988C202.156 238.311 202.497 238.371 202.601 238.609C202.039 239.251 201.098 239.088 200.433 239.639C200.151 239.873 199.48 239.219 199.008 239.74C198.174 239.309 197.381 239.926 196.561 239.835C196.145 239.656 195.972 239.115 195.466 239.067C194.719 238.993 194.245 238.612 193.677 238.058C192.708 237.122 191.385 236.55 189.985 236.457C189.193 236.403 188.402 236.504 187.667 236.532C186.82 237.297 186.02 238.034 185.21 238.772C185.087 239.233 185.019 239.676 185.566 240.037C184.861 240.331 185.497 241.124 185.014 241.498C184.398 241.598 184.226 241.029 183.753 240.732C182.443 241.217 181.361 240.062 180.052 239.941C179.882 238.866 178.727 239.193 178.222 238.601C177.028 238.782 176.245 237.927 175.198 237.415C174.575 237.616 173.798 237.267 173.04 237.755C172.465 238.13 171.754 238.001 171.024 237.734C170.331 237.476 169.477 237.652 168.74 237.634C168.173 237.908 167.98 238.628 167.262 238.61C167.239 238.96 167.224 239.273 167.21 239.595C167.093 239.817 166.881 239.765 166.642 239.786C166.252 240.306 166.718 241.497 165.3 241.423C165.478 240.97 165.862 240.735 166.069 240.401C165.632 239.992 165.369 240.299 165.089 240.726C164.675 240.023 164.007 239.617 163.631 238.94C163.499 238.712 163.228 238.366 163.081 238.395C161.869 238.622 161.662 237.529 161.12 236.855C160.557 236.77 159.987 236.75 159.447 236.315C158.767 237.096 158.096 237.887 157.014 238.204C156.771 238.677 156.679 239.405 155.86 239.433C155.87 240.216 155.073 240.529 154.899 241.268C154.759 241.877 153.923 241.998 153.33 242.401C152.871 241.735 152.475 241.004 151.725 240.645C151.915 240.394 152.033 240.245 152.096 240.162C151.797 239.061 151.499 238.034 151.247 236.997C151.218 236.878 151.454 236.682 151.581 236.524C151.46 236.396 151.32 236.26 151.143 236.078C151.411 235.403 151.567 234.619 151.983 234.034C152.571 233.226 153.104 232.474 152.999 231.407C152.936 230.782 153.965 230.65 153.698 229.917C153.138 229.28 152.966 230.267 152.09 230.121C151.952 230.086 152.144 229.274 151.571 229.106C151.187 229.323 150.701 229.421 150.303 229.941C149.987 228.279 149.108 227.149 147.738 226.55C147.855 225.582 148.99 225.08 148.736 223.905C149.113 223.854 149.434 223.814 149.765 223.782C149.999 222.619 150.418 221.51 150.86 220.841C151.152 219.844 150.403 219.605 150.451 219.043C150.331 219.007 150.211 218.926 150.1 218.937C148.648 219.075 147.361 219.882 146.631 221.171C146.136 222.042 145.212 222.449 144.632 223.211C143.763 224.372 142.548 225.114 141.447 226.076C141.308 226.004 141.104 225.887 140.909 225.779C140.199 225.604 140.693 226.895 139.908 226.629C139.668 227.322 139.001 227.009 138.553 227.198C137.345 227.729 136.212 228.415 135.275 229.273C134.793 229.712 134.246 229.461 133.892 229.852C133.538 230.234 133.211 230.542 132.605 230.632C132.228 230.692 131.429 230.812 131.504 231.64C130.104 232.292 129.209 233.619 127.819 234.318C127.437 233.936 127.013 233.849 126.643 234.452C126.372 234.152 126.102 233.87 125.306 234.257C126.297 233.306 125.883 232.538 125.957 231.866C125.655 231.262 124.92 231.354 124.471 230.826C123.947 230.851 123.377 230.867 122.788 230.893C122.546 229.893 123.401 229.873 123.857 229.508C123.894 228.79 123.867 228.082 123.187 227.483C124.01 227.058 125.038 227.552 125.393 226.544C126.082 226.407 126.219 225.623 126.823 225.311C127.234 225.104 127.569 224.649 128.055 224.458C128.934 224.098 129.45 223.429 129.788 222.55C130.118 221.699 130.468 220.94 131.607 220.816C132.205 220.753 132.429 219.544 133.597 220.22C133.258 219.645 133.1 219.462 133.023 219.243C132.966 219.059 133 218.838 132.988 218.626C133.399 218.354 133.903 218.201 134.208 217.599C133.622 217.072 133.885 216.029 133.069 215.533C131.864 215.567 131.109 216.276 130.458 217.241C130.627 217.469 130.73 217.615 130.758 217.642C130.304 218.154 129.85 218.656 129.306 219.261C128.816 219.12 128.52 219.731 128.093 220.179C127.907 220.024 127.721 219.852 127.535 219.698C127.602 219.172 128.327 219.016 128.209 218.401C127.011 218.269 125.868 218.854 124.451 220.335C123.78 220.426 123.041 220.187 122.405 220.839C122.376 220.048 122.349 219.321 122.311 218.466C122.382 218.308 122.715 218.451 122.897 218.302C123.219 217.534 123.532 216.784 123.853 216.007C125.134 215.393 126.366 214.531 127.815 214.117C127.954 214.244 128.103 214.371 128.336 214.562C128.553 214.246 128.779 213.921 128.959 213.661C129.457 213.673 129.878 213.502 130.188 214.014C131.05 213.009 132.453 214.096 133.361 213.127C133.953 213.405 134.034 213.984 134.088 214.563C134.226 214.598 134.337 214.661 134.457 214.669C135.369 214.713 136.222 214.518 137.065 214.176C138.108 213.74 138.179 213.518 137.566 212.302C137.683 212.135 137.847 211.985 137.882 211.81C137.925 211.625 137.904 211.423 138.077 211.283C138.344 211.271 138.602 211.267 138.749 211.256C139.412 210.576 140.012 209.952 140.602 209.346C140.602 208.564 139.561 208.467 139.68 207.701C138.699 207.244 137.594 207.185 136.693 206.515C136.583 206.617 136.456 206.739 136.274 206.907C135.341 205.915 135.397 204.442 134.591 203.292C133.938 203.319 133.229 203.346 132.448 203.384C132.423 202.859 132.408 202.409 132.393 201.93C132.097 201.842 131.866 201.771 131.561 201.674C131.536 201.113 131.51 200.524 131.495 200.046C130.116 197.983 130.55 198.107 130.95 196.27C132.294 195.489 133.801 195.351 135.289 195.838C135.982 196.06 136.355 195.742 136.876 195.478C137.412 195.609 137.64 196.168 138.076 196.448C138.185 197.072 137.918 197.839 138.779 198.224C140.421 198.544 141.485 197.546 142.454 196.283C142.441 195.924 142.426 195.519 142.412 195.114C142.138 194.51 141.394 194.612 141.001 194.138C140.071 194.122 139.132 194.069 138.182 193.916C137.158 193.744 136.529 192.676 135.674 192.778C134.369 192.933 134.478 191.376 133.54 191.388C133.434 190.984 133.634 190.807 133.834 190.611C133.35 190.166 133.462 189.566 133.427 189.024C133.284 188.593 132.69 188.923 132.64 188.583C132.477 187.324 131.41 186.656 130.755 185.772C130.118 184.906 128.943 184.423 127.979 183.837C127.552 183.576 127.516 183.641 126.693 184.074C125.934 183.706 125.227 183.099 124.49 183.062C123.054 182.997 122.384 181.671 121.183 181.309C121.005 180.354 119.971 180.109 119.594 179.377C119.236 178.692 118.924 178.033 118.383 177.469C118.047 177.124 118.234 176.578 118.219 176.128C118.446 175.876 118.673 175.634 118.891 175.383C119.209 174.302 118.518 173.538 118.039 172.752C117.616 172.04 117.256 171.207 116.303 170.841C116.724 169.907 117.427 169.493 118.393 169.453C119.212 169.415 119.864 169.334 120.349 168.389C120.673 167.75 121.607 167.416 122.292 166.993C122.785 166.693 123.283 166.723 123.602 167.234C124.264 167.217 124.547 166.293 125.337 166.918C125.214 165.907 125.915 165.273 125.608 164.301C124.624 164.341 123.406 164.053 122.592 164.505C121.706 165.003 120.622 164.446 119.924 165.311C119.569 164.865 119.2 164.768 118.73 165.464C118.533 165.19 118.355 164.953 118.131 164.652C118.226 164.173 118.662 163.707 118.516 163.092C119.345 163.11 119.469 161.994 120.27 162.04C120.636 161.133 120.9 160.182 121.776 159.61C123.044 160.183 124.465 159.732 126.029 158.213C126.178 158.331 126.326 158.448 126.466 158.575C126.838 158.101 127.435 158.03 127.79 157.767C128.175 157.624 128.19 158.103 128.667 157.913C130.498 157.144 132.327 156.284 134.425 156.203C134.862 155.13 136.328 155.295 136.848 154.221C136.659 153.819 136.47 153.425 136.281 153.023C135.765 153.038 135.454 152.435 134.94 152.561C134.395 151.629 135.049 150.921 135.178 150.193C135.644 149.975 135.86 150.267 136.083 150.494C136.22 150.355 136.356 150.224 136.456 150.122C137.596 150.761 137.954 152.118 138.984 152.805C139.526 152.789 140.051 152.764 140.566 152.748C140.965 152.311 141.318 151.828 141.906 151.71C141.927 151.194 141.93 150.716 141.448 150.473C140.974 150.074 140.4 150.551 139.936 150.225C140.194 149.477 140.525 148.782 140.635 147.943C140.736 147.197 141.276 146.242 141.897 145.903C142.583 145.545 142.86 144.842 143.518 144.53C144.284 144.64 144.698 143.898 145.47 143.806C145.777 144.124 146.192 144.193 146.562 143.627C147.613 144.497 149.026 143.357 150.032 144.347C150.916 143.646 151.19 142.768 151.067 141.73C150.013 140.629 149.67 140.44 148.305 140.209C148.36 139.472 149.118 138.956 148.942 138.158C148.657 137.425 147.773 137.39 147.395 136.649C147.046 135.973 146.277 135.522 145.69 134.968C145.472 134.41 145.622 133.948 146.141 133.518C146.454 133.505 146.841 133.491 147.264 133.476C147.582 133.159 147.9 132.852 148.209 132.535C148.759 133.089 149.222 132.55 149.709 132.525C150.307 132.49 150.905 132.464 151.503 132.457C152.064 132.441 152.696 132.184 153.018 132.907C153.655 132.338 153.959 131.607 154.749 131.514C155.349 131.682 154.923 132.211 155.121 132.568C155.686 132.874 156.2 132.775 156.434 132.331C157.084 132.056 157.134 133.076 157.706 132.526C158.008 132.348 157.792 131.991 157.851 131.595C157.37 131.389 156.87 131.175 156.343 130.942C156.315 130.878 156.221 130.769 156.21 130.649C156.195 130.134 156.171 129.674 156.495 129.155C156.802 128.672 157.006 128.026 156.904 127.226C157.463 127.808 157.915 127.885 158.408 127.585C158.65 127.039 158.133 126.907 157.908 126.542C157.156 127.481 156.464 126.624 155.735 126.495C156.215 125.864 155.902 125.15 156.012 124.348C155.218 124.118 155.285 122.912 154.31 122.915C154.296 122.538 154.283 122.262 154.271 122.004C154.442 121.717 154.764 121.694 154.968 121.784C155.698 122.078 156.428 122.263 157.207 122.004C157.48 122.498 157.715 122.927 157.932 123.32C157.602 124.153 156.309 124.51 156.921 125.671C157.338 125.859 157.546 125.608 157.745 125.338C158.032 125.454 158.194 125.857 158.587 125.677C158.913 125.986 158.892 126.539 159.281 126.736C160.833 126.459 162.158 125.688 163.559 125.091C164.364 125.504 165.313 125.556 166.12 126.089C166.51 126.351 167.145 126.316 167.563 125.924C167.972 125.542 168.445 125.793 169.005 125.648C169.15 125.499 169.368 125.276 169.513 125.108C169.532 124.39 168.96 124.268 168.706 123.885C168.967 123.403 169.58 123.129 169.554 122.457C169.875 122.407 170.187 122.357 170.491 122.317C170.57 122.04 170.641 121.799 170.72 121.541C170.906 121.695 171.046 121.813 171.26 121.994C171.872 121.664 172.521 121.316 173.207 120.948C173.329 120.459 173.505 119.812 173.74 119.432C174.155 118.774 173.734 118.217 173.892 117.617C174.077 116.952 173.692 116.304 172.898 116.139L172.262 113.892C172.692 112.93 172.094 112.182 171.771 111.367C171.704 111.193 171.747 110.972 171.745 110.769C171.401 110.479 170.877 110.523 170.604 110.075C170.527 109.754 171.068 109.637 170.879 109.262C170.801 108.904 170.517 108.99 170.259 108.984C169.85 108.631 170.301 107.87 169.653 107.63C169.724 107.38 170.082 107.302 170.004 106.981C170.382 107.05 170.411 106.442 170.836 106.529C171.574 106.704 170.824 107.781 171.626 107.909C171.499 108.067 171.382 108.216 171.264 108.355C171.556 108.95 172.3 108.839 172.684 109.304C173.346 109.286 174.008 109.259 174.671 109.233C174.894 109.469 175.128 109.715 175.513 109.627C175.877 110.028 175.626 110.528 175.742 111.005C175.993 111.25 176.273 111.532 176.497 111.759C175.634 113.39 176.823 115.059 176.553 117.023C176.954 117.386 176.808 118.271 176.827 119.053C176.996 119.29 177.189 119.288 177.456 119.257C177.886 119.804 177.545 120.526 177.736 121.057C178.684 122.536 179.896 123.763 180.313 125.47C180.463 125.698 180.674 125.613 181.06 125.635C180.827 126.135 180.65 126.635 180.656 127.141C179.567 127.624 178.534 128.225 177.283 128.223C176.896 128.228 176.43 128.482 176.139 128.78C175.803 129.125 175.443 129.056 175.03 129.098C174.862 128.925 174.675 128.725 174.489 128.525C174.775 127.84 175.392 127.197 175.088 126.373C174.504 126.03 174.364 126.658 174.006 126.699C172.997 126.279 172.997 126.279 171.616 126.959C171.594 127.41 171.536 127.871 171.725 128.329C172.094 128.38 172.463 128.43 172.813 128.472C172.834 128.683 172.845 128.821 172.856 128.95C172.623 129.431 172.121 129.051 171.784 129.313C171.559 129.73 171.758 130.197 171.727 130.648C172.639 131.484 173.488 132.393 174.609 132.987C175.582 133.508 176.33 134.447 177.704 134.706C177.875 134.345 178.117 133.863 178.36 133.381C178.342 132.691 178.997 132.122 179.555 131.811C180.14 131.491 180.705 131.088 181.42 130.849C181.941 130.594 182.183 131.53 182.722 131.201C182.808 131.411 182.91 131.53 182.903 131.65C182.846 132.276 183.165 132.769 183.717 132.781C184.795 132.813 185.484 133.458 186.136 134.085C186.463 135.194 185.907 136.361 186.693 137.4C187.282 138.203 187.113 139.364 187.75 140.258C188.138 140.419 188.592 140.607 189.054 140.803C189.463 141.801 189.798 142.883 190.335 143.861C190.891 144.885 192.279 144.775 193.008 145.65C193.022 146.036 193.036 146.441 193.052 146.993C194.643 146.899 196.015 147.646 197.468 148.281C197.472 148.649 197.496 149.054 197.511 149.56C198.56 149.556 198.844 150.868 199.884 150.929C200.226 152.517 201.399 153.533 202.279 154.755C203 155.004 203.602 154.582 204.196 154.28C204.327 154.417 204.42 154.498 204.504 154.589C204.504 154.589 202.742 156.452 202.678 156.517C202.548 157.172 202.438 157.882 203.273 158.415C205.096 158.521 206.083 157.248 206.921 155.829C207.3 155.18 207.752 154.576 208.319 154.219C208.73 153.975 209.215 153.794 209.191 153.343C209.155 152.663 210.155 153.138 209.99 152.468C211.137 151.488 211.532 149.927 212.624 148.947C212.754 148.302 212.491 147.863 212.009 147.565C211.526 147.268 212.006 146.618 211.561 146.347C211.247 146.287 211.028 146.391 210.964 146.502C210.694 146.247 210.387 145.966 210.08 145.675C209.98 145.759 209.889 145.843 209.789 145.927C209.763 145.339 209.746 144.75 209.721 144.226C208.994 143.508 207.897 143.337 207.716 142.116C208.375 141.095 208.449 139.649 209.17 138.416C209.499 138.247 209.996 138.204 210.117 137.613C209.281 137.016 210.027 136.307 210.219 135.504C210.409 135.226 210.901 135.551 211.156 135.373C212.302 133.527 213.713 132.276 214.979 131.984C215.405 131.473 215.877 130.906 216.276 130.422C217.091 130.136 217.925 130.539 218.524 129.897C218.878 130.27 218.605 130.512 218.369 130.773C218.595 131.184 218.694 131.68 219.093 131.997C219.044 132.449 218.101 132.12 218.377 132.853C217.088 133.532 216.38 135.041 214.903 135.418C214.279 135.573 214.18 136.476 213.82 136.444C213.185 136.378 212.794 136.788 212.438 137.013C211.452 137.642 211.089 138.834 210.485 139.799C210.13 139.426 209.653 139.505 209.129 139.54C209.143 139.963 209.156 140.285 209.169 140.57C209.32 140.835 209.548 140.694 209.76 140.747C210.151 141.073 209.728 141.833 210.348 142.083C210.801 142.27 211.263 142.43 211.335 143.028C212.167 143.348 212.777 142.761 213.537 142.485C213.541 142.052 213.554 141.601 213.557 141.15C214.304 140.524 215.177 140.449 216.08 140.493C216.365 139.725 216.958 139.359 217.673 139.147C217.959 138.454 218.18 137.724 218.559 137.093C218.883 136.546 219.384 136.107 219.956 135.447C220.403 135.137 221.351 135.88 221.845 134.917C222.319 136.034 223.036 136.715 224.081 137.079C224.104 137.466 224.118 137.861 224.132 138.266C224.541 138.564 225.103 138.613 225.376 139.097C225.023 139.589 224.493 139.126 223.997 139.261C223.809 139.623 223.62 139.984 223.467 140.262C223.023 140.084 222.936 139.744 222.615 139.813C221.979 139.774 222.468 140.606 222.018 140.639C221.595 140.663 221.412 140.812 221.521 141.372C223.941 141.37 225.914 143.112 228.291 143.34C228.503 144.092 227.787 144.248 227.627 144.71C227.749 144.847 227.861 144.974 227.982 145.111C227.345 145.735 226.885 146.468 226.277 147.092C225.768 147.605 225.697 148.563 225.404 149.404C225.648 149.815 225.729 150.412 226.203 150.793C225.855 151.662 225.855 151.662 226.298 152.448C226.18 152.597 226.062 152.746 225.935 152.895C227.074 153.488 228.335 153.499 229.518 153.862C229.359 154.389 228.634 154.545 228.856 155.398C230.496 154.834 232.47 155.169 233.514 153.278C233.415 152.764 233.091 152.575 232.739 152.404C232.268 152.254 232.251 153.147 231.704 152.795C231.454 152.697 231.424 152.458 231.54 152.153C232.307 151.701 233.365 152.415 234.054 151.56C234.67 152.297 235.54 151.191 236.149 152.04C236.804 151.479 237.332 150.985 238.112 150.773C238.781 150.599 238.908 149.677 239.278 149.083C238.879 148.812 238.29 148.81 238.08 148.242C237.924 147.545 238.47 147.078 238.629 146.496C239.216 146.397 239.398 146.956 239.862 147.254C240.285 147.239 240.996 147.423 241.297 147.153C241.879 146.612 242.293 147.343 242.797 147.162C243.255 146.99 243.578 146.36 244.107 146.722C244.583 146.458 244.095 145.756 244.85 145.765C244.552 145.474 244.366 145.292 244.207 145.129C243.93 145.04 243.936 145.555 243.593 145.357C243.573 145.201 243.552 145.017 243.532 144.861C243.822 144.526 244.184 144.724 244.486 144.637C244.842 144.394 244.626 144.028 244.676 143.632C245.565 143.363 245.877 142.558 246.171 141.782C246.222 141.394 245.862 141.344 245.758 141.087C245.728 140.167 247.117 139.405 246.101 138.322C247.118 137.233 248.679 136.946 249.871 135.864C250.352 136.097 250.908 136.366 251.621 136.707C251.851 136.778 251.928 136.252 252.249 136.221C252.379 136.247 252.535 136.235 252.619 136.308C253.95 137.497 255.144 136.58 256.37 136.068C256.563 135.983 256.607 135.862 256.697 135.677C257.603 133.844 259.628 133.11 260.739 131.458C260.821 131.337 261.268 131.018 261.516 131.015C263.375 130.974 264.406 129.589 265.654 128.516C267.156 127.227 268.046 125.485 269.249 123.823C269.35 123.813 269.607 123.809 269.847 123.797C270.359 122.788 271.139 121.931 271.914 121.323C272.807 120.622 272.818 119.287 273.936 118.905C274.006 117.855 275.078 117.538 275.482 116.705C275.796 116.038 276.36 115.525 276.654 114.785C276.833 114.341 277.761 114.237 277.779 113.436C278.971 112.409 279.366 110.821 280.28 109.567C280.641 109.066 281.471 109.184 281.472 108.485C281.463 107.822 282.032 107.631 282.293 107.195C282.464 106.899 282.779 107.088 283.018 107.021C282.535 108.168 281.931 109.188 280.939 110.01C280.219 110.617 279.984 111.697 279.236 112.24C279.259 112.608 279.29 112.875 279.323 113.279C280.239 112.945 281.138 112.75 281.906 112.308C282.61 111.903 283.163 111.234 283.781 110.674C284.144 110.955 283.974 111.353 283.924 111.74C283.66 112.019 283.298 111.794 282.996 111.917C282.598 112.474 282.767 113.448 281.821 113.625C281.684 114.437 281.242 115.16 281.04 115.917C280.838 116.665 280.314 116.736 279.858 117.055C279.861 117.312 279.874 117.579 279.887 117.883C279.346 118.092 279.004 118.658 278.546 118.866C277.814 119.179 277.232 119.784 276.369 119.896C275.873 119.967 275.448 120.607 274.934 120.687C274.282 120.787 274.454 122.046 273.546 121.597C273.238 122.006 272.691 122.399 272.576 122.723C272.344 123.342 271.59 123.352 271.498 124.099C271.44 124.605 270.364 124.693 270.391 125.419C270.41 126.183 269.406 126.076 269.415 126.839C269.418 127.07 268.878 127.306 268.568 127.513C267.418 128.291 266.483 129.324 265.632 130.448C265.189 131.043 264.541 131.493 264.413 132.35C264.371 132.627 264.046 133.11 263.518 132.904C263.286 133.478 263.118 134.023 262.867 134.514C262.418 135.412 261.455 135.654 260.656 135.848C259.179 136.207 258.061 137.289 256.63 137.675C256.217 137.781 256.518 138.302 256.198 138.49C255.959 138.503 255.692 138.515 255.306 138.529C255.308 140.922 253.39 142.041 251.991 143.531C251.023 143.341 250.464 144.277 249.601 144.49C248.877 144.684 248.484 145.655 247.63 145.831C247.56 146.071 247.489 146.311 247.418 146.542C247.115 146.555 246.857 146.568 246.6 146.58C246.145 147.055 245.626 147.467 245.515 148.186C244.936 148.239 244.441 148.411 244.043 148.931C243.037 150.214 241.677 151.096 240.42 152.087C240.338 152.153 240.162 152.1 240.043 152.111C239.715 152.437 239.799 153.209 239.375 153.214C237.811 153.252 237.904 154.779 236.883 155.564C237.347 155.835 237.625 155.997 238.2 156.33C238.117 156.313 238.317 156.181 238.552 155.801C238.864 156.497 239.557 155.963 240.032 156.408C239.775 157.194 239.499 157.97 238.888 158.42C238.842 159.101 239.737 159.339 239.139 160.092C238.597 160.117 238.626 160.945 238.179 161.318C237.724 161.72 236.846 161.418 236.629 162.424C236.823 163.213 237.303 164.09 237.122 165.05C237.659 165.31 238.117 165.148 238.558 165.142C238.969 164.87 239.102 164.436 239.224 163.937C239.861 164.086 240.323 163.482 240.911 163.438C241.468 164.508 240.184 164.128 240.117 164.69C240.042 165.317 239.578 165.7 239.187 166.137C239.458 166.401 239.728 166.674 239.989 166.946C239.808 167.16 239.561 167.311 239.639 167.632C240.39 168.064 240.667 168.944 241.474 169.422C240.467 170.557 240.753 172.118 239.69 173.181C239.064 173.207 238.347 173.234 237.657 173.261C237.454 173.927 236.963 174.439 237.156 175.182C237.723 175.57 238.407 175.139 239.018 175.361C239.435 175.595 239.505 176.091 239.721 176.401C240.516 176.695 241.201 176.309 241.721 175.944C242.223 175.588 243.207 175.557 243.093 174.528C243.969 173.882 244.507 172.789 245.496 172.353C246.21 172.032 246.958 171.562 247.89 171.707C248.537 171.202 248.978 170.405 249.997 170.208C250.823 170.041 251.279 169.014 252 168.49C251.827 167.893 252.343 167.951 252.635 167.764C252.909 167.595 252.615 166.89 253.288 167.001C253.362 167.018 253.48 166.851 253.57 166.758C254.098 166.273 253.957 165.327 254.514 164.979C255.136 164.603 255.193 164.041 255.562 163.392C256.064 163.036 256.683 162.495 257.406 162.155C258.073 161.833 258.817 161.695 259.545 161.06C259.679 161.408 259.821 161.784 259.84 161.83C260.706 161.856 261.157 161.859 261.525 161.864C262.493 162.698 262.546 164.004 263.412 164.813C262.573 165.44 262.975 166.668 262.229 167.349C261.419 168.096 259.273 169.475 258.622 169.631C258.31 169.708 257.96 169.648 257.638 169.698C257.298 169.748 257.238 169.381 256.823 169.313C256.307 169.982 255.402 169.689 254.641 169.911C253.32 170.286 252.397 171.522 250.943 171.567C250.695 171.57 250.624 171.755 250.468 171.868C249.73 172.411 249.73 172.402 248.682 172.516C248.647 172.682 248.613 172.867 248.552 173.143C247.132 173.713 246.035 175.025 244.331 175.58C244.809 177.037 242.748 177.827 243.291 179.32C243.781 180.17 244.468 179.931 245.112 179.895C245.329 179.653 245.547 179.393 245.783 179.16C246.31 178.62 247.206 178.875 247.702 178.004C248.035 177.411 249.138 177.333 249.739 176.837C250.094 176.538 250.712 176.604 250.816 176.115C250.973 175.414 251.864 175.301 251.88 174.372C252.933 174.671 253.77 173.851 254.8 173.857C255.273 172.608 256.994 173.406 257.457 172.167C257.68 172.293 257.968 172.547 258.087 172.49C259.366 171.747 260.88 171.397 261.915 170.234C262.605 169.461 263.444 168.843 264.35 168.464C265.211 168.103 265.13 166.825 266.188 166.793C266.264 165.504 267.756 165.577 268.204 164.605C268.428 164.115 269.29 164.647 269.494 164.01C270.326 164.275 271.086 164.726 271.987 164.696C272.313 164.95 272.106 165.321 272.192 165.632C273.227 165.905 273.213 167.046 273.847 167.664C273.447 168.055 272.76 167.622 272.465 168.298C272.206 168.918 271.549 168.622 271.082 168.784C270.623 168.928 270.222 169.265 269.601 169.622C269.426 169.633 269.04 169.675 268.654 169.652C268.285 169.639 268.02 169.761 267.821 170.068C267.513 169.722 267.303 169.798 266.957 170.106C266.675 170.358 266.393 169.929 266.05 169.703C263.685 171.187 261.057 172.241 258.542 173.525C257.993 173.807 257.397 173.971 256.82 174.181C255.904 174.505 255.577 174.905 254.648 175.616C253.982 176.112 253.522 176.891 252.743 177.159C251.965 177.426 252.07 178.483 251.235 178.668C251.014 178.717 250.824 178.95 250.556 178.824C250.221 178.562 250.755 178.573 250.687 178.326C250.489 177.896 250.163 177.596 249.383 177.753C249.078 178.392 248.15 178.56 247.766 179.457C247.426 180.235 246.603 180.65 245.826 181.101C245.934 181.661 246.491 182.05 246.049 182.737C247.658 182.615 248.658 181.6 249.962 181.362C250.025 182.043 249.581 182.6 249.34 183.156C249.116 183.674 248.72 184.341 247.881 184.287C247.356 184.257 247.236 184.894 246.861 185.119C246.567 185.169 246.327 185.108 246.157 184.714C245.646 185.107 245.352 185.865 244.539 185.59C244.204 185.364 243.842 185.093 243.817 184.568C243.032 184.339 242.192 184.101 241.488 183.797C240.674 183.457 239.695 183.175 238.976 182.328C238.95 181.694 238.922 180.967 238.894 180.203C238.434 180.218 238.057 180.241 237.588 180.257C237.315 180.481 237.008 180.963 236.631 181.023C235.153 181.281 234.486 182.394 233.93 183.579C233.804 183.847 233.439 184.036 233.556 184.55C233.772 184.915 234.054 185.39 234.374 185.938C233.509 185.967 232.663 186.006 231.66 186.046C231.521 185.992 231.637 185.66 231.515 185.449C231.151 185.104 230.925 185.383 230.698 185.644C229.538 184.885 228.612 185.881 227.612 186.142C226.585 186.413 225.701 187.114 225.141 187.986C223.56 188.098 222.479 189.253 221.092 189.482C220.518 189.931 220.582 190.657 220.286 191.25C219.801 191.504 219.317 191.759 218.722 192.061C219.01 192.95 217.714 193.877 218.777 194.922C218.543 195.385 217.921 195.66 218.003 196.349C217.249 196.386 216.54 196.414 215.869 196.431C215.6 196.287 215.708 196.065 215.669 195.891C215.811 195.521 216.34 195.818 216.487 195.098C216.512 194.905 216.06 194.754 215.76 194.38C214.974 194.823 214.17 195.284 213.348 195.745C213.375 196.407 213.4 196.996 213.427 197.695C214.232 197.998 214.685 198.876 215.383 199.511C215.425 199.952 215.468 200.403 215.509 200.798C215.919 201.17 216.555 200.546 216.758 201.325C217.339 200.646 218.274 201.067 218.855 200.443C219.06 199.934 219.265 199.416 219.515 198.806C220.583 198.829 221.035 197.407 222.222 197.447C222.802 196.685 223.372 195.932 223.97 195.143C223.551 194.761 223.012 195.109 222.513 194.94C222.437 194.738 222.342 194.5 222.19 194.134C221.353 194.163 220.461 194.202 219.578 194.231C220.704 193.794 222.039 193.832 222.37 192.291C223.669 191.723 225.157 191.493 226.099 190.275C226.353 189.95 226.657 189.964 226.979 189.96Z" fill="#FF0000" fill-opacity="0.4"/>
</svg>
