<?xml version="1.0" encoding="utf-8"?>
<!-- Generator: Adobe Illustrator 25.2.3, SVG Export Plug-In . SVG Version: 6.00 Build 0)  -->
<svg version="1.1" id="Слой_1" xmlns="http://www.w3.org/2000/svg" xmlns:xlink="http://www.w3.org/1999/xlink" x="0px" y="0px"
	 viewBox="0 0 1322.7 960.3" style="enable-background:new 0 0 1322.7 960.3;" xml:space="preserve">
<style type="text/css">
	.st0{fill:#27AE60;}
</style>
<path class="st0" d="M627.6,168.4c7.8,8.1,17.2,4.6,19.5-6.1c7.3-34.5-10.8-58.8-50.3-64.1c2.1,15.2,2.7,30.1,10.4,43.2
	C612.8,151,619.8,160.2,627.6,168.4z"/>
<path class="st0" d="M620.9,216.1c4.4-2.3,5.3-6.8,3.7-11.3c-2.5-6.9-7.9-10.7-16.7-8.5c-8.5,2.1-15.1,1.2-22-3.6
	c-1.8-1.2-4.8-0.6-7-0.8c-1,2.1-2.7,3.9-2.3,5C582.1,214,605.5,224.1,620.9,216.1z"/>
<path class="st0" d="M77.6,32.4c-11.2-3.5-22.9-3.2-37.8,0.1c5.2,4.3,7.4,7.6,10.1,8.2c14.9,3.3,30,6.1,48.7,9.7
	C94,38,85.5,34.9,77.6,32.4z"/>
<path class="st0" d="M197,291.8c7.2,9,17.6,7.4,26.4,9.7c8.3,2.2,16.9,5.2,27.7-2.3C230.9,286.9,214.3,284.8,197,291.8z"/>
<path class="st0" d="M284.6,291.1c8.5,6.8,18.2,9.1,28.7,5.7c2-0.6,4.3-3.5,4.4-5.5c0.1-1.9-2-5.1-3.8-5.8c-9.9-3.9-19.9-4-29.6,0.1
	C284.3,288,283.7,290.4,284.6,291.1z"/>
<path class="st0" d="M1144.6,34.7c3.1-0.6,7-2.1,8.7-4.5c5.5-7.9,11.4-15.6,13.4-24.9c-1.5-2-2.3-3.9-3.6-4.3
	c-1.4-0.5-4.2-0.2-4.8,0.7c-5,7.2-9.8,14.6-14.5,22.1C1140.7,28.8,1141.4,35.3,1144.6,34.7z"/>
<path class="st0" d="M414.2,160.9c3.3,0,6.6-3.7,8.8-5.2c0.3-9.6-5.8-15.4-13.7-14.2c-2.8,0.4-6.6,3.4-7.4,6
	C399.8,153.7,406.3,160.9,414.2,160.9z"/>
<path class="st0" d="M139.6,68.4c5.8,3.3,12.4,5.2,23.9,9.9c-5.5-12.8-12.2-15.3-18.3-18c-6.7-2.9-12.7-9.9-21.3-5
	C123.1,66.9,133.8,65.1,139.6,68.4z"/>
<path class="st0" d="M206.7,357.8c-10.1-5.8-18.9-11-27.9-15.9c-0.9-0.5-2.8,1.2-4.3,1.8C182.8,358.5,184.5,359.3,206.7,357.8z"/>
<path class="st0" d="M9,0.5c-2.1-1.3-6,0.2-9,0.6C1.3,4,1.8,7.7,4,9.6c3.1,2.9,7.2,5,12.8-0.4C14.3,6.3,12.3,2.4,9,0.5z"/>
<path class="st0" d="M935.8,18.7c0.9,0.3,4.7-3.8,4.3-4.4c-1.4-2.5-3.8-4.4-6.6-7.4c-2.4,3.2-5.1,6.3-4.8,6.6
	C930.7,15.7,933.1,17.8,935.8,18.7z"/>
<path class="st0" d="M243.6,244.9c1.8-1.2,3.7-1.9,4.2-3.1c1.4-3.4-4.3-6.8-9-5.2c-1.2,0.4-2,2.2-2.6,3.5c-0.2,0.4,0.4,1.8,1,2.1
	C239.4,243.2,241.6,244.1,243.6,244.9z"/>
<path class="st0" d="M889.3,143c-1.6-1.7-3-3.6-4.8-4.8c-0.5-0.3-2.4,1.6-3.6,2.4c1.3,1.9,2.5,3.7,4.1,5.3
	C885.1,146.1,887.3,144.3,889.3,143z"/>
<path class="st0" d="M303.3,272.3C303.3,272.3,303.2,272.3,303.3,272.3L303.3,272.3L303.3,272.3z"/>
<path class="st0" d="M317.2,274c-0.4-1.4-1.5-4.1-2-4c-4.1,0.5-8,1.5-12,2.4c4.1,1.1,8.1,2.3,12.2,3.1
	C315.9,275.6,317.3,274.3,317.2,274z"/>
<path class="st0" d="M405.2,311.1c-0.6-1.3-2.3-2.7-3.6-2.8c-1-0.2-2.2,1.7-3.3,2.6c1.5,1.5,3.1,3.1,4.8,4.8
	C404.1,313.5,405.5,311.9,405.2,311.1z"/>
<path class="st0" d="M247.9,349.7c-1.2,0.8-2.2,1.9-3.3,2.9c1.3,0.8,2.6,1.5,3.8,2.3c0.5-1.3,1.2-2.7,1.4-4
	C249.9,350.6,248.2,349.5,247.9,349.7z"/>
<path class="st0" d="M1071,39.9c1.1-0.7,2.1-1.7,3.1-2.6c-1.2-0.8-2.4-1.5-3.6-2.3c-0.5,1.2-1.1,2.4-1.3,3.7
	C1069.2,39,1070.7,40.1,1071,39.9z"/>
<path class="st0" d="M303.2,272.4L303.2,272.4c-0.7,0.5-1.4,1-2,1.6C301.9,273.4,302.5,272.9,303.2,272.4z"/>
<path class="st0" d="M498.6,819.2c-3.8,0.2-7.6-0.2-11.4,0.2c-16.1,1.5-22.9,12-17.2,27c2.4,6.3,5.6,12.2,8.2,17.7
	c-1.7,2.3-2.3,3.7-3.5,4.5c-1.9,1.3-4.2,1.9-6,3.3c-8.5,6.2-9.3,14.2-1.3,20.7c4.6,3.7,10.2,6.7,15.9,8.3c8.7,2.5,18-1.9,20.2-10.5
	c3.1-12.9,9.1-24,16.3-34.8C527.9,843.3,518.2,818.3,498.6,819.2z"/>
<path class="st0" d="M265.5,685.7c0.8-0.7,0.6-2.8,0.9-4.9c-1.5-1-3.3-3.3-5.1-3.3c-5.2,0-11.2-0.5-15.7,1.7
	c-18.6,8.9-39.6,12.7-55.4,27.3c-3.3,3-8.1,4.4-12,6.8c-4.9,3.1-12.2,3.9-12.7,11.7c-0.3,4.4,7.9,5.4,18.4,2
	c2.9-0.9,5.9-1.9,8.5-3.5c20.1-12.8,41.5-23,63.9-31.2C259.7,691,262.7,688.2,265.5,685.7z"/>
<path class="st0" d="M754.3,893.6c-3.1,3.2-6,7.2-7.1,11.4c-1.6,5.8-1.5,12.2-2.1,18.5c0.6,5.1,0.6,10.6,1.9,15.7
	c0.6,2.5,4,6.4,5.6,6.2c3.3-0.4,8.1-2.7,8.9-5.3c3.9-12.4,7.1-25,9.5-37.8c0.6-2.9-1.7-7.6-4.2-9.8C763,889.2,757.8,890,754.3,893.6
	z"/>
<path class="st0" d="M927.1,959.6c4.1-1.5,5.4-5.5,4.5-9.4c-3.7-17-11.6-31.2-27.4-39.7c-1.2-0.7-2.9-0.5-5.9-0.8
	c-0.9,2.1-3.5,5.2-2.8,6.9c5.4,13.2,11.4,26.3,17.5,39.2c0.8,1.8,3.3,3.3,5.4,3.8C921.2,960.3,924.5,960.5,927.1,959.6z"/>
<path class="st0" d="M853.2,927.4c1.2-2.7,2.5-6.1,1.8-8.6c-3.4-11.6-7.2-23.1-11.5-34.3c-0.8-2.3-4.2-3.7-6.6-5.7
	c-2.5,2-5.3,3-5.8,4.6c-4.3,16.2-0.4,31.4,6.9,45.7C840.9,934.6,850.6,933.2,853.2,927.4z"/>
<path class="st0" d="M339.5,447.4c16.4,2.7,32.5,8.5,49.5,5.8c1.4-0.2,2.6-1.6,6-3.7c-2.5-2.7-3.7-5.4-5.4-5.7
	c-14.9-2.7-30-4.9-45.1-7.1c-1.4-0.2-3.3,0.1-4.4,0.9c-1.7,1.2-3.9,3-4,4.7C336,444,338,447.2,339.5,447.4z"/>
<path class="st0" d="M122.1,599.9c-2.2,0.4-4.4,1.2-6.5,2.2c-6.5,3.1-10,9.4-7.9,14.7c2.2,5.8,7,7.7,13.2,8.2c1.7-0.3,4-0.4,6.2-1
	c7.9-2.1,12.8-8.7,11.3-14.8C136.7,602.8,129.5,598.6,122.1,599.9z"/>
<path class="st0" d="M290.5,672.2c0.5,1.6,3.4,3.6,5,3.4c14.3-2.1,27.4-7.8,39.7-15.1c1-0.6,1.3-2.6,1.9-3.9c-0.2-0.8-0.1-2-0.5-2.2
	c-1.9-0.9-4.3-2.7-5.9-2.2c-12.8,4.5-25.4,9.3-38,14.4C291.3,667.3,290,670.7,290.5,672.2z"/>
<path class="st0" d="M284.5,644.9c-3.5,1.4-7.3,2.9-10,5.4c-1.9,1.7-2.9,5-2.9,7.7c0,1.1,3.4,2.3,5.4,3.6c3.9-0.9,7.8-1.3,11.2-2.8
	c7.4-3.2,17-4.3,18.8-14.4C308,639.5,297.9,639.5,284.5,644.9z"/>
<path class="st0" d="M1165.4,886c-8.4-0.2-12.8,6.4-10,11.2c1.9,3.1,4.4,6.1,7.2,8.6c4.1,3.6,9.2,3.6,12.2,0.4
	c3.8-3.9,3.6-8.8,0.5-12.4C1172.2,890.1,1167.6,887.7,1165.4,886z"/>
<path class="st0" d="M660.9,834.7c-5.8,0.9-10,5.4-9.9,10.6c0.2,5.4,5.4,9.5,11.1,8.8c6.8-0.9,11.8-6.4,11.1-12.1
	C672.5,837.1,666.8,833.7,660.9,834.7z"/>
<path class="st0" d="M706.3,879.2c3.1-1.4,6.2-4.2,7.7-7.2c2.6-4.9,2.3-10.3-1.7-14.7c-1.4-1.5-3.7-2.1-5.8-3.2
	c-1.9,1.7-4.4,2.7-5,4.5c-1.2,3.4-1.7,7.2-1.9,10.9C699.6,875.8,703,880.7,706.3,879.2z"/>
<path class="st0" d="M725.6,836.9c-1.9,3.5,1,8.6,4.7,8.3c3.1-0.2,6-2.6,11.3-5.1c-4.4-3.8-6.6-7-9.4-7.8
	C730.4,831.8,726.8,834.7,725.6,836.9z"/>
<path class="st0" d="M898.8,894.8c1.6-5.3-2.2-10.6-7.7-11.6c-1.3,0.6-3.1,0.8-3.8,1.8c-3.3,5,0.8,13.5,6.7,13.5
	C895.7,898.5,898.3,896.4,898.8,894.8z"/>
<path class="st0" d="M808.1,881.8c-0.5-2.2-3.6-3.9-7-7.3c-2.6,4.7-5,7.5-5.4,10.6c-0.2,1.4,4.1,4.5,6.4,4.5
	C806.3,889.6,809,886.1,808.1,881.8z"/>
<path class="st0" d="M449.3,614.5c1.6,0.6,3.7-0.5,5.7-0.9c-0.6-1.9-0.9-4.2-1.5-4.3c-1.9-0.3-3.9,0.2-5.9,0.4
	C448.1,611.4,448.3,614.2,449.3,614.5z"/>
<path class="st0" d="M1241.7,549.4c-0.2-0.2-3.3,1.3-3.3,1.9c0.1,1.8,1.2,3.5,1.9,5.5c2-1.2,3.2-1.9,4.4-2.5
	C1243.7,552.6,1242.9,550.8,1241.7,549.4z"/>
<path class="st0" d="M1122.8,623c1.7,0.9,3.6,1.5,5.4,1.8c0.3,0,0.8-2.4,1.6-4.6c-2.1-0.3-4-1-5.8-0.7
	C1123.5,619.5,1122.7,622.9,1122.8,623z"/>
<path class="st0" d="M998.4,955.5c0.8,1.8,2.1,3.3,3.2,4.9c1.1-0.8,3.3-1.9,3.2-2.5c-0.3-1.8-1.5-3.5-2.4-5.4
	C1000.5,953.9,998.3,955.1,998.4,955.5z"/>
<path class="st0" d="M911.6,834.4c-0.3-1.2-0.4-3.1-1.2-3.5c-0.9-0.4-2.4,0.6-3.6,0.9c0.4,1.2,0.4,3.1,1.2,3.5
	C908.9,835.7,910.4,834.8,911.6,834.4z"/>
<path class="st0" d="M236.7,761.8c0.7-1.1,1.4-2.2,2.1-3.3c-1.3-0.4-2.6-0.9-3.9-1c-0.3,0-1.2,1.5-1,1.7
	C234.7,760.1,235.8,760.9,236.7,761.8z"/>
<path class="st0" d="M195.9,813.1c-1,0.7-1.8,1.7-2.7,2.5c1,0.5,2,1.1,3,1.7c0.4-1.1,1-2.2,1.2-3.3
	C197.5,813.8,196.1,813,195.9,813.1z"/>
<path class="st0" d="M1320,550.2c-0.3-0.2-1.6,0.8-1.5,1c0.2,1.1,0.8,2.1,1.2,3.2c1-0.7,2-1.4,3-2.1
	C1321.8,551.6,1320.9,550.7,1320,550.2z"/>
<path class="st0" d="M299.5,597.7l-1.7-0.8l0.2,1.9L299.5,597.7z"/>
<path class="st0" d="M1166.3,749.8c-0.1,0-0.6,1.1-0.8,1.8c1.1,0.5,2.2,1,3.3,1.4c0.1,0,0.5-1.2,0.8-1.8
	C1168.5,750.7,1167.4,750.2,1166.3,749.8z"/>
<path class="st0" d="M924.5,791.1c0.2,0.5,0.4,1,0.5,1.6c0.5-0.2,1-0.4,1.9-0.7C925.9,791.6,925.2,791.4,924.5,791.1z"/>
<path class="st0" d="M1154.9,860.3c0.2,0.5,0.4,1,0.6,1.6c0.5-0.2,1-0.4,1.9-0.7C1156.3,860.8,1155.6,860.6,1154.9,860.3z"/>
<path class="st0" d="M919.2,871.5l1.8,0l-1-1.5L919.2,871.5z"/>
<path class="st0" d="M238.5,777.5c0,0,0.1,0.1,0.2,0.2L238.5,777.5c-12,0.8-22.2,5.5-30,14.9c-0.9,1.1-1.1,2.8-2.1,5.2
	c3.4,5,7.2,10.3,10.8,15.4c18.7-5.8,18.7-5.8,20.2-21.1c0.4-4.6,1.1-9.1,1.7-13.7c0.8-0.6,1.6-1.3,2.4-1.9
	C240.5,776.7,239.5,777.1,238.5,777.5z"/>
</svg>
