<svg width="150" height="80" viewBox="0 0 150 80" fill="none" xmlns="http://www.w3.org/2000/svg">
<path d="M49.1523 55.4688H33.8945C32.793 55.4688 31.9023 56.3672 31.9023 57.4688V69.9531C31.9023 71.0547 32.793 71.9492 33.8945 71.9492H49.1523C50.25 71.9492 51.1445 71.0547 51.1445 69.9531V57.4688C51.1445 56.3672 50.25 55.4688 49.1523 55.4688ZM49.1523 56.7031C49.5742 56.7031 49.9141 57.0469 49.9141 57.4688V69.9531C49.9141 70.375 49.5742 70.7148 49.1523 70.7148H33.8945C33.4727 70.7148 33.1328 70.375 33.1328 69.9531V57.4688C33.1328 57.0469 33.4727 56.7031 33.8945 56.7031H49.1523Z" fill="#9B306C"/>
<path d="M79.9648 8.91406H1.99219C0.894532 8.91406 0 9.84375 0 10.9922V59.7383C0 60.8828 0.894532 61.8164 1.99219 61.8164H79.9648C81.0625 61.8164 81.957 60.8828 81.957 59.7383V10.9922C81.957 9.84375 81.0625 8.91406 79.9648 8.91406ZM79.9648 10.1484C80.3867 10.1484 80.7266 10.5234 80.7266 10.9922V59.7383C80.7266 60.2031 80.3867 60.582 79.9648 60.582H1.99219C1.57422 60.582 1.23047 60.2031 1.23047 59.7383V10.9922C1.23047 10.5234 1.57422 10.1484 1.99219 10.1484H79.9648Z" fill="#9B306C"/>
<path d="M74.625 13.7461H7.33203C6.28906 13.7461 5.44141 14.6055 5.44141 15.6602V55.0664C5.44141 56.1211 6.28906 56.9805 7.33203 56.9805H74.625C75.668 56.9805 76.5156 56.1211 76.5156 55.0664V15.6602C76.5156 14.6055 75.668 13.7461 74.625 13.7461ZM74.625 14.9805C74.9883 14.9805 75.2812 15.2852 75.2812 15.6602V55.0664C75.2812 55.4453 74.9883 55.7461 74.625 55.7461H7.33203C6.96875 55.7461 6.67578 55.4453 6.67578 55.0664V15.6602C6.67578 15.2852 6.96875 14.9805 7.33203 14.9805H74.625Z" fill="#9B306C"/>
<path d="M49.4062 68.5117H33.6406C32.7656 68.5117 32.0508 68.9297 31.7617 69.5547L24.957 76.7148C24.7383 76.9453 24.6172 77.25 24.6172 77.5664C24.6172 77.9609 24.8086 79.25 27.2734 79.25H55.7734C58.2383 79.25 58.4258 77.9609 58.4258 77.5664C58.4258 77.25 58.3047 76.9453 58.0859 76.7148L51.2852 69.5547C50.9922 68.9297 50.2812 68.5117 49.4062 68.5117ZM49.4062 69.7461C49.8398 69.7461 50.1953 69.9453 50.1953 70.1992L57.1953 77.5664C57.1953 77.8164 56.5586 78.0156 55.7734 78.0156H27.2734C26.4883 78.0156 25.8516 77.8164 25.8516 77.5664L32.8516 70.1992C32.8516 69.9453 33.2031 69.7461 33.6406 69.7461H49.4062Z" fill="#9B306C"/>
<path d="M122.926 35.9023C122.801 35.9023 122.676 35.8672 122.57 35.793L87.8318 11.4336C87.5544 11.2383 87.488 10.8555 87.6794 10.5742L91.3122 5.37109C91.406 5.23828 91.5466 5.14844 91.7107 5.11719L91.8161 5.10938C91.9411 5.10938 92.0661 5.14844 92.1677 5.21875L126.91 29.5781C127.187 29.7734 127.254 30.1602 127.058 30.4375L123.429 35.6406C123.336 35.7734 123.191 35.8672 123.031 35.8945L122.926 35.9023Z" fill="#9B306C"/>
<path d="M91.8164 4.49219C91.7461 4.49219 91.6719 4.49609 91.6016 4.51172C91.2813 4.56641 90.9922 4.75 90.8047 5.01953L87.1758 10.2227C86.7852 10.7773 86.9219 11.5508 87.4805 11.9414L122.219 36.2969C122.426 36.4453 122.672 36.5195 122.926 36.5195C122.996 36.5195 123.066 36.5156 123.141 36.5039C123.461 36.4453 123.746 36.2617 123.934 35.9961L127.566 30.7891C127.953 30.2344 127.82 29.4609 127.262 29.0703L92.5235 4.71484C92.3125 4.56641 92.0664 4.49219 91.8164 4.49219ZM91.8164 5.72656L126.555 30.082L122.926 35.2852L88.1875 10.9297L91.8164 5.72656Z" fill="#9B306C"/>
<path d="M102.211 20.4102C101.715 20.4102 101.246 20.5547 100.859 20.8281C94.5509 25.2383 90.7775 32.4648 90.754 40.1562C90.7345 46.4766 93.1681 52.4219 97.6134 56.9062C102.059 61.3906 107.977 63.8672 114.281 63.8906H114.356C123.195 63.8906 131.223 58.9922 135.305 51.1133C135.504 50.7305 135.488 50.2734 135.266 49.9062C135.043 49.5352 134.645 49.3125 134.215 49.3086L126.602 49.2852H126.598C126.234 49.2852 125.891 49.4453 125.656 49.7266C122.84 53.0859 118.723 55.0156 114.356 55.0156H114.309C106.176 54.9922 99.5782 48.3359 99.6017 40.1836C99.6212 34.5547 102.902 29.3438 107.965 26.9023C108.305 26.7383 108.547 26.4297 108.633 26.0664C108.715 25.7031 108.633 25.3203 108.402 25.0234C107.551 23.9414 104.594 20.4102 102.211 20.4102ZM102.211 21.6445C104.184 21.6445 107.434 25.7891 107.434 25.7891C102.09 28.3672 98.3946 33.8398 98.3712 40.1797C98.3439 49.0273 105.481 56.2227 114.305 56.25H114.356C119.27 56.25 123.668 54.0234 126.598 50.5195L134.211 50.543C130.484 57.7383 122.992 62.6562 114.356 62.6562H114.285C101.93 62.6172 91.9454 52.543 91.9845 40.1602C92.0079 32.5703 95.7931 25.875 101.563 21.8398C101.754 21.7031 101.973 21.6445 102.211 21.6445Z" fill="#9B306C"/>
<path d="M126.387 57.293C116.446 57.293 108.508 62.6094 108.317 69.3945C108.309 69.7305 108.434 70.0508 108.664 70.2891C108.895 70.5273 109.211 70.6641 109.543 70.6641L143.317 70.7695C143.649 70.7695 143.965 70.6367 144.196 70.4023C144.43 70.1641 144.555 69.8438 144.551 69.5078C144.477 66.1523 142.5 63.0352 138.981 60.7344C135.61 58.5312 131.168 57.3086 126.473 57.293H126.387ZM126.387 58.5273H126.469C135.703 58.5586 143.188 63.4688 143.317 69.5352L109.547 69.4297C109.719 63.3828 117.192 58.5273 126.387 58.5273Z" fill="#9B306C"/>
<path d="M104.809 78.3203C104.059 78.3164 103.457 77.707 103.457 76.9609L103.477 70.1523C103.48 69.4062 104.086 68.8008 104.832 68.8008L148.035 68.9336C148.781 68.9375 149.387 69.5469 149.383 70.293L149.363 77.1016C149.359 77.8477 148.754 78.4531 148.012 78.4531L104.809 78.3203Z" fill="#9B306C"/>
<path d="M104.832 68.1836C103.75 68.1836 102.863 69.0625 102.863 70.1484L102.84 76.957C102.836 78.0469 103.719 78.9336 104.805 78.9375L148.004 79.0703C149.094 79.0703 149.977 78.1875 149.977 77.1016L150 70.2969C150 69.7695 149.797 69.2734 149.426 68.8984C149.055 68.5273 148.563 68.3203 148.039 68.3164L104.836 68.1836H104.832ZM104.832 69.418L148.031 69.5508C148.438 69.5547 148.77 69.8828 148.766 70.293L148.746 77.1016C148.746 77.5078 148.414 77.8359 148.012 77.8359H148.008L104.809 77.7031C104.402 77.6992 104.07 77.3672 104.074 76.9609L104.094 70.1523C104.094 69.7461 104.422 69.418 104.832 69.418Z" fill="#9B306C"/>
<path d="M98.9846 7.57422C98.9143 7.57422 98.844 7.58203 98.7737 7.59375C98.4495 7.65234 98.1643 7.83594 97.9768 8.10156L92.5706 15.8516C92.1799 16.4102 92.3167 17.1797 92.8714 17.5703L116.953 34.5117C117.164 34.6562 117.41 34.7344 117.66 34.7344C117.731 34.7344 117.805 34.7266 117.875 34.7148C118.196 34.6562 118.481 34.4766 118.668 34.207L124.078 26.457C124.469 25.8984 124.332 25.1289 123.778 24.7383L99.6917 7.80078C99.4846 7.65235 99.2385 7.57422 98.9846 7.57422ZM98.9846 8.8086L123.071 25.75L117.66 33.5L93.5784 16.5625L98.9846 8.8086Z" fill="#9B306C"/>
<path d="M118.828 51.3047C118.668 51.3047 118.512 51.2383 118.395 51.125C118.281 51.0078 118.215 50.8516 118.215 50.6875L118.23 46.3438C118.23 46.0039 118.508 45.7305 118.848 45.7305L141.699 45.8008C142.039 45.8047 142.312 46.0781 142.312 46.4219L142.297 50.7617C142.297 50.9258 142.234 51.082 142.117 51.1992C142 51.3125 141.848 51.3789 141.684 51.3789L118.828 51.3047Z" fill="#9B306C"/>
<path d="M118.848 45.1133C118.168 45.1133 117.617 45.6641 117.613 46.3438L117.602 50.6836C117.602 51.0117 117.727 51.3242 117.957 51.5586C118.187 51.7891 118.5 51.9219 118.828 51.9219L141.68 51.9961H141.684C142.008 51.9961 142.32 51.8672 142.551 51.6367C142.781 51.4063 142.914 51.0898 142.914 50.7656L142.926 46.4219C142.93 45.7422 142.379 45.1875 141.699 45.1836L118.848 45.1133ZM118.848 46.3477L141.695 46.418L141.684 50.7617L118.832 50.6875L118.848 46.3477Z" fill="#9B306C"/>
<path d="M87.2586 13.4258C87.1297 13.4258 87.0086 13.3828 86.9031 13.3125L83.2508 10.7305C82.9734 10.5352 82.907 10.1523 83.1023 9.8711L89.4266 0.878907C89.5203 0.746095 89.6609 0.656251 89.825 0.628907L89.9266 0.617188C90.0555 0.617188 90.1805 0.656251 90.282 0.730469L93.9344 3.3125C94.0672 3.40625 94.157 3.55078 94.1883 3.71094C94.2156 3.87109 94.1766 4.03906 94.0828 4.17188L87.7586 13.1641C87.6648 13.2969 87.5242 13.3867 87.3602 13.4141L87.2586 13.4258Z" fill="#9B306C"/>
<path d="M89.9254 0C89.8551 0 89.7848 0.00781201 89.7184 0.019531C89.3941 0.074218 89.109 0.257812 88.9215 0.523437L82.5973 9.51562C82.2066 10.0742 82.3395 10.8438 82.8941 11.2344L86.5465 13.8164C86.7535 13.9648 87.0035 14.043 87.2574 14.043C87.3238 14.043 87.3941 14.0352 87.4645 14.0234C87.7848 13.9688 88.0738 13.7852 88.2613 13.5195L94.5855 4.52734C94.773 4.25781 94.8473 3.92969 94.7926 3.60547C94.7379 3.28125 94.5543 2.99609 94.2887 2.80469L90.6363 0.226562C90.4293 0.078125 90.1793 0 89.9254 0ZM89.9254 1.23438L93.5777 3.81641L87.2574 12.8086L83.6051 10.2266L89.9254 1.23438Z" fill="#9B306C"/>
<path d="M101.648 67.1016H56.8242C56.1406 67.1016 55.5898 67.6563 55.5898 68.3359V77.8555C55.5898 78.5352 56.1406 79.0898 56.8242 79.0898H101.648C102.328 79.0898 102.883 78.5352 102.883 77.8555V68.3359C102.883 67.6563 102.328 67.1016 101.648 67.1016ZM101.648 68.3359V77.8555H56.8242V68.3359H101.648Z" fill="#9B306C"/>
<path d="M61 78.4727C60.6602 78.4727 60.3867 78.1953 60.3867 77.8555V68.3359C60.3867 67.9961 60.6602 67.7188 61 67.7188H63.0859C63.4258 67.7188 63.7031 67.9961 63.7031 68.3359V77.8555C63.7031 78.1953 63.4258 78.4727 63.0859 78.4727H61Z" fill="#9B306C"/>
<path d="M63.0859 67.1016H61C60.3203 67.1016 59.7695 67.6563 59.7695 68.3359V77.8555C59.7695 78.5352 60.3203 79.0898 61 79.0898H63.0859C63.7656 79.0898 64.3203 78.5352 64.3203 77.8555V68.3359C64.3203 67.6563 63.7656 67.1016 63.0859 67.1016ZM63.0859 68.3359V77.8555H61V68.3359H63.0859Z" fill="#9B306C"/>
<path d="M68.0508 75.3008C67.7109 75.3008 67.4375 75.0234 67.4375 74.6836V71.2188C67.4375 70.8789 67.7109 70.6016 68.0508 70.6016H97.6953C98.0352 70.6016 98.3086 70.8789 98.3086 71.2188V74.6836C98.3086 75.0234 98.0352 75.3008 97.6953 75.3008H68.0508Z" fill="#9B306C"/>
<path d="M97.6953 69.9844H68.0508C67.3711 69.9844 66.8203 70.5391 66.8203 71.2188V74.6836C66.8203 75.3633 67.3711 75.918 68.0508 75.918H97.6953C98.375 75.918 98.9258 75.3633 98.9258 74.6836V71.2188C98.9258 70.5391 98.375 69.9844 97.6953 69.9844ZM97.6953 71.2188V74.6836H68.0508V71.2188H97.6953Z" fill="#9B306C"/>
<path d="M99.8906 56.1953H55.0625C54.3828 56.1953 53.832 56.7461 53.832 57.4297V66.9492C53.832 67.6289 54.3828 68.1836 55.0625 68.1836H99.8906C100.57 68.1836 101.121 67.6289 101.121 66.9492V57.4297C101.121 56.7461 100.57 56.1953 99.8906 56.1953ZM99.8906 57.4297V66.9492H55.0625V57.4297H99.8906Z" fill="#9B306C"/>
<path d="M59.2422 67.5664C58.9023 67.5664 58.625 67.2891 58.625 66.9492V57.4297C58.625 57.0898 58.9023 56.8125 59.2422 56.8125H61.3281C61.668 56.8125 61.9414 57.0898 61.9414 57.4297V66.9492C61.9414 67.2891 61.668 67.5664 61.3281 67.5664H59.2422Z" fill="#9B306C"/>
<path d="M61.3281 56.1953H59.2422C58.5625 56.1953 58.0078 56.7461 58.0078 57.4297V66.9492C58.0078 67.6289 58.5625 68.1836 59.2422 68.1836H61.3281C62.0078 68.1836 62.5586 67.6289 62.5586 66.9492V57.4297C62.5586 56.7461 62.0078 56.1953 61.3281 56.1953ZM61.3281 57.4297V66.9492H59.2422V57.4297H61.3281Z" fill="#9B306C"/>
<path d="M61.8717 56.8281C61.6256 56.8281 61.4029 56.6797 61.3053 56.4531C61.2115 56.2227 61.2584 55.957 61.4303 55.7812C63.5162 53.6328 64.7115 50.4258 64.7115 46.9805C64.7115 43.5352 63.5162 40.3281 61.4303 38.1797C61.2584 38.0039 61.2115 37.7383 61.3053 37.5078C61.4029 37.2813 61.6256 37.1328 61.8717 37.1328H95.985C101.403 37.1328 105.809 41.5508 105.809 46.9805C105.809 52.4102 101.403 56.8281 95.985 56.8281H61.8717Z" fill="#9B306C"/>
<path d="M95.9834 36.5156H61.8701C61.374 36.5156 60.9287 36.8125 60.7373 37.2695C60.5459 37.7266 60.6436 38.2539 60.9873 38.6094C62.9639 40.6445 64.0967 43.6914 64.0967 46.9805C64.0967 50.2695 62.9639 53.3203 60.9873 55.3516C60.6436 55.707 60.5459 56.2344 60.7373 56.6914C60.9287 57.1484 61.374 57.4453 61.8701 57.4453H95.9834C101.741 57.4453 106.425 52.75 106.425 46.9805C106.425 41.2109 101.741 36.5156 95.9834 36.5156ZM95.9834 37.75C101.073 37.75 105.194 41.8828 105.194 46.9805C105.194 52.0781 101.073 56.2109 95.9834 56.2109H61.8701C63.9756 54.043 65.3271 50.7148 65.3271 46.9805C65.3271 43.2461 63.9756 39.918 61.8701 37.75H95.9834Z" fill="#9B306C"/>
<path d="M95.8976 37.6328H62.7726C62.2921 37.6328 61.8585 37.9102 61.6554 38.3438C61.4523 38.7773 61.5187 39.293 61.8273 39.6602C63.3116 41.4375 64.1632 44.1172 64.1632 47.0156C64.1632 49.9141 63.3116 52.5938 61.8273 54.375C61.5187 54.7422 61.4523 55.2539 61.6554 55.6875C61.8585 56.1211 62.2921 56.3984 62.7726 56.3984H95.8976C100.433 56.3984 104.124 52.1914 104.124 47.0156C104.124 41.8438 100.433 37.6328 95.8976 37.6328ZM95.8976 38.8672C99.7608 38.8672 102.894 42.5156 102.894 47.0156C102.894 51.5156 99.7608 55.1641 95.8976 55.1641H62.7726C64.3702 53.25 65.3937 50.3125 65.3937 47.0156C65.3937 43.7188 64.3702 40.7813 62.7726 38.8672H95.8976Z" fill="#9B306C"/>
<path d="M95.8976 37.6328H62.7726C62.2921 37.6328 61.8585 37.9102 61.6554 38.3438C61.4523 38.7773 61.5187 39.293 61.8273 39.6602C63.3116 41.4375 64.1632 44.1172 64.1632 47.0156C64.1632 49.9141 63.3116 52.5938 61.8273 54.375C61.5187 54.7422 61.4523 55.2539 61.6554 55.6875C61.8585 56.1211 62.2921 56.3984 62.7726 56.3984H95.8976C100.433 56.3984 104.124 52.1914 104.124 47.0156C104.124 41.8438 100.433 37.6328 95.8976 37.6328ZM95.8976 38.8672C99.7608 38.8672 102.894 42.5156 102.894 47.0156C102.894 51.5156 99.7608 55.1641 95.8976 55.1641H62.7726C64.3702 53.25 65.3937 50.3125 65.3937 47.0156C65.3937 43.7188 64.3702 40.7813 62.7726 38.8672H95.8976Z" fill="#9B306C"/>
<path d="M64.6562 41.6836H96.957C97.2969 41.6836 97.5742 41.4063 97.5742 41.0664C97.5742 40.7227 97.2969 40.4492 96.957 40.4492H64.6562C64.3164 40.4492 64.0391 40.7227 64.0391 41.0664C64.0391 41.4063 64.3164 41.6836 64.6562 41.6836Z" fill="#9B306C"/>
<path d="M66.2578 44.6406H96.957C97.2969 44.6406 97.5742 44.3633 97.5742 44.0234C97.5742 43.6836 97.2969 43.4062 96.957 43.4062H66.2578C65.9141 43.4062 65.6406 43.6836 65.6406 44.0234C65.6406 44.3633 65.9141 44.6406 66.2578 44.6406Z" fill="#9B306C"/>
<path d="M66.5781 47.5977H96.957C97.2969 47.5977 97.5742 47.3203 97.5742 46.9805C97.5742 46.6406 97.2969 46.3633 96.957 46.3633H66.5781C66.2383 46.3633 65.9648 46.6406 65.9648 46.9805C65.9648 47.3203 66.2383 47.5977 66.5781 47.5977Z" fill="#9B306C"/>
<path d="M66.2578 50.5547H96.957C97.2969 50.5547 97.5742 50.2812 97.5742 49.9375C97.5742 49.5977 97.2969 49.3203 96.957 49.3203H66.2578C65.9141 49.3203 65.6406 49.5977 65.6406 49.9375C65.6406 50.2812 65.9141 50.5547 66.2578 50.5547Z" fill="#9B306C"/>
<path d="M64.6562 53.5156H96.957C97.2969 53.5156 97.5742 53.2383 97.5742 52.8984C97.5742 52.5586 97.2969 52.2812 96.957 52.2812H64.6562C64.3164 52.2812 64.0391 52.5586 64.0391 52.8984C64.0391 53.2383 64.3164 53.5156 64.6562 53.5156Z" fill="#9B306C"/>
<path d="M79.6719 65.293C78.0547 65.293 63.8438 65.207 63.8438 62.1875C63.8438 59.1719 78.0547 59.082 79.6719 59.082C81.293 59.082 95.5078 59.1719 95.5078 62.1875C95.5078 65.207 81.293 65.293 79.6719 65.293Z" fill="#9B306C"/>
<path d="M79.6719 58.4648C75.5469 58.4648 71.6523 58.7305 68.7188 59.2109C64.8164 59.8477 63.2266 60.7109 63.2266 62.1875C63.2266 63.6641 64.8164 64.5273 68.7188 65.168C71.6523 65.6484 75.5469 65.9102 79.6719 65.9102C83.8008 65.9102 87.6953 65.6484 90.6328 65.168C94.5312 64.5273 96.1211 63.6641 96.1211 62.1875C96.1211 60.7109 94.5312 59.8477 90.6328 59.2109C87.6953 58.7305 83.8008 58.4648 79.6719 58.4648ZM79.6719 59.6992C88.0781 59.6992 94.8906 60.8164 94.8906 62.1875C94.8906 63.5625 88.0781 64.6758 79.6719 64.6758C71.2734 64.6758 64.457 63.5625 64.457 62.1875C64.457 60.8164 71.2734 59.6992 79.6719 59.6992Z" fill="#9B306C"/>
</svg>
