<svg width="164" height="164" viewBox="0 0 164 164" fill="none" xmlns="http://www.w3.org/2000/svg">
<path d="M22.274 120.265C20.6552 121.726 18.8155 122.843 18.6288 125.384C18.4562 127.728 20.1297 129.185 21.1638 130.942C22.2447 132.79 23.1847 133.556 25.4928 134.893C33.6569 139.632 43.6554 142.669 52.9909 146.304C61.0687 149.452 68.8617 152.436 77.2536 155.645C80.5291 156.894 84.3919 158.58 87.8345 157.887C91.4661 157.156 95.5476 153.727 98.4441 151.507C102.1 148.71 105.012 147.186 108.716 144.717C113.754 141.361 118.569 137.81 123.43 133.77C124.391 132.97 127.241 130.75 127.643 129.339C128.343 126.877 126.852 123.996 126.804 121.908C126.501 121.473 127.522 121.737 127.731 121.484C130.966 120.31 131.184 116.059 131.715 111.324C133.33 96.9199 133.027 83.5863 134.028 69.686C134.432 64.0591 134.022 58.5191 135.159 53.2991C132.92 47.5274 125.119 47.4954 117.973 45.6291C107.177 42.8108 96.7069 39.8369 85.31 37.9263C78.0682 36.7143 70.9685 35.7601 63.0747 35.4985C58.3527 35.3397 53.8527 35.3435 52.4426 39.3383C50.861 43.8225 51.7045 50.1327 51.5918 54.0971C51.3109 63.8285 51.6291 73.6111 51.4429 83.2565C51.3116 89.994 50.9287 96.6767 53.7652 100.719C46.715 103.125 41.1666 106.624 34.9383 110.905C32.2373 112.76 29.3421 114.794 26.3831 116.965C25.1169 117.898 23.6562 119.015 22.274 120.265ZM130.201 112.582C129.771 116.399 129.756 119.685 126.465 120.1C128.933 109.43 129.443 98.7563 130.496 87.3673C130.906 82.9211 131.089 78.7896 131.46 75.5358C131.972 71.0004 132.424 66.7041 132.149 62.5343C131.885 58.5393 132.233 54.7229 131.43 51.057C131.512 51.0646 131.598 51.0725 131.68 51.0801C134.227 52.5699 133.485 55.0592 133.138 58.6942C132.763 62.6383 133.006 65.3999 132.712 68.8029C132.559 70.5848 132.71 72.4657 132.616 73.9925C131.846 86.3352 131.631 99.9764 130.201 112.582ZM127.113 111.662C126.762 114.57 126.541 117.613 125.08 119.973C112.741 117.103 100.965 113.136 88.3012 110.114C82.7782 108.796 76.3357 106.663 70.2113 105.404C67.2016 104.784 63.7008 104.224 60.7889 103.013C58.1541 101.921 55.0565 100.499 53.974 98.4532C52.2461 95.1876 52.5471 88.1935 52.6647 83.748C52.8046 78.4599 52.5666 72.8607 52.5907 68.0159C52.6174 63.0568 52.8726 57.5031 52.7715 52.3033C52.6677 47.0046 52.6065 41.4572 54.9847 37.9226C58.1722 36.8704 62.3873 36.8325 66.5951 37.2162C71.0295 37.6249 75.6186 37.8543 79.6831 38.4222C88.3693 39.6371 96.9486 41.5841 105.06 43.9341C113.18 46.2848 121.437 47.6574 129.636 49.8773C131.422 51.8772 130.913 54.8262 130.953 57.6047C130.994 60.4583 131.162 63.5565 131.147 66.5036C131.118 72.4295 130.255 78.7562 129.791 84.0065C129.53 86.9309 129.407 89.9747 129.207 93.0863C129.015 96.0684 128.524 99.1256 128.248 102.128C127.954 105.313 127.495 108.539 127.113 111.662ZM125.567 124.328C125.288 125.893 122.779 127.596 121.365 128.634C119.65 129.893 118.159 131.346 116.818 132.529C109.092 139.352 101.089 144.476 92.1335 149.785C90.5595 150.717 87.9629 152.381 86.4349 152.429C85.1797 152.471 83.4774 151.841 81.835 151.374C77.3309 150.094 73.1692 148.353 69.5534 146.942C63.9525 144.757 58.9789 143.26 52.9649 141.104C45.1016 138.283 36.6947 134.809 28.6863 131.892C26.4106 131.059 22.413 129.936 21.0157 128.394C17.3625 124.348 23.5824 120.887 26.3345 118.863C31.8341 114.823 36.0016 111.788 41.5175 108.342C46.0787 105.49 49.7019 103.479 54.9212 101.967C54.9332 101.751 55.0447 101.654 55.2063 101.614C57.4411 102.72 60.4659 104.42 63.3703 105.283C65.9137 106.039 68.7235 106.301 71.4656 106.913C74.0761 107.497 76.6156 108.296 79.1423 109.018C84.2039 110.459 89.4828 111.684 94.523 112.843C99.7059 114.039 103.935 115.688 109.607 117.15C113.119 118.057 117.197 119.298 120.858 120.345C123.9 121.214 126.191 120.805 125.567 124.328ZM122.113 132.891C120.42 134.302 118.876 135.557 117.453 136.645C110.838 141.696 104.049 145.215 97.554 150.158C96.0641 151.292 94.4769 152.539 92.6664 153.639C90.9143 154.705 88.9992 156.171 87.2064 156.436C86.0383 156.604 84.7075 156.268 83.6839 156.111C80.0881 155.555 76.988 153.986 73.7241 152.655C71.2212 151.631 68.6353 150.694 66.1206 149.8C61.1025 148.015 56.146 145.861 51.0508 143.97C40.7377 140.151 30.1898 136.866 22.8074 130.967C38.0241 137.13 55.1907 143.164 71.0387 148.729C73.3172 149.531 75.3346 150.684 77.511 151.481C78.7975 151.954 80.461 152.321 82.0874 152.79C83.6906 153.254 85.3005 153.86 86.8197 153.736C87.5358 153.675 88.5735 152.993 89.6008 152.468C92.4835 150.997 95.1686 149.358 97.5119 147.873C107.934 141.255 117.381 134.215 126.046 126.022C126.061 125.948 126.075 125.875 126.183 125.908C127.331 129.598 124.247 131.114 122.113 132.891Z" fill="#9B306C"/>
<path d="M12.3747 25.245C11.4583 24.7383 11.1803 26.2126 11.6729 27.3355C12.3581 28.8946 14.8836 31.4719 15.8785 32.6688C19.8759 37.4776 23.7405 41.8005 27.6783 46.4421C28.9817 47.9752 30.5295 49.7678 32.0207 51.6616C32.4624 52.2233 33.0774 53.2589 33.5179 53.3192C34.9826 53.5292 35.8628 50.2316 36.2089 48.8741C36.8071 46.5372 37.1968 44.793 37.7593 43.0568C41.3489 42.9534 43.5061 46.1006 46.7042 45.148C47.3244 42.6159 44.9236 41.5973 44.0093 39.954C41.1324 36.6496 38.3986 33.3347 35.4071 30.0316C34.4469 28.9722 33.542 27.527 31.9913 27.1789C30.4869 29.9256 31.2509 34.0142 30.779 37.5942C25.014 33.6763 19.0377 28.9259 12.3747 25.245ZM36.8692 41.7077C35.7559 44.8378 35.1751 48.613 33.817 51.4443C31.9097 49.6542 30.3675 47.5859 28.6401 45.6426C23.4266 39.7665 18.1329 34.0764 13.677 27.6465C16.9333 29.4464 19.8393 31.6207 22.7633 33.686C25.7427 35.792 28.5576 38.0131 31.5645 40.0782C32.7627 36.7981 31.4921 32.6391 32.8233 29.1581C36.9887 33.9429 41.4444 38.4901 45.0587 43.7294C42.241 43.2526 39.6232 41.1208 36.8692 41.7077Z" fill="#9B306C"/>
<path d="M43.5657 21.3988C44.2419 20.4428 44.712 19.2388 45.7187 18.6803C46.5912 20.4342 47.5496 22.1132 47.9993 24.2151C46.4799 23.3133 44.8582 22.4928 43.5657 21.3988ZM43.6489 19.125C43.2914 19.621 41.921 20.7854 42.0088 21.7606C42.0867 22.6282 43.9192 23.3457 44.8565 23.9255C46.6141 25.0268 47.7581 25.6335 48.7617 26.9496C49.7969 26.9819 50.7641 26.9368 50.6618 25.6051C50.5574 25.1534 50.0305 25.0456 49.5888 24.8707C48.734 22.5816 47.8623 18.3765 46.143 16.8169C45.3237 16.0704 43.944 18.7062 43.6489 19.125Z" fill="#9B306C"/>
<path d="M28.14 84.1525C27.243 85.2776 29.8699 87.2249 30.9467 88.0898C33.5415 90.1722 35.8397 91.8326 38.2606 94.0884C39.1368 94.9033 40.8533 97.264 41.7825 97.2035C43.0808 97.1219 43.0981 94.2776 43.5388 93.3077C44.8752 92.5546 46.0957 93.4447 46.5469 92.3179C46.9321 91.3508 45.48 89.4605 44.7421 88.4729C43.9694 87.4346 42.3916 85.7104 41.5652 85.7685C40.4047 85.8549 40.6173 87.4455 40.1561 88.6818C36.2602 87.5255 32.2332 85.7375 29.169 83.9947C29.0079 83.9009 28.4453 83.8806 28.14 84.1525ZM44.8437 91.5255C44.179 91.8431 43.2012 91.7886 42.6217 92.2088C42.1083 92.9825 42.1233 94.4049 41.5883 95.1568C38.4764 92.5176 35.3517 89.889 32.2997 87.2001C34.9524 88.4392 37.5924 89.6889 40.8859 90.399C41.4742 89.7546 41.2414 88.1266 42.0215 87.713C43.1247 88.8488 44.3048 89.9206 44.8437 91.5255Z" fill="#9B306C"/>
<path d="M65.6555 136.947C64.878 138.059 64.5026 139.777 63.2131 140.021C61.7146 140.306 59.555 139.412 58.1011 139.041C52.8515 137.713 48.7981 135.054 45.5941 132.943C45.7295 131.988 46.1245 131.342 46.4443 130.614C50.7509 129.925 54.7152 131.837 58.5205 133.12C61.2999 134.055 64.238 135.024 65.6555 136.947ZM44.5537 133.226C48.7438 136.671 53.7663 139.222 60.3533 140.772C61.6475 141.077 62.8087 141.069 64.0241 140.858C65.1959 139.75 66.0336 138.241 66.7075 136.538C65.3754 134.075 60.8076 132.715 57.2662 131.611C54.17 130.643 51.4159 129.347 48.8612 129.186C46.1847 129.019 44.8699 130.693 44.5537 133.226Z" fill="#9B306C"/>
<path d="M125.115 100.317C124.641 105.46 123.834 110.62 122.969 115.34C120.228 115.79 117.594 114.469 114.87 113.705C106.547 111.379 97.6862 109.659 89.3462 107.043C86.7951 106.244 83.9598 105.529 81.1802 104.767C78.4542 104.023 75.8326 102.917 73.1544 102.382C70.2596 101.799 67.7738 101.148 64.7148 100.333C61.9291 99.5948 58.4809 98.7205 57.2712 97.1131C55.8647 95.2428 56.1962 90.746 55.8858 87.3466C55.292 80.8107 55.4287 75.5579 55.747 69.5757C56.1022 62.8944 55.7021 58.0697 56.1363 51.6009C56.3596 48.2349 56.2528 43.9543 57.541 41.8389C58.8793 40.4228 60.5348 40.0622 63.1624 40.0754C69.9847 40.1002 77.115 40.7651 84.0353 42.1251C91.9407 43.6745 99.3185 46.6239 106.792 48.5322C110.787 49.5555 114.736 50.3496 118.583 51.3949C120.466 51.9078 122.242 52.632 124.13 53.1731C125.849 53.6669 127.832 53.6484 129.31 54.7949C128.354 59.2579 128.777 64.5584 128.47 69.4285C128.123 74.9146 127.608 80.3338 127.101 85.6631C126.63 90.5971 125.599 95.0254 125.115 100.317ZM67.5795 38.9589C66.3586 38.8858 65.0692 39.0867 63.756 39.1157C60.9562 39.1735 58.4689 39.0509 56.8433 41.1431C55.5496 42.804 55.438 45.6001 55.3969 48.6159C55.3351 52.6283 54.8896 56.3923 54.8084 60.4859C54.7572 63.0981 55.0317 66.1587 54.8895 69.2441C54.6028 75.5252 54.5946 81.3543 54.9821 87.5159C55.2279 91.3594 54.7808 96.0824 56.7758 98.3345C58.0238 99.7402 61.4886 100.691 64.3601 101.441C67.4201 102.244 70.3424 103.086 73.0387 103.638C75.7005 104.179 78.3779 105.322 81.1932 106.039C84.0971 106.781 87.0547 107.539 89.6101 108.335C97.9437 110.934 106.719 112.169 115.27 114.887C117.33 115.538 121.717 117.447 123.393 116.267C124.186 115.708 124.52 113.545 124.725 111.444C125.587 102.559 126.796 95.8699 128.002 86.8869C128.469 83.413 128.791 79.6179 128.976 76.3233C129.193 72.42 129.4 68.5906 129.287 64.6843C129.18 61.0036 130.099 57.0662 129.79 53.6945C128.3 52.606 126.508 52.6461 124.849 52.2249C122.847 51.7207 120.937 50.8223 118.938 50.2868C116.961 49.7574 114.962 49.3482 112.98 48.8497C108.941 47.8303 104.939 46.5852 100.961 45.7135C98.9187 45.2648 97.0192 44.3753 95.0496 43.7754C86.1667 41.0544 76.7767 39.5103 67.5795 38.9589Z" fill="#9B306C"/>
<path d="M58.9488 4.55506C58.9309 4.02055 57.8382 3.97117 57.5748 4.30215C57.0684 10.1406 59.2163 17.0723 59.1201 23.3433C59.105 24.2774 58.6394 26.2041 59.4606 26.5442C60.3313 26.9047 61.5559 25.3519 62.0143 25.0033C62.9564 24.2889 63.4449 23.7418 64.3251 23.3138C65.6602 24.7591 66.102 26.947 67.1337 28.6446C67.2174 29.1496 67.085 30.9294 68.4591 30.7955C69.4267 30.7031 69.1518 29.7029 69.1569 28.7047C69.173 26.3458 69.1688 22.1931 69.419 18.9637C69.5481 17.3494 70.5618 13.9299 69.5417 13.5201C68.5248 13.1185 67.252 14.809 66.726 15.1632C65.8292 15.7713 65.09 16.2123 64.0355 16.8178C62.9384 12.2327 60.1442 9.05835 58.9488 4.55506ZM65.0038 21.4738C63.0517 21.9689 62.0843 23.6441 60.2992 24.3401C60.4583 18.7577 59.0217 13.573 58.9884 8.23742C60.9285 11.3844 62.0729 15.2002 63.4744 18.7949C64.7901 18.1819 66.3124 17.2525 67.4905 16.5046C67.8509 16.2773 68.2274 15.6607 68.5544 15.9671C68.2832 18.6538 68.225 24.0402 67.9027 27.1958C66.9335 25.2908 66.3409 23.0693 65.0038 21.4738Z" fill="#9B306C"/>
<path d="M92.8175 132.724C94.3925 131.267 96.3832 130.31 98.3352 129.302C100.057 130.273 102.122 130.953 104.212 131.619C102.419 132.954 100.374 133.989 98.3186 135.008C96.8196 133.969 94.4361 133.663 92.8175 132.724ZM87.7101 135.806C88.8424 134.699 90.1914 133.852 91.7535 133.262C93.2183 134.328 95.4226 134.78 97.1139 135.658C95.7334 136.419 94.3564 137.184 92.9723 137.941C91.4236 137.056 89.1779 136.755 87.7101 135.806ZM91.149 121.917C88.3705 121.014 85.746 119.983 83.4513 118.67C85.0134 117.867 86.3128 116.573 87.9166 115.659C88.2207 115.486 89.6258 116.216 90.1362 116.373C92.3559 117.043 94.3153 117.54 96.1733 118.323C94.7698 119.847 92.9114 120.825 91.149 121.917ZM82.4569 128.091C79.8094 126.967 76.9577 126.002 74.6607 124.586C75.5028 124.186 76.1661 123.584 76.96 123.022C77.517 122.631 79.0661 121.369 79.6273 121.618C81.709 122.544 84.6492 123.789 87.3484 124.61C85.9276 126.023 84.123 126.974 82.4569 128.091ZM82.3548 118.19C79.4904 116.936 76.0799 116.124 73.2752 114.82C74.6785 114.669 76.2906 111.695 77.8315 112.192C80.3076 112.993 83.7551 114.431 86.6953 115.164C85.4543 116.423 83.8655 117.26 82.3548 118.19ZM64.7589 120.5C66.151 119.571 67.6182 118.727 68.9467 117.717C72.0065 118.737 74.8657 119.92 77.9126 120.95C76.585 122.379 74.8412 123.312 73.0481 124.181C69.9337 123.026 67.4472 122.039 64.7589 120.5ZM59.0579 124.542C60.3704 123.234 62.0632 122.383 63.5466 121.277C66.2595 122.505 68.7544 123.916 71.8474 124.832C70.6615 125.923 69.3867 126.906 68.1371 127.916C65.2687 126.661 62.0417 125.701 59.0579 124.542ZM57.1785 117.394C57.6316 116.717 58.3579 116.461 59.0905 115.92C59.5268 115.597 60.761 114.326 61.3667 114.606C63.1801 115.444 66.001 116.229 67.8387 117.362C66.304 118.168 65.0536 119.316 63.408 119.997C61.4139 119.063 59.1808 118.324 57.1785 117.394ZM45.8512 119.141C46.8288 117.613 48.2857 116.665 49.7213 115.692C51.2993 116.43 53.2574 116.855 54.741 117.675C53.4124 118.685 52.4072 120.084 51.1213 121.146C49.2691 120.557 47.6178 119.801 45.8512 119.141ZM41.228 121.123C39.2394 120.343 35.0708 119.107 38.1669 117.162C40.0118 117.873 42.5061 118.047 43.6756 119.319C42.9616 120.043 42.1197 120.613 41.228 121.123ZM110.429 127.499C107.98 127.565 106.003 126.748 103.705 126.118C104.247 124.81 106.463 124.319 107.528 123.174C109.799 124.192 112.433 124.905 114.767 125.87C113.444 126.565 112.146 127.286 110.884 128.05C110.752 127.849 110.826 127.476 110.429 127.499ZM109.558 128.69C108.121 129.335 106.968 130.322 105.538 130.98C103.441 130.005 101.392 129.706 99.4106 128.639C100.441 128.126 101.148 126.964 102.363 126.882C104.456 126.743 107.075 128.777 109.558 128.69ZM106.569 122.576C105.95 123.21 105.21 123.612 104.391 124.152C103.773 124.565 102.799 125.493 102.103 125.591C100.676 125.787 98.5548 124.862 97.0143 124.36C95.2973 123.804 93.7503 122.986 92.3588 122.538C93.9661 121.115 95.9853 120.192 97.5357 118.701C100.85 119.74 103.583 121.263 106.569 122.576ZM100.75 126.481C99.9806 126.951 99.041 127.981 98.0713 128.01C97.5329 128.028 96.6959 127.473 95.8671 127.172C93.6633 126.373 91.064 125.367 89.6683 124.193C90.3107 124.161 90.768 122.968 91.5223 123.349C93.8541 124.515 97.8719 125.762 100.75 126.481ZM96.8475 128.912C96.0024 129.473 95.1343 129.855 94.1686 130.441C93.4706 130.862 92.3722 131.945 91.4897 131.971C90.3858 131.999 88.7672 130.974 87.5708 130.465C86.2374 129.9 84.951 129.339 83.7959 128.724C84.4345 127.961 85.1907 127.423 86.1298 126.784C86.7239 126.376 88.4091 124.965 89.0631 125.278C91.3236 126.362 94.2393 127.874 96.8475 128.912ZM91.7676 138.592C89.7225 140.397 85.9045 139.338 83.5685 138.089C84.4783 137.553 85.3349 136.953 86.2589 136.434C88.023 137.209 89.8804 137.913 91.7676 138.592ZM90.1641 132.606C89.188 133.175 87.5751 135.044 86.3866 135.049C84.3486 135.062 81.756 132.1 79.6868 132.024C79.9185 131.394 80.5054 131.065 81.0824 130.629C81.498 130.316 82.549 129.319 82.9594 129.535C84.7627 130.482 87.9548 131.866 90.1641 132.606ZM89.9097 122.944C88.9148 124.06 88.1705 123.699 86.5951 123.148C84.4115 122.386 81.7475 121.612 80.6122 120.568C81.1805 120.225 81.6814 119.802 82.3524 119.587C84.7803 120.782 87.5416 121.7 89.9097 122.944ZM85.0336 135.939C83.8163 136.213 83.3898 137.544 82.2179 137.582C80.5706 137.639 78.9394 135.638 77.0846 135.463C77.6066 134.552 78.0324 133.529 78.8388 132.96C81.1804 133.72 83.1921 134.762 85.0336 135.939ZM81.3699 128.879C80.3322 129.774 79.4296 130.832 78.211 131.505C75.8496 130.06 72.0707 129.305 69.4841 128.419C70.5 127.033 71.96 126.18 73.4484 125.362C75.9335 126.665 78.7349 127.705 81.3699 128.879ZM81.1426 118.967C79.5917 121.062 77.3058 119.568 74.7007 118.626C73.0617 118.036 71.5403 117.328 70.2881 116.952C70.7397 116.378 71.3867 116.039 72.0514 115.721C75.1818 116.917 77.9881 117.733 81.1426 118.967ZM77.625 132.339C77.2588 133.529 76.6474 134.424 75.734 134.955C66.8853 131.393 57.9638 127.891 49.1838 124.267C50.0464 123.344 50.6728 122.415 52.1056 122.887C54.0555 123.528 55.9889 124.693 58.2098 125.478C62.4909 126.993 66.9223 128.763 71.1061 130.092C73.3806 130.811 75.6651 131.377 77.625 132.339ZM75.8429 111.756C74.3628 112.398 73.5043 114.304 71.7879 114.426C69.4872 114.593 67.2258 112.49 64.7565 112.258C65.8616 110.975 67.4954 110.336 68.831 109.334C71.1508 110.16 74.1895 110.38 75.8429 111.756ZM71.7969 108.846C66.0912 108.012 59.6231 105.213 53.8533 105.29C49.6721 105.346 46.4949 108.685 43.7006 110.823C42.4013 111.817 41.183 112.873 40.1156 113.919C39.066 114.943 37.562 115.973 36.7698 117.159C36.4076 117.706 35.9453 118.654 35.9543 119.113C36.0007 120.751 39.7714 121.809 41.7305 122.566C53.0543 126.941 63.4664 131.315 74.8975 135.766C76.9096 136.548 79.0922 137.534 81.3699 138.518C83.332 139.37 86.3351 140.748 88.3933 140.815C90.8642 140.901 93.8585 138.69 95.9227 137.577C100.811 134.949 105.114 132.2 109.841 129.73C112.147 128.522 114.445 127.313 116.677 125.793C116.585 124.818 115.187 125.644 115.134 124.637C111.351 123.791 108.017 122.063 104.602 120.493C101.178 118.922 97.6201 117.785 93.9327 116.466C86.6605 113.87 79.1697 111.763 71.7734 109.1C71.7808 108.891 72.0314 108.571 71.7969 108.846ZM70.4389 115.316C70.1481 115.944 69.4167 116.043 68.9372 116.449C66.9123 115.421 64.5368 114.685 62.3281 113.811C62.526 113.462 63.0254 113.054 63.4194 113.019C65.2611 112.865 68.4266 115.308 70.4389 115.316ZM67.2335 108.808C67.0985 109.545 66.1951 109.754 65.4468 110.293C64.8513 110.716 64.0743 111.694 63.2807 111.74C61.5145 111.845 59.2541 109.904 57.3689 109.801C58.2253 108.732 59.6709 108.379 60.5202 107.301C62.9434 107.647 64.9987 108.302 67.2335 108.808ZM62.3094 120.91C61.5022 121.317 60.8201 121.909 60.0102 122.474C59.3442 122.934 58.3364 123.848 57.5933 123.901C55.6157 124.031 54.2437 122.172 52.1983 121.881C52.6241 121.071 53.2705 120.653 54.0312 119.895C54.5449 119.373 55.4935 117.775 56.4672 118.216C58.1576 118.976 60.5168 119.975 62.3094 120.91ZM61.9432 112.504C61.1826 113.863 59.6956 112.866 58.018 112.395C56.9021 112.083 55.7969 111.784 55.0581 111.491C56.5904 109.426 59.4773 112.451 61.9432 112.504ZM59.5148 114.057C58.7766 114.83 56.9811 116.709 55.8395 116.761C55.2566 116.791 54.0172 116.191 53.2557 115.888C52.3985 115.552 51.617 114.995 50.6831 114.893C51.9102 114.213 52.5955 112.472 54.0848 112.416C55.7446 112.352 57.4752 114.003 59.5148 114.057ZM59.021 107.037C58.0321 107.573 57.4261 109.053 56.1591 109.181C55.4178 109.259 54.1468 108.573 53.1953 108.276C52.1559 107.947 51.1267 107.722 50.5093 107.141C52.5416 105.946 56.3832 106.363 59.021 107.037ZM54.9238 110.208C53.1993 111.959 50.3404 109.359 48.0463 109.069C48.1125 108.479 48.7338 108.161 49.274 108.167C50.3586 108.177 53.7811 109.972 54.9238 110.208ZM52.4838 111.885C51.685 112.972 50.452 113.545 49.4617 114.398C47.3041 113.867 45.1979 113.294 43.4207 112.448C44.5837 111.821 45.3252 110.113 46.6972 109.959C47.4072 109.878 48.1222 110.43 48.788 110.657C50.0696 111.098 51.3595 111.407 52.4838 111.885ZM49.909 121.922C49.4628 122.781 48.4513 122.964 48.0761 123.909C46.2443 123.227 44.5967 122.388 42.8291 121.653C43.3929 120.931 44.031 120.303 44.8897 119.936C46.5101 120.642 48.2117 121.281 49.909 121.922ZM48.0853 115.542C47.0187 116.537 45.8163 117.377 44.7781 118.406C43.2022 117.389 41.0404 116.862 39.1518 116.112C40.0815 115.917 41.4195 112.962 42.5766 113.384C44.1039 113.943 46.4679 114.761 48.0853 115.542Z" fill="#9B306C"/>
<path d="M117.012 34.0009C116.754 35.5126 116.218 37.1801 116.872 38.3022C119.038 38.0636 119.71 36.0336 121.804 35.7095C122.657 36.4393 123.074 37.3106 123.975 38.3212C124.494 38.9058 125.594 40.59 126.432 40.5764C128.057 40.5485 127.939 35.0985 128.223 33.5143C128.64 31.216 129.518 28.8892 128.932 27.2366C127.213 27.2203 126.563 28.4866 124.993 28.6498C124.556 26.2413 123.818 23.5761 123.172 20.872C122.525 18.1639 121.395 15.6047 121.077 13.3215C121.017 12.9015 120.741 12.6788 119.992 12.7163C118.138 16.9821 118.648 23.226 117.855 29.0065C117.628 30.6553 117.293 32.3611 117.012 34.0009ZM122.346 33.9871C120.613 34.3722 119.58 35.5993 117.962 36.1172C119.261 29.9018 119.344 22.8244 120.423 16.3045C121.914 20.6377 122.815 25.4652 123.837 30.1892C125.693 30.4708 126.485 29.4623 127.748 29.03C127.33 32.4097 126.643 35.5435 126.265 38.2796C124.464 37.2571 123.698 35.3748 122.346 33.9871Z" fill="#9B306C"/>
<path d="M134.541 40.6871C134.138 41.6328 132.814 42.6753 134.012 43.6816C135.644 43.6662 136.044 41.8124 136.944 40.7822C138.722 38.7475 140.584 37.1311 142.693 34.8427C143.394 34.0902 145.342 32.4856 145.397 31.6697C145.487 30.3123 141.986 27.7832 139.671 27.716C137.632 29.7582 136.85 33.6175 135.773 36.9956C135.585 37.5783 135.163 38.1315 134.981 38.6988C134.766 39.3579 134.801 40.0875 134.541 40.6871ZM143.761 31.519C142.381 33.9968 139.975 35.7724 138.239 37.7321C137.666 38.3858 137.098 39.19 136.304 39.4563C137.591 36.2435 138.296 32.014 140.174 29.1596C141.852 29.5431 142.631 30.6767 143.761 31.519Z" fill="#9B306C"/>
<path d="M137.221 117.666C137.034 118.79 134.165 119.642 134.356 121.207C134.441 121.914 136.729 122.831 137.591 123.281C139.093 124.071 139.972 124.472 141.1 125.128C142.082 125.696 143.065 126.549 144.335 127.203C145.443 127.77 147.856 128.609 148.237 127.562C148.534 126.741 145.398 123.164 145.002 122.697C143.729 121.183 142.467 120.443 141.679 118.839C142.056 117.839 145.308 117.835 145.104 116.111C144.908 114.467 138.213 114.825 136.25 114.407C135.803 114.891 135.558 115.622 135.427 116.486C135.834 117.041 136.621 117.271 137.221 117.666ZM142.666 116.396C141.764 117.362 140.123 117.523 139.895 118.927C141.594 121.389 144.425 123.528 145.582 126.046C142.441 124.324 139.463 122.463 136.164 120.868C136.808 119.27 138.398 118.809 139.381 117.612C138.987 116.7 137.615 116.601 137.144 115.756C139.387 115.963 140.332 116.117 142.666 116.396Z" fill="#9B306C"/>
<path d="M144.342 52.7541C142.478 53.1151 139.21 53.1496 139.112 54.4273C139.052 55.2468 140.573 55.9632 141.216 56.3974C142.23 57.0868 142.979 57.44 143.731 58.0224C143.102 59.8315 141.443 60.397 140.922 62.3304C142.299 63.1086 144.22 62.9462 146.069 62.931C147.823 62.9189 149.695 62.6415 151.422 62.6664C153.409 62.6916 155.299 63.0868 156.995 62.797C157.684 62.6829 159.405 62.0837 159.525 61.5105C159.811 60.1277 155.773 59.0058 154.458 58.6319C152.027 57.9461 150.242 57.5251 148.421 56.6823C148.919 55.3072 149.428 54.5766 150.245 53.4243C150.44 53.1502 151.515 51.548 150.156 51.64C148.282 51.7672 146.87 52.2647 144.342 52.7541ZM154.833 61.4571C150.98 61.4257 146.911 61.4613 142.901 61.4984C143.588 59.9986 144.993 59.3545 145.311 57.4101C144.289 56.2424 142.485 55.7289 141.515 54.5224C143.992 54.2415 146.05 53.4601 148.609 53.2735C148.347 54.7019 146.885 55.104 146.914 56.5435C146.938 57.8719 148.896 58.4707 150.376 58.8913C152.8 59.5804 155.69 60.2059 157.169 60.9106C156.704 61.59 155.547 61.4637 154.833 61.4571Z" fill="#9B306C"/>
</svg>
