<svg width="51" height="53" viewBox="0 0 51 53" fill="none" xmlns="http://www.w3.org/2000/svg">
<path fill-rule="evenodd" clip-rule="evenodd" d="M37.6685 9.77223C41.0858 11.6772 43.6126 15.177 44.4484 18.999C45.2563 22.6938 43.8378 26.472 42.0492 29.8043C40.4658 32.7543 37.9114 34.9583 34.9975 36.607C32.2982 38.1343 29.1904 38.0146 26.1851 38.7804C21.6238 39.9427 17.1691 44.1293 12.8535 42.2499C8.63048 40.4108 6.87813 34.8781 6.65947 30.2772C6.46091 26.099 9.73604 22.8099 11.7555 19.1469C13.3851 16.191 14.4796 12.8241 17.302 10.9731C20.0896 9.14498 23.5707 9.41226 26.8984 9.21605C30.5771 8.99915 34.4499 7.97801 37.6685 9.77223Z" fill="#F8F8F8" stroke="#2C292D"/>
<path d="M29.08 18.05L28.78 17.21L28.3 16.64L27.82 15.8L27.55 15.53L26.11 15.17H25.27L24.28 15.38L23.2 15.98L22.6 17.03L22.21 17.84L22 18.53L21.88 19.55L21.97 20.06L21.82 20.18L21.97 20.24L22.39 20.27L22.78 20.12L23.14 19.76L23.53 18.77L23.5 18.56L23.29 18.35L23.26 18.08L23.59 17.78L24.13 17.06L25.54 16.4L25.72 16.55L26.8 17.12L27.01 17.3L27.07 17.54V17.9L27.16 18.5L27.58 19.94V20.66L27.31 21.98L26.95 23.18L26.89 23.45L26.47 24.53L26.23 24.86L25.96 25.07L25.66 25.55L25.42 26.18L25.39 26.39L24.97 27.38L24.58 27.74L24.31 28.19L24.07 28.85L23.98 29.84L24.13 30.44L24.34 30.68L24.64 30.8L24.88 30.62L25.12 30.2L26.17 27.68L26.44 27.08L27.04 26L27.46 25.64L28.21 24.05L28.42 23.78L28.51 23.36L28.39 22.4V21.77L28.48 21.71L28.57 21.74L28.63 21.86L28.75 21.92L28.96 21.59L29.02 21.23V19.4L28.96 18.89L29.05 18.53L29.08 18.05ZM28.84 18.5L28.57 18.14L28.54 17.9L28.63 18.05H28.72L28.81 17.96L28.87 17.99L28.9 18.26L28.84 18.5ZM28.54 19.91H28.45H28.54ZM28.66 20.75L28.69 20.78L28.66 20.75ZM25.9 34.88L25.87 34.67L25.78 34.55L25.54 34.4L25.42 34.13L25.39 33.89L25.21 33.59L24.55 33.32L24.25 33.26L23.86 33.53L23.77 33.71V33.83L23.65 34.01L23.56 34.37L23.59 34.52L23.5 34.73L23.44 34.7L23.41 34.76L23.59 35.33L23.86 35.66L24.16 35.84H24.46L24.52 35.9H25.15L25.63 35.81L25.9 35.45V35.3V34.88ZM24.31 33.89L24.25 33.68L24.31 33.89ZM24.04 34.34L24.01 34.43L23.95 34.37L24.04 34.34ZM25.06 34.55L24.97 34.61L24.94 34.55H25.06ZM24.43 34.73V34.82L24.34 34.76L24.43 34.73Z" fill="#E02F2F"/>
<path d="M29.08 18.05L30.0781 18.1124L30.0909 17.9072L30.0218 17.7137L29.08 18.05ZM28.78 17.21L29.7218 16.8737L29.6611 16.7038L29.5449 16.5659L28.78 17.21ZM28.3 16.64L27.4318 17.1361L27.4767 17.2148L27.5351 17.2841L28.3 16.64ZM27.82 15.8L28.6883 15.3039L28.6218 15.1876L28.5271 15.0929L27.82 15.8ZM27.55 15.53L28.2571 14.8229L28.0613 14.627L27.7926 14.5599L27.55 15.53ZM26.11 15.17L26.3526 14.1999L26.2331 14.17H26.11V15.17ZM25.27 15.17V14.17H25.1651L25.0625 14.1918L25.27 15.17ZM24.28 15.38L24.0725 14.4018L23.9256 14.4329L23.7944 14.5058L24.28 15.38ZM23.2 15.98L22.7144 15.1058L22.4703 15.2414L22.3318 15.4839L23.2 15.98ZM22.6 17.03L21.7318 16.5339L21.7143 16.5644L21.699 16.5962L22.6 17.03ZM22.21 17.84L21.309 17.4062L21.2757 17.4754L21.2534 17.5488L22.21 17.84ZM22 18.53L21.0434 18.2388L21.0173 18.3244L21.0069 18.4132L22 18.53ZM21.88 19.55L20.8869 19.4332L20.8697 19.5791L20.8952 19.7238L21.88 19.55ZM21.97 20.06L22.5947 20.8409L23.0579 20.4703L22.9548 19.8862L21.97 20.06ZM21.82 20.18L21.1953 19.3991L19.8553 20.4711L21.4486 21.1085L21.82 20.18ZM21.97 20.24L21.5986 21.1685L21.7433 21.2264L21.8988 21.2375L21.97 20.24ZM22.39 20.27L22.3188 21.2675L22.541 21.2833L22.749 21.2033L22.39 20.27ZM22.78 20.12L23.139 21.0533L23.3371 20.9772L23.4871 20.8271L22.78 20.12ZM23.14 19.76L23.8471 20.4671L23.9942 20.32L24.0704 20.1265L23.14 19.76ZM23.53 18.77L24.4604 19.1365L24.5574 18.8904L24.52 18.6286L23.53 18.77ZM23.5 18.56L24.49 18.4186L24.4428 18.0886L24.2071 17.8529L23.5 18.56ZM23.29 18.35L22.2961 18.4604L22.3349 18.8091L22.5829 19.0571L23.29 18.35ZM23.26 18.08L22.5874 17.3401L22.2098 17.6833L22.2661 18.1904L23.26 18.08ZM23.59 17.78L24.2627 18.5199L24.333 18.456L24.39 18.38L23.59 17.78ZM24.13 17.06L23.7061 16.1543L23.4799 16.2602L23.33 16.46L24.13 17.06ZM25.54 16.4L26.1802 15.6318L25.6918 15.2248L25.1161 15.4943L25.54 16.4ZM25.72 16.55L25.0798 17.3182L25.1605 17.3854L25.2533 17.4344L25.72 16.55ZM26.8 17.12L27.4508 16.3607L27.3658 16.2879L27.2668 16.2356L26.8 17.12ZM27.01 17.3L27.9802 17.0575L27.9029 16.7482L27.6608 16.5407L27.01 17.3ZM27.07 17.54H28.07V17.4169L28.0402 17.2975L27.07 17.54ZM27.07 17.9H26.07V17.9746L26.0811 18.0483L27.07 17.9ZM27.16 18.5L26.1711 18.6483L26.1811 18.7151L26.2 18.78L27.16 18.5ZM27.58 19.94H28.58V19.7971L28.54 19.66L27.58 19.94ZM27.58 20.66L28.5597 20.8604L28.58 20.7612V20.66H27.58ZM27.31 21.98L28.2679 22.2673L28.2808 22.2244L28.2897 22.1804L27.31 21.98ZM26.95 23.18L25.9922 22.8927L25.9817 22.9275L25.9738 22.9631L26.95 23.18ZM26.89 23.45L27.822 23.8124L27.8497 23.7414L27.8662 23.6669L26.89 23.45ZM26.47 24.53L27.2788 25.1182L27.355 25.0133L27.402 24.8924L26.47 24.53ZM26.23 24.86L26.844 25.6494L26.9556 25.5625L27.0388 25.4482L26.23 24.86ZM25.96 25.07L25.3461 24.2806L25.2061 24.3896L25.112 24.54L25.96 25.07ZM25.66 25.55L24.812 25.02L24.7603 25.1028L24.7255 25.194L25.66 25.55ZM25.42 26.18L24.4855 25.824L24.4458 25.9282L24.4301 26.0386L25.42 26.18ZM25.39 26.39L26.3106 26.7806L26.3615 26.6605L26.38 26.5314L25.39 26.39ZM24.97 27.38L25.6483 28.1148L25.8065 27.9688L25.8906 27.7705L24.97 27.38ZM24.58 27.74L23.9018 27.0052L23.7963 27.1025L23.7225 27.2255L24.58 27.74ZM24.31 28.19L23.4525 27.6755L23.4031 27.7579L23.3702 27.8483L24.31 28.19ZM24.07 28.85L23.1302 28.5083L23.0859 28.6302L23.0741 28.7595L24.07 28.85ZM23.98 29.84L22.9841 29.7495L22.9688 29.9182L23.0099 30.0825L23.98 29.84ZM24.13 30.44L23.1599 30.6825L23.2185 30.9168L23.3775 31.0985L24.13 30.44ZM24.34 30.68L23.5875 31.3385L23.7456 31.5193L23.9686 31.6085L24.34 30.68ZM24.64 30.8L24.2686 31.7285L24.7904 31.9372L25.24 31.6L24.64 30.8ZM24.88 30.62L25.48 31.42L25.6456 31.2958L25.7483 31.1161L24.88 30.62ZM25.12 30.2L25.9883 30.6961L26.0192 30.6421L26.0431 30.5846L25.12 30.2ZM26.17 27.68L25.2581 27.2696L25.2524 27.2824L25.247 27.2954L26.17 27.68ZM26.44 27.08L25.5659 26.5944L25.5454 26.6312L25.5281 26.6696L26.44 27.08ZM27.04 26L26.3892 25.2407L26.253 25.3575L26.1659 25.5144L27.04 26ZM27.46 25.64L28.1108 26.3993L28.2732 26.2601L28.3645 26.0666L27.46 25.64ZM28.21 24.05L27.4207 23.4361L27.3528 23.5234L27.3056 23.6234L28.21 24.05ZM28.42 23.78L29.2094 24.3939L29.3499 24.2133L29.3978 23.9895L28.42 23.78ZM28.51 23.36L29.4878 23.5695L29.5233 23.404L29.5023 23.236L28.51 23.36ZM28.39 22.4H27.39V22.4623L27.3978 22.524L28.39 22.4ZM28.39 21.77L27.8353 20.938L27.39 21.2348V21.77H28.39ZM28.48 21.71L28.7963 20.7613L28.3323 20.6067L27.9253 20.878L28.48 21.71ZM28.57 21.74L29.4645 21.2928L29.2792 20.9223L28.8863 20.7913L28.57 21.74ZM28.63 21.86L27.7356 22.3072L27.8847 22.6054L28.1828 22.7544L28.63 21.86ZM28.75 21.92L28.3028 22.8144L29.1095 23.2178L29.5937 22.4569L28.75 21.92ZM28.96 21.59L29.8037 22.1269L29.913 21.9552L29.9464 21.7544L28.96 21.59ZM29.02 21.23L30.0064 21.3944L30.02 21.3128V21.23H29.02ZM29.02 19.4H30.02V19.3414L30.0132 19.2832L29.02 19.4ZM28.96 18.89L27.9899 18.6475L27.9455 18.825L27.9669 19.0068L28.96 18.89ZM29.05 18.53L30.0202 18.7725L30.0424 18.6837L30.0481 18.5924L29.05 18.53ZM28.84 18.5L28.04 19.1L29.3006 20.7808L29.8102 18.7425L28.84 18.5ZM28.57 18.14L27.5778 18.264L27.6107 18.5275L27.77 18.74L28.57 18.14ZM28.54 17.9L29.3975 17.3855L27.5478 18.024L28.54 17.9ZM28.63 18.05L27.7725 18.5645L28.0638 19.05H28.63V18.05ZM28.72 18.05V19.05H29.1342L29.4271 18.7571L28.72 18.05ZM28.81 17.96L29.2572 17.0656L28.6126 16.7432L28.1029 17.2529L28.81 17.96ZM28.87 17.99L29.8639 17.8796L29.8038 17.3389L29.3172 17.0956L28.87 17.99ZM28.9 18.26L29.8702 18.5025L29.9138 18.3282L29.8939 18.1496L28.9 18.26ZM25.9 34.88H26.9V34.8089L26.89 34.7386L25.9 34.88ZM25.87 34.67L26.86 34.5286L26.8237 34.275L26.67 34.07L25.87 34.67ZM25.78 34.55L26.58 33.95L26.4682 33.8008L26.31 33.702L25.78 34.55ZM25.54 34.4L24.6262 34.8061L24.7505 35.0858L25.01 35.248L25.54 34.4ZM25.42 34.13L24.4278 34.254L24.4461 34.4009L24.5062 34.5361L25.42 34.13ZM25.39 33.89L26.3823 33.766L26.3561 33.5565L26.2475 33.3755L25.39 33.89ZM25.21 33.59L26.0675 33.0755L25.8964 32.7904L25.5887 32.6645L25.21 33.59ZM24.55 33.32L24.9287 32.3945L24.84 32.3582L24.7461 32.3394L24.55 33.32ZM24.25 33.26L24.4461 32.2794L24.0299 32.1962L23.6808 32.4378L24.25 33.26ZM23.86 33.53L23.2908 32.7078L23.0802 32.8536L22.9656 33.0828L23.86 33.53ZM23.77 33.71L22.8756 33.2628L22.77 33.4739V33.71H23.77ZM23.77 33.83L24.6021 34.3847L24.77 34.1328V33.83H23.77ZM23.65 34.01L22.818 33.4553L22.7219 33.5994L22.6799 33.7675L23.65 34.01ZM23.56 34.37L22.5899 34.1275L22.5353 34.3456L22.5794 34.5661L23.56 34.37ZM23.59 34.52L24.5092 34.9139L24.6315 34.6284L24.5706 34.3239L23.59 34.52ZM23.5 34.73L23.0528 35.6244L24.0014 36.0987L24.4192 35.1239L23.5 34.73ZM23.44 34.7L23.8872 33.8056L22.9928 33.3584L22.5456 34.2528L23.44 34.7ZM23.41 34.76L22.5156 34.3128L22.3345 34.675L22.4564 35.0611L23.41 34.76ZM23.59 35.33L22.6364 35.6311L22.6943 35.8145L22.8161 35.9632L23.59 35.33ZM23.86 35.66L23.0861 36.2932L23.1963 36.4279L23.3455 36.5175L23.86 35.66ZM24.16 35.84L23.6455 36.6975L23.883 36.84H24.16V35.84ZM24.46 35.84L25.1671 35.1329L24.8742 34.84H24.46V35.84ZM24.52 35.9L23.8129 36.6071L24.1058 36.9H24.52V35.9ZM25.15 35.9V36.9H25.243L25.3343 36.8829L25.15 35.9ZM25.63 35.81L25.8143 36.7929L26.1966 36.7212L26.43 36.41L25.63 35.81ZM25.9 35.45L26.7 36.05L26.9 35.7833V35.45H25.9ZM24.04 34.34L24.9887 34.6562L25.6212 32.7589L23.7238 33.3913L24.04 34.34ZM24.01 34.43L23.3029 35.1371L24.447 36.2812L24.9587 34.7462L24.01 34.43ZM23.95 34.37L23.6338 33.4213L22.0988 33.933L23.2429 35.0771L23.95 34.37ZM25.06 34.55L25.6147 35.382L28.3628 33.55H25.06V34.55ZM24.97 34.61L24.0756 35.0572L24.5822 36.0704L25.5247 35.4421L24.97 34.61ZM24.94 34.55V33.55H23.322L24.0456 34.9972L24.94 34.55ZM24.43 34.73H25.43V33.3426L24.1138 33.7813L24.43 34.73ZM24.43 34.82L23.8753 35.6521L25.43 36.6885V34.82H24.43ZM24.34 34.76L24.0238 33.8113L22.0841 34.4579L23.7853 35.5921L24.34 34.76ZM30.0218 17.7137L29.7218 16.8737L27.8383 17.5463L28.1383 18.3863L30.0218 17.7137ZM29.5449 16.5659L29.0649 15.9959L27.5351 17.2841L28.0151 17.8541L29.5449 16.5659ZM29.1683 16.1439L28.6883 15.3039L26.9518 16.2961L27.4318 17.1361L29.1683 16.1439ZM28.5271 15.0929L28.2571 14.8229L26.8429 16.2371L27.1129 16.5071L28.5271 15.0929ZM27.7926 14.5599L26.3526 14.1999L25.8675 16.1401L27.3075 16.5001L27.7926 14.5599ZM26.11 14.17H25.27V16.17H26.11V14.17ZM25.0625 14.1918L24.0725 14.4018L24.4875 16.3582L25.4775 16.1482L25.0625 14.1918ZM23.7944 14.5058L22.7144 15.1058L23.6857 16.8542L24.7657 16.2542L23.7944 14.5058ZM22.3318 15.4839L21.7318 16.5339L23.4683 17.5261L24.0683 16.4761L22.3318 15.4839ZM21.699 16.5962L21.309 17.4062L23.111 18.2738L23.501 17.4638L21.699 16.5962ZM21.2534 17.5488L21.0434 18.2388L22.9567 18.8212L23.1667 18.1312L21.2534 17.5488ZM21.0069 18.4132L20.8869 19.4332L22.8732 19.6668L22.9932 18.6468L21.0069 18.4132ZM20.8952 19.7238L20.9852 20.2338L22.9548 19.8862L22.8648 19.3762L20.8952 19.7238ZM21.3453 19.2791L21.1953 19.3991L22.4447 20.9609L22.5947 20.8409L21.3453 19.2791ZM21.4486 21.1085L21.5986 21.1685L22.3414 19.3115L22.1914 19.2515L21.4486 21.1085ZM21.8988 21.2375L22.3188 21.2675L22.4613 19.2725L22.0413 19.2425L21.8988 21.2375ZM22.749 21.2033L23.139 21.0533L22.4211 19.1867L22.0311 19.3367L22.749 21.2033ZM23.4871 20.8271L23.8471 20.4671L22.4329 19.0529L22.0729 19.4129L23.4871 20.8271ZM24.0704 20.1265L24.4604 19.1365L22.5996 18.4035L22.2096 19.3935L24.0704 20.1265ZM24.52 18.6286L24.49 18.4186L22.5101 18.7014L22.5401 18.9114L24.52 18.6286ZM24.2071 17.8529L23.9971 17.6429L22.5829 19.0571L22.7929 19.2671L24.2071 17.8529ZM24.2839 18.2396L24.2539 17.9696L22.2661 18.1904L22.2961 18.4604L24.2839 18.2396ZM23.9327 18.8199L24.2627 18.5199L22.9174 17.0401L22.5874 17.3401L23.9327 18.8199ZM24.39 18.38L24.93 17.66L23.33 16.46L22.79 17.18L24.39 18.38ZM24.554 17.9657L25.964 17.3057L25.1161 15.4943L23.7061 16.1543L24.554 17.9657ZM24.8998 17.1682L25.0798 17.3182L26.3602 15.7818L26.1802 15.6318L24.8998 17.1682ZM25.2533 17.4344L26.3333 18.0044L27.2668 16.2356L26.1868 15.6656L25.2533 17.4344ZM26.1492 17.8793L26.3592 18.0593L27.6608 16.5407L27.4508 16.3607L26.1492 17.8793ZM26.0399 17.5425L26.0999 17.7825L28.0402 17.2975L27.9802 17.0575L26.0399 17.5425ZM26.07 17.54V17.9H28.07V17.54H26.07ZM26.0811 18.0483L26.1711 18.6483L28.149 18.3517L28.059 17.7517L26.0811 18.0483ZM26.2 18.78L26.62 20.22L28.54 19.66L28.12 18.22L26.2 18.78ZM26.58 19.94V20.66H28.58V19.94H26.58ZM26.6003 20.4596L26.3303 21.7796L28.2897 22.1804L28.5597 20.8604L26.6003 20.4596ZM26.3522 21.6927L25.9922 22.8927L27.9079 23.4673L28.2679 22.2673L26.3522 21.6927ZM25.9738 22.9631L25.9138 23.2331L27.8662 23.6669L27.9262 23.3969L25.9738 22.9631ZM25.958 23.0876L25.538 24.1676L27.402 24.8924L27.822 23.8124L25.958 23.0876ZM25.6613 23.9418L25.4213 24.2718L27.0388 25.4482L27.2788 25.1182L25.6613 23.9418ZM25.6161 24.0706L25.3461 24.2806L26.574 25.8594L26.844 25.6494L25.6161 24.0706ZM25.112 24.54L24.812 25.02L26.508 26.08L26.808 25.6L25.112 24.54ZM24.7255 25.194L24.4855 25.824L26.3545 26.536L26.5945 25.906L24.7255 25.194ZM24.4301 26.0386L24.4001 26.2486L26.38 26.5314L26.41 26.3214L24.4301 26.0386ZM24.4694 25.9994L24.0494 26.9894L25.8906 27.7705L26.3106 26.7806L24.4694 25.9994ZM24.2918 26.6452L23.9018 27.0052L25.2583 28.4748L25.6483 28.1148L24.2918 26.6452ZM23.7225 27.2255L23.4525 27.6755L25.1675 28.7045L25.4375 28.2545L23.7225 27.2255ZM23.3702 27.8483L23.1302 28.5083L25.0098 29.1917L25.2498 28.5317L23.3702 27.8483ZM23.0741 28.7595L22.9841 29.7495L24.9759 29.9305L25.0659 28.9405L23.0741 28.7595ZM23.0099 30.0825L23.1599 30.6825L25.1002 30.1975L24.9502 29.5975L23.0099 30.0825ZM23.3775 31.0985L23.5875 31.3385L25.0926 30.0215L24.8826 29.7815L23.3775 31.0985ZM23.9686 31.6085L24.2686 31.7285L25.0114 29.8715L24.7114 29.7515L23.9686 31.6085ZM25.24 31.6L25.48 31.42L24.28 29.82L24.04 30L25.24 31.6ZM25.7483 31.1161L25.9883 30.6961L24.2518 29.7039L24.0118 30.1239L25.7483 31.1161ZM26.0431 30.5846L27.0931 28.0646L25.247 27.2954L24.197 29.8154L26.0431 30.5846ZM27.082 28.0904L27.352 27.4904L25.5281 26.6696L25.2581 27.2696L27.082 28.0904ZM27.3142 27.5656L27.9142 26.4856L26.1659 25.5144L25.5659 26.5944L27.3142 27.5656ZM27.6908 26.7593L28.1108 26.3993L26.8092 24.8807L26.3892 25.2407L27.6908 26.7593ZM28.3645 26.0666L29.1145 24.4766L27.3056 23.6234L26.5556 25.2134L28.3645 26.0666ZM28.9994 24.6639L29.2094 24.3939L27.6307 23.1661L27.4207 23.4361L28.9994 24.6639ZM29.3978 23.9895L29.4878 23.5695L27.5322 23.1505L27.4422 23.5705L29.3978 23.9895ZM29.5023 23.236L29.3823 22.276L27.3978 22.524L27.5178 23.484L29.5023 23.236ZM29.39 22.4V21.77H27.39V22.4H29.39ZM28.9447 22.602L29.0347 22.542L27.9253 20.878L27.8353 20.938L28.9447 22.602ZM28.1638 22.6587L28.2538 22.6887L28.8863 20.7913L28.7963 20.7613L28.1638 22.6587ZM27.6756 22.1872L27.7356 22.3072L29.5245 21.4128L29.4645 21.2928L27.6756 22.1872ZM28.1828 22.7544L28.3028 22.8144L29.1972 21.0256L29.0772 20.9656L28.1828 22.7544ZM29.5937 22.4569L29.8037 22.1269L28.1164 21.0531L27.9064 21.3831L29.5937 22.4569ZM29.9464 21.7544L30.0064 21.3944L28.0336 21.0656L27.9736 21.4256L29.9464 21.7544ZM30.02 21.23V19.4H28.02V21.23H30.02ZM30.0132 19.2832L29.9532 18.7732L27.9669 19.0068L28.0269 19.5168L30.0132 19.2832ZM29.9302 19.1325L30.0202 18.7725L28.0799 18.2875L27.9899 18.6475L29.9302 19.1325ZM30.0481 18.5924L30.0781 18.1124L28.082 17.9876L28.052 18.4676L30.0481 18.5924ZM29.64 17.9L29.37 17.54L27.77 18.74L28.04 19.1L29.64 17.9ZM29.5623 18.016L29.5323 17.776L27.5478 18.024L27.5778 18.264L29.5623 18.016ZM27.6825 18.4145L27.7725 18.5645L29.4875 17.5355L29.3975 17.3855L27.6825 18.4145ZM28.63 19.05H28.72V17.05H28.63V19.05ZM29.4271 18.7571L29.5171 18.6671L28.1029 17.2529L28.0129 17.3429L29.4271 18.7571ZM28.3628 18.8544L28.4228 18.8844L29.3172 17.0956L29.2572 17.0656L28.3628 18.8544ZM27.8761 18.1004L27.9061 18.3704L29.8939 18.1496L29.8639 17.8796L27.8761 18.1004ZM27.9299 18.0175L27.8699 18.2575L29.8102 18.7425L29.8702 18.5025L27.9299 18.0175ZM28.54 18.91H28.45V20.91H28.54V18.91ZM28.45 20.91H28.54V18.91H28.45V20.91ZM27.9529 21.4571L27.9829 21.4871L29.3971 20.0729L29.3671 20.0429L27.9529 21.4571ZM29.3971 20.0729L29.3671 20.0429L27.9529 21.4571L27.9829 21.4871L29.3971 20.0729ZM26.89 34.7386L26.86 34.5286L24.8801 34.8114L24.9101 35.0214L26.89 34.7386ZM26.67 34.07L26.58 33.95L24.98 35.15L25.07 35.27L26.67 34.07ZM26.31 33.702L26.07 33.552L25.01 35.248L25.25 35.398L26.31 33.702ZM26.4538 33.9939L26.3338 33.7239L24.5062 34.5361L24.6262 34.8061L26.4538 33.9939ZM26.4123 34.006L26.3823 33.766L24.3978 34.014L24.4278 34.254L26.4123 34.006ZM26.2475 33.3755L26.0675 33.0755L24.3525 34.1045L24.5325 34.4045L26.2475 33.3755ZM25.5887 32.6645L24.9287 32.3945L24.1714 34.2455L24.8314 34.5155L25.5887 32.6645ZM24.7461 32.3394L24.4461 32.2794L24.0539 34.2406L24.3539 34.3006L24.7461 32.3394ZM23.6808 32.4378L23.2908 32.7078L24.4292 34.3522L24.8192 34.0822L23.6808 32.4378ZM22.9656 33.0828L22.8756 33.2628L24.6645 34.1572L24.7545 33.9772L22.9656 33.0828ZM22.77 33.71V33.83H24.77V33.71H22.77ZM22.938 33.2753L22.818 33.4553L24.4821 34.5647L24.6021 34.3847L22.938 33.2753ZM22.6799 33.7675L22.5899 34.1275L24.5302 34.6125L24.6202 34.2525L22.6799 33.7675ZM22.5794 34.5661L22.6094 34.7161L24.5706 34.3239L24.5406 34.1739L22.5794 34.5661ZM22.6709 34.1261L22.5809 34.3361L24.4192 35.1239L24.5092 34.9139L22.6709 34.1261ZM23.9472 33.8356L23.8872 33.8056L22.9928 35.5944L23.0528 35.6244L23.9472 33.8356ZM22.5456 34.2528L22.5156 34.3128L24.3045 35.2072L24.3345 35.1472L22.5456 34.2528ZM22.4564 35.0611L22.6364 35.6311L24.5436 35.0289L24.3636 34.4589L22.4564 35.0611ZM22.8161 35.9632L23.0861 36.2932L24.634 35.0268L24.364 34.6968L22.8161 35.9632ZM23.3455 36.5175L23.6455 36.6975L24.6745 34.9825L24.3745 34.8025L23.3455 36.5175ZM24.16 36.84H24.46V34.84H24.16V36.84ZM23.7529 36.5471L23.8129 36.6071L25.2271 35.1929L25.1671 35.1329L23.7529 36.5471ZM24.52 36.9H25.15V34.9H24.52V36.9ZM25.3343 36.8829L25.8143 36.7929L25.4457 34.8271L24.9657 34.9171L25.3343 36.8829ZM26.43 36.41L26.7 36.05L25.1 34.85L24.83 35.21L26.43 36.41ZM26.9 35.45V35.3H24.9V35.45H26.9ZM26.9 35.3V34.88H24.9V35.3H26.9ZM25.2716 33.6153L25.2116 33.4053L23.2885 33.9547L23.3485 34.1647L25.2716 33.6153ZM23.2885 33.9547L23.3485 34.1647L25.2716 33.6153L25.2116 33.4053L23.2885 33.9547ZM23.0913 34.0238L23.0613 34.1138L24.9587 34.7462L24.9887 34.6562L23.0913 34.0238ZM24.7171 33.7229L24.6571 33.6629L23.2429 35.0771L23.3029 35.1371L24.7171 33.7229ZM24.2663 35.3187L24.3563 35.2887L23.7238 33.3913L23.6338 33.4213L24.2663 35.3187ZM24.5053 33.7179L24.4153 33.778L25.5247 35.4421L25.6147 35.382L24.5053 33.7179ZM25.8645 34.1628L25.8345 34.1028L24.0456 34.9972L24.0756 35.0572L25.8645 34.1628ZM24.94 35.55H25.06V33.55H24.94V35.55ZM23.43 34.73V34.82H25.43V34.73H23.43ZM24.9847 33.9879L24.8947 33.9279L23.7853 35.5921L23.8753 35.6521L24.9847 33.9879ZM24.6563 35.7087L24.7463 35.6787L24.1138 33.7813L24.0238 33.8113L24.6563 35.7087Z" fill="#2C292D"/>
</svg>
