<svg width="134" height="122" viewBox="0 0 134 122" fill="none" xmlns="http://www.w3.org/2000/svg">
<path fill-rule="evenodd" clip-rule="evenodd" d="M78.5731 3.89487C90.9156 6.06942 102.372 11.2725 111.696 19.6473C120.309 27.3842 125.272 37.8906 128.724 48.9422C132.138 59.8747 134.608 71.4037 131.282 82.3633C127.917 93.4501 120.24 102.913 110.459 109.124C101.06 115.092 89.5909 114.229 78.5731 115.83C65.1887 117.775 51.9843 123.782 39.1601 119.484C23.7994 114.337 6.37741 105.718 1.91843 90.1438C-2.53943 74.5733 11.9393 60.5756 17.9937 45.5537C23.4998 31.8921 23.5889 14.6087 35.7256 6.26263C47.8076 -2.04588 64.1324 1.35066 78.5731 3.89487Z" fill="#F8F8F8" stroke="#2C292D"/>
</svg>
