<svg width="126" height="122" viewBox="0 0 126 122" fill="none" xmlns="http://www.w3.org/2000/svg">
<path fill-rule="evenodd" clip-rule="evenodd" d="M62.244 1.16577C76.2548 3.11187 80.2742 21.6116 90.0632 31.8227C97.5036 39.5839 107.201 44.4644 112.642 53.7373C119.283 65.0544 127.81 77.6362 124.379 90.3017C120.929 103.039 107.611 110.462 95.7258 116.196C85.3455 121.205 73.6738 121.764 62.244 120.282C52.0065 118.955 43.4624 113.431 34.5262 108.263C24.3727 102.391 12.3028 98.4651 6.70208 88.1593C0.61447 76.9576 -0.600122 63.0983 3.40353 50.9943C7.39673 38.9218 18.4758 31.4447 28.1796 23.2271C38.7622 14.2653 48.5084 -0.742102 62.244 1.16577Z" fill="#F8F8F8" stroke="#2C292D"/>
</svg>
