<svg width="128" height="122" viewBox="0 0 128 122" fill="none" xmlns="http://www.w3.org/2000/svg">
<path fill-rule="evenodd" clip-rule="evenodd" d="M61.5991 1.0068C75.4182 0.62157 83.2346 16.6871 93.2102 26.2581C101.617 34.3243 109.806 42.0113 115.135 52.372C121.4 64.5508 130.169 77.6564 126.425 90.8303C122.662 104.074 109.13 112.296 96.5296 117.845C85.5957 122.66 73.4447 120.931 61.5991 119.378C51.2648 118.022 40.83 116.059 32.7465 109.479C24.9321 103.118 22.7405 92.8324 18.0392 83.9205C12.0562 72.5792 -1.45135 62.7175 1.49457 50.2378C4.41095 37.8833 21.4228 36.0292 31.2431 27.9855C41.9785 19.1923 47.7276 1.3935 61.5991 1.0068Z" fill="#F8F8F8" stroke="#2C292D"/>
</svg>
