<svg width="130" height="122" viewBox="0 0 130 122" fill="none" xmlns="http://www.w3.org/2000/svg">
<path fill-rule="evenodd" clip-rule="evenodd" d="M67.5762 1.02168C79.0026 0.3968 85.7942 13.4407 95.3738 19.7005C105.682 26.4362 120.269 28.0366 125.774 39.0511C131.452 50.4133 130.257 65.3484 123.591 76.1609C117.323 86.3271 102.104 85.1837 92.7522 92.6124C82.6687 100.622 80.2066 118.146 67.5762 120.658C55.0305 123.153 44.5339 111.42 33.8955 104.318C22.7549 96.8802 9.38877 90.9201 4.40833 78.4851C-0.693826 65.7462 -0.135744 49.8386 7.51212 38.4446C14.721 27.7048 30.9247 29.4647 41.9031 22.6246C51.6338 16.5619 56.1284 1.64772 67.5762 1.02168Z" fill="#F8F8F8" stroke="#2C292D"/>
</svg>
