<svg width="142" height="122" viewBox="0 0 142 122" fill="none" xmlns="http://www.w3.org/2000/svg">
<path fill-rule="evenodd" clip-rule="evenodd" d="M74.5227 2.88072C86.5242 3.83854 99.3308 3.4694 108.853 10.3552C118.248 17.1491 119.76 29.162 124.775 39.2196C130.71 51.1234 142.796 61.5771 140.875 74.5839C138.879 88.102 126.582 98.1288 114.871 106.297C103.03 114.556 89.2427 122.123 74.5227 120.862C60.2691 119.641 51.1183 107.241 39.2185 99.8165C26.643 91.9703 8.49163 89.3016 2.90856 76.1796C-2.70897 62.9766 5.86183 48.5148 11.831 35.4469C17.3001 23.4738 23.4601 10.8421 35.6447 4.51256C47.2643 -1.52343 61.2732 1.8233 74.5227 2.88072Z" fill="#F8F8F8" stroke="#2C292D"/>
</svg>
