<svg width="113" height="101" viewBox="0 0 113 101" fill="none" xmlns="http://www.w3.org/2000/svg">
<path fill-rule="evenodd" clip-rule="evenodd" d="M91.5331 4.44899C101.482 9.99464 108.837 20.1834 111.271 31.3102C113.623 42.0663 109.493 53.0654 104.286 62.7666C99.6766 71.3544 92.24 77.771 83.7571 82.5707C75.899 87.0169 66.8516 86.6683 58.1024 88.8978C44.8235 92.2816 31.8549 104.47 19.2913 98.9983C6.99726 93.6444 1.89579 77.5373 1.25925 64.1432C0.681194 51.9798 10.2158 42.4044 16.0949 31.7405C20.8389 23.1355 24.0252 13.3335 32.242 7.94495C40.3572 2.62294 50.4913 3.40105 60.1791 2.82983C70.8883 2.19839 82.1628 -0.774357 91.5331 4.44899Z" fill="#F8F8F8" stroke="#2C292D"/>
</svg>
