<svg width="192" height="180" viewBox="0 0 192 180" fill="none" xmlns="http://www.w3.org/2000/svg">
<path d="M0.079834 59.5362C0.079834 53.7666 5.14632 51.9215 11.8285 51.9215C19.4282 51.9215 29.3318 58.3843 29.3318 63.4608C29.3318 66.6922 24.9535 69.2304 16.4312 69.2304C6.06886 69.2304 0.079834 65.0765 0.079834 59.5362ZM17.3538 113.767C17.3538 99.6941 58.3494 113.537 58.3494 90.4588C58.3494 80.7696 41.0755 77.7676 41.0755 70.8461C41.0755 62.0745 73.7783 71.7686 73.7783 56.3049C73.7783 46.6157 57.8907 45 57.8907 32.0745C57.8907 28.8481 59.7308 25.8461 63.1865 25.8461C78.6154 25.8461 70.0981 56.5392 93.3561 56.5392C102.108 56.5392 106.715 50.0765 106.715 40.1529C106.715 28.3843 102.108 24.4598 102.108 11.0755C102.108 5.76961 105.334 0 112.011 0C118.23 0 122.374 5.76961 122.374 11.7686C122.374 27.2324 115.467 27.6912 115.467 41.5392C115.467 62.3088 124.678 67.3853 141.722 67.3853C151.396 67.3853 156.233 48.9245 166.366 48.9245C174.425 48.9245 177.651 54.001 177.651 59.3068C177.651 71.998 143.333 63.2314 143.333 92.3088C143.333 126.922 191.24 106.845 191.24 129.001C191.24 133.848 188.707 138.002 183.177 138.002C166.366 138.002 168.436 120.229 133.659 120.229C120.992 120.229 118.689 131.539 118.689 140.999C118.689 153.69 127.44 155.77 127.44 162.691C127.44 168.461 122.837 171.228 117.542 171.228C102.572 171.228 118.923 126.692 89.4415 126.692C59.272 126.692 71.0157 180 43.6088 180C37.8541 180 33.9395 176.539 33.9395 170.306C33.9395 146.769 66.6423 147.462 66.6423 123.002C66.6423 114.001 59.5014 111.228 53.5123 111.228C41.7687 111.228 33.2464 119.077 25.6467 119.077C20.8096 119.077 17.3538 117.462 17.3538 113.767ZM142.874 169.613C142.874 163.848 147.482 159.23 153.236 159.23C158.996 159.23 163.599 163.848 163.599 169.613C163.599 175.382 158.996 180 153.236 180C147.482 180 142.874 175.382 142.874 169.613Z" fill="#5A9EFF"/>
</svg>
