<svg width="134" height="122" viewBox="0 0 134 122" fill="none" xmlns="http://www.w3.org/2000/svg">
<path d="M71.0234 111.066L70.6662 111.416L71.0233 111.066C62.2006 102.063 51.6869 96.3761 41.5211 92.1447C36.4386 90.0292 31.4365 88.2749 26.7758 86.654C26.5609 86.5793 26.3468 86.5049 26.1334 86.4307C21.7126 84.8939 17.6216 83.4717 14.0572 81.9588C6.54289 78.7693 1.60246 75.2675 0.76061 69.7165C0.337165 66.9243 0.935683 63.5412 2.87517 59.3139C4.81436 55.0872 8.07805 50.0517 12.9342 43.9728L12.5436 43.6607L12.9342 43.9728C25.0904 28.7543 49.519 12.7046 72.0552 5.30762C83.3242 1.60888 94.0536 0.096304 102.505 1.88149C106.724 2.77249 110.361 4.48188 113.222 7.13848C116.082 9.79314 118.192 13.4178 119.321 18.1837C121.101 25.6976 120.587 29.6034 120.142 32.9875C120.004 34.0414 119.872 35.0447 119.818 36.0906C119.587 40.5686 120.845 45.5118 128.818 57.5515C133.312 64.346 134.685 74.2771 132.248 84.8535C129.697 95.9139 120.783 109.07 109.287 116.143C103.548 119.674 97.1933 121.672 90.6846 121.165C84.1834 120.659 77.4742 117.65 71.0234 111.066Z" fill="#F8F8F8" stroke="#2C292D"/>
</svg>
