<svg width="137" height="122" viewBox="0 0 137 122" fill="none" xmlns="http://www.w3.org/2000/svg">
<path fill-rule="evenodd" clip-rule="evenodd" d="M70.3579 3.68038C82.1824 1.37311 95.8955 -1.71206 105.571 5.46655C115.238 12.6392 112.738 27.5557 117.46 38.6283C122.887 51.3543 139.678 61.9107 135.228 75.0104C130.762 88.1565 110.239 85.2047 98.9109 93.2327C87.8105 101.1 83.9472 121.647 70.3579 120.984C56.5613 120.312 55.2781 98.1658 43.7586 90.5436C31.2656 82.2774 8.49499 89.6972 2.39502 76.0153C-3.49117 62.8128 11.8031 49.4153 20.1649 37.6241C26.3137 28.9533 35.0843 23.4568 43.8895 17.5022C52.3413 11.7865 60.3437 5.6344 70.3579 3.68038Z" fill="#F8F8F8" stroke="#2C292D"/>
</svg>
