<svg width="115" height="122" viewBox="0 0 115 122" fill="none" xmlns="http://www.w3.org/2000/svg">
<path fill-rule="evenodd" clip-rule="evenodd" d="M65.4189 2.09873C77.109 4.98084 83.1518 17.089 91.7199 25.5479C98.7094 32.4483 107.401 37.7916 110.877 46.9777C114.456 56.434 114.525 67.0807 111.027 76.5672C107.612 85.8316 99.0435 91.4011 91.9629 98.2829C83.4187 106.587 77.2698 119.662 65.4189 120.896C53.496 122.136 43.6378 112.056 34.5328 104.259C26.0962 97.0343 20.4939 87.8607 15.348 78.0171C9.08251 66.0319 -0.954117 54.271 1.44234 40.9609C3.9096 27.2576 15.7394 16.978 27.6395 9.74932C38.8965 2.91136 52.6307 -1.05409 65.4189 2.09873Z" fill="#F8F8F8" stroke="#2C292D"/>
</svg>
