<svg width="117" height="122" viewBox="0 0 117 122" fill="none" xmlns="http://www.w3.org/2000/svg">
<path fill-rule="evenodd" clip-rule="evenodd" d="M53.8325 1.10265C67.0232 0.534588 80.4808 2.1953 91.5839 9.33942C103.095 16.7462 113.404 27.6608 115.997 41.1013C118.484 53.9937 111.137 66.3602 104.802 77.8608C99.5146 87.4599 91.2354 94.185 82.8612 101.254C73.711 108.979 65.7619 119.848 53.8325 120.888C41.6136 121.953 29.5715 115.31 20.8781 106.658C12.8808 98.6981 12.0615 86.7351 8.6967 75.9653C5.38092 65.3523 -0.292872 55.2496 1.38262 44.2577C3.23745 32.0893 8.86674 20.313 18.3719 12.4923C28.1994 4.4064 41.1179 1.65021 53.8325 1.10265Z" fill="#F8F8F8" stroke="#2C292D"/>
</svg>
