<svg width="354" height="456" viewBox="0 0 354 456" fill="none" xmlns="http://www.w3.org/2000/svg">
<path d="M321.753 3L32.2507 3C15.5498 3 2.00397 16.4789 2.00397 33.1266L2.00397 256.085C2.00397 261.689 2.00397 267.211 2.00397 273.063L2.00397 423.862C2.00397 440.51 15.5498 453.988 32.2507 453.988L321.753 453.988C338.454 453.988 352 440.51 352 423.862L352 33.1266C352 16.4789 338.454 3 321.753 3Z" fill="#949494" stroke="#386C55" stroke-width="3" stroke-miterlimit="10"/>
<path d="M204.244 19.9542L152.268 19.9542C150.869 19.9542 149.754 18.8429 149.754 17.4595C149.754 16.0762 150.869 14.9648 152.268 14.9648L204.244 14.9648C205.643 14.9648 206.758 16.0762 206.758 17.4595C206.758 18.8429 205.643 19.9542 204.244 19.9542Z" fill="#231F20"/>
<path d="M239.984 17.4594C239.984 18.2871 239.83 19.0792 239.51 19.8477C239.19 20.6162 238.739 21.2901 238.158 21.8695C237.565 22.4606 236.889 22.9099 236.118 23.2291C235.347 23.5365 234.552 23.7021 233.722 23.7021C232.891 23.7021 232.085 23.5365 231.326 23.2291C230.555 22.9099 229.879 22.4606 229.286 21.8695C228.704 21.2901 228.254 20.6162 227.933 19.8477C227.613 19.0792 227.459 18.2871 227.459 17.4594C227.459 16.6318 227.613 15.8278 227.933 15.0712C228.254 14.3026 228.704 13.6287 229.286 13.0494C229.879 12.4582 230.555 12.009 231.326 11.6897C232.085 11.3705 232.891 11.2168 233.722 11.2168C234.552 11.2168 235.347 11.3705 236.118 11.6897C236.889 12.009 237.565 12.4582 238.158 13.0494C238.739 13.6287 239.19 14.3026 239.51 15.0712C239.83 15.8278 239.984 16.6318 239.984 17.4594Z" fill="#130054"/>
<path d="M239.989 17.4616C239.989 18.2893 239.834 19.0815 239.514 19.85C239.194 20.6186 238.743 21.2925 238.162 21.8719C237.569 22.4631 236.893 22.9124 236.122 23.2316C235.351 23.539 234.556 23.7045 233.726 23.7045C232.895 23.7045 232.089 23.539 231.33 23.2316C230.559 22.9124 229.883 22.4631 229.29 21.8719C228.708 21.2925 228.258 20.6186 227.937 19.85C227.617 19.0815 227.463 18.2893 227.463 17.4616C227.463 16.634 227.617 15.83 227.937 15.0733C228.258 14.3047 228.708 13.6308 229.29 13.0514C229.883 12.4602 230.559 12.0109 231.33 11.6917C232.089 11.3725 232.895 11.2188 233.726 11.2187C234.556 11.2187 235.351 11.3725 236.122 11.6917C236.893 12.0109 237.569 12.4602 238.162 13.0514C238.743 13.6308 239.194 14.3047 239.514 15.0733C239.834 15.83 239.989 16.634 239.989 17.4616Z" stroke="#231F20" stroke-width="3" stroke-miterlimit="10"/>
<path d="M304.718 436.344L49.27 436.344C32.5691 436.344 19.0352 422.865 19.0352 406.229L19.0352 62.1265C19.0352 45.4906 32.5691 32.0117 49.27 32.0117L304.695 32.0117C321.407 32.0117 334.941 45.4906 334.941 62.1265L334.941 406.206C334.965 422.865 321.431 436.344 304.718 436.344Z" fill="#F8F8F8" stroke="#386C55" stroke-width="3" stroke-miterlimit="10"/>
</svg>
