<svg width="62" height="60" viewBox="0 0 62 60" fill="none" xmlns="http://www.w3.org/2000/svg">
<path d="M61.7269 25.7463C61.6041 26.6319 61.8627 27.5174 61.6041 28.3899C61.7948 29.0702 61.4134 29.7376 61.4942 30.3791C61.5766 30.9786 61.4668 31.5361 61.3714 32.0952C61.1937 33.0631 61.3165 34.0439 61.1404 35.0118C61.0709 35.4336 61.0434 35.8974 61.0709 36.3466C61.1258 37.872 60.8253 39.3715 60.5667 40.842C60.389 41.8778 60.1837 42.9539 59.665 43.8944C59.3516 44.4535 59.3112 45.3665 59.1463 45.9789C58.9961 46.5105 58.5727 46.8515 58.4774 47.4364C58.096 47.6691 57.7276 47.7644 57.482 48.0908C57.2218 48.4447 57.385 49.0313 57.1136 49.3577C56.8259 49.7116 56.0487 49.8069 55.7336 50.1479C55.433 50.4888 55.1745 51.1158 54.9838 51.5795C54.1775 51.8656 53.536 52.192 52.8137 52.6137C52.1027 53.0096 52.5535 53.5816 51.7892 53.8822C51.6389 53.9355 50.5886 54.0729 50.4916 54.1537C50.288 54.3589 50.1232 54.6303 49.7693 54.5496C49.6999 54.535 49.6465 54.5221 49.6465 54.59C49.674 55.0262 49.3185 54.9034 49.0858 54.9713C48.5817 55.1216 48.1179 55.3672 47.6396 55.5983C47.011 55.8988 46.2742 56.0475 45.7005 56.4288C45.101 56.8247 44.4046 56.9201 43.7906 57.2465C43.1765 57.5745 42.4655 57.7232 41.7966 57.9413C41.6059 58.0092 41.4281 58.3227 41.1971 57.9962C40.9514 58.119 40.7042 58.2548 40.4586 58.3647C40.3633 58.4051 40.255 58.3921 40.1597 58.418C39.2031 58.5683 38.261 58.746 37.3335 59.0046C37.1703 59.045 37.0329 59.032 36.8697 59.032C36.4738 59.032 36.0779 58.9916 35.695 59.0595C35.3411 59.1274 34.971 58.9916 34.685 59.0724C33.8529 59.318 32.9787 59.032 32.1594 59.3035C31.9138 59.3859 31.6956 59.1548 31.4226 59.1823C30.7261 59.2502 30.0297 59.087 29.3478 59.331C29.2379 59.373 29.0343 59.3859 28.9664 59.331C28.5834 58.9916 28.1601 59.2227 27.7642 59.1952C27.3554 59.1678 26.9724 59.032 26.549 59.032C25.6765 59.045 24.8023 58.8268 23.9426 58.7735C22.9327 58.7185 21.9906 58.3776 21.0082 58.2419C20.6381 58.1869 20.3246 57.9284 19.9287 57.888C19.751 57.8734 19.5474 57.7652 19.3422 57.7652C19.2743 57.7652 19.137 57.7506 19.137 57.7102C18.9867 57.1786 18.4551 57.3563 18.1141 57.1657C17.4581 56.7698 16.7083 56.5516 16.1072 56.0346C15.902 55.8568 15.6434 55.7065 15.3703 55.5983C15.2475 55.5433 15.1247 55.5159 15.0423 55.4205C14.5915 54.9584 13.9774 54.7402 13.4717 54.3589C12.9804 53.9905 12.4763 53.6495 11.9705 53.2956C11.4243 52.9143 10.8103 52.6137 10.3869 52.0692C9.54182 51.9334 9.2962 51.0334 8.59976 50.694C8.36707 50.5842 8.3396 50.2707 8.12145 50.1075C7.8209 49.8893 7.60275 49.5758 7.3022 49.3448C7.00164 49.0992 6.81097 48.7453 6.60575 48.4173C6.40215 48.1183 6.14199 47.8727 5.95131 47.5317C5.78649 47.2457 5.51503 47.0017 5.33728 46.6883C5.17246 46.3877 4.91392 46.1292 4.80403 45.8157C4.64083 45.339 4.24494 44.9706 4.1496 44.4664C4.13506 44.4115 4.12213 44.3436 4.09466 44.3307C3.75371 44.1125 3.80865 43.7037 3.61636 43.4177C3.38529 43.0913 3.19299 42.7778 3.19299 42.369C2.72923 41.9456 2.67429 41.3057 2.44322 40.7741C2.21053 40.2425 1.99239 39.7108 1.77424 39.1808C1.46076 38.4311 1.28302 37.6409 0.98246 36.9057C0.736845 36.3191 0.46376 35.7471 0.40882 35.1072C0.395893 34.9149 0.273085 34.8341 0.150278 34.7388C0.108265 34.6984 0.0129271 34.7242 0 34.6434C0.0807946 34.6289 0.150277 34.616 0.231072 34.603C0.300555 34.5885 0.408819 34.561 0.353879 34.4802C0.108264 34.0843 0.368422 33.6206 0.122807 33.2118C-0.0145429 32.9807 0.108264 32.5993 0.0953374 32.2858C0.0678674 31.8496 0.218145 31.4003 0.0274701 30.9786C1.0479e-07 30.9237 -0.0145428 30.9107 0.0274701 30.8558C0.203602 30.5972 0.300555 30.3242 0.135735 30.0107C0.572025 28.9749 0.572025 27.8438 0.872579 26.7676C1.2006 25.6106 1.47369 24.4375 1.85666 23.2805C2.238 22.1348 2.60643 20.9779 3.13967 19.9017C3.46608 19.2472 3.82157 18.5928 4.16253 17.9384C4.29988 17.6669 4.39522 17.6394 4.60043 17.8172C4.64083 17.843 4.69577 17.8301 4.74909 17.843C4.84605 17.8705 5.11913 17.7622 5.14499 17.6944C5.15953 17.6524 5.187 17.599 5.21447 17.557C5.24194 17.599 5.28234 17.6394 5.28234 17.6798C5.29526 17.7897 5.26779 17.898 5.28234 17.9933C5.32273 18.1565 5.46009 18.2115 5.55542 18.0757C5.77357 17.8172 6.20986 17.7477 6.31974 17.5037C6.45547 17.2031 6.81097 17.0674 6.83844 16.7265C6.86591 16.4534 7.27473 16.6715 7.27473 16.4001C7.27473 16.1948 7.38461 16.072 7.52034 15.9363C8.17639 15.2964 8.68055 14.5466 9.18632 13.7969C9.377 13.5108 9.377 13.5108 9.02312 13.4559C8.92616 13.443 8.77589 13.4834 8.76296 13.3751C8.75003 13.3072 8.90031 13.157 8.95363 13.157C9.2962 13.1844 9.3366 12.871 9.51435 12.7207C9.67755 12.5849 9.66463 12.2569 10.0056 12.3248C10.1138 12.3393 10.2787 12.1761 10.2787 11.9984C10.2787 11.8077 10.3595 11.7124 10.5647 11.7253C10.988 11.7673 11.1108 11.2761 11.4663 11.1953C11.5746 11.1678 11.5197 11.0046 11.5342 10.9093C11.5471 10.7994 11.5471 10.6911 11.657 10.6491C12.3809 10.3776 12.8172 9.7636 13.2955 9.23197C13.6494 8.82477 14.1552 8.56461 14.4008 8.06046C14.4557 7.95219 14.5785 7.97966 14.6739 7.96512C14.8096 7.96512 14.9599 7.96512 15.0294 7.84231C15.4786 7.07961 16.3528 6.97135 16.9943 6.49466C17.3352 6.24905 17.7457 6.11331 18.0188 5.74489C18.1545 5.55421 18.4955 5.41848 18.7281 5.36354C19.751 5.105 20.5977 4.47803 21.5398 4.05467C22.0714 3.8236 22.5901 3.59253 23.083 3.2645C23.3286 3.1013 23.6421 3.34691 23.8877 3.08837C24.0929 2.88315 24.3789 2.84275 24.652 2.74742C24.938 2.65208 25.2386 2.55674 25.4987 2.44686C26.1127 2.18832 26.7268 1.97018 27.3683 1.82151C28.1875 1.62922 28.9519 1.26242 29.7711 1.11214C30.5758 0.961861 31.4096 0.866524 32.2143 0.662921C32.4325 0.989331 32.3921 0.267029 32.6652 0.567584C32.788 0.690392 33.1289 0.690392 33.3196 0.540114C33.4974 0.404379 33.73 0.512644 33.9078 0.362366C34.0565 0.239559 34.3166 0.376909 34.4944 0.213705C34.5348 0.186235 34.6026 0.144222 34.6301 0.171692C35.2183 0.527187 35.7903 0.0763541 36.3639 0.158764C36.7194 0.213705 37.0879 -0.0319103 37.4013 0.0908972C37.7568 0.226632 38.1527 -0.018983 38.4533 0.281572C38.8766 -0.0868505 39.4632 0.472247 39.8866 0.035957C39.9399 -0.018983 40.1047 -0.00444007 40.1726 0.035957C40.4861 0.254102 40.8141 0.226632 41.155 0.158764C41.496 0.0908974 41.7966 0.294499 42.1375 0.321969C42.4106 0.334896 42.6837 0.118367 42.9713 0.389836C43.2024 0.607981 43.5708 0.457704 43.8714 0.540114C44.828 0.785729 45.8104 0.948934 46.7654 1.23495C47.1613 1.35775 47.4619 1.6163 47.8577 1.71163C48.1438 1.7795 48.3361 2.13338 48.7045 1.98472C48.8127 2.32567 49.2506 2.25619 49.4138 2.51635C49.6191 2.82821 49.9875 2.81528 50.2735 3.00596C51.2301 3.67332 52.1447 4.39562 52.9898 5.20033C53.3178 5.51382 53.6588 5.8273 54.0143 6.12624C54.2195 6.31691 54.6687 6.31691 54.5605 6.76613C54.7786 6.94388 54.9693 7.16202 55.2149 7.29776C55.4072 7.40764 55.53 7.5563 55.5979 7.74697C55.7207 8.075 55.9259 8.32061 56.2394 8.46928C56.3476 8.52422 56.4026 8.56461 56.43 8.67449C56.5803 9.31438 57.2089 9.65534 57.4125 10.2548C57.5224 10.5538 57.5498 9.83147 57.6581 10.2144C57.7131 10.4051 57.768 10.6087 57.8359 10.7994C57.9037 10.9771 58.0815 11.0175 58.1914 11.1807C58.3966 11.5088 58.4644 11.8901 58.6551 12.2165C58.8458 12.5429 59.0785 12.8564 59.2691 13.1844C59.4744 13.5383 59.6521 13.9197 59.7749 14.2735C60.0609 15.1591 60.4164 16.0187 60.7024 16.9042C60.9481 17.7073 61.003 18.5379 61.2486 19.3426C61.3714 19.7369 61.4393 20.1877 61.4393 20.6224C61.4393 21.3188 61.5217 22.0136 61.6445 22.681C61.7673 23.7168 61.6316 24.738 61.7269 25.7463ZM5.06419 33.076C5.07712 33.076 5.07712 33.076 5.06419 33.076C5.07712 33.7579 4.91391 34.4802 5.10459 35.0926C5.47301 36.2787 5.56835 37.5456 6.07412 38.6896C6.31974 39.2487 6.30519 39.8886 6.60575 40.4477C6.7431 40.7192 6.97417 40.9373 7.05658 41.2379C7.24726 41.9052 7.71263 42.4498 8.09398 42.996C8.8179 44.0043 9.58222 44.9706 10.374 45.9239C11.1383 46.8369 11.9026 47.7499 12.7219 48.6079C13.2955 49.2074 13.9904 49.6437 14.564 50.2303C15.0423 50.7199 15.6709 51.0608 16.2849 51.3065C17.6229 51.8235 18.9188 52.478 20.3117 52.8868C21.2538 53.1599 22.1684 53.5267 23.1363 53.7448C24.2965 54.0179 25.4712 54.2361 26.6444 54.4671C27.8466 54.7128 29.0747 54.7532 30.2898 54.9309C31.2044 55.0666 32.1319 55.1894 33.074 55.1345C33.6751 55.0941 34.2891 55.2024 34.8903 55.1765C35.4493 55.149 36.0101 55.0117 36.5692 54.9438C37.1961 54.876 37.8247 54.7532 38.4258 54.577C39.1352 54.3718 39.8171 54.1262 40.5006 53.8547C41.1001 53.6091 41.7432 53.3635 42.2749 53.0225C42.6707 52.764 43.0941 52.5458 43.5029 52.3148C43.5853 52.2744 43.6952 52.2873 43.7906 52.2194C44.4595 51.7007 45.1964 51.279 45.8654 50.7474C46.3146 50.3806 46.8478 50.0671 47.2437 49.6857C47.8028 49.1541 48.5542 48.8131 48.9355 48.1038C49.9729 47.3007 50.7647 46.252 51.5161 45.2033C52.3354 44.0721 52.9623 42.8311 53.5909 41.5917C53.9868 40.8016 54.3423 39.9985 54.7657 39.2083C55.1341 38.5264 55.1745 37.6813 55.6932 37.0543C55.7207 36.5227 56.1166 36.1284 56.199 35.6243C56.3072 35.0248 56.4979 34.4382 56.7306 33.9082C56.9762 33.3491 57.0166 32.7351 57.2622 32.1776C57.427 31.8221 57.427 31.3874 57.4674 30.9786C57.4949 30.5148 57.482 30.0381 57.482 29.5744C57.4674 29.1381 57.4949 28.6889 57.5094 28.2526C57.5224 27.5448 57.2768 26.8904 57.1814 26.223C57.0166 25.1469 56.5949 24.1385 56.2394 23.1028C55.9517 22.2302 55.6253 21.3867 55.3102 20.527C54.9143 19.4654 54.5605 18.3747 53.9997 17.3809C53.864 17.1353 53.6459 16.9171 53.578 16.6586C53.3728 15.8684 52.8395 15.2819 52.3079 14.7777C51.243 13.7694 50.288 12.6253 49.0325 11.8352C48.6625 11.6041 48.3086 11.3439 47.9676 11.0854C47.3391 10.5958 46.5877 10.3356 45.9187 9.90095C45.7555 9.79107 45.6197 9.6004 45.4145 9.57293C44.5549 9.42426 43.831 8.93304 43.0262 8.64702C42.2749 8.38848 41.496 8.29314 40.7592 8.03299C40.0773 7.80191 39.3129 7.74697 38.5761 7.72112C38.0703 7.70658 37.6195 7.50297 37.1153 7.52883C36.6241 7.54337 36.1183 7.48843 35.6271 7.52883C35.1763 7.57084 34.74 7.44803 34.2891 7.50297C33.7979 7.5563 33.2921 7.52883 32.8009 7.50297C31.6278 7.44803 30.4805 7.72112 29.3478 7.89725C28.4881 8.03299 27.601 8.18326 26.7543 8.4418C26.4537 8.53714 26.2081 8.72782 25.9075 8.76983C24.7199 8.92011 23.6421 9.46466 22.5222 9.80561C21.703 10.0496 20.9387 10.5004 20.134 10.8139C19.5878 11.0175 19.1095 11.3714 18.5633 11.5896C18.0042 11.8077 17.4726 12.0937 16.9394 12.3668C16.3932 12.6383 15.9165 13.0471 15.3558 13.2798C14.6335 13.5787 14.1002 14.0829 13.5961 14.642C13.3085 14.9554 13.0499 15.2964 12.7494 15.6099C12.6395 15.7311 12.5312 15.8959 12.4343 15.9767C11.998 16.3855 11.7798 16.9575 11.3435 17.3664C10.7699 17.898 10.3336 18.5653 9.86823 19.1923C9.36407 19.8742 8.84537 20.5545 8.35414 21.2639C7.95825 21.8359 7.80797 22.5437 7.28927 23.0203C7.09698 23.8929 6.62029 24.6556 6.34721 25.5007C6.12906 26.1956 5.82851 26.8904 5.71863 27.5998C5.58289 28.4578 5.3502 29.3029 5.26779 30.1739C5.21447 30.7879 5.00925 31.3729 5.06419 32.0128C5.09166 32.3408 5.06419 32.7092 5.06419 33.076ZM49.2781 7.13455C49.2636 7.10708 49.2636 7.07961 49.2361 7.06668C48.9905 6.91641 48.8677 6.67079 48.5817 6.53506C47.9256 6.20865 47.2841 5.79983 46.6846 5.39101C45.9187 4.88685 45.059 4.80444 44.2398 4.55883C43.9812 4.47803 43.6807 4.5055 43.4351 4.3827C42.9713 4.15001 42.4801 4.24535 41.9888 4.23242C41.866 4.23242 41.7836 4.25989 41.7836 4.39562C41.7836 4.49096 41.8515 4.51843 41.9339 4.53136C43.2298 4.61377 44.3771 5.18579 45.5777 5.59461C46.6297 5.96303 47.68 6.41225 48.5946 7.05214C48.7594 7.16202 48.9226 7.18949 49.1004 7.21696C49.1957 7.22989 49.2506 7.21696 49.2781 7.13455ZM5.62329 17.4213C5.61036 17.4213 5.58289 17.4488 5.56835 17.4617C5.58289 17.4762 5.59582 17.5166 5.62329 17.5166C5.63783 17.5166 5.66369 17.4892 5.67823 17.4762C5.65076 17.4488 5.63783 17.4213 5.62329 17.4213ZM61.9451 25.7189C61.9321 25.7189 61.9047 25.7463 61.8901 25.7593C61.9047 25.7738 61.9176 25.8142 61.9451 25.8142C61.958 25.8142 61.9855 25.7867 62 25.7738C61.9725 25.7463 61.958 25.7189 61.9451 25.7189ZM28.0098 59.4263C28.0098 59.4408 28.0373 59.4538 28.0518 59.4812C28.0647 59.4683 28.0922 59.4538 28.0922 59.4408C28.0922 59.4263 28.0647 59.4134 28.0518 59.3988C28.0373 59.3988 28.0098 59.4134 28.0098 59.4263ZM29.1425 43.227C28.1601 43.2674 27.1776 43.227 26.2081 43.0638C25.7169 42.9814 25.1982 42.8586 24.7344 42.6825C23.983 42.4094 23.2736 42.0135 22.5643 41.6192C22.1684 41.4011 21.7854 41.1425 21.4444 40.8565C20.5024 40.0663 19.7106 39.1388 18.9867 38.1305C18.8639 37.9544 18.9334 37.7088 18.7281 37.6005C18.3322 37.3824 18.1416 37.0139 17.9364 36.6455C17.5259 35.9232 17.0218 35.2704 16.6533 34.5206C16.4207 34.0569 16.3657 33.5398 16.0668 33.0906C15.9294 32.8853 16.0118 32.5444 15.9165 32.2729C15.8341 32.0128 15.7113 31.7267 15.8745 31.4133C16.0118 31.1418 15.7387 30.8833 15.7387 30.5827C15.7242 29.9283 15.9294 29.3158 15.9294 28.6614C15.9294 28.3754 16.0668 28.049 16.0522 27.7484C16.0393 27.4495 16.2154 27.2039 16.1896 26.9308C16.175 26.6044 16.3803 26.3458 16.3932 26.0453C16.8715 25.8692 16.3803 25.5411 16.516 25.3101C16.5435 25.2697 16.558 25.2147 16.5855 25.1743C16.8569 24.8188 16.8165 24.3971 16.7891 23.9883C16.7761 23.7297 16.7761 23.7297 16.3932 23.6473C16.3382 23.6344 16.2978 23.6344 16.2429 23.6069C15.7662 23.3888 15.3833 22.925 14.7417 23.1173C14.5915 23.1706 14.3604 22.8992 14.2909 22.6535C14.2634 22.5437 14.1552 22.4903 14.0453 22.5711C13.8142 22.7618 13.5266 22.9121 13.3763 23.1577C13.1178 23.6198 12.8172 24.1111 12.7494 24.6152C12.5991 25.6235 12.1353 26.5365 12.0529 27.5723C11.998 28.2397 12.1208 28.962 11.8897 29.5615C11.6295 30.2417 12.1628 30.8833 11.8073 31.5102C12.1078 32.2729 11.8477 33.0906 12.0529 33.8807C12.1757 34.3154 12.2985 34.7662 12.4084 35.2025C12.5312 35.6517 12.4213 36.1963 12.8447 36.5502C12.7623 36.9865 13.2406 37.1497 13.3085 37.5052C13.3909 37.8994 13.5815 38.2129 13.7868 38.5264C14.0598 38.9482 14.4137 39.3295 14.6739 39.7658C14.9744 40.2425 15.3703 40.6513 15.7113 41.0876C15.9698 41.414 16.3124 41.6596 16.5855 41.9731C16.844 42.2591 17.13 42.5047 17.4031 42.7778C17.6083 42.9814 17.8685 43.1592 18.0866 43.3498C19.0416 44.1804 20.2018 44.725 21.2263 45.4747C21.6497 45.7882 22.1409 46.0613 22.6321 46.252C23.8327 46.7141 25.0204 47.2328 26.276 47.5317C27.1631 47.7499 28.0647 47.968 28.9664 48.0084C30.9863 48.0908 33.0061 48.1312 34.971 47.5738C35.8178 47.3281 36.6096 46.9597 37.3884 46.5509C38.2206 46.1146 38.9025 45.5022 39.641 44.9706C40.3229 44.481 40.9773 43.9073 41.5784 43.2949C41.8386 43.0218 42.0292 42.6275 42.3153 42.4643C42.9438 42.0959 43.2848 41.5239 43.6807 40.9922C44.2818 40.2021 44.7859 39.357 45.3467 38.5539C45.5099 38.3083 45.6731 38.0497 45.7555 37.7912C45.8233 37.5585 45.9882 37.3953 46.056 37.1917C46.1384 36.9315 46.3291 36.7829 46.4374 36.5227C46.7929 35.6113 47.1758 34.6984 47.3665 33.7159C47.4344 33.417 47.68 33.1859 47.6671 32.8579C47.6396 31.9869 47.9402 31.1273 47.8303 30.2417C47.7624 29.6697 48.008 29.0977 47.8707 28.4982C47.8028 28.1847 48.2536 27.7904 47.8448 27.422C47.8303 27.4091 47.8577 27.3138 47.8852 27.2863C48.021 27.0956 47.9676 26.9049 47.8852 26.6997C47.7624 26.4137 47.8981 26.0728 47.6671 25.8142C47.5992 25.7318 48.0484 25.5007 47.5717 25.5153C47.2566 25.5282 47.1888 25.037 46.9028 25.0644C46.6426 25.0919 46.4649 25.4054 46.1514 25.3925C46.111 25.3925 46.0415 25.4733 46.0286 25.4733C45.6052 25.1065 45.1818 25.5686 44.773 25.5007C44.4175 25.4329 44.2672 25.7318 44.0362 25.8546C43.8035 25.9774 43.9408 26.236 43.9263 26.4266C43.9134 26.8629 43.9667 27.3267 43.8988 27.7484C43.831 28.1718 44.159 28.676 43.6678 29.0024C43.6952 29.0298 43.7081 29.0848 43.7356 29.0848C43.9134 29.1252 43.9538 29.248 43.8584 29.3562C43.7211 29.5469 43.776 29.7521 43.776 29.9557C43.776 30.2143 43.8035 30.4874 43.7631 30.733C43.7211 30.9237 43.9134 31.2226 43.5579 31.305C43.5708 31.5361 43.5853 31.7688 43.5983 31.9998C43.5983 32.0548 43.5853 32.1097 43.5708 32.1501C43.3672 32.8304 43.2169 33.5252 42.9438 34.1667C42.6837 34.7662 42.493 35.3932 42.1521 35.9781C41.824 36.5502 41.496 37.1222 41.0743 37.586C40.596 38.1047 40.1322 38.6492 39.6264 39.1534C38.303 40.4606 36.8148 41.4689 35.068 42.1234C34.399 42.369 33.7704 42.6275 33.0611 42.7633C31.791 43.0089 30.5354 43.2674 29.3623 43.1721C29.2524 43.227 29.1975 43.227 29.1425 43.227ZM33.9207 24.5474C34.0306 25.365 34.4669 26.0049 35.2441 26.2634C35.5318 25.9774 35.5172 26.5494 35.7224 26.4266C35.8452 26.3588 35.9551 26.236 36.0909 26.1826C36.1862 26.1552 36.0909 26.564 36.351 26.3313C36.5821 26.509 36.7744 26.4541 36.8826 26.1956C36.9505 26.0324 37.0329 25.9225 37.2236 25.9645C37.4288 26.0049 37.5516 25.8692 37.7019 25.7738C38.303 25.3779 38.4662 24.7106 38.6036 24.1111C38.7393 23.5245 38.7668 22.8846 38.7668 22.2722C38.7668 21.6452 38.7942 21.0183 38.8217 20.3913C38.8346 19.9275 38.7393 19.4508 38.8492 19.0016C39.0948 18.0483 38.9025 17.4892 38.1253 16.8897C38.0428 16.8218 37.9346 16.7669 37.9071 16.6715C37.7698 16.1819 37.2931 16.3047 36.978 16.127C36.8148 16.5229 36.1458 15.8006 36.0909 16.5229C36.0779 16.6586 35.8856 16.5633 35.7774 16.4808C35.354 16.1819 35.3411 16.1819 35.068 16.5762C34.9452 16.7539 34.8353 16.9042 34.6026 16.9301C34.4394 16.9575 34.3166 17.0674 34.2762 17.2306C34.1114 17.9384 33.8803 18.6478 33.8383 19.3555C33.8108 19.7369 33.7575 20.1328 33.7979 20.527C33.8383 20.9359 33.8108 21.3592 33.8108 21.768C33.7575 22.6939 33.7979 23.6198 33.9207 24.5474ZM25.6765 25.8966C26.0303 25.4458 26.318 25.0111 26.4408 24.4246C26.5216 24.0157 26.6185 23.5665 26.7543 23.1852C26.9595 22.5986 26.6718 22.0266 26.8641 21.482C26.9175 21.3447 26.9175 21.1685 26.8221 21.0312C26.6444 20.7872 26.6718 20.4737 26.7543 20.283C26.9724 19.7789 26.6185 19.3426 26.7139 18.8659C26.7413 18.7431 26.6589 18.6607 26.5765 18.5928C26.318 18.4021 26.2485 18.0757 26.0303 17.843C25.8397 17.6394 25.7847 17.2306 25.3484 17.5166C25.266 17.5716 25.1982 17.4342 25.1432 17.3389C25.035 17.1628 24.8976 16.985 24.6924 16.9301C24.5292 16.8897 24.4468 17.1078 24.324 17.1757C24.2561 17.2031 24.1608 17.2306 24.1058 17.2031C23.8053 17.0399 23.5871 17.1757 23.369 17.3664C23.2591 17.4617 23.1912 17.5037 23.0555 17.4084C22.7953 17.2435 22.5772 17.5166 22.3316 17.5441C22.1134 17.5716 22.2362 17.8576 22.1813 18.0079C22.086 18.2389 21.8678 18.4021 21.745 18.5928C21.6351 18.7835 21.7854 19.1115 21.6626 19.3426C21.4994 19.6286 21.3895 19.9017 21.5527 20.241C21.6077 20.3364 21.5947 20.5012 21.5123 20.6094C21.3346 20.868 21.3346 21.2219 21.4574 21.4271C21.6351 21.7535 21.2812 22.0815 21.5527 22.353C21.1714 22.925 21.6626 23.4986 21.5947 24.0836C21.5673 24.3163 21.8403 24.5878 21.6351 24.8738C21.5673 24.9691 21.6497 25.024 21.703 25.0515C21.9486 25.2276 22.0035 25.5153 22.1134 25.7593C22.1684 25.8692 22.1538 26.0598 22.359 26.1148C22.9181 26.2634 23.4094 26.6593 23.9281 26.5915C24.6665 26.5915 25.2256 26.4541 25.6765 25.8966ZM45.2643 9.80561C45.2772 9.83147 45.3046 9.85894 45.3046 9.85894C45.3741 9.83147 45.3741 9.79107 45.3321 9.7636C45.3192 9.75067 45.3046 9.7636 45.2772 9.7636C45.2772 9.7636 45.2643 9.79107 45.2643 9.80561ZM27.1098 20.3913C27.0952 20.3913 27.0677 20.4188 27.0548 20.4317C27.0677 20.4462 27.0823 20.4737 27.1098 20.4737C27.1227 20.4737 27.1501 20.4462 27.1631 20.4317C27.1372 20.4188 27.1227 20.3913 27.1098 20.3913ZM7.61568 12.7481C7.31674 12.5849 7.19393 12.8031 7.07113 13.0212C6.93377 13.2652 6.68816 13.5108 7.08405 13.7694C7.34259 13.9471 7.49287 13.9601 7.56236 13.7161C7.71263 13.3476 8.17639 13.0616 7.61568 12.7481ZM5.44554 14.4109C5.51503 14.5062 5.56835 14.6274 5.65076 14.6694C5.93677 14.8197 6.25187 15.2269 6.52496 14.6694C6.56535 14.5741 6.52496 14.4367 6.52496 14.3414C6.16946 14.3689 5.80104 14.3834 5.44554 14.4109ZM4.54549 15.6632C4.40814 15.6907 4.13506 15.6503 4.16253 15.8684C4.17707 15.9912 4.38067 16.1948 4.51802 16.2094C4.79111 16.2352 4.91391 16.0187 4.95431 15.7052C4.8719 15.4321 4.6683 15.6357 4.54549 15.6632ZM5.97879 12.7885C6.00626 13.0616 6.04665 13.3331 6.07412 13.5933C6.18239 13.5383 6.31974 13.5238 6.37468 13.443C6.52496 13.2378 6.62029 13.0212 6.31974 12.8564C6.19693 12.8289 6.08705 12.816 5.97879 12.7885ZM7.38461 15.4871C7.32967 15.3772 7.3022 15.2269 7.23433 15.1865C7.08405 15.1187 6.9063 15.1187 6.72856 15.0912C6.7835 15.2011 6.82389 15.2964 6.86591 15.3772C7.02911 15.5404 7.20686 15.5549 7.38461 15.4871ZM7.41208 13.9471C7.39753 14.0554 7.35714 14.1507 7.35714 14.2606C7.35714 14.3834 7.46702 14.4109 7.58983 14.3156C7.63022 14.2735 7.57528 14.1378 7.56236 14.0425C7.50741 14.015 7.46702 13.9875 7.41208 13.9471ZM59.8024 49.1541C59.8299 49.1396 59.8977 49.1266 59.8977 49.1121C59.9107 49.0168 59.9527 48.881 59.8977 48.8261C59.5842 48.3639 59.4065 48.3639 59.2013 48.8131C59.1463 48.9489 59.0785 49.0717 59.0235 49.2074C58.9961 49.2624 58.9961 49.3173 58.9961 49.3852C59.0655 49.3852 59.1334 49.3997 59.1884 49.3852C59.2966 49.3577 59.392 49.3173 59.4873 49.2769C59.5972 49.222 59.6925 49.1816 59.8024 49.1541ZM60.9481 48.309C61.0854 48.2686 61.1937 48.2007 61.1258 48.0084C61.0854 47.8872 61.003 47.8452 60.8947 47.8727C60.7445 47.9131 60.6346 47.9826 60.717 48.1733C60.7445 48.309 60.8398 48.3365 60.9481 48.309ZM59.8703 47.0971C59.8153 47.0017 59.7329 46.9597 59.6101 47.0147C59.4194 47.0825 59.434 47.2053 59.5018 47.3411C59.5568 47.4364 59.6376 47.4914 59.7475 47.4235C59.9381 47.3556 59.9381 47.2183 59.8703 47.0971ZM60.9901 46.197C61.1807 46.1292 61.1662 46.0064 61.0983 45.8706C61.0434 45.7753 60.9626 45.7333 60.8398 45.7882C60.6475 45.8561 60.675 45.9789 60.717 46.1017C60.7978 46.197 60.8673 46.2374 60.9901 46.197ZM58.6955 51.5101C58.5598 51.5925 58.5598 51.7153 58.5323 51.8235C58.5048 51.9609 58.382 52.1516 58.5468 52.2324C58.7375 52.3277 58.7779 52.1516 58.8329 52.0013C58.8603 51.9189 58.9961 51.893 59.0655 51.8235C59.1738 51.7282 59.1059 51.6474 59.051 51.565C58.9686 51.3743 58.8458 51.4293 58.6955 51.5101ZM55.8564 53.8676C55.8709 53.8951 55.9663 53.8951 55.9937 53.8822C56.0487 53.8402 56.1295 53.7319 56.1166 53.7174C55.9388 53.5138 55.9663 53.3231 56.144 53.1453C56.157 53.1324 56.102 53.0371 56.0616 53.0225C55.8564 52.9547 55.7336 53.1324 55.5979 53.2132C55.433 53.3231 55.6108 53.4314 55.6528 53.5267C55.7207 53.6495 55.7756 53.7594 55.8564 53.8676ZM57.7405 51.5521C57.5773 51.7153 57.5773 51.9334 57.5628 52.1241C57.5498 52.3148 57.7955 52.2873 57.9312 52.3277C57.9732 52.3422 58.096 52.2324 58.0815 52.2049C58.0411 51.9884 57.9861 51.7831 57.9312 51.565C57.9183 51.5375 57.8504 51.5246 57.8084 51.5101C57.7809 51.5246 57.768 51.5375 57.7405 51.5521ZM61.1807 50.8572C61.1533 50.8298 61.0854 50.8427 61.0434 50.8427C61.003 50.8427 60.8253 51.4697 60.8527 51.5101C60.9206 51.6474 61.003 51.6054 61.1533 51.5101C61.2632 51.4567 61.331 51.0205 61.1807 50.8572ZM59.5568 50.5034C59.5018 50.5163 59.5842 50.6246 59.6101 50.694C59.665 50.8152 59.7475 50.9106 59.8977 50.8023C59.9656 50.7474 59.9931 50.694 59.8832 50.5438C59.8153 50.5292 59.6796 50.4759 59.5568 50.5034ZM56.1715 51.9464C56.0891 51.8235 56.0067 51.851 55.9259 51.9189C55.8564 51.9738 55.8435 52.0288 55.8984 52.1096C55.9792 52.2324 56.0616 52.2049 56.144 52.1516C56.199 52.0837 56.2119 52.0288 56.1715 51.9464ZM57.1814 53.336C57.0586 53.4184 57.0861 53.5008 57.154 53.5816C57.2089 53.6495 57.2622 53.664 57.3446 53.6091C57.4674 53.5267 57.44 53.4459 57.385 53.3635C57.3172 53.3086 57.2622 53.2956 57.1814 53.336Z" fill="#2F80ED"/>
</svg>
