<svg width="115" height="75" viewBox="0 0 115 75" fill="none" xmlns="http://www.w3.org/2000/svg">
<path d="M0 1H114.721" stroke="#64019C" stroke-width="2" stroke-miterlimit="10"/>
<path d="M57.9139 1.00076V55.7812" stroke="#64019C" stroke-width="2" stroke-miterlimit="10"/>
<path d="M67.0246 64.8901C67.0246 69.9213 62.946 74 57.9148 74C52.8837 74 48.8051 69.9213 48.8051 64.8901C48.8051 59.8589 52.8837 55.7803 57.9148 55.7803C62.946 55.7803 67.0246 59.8589 67.0246 64.8901Z" stroke="#64019C" stroke-width="2" stroke-miterlimit="10"/>
<path d="M78.3477 1.00076V55.7812" stroke="#64019C" stroke-width="2" stroke-miterlimit="10"/>
<path d="M87.4563 64.8901C87.4563 69.9213 83.3777 74 78.3465 74C73.3154 74 69.2368 69.9213 69.2368 64.8901C69.2368 59.8589 73.3154 55.7803 78.3465 55.7803C83.3777 55.7803 87.4563 59.8589 87.4563 64.8901Z" stroke="#64019C" stroke-width="2" stroke-miterlimit="10"/>
<path d="M98.7874 1.00076V55.7812" stroke="#64019C" stroke-width="2" stroke-miterlimit="10"/>
<path d="M107.898 64.8901C107.898 69.9213 103.819 74 98.7882 74C93.7571 74 89.6785 69.9213 89.6785 64.8901C89.6785 59.8589 93.7571 55.7803 98.7882 55.7803C103.819 55.7803 107.898 59.8589 107.898 64.8901Z" stroke="#64019C" stroke-width="2" stroke-miterlimit="10"/>
<path d="M17.1638 1.00076V55.7812" stroke="#64019C" stroke-width="2" stroke-miterlimit="10"/>
<path d="M26.2777 64.8901C26.2777 69.9213 22.1948 74 17.1636 74C12.1325 74 8.05383 69.9213 8.05383 64.8901C8.05383 59.8589 12.1325 55.7803 17.1636 55.7803C22.1948 55.7803 26.2777 59.8589 26.2777 64.8901Z" stroke="#64019C" stroke-width="2" stroke-miterlimit="10"/>
<path d="M37.6035 1.00076V55.7812" stroke="#64019C" stroke-width="2" stroke-miterlimit="10"/>
<path d="M46.7185 64.8901C46.7185 69.9213 42.6399 74 37.6044 74C32.5732 74 28.4946 69.9213 28.4946 64.8901C28.4946 59.8589 32.5732 55.7803 37.6044 55.7803C42.6399 55.7803 46.7185 59.8589 46.7185 64.8901Z" stroke="#64019C" stroke-width="2" stroke-miterlimit="10"/>
<path d="M50.6277 66.1583C50.6277 66.1583 51.6971 71.5445 56.9967 72.1074" stroke="#64019C" stroke-width="2" stroke-miterlimit="10"/>
<path d="M30.0326 66.1583C30.0326 66.1583 31.1064 71.5445 36.406 72.1074" stroke="#64019C" stroke-width="2" stroke-miterlimit="10"/>
<path d="M9.44012 66.1583C9.44012 66.1583 10.5096 71.5445 15.8092 72.1074" stroke="#64019C" stroke-width="2" stroke-miterlimit="10"/>
<path d="M71.2194 66.1583C71.2194 66.1583 72.2889 71.5445 77.5885 72.1074" stroke="#64019C" stroke-width="2" stroke-miterlimit="10"/>
<path d="M91.6733 66.1583C91.6733 66.1583 92.7428 71.5445 98.0424 72.1074" stroke="#64019C" stroke-width="2" stroke-miterlimit="10"/>
</svg>
