<svg width="135" height="141" viewBox="0 0 135 141" fill="none" xmlns="http://www.w3.org/2000/svg">
<path d="M25.3857 46.4808C25.3857 46.4808 46.0034 116.561 78.8224 103.451C111.643 90.3455 75.8948 25.8136 75.8948 25.8136L93.56 18.5854C93.56 18.5854 137.43 101.397 86.5075 122.233C35.5846 143.07 6.89283 54.0477 6.89283 54.0477L25.3857 46.4808Z" stroke="#64019C" stroke-width="2" stroke-miterlimit="10"/>
<path d="M25.3858 46.4797L30.0897 44.5549C30.0897 44.5549 50.3056 109.386 78.8224 103.45L86.5075 122.232C143.001 99.1076 99.0195 16.3504 99.0195 16.3504L93.5601 18.5842" stroke="#64019C" stroke-width="2" stroke-miterlimit="10"/>
<path d="M8.0777 57.4316L11.1716 52.2979" stroke="#64019C" stroke-width="2" stroke-miterlimit="10"/>
<path d="M9.4342 60.7461L15.5878 50.4926" stroke="#64019C" stroke-width="2" stroke-miterlimit="10"/>
<path d="M10.9105 64.3496L20.2798 48.5669" stroke="#64019C" stroke-width="2" stroke-miterlimit="10"/>
<path d="M12.4503 68.4297L25.387 46.4822" stroke="#64019C" stroke-width="2" stroke-miterlimit="10"/>
<path d="M14.2272 72.3867L26.9427 50.8088" stroke="#64019C" stroke-width="2" stroke-miterlimit="10"/>
<path d="M16.0277 76.1426L28.3964 55.3091" stroke="#64019C" stroke-width="2" stroke-miterlimit="10"/>
<path d="M17.893 79.666L29.9733 59.1676" stroke="#64019C" stroke-width="2" stroke-miterlimit="10"/>
<path d="M19.7511 83.3047L31.563 63.2661" stroke="#64019C" stroke-width="2" stroke-miterlimit="10"/>
<path d="M21.6041 86.7422L33.2032 67.061" stroke="#64019C" stroke-width="2" stroke-miterlimit="10"/>
<path d="M23.7161 89.9746L35.0329 70.914" stroke="#64019C" stroke-width="2" stroke-miterlimit="10"/>
<path d="M25.7581 93.2012L36.8122 74.4518" stroke="#64019C" stroke-width="2" stroke-miterlimit="10"/>
<path d="M27.893 96.3691L38.72 77.9963" stroke="#64019C" stroke-width="2" stroke-miterlimit="10"/>
<path d="M30.1758 99.4473L40.7555 81.499" stroke="#64019C" stroke-width="2" stroke-miterlimit="10"/>
<path d="M32.4196 102.463L42.8746 84.8492" stroke="#64019C" stroke-width="2" stroke-miterlimit="10"/>
<path d="M34.7212 105.238L44.9588 87.8731" stroke="#64019C" stroke-width="2" stroke-miterlimit="10"/>
<path d="M37.0212 108.127L47.2107 90.839" stroke="#64019C" stroke-width="2" stroke-miterlimit="10"/>
<path d="M39.5491 110.723L49.6055 93.662" stroke="#64019C" stroke-width="2" stroke-miterlimit="10"/>
<path d="M42.2519 112.961L52.1438 96.2998" stroke="#64019C" stroke-width="2" stroke-miterlimit="10"/>
<path d="M44.8791 115.178L54.6716 98.5662" stroke="#64019C" stroke-width="2" stroke-miterlimit="10"/>
<path d="M47.6501 117.27L57.4449 100.653" stroke="#64019C" stroke-width="2" stroke-miterlimit="10"/>
<path d="M50.6874 119.146L60.404 102.663" stroke="#64019C" stroke-width="2" stroke-miterlimit="10"/>
<path d="M53.6543 120.939L63.7778 103.891" stroke="#64019C" stroke-width="2" stroke-miterlimit="10"/>
<path d="M57.0757 122.436L67.4553 104.822" stroke="#64019C" stroke-width="2" stroke-miterlimit="10"/>
<path d="M60.4365 123.738L71.3538 105.218" stroke="#64019C" stroke-width="2" stroke-miterlimit="10"/>
<path d="M63.9444 124.643L75.9672 104.394" stroke="#64019C" stroke-width="2" stroke-miterlimit="10"/>
<path d="M67.9001 125.238L79.5834 105.416" stroke="#64019C" stroke-width="2" stroke-miterlimit="10"/>
<path d="M71.9827 125.385L81.2226 109.708" stroke="#64019C" stroke-width="2" stroke-miterlimit="10"/>
<path d="M76.1871 125.053L82.955 113.657" stroke="#64019C" stroke-width="2" stroke-miterlimit="10"/>
<path d="M81.0491 124.08L84.7165 117.857" stroke="#64019C" stroke-width="2" stroke-miterlimit="10"/>
<path d="M8.97363 50.1347C8.97363 50.1347 6.2812 48.494 5.99512 44.9027C5.70905 41.3115 6.22086 38.8469 4.36904 36.3793" stroke="#64019C" stroke-width="2" stroke-miterlimit="10"/>
<path d="M15.5579 47.4414C15.5579 47.4414 12.8655 45.8006 12.5794 42.2093C12.2933 38.6181 12.8051 36.1536 10.9533 33.6859" stroke="#64019C" stroke-width="2" stroke-miterlimit="10"/>
<path d="M22.1405 44.75C22.1405 44.75 19.4481 43.1092 19.162 39.5179C18.8759 35.9267 19.3877 33.4622 17.5359 30.9945" stroke="#64019C" stroke-width="2" stroke-miterlimit="10"/>
<path d="M76.6247 22.2936C76.6247 22.2936 73.9377 20.655 73.6478 17.0653C73.3617 13.4741 73.872 11.0058 72.0217 8.54191" stroke="#64019C" stroke-width="2" stroke-miterlimit="10"/>
<path d="M83.2067 19.5957C83.2067 19.5957 80.5158 17.9587 80.2297 14.3674C79.9436 10.7762 80.4539 8.30787 78.6036 5.84401" stroke="#64019C" stroke-width="2" stroke-miterlimit="10"/>
<path d="M89.7908 16.9023C89.7908 16.9023 87.0999 15.2653 86.8139 11.6741C86.5278 8.08283 87.0381 5.61451 85.1916 3.1491" stroke="#64019C" stroke-width="2" stroke-miterlimit="10"/>
</svg>
