<svg width="87" height="91" viewBox="0 0 87 91" fill="none" xmlns="http://www.w3.org/2000/svg">
<path d="M23.0919 76.0382C23.0191 75.9654 23.0074 75.8551 23.0661 75.7752C23.1154 75.7048 23.1929 75.6649 23.2727 75.6649C23.2915 75.6649 23.3103 75.6672 23.3291 75.6696C23.4206 75.6931 23.4817 75.7612 23.4887 75.848C23.4887 75.8551 23.4887 75.8621 23.4864 75.8715C23.4911 75.8973 23.4934 75.9114 23.4934 75.9232C23.4911 75.9819 23.4605 76.0359 23.4112 76.0711L23.4018 76.0782L23.3971 76.0875C23.3948 76.0922 23.3925 76.1016 23.3854 76.1016C23.3713 76.104 23.3596 76.1063 23.3455 76.1063H23.3267C23.3103 76.1087 23.2938 76.111 23.2774 76.111C23.2069 76.1087 23.1388 76.0828 23.0919 76.0382ZM21.6313 85.8395L21.6219 85.8278L21.6196 85.8208C21.5867 85.7949 21.5327 85.7621 21.4552 85.7621H21.4529C21.3941 85.7668 21.3401 85.7902 21.2979 85.8325C21.2227 85.9053 21.2016 86.018 21.2462 86.1025C21.2861 86.1777 21.3683 86.2246 21.4552 86.2246C21.481 86.227 21.5045 86.2223 21.528 86.2129C21.5844 86.1941 21.629 86.1612 21.6571 86.1166C21.683 86.0697 21.6924 86.011 21.6806 85.9429C21.6736 85.9053 21.6548 85.8701 21.6313 85.8395ZM23.5099 81.0187C23.4676 81.0211 23.43 81.0328 23.3878 81.0563C23.3596 81.0633 23.3337 81.0774 23.315 81.0962C23.2586 81.1479 23.2445 81.2371 23.2821 81.3122C23.315 81.3733 23.3831 81.4109 23.4605 81.4132L23.4746 81.4109C23.5639 81.4062 23.6437 81.3733 23.693 81.3216C23.7212 81.2911 23.7376 81.2559 23.7423 81.216C23.7447 81.1808 23.7329 81.1408 23.7095 81.1103C23.6695 81.054 23.6014 81.0187 23.5122 81.0187C23.5099 81.0187 23.5099 81.0187 23.5099 81.0187ZM27.5746 35.9665C27.5887 35.1376 27.6098 34.3087 27.6098 33.4798C27.6121 32.6509 27.6027 31.822 27.5323 30.9954C27.5276 30.9156 27.4642 30.8498 27.382 30.8428C27.2904 30.8334 27.2082 30.9038 27.2012 30.9954V30.9978C27.1331 31.8267 27.1237 32.6556 27.1284 33.4821C27.1284 34.311 27.1495 35.14 27.166 35.9689C27.2012 37.6243 27.1824 39.2821 27.1542 40.9376C27.1214 42.5954 27.0955 44.2509 27.1049 45.9087C27.119 47.5665 27.1355 49.222 27.2176 50.8798V50.8822C27.2223 50.9644 27.2881 51.0301 27.3703 51.0348C27.4572 51.0371 27.5323 50.9714 27.537 50.8822C27.6192 49.2243 27.6333 47.5689 27.645 45.9111C27.6521 44.2532 27.6262 42.5954 27.591 40.9376C27.5605 39.2798 27.5417 37.6243 27.5746 35.9665ZM43.3543 71.3254C37.0237 60.7985 24.8671 73.2228 34.0086 80.2391C39.6513 84.1512 46.3131 77.055 43.3543 71.3254ZM39.7311 87.4715C39.6982 87.4504 39.6583 87.4387 39.6043 87.4363C39.5292 87.4363 39.4587 87.4692 39.4164 87.5279C39.3953 87.5561 39.3836 87.5983 39.3859 87.6312C39.3883 87.6711 39.4024 87.7064 39.4329 87.7369C39.4798 87.7909 39.562 87.8238 39.6489 87.8308H39.663C39.7405 87.8308 39.8109 87.7932 39.8438 87.7322C39.8814 87.6594 39.8696 87.5678 39.8133 87.5162C39.7922 87.4974 39.7687 87.4833 39.7311 87.4715ZM37.0495 87.2931C37.0401 87.2931 37.0307 87.2907 37.0213 87.2907C36.9602 87.2907 36.8992 87.3142 36.8499 87.3541C36.7935 87.3964 36.7583 87.4527 36.7466 87.5068C36.7278 87.6148 36.7912 87.7298 36.8968 87.7791C36.9344 87.7979 36.9767 87.8073 37.0213 87.8073H37.0377C37.0753 87.8073 37.1129 87.7979 37.1504 87.7815C37.2162 87.7486 37.2702 87.6805 37.2866 87.6077C37.3054 87.5279 37.2866 87.4481 37.2373 87.387C37.1951 87.3353 37.127 87.3025 37.0495 87.2931ZM41.922 85.5742C41.9454 85.3957 41.7999 85.2619 41.6425 85.2243C41.6143 85.2173 41.5862 85.2126 41.558 85.2126C41.5016 85.2126 41.45 85.2267 41.4077 85.2572C41.3443 85.3018 41.3044 85.3699 41.2926 85.4521C41.2809 85.539 41.3044 85.6235 41.3631 85.6869C41.4007 85.7292 41.4735 85.7574 41.5251 85.7808L41.5509 85.7902C41.5815 85.802 41.612 85.809 41.6449 85.809C41.7787 85.809 41.9032 85.7034 41.922 85.5742ZM42.0558 87.3072C42.0488 87.3048 42.0394 87.3048 42.03 87.3048C41.9548 87.3048 41.8797 87.333 41.8186 87.3823C41.6918 87.488 41.6566 87.6782 41.7388 87.8073C41.7975 87.8966 41.9032 87.96 41.9994 87.96C42.0088 87.96 42.0159 87.96 42.0253 87.96L42.0441 87.9553H42.0699C42.1591 87.9553 42.246 87.8801 42.2953 87.8073C42.3658 87.697 42.3939 87.5255 42.2906 87.4105C42.239 87.3541 42.1544 87.3142 42.0558 87.3072ZM23.2281 79.058L23.261 79.065C23.268 79.065 23.2774 79.065 23.2844 79.065C23.3807 79.065 23.4887 79.004 23.5474 78.9124C23.6296 78.7856 23.5967 78.5931 23.4723 78.4897C23.4112 78.4381 23.3337 78.4099 23.2586 78.4099C23.2492 78.4099 23.2422 78.4099 23.2328 78.4099C23.1342 78.4193 23.0496 78.4569 22.998 78.5132C22.8923 78.6259 22.9205 78.7973 22.9909 78.9077C23.0379 78.9829 23.1271 79.058 23.2281 79.058ZM45.9444 81.0633H45.9585C46.0454 81.0586 46.1276 81.0258 46.1769 80.9741C46.205 80.9412 46.2215 80.906 46.2238 80.8684C46.2262 80.8332 46.2144 80.7933 46.1933 80.7628C46.151 80.7041 46.0829 80.6712 45.9937 80.6689C45.9937 80.6689 45.9937 80.6689 45.9914 80.6689C45.9514 80.6735 45.9115 80.6829 45.8716 80.7064C45.8411 80.7158 45.8176 80.7299 45.7965 80.7487C45.7401 80.8003 45.726 80.8896 45.7659 80.9624C45.7965 81.0258 45.8669 81.0633 45.9444 81.0633ZM23.3032 86.6285C23.2938 86.6285 23.2844 86.6285 23.2774 86.6309C23.1788 86.6379 23.0919 86.6755 23.0402 86.7319C22.9369 86.8469 22.9651 87.016 23.0355 87.1287C23.0825 87.2015 23.1694 87.2766 23.2703 87.279C23.2727 87.279 23.2985 87.2813 23.2985 87.2813C23.2985 87.2813 23.3197 87.2837 23.3291 87.2837C23.4253 87.286 23.531 87.2226 23.5897 87.1334C23.6742 87.0042 23.639 86.814 23.5146 86.7084C23.4535 86.6567 23.3784 86.6285 23.3032 86.6285ZM23.5169 84.0033C23.4793 84.0033 23.43 84.0103 23.3948 84.0455C23.3572 84.0831 23.3314 84.123 23.322 84.1606C23.2915 84.2733 23.3009 84.3649 23.3502 84.4283C23.3925 84.4846 23.4652 84.5175 23.5521 84.5199C23.6531 84.5199 23.747 84.4729 23.794 84.4025C23.8386 84.332 23.8363 84.2451 23.7916 84.1442C23.7588 84.0714 23.6273 84.0033 23.5169 84.0033ZM27.6802 18.5594C27.692 18.0241 27.7084 17.491 27.7014 16.9556C27.699 16.4226 27.6802 15.8872 27.6027 15.3542C27.591 15.2814 27.5323 15.2203 27.4548 15.2133C27.3632 15.2015 27.2787 15.2696 27.2693 15.3612C27.2106 15.8943 27.2082 16.4296 27.22 16.9627C27.227 17.4957 27.2529 18.0288 27.2716 18.5618C27.3116 19.6279 27.2928 20.6939 27.2552 21.76C27.2129 22.8261 27.173 23.8922 27.1589 24.9582C27.1495 26.0243 27.1378 27.0904 27.1848 28.1612C27.1871 28.2386 27.2458 28.3044 27.3257 28.3138C27.4149 28.3232 27.4924 28.2598 27.5018 28.1705C27.6192 27.1068 27.6638 26.0384 27.699 24.97C27.7295 23.9016 27.7178 22.8331 27.692 21.7647C27.6708 20.6963 27.6521 19.6279 27.6802 18.5594ZM16.8082 20.0623C16.8035 20.0646 16.8058 20.0646 16.8128 20.0599C16.8128 20.0623 16.8105 20.0623 16.8082 20.0623ZM18.7008 71.3254C12.3701 60.7985 0.211202 73.2228 9.35267 80.2391C14.9977 84.1512 21.6595 77.055 18.7008 71.3254ZM14.8662 87.4598C14.8333 87.4387 14.7934 87.4269 14.7394 87.4246C14.6643 87.4246 14.5938 87.4574 14.5515 87.5162C14.5304 87.5443 14.5187 87.5866 14.521 87.6195C14.5234 87.6594 14.5375 87.6946 14.568 87.7275C14.6149 87.7791 14.6971 87.812 14.784 87.8191H14.7981C14.8779 87.8191 14.946 87.7815 14.9789 87.7204C15.0165 87.6476 15.0047 87.5561 14.9484 87.5044C14.9273 87.4856 14.9038 87.4715 14.8662 87.4598ZM12.6119 87.2931C12.6049 87.2931 12.5955 87.2907 12.5861 87.2907C12.5251 87.2907 12.4617 87.3142 12.4124 87.3541C12.3583 87.3964 12.3208 87.4527 12.3114 87.5068C12.2902 87.6148 12.3537 87.7298 12.4617 87.7791C12.4992 87.7979 12.5392 87.8073 12.5838 87.8073H12.6002C12.6401 87.8073 12.6777 87.7979 12.7129 87.7815C12.781 87.7486 12.835 87.6805 12.8515 87.6077C12.8679 87.5279 12.8515 87.4481 12.7998 87.387C12.7575 87.3353 12.6894 87.3025 12.6119 87.2931ZM17.3459 87.3072C17.3365 87.3048 17.3271 87.3048 17.3177 87.3048C17.2426 87.3048 17.1674 87.333 17.1064 87.3823C16.9796 87.488 16.9443 87.6782 17.0265 87.8073C17.0852 87.8966 17.1909 87.96 17.2872 87.96C17.2966 87.96 17.3036 87.96 17.313 87.96L17.3341 87.9553H17.3576C17.4469 87.9553 17.5337 87.8801 17.5831 87.8073C17.6535 87.697 17.6817 87.5255 17.5807 87.4105C17.529 87.3541 17.4422 87.3142 17.3459 87.3072ZM17.097 85.7034C17.2308 85.7034 17.3553 85.5977 17.3741 85.4662C17.3999 85.2877 17.252 85.1562 17.0946 85.1163C17.0665 85.1093 17.0383 85.1069 17.0101 85.1046C16.9537 85.1046 16.9021 85.121 16.8622 85.1492C16.7964 85.1938 16.7565 85.2642 16.7448 85.3441C16.733 85.4333 16.7588 85.5178 16.8152 85.5812C16.8528 85.6212 16.9256 85.6517 16.9796 85.6728L17.0054 85.6846C17.0336 85.6963 17.0641 85.7034 17.097 85.7034ZM3.10181 6.0178C3.09712 5.93796 3.03606 5.87222 2.95388 5.86752C2.867 5.86047 2.78951 5.92622 2.78246 6.01311C2.68619 7.21538 2.65801 8.41764 2.63218 9.62226C2.61104 10.8245 2.62513 12.0291 2.64392 13.2338C2.66036 14.436 2.66505 15.6407 2.62044 16.8429C2.59695 17.4441 2.57112 18.0475 2.56408 18.6487C2.55234 19.2498 2.55469 19.8509 2.61809 20.4544C2.62513 20.5296 2.68384 20.593 2.76367 20.6024C2.85525 20.6141 2.93744 20.5484 2.94918 20.4568V20.4521C3.02432 19.8509 3.04076 19.2498 3.04311 18.6487C3.05015 18.0475 3.03606 17.4464 3.02667 16.8453C3.00789 15.643 3.03841 14.4407 3.08068 13.2385C3.12764 12.0362 3.16756 10.8339 3.17226 9.63165C3.17226 8.42939 3.16991 7.22712 3.10181 6.0225V6.0178ZM2.69558 67.303C2.78246 67.3124 2.8623 67.249 2.87169 67.1598C2.98675 66.035 3.02667 64.9079 3.0572 63.7807C3.08068 62.6536 3.06189 61.5241 3.02902 60.397C2.99849 59.2699 2.97266 58.1427 2.9891 57.0133C2.9938 56.4497 3.00554 55.8861 2.9938 55.3226C2.9844 54.759 2.96092 54.1954 2.87404 53.6342C2.8623 53.5591 2.80359 53.498 2.72376 53.491C2.63218 53.4839 2.54999 53.552 2.54295 53.6436C2.49129 54.2072 2.49598 54.7708 2.51242 55.3343C2.52416 55.8955 2.55704 56.4591 2.58052 57.0203C2.63218 58.1451 2.62044 59.2722 2.59226 60.397C2.55938 61.5218 2.52416 62.6466 2.51477 63.7737C2.51242 64.8985 2.50303 66.0232 2.55234 67.1504C2.55469 67.2302 2.61574 67.296 2.69558 67.303ZM2.64861 25.2964C2.7355 25.3293 2.83412 25.2846 2.867 25.1978C2.95153 24.97 2.98206 24.7399 2.99615 24.5097C3.01493 24.282 2.9844 24.0495 2.96092 23.8194C2.93744 23.5892 2.91866 23.3591 2.96562 23.129C2.99615 22.8989 3.06894 22.6711 2.94449 22.4386C2.9304 22.4081 2.90457 22.3823 2.87404 22.3635C2.78481 22.3095 2.6674 22.34 2.61339 22.4292C2.4772 22.657 2.53825 22.8871 2.55703 23.1196C2.58991 23.3497 2.55938 23.5799 2.52416 23.8076C2.48894 24.0378 2.44902 24.2655 2.45372 24.4956C2.45606 24.7258 2.4725 24.9582 2.54764 25.1884C2.56173 25.2377 2.5993 25.2776 2.64861 25.2964ZM3.07129 70.6773C3.09712 70.3744 3.16052 70.0692 3.02432 69.7709C3.00554 69.731 2.97266 69.6958 2.92805 69.677C2.83412 69.6394 2.72845 69.6841 2.69088 69.778C2.56878 70.0809 2.63922 70.3768 2.66505 70.6773C2.70497 70.9756 2.67679 71.2761 2.64157 71.5743C2.60635 71.8749 2.56173 72.1708 2.56173 72.4713C2.55704 72.7696 2.56643 73.0701 2.62748 73.373C2.63922 73.4294 2.67914 73.4787 2.73785 73.4975C2.82473 73.5257 2.91866 73.4787 2.94683 73.3918C3.04546 73.096 3.08303 72.7954 3.10416 72.4925C3.12764 72.1896 3.10181 71.8867 3.07833 71.5837C3.05485 71.2808 3.03372 70.9779 3.07129 70.6773ZM19.3606 83.5101C19.4428 83.381 19.4099 83.1908 19.2831 83.0851C19.2221 83.0335 19.1469 83.0053 19.0718 83.0053C19.0624 83.0053 19.0554 83.0053 19.046 83.0076C18.9473 83.0147 18.8628 83.0523 18.8088 83.1086C18.7055 83.2237 18.7337 83.3927 18.8041 83.5055C18.8511 83.5782 18.938 83.6534 19.0413 83.6557L19.0718 83.6604C19.0812 83.6604 19.0906 83.6628 19.0976 83.6628C19.1939 83.6628 19.3019 83.5994 19.3606 83.5101ZM21.2321 81.0633H21.2462C21.3331 81.0586 21.4153 81.0258 21.4646 80.9741C21.4928 80.9412 21.5092 80.906 21.5116 80.8684C21.5139 80.8332 21.5022 80.7933 21.481 80.7628C21.4411 80.7041 21.3707 80.6712 21.2814 80.6689C21.2392 80.6735 21.1992 80.6829 21.1593 80.7064C21.1312 80.7158 21.1053 80.7299 21.0842 80.7487C21.0278 80.8003 21.0161 80.8896 21.0537 80.9624C21.0865 81.0258 21.1546 81.0633 21.2321 81.0633ZM18.0691 30.0632H18.0644C17.2449 29.9599 16.4277 29.9317 15.6106 29.9223C14.7934 29.9082 13.9762 29.9575 13.1591 29.9998C12.3419 30.0374 11.5247 30.0773 10.7076 30.028C9.89041 29.9951 9.07559 29.9082 8.25607 30.0843L8.25138 30.0867C8.16684 30.1055 8.0964 30.1712 8.07761 30.2628C8.05178 30.3849 8.12927 30.5046 8.25138 30.5305C9.06854 30.6995 9.88806 30.608 10.7052 30.5727C11.5247 30.5164 12.3419 30.5516 13.1614 30.5845C13.9786 30.6221 14.7981 30.6643 15.6176 30.6479C16.4348 30.6314 17.2543 30.5986 18.0715 30.4906C18.1654 30.4765 18.2429 30.4037 18.2546 30.3027C18.2687 30.1853 18.1865 30.0796 18.0691 30.0632ZM18.0691 53.0237H18.0644C17.2449 52.9204 16.4277 52.8922 15.6106 52.8805C14.7934 52.8687 13.9762 52.918 13.1591 52.9603C12.3419 52.9979 11.5247 53.0378 10.7076 52.9885C9.89041 52.9556 9.07559 52.8687 8.25607 53.0448L8.25138 53.0472C8.16684 53.066 8.0964 53.1317 8.07761 53.221C8.05178 53.3454 8.12927 53.4652 8.25138 53.4886C9.06854 53.6601 9.88806 53.5685 10.7052 53.5333C11.5247 53.4769 12.3419 53.5121 13.1614 53.545C13.9786 53.5826 14.7981 53.6248 15.6176 53.6084C16.4348 53.592 17.2543 53.5567 18.0715 53.4511C18.1654 53.437 18.2429 53.3618 18.2546 53.2632C18.2687 53.1458 18.1865 53.0378 18.0691 53.0237ZM18.0691 37.7183L18.0644 37.7159C17.2449 37.6149 16.4277 37.5844 15.6106 37.575C14.7934 37.5609 13.9762 37.6102 13.1591 37.6525C12.3419 37.6901 11.5247 37.73 10.7076 37.6807C9.89041 37.6502 9.07559 37.5633 8.25607 37.7394H8.25138C8.16684 37.7582 8.0964 37.8239 8.07761 37.9155C8.05178 38.0376 8.12927 38.1574 8.25138 38.1832C9.06854 38.3546 9.88806 38.263 10.7052 38.2255C11.5247 38.1691 12.3419 38.2043 13.1614 38.2372C13.9786 38.2748 14.7981 38.3194 15.6176 38.3006C16.4348 38.2865 17.2543 38.2513 18.0715 38.1433C18.1654 38.1315 18.2429 38.0564 18.2546 37.9578C18.2687 37.8404 18.1865 37.7323 18.0691 37.7183ZM18.0691 45.371H18.0644C17.2449 45.2677 16.4277 45.2371 15.6106 45.2277C14.7934 45.216 13.9762 45.2653 13.1591 45.3076C12.3419 45.3451 11.5247 45.3851 10.7076 45.3334C9.89041 45.3029 9.07559 45.216 8.25607 45.3921L8.25138 45.3945C8.16684 45.4109 8.0964 45.479 8.07761 45.5682C8.05178 45.6903 8.12927 45.8101 8.25138 45.8359C9.06854 46.0073 9.88806 45.9158 10.7052 45.8782C11.5247 45.8242 12.3419 45.8594 13.1614 45.8899C13.9786 45.9275 14.7981 45.9721 15.6176 45.9533C16.4348 45.9392 17.2543 45.904 18.0715 45.796C18.1654 45.7843 18.2429 45.7091 18.2546 45.6105C18.2687 45.4931 18.1865 45.3851 18.0691 45.371ZM20.9574 58.8402L20.9597 58.9364C20.9574 58.9857 20.9574 59.0468 20.948 59.1078C20.9222 59.345 20.7766 59.6151 20.5676 59.7677C20.3586 59.9274 20.1214 59.9884 19.8937 59.9884L19.9524 59.9649C19.9007 59.979 19.849 59.9931 19.7974 59.9978L19.734 60.0002L19.6964 60.0025H19.6189L19.316 60.0095L18.7219 60.0119H17.5384L15.1762 59.9978L10.4516 59.9555L8.0917 59.9297L7.49996 59.9227C7.29332 59.918 7.14069 59.9297 6.84951 59.9062C6.68514 59.8804 6.52077 59.817 6.37518 59.7043C6.23194 59.5939 6.11688 59.4272 6.06287 59.2534C6.03704 59.1689 6.0206 59.0797 6.01591 58.9998L6.01356 58.8355L6.00886 58.5396L5.94546 53.8056C5.8938 50.6544 5.84214 47.4914 5.84449 44.3354L5.85153 34.8652C5.85388 31.1598 5.84684 27.4544 5.8304 23.7489C5.81631 23.7067 5.80222 23.6644 5.79987 23.6198V23.5916C5.79753 22.5326 5.78813 21.4571 5.81162 20.3934C5.80457 18.9093 5.79987 17.4229 5.78813 15.9365C5.77639 14.3609 5.75526 12.7853 5.72708 11.212L5.72473 11.064L5.72239 11.0265V10.9936C5.72473 10.9185 5.74587 10.8316 5.78344 10.7588C5.91024 10.5498 6.00652 10.5357 6.04878 10.5052C6.25073 10.4136 6.33996 10.4089 6.45971 10.3784C6.67809 10.3361 6.88004 10.3103 7.08433 10.2868C7.48822 10.2422 7.88506 10.2187 8.28425 10.1952C9.07794 10.1506 9.86927 10.1248 10.6583 10.106C12.2386 10.0708 13.8166 10.0825 15.3969 10.1107C16.1859 10.1295 16.9772 10.1576 17.7686 10.1999C18.1631 10.221 18.5599 10.2469 18.9591 10.2821C19.1587 10.3009 19.3583 10.322 19.5626 10.3502C19.6659 10.3643 19.7669 10.3784 19.8749 10.4019C19.9289 10.4113 19.9876 10.4253 20.0486 10.4441C20.0862 10.4582 20.1097 10.4629 20.159 10.484L20.2271 10.5169C20.267 10.5427 20.3116 10.5803 20.3469 10.6202L20.3351 10.6273C20.4103 10.7541 20.4314 10.9819 20.4267 11.0006L20.4384 11.1979L20.4549 11.583L20.4807 12.3508L20.523 13.8842L20.5958 16.9462C20.6427 18.9868 20.6709 21.0274 20.6991 23.068C20.7578 27.1491 20.8048 31.2302 20.8306 35.3114C20.8564 39.3949 20.9034 43.476 20.9104 47.5571L20.9339 53.6765L20.9503 56.7385L20.955 58.2672L20.9574 58.6499V58.8402ZM6.69453 11.3247C6.71567 12.8604 6.72976 14.3961 6.7368 15.9318C6.7368 16.0117 6.73445 16.0915 6.73445 16.1737L9.41138 15.96L12.8632 15.7205C14.0209 15.65 15.1879 15.5843 16.355 15.5303C17.5032 15.4669 18.6562 15.4364 19.8044 15.3964L19.8068 13.8936L19.8044 12.3649L19.7974 11.6018L19.7903 11.2237L19.7856 11.0734C19.7739 11.0711 19.7622 11.0687 19.7481 11.0664C19.6659 11.05 19.572 11.0406 19.4804 11.0312C19.2925 11.01 19.1 10.9983 18.9074 10.9866C18.52 10.9654 18.1302 10.9537 17.7404 10.9443C16.9584 10.9302 16.1741 10.9302 15.3898 10.9349C13.8213 10.9396 12.2527 10.9842 10.6864 11.0382C9.90215 11.0664 9.1202 11.1016 8.34296 11.1556C7.95551 11.1815 7.56806 11.2143 7.19 11.2542C7.01858 11.273 6.84951 11.2965 6.69453 11.3247ZM10.6911 19.5386C10.6911 19.4635 10.6982 19.4165 10.6841 19.3038C10.6747 19.2498 10.6512 19.1606 10.5714 19.0901C10.4939 19.022 10.3765 19.0032 10.3084 19.015C10.1722 19.0338 10.09 19.0995 10.0383 19.1301L9.86223 19.2381C9.62976 19.3837 9.40903 19.548 9.19065 19.7171C8.75858 20.0552 8.35705 20.438 8.03534 20.8841C7.99073 20.9452 7.99308 21.0321 8.04239 21.0908C8.10109 21.1612 8.20676 21.173 8.27721 21.1119C8.69049 20.7738 9.08029 20.4239 9.49122 20.0952C9.69316 19.9261 9.90684 19.7735 10.1182 19.6161C10.1651 19.5809 10.2309 19.5363 10.2826 19.5011C10.2826 19.5175 10.2849 19.5339 10.2849 19.548C10.3013 19.8016 10.2943 20.1468 10.508 20.4309C10.609 20.5648 10.7733 20.6892 10.9706 20.708C11.1655 20.7292 11.351 20.6493 11.4731 20.5601C11.6022 20.4732 11.7032 20.3769 11.7995 20.2971C11.8488 20.2572 11.8958 20.222 11.9427 20.1938C11.9427 20.1914 11.9451 20.1914 11.9451 20.1914C11.9592 20.2501 11.9779 20.3535 12.0766 20.4521C12.1846 20.5507 12.3161 20.5742 12.4194 20.5695C12.5251 20.5624 12.6213 20.5319 12.7129 20.4756C12.8773 20.3675 12.9595 20.2478 13.0417 20.1797C13.0863 20.1445 13.1051 20.1327 13.1332 20.1233C13.152 20.1163 13.1685 20.1163 13.1826 20.1163C13.1849 20.1233 13.1896 20.1327 13.1966 20.1445L13.2272 20.1985L13.2413 20.2243C13.2554 20.2431 13.2694 20.2595 13.2859 20.2736C13.354 20.337 13.4432 20.3722 13.5183 20.3793C13.6686 20.3934 13.7696 20.3511 13.8635 20.3041C13.9669 20.2431 14.0138 20.1914 14.0608 20.1609C14.096 20.1304 14.1195 20.121 14.1242 20.1186C14.1242 20.1186 14.1242 20.1186 14.1359 20.1233C14.1594 20.1374 14.204 20.1726 14.2627 20.222C14.3261 20.2689 14.406 20.3206 14.4811 20.3581C14.8028 20.5084 15.1315 20.5061 15.4086 20.4803C15.6881 20.4544 15.9464 20.4122 16.1812 20.4192C16.2962 20.4216 16.4066 20.4356 16.5029 20.4709C16.5499 20.4803 16.5945 20.5108 16.7213 20.5413C16.7823 20.5554 16.8716 20.5554 16.9443 20.5319C17.0171 20.5108 17.0641 20.4756 17.0993 20.4521C17.1721 20.3981 17.1839 20.391 17.2238 20.3699C17.259 20.3535 17.2989 20.3417 17.3482 20.337C17.4445 20.3276 17.5619 20.3441 17.6911 20.3628C17.9423 20.3957 18.2523 20.4896 18.5787 20.3628C18.6515 20.3347 18.6937 20.2572 18.6773 20.1797C18.6585 20.0928 18.574 20.0388 18.4871 20.0576L18.4777 20.0599C18.2805 20.1022 18.0456 20.0271 17.778 19.9519C17.6441 19.9167 17.4962 19.8815 17.3224 19.8862C17.2379 19.8862 17.1439 19.9026 17.0547 19.9331C16.9702 19.9613 16.8669 20.0271 16.8316 20.0505C16.8293 20.0529 16.8269 20.0529 16.8269 20.0552C16.8128 20.0482 16.7471 20.013 16.672 19.9895C16.5146 19.9308 16.355 19.9073 16.2023 19.9003C15.8994 19.8838 15.6223 19.9237 15.3687 19.9378C15.1151 19.9519 14.8826 19.9543 14.7136 19.8721C14.669 19.8509 14.6337 19.8275 14.5891 19.7969C14.5422 19.7617 14.4835 19.7101 14.3919 19.6584C14.3026 19.6044 14.143 19.5621 14.0091 19.5997C13.8729 19.6349 13.7907 19.703 13.7297 19.7523C13.671 19.804 13.624 19.8509 13.6099 19.858C13.6076 19.8603 13.6029 19.8603 13.6005 19.8627C13.5935 19.8486 13.5512 19.7805 13.4925 19.7359C13.4315 19.6889 13.3634 19.6607 13.3 19.649C13.1732 19.6255 13.0675 19.6443 12.9689 19.6819C12.8702 19.7171 12.781 19.7899 12.727 19.8439C12.612 19.9613 12.5368 20.067 12.4758 20.1092C12.4382 20.1445 12.3654 20.1421 12.356 20.1445C12.3513 20.1351 12.3419 20.1116 12.3302 20.067C12.3184 20.0294 12.309 19.9848 12.2738 19.9237C12.2433 19.8627 12.1564 19.7852 12.0672 19.7688C11.9685 19.75 11.8958 19.7758 11.8464 19.7969C11.7948 19.8204 11.769 19.8392 11.7314 19.8627C11.6656 19.9073 11.6069 19.9543 11.5529 20.0012C11.4449 20.0928 11.351 20.1867 11.2594 20.2525C11.0762 20.391 10.9307 20.3699 10.8085 20.2055C10.6864 20.0482 10.6864 19.8134 10.6911 19.5386ZM6.68984 11.0077C6.68984 11.0053 6.68984 11.0053 6.68984 11.003C6.68984 10.9819 6.68984 11.003 6.68984 11.0077ZM19.9265 58.9599L19.9171 58.2766L19.8984 56.7456L19.8725 53.6835L19.8279 47.5618C19.7903 43.4807 19.7997 39.3996 19.7856 35.3184C19.7716 31.451 19.7763 27.5859 19.7856 23.7184C18.7759 23.7231 17.7662 23.7301 16.7588 23.7466C15.5941 23.7677 14.4294 23.7701 13.2647 23.8053C12.1 23.8382 10.9353 23.8687 9.773 23.9203L6.69923 24.0471C6.66635 27.6539 6.62409 31.2608 6.6053 34.8676C6.55599 41.1818 6.58886 47.482 6.75559 53.7916L6.87299 58.5231L6.88239 58.819L6.88473 58.9505C6.88473 58.967 6.88943 58.9763 6.89178 58.9857C6.90117 59.0045 6.91056 59.021 6.97866 59.0351L8.0964 59.0374L10.4563 59.0351L15.1785 59.0257L17.5361 59.0116L18.7149 58.9998L19.2996 58.9904L19.586 58.9834L19.7035 58.9787C19.6448 58.9834 19.5696 59.0374 19.5461 59.1055L19.9007 58.9646C19.9124 58.9646 19.9195 58.9623 19.9265 58.9599ZM19.3207 85.5108C19.3043 85.5108 19.2855 85.5131 19.2667 85.5178C19.1751 85.539 19.1141 85.6071 19.107 85.694C19.1047 85.701 19.107 85.708 19.1047 85.7268C19.1023 85.7433 19.1 85.755 19.1 85.7668C19.1023 85.8255 19.1329 85.8795 19.1822 85.917L19.1916 85.9241L19.1939 85.9335C19.1963 85.9405 19.2009 85.9476 19.208 85.9476C19.2197 85.9499 19.2338 85.9523 19.2456 85.9523H19.2667C19.2808 85.9546 19.2972 85.957 19.3137 85.957C19.3865 85.957 19.4522 85.9311 19.4992 85.8865C19.5743 85.8137 19.586 85.7034 19.5297 85.6235C19.4804 85.5531 19.4029 85.5108 19.3207 85.5108ZM21.589 83.7097C21.6149 83.6557 21.636 83.5736 21.5984 83.4914C21.5726 83.4421 21.5256 83.3998 21.4669 83.3716C21.4106 83.3481 21.3495 83.334 21.2908 83.334C21.2086 83.334 21.1335 83.3575 21.0771 83.4068C21.0161 83.4538 20.9785 83.5313 20.9691 83.6111C20.9644 83.6769 20.9809 83.7403 21.0208 83.7872C21.0678 83.8436 21.1476 83.8647 21.2157 83.8765C21.2439 83.8882 21.2767 83.8952 21.3073 83.8952C21.4223 83.8952 21.5374 83.8201 21.589 83.7097ZM44.0705 83.5101C44.1551 83.381 44.1222 83.1908 43.9954 83.0851C43.9343 83.0335 43.8592 83.0053 43.7841 83.0053C43.7747 83.0053 43.7653 83.0053 43.7582 83.0076C43.6596 83.0147 43.5751 83.0523 43.5211 83.1086C43.4177 83.2237 43.4459 83.3927 43.5164 83.5055C43.5633 83.5782 43.6502 83.6534 43.7535 83.6557L43.7841 83.6604C43.7935 83.6604 43.8005 83.6628 43.8099 83.6628C43.9062 83.6628 44.0142 83.5994 44.0705 83.5101ZM20.2929 87.3166C20.26 87.2931 20.2224 87.2837 20.1801 87.2837C20.0839 87.2837 19.9782 87.34 19.9171 87.4246C19.8749 87.4856 19.8584 87.5655 19.8772 87.643C19.8913 87.7087 19.9289 87.7604 19.9852 87.7885C20.0181 87.8073 20.0604 87.8167 20.1026 87.8167C20.1567 87.8167 20.2107 87.8026 20.2647 87.7721C20.2882 87.7651 20.3069 87.7557 20.321 87.7463C20.3656 87.7134 20.3962 87.6641 20.4056 87.6101C20.429 87.495 20.3821 87.3729 20.2929 87.3166ZM12.3583 20.1468C12.356 20.1468 12.3583 20.1468 12.356 20.1468C12.3607 20.1515 12.3607 20.1515 12.3583 20.1468ZM10.2732 19.3837C10.2708 19.3837 10.2708 19.379 10.2708 19.379C10.2708 19.3743 10.2685 19.3766 10.2732 19.3837ZM65.8124 29.7603C66.6272 29.6757 67.4443 29.5982 68.2521 29.4597C69.0575 29.3259 69.863 29.1709 70.6543 28.9431C70.7459 28.9173 70.8116 28.8304 70.8093 28.7318C70.8069 28.6144 70.7083 28.5204 70.5909 28.5228H70.5862C69.7597 28.5416 68.9472 28.6331 68.1371 28.7435C67.3269 28.8515 66.5262 29.0206 65.7255 29.1826C64.9224 29.3399 64.1193 29.4996 63.3045 29.5724C62.492 29.6616 61.6725 29.6945 60.8882 29.9904L60.8812 29.9927C60.8013 30.0233 60.7426 30.0984 60.7356 30.1923C60.7285 30.3168 60.8248 30.4225 60.9493 30.4295C61.7805 30.4788 62.5789 30.2675 63.382 30.1101C64.1851 29.934 64.9975 29.8495 65.8124 29.7603ZM76.6727 82.1693C76.6398 82.167 76.6069 82.167 76.5764 82.1717C76.513 82.1834 76.459 82.2116 76.4167 82.2515C76.3533 82.3173 76.3228 82.4018 76.3252 82.4957C76.3299 82.5991 76.3745 82.6883 76.452 82.747C76.5013 82.7869 76.5905 82.8057 76.6539 82.8198L76.6844 82.8268C76.722 82.8339 76.7572 82.8362 76.7925 82.8292C76.9451 82.8033 77.0648 82.6578 77.0601 82.5075C77.0508 82.3008 76.8605 82.1811 76.6727 82.1693ZM74.5335 83.7144C74.5006 83.7121 74.4678 83.7121 74.4372 83.7191C74.3738 83.7285 74.3198 83.7567 74.2775 83.799C74.2141 83.8624 74.1836 83.9493 74.186 84.0408C74.1907 84.1442 74.2353 84.2334 74.3128 84.2921C74.3621 84.332 74.4513 84.3508 74.5147 84.3649L74.5452 84.3719C74.5828 84.379 74.618 84.3813 74.6533 84.3743C74.8059 84.3484 74.9257 84.2029 74.921 84.0526C74.9139 83.8459 74.7214 83.7262 74.5335 83.7144ZM66.9371 37.3308C67.752 37.2463 68.5691 37.1688 69.3745 37.0302C70.1823 36.8964 70.9854 36.7391 71.7791 36.5136C71.8707 36.4878 71.9364 36.4009 71.9341 36.3023C71.9317 36.1825 71.8331 36.0886 71.7133 36.0933H71.7086C70.8844 36.1121 70.072 36.2037 69.2618 36.314C68.4517 36.4221 67.651 36.5911 66.8479 36.7532C66.0472 36.9105 65.2441 37.0702 64.4293 37.143C63.6145 37.2298 62.7949 37.2651 62.0107 37.5609L62.006 37.5633C61.9261 37.5938 61.8651 37.6689 61.8604 37.7605C61.8533 37.8873 61.9473 37.993 62.0717 38C62.9053 38.0494 63.7013 37.838 64.5068 37.6807C65.3075 37.5046 66.1223 37.42 66.9371 37.3308ZM74.7425 85.8442C74.7143 85.8278 74.6838 85.8161 74.6392 85.809C74.5993 85.7926 74.5523 85.7879 74.4889 85.7949C74.4044 85.809 74.3316 85.863 74.2963 85.9358C74.2775 85.9734 74.2729 86.0227 74.2822 86.0603C74.2916 86.1049 74.3175 86.1425 74.355 86.1706C74.4208 86.22 74.5194 86.2434 74.6204 86.2317L74.6368 86.2293C74.7237 86.2129 74.7942 86.1565 74.8176 86.0814C74.8482 85.9898 74.8153 85.8912 74.7425 85.8442ZM79.2768 82.7165C79.258 82.7212 79.2369 82.7259 79.2181 82.7353C79.1171 82.7775 79.0608 82.8667 79.0702 82.9654C79.0725 82.9748 79.0749 82.9842 79.0772 83.0029C79.0772 83.0217 79.0772 83.0382 79.0796 83.0499C79.0937 83.1157 79.1383 83.172 79.1993 83.2025L79.2111 83.2096L79.2181 83.219C79.2228 83.226 79.2299 83.2331 79.2369 83.2331C79.251 83.2331 79.2651 83.2331 79.2815 83.2307L79.3027 83.226C79.3214 83.226 79.3402 83.2237 79.359 83.2213C79.4389 83.2072 79.5093 83.165 79.5539 83.1039C79.622 83.01 79.615 82.8832 79.5351 82.8033C79.4647 82.7329 79.3684 82.7024 79.2768 82.7165ZM78.8753 79.9339C78.7954 79.8893 78.7062 79.8728 78.6193 79.8869C78.6099 79.8893 78.6005 79.8916 78.5912 79.894C78.4808 79.9221 78.3916 79.9808 78.3446 80.056C78.2507 80.2063 78.3164 80.3941 78.4174 80.5045C78.4855 80.5796 78.5982 80.6454 78.7133 80.6266H78.7508C78.7602 80.6242 78.7696 80.6242 78.779 80.6219C78.887 80.6031 78.9974 80.5115 79.0444 80.3988C79.1125 80.2368 79.0373 80.0278 78.8753 79.9339ZM68.0596 44.9013C68.8744 44.8168 69.6916 44.7393 70.4993 44.6008C71.3048 44.4646 72.1102 44.3096 72.9015 44.0842C72.9931 44.056 73.0588 43.9715 73.0565 43.8728C73.0542 43.7531 72.9555 43.6592 72.8381 43.6615H72.8334C72.0069 43.6826 71.1944 43.7719 70.3843 43.8846C69.5741 43.9926 68.7734 44.1617 67.9727 44.3237C67.1696 44.481 66.3665 44.6407 65.5517 44.7111C64.7392 44.8004 63.9197 44.8356 63.1354 45.1315L63.1284 45.1338C63.0485 45.1643 62.9898 45.2395 62.9828 45.3311C62.9758 45.4555 63.072 45.5635 63.1965 45.5706C64.0277 45.6199 64.8261 45.4086 65.6292 45.2512C66.4323 45.0751 67.2448 44.9882 68.0596 44.9013ZM74.1813 51.441C74.1789 51.3236 74.0803 51.2297 73.9605 51.232H73.9559C73.1316 51.2508 72.3192 51.3424 71.509 51.4528C70.6989 51.5608 69.8982 51.7299 69.0951 51.8942C68.2944 52.0516 67.4913 52.2112 66.6765 52.2817C65.8617 52.3709 65.0422 52.4061 64.2579 52.702H64.2532C64.1733 52.7325 64.1123 52.81 64.1076 52.9016C64.1005 53.0261 64.1945 53.1341 64.3189 53.1411C65.1525 53.1904 65.9486 52.9791 66.754 52.8218C67.5547 52.6456 68.3695 52.5588 69.1843 52.4695C69.9992 52.3873 70.8163 52.3099 71.6218 52.1713C72.4295 52.0351 73.2326 51.8801 74.0263 51.6524C74.1179 51.6265 74.1836 51.542 74.1813 51.441ZM72.0656 86.0744C72.0538 86.0744 72.0444 86.0767 72.0327 86.0791C71.9646 86.0908 71.8988 86.126 71.8495 86.1824C71.7979 86.2411 71.7673 86.3115 71.7673 86.3749C71.765 86.5017 71.8589 86.6168 71.9904 86.652C72.035 86.6661 72.0844 86.6685 72.1337 86.6591L72.1525 86.6567C72.1971 86.6497 72.237 86.6309 72.2746 86.6051C72.345 86.5557 72.392 86.4665 72.3967 86.3796C72.399 86.2857 72.3638 86.2012 72.2933 86.1425C72.237 86.0931 72.1548 86.0673 72.0656 86.0744ZM77.2738 69.2402C69.4638 59.7606 59.2656 73.845 69.337 79.4384C75.4939 82.4746 81.0403 74.472 77.2738 69.2402ZM67.4467 59.2135L65.1056 59.5352L64.5209 59.6151C64.3142 59.6385 64.1663 59.6738 63.8728 59.6949C63.7084 59.6925 63.537 59.655 63.3773 59.5657C63.2176 59.4765 63.0791 59.3286 62.9992 59.1642C62.9617 59.0844 62.9335 58.9998 62.917 58.92L62.8912 58.758L62.8419 58.4668L62.0858 53.7939C61.5715 50.6826 61.0573 47.5642 60.5947 44.4411L59.2093 35.0742C58.6715 31.4063 58.1174 27.7432 57.5585 24.08C57.5397 24.0401 57.5186 24.0025 57.5092 23.9579L57.5068 23.9415L57.5045 23.9297C57.3472 22.8824 57.1804 21.8211 57.0489 20.7644C56.8212 19.2968 56.5981 17.8268 56.3703 16.3615C56.1261 14.8024 55.8749 13.2479 55.6142 11.6957L55.5907 11.5501L55.5837 11.5125L55.579 11.4797C55.5719 11.4045 55.579 11.3153 55.6048 11.2378C55.7011 11.0147 55.7927 10.9866 55.8302 10.949C56.0181 10.8269 56.1026 10.8104 56.2177 10.7635C56.429 10.6883 56.6239 10.6343 56.8212 10.5803C57.2157 10.477 57.6055 10.3948 57.9953 10.3126C58.7749 10.1506 59.5521 10.0097 60.3317 9.87352C61.8885 9.60583 63.4524 9.3851 65.0187 9.1808C65.803 9.08218 66.5873 8.99295 67.3762 8.91781C67.7707 8.88259 68.1676 8.84736 68.5668 8.82388C68.7664 8.81449 68.9683 8.80509 69.1726 8.8004C69.2759 8.8004 69.3792 8.8004 69.492 8.80744C69.546 8.80979 69.6047 8.81449 69.6681 8.82388C69.708 8.83092 69.7315 8.83327 69.7831 8.84736L69.8559 8.87084C69.9005 8.88963 69.9499 8.92016 69.9898 8.95303L69.9804 8.96242C70.072 9.07748 70.126 9.29821 70.1236 9.31935L70.1635 9.5119L70.2387 9.8923L70.3772 10.6461L70.6426 12.156L71.1639 15.1734C71.5114 17.1858 71.8378 19.2005 72.1642 21.2152C72.824 25.2424 73.4698 29.2718 74.092 33.306C74.719 37.3402 75.3648 41.3697 75.9682 45.4039L76.8911 51.4551L77.356 54.4796L77.5861 55.9918L77.6448 56.3699L77.673 56.5601L77.6871 56.654C77.6942 56.7033 77.7035 56.7644 77.7012 56.8254C77.7129 57.0626 77.6073 57.3514 77.4241 57.5346C77.241 57.7224 77.0132 57.8187 76.7901 57.8516L76.8441 57.821C76.7948 57.8398 76.7455 57.8633 76.6938 57.875L76.6328 57.8868L76.5952 57.8938L76.5201 57.9056L76.2195 57.9572L75.6325 58.0465L74.4631 58.2202L72.1243 58.556L67.4467 59.2135ZM56.5394 11.3505C56.537 11.3505 56.5394 11.3482 56.537 11.3482C56.5347 11.327 56.537 11.3482 56.5394 11.3505ZM59.9583 15.8496L63.335 15.1029C64.4715 14.8611 65.6151 14.6239 66.7634 14.3985C67.8905 14.1683 69.0247 13.9664 70.1541 13.7574L69.9358 12.271L69.708 10.7588L69.5906 10.005L69.5272 9.634L69.5014 9.48372C69.4873 9.48372 69.4779 9.48372 69.4638 9.48372C69.3792 9.48137 69.2853 9.48372 69.1914 9.48842C69.0035 9.49546 68.811 9.5119 68.6184 9.52833C68.2333 9.56356 67.8459 9.61052 67.4584 9.65983C66.6835 9.75846 65.9086 9.87586 65.1337 9.99562C63.5816 10.2328 62.0365 10.5075 60.4937 10.7917C59.7235 10.9349 58.9557 11.0852 58.1949 11.2519C57.8168 11.3364 57.4364 11.4257 57.0701 11.5219C56.9034 11.5666 56.739 11.6135 56.5887 11.6652C56.8376 13.1798 57.0771 14.6967 57.3072 16.216C57.319 16.2958 57.3284 16.3733 57.3401 16.4531L59.9583 15.8496ZM69.5225 18.3716C69.4685 18.3011 69.3675 18.2871 69.2971 18.3411C68.9026 18.6416 68.4212 18.7379 67.9116 18.7496C67.4021 18.759 66.8573 18.7191 66.282 18.8107C65.6879 18.8999 65.2089 19.2498 64.8167 19.2028C64.7252 19.2005 64.6242 19.1629 64.4715 19.1207C64.3941 19.1019 64.3048 19.0831 64.1992 19.0878C64.0958 19.0901 63.9737 19.1277 63.8892 19.1888C63.7272 19.3015 63.6497 19.4212 63.5698 19.494C63.5346 19.5292 63.5041 19.548 63.5064 19.548C63.5041 19.5457 63.5041 19.548 63.4994 19.5457C63.4454 19.5105 63.3703 19.3977 63.2646 19.278C63.2082 19.224 63.1284 19.1324 62.9687 19.1089C62.809 19.0901 62.6728 19.1935 62.6188 19.2733C62.5061 19.4306 62.4779 19.5621 62.4239 19.6443C62.377 19.7241 62.3089 19.7735 62.2267 19.7969C62.0529 19.8462 61.8627 19.7453 61.7101 19.5621C61.5528 19.3837 61.4353 19.1582 61.3085 18.914C61.2358 18.7919 61.1606 18.6487 60.9892 18.5313C60.8225 18.4092 60.5407 18.4186 60.3857 18.5195C60.064 18.705 59.9255 18.968 59.7799 19.2122C59.5239 19.6936 59.2938 20.1679 59.1106 20.6775C59.0848 20.7479 59.1106 20.8278 59.174 20.8724C59.2492 20.9241 59.3549 20.9053 59.4065 20.8301C59.7094 20.3887 59.9654 19.9073 60.2002 19.4424C60.3129 19.2263 60.4655 19.0103 60.6064 18.9187C60.6792 18.8764 60.7027 18.8741 60.7614 18.8999C60.8201 18.9281 60.8929 19.0173 60.9563 19.123C61.0949 19.3414 61.2334 19.5903 61.4307 19.8134C61.6138 20.0294 61.9519 20.2501 62.3159 20.1609C62.4944 20.1233 62.6564 20.0012 62.748 19.8533C62.8372 19.7124 62.8795 19.5856 62.9264 19.5245C62.9335 19.5316 62.9429 19.5386 62.9546 19.5551C63.0251 19.6349 63.0814 19.7617 63.2388 19.8956C63.3139 19.9637 63.4712 20.0224 63.6074 19.9848C63.7413 19.9519 63.8188 19.8862 63.8798 19.8345C63.9996 19.7265 64.0841 19.6279 64.1475 19.595C64.1874 19.5715 64.2226 19.5715 64.3354 19.6044C64.4363 19.6373 64.5866 19.703 64.7627 19.7241C65.1079 19.7617 65.4061 19.656 65.6597 19.5645C65.9204 19.4658 66.1411 19.393 66.3783 19.3461C66.8573 19.2451 67.388 19.2874 67.9422 19.231C68.2169 19.2028 68.5034 19.1559 68.7781 19.0526C69.0505 18.9492 69.3088 18.7896 69.5107 18.5806C69.5624 18.5242 69.5695 18.435 69.5225 18.3716ZM67.3152 58.3001L71.9834 57.5933L74.3151 57.234L75.4775 57.0485L76.0551 56.9522L76.3393 56.9029L76.4543 56.8818C76.3956 56.8935 76.3299 56.9569 76.3158 57.0297L76.6469 56.8372C76.6563 56.8348 76.6633 56.8325 76.6703 56.8301L76.5623 56.1562L76.3158 54.644L75.8414 51.6195L74.8975 45.5706C74.2635 41.5387 73.6717 37.4999 73.0612 33.4657C72.4788 29.6429 71.9153 25.8177 71.3564 21.9925C70.3584 22.1475 69.3628 22.3001 68.3672 22.4668C67.2189 22.6594 66.066 22.8355 64.9201 23.0398C63.7741 23.2441 62.6259 23.446 61.4823 23.6691L58.4625 24.2467C58.9604 27.8207 59.4464 31.3946 59.956 34.9662C60.8342 41.217 61.7946 47.4444 62.8842 53.6601L63.6966 58.3212L63.746 58.6124L63.7694 58.7415C63.7718 58.7603 63.7788 58.7674 63.7812 58.7768C63.7929 58.7955 63.8047 58.8096 63.8751 58.8143L64.9811 58.6499L67.3152 58.3001ZM77.6918 85.2102C77.6214 85.1562 77.518 85.1304 77.4053 85.1398C77.3959 85.1398 77.3865 85.1421 77.3772 85.1445C77.2903 85.1586 77.2104 85.2055 77.1517 85.2736C77.0296 85.4169 77.0273 85.6376 77.147 85.7691C77.2316 85.8583 77.3654 85.9076 77.4711 85.8889C77.4828 85.8889 77.4922 85.8865 77.5016 85.8818L77.5227 85.8748L77.5486 85.8701C77.6495 85.8513 77.7341 85.7503 77.774 85.6564C77.8327 85.5178 77.8303 85.3183 77.6918 85.2102ZM83.1067 76.8084C83.0597 76.8178 83.0175 76.839 82.9752 76.8742C82.9447 76.8906 82.9212 76.9094 82.9001 76.9352C82.8484 77.0057 82.8508 77.109 82.9071 77.1842C82.9564 77.2476 83.041 77.2781 83.1302 77.2616L83.1443 77.2593C83.2429 77.2358 83.3298 77.1818 83.3744 77.1137C83.4002 77.0714 83.412 77.0292 83.4073 76.9846C83.4026 76.9446 83.3814 76.9024 83.3509 76.8718C83.2922 76.8155 83.2077 76.7897 83.1067 76.8084ZM83.8511 80.7487C83.9661 80.7299 84.0648 80.6595 84.1023 80.5679C84.1376 80.4833 84.1188 80.3824 84.0483 80.2791C83.9967 80.2016 83.8346 80.1523 83.7102 80.1757C83.6679 80.1828 83.6116 80.1992 83.5787 80.2462C83.5458 80.2955 83.527 80.3472 83.5223 80.3918C83.5106 80.5233 83.5388 80.6266 83.6069 80.6876C83.6656 80.744 83.7548 80.7651 83.8511 80.7487ZM81.2775 66.8991C81.2963 66.9743 81.3667 67.0259 81.4465 67.0189C81.5358 67.0118 81.5992 66.9343 81.5921 66.8451C81.5099 65.8542 81.362 64.8726 81.2094 63.8911C81.0521 62.9095 80.8618 61.9351 80.667 60.9629C80.4721 59.9884 80.2912 59.0116 80.1597 58.0277C80.0916 57.5369 80.0306 57.0438 79.9484 56.553C79.8733 56.0623 79.7793 55.5762 79.6291 55.0971C79.6079 55.0267 79.5422 54.9774 79.4647 54.9797C79.3708 54.9821 79.298 55.0596 79.3027 55.1512C79.3167 55.6537 79.3848 56.1444 79.4741 56.6329C79.5563 57.1236 79.6596 57.6097 79.7582 58.0958C79.9531 59.0679 80.101 60.0518 80.2349 61.0357C80.3664 62.0196 80.5049 63.0035 80.6763 63.9803C80.8525 64.9572 81.0333 65.934 81.2775 66.8991ZM86.9624 85.91C86.9483 85.9663 86.9342 86.0297 86.8708 86.1448C86.9272 86.2834 86.2392 86.5769 86.3707 86.4947L86.265 86.5135L86.0513 86.5534L85.6287 86.6285C83.365 87.0301 81.0967 87.4434 78.8424 87.812C74.3316 88.5799 69.8019 89.4064 65.1995 89.8549C64.6242 89.9136 64.0465 89.9606 63.4712 90.0076L62.6047 90.0663L62.5038 90.0733C62.4709 90.0827 62.3159 90.0992 61.9942 89.9418C61.8087 89.7986 61.8275 89.7821 61.75 89.6835C61.6537 89.5168 61.6255 89.4252 61.595 89.3383C61.5363 89.1622 61.4987 89.0166 61.4588 88.864C61.177 87.6923 60.9962 86.5675 60.8013 85.4239C60.4256 83.1485 60.0898 80.8731 59.7611 78.5978L58.8171 71.7645C58.5213 69.4915 58.169 67.2185 57.8544 64.9454L54.0127 37.6572L50.251 11.1509L50.211 14.0862L50.1077 20.9734C50.0748 23.2675 50.0936 25.5641 50.0842 27.8606C50.0842 37.0443 49.9574 46.2281 49.8072 55.4142H49.7907C49.8752 59.9978 50.0561 64.5885 50.2251 69.1792C50.3872 73.7699 50.5492 78.3606 50.6478 82.963C50.6713 84.1136 50.6901 85.2642 50.6877 86.4219C50.683 87.0019 50.6783 87.5819 50.6478 88.1783C50.6384 88.3286 50.629 88.4789 50.6126 88.6386C50.6055 88.7208 50.5961 88.7983 50.5821 88.8898C50.5633 88.9861 50.5562 89.0683 50.4928 89.2421C50.4693 89.2961 50.4482 89.3548 50.366 89.4628C50.4012 89.606 49.6804 89.7939 49.8212 89.7328L49.7132 89.7375L49.4972 89.7422L49.0675 89.7563C46.7686 89.8197 44.465 89.8949 42.1826 89.9254C37.606 90.0193 33.0059 90.1672 28.387 89.9348C27.8094 89.9089 27.2317 89.869 26.6541 89.8291L25.7899 89.761L25.689 89.754C25.6631 89.7563 25.5716 89.7516 25.4119 89.6694C25.2475 89.7305 25.0925 89.7657 25.1653 89.7328L25.0573 89.7375L24.8436 89.7422L24.4116 89.7563C22.115 89.8197 19.8091 89.8949 17.5267 89.9254C12.9524 90.0193 8.35 90.1672 3.73113 89.9348C3.15347 89.9089 2.57582 89.869 2.00052 89.8291L1.13404 89.761L1.03541 89.754C0.997843 89.7587 0.842863 89.7516 0.54934 89.5473C0.384967 89.3783 0.408449 89.3642 0.345048 89.2561C0.274603 89.0753 0.260514 88.9814 0.241728 88.8898C0.208853 88.709 0.194765 88.5587 0.178327 88.4038C0.0703111 87.2015 0.05857 86.0626 0.0327405 84.9026C-0.00483045 82.5967 -0.00483059 80.2955 0.00691017 77.9966L0.0750072 71.1C0.117275 68.8082 0.100837 66.507 0.12432 64.2128L0.33096 36.6545L0.507073 9.09157L0.525858 5.64679L0.535251 3.92322L0.5376 3.49351V3.22347C0.572822 3.12015 0.462458 3.39958 0.617437 2.91351C0.739543 2.74444 0.817033 2.73035 0.8593 2.70217C0.906264 2.67869 0.939138 2.66695 0.967316 2.65755C1.1857 2.58946 1.31954 2.57772 1.47687 2.55189C1.62716 2.53075 1.77509 2.51432 1.92303 2.49788C4.24538 2.29359 6.52781 2.24193 8.82668 2.17618C11.1209 2.11747 13.415 2.08695 15.7092 2.07286C18.0057 2.05407 20.2975 2.04703 22.6035 2.10808C23.1811 2.12687 23.7564 2.14565 24.3458 2.19027C24.4937 2.20201 24.644 2.21375 24.799 2.23253C24.8789 2.24427 24.9563 2.25367 25.0456 2.2701C25.0902 2.2795 25.1395 2.28889 25.1959 2.30533C25.2311 2.31472 25.2546 2.32176 25.3039 2.34055C25.3532 2.36638 25.3931 2.36168 25.5363 2.48849C25.581 2.54015 25.6115 2.5965 25.6373 2.65286C25.8463 2.58946 25.9778 2.57772 26.1328 2.55189C26.2831 2.53075 26.431 2.51432 26.5766 2.49788C28.8989 2.29359 31.1814 2.24193 33.4802 2.17618C35.7744 2.11747 38.0686 2.08695 40.3651 2.07286C42.6593 2.05407 44.9535 2.04703 47.257 2.10808C47.8347 2.12687 48.41 2.14565 49.0017 2.19027C49.1497 2.20201 49.2976 2.21375 49.4526 2.23253C49.5324 2.24427 49.6123 2.25367 49.7015 2.2701C49.7461 2.2795 49.7931 2.28889 49.8494 2.30533C49.887 2.31472 49.9081 2.32176 49.9598 2.34055C50.0067 2.36638 50.049 2.36168 50.1899 2.48849C50.3965 2.72565 50.3731 3.10371 50.3637 2.94638V3.00039L50.3613 3.10841L50.359 3.32209L50.3543 3.6978C50.4271 3.67901 50.4999 3.65788 50.5727 3.63909C52.841 3.09197 55.0906 2.70687 57.3542 2.30063C59.6155 1.90614 61.8792 1.53512 64.1475 1.1829C66.4158 0.825973 68.6818 0.483138 70.9713 0.201356C71.5443 0.133259 72.1172 0.0675098 72.7066 0.0252428C72.8546 0.0135015 73.0048 0.00645769 73.1622 0.00176102C73.242 -0.000587008 73.3195 -0.000587008 73.4111 0.00176102C73.458 0.00410966 73.5073 0.00645784 73.5637 0.0135019C73.6013 0.0181986 73.6248 0.0205462 73.6764 0.0346356C73.7281 0.053421 73.768 0.0416803 73.9277 0.147348C74.1672 0.349292 74.1977 0.727349 74.1672 0.572369L74.1742 0.626377L74.1883 0.732046L74.2165 0.94573L74.2752 1.3731L74.7331 4.78501L75.6512 11.6135L76.5576 18.4397C76.8652 20.7151 77.2198 22.9834 77.5462 25.2565C78.8964 34.3416 80.1198 43.4431 81.3197 52.5517L81.301 52.5541C82.0594 57.0767 82.9118 61.5899 83.7525 66.1054C84.5861 70.621 85.4197 75.1389 86.1946 79.6756C86.3871 80.8097 86.575 81.9463 86.7417 83.0922C86.8239 83.6675 86.9037 84.2404 86.9601 84.8345C86.9742 84.9848 86.9859 85.1351 86.993 85.2948C86.9977 85.377 87 85.4568 87 85.5484C86.9953 85.6446 87 85.7268 86.9624 85.91ZM24.5971 2.89472C24.5947 2.8548 24.5924 2.85715 24.5971 2.89472V2.89472ZM1.17865 88.3028C1.10351 88.2864 1.09647 88.3098 1.15517 88.3004L1.17865 88.3028ZM24.7121 86.0157C24.7027 85.6446 24.6957 85.276 24.6863 84.9026C24.6558 83.0147 24.6534 81.1314 24.6605 79.2505C24.6018 75.9044 24.5172 72.5582 24.4538 69.2097C24.3716 64.6167 24.2801 60.0213 24.2848 55.4188H24.266C24.1674 46.2304 24.0946 37.0396 24.1462 27.8488C24.1627 25.55 24.1533 23.2535 24.1908 20.9546L24.3411 14.0627L24.5008 7.17311L24.5806 3.72598L24.59 3.32444C24.482 3.3127 24.3693 3.30096 24.2566 3.29156C23.7048 3.2446 23.1342 3.21877 22.5682 3.19529C18.0104 3.04735 13.4221 3.08258 8.85016 3.1765C6.56773 3.23756 4.26416 3.28217 2.02165 3.47472L1.61307 3.52403C1.58019 3.52638 1.54732 3.53108 1.51444 3.53812V3.92792L1.51209 5.64914L1.5074 9.09627L1.49566 36.6569L1.51679 64.2245C1.51209 66.5234 1.52384 68.8176 1.49096 71.1188L1.4393 78.0013C1.4346 80.2955 1.4393 82.5897 1.48392 84.8744C1.50975 86.011 1.53323 87.1733 1.62716 88.2582C1.6295 88.2864 1.6342 88.3122 1.63655 88.3404L2.10853 88.3803C2.26116 88.3897 2.4138 88.3991 2.56643 88.4085C2.52651 87.6406 2.51242 86.8727 2.50068 86.1025C2.49129 85.06 2.51477 84.015 2.54529 82.9724C2.57112 81.9275 2.58756 80.8849 2.54999 79.8399C2.53355 79.3186 2.51242 78.7973 2.51007 78.2761C2.50068 77.7548 2.51477 77.2311 2.58052 76.7098C2.59226 76.6182 2.67444 76.5525 2.76602 76.5642C2.84351 76.5736 2.90222 76.6347 2.91161 76.7098C2.98206 77.2311 2.99615 77.7524 2.99145 78.2737C2.99145 78.795 2.97266 79.3186 2.95857 79.8399C2.92805 80.8825 2.94918 81.9275 2.98206 82.9701C3.01728 84.015 3.04781 85.0576 3.04311 86.1025C3.03607 86.8798 3.02667 87.6594 2.9891 88.4366C3.26149 88.4554 3.53388 88.4766 3.80627 88.4906C8.3453 88.7395 12.9149 88.6127 17.5032 88.54C19.8021 88.5165 22.0798 88.4531 24.3623 88.3991L24.6299 88.392C24.637 88.2957 24.6464 88.1995 24.6534 88.0985C24.6886 87.549 24.7004 86.9784 24.7098 86.4102C24.7121 86.2787 24.7121 86.1472 24.7121 86.0157ZM49.253 2.89472C49.2506 2.8548 49.2483 2.85715 49.253 2.89472V2.89472ZM49.3657 82.9795C49.3211 78.3958 49.1966 73.8028 49.1074 69.2097C49.0276 64.6167 48.936 60.0213 48.9383 55.4188H48.9219C48.8233 46.2304 48.7481 37.0396 48.8021 27.8488C48.8186 25.55 48.8068 23.2535 48.8444 20.9546L48.997 14.0627L49.1544 7.17311L49.2365 3.72598L49.2436 3.32444C49.1356 3.3127 49.0252 3.30096 48.9125 3.29156C48.7199 3.27513 48.5274 3.26339 48.3325 3.25164C48.3536 3.58274 48.363 3.91383 48.3607 4.24727C48.3654 4.7897 48.3466 5.33213 48.3325 5.87691C48.2996 6.96177 48.3114 8.04663 48.3301 9.13384C48.3513 10.221 48.356 11.3083 48.3231 12.3931C48.2855 13.478 48.2362 14.5652 48.1141 15.6453C48.1047 15.7346 48.0249 15.798 47.938 15.7886C47.8582 15.7792 47.7995 15.7134 47.7948 15.6336C47.7525 14.5487 47.7689 13.4639 47.783 12.379C47.8018 11.2965 47.8464 10.2117 47.8934 9.12914C47.9356 8.04428 47.9591 6.95942 47.9239 5.87691C47.9075 5.33448 47.884 4.79205 47.8816 4.24962C47.8746 3.90914 47.8769 3.56865 47.8934 3.22581C47.6703 3.21642 47.4449 3.20468 47.2218 3.19529C42.664 3.04735 38.0756 3.08258 33.5037 3.1765C31.6181 3.22581 29.7185 3.27043 27.8493 3.39254C27.847 3.4395 27.8493 3.48646 27.847 3.53108C27.8376 3.78468 27.807 4.03829 27.7812 4.29189C27.7295 4.79675 27.7295 5.30396 27.7389 5.81351C27.7507 6.32072 27.7648 6.83027 27.7342 7.33513C27.7061 7.84234 27.6638 8.34955 27.5652 8.85206C27.5487 8.94129 27.4642 8.99765 27.3773 8.98121C27.3069 8.96712 27.2552 8.90841 27.2458 8.84032C27.1871 8.33076 27.1824 7.82355 27.1918 7.31635C27.1989 6.80679 27.2529 6.30193 27.3022 5.79707C27.3515 5.28987 27.3891 4.78501 27.375 4.27545C27.3679 4.02185 27.3585 3.76824 27.3679 3.51464C27.3679 3.48411 27.3703 3.45594 27.3726 3.42541C27.1402 3.4442 26.9053 3.45594 26.6752 3.47472L26.2666 3.52403C26.2361 3.52638 26.2032 3.53108 26.168 3.53812V3.92792L26.1657 5.64914L26.1633 9.09627L26.1516 36.6569L26.1727 64.2245C26.1657 66.5234 26.1797 68.8176 26.1445 71.1188L26.0952 78.0013C26.0905 80.2955 26.0952 82.5897 26.1375 84.8744C26.1633 86.011 26.1868 87.1733 26.2831 88.2582C26.2854 88.2864 26.2878 88.3122 26.2925 88.3404L26.7621 88.3803C26.8748 88.3873 26.9852 88.392 27.0979 88.4014C27.1636 86.5839 27.1331 84.7664 27.058 82.9466L26.9499 79.9761C26.9241 78.9852 26.9077 77.9919 26.903 77.001L26.9147 71.0483C26.9194 70.0551 26.9265 69.0618 26.9664 68.0709C27.0016 67.0799 27.0603 66.089 27.1895 65.1028C27.1989 65.0112 27.2834 64.9454 27.375 64.9572C27.4572 64.9689 27.5182 65.0394 27.5206 65.1215C27.5323 67.1058 27.3867 69.0759 27.3233 71.0554C27.2505 73.0326 27.2693 75.0144 27.3397 76.9916L27.6004 82.9278C27.6497 84.7547 27.6521 86.598 27.4525 88.4249C27.7882 88.4484 28.124 88.4742 28.4622 88.4906C33.0012 88.7395 37.5708 88.6127 42.1568 88.54C44.458 88.5165 46.7334 88.4531 49.0182 88.3991L49.2835 88.392C49.2929 88.2957 49.3023 88.1995 49.3093 88.0985C49.3446 87.549 49.3563 86.9784 49.3657 86.4102C49.3821 85.2713 49.3751 84.1254 49.3657 82.9795ZM49.7484 88.3826L49.7672 88.3803C49.8165 88.3662 49.7954 88.3685 49.7484 88.3826ZM73.0588 0.685082C73.0518 0.647511 73.0495 0.649859 73.0588 0.685082V0.685082ZM62.4333 88.6174C62.3582 88.6151 62.3535 88.6362 62.4098 88.6198L62.4333 88.6174ZM85.6427 85.2478C85.6381 85.1515 85.6334 85.0529 85.624 84.9519C85.577 84.4048 85.5066 83.8389 85.4314 83.2753C85.2811 82.1459 85.1074 81.014 84.9289 79.8822C84.2127 75.3549 83.4143 70.83 82.6512 66.3003C81.8974 61.7683 81.1342 57.2387 80.4603 52.6856L80.4439 52.6879C78.9974 43.6145 77.5744 34.5318 76.2782 25.4349C75.9565 23.1595 75.609 20.8888 75.3084 18.6088L74.4466 11.7708L73.5919 4.93059L73.1645 1.51164L73.1152 1.11245C73.0048 1.1148 72.8945 1.1195 72.7794 1.12654C72.3544 1.15472 71.92 1.19698 71.4856 1.24395C71.5748 1.54452 71.6429 1.84978 71.6875 2.15739C71.7509 2.53545 71.7932 2.91585 71.8401 3.29626C71.9341 4.05707 72.0773 4.81084 72.2323 5.55991C72.392 6.31133 72.5422 7.06274 72.662 7.81886C72.7747 8.57497 72.8851 9.33344 72.9297 10.1036C72.9344 10.1905 72.8686 10.268 72.7794 10.2727C72.7019 10.2774 72.6362 10.2281 72.615 10.1553C72.4084 9.41327 72.2675 8.66186 72.129 7.90809C71.9951 7.15432 71.8941 6.39351 71.8026 5.6327C71.7063 4.87189 71.5983 4.11343 71.4386 3.36436C71.3611 2.98865 71.2766 2.61529 71.2132 2.23723C71.1545 1.92257 71.1192 1.60557 71.1075 1.28152C71.1052 1.28152 71.1005 1.28387 71.0958 1.28387C66.5661 1.80986 62.0318 2.51901 57.5256 3.28922C55.2761 3.68371 53.0054 4.06881 50.8145 4.59011L50.4177 4.69812C50.3918 4.70517 50.366 4.71221 50.3402 4.72161L50.3378 4.83667L50.3778 5.1114L50.629 6.81618L51.1315 10.2234L55.168 37.4881L59.2351 64.7505C59.5662 67.0259 59.9161 69.2919 60.219 71.5743L61.1817 78.3911C61.5128 80.6595 61.8533 82.9278 62.2314 85.1844C62.4263 86.3045 62.6188 87.4481 62.8724 88.5071C62.8795 88.5353 62.8865 88.5611 62.8936 88.5869L63.3656 88.5564C63.6074 88.5376 63.8493 88.5165 64.0911 88.4953C63.7976 87.3729 63.5534 86.234 63.3303 85.0952C63.072 83.745 62.8677 82.3854 62.6916 81.0211C62.5132 79.6591 62.3441 78.2972 62.1445 76.9376C62.0459 76.2566 61.9473 75.5756 61.8745 74.8947C61.797 74.2113 61.7406 73.5257 61.7453 72.8353C61.7453 72.7437 61.8204 72.6686 61.9144 72.6686C61.9942 72.6709 62.0623 72.7296 62.0764 72.8048C62.2079 73.4811 62.283 74.162 62.3511 74.843L62.5484 76.8883C62.6822 78.2502 62.8865 79.6075 63.1237 80.9553L63.8634 84.9966C64.0653 86.1519 64.279 87.3048 64.4692 88.4648C64.6664 88.4484 64.8637 88.4343 65.0609 88.4155C69.5882 87.9928 74.0897 87.1945 78.6146 86.4454C80.8877 86.0838 83.1302 85.6822 85.3798 85.2948L85.6427 85.2478ZM86.1006 85.168L86.1194 85.1656C86.164 85.1421 86.1453 85.1492 86.1006 85.168ZM82.5572 73.9624C82.4774 73.9178 82.3882 73.899 82.3013 73.9155C82.2919 73.9178 82.2825 73.9178 82.2731 73.9202C82.1651 73.9507 82.0735 74.0094 82.0266 74.0845C81.9326 74.2325 81.9984 74.4203 82.0993 74.5307C82.1674 74.6058 82.2825 74.6739 82.3952 74.6528C82.3976 74.6528 82.4328 74.6528 82.4328 74.6528C82.4422 74.6528 82.4539 74.6505 82.4633 74.6505C82.5713 74.6317 82.6793 74.5378 82.7263 74.425C82.7968 74.263 82.7193 74.0564 82.5572 73.9624ZM84.2479 83.226C84.1681 83.1814 84.0789 83.165 83.992 83.1791C83.9826 83.1814 83.9732 83.1838 83.9638 83.1861C83.8534 83.2143 83.7642 83.273 83.7172 83.3481C83.6233 83.4984 83.6891 83.6863 83.79 83.7966C83.8581 83.8718 83.9732 83.9375 84.0859 83.9187C84.0882 83.9187 84.1188 83.9187 84.1188 83.9187C84.1188 83.9187 84.1446 83.9164 84.154 83.914C84.262 83.8952 84.37 83.8037 84.417 83.691C84.4874 83.5289 84.41 83.3199 84.2479 83.226ZM80.735 84.5574C80.6928 84.541 80.6482 84.5363 80.6012 84.5434C80.4932 84.5621 80.3852 84.649 80.3335 84.7547C80.2959 84.8322 80.2936 84.9285 80.3288 85.0106C80.3593 85.0811 80.4133 85.1327 80.4814 85.1539C80.5214 85.168 80.5707 85.1703 80.62 85.1609C80.6787 85.1515 80.7397 85.1234 80.7938 85.0811C80.8196 85.067 80.836 85.0529 80.8501 85.0388C80.8947 84.9919 80.9206 84.9308 80.9206 84.8698C80.9229 84.7336 80.8478 84.6044 80.735 84.5574ZM80.5448 77.3156L80.5613 77.3133C80.6576 77.2898 80.7444 77.2358 80.7891 77.1677C80.8149 77.1278 80.8266 77.0832 80.8219 77.0386C80.8196 77.001 80.7961 76.9564 80.7656 76.9258C80.7092 76.8695 80.6223 76.8437 80.5237 76.8624C80.5214 76.8624 80.5214 76.8624 80.5214 76.8624C80.4744 76.8742 80.4321 76.8953 80.3922 76.9282C80.3617 76.9446 80.3359 76.9658 80.3171 76.9893C80.2631 77.0597 80.2654 77.163 80.3241 77.2382C80.3711 77.3016 80.458 77.3321 80.5448 77.3156ZM81.9491 82.6249L81.9373 82.6131L81.9326 82.6061C81.8904 82.5826 81.8246 82.5568 81.7354 82.5709C81.733 82.5709 81.733 82.5709 81.7307 82.5709C81.6673 82.5897 81.6109 82.6272 81.5733 82.6836C81.5006 82.7799 81.5006 82.9114 81.5687 83.0006C81.6274 83.0757 81.7283 83.1133 81.827 83.0969C81.8551 83.0898 81.8833 83.0804 81.9091 83.0663C81.9678 83.0335 82.0101 82.9865 82.0312 82.9302C82.0547 82.8738 82.0524 82.808 82.0242 82.7306C82.0101 82.6883 81.9819 82.6531 81.9491 82.6249ZM81.2704 79.631C81.2023 79.6122 81.1319 79.6098 81.0638 79.6216C80.9699 79.638 80.8924 79.6803 80.836 79.746C80.7797 79.8141 80.7515 79.908 80.7585 79.9973C80.7656 80.0748 80.7984 80.1429 80.8501 80.1875C80.9159 80.2415 81.0098 80.2509 81.0873 80.2485C81.1225 80.2579 81.1601 80.2579 81.1976 80.2509C81.3268 80.2297 81.4418 80.1217 81.4771 79.9879C81.4935 79.9198 81.5029 79.8235 81.4418 79.739C81.4066 79.6873 81.3432 79.6474 81.2704 79.631ZM45.6133 58.8402V58.9364C45.611 58.9857 45.6133 59.0468 45.6016 59.1078C45.5781 59.345 45.4325 59.6151 45.2235 59.7677C45.0145 59.9274 44.7773 59.9884 44.5496 59.9884L44.6059 59.9649C44.5543 59.979 44.5026 59.9931 44.4509 59.9978L44.3875 60.0002L44.35 60.0025H44.2748L43.9719 60.0095L43.3778 60.0119H42.1943L39.8297 59.9978L35.1075 59.9555L32.7453 59.9297L32.1559 59.9227C31.9469 59.918 31.7966 59.9297 31.5031 59.9062C31.341 59.8804 31.1743 59.817 31.0311 59.7043C30.8855 59.5939 30.7704 59.4272 30.7164 59.2534C30.6906 59.1689 30.6742 59.0797 30.6718 58.9998L30.6671 58.8355L30.6648 58.5396L30.6014 53.8056C30.5497 50.6544 30.498 47.4914 30.5004 44.3354L30.5051 34.8652C30.5098 31.1598 30.5004 27.4544 30.4863 23.7489C30.4722 23.7067 30.4558 23.6644 30.4534 23.6198V23.5916C30.4534 22.5326 30.4417 21.4571 30.4675 20.3934C30.4581 18.9093 30.4534 17.4229 30.4417 15.9365C30.4323 14.3609 30.4112 12.7853 30.3806 11.212L30.3783 11.064V10.9936C30.3806 10.9185 30.4018 10.8316 30.4393 10.7588C30.5661 10.5498 30.6624 10.5357 30.7047 10.5052C30.9066 10.4136 30.9935 10.4089 31.1133 10.3784C31.334 10.3361 31.5359 10.3103 31.7379 10.2868C32.1441 10.2422 32.541 10.2187 32.9378 10.1952C33.7315 10.1506 34.5228 10.1248 35.3142 10.106C36.8945 10.0708 38.4725 10.0825 40.0528 10.1107C40.8418 10.1295 41.6308 10.1576 42.4221 10.1999C42.819 10.221 43.2158 10.2469 43.6126 10.2821C43.8122 10.3009 44.0118 10.322 44.2161 10.3502C44.3195 10.3643 44.4204 10.3784 44.5308 10.4019C44.5848 10.4113 44.6412 10.4253 44.7046 10.4441C44.7421 10.4582 44.7633 10.4629 44.8126 10.484L44.883 10.5169C44.9229 10.5427 44.9675 10.5803 45.0004 10.6202L44.991 10.6273C45.0638 10.7541 45.0873 10.9819 45.0826 11.0006L45.092 11.1979L45.1108 11.583L45.1366 12.3508L45.1789 13.8842L45.2493 16.9462C45.2986 18.9868 45.3245 21.0274 45.3526 23.068C45.4137 27.1491 45.4607 31.2302 45.4841 35.3114C45.5123 39.3949 45.5593 43.476 45.564 47.5571L45.5898 53.6765L45.6039 56.7385L45.611 58.2672L45.6133 58.6499V58.8402ZM31.3481 11.3247C31.3716 12.8604 31.3857 14.3961 31.3904 15.9318C31.3904 16.0117 31.3904 16.0915 31.3904 16.1737L34.0673 15.96L37.5168 15.7205C38.6768 15.65 39.8415 15.5843 41.0109 15.5303C42.1591 15.4669 43.3121 15.4364 44.458 15.3964L44.4627 13.8936L44.458 12.3649L44.4533 11.6018L44.4463 11.2237L44.4416 11.0734C44.4275 11.0711 44.4181 11.0687 44.404 11.0664C44.3195 11.05 44.2255 11.0406 44.1339 11.0312C43.9484 11.01 43.7559 10.9983 43.561 10.9866C43.1759 10.9654 42.7861 10.9537 42.3939 10.9443C41.6143 10.9302 40.8301 10.9302 40.0458 10.9349C38.4772 10.9396 36.9062 10.9842 35.34 11.0382C34.5581 11.0664 33.7761 11.1016 32.9989 11.1556C32.6114 11.1815 32.224 11.2143 31.8459 11.2542C31.6745 11.273 31.5054 11.2965 31.3481 11.3247ZM34.9901 19.4588C34.9901 19.5128 34.9831 19.5692 34.976 19.6255C34.9666 19.6889 34.9572 19.7828 34.9643 19.8556C34.9784 20.0106 35.0066 20.1632 35.1216 20.3182C35.1756 20.3934 35.2836 20.4732 35.4104 20.4803C35.5302 20.4896 35.6406 20.445 35.7204 20.3746C35.8613 20.2407 35.9083 20.0881 35.9552 20.0458C35.9693 20.0271 35.9881 20.013 36.0045 20.0036L36.0538 20.1092C36.0961 20.1961 36.2206 20.33 36.399 20.3041C36.5681 20.2713 36.6221 20.1844 36.6761 20.1351L36.8029 19.9965C36.8264 19.9707 36.8475 19.9543 36.8616 19.9449C36.8804 19.9684 36.9344 20.074 37.0236 20.1985C37.0777 20.2689 37.1716 20.3511 37.2843 20.384C37.3994 20.4216 37.5097 20.4098 37.5919 20.3934C37.761 20.3535 37.8784 20.2924 37.9794 20.2572C38.0874 20.2196 38.1367 20.2173 38.2142 20.2337C38.3739 20.2595 38.5805 20.4051 38.8529 20.5178C38.9914 20.5742 39.1699 20.6164 39.3484 20.5977C39.5198 20.5789 39.6489 20.5272 39.7546 20.499C39.8649 20.4685 39.9213 20.4591 40.0082 20.4756C40.0951 20.4896 40.2031 20.5296 40.3299 20.5742C40.5811 20.6587 40.8418 20.7245 41.1048 20.7573C41.6284 20.8325 42.1662 20.8067 42.6734 20.6775C42.7462 20.6587 42.8002 20.5883 42.7931 20.5108C42.7861 20.4215 42.7086 20.3558 42.6194 20.3628C42.1356 20.4028 41.6519 20.3793 41.1846 20.2807C40.9522 20.2313 40.7244 20.1656 40.5037 20.0834C40.3933 20.0435 40.2665 19.9871 40.1068 19.9543C39.9471 19.9143 39.7452 19.9378 39.616 19.9754C39.4775 20.0083 39.3695 20.0458 39.2896 20.0552C39.2169 20.0623 39.1441 20.0505 39.0478 20.0153C38.8529 19.9496 38.6439 19.7781 38.3011 19.7171C38.1296 19.6842 37.923 19.7288 37.7985 19.7875C37.667 19.8439 37.5614 19.9026 37.4839 19.9237C37.4017 19.9355 37.4275 19.9449 37.3782 19.9049C37.3524 19.8791 37.3242 19.8322 37.2843 19.7735C37.2444 19.7194 37.1998 19.642 37.0941 19.5692C36.9814 19.494 36.817 19.4893 36.709 19.5433C36.601 19.595 36.5423 19.6631 36.493 19.7194L36.3755 19.8674L36.3732 19.8697C36.3568 19.8322 36.3309 19.7805 36.2746 19.7147C36.183 19.6067 35.9951 19.5856 35.8965 19.6326C35.7909 19.6748 35.7251 19.7359 35.6664 19.804C35.6053 19.8815 35.5795 19.9425 35.5513 19.9918C35.5232 20.0411 35.4973 20.0811 35.4785 20.0975C35.4621 20.1116 35.4457 20.1092 35.441 20.1092C35.441 20.1092 35.4363 20.1116 35.4175 20.0858C35.3799 20.0388 35.3494 19.9331 35.347 19.8392C35.347 19.7852 35.3517 19.7547 35.3658 19.6936C35.3776 19.6255 35.3893 19.5574 35.3964 19.4846C35.4058 19.3414 35.4175 19.1888 35.333 19.0032C35.293 18.9117 35.2038 18.813 35.0911 18.7684C34.9901 18.7238 34.8586 18.7168 34.7577 18.7496C34.5534 18.8154 34.4453 18.9352 34.3514 19.0338L34.0955 19.3226C33.7597 19.7101 33.4638 20.1351 33.2407 20.6C33.2102 20.6658 33.2243 20.7479 33.283 20.7996C33.3534 20.8607 33.4591 20.8513 33.5202 20.7808C33.8466 20.4028 34.1518 20.0153 34.4641 19.6326C34.6144 19.4541 34.807 19.2122 34.8915 19.1864C34.9079 19.1794 34.9103 19.1794 34.9244 19.1794C34.9314 19.1817 34.9361 19.1794 34.9502 19.2005C34.9784 19.2428 34.9948 19.3531 34.9901 19.4588ZM31.3457 11.0077C31.3457 11.0053 31.3457 11.0053 31.3457 11.003C31.3434 10.9819 31.3457 11.003 31.3457 11.0077ZM44.5824 58.9599L44.5731 58.2766L44.5519 56.7456L44.5261 53.6835L44.4815 47.5618C44.4439 43.4807 44.4533 39.3996 44.4416 35.3184C44.4275 31.451 44.4322 27.5859 44.4392 23.7184C43.4318 23.7231 42.4221 23.7301 41.4124 23.7466C40.2477 23.7677 39.083 23.7701 37.9207 23.8053C36.756 23.8382 35.5913 23.8687 34.4266 23.9203L31.3551 24.0471C31.3223 27.6539 31.2776 31.2608 31.2589 34.8676C31.2095 41.1818 31.2448 47.482 31.4115 53.7916L31.5289 58.5231L31.5359 58.819L31.5406 58.9505C31.5406 58.967 31.5453 58.9763 31.5453 58.9857C31.5547 59.0045 31.5641 59.021 31.6322 59.0351L32.75 59.0374L35.1122 59.0351L39.8321 59.0257L42.192 59.0116L43.3684 58.9998L43.9555 58.9904L44.242 58.9834L44.3594 58.9787C44.3007 58.9834 44.2255 59.0374 44.1997 59.1055L44.5566 58.9646C44.566 58.9646 44.5754 58.9623 44.5824 58.9599ZM46.3013 83.7097C46.3271 83.6557 46.3483 83.5736 46.3084 83.4914C46.2849 83.4421 46.2379 83.3998 46.1792 83.3716C46.1229 83.3481 46.0618 83.334 46.0031 83.334C45.9186 83.334 45.8458 83.3575 45.7871 83.4068C45.7284 83.4538 45.6884 83.5313 45.6814 83.6111C45.6767 83.6769 45.6931 83.7403 45.7331 83.7872C45.78 83.8436 45.8599 83.8647 45.928 83.8765C45.9561 83.8882 45.989 83.8952 46.0195 83.8952C46.1346 83.8952 46.2497 83.8201 46.3013 83.7097ZM44.033 85.5108C44.0165 85.5108 43.9977 85.5131 43.979 85.5178C43.8874 85.539 43.824 85.6071 43.8193 85.694C43.8169 85.701 43.8169 85.708 43.8169 85.7268C43.8146 85.7433 43.8122 85.755 43.8122 85.7668C43.8146 85.8255 43.8428 85.8795 43.8944 85.917L43.9015 85.9241L43.9062 85.9335C43.9085 85.9405 43.9132 85.9476 43.9203 85.9476C43.932 85.9499 43.9461 85.9523 43.9578 85.9523H43.9766C43.9931 85.9546 44.0095 85.957 44.0259 85.957C44.0964 85.957 44.1645 85.9311 44.2114 85.8865C44.2866 85.8137 44.2983 85.7034 44.242 85.6235C44.1926 85.5531 44.1152 85.5108 44.033 85.5108ZM46.3412 85.8395L46.3342 85.8278L46.3318 85.8208C46.299 85.7949 46.245 85.7621 46.1675 85.7621C46.1651 85.7621 46.1651 85.7621 46.1628 85.7621C46.1041 85.7668 46.0524 85.7902 46.0101 85.8325C45.935 85.9053 45.9139 86.018 45.9585 86.1025C45.9984 86.1777 46.0806 86.2246 46.1675 86.2246C46.1933 86.227 46.2168 86.2223 46.2403 86.2129C46.2966 86.1941 46.3412 86.1612 46.3671 86.1166C46.3952 86.0697 46.4046 86.011 46.3905 85.9429C46.3858 85.9053 46.3671 85.8701 46.3412 85.8395ZM48.2221 81.0187C48.1799 81.0211 48.1423 81.0328 48.1 81.0563C48.0718 81.0633 48.046 81.0774 48.0272 81.0962C47.9685 81.1479 47.9568 81.2371 47.9944 81.3122C48.0272 81.3733 48.0953 81.4109 48.1728 81.4132L48.1869 81.4109C48.2738 81.4062 48.356 81.3733 48.4053 81.3216C48.4335 81.2911 48.4499 81.2559 48.4546 81.216C48.4569 81.1808 48.4429 81.1408 48.4217 81.1103C48.3818 81.054 48.3114 81.0187 48.2245 81.0187C48.2221 81.0187 48.2221 81.0187 48.2221 81.0187ZM48.039 75.6696C48.0225 75.6672 48.0037 75.6649 47.985 75.6649C47.9051 75.6649 47.8276 75.7048 47.7783 75.7752C47.7196 75.8551 47.7314 75.9654 47.8042 76.0382C47.8511 76.0828 47.9192 76.1087 47.9897 76.111C48.0061 76.111 48.0225 76.1087 48.039 76.1063H48.0578C48.0718 76.1063 48.0836 76.104 48.0953 76.1016C48.1024 76.1016 48.1071 76.0922 48.1094 76.0875L48.1141 76.0782L48.1235 76.0711C48.1728 76.0359 48.2033 75.9819 48.2057 75.9232C48.2057 75.9114 48.2033 75.8973 48.1986 75.8715C48.1986 75.8621 48.201 75.8551 48.1986 75.848C48.194 75.7612 48.1329 75.6931 48.039 75.6696ZM45.0051 87.3166C44.9722 87.2931 44.9347 87.2837 44.8924 87.2837C44.7961 87.2837 44.6905 87.34 44.6294 87.4246C44.5848 87.4856 44.5707 87.5655 44.5871 87.643C44.6036 87.7087 44.6412 87.7604 44.6975 87.7885C44.7304 87.8073 44.7703 87.8167 44.8149 87.8167C44.8666 87.8167 44.9229 87.8026 44.9769 87.7721C45.0004 87.7651 45.0169 87.7557 45.0309 87.7463C45.0779 87.7134 45.1084 87.6641 45.1178 87.6101C45.1413 87.495 45.0943 87.3729 45.0051 87.3166ZM42.7227 53.0237H42.718C41.8985 52.9204 41.0813 52.8922 40.2641 52.8805C39.447 52.8687 38.6322 52.918 37.815 52.9603C36.9978 52.9979 36.1806 53.0378 35.3635 52.9885C34.5463 52.9556 33.7291 52.8687 32.912 53.0448L32.9049 53.0472C32.8204 53.066 32.75 53.1317 32.7312 53.221C32.7053 53.3454 32.7852 53.4652 32.9073 53.4886C33.7221 53.6601 34.5416 53.5685 35.3611 53.5333C36.1806 53.4769 36.9978 53.5121 37.815 53.545C38.6345 53.5826 39.454 53.6248 40.2712 53.6084C41.0907 53.592 41.9079 53.5567 42.725 53.4511C42.819 53.437 42.8965 53.3618 42.9105 53.2632C42.9246 53.1458 42.8401 53.0378 42.7227 53.0237ZM42.7227 30.0632H42.718C41.8985 29.9599 41.0813 29.9317 40.2641 29.9223C39.447 29.9082 38.6322 29.9575 37.815 29.9998C36.9978 30.0374 36.1806 30.0773 35.3635 30.028C34.5463 29.9951 33.7291 29.9082 32.912 30.0843L32.9049 30.0867C32.8204 30.1055 32.75 30.1712 32.7312 30.2628C32.7053 30.3849 32.7852 30.5046 32.9073 30.5305C33.7221 30.6995 34.5416 30.608 35.3611 30.5727C36.1806 30.5164 36.9978 30.5516 37.815 30.5845C38.6345 30.6221 39.454 30.6643 40.2712 30.6479C41.0907 30.6314 41.9079 30.5986 42.725 30.4906C42.819 30.4765 42.8965 30.4037 42.9105 30.3027C42.9246 30.1853 42.8401 30.0796 42.7227 30.0632ZM47.992 55.4846C48.0108 54.9069 48.039 54.3293 48.0507 53.7516C48.0648 53.174 48.0695 52.5987 48.0178 52.0187C48.0108 51.9435 47.9521 51.8801 47.8746 51.8684C47.783 51.8543 47.6985 51.9177 47.6844 52.0093C47.5999 52.5846 47.5764 53.1646 47.5693 53.7422C47.5599 54.3223 47.574 54.9023 47.5834 55.4799C47.6093 56.6399 47.5975 57.7976 47.5858 58.9552C47.5717 60.1129 47.5787 61.2729 47.6327 62.4305C47.6914 63.5882 47.7689 64.7435 47.9216 65.8941C47.9333 65.9716 47.9991 66.0326 48.0789 66.0326C48.1681 66.035 48.2409 65.9622 48.2409 65.873C48.2503 64.7153 48.2057 63.5623 48.1728 62.4094C48.1352 61.2541 48.0765 60.1011 48.0249 58.9482C47.9756 57.7929 47.9497 56.6376 47.992 55.4846ZM42.7227 37.7183L42.718 37.7159C41.8985 37.6149 41.0813 37.5844 40.2641 37.575C39.447 37.5609 38.6322 37.6102 37.815 37.6525C36.9978 37.6901 36.1806 37.73 35.3635 37.6807C34.5463 37.6502 33.7291 37.5633 32.912 37.7394H32.9049C32.8204 37.7582 32.75 37.8239 32.7312 37.9155C32.7053 38.0376 32.7852 38.1574 32.9073 38.1832C33.7221 38.3546 34.5416 38.263 35.3611 38.2255C36.1806 38.1691 36.9978 38.2043 37.815 38.2372C38.6345 38.2748 39.454 38.3194 40.2712 38.3006C41.0907 38.2865 41.9079 38.2513 42.725 38.1433C42.819 38.1315 42.8965 38.0564 42.9105 37.9578C42.9246 37.8404 42.8401 37.7323 42.7227 37.7183ZM42.7227 45.371H42.718C41.8985 45.2677 41.0813 45.2371 40.2641 45.2277C39.447 45.216 38.6322 45.2653 37.815 45.3076C36.9978 45.3451 36.1806 45.3851 35.3635 45.3334C34.5463 45.3029 33.7291 45.216 32.912 45.3921L32.9049 45.3945C32.8204 45.4109 32.75 45.479 32.7312 45.5682C32.7053 45.6903 32.7852 45.8101 32.9073 45.8359C33.7221 46.0073 34.5416 45.9158 35.3611 45.8782C36.1806 45.8242 36.9978 45.8594 37.815 45.8899C38.6345 45.9275 39.454 45.9721 40.2712 45.9533C41.0907 45.9392 41.9079 45.904 42.725 45.796C42.819 45.7843 42.8965 45.7091 42.9105 45.6105C42.9246 45.4931 42.8401 45.3851 42.7227 45.371ZM73.2397 13.9147C73.249 14.119 73.2561 14.3257 73.3054 14.5229C73.3524 14.7225 73.4158 14.9174 73.5332 15.1006C73.559 15.1405 73.5989 15.1687 73.6482 15.1781C73.7398 15.1945 73.829 15.1334 73.8478 15.0395C73.8854 14.8235 73.8713 14.6192 73.8384 14.4172C73.8103 14.2153 73.7375 14.0228 73.6694 13.8302C73.6013 13.6353 73.5355 13.4404 73.5355 13.2338C73.5214 13.0295 73.5473 12.8158 73.3805 12.642C73.3618 12.6209 73.3383 12.6045 73.3101 12.5951C73.2091 12.5551 73.0941 12.6045 73.0542 12.7054C72.9673 12.9309 73.0706 13.1187 73.1363 13.3136C73.2138 13.5038 73.2279 13.7081 73.2397 13.9147ZM61.6561 68.7518C61.5927 68.5311 61.534 68.3127 61.5363 68.0826C61.5269 67.8525 61.5575 67.62 61.3954 67.4157C61.3743 67.3899 61.3461 67.3688 61.3132 67.357C61.2146 67.3171 61.1043 67.3688 61.0667 67.4674C60.9728 67.7116 61.0737 67.9253 61.1348 68.146C61.2076 68.362 61.2193 68.5898 61.224 68.8199C61.2311 69.0477 61.2311 69.2778 61.278 69.5009C61.3203 69.724 61.379 69.9424 61.4941 70.156C61.5175 70.1983 61.5598 70.2312 61.6115 70.2406C61.703 70.2594 61.7923 70.1983 61.8087 70.1044C61.8533 69.8696 61.8416 69.6418 61.8134 69.4164C61.7899 69.1909 61.7218 68.9702 61.6561 68.7518ZM55.9265 33.6676C55.7457 32.6227 55.586 31.5754 55.4827 30.5187C55.431 29.9927 55.3864 29.4644 55.323 28.9384C55.2667 28.4101 55.1915 27.8864 55.0647 27.3675C55.0483 27.2947 54.9825 27.2407 54.9051 27.2383C54.8135 27.2383 54.736 27.3111 54.736 27.405C54.7289 27.9404 54.7759 28.4688 54.8463 28.9948C54.9097 29.5231 54.9966 30.0467 55.0788 30.5727C55.2479 31.62 55.3723 32.6744 55.4944 33.731C55.6119 34.7877 55.7457 35.8421 55.9171 36.8893C56.0979 37.9366 56.2881 38.9816 56.5511 40.0124C56.5699 40.0876 56.6427 40.1416 56.7225 40.1322C56.8094 40.1251 56.8752 40.0477 56.8658 39.9584C56.7648 38.8994 56.6051 37.8521 56.4525 36.8048C56.2928 35.7575 56.1097 34.7126 55.9265 33.6676ZM81.6414 71.2714C81.7025 71.3137 81.7823 71.3301 81.8645 71.316C81.8833 71.3137 81.8997 71.309 81.9185 71.302L81.9397 71.2973C81.9538 71.2949 81.9678 71.2926 81.9819 71.2879C81.9913 71.2832 81.9937 71.2738 81.9937 71.2691L81.9984 71.255L82.0054 71.2456C82.0547 71.1963 82.0782 71.1282 82.0688 71.0624C82.0665 71.0483 82.0618 71.0343 82.0524 71.0037C82.0524 70.9967 82.05 70.9873 82.0477 70.9779C82.0242 70.8816 81.942 70.8182 81.834 70.8112C81.8129 70.8088 81.7917 70.8112 81.7706 70.8135C81.679 70.83 81.5992 70.8934 81.5569 70.9803C81.5076 71.0836 81.5428 71.2057 81.6414 71.2714ZM47.5576 49.1469C47.5646 49.3958 47.5881 49.6423 47.668 49.8889C47.6844 49.9382 47.7243 49.9805 47.776 49.9992C47.8652 50.0274 47.9591 49.9781 47.9873 49.8889C48.0672 49.6423 48.0906 49.3958 48.1 49.1469C48.1118 48.9003 48.0765 48.6514 48.046 48.4048C48.0178 48.1559 47.992 47.9094 48.0319 47.6605C48.0578 47.4139 48.1235 47.165 47.9944 46.9184C47.9779 46.8856 47.9497 46.8574 47.9145 46.8386C47.8229 46.7916 47.7102 46.8269 47.6609 46.9184C47.5318 47.165 47.5999 47.4139 47.6257 47.6605C47.6633 47.9094 47.6398 48.1559 47.6093 48.4048C47.5787 48.6514 47.5459 48.9003 47.5576 49.1469ZM48.2292 84.0033C48.1916 84.0033 48.1399 84.0103 48.1047 84.0455C48.0695 84.0831 48.0437 84.123 48.0343 84.1606C48.0037 84.2733 48.0131 84.3649 48.0625 84.4283C48.1047 84.4846 48.1775 84.5175 48.2644 84.5199C48.3654 84.5199 48.4593 84.4729 48.5063 84.4025C48.5509 84.332 48.5485 84.2451 48.5039 84.1442C48.471 84.0714 48.3395 84.0033 48.2292 84.0033ZM47.7407 79.0932C47.7478 79.0956 47.7572 79.0956 47.7642 79.0956C47.8605 79.0956 47.9685 79.0322 48.0272 78.9429C48.1094 78.8138 48.0765 78.6236 47.9521 78.5203C47.891 78.4686 47.8159 78.4404 47.7384 78.4404C47.729 78.4404 47.722 78.4404 47.7126 78.4404C47.6139 78.4475 47.5294 78.485 47.4778 78.5437C47.3744 78.6565 47.4026 78.8279 47.4707 78.9382C47.52 79.0134 47.6069 79.0885 47.7079 79.0885L47.7407 79.0932ZM48.0155 86.6285C48.0061 86.6285 47.9967 86.6285 47.9873 86.6309C47.891 86.6379 47.8042 86.6755 47.7525 86.7319C47.6492 86.8469 47.6773 87.016 47.7478 87.1287C47.7948 87.2015 47.8816 87.2766 47.9826 87.279L48.0108 87.2813C48.0108 87.2813 48.0319 87.2837 48.0413 87.2837C48.1352 87.286 48.2433 87.2226 48.302 87.1334C48.3865 87.0042 48.3513 86.814 48.2268 86.7084C48.1658 86.6567 48.0906 86.6285 48.0155 86.6285Z" fill="#6B6D3C"/>
</svg>
