<svg width="532" height="501" viewBox="0 0 532 501" fill="none" xmlns="http://www.w3.org/2000/svg">
<path d="M212.172 347.76C211.875 347.84 212.169 347.718 211.987 347.938C212.637 348.531 212.45 347.875 212.488 347.758C212.377 347.733 212.379 347.703 212.172 347.76ZM177.29 188.464C176.84 188.176 177.351 188.438 176.851 188.445C176.919 190.027 177.504 188.979 177.695 188.885C177.589 188.699 177.621 188.671 177.29 188.464ZM188.621 89.013C189.306 89.174 191.317 89.0287 191.97 88.8005C191.488 88.1953 188.497 87.4684 188.621 89.013ZM5.88973 105.017C5.42116 103.544 5.00625 102.58 3.1969 101.721C2.30347 101.302 2.16876 101.185 0.621738 101.684C0.514451 105.094 2.1424 106.589 2.3587 108.009C2.67359 109.978 0.0259293 110.977 4.78631 109.732C6.42504 107.239 6.78003 107.782 5.88973 105.017ZM169.195 127.186C168.926 128.649 170.166 129.73 171.361 130.183L172.413 129.185C171.993 128.382 170.115 127.393 169.195 127.186ZM179.547 107.942C181.126 110.737 183.178 107.612 181.442 105.961C181.002 105.525 180.434 105.301 179.755 105.813C179.02 106.363 179.123 107.198 179.547 107.942ZM121.356 110.972C119.975 110.625 119.643 110.864 118.718 111.824C120.193 114.058 121.206 113.968 123.767 113.176C123.41 111.556 123.088 111.403 121.356 110.972ZM229.189 1.22591C228.662 0.337732 226.731 -0.225854 225.865 3.12496C227.872 4.31889 228.635 4.97948 230.026 2.54647C229.716 2.04258 229.568 1.85959 229.189 1.22591ZM277.499 69.2312L276.755 69.6554C275.328 70.6512 270.436 72.1667 271.077 74.3309C273.196 74.9314 273.131 72.2836 277.524 71.6083C281.442 71.0009 279.984 68.1843 277.499 69.2312ZM238.858 45.7718C239.527 43.9551 238.95 42.3253 236.952 40.7687C232.166 44.3397 236.91 51.0829 238.858 45.7718ZM84.7566 105.402C83.2272 104.456 79.2909 103.705 77.9186 105.282C76.1649 107.29 79.4025 107.987 80.8274 108.128C83.8896 108.437 87.8755 107.37 84.7566 105.402ZM304.847 72.3328C311.989 78.4101 314.011 60.1258 305.298 67.1551C304.036 68.1683 303.402 71.1066 304.847 72.3328ZM163.358 119.646C162.222 118.679 157.759 113.545 154.613 115.63C152.559 116.986 156.272 120.175 157.512 120.738C161.505 122.559 161.314 121.718 162.674 122.015C163.513 122.199 163.247 122.424 164.215 122.54C165.276 120.905 164.487 120.6 163.358 119.646ZM138.736 89.4684C137.261 88.7581 136.726 88.2326 135.279 87.8993C124.334 85.3008 127.504 92.7557 133.454 93.993C135.942 94.5121 140.59 92.9259 142.116 91.443C142.071 91.4041 139.058 89.6219 138.736 89.4684ZM187.369 88.6993C186.267 86.7411 176.398 85.4501 173.71 84.798C168.505 83.5532 162.5 83.1871 158.713 87.8817C155.695 91.6238 171.003 89.6335 172.333 89.5121C174.821 89.2692 186.535 89.9806 187.369 88.6993ZM44.297 100.128C39.6758 97.7633 9.61259 97.7462 13.0533 105.333C15.5154 110.738 44.0114 113.247 51.9418 107.104C57.3362 102.921 48.419 102.226 44.297 100.128ZM359.377 460.36C358.518 456.044 355.331 456.577 352.355 456.405C350.119 456.284 351.241 451.892 345.996 456.157C348.064 461.237 354.919 464.615 359.377 460.36ZM316.871 435.559C316.485 432.728 316.899 430.126 314.211 433.587C313.078 435.05 310.447 435.569 310.966 437.683C311.245 438.804 311.875 439.663 313.367 439.69C315.834 439.743 316.787 437.607 316.871 435.559ZM408.733 424.963C409.677 423.636 409.208 423.371 410.704 422.059C412.615 420.359 411.241 420.513 411.465 419.356C411.569 418.881 415.943 419.163 414.413 414.996C413.763 413.224 413.083 410.515 413.381 408.637C413.601 407.194 412.943 402.462 411.993 401.318C411.652 400.914 407.635 399.103 406.085 397.518C403.219 394.567 403.408 395.783 399.716 395.448C397.06 395.215 395.519 394.517 392.751 395.193C388.88 396.155 389.44 397.677 385.716 399.339C383.142 400.481 382.618 402.784 381.945 405.249C380.163 411.757 379.976 407.708 380.254 415.056C380.303 416.488 381.09 417.412 381.342 418.745C381.705 420.622 383.645 424.461 385.474 425.297C388.543 426.696 387.582 428.189 391.571 428.688C393.891 428.975 396.234 429.353 398.467 429.086C401.378 428.754 399.759 428.664 401.183 427.454C401.702 427.008 401.963 428.64 403.201 428.399C404.655 428.125 404.381 426.672 405.621 426.228C406.926 425.772 407.605 426.54 408.733 424.963ZM455.182 363.264C451.185 371.224 442.785 370.875 437.063 376C435.781 377.137 429.703 383.862 427.999 380.731C426.53 377.991 426.926 379.048 424.018 377.899C422.163 377.174 421.34 376.61 419.247 377.077C414.59 378.121 413.336 376.557 409.402 381.313C407.873 383.17 404.631 387.998 402.179 388.327C401.371 387.872 401.305 387.194 400.625 386.873C399.697 386.439 399.76 387.247 398.686 387.017C394.786 384.899 399.874 380.843 396.481 379.046C395.475 378.113 392.923 377.821 391.984 377.291C390.731 376.561 391.186 377.206 390.127 375.834C388.789 374.104 388.248 372.732 387.165 371.025C384.742 367.272 381.03 369.102 379.016 371.766C373.799 385.683 366.26 376.435 371.271 371.433C372.198 370.515 373.632 369.157 373.485 367.694C373.339 366.374 372.576 364.505 371.015 364.104C370.102 363.88 363.006 364.211 361.778 364.405C358.97 364.882 359.711 364.588 357.555 363.241C357.316 363.081 357.085 362.976 356.894 362.897C355.277 367.208 353.136 370.844 351.601 371.094C348.908 371.537 349.467 365.926 350.787 360.762C350.626 360.584 350.511 360.445 350.458 360.352C349.631 359.157 349.494 356.855 349.66 355.42C349.895 353.323 350.598 351.104 351.471 348.843C351.436 348.829 351.413 348.81 351.391 348.79C350.357 348.17 351.175 346.852 351.035 345.789C350.711 343.277 351.567 344.474 352.833 345.444C354.049 342.522 355.297 339.573 355.977 336.746C355.022 337.804 353.656 339.465 353.371 339.885C352.464 341.269 352.643 340.835 351.272 341.203C349.943 341.569 350.408 342.411 349.874 342.892C349.665 343.079 347.727 343.123 347.368 343.056C346.58 342.923 345.621 342.07 345.112 341.434C342.375 337.926 341.482 331.107 337.904 328.726C334.395 326.373 331.813 325.835 332.157 320.745L332.165 320.627C331.92 320.038 331.733 319.483 331.635 319.006C331.22 316.935 331.67 316.044 332.553 315.921C332.542 314.301 332.173 312.757 330.907 311.371C330.591 311.027 330.387 310.709 330.248 310.408C329.985 310.675 330.083 310.807 328.701 310.389C328.473 310.326 328.265 310.24 328.044 310.159C328.307 311.689 327.427 311.753 327.218 314.227C326.996 316.979 327.21 317.078 325.309 319.32C323.777 321.136 323.652 323.259 321.207 322.981C317.349 322.556 316.509 326.314 311.268 325.156C309.467 324.768 307.592 325.447 306.153 323.715C304.529 321.744 304.566 321.383 303.742 319.123C302.236 314.946 301.428 314.145 301.639 309.772C301.473 309.927 301.297 310.058 301.129 310.171C299.207 311.43 300.65 311.995 300.23 313.579C300.149 313.627 297.952 314.813 296.841 315.39C297.101 317.195 297.027 318.606 295.973 318.009C295.411 317.696 294.945 317.3 294.559 316.856C292.499 318.474 292.237 318.569 292.595 321.785C292.833 323.844 292.576 325.892 291.365 327.718C289.872 330.007 290.669 331.718 288.606 332.877C286.456 334.073 284.826 332.607 283.435 331.129C282.084 329.677 282.415 330.302 280.717 330.576C279.507 330.777 278.64 330.663 277.51 331.405C273.121 334.236 279.758 335.533 280.864 336.914C283.893 340.674 274.863 337.079 274.383 336.962C273.21 337.564 271.397 340.676 270.291 342.028C269.645 342.828 269.121 344.024 268.477 344.723C268.103 345.137 267.907 345.463 267.835 345.738C268.354 345.464 268.93 345.225 269.692 344.808C270.02 344.628 273.224 343.239 273.279 343.231C273.59 345.33 272.156 350.011 270.28 351.725C267.361 354.391 263.008 354.575 262.645 352.352C262.098 352.523 261.621 352.793 261.12 353.562C260.26 354.883 260.212 357.951 260.106 358.111C259.08 359.587 257.177 357.43 256.92 356.501C256.362 354.432 251.271 352.32 249.33 353.428C245.177 355.787 250.209 361.217 241.128 360.476C238.611 358.674 238.416 359.244 239.273 356.012C239.501 355.141 239.69 354.213 239.544 353.239C239.23 351.169 238.679 349.773 237.055 348.564C234.391 348.521 233.62 351.545 232.63 353.696C232.251 354.515 231.086 356.035 230.459 356.569C229.617 357.278 229.559 356.929 228.757 356.73C227.886 356.502 225.798 357.672 225.116 355.755C224.775 354.761 224.791 353.589 224.977 352.548C225.351 350.437 226.916 348.909 228.757 348.115C230.231 347.474 231.873 347.065 232.72 345.85C229.114 344.199 228.113 339.61 229.351 336.048C228.802 335.039 228.285 334.003 227.893 333.302C226.834 331.341 226.794 330.553 226.891 329.678C224.459 329.883 224.19 326.745 226.608 325.884C226.706 325.843 226.797 325.82 226.893 325.809C226.144 321.274 224.009 321.327 225.722 315.725C225.32 316.108 224.878 316.393 224.866 316.398C224.381 316.513 222.344 315.763 223.089 314.13C221.739 315.483 219.179 317.697 218.722 318.016C215.993 319.927 216.2 319.596 215.208 322.885C210.057 327.859 210.958 317.849 206.387 319.792C204.32 320.665 203.517 321.675 201.093 321.69C200.593 321.697 195.369 321.653 195.339 321.651C195.045 321.083 195.192 318.98 194.47 317.31C194.123 316.476 192.382 314.985 191.681 313.853C190.42 311.788 189.261 308.272 189.279 305.791C189.301 303.524 189.485 303.448 188.513 301.421C187.915 300.188 187.149 298.795 186.167 298.024C183.627 296.031 182.2 298.825 180.422 300.498C178.171 302.627 178.629 301.272 179.71 299.442C180.768 297.665 182.445 296.508 182.396 294.731C182.366 290.228 183.35 292.077 185.779 290.204C187.382 288.977 187.243 286.288 187.522 284.26C187.732 282.691 188.217 282.403 187.625 280.736C187.289 279.755 187.103 278.408 187.459 277.397C189.522 277.863 189.416 279.302 190.265 281.034C193.049 280.812 191.365 281.569 193.924 279.456C196.243 277.529 196.749 276.254 197.709 275.035C197.303 273.781 197.186 272.391 198.048 269.588C197.654 269.953 197.204 270.255 197.187 270.248C196.72 270.37 194.67 269.626 195.415 267.993C194.065 269.345 191.505 271.56 191.06 271.874C188.319 273.79 188.526 273.459 187.534 276.747C182.383 281.722 183.297 271.706 178.708 273.642C177.23 274.271 176.408 274.958 175.174 275.312C174.22 278.067 172.615 280.158 168.4 279.911C167.019 277.35 166.708 274.732 167.153 272.275C167.067 271.894 166.956 271.523 166.803 271.155C166.444 270.326 164.703 268.835 164.019 267.71C162.746 265.651 161.587 262.135 161.605 259.653C161.627 257.387 161.811 257.31 160.834 255.271C160.428 254.433 159.94 253.5 159.355 252.751C159.12 253.05 158.653 253.172 157.973 253.369C157.394 252.358 157.497 251.74 157.786 251.433C155.679 250.41 154.36 252.842 152.748 254.361C150.497 256.49 150.95 255.122 152.043 253.288C153.089 251.515 154.783 250.366 154.722 248.593C154.692 244.09 155.676 245.939 158.105 244.067C159.703 242.827 159.569 240.151 159.848 238.122C160.058 236.553 160.543 236.266 159.951 234.599C159.615 233.617 159.441 232.266 159.798 231.255C161.848 231.725 161.737 233.152 162.591 234.897C165.375 234.675 163.703 235.427 166.25 233.319C169.789 230.381 169.114 228.965 172.226 226.938C173.654 226.013 174.41 225.584 175.076 223.898L174.655 222.089C173.344 221.253 170.72 221.653 168.943 221.529C166.655 221.387 164.992 220.223 167.054 217.884C168.663 216.08 171.001 217.553 172.209 219.007C173.878 221.016 175.584 220.552 176.217 222.216C176.483 222.925 176.892 224.15 177.302 224.756C177.307 224.768 179.214 226.45 179.219 226.462C180.566 227.211 183.304 226.533 183.933 224.862C184.18 224.213 184.053 220.93 184.483 219.197C184.5 219.133 184.511 219.057 184.527 218.992C183.504 218.051 182.723 216.866 183.541 215.131C184.323 213.483 185.789 212.097 187.282 211.088C187.551 210.905 187.83 210.745 188.114 210.599C185.712 210.389 183.064 207.894 185.932 204.171C186.528 203.391 187.369 203.027 189.219 202.288C189.348 202.737 189.452 203.125 189.534 203.494C190.367 203.493 191.141 204.005 190.825 205.287C190.745 205.579 190.604 205.897 190.413 206.163C191.126 207.88 190.984 209.061 190.417 209.771C192.731 209.284 195.19 209.7 197.396 210.682C198.902 211.364 200.385 212.2 201.867 212.72C202.246 212.074 202.637 211.494 202.812 210.703C203.282 208.408 204.089 209.208 205.8 207.893C207.285 206.759 207.367 206.264 209.366 206.196C209.832 206.175 210.633 206.129 211.39 206.117C211.394 205.123 211.328 203.928 211.582 202.255C211.916 199.944 213.325 195.548 214.188 192.644C213.943 192.745 213.646 192.826 213.304 192.867C212.26 192.985 211.348 191.552 211.431 190.611C211.809 186.744 214.233 188.08 215.04 189.917C216.711 185.253 218.153 186.509 221.275 182.738C227.517 175.197 223.676 172.392 233.333 167.531C232.38 167.452 231.467 167.227 231.444 167.208C230.807 166.783 229.495 164.006 231.115 162.643C230.989 162.479 230.866 162.286 230.732 162.068C229.577 161.987 228.251 161.877 226.986 161.741C226.846 162.821 226.213 164.033 225.447 165.027C223.38 166.317 224.498 170.771 224.357 173.303C224.301 174.276 223.852 174.994 223.242 175.118C221.749 175.437 221.842 173.342 221.789 172.314C221.708 171.082 221.735 169.935 221.831 168.888C221.964 167.582 222.286 166.384 222.652 165.326C223.478 162.954 223.573 162.11 223.684 161.373C222.792 161.269 222.133 161.17 221.863 161.109C216.129 159.839 216.788 159.695 211.54 162.394C199.06 161.641 212.451 150.712 204.409 147.036C200.774 145.383 198.547 145.561 195.518 142.39C195.057 141.906 191.502 138.091 189.62 136.055C189.019 136.132 188.292 135.801 187.954 135.367C186.682 133.796 187.537 131.873 189.252 131.362C189.468 131.502 189.731 131.824 189.952 131.905C190.091 131.962 190.286 131.982 190.503 132.021C191.308 130.981 192.18 129.756 192.709 128.4C193.289 126.923 192.955 122.833 193.477 120.56C194.452 116.401 197.315 110.624 200.38 107.653C203.19 104.932 203.5 105.091 204.774 101.34C205.558 99.0729 206.323 96.3819 206.049 94.166C205.338 88.4071 200.155 89.9142 195.889 89.6162C190.51 89.2344 192.733 88.1811 196.331 87.3907C199.813 86.6338 203.303 87.4552 205.412 85.2272C210.89 79.7578 209.835 83.274 215.152 84.1992C218.628 84.8111 221.761 81.3806 224.591 79.2983C226.777 77.671 227.72 77.9691 229.034 75.1795C229.816 73.5315 231.249 71.6848 232.933 70.9274C234.891 74.1837 233.005 75.7725 231.934 79.0077C235.664 82.3759 232.645 81.0994 238.395 81.8881C246.385 82.9822 247.285 80.4078 253.613 82.0347C256.518 82.7973 257.97 83.244 260.872 82.0954L262.552 79.3552C261.958 76.6108 258.229 73.6594 256.163 71.1813C253.516 67.9959 252.886 64.4037 258.293 64.2992C262.514 64.2132 263.598 69.0694 263.31 72.4248C262.92 77.0591 265.596 78.7225 264.344 81.5582C263.796 82.7641 262.797 84.7898 262.577 86.0604C262.57 86.0778 262.86 90.6166 262.865 90.6289C263.606 93.3121 267.836 96.0842 270.634 94.8926C271.75 94.4288 275.606 90.2809 278.279 88.7531C280.733 87.3589 284.415 84.1751 287.402 84.1992C291.708 88.2626 268.452 96.5618 274.345 107.041C276.179 110.277 279.916 117.711 282.574 119.886C284.589 121.55 286.778 122.18 288.821 123.186C290.082 120.648 291.48 117.853 291.499 117.83C292.623 117.766 295.798 119.524 298.993 119.562C300.569 119.583 304.287 117.837 306.606 117.534C310.842 116.967 317.256 117.624 321.118 119.441C324.644 121.111 324.615 121.454 328.576 121.332C330.962 121.26 333.759 121.033 335.742 119.993C340.883 117.31 337.661 112.983 336.452 108.898C334.92 103.725 336.694 105.432 338.681 108.518C340.615 111.511 341.07 115.061 343.892 116.246C350.949 119.454 347.27 119.703 348.264 125C348.914 128.468 353.223 130.186 356.179 132.107C358.458 133.576 358.508 134.562 361.592 134.819C363.019 134.931 364.702 135.382 365.995 136.21C366.446 133.42 367.133 130.575 368.94 128.141C364.643 125.311 363.109 118.988 367.976 114.333C375.045 107.57 383.452 114.028 383.824 120.632C384.676 120.71 385.527 120.888 386.37 121.185C389.212 122.175 391.847 123.395 394.785 124.202C398.892 125.328 398.554 126.49 403.811 127.095C405.169 127.249 406.254 127.23 407.249 127.133C407.423 125.579 407.664 124.012 408.448 121.472C411.945 110.024 418.697 99.1067 422.634 98.6495C428.194 97.9783 424.368 111.749 420.115 116.393C418.109 118.593 420.225 122.818 417.889 126.263C416.588 128.184 414.463 132.691 413.369 135.145C412.359 137.42 412.052 139.589 411.825 141.812C413.544 143.629 415.733 145.365 417.394 146.976C418.816 148.355 423.22 153.14 423.724 154.872C424.071 156.051 422.697 156.032 423.243 157.243C423.803 158.521 424.773 159.297 425.319 160.853C425.472 161.394 422.622 163.498 422.126 165.905C422.187 165.879 422.259 165.878 422.325 165.865C423.664 165.798 424.094 167.906 422.374 167.47C422.292 167.446 422.223 167.418 422.153 167.389C422.495 168.627 423.718 169.874 426.487 170.966C432.014 173.156 439.578 167.065 436.566 180.094C437.914 184.999 433.346 185.876 433.182 188.907C433.162 189.102 433.222 189.35 433.334 189.62C433.711 189.938 434.038 190.277 434.327 190.66C435.497 190.879 435.52 192.422 436.281 193.285C436.942 194.046 437.187 194.462 437.123 194.689C440.625 198.512 445.382 202.934 446.805 204.558L446.815 204.582C446.952 204.151 447.196 203.734 447.474 203.503C449.037 202.178 450.832 203.071 451.223 204.878C451.071 205.1 450.771 205.383 450.673 205.596C450.46 206.087 450.671 207.251 449.234 207.359C452.629 211.341 455.879 215.699 456.34 221.03C456.699 225.181 455.022 228.136 453.097 230.978C453.257 231.156 453.417 231.334 453.577 231.511C456.905 235.09 455.87 236.024 460.643 239.792C460.847 239.937 461.044 240.1 461.231 240.238C460.151 239.162 458.907 238.141 458.15 237.219C457.468 236.409 457.323 235.506 457.742 234.958C458.767 233.583 460.225 235.292 461.042 236.046C462.013 236.965 462.824 237.879 463.517 238.784C464.373 239.91 464.988 241.078 465.459 242.177C465.531 242.348 465.602 242.52 465.668 242.679C466.888 243.193 468.128 243.685 469.557 244.529C474.76 247.601 469.594 249.461 466.092 249.651C455.091 250.239 460.147 260.434 461.893 267.402C462.452 269.614 463.858 276.939 463.307 278.937C463.124 279.603 462.721 279.741 462.331 279.875C462.954 280.163 463.712 280.466 464.771 280.659C468.016 281.237 468.712 280.732 471.284 283.287C472.397 284.406 475.265 286.982 475.654 288.23C476.254 290.123 474.909 292.077 477.266 295.153C478.373 296.606 478.295 300.363 477.579 301.997C475.459 306.862 475.765 306.663 472.589 310.716C471.359 312.291 470.785 311.221 470.344 312.166C469.126 314.772 459.724 316.58 456.994 315.442C455.125 316.205 453.087 316.318 451.976 317.902C450.202 320.451 455.181 337.379 455.834 341.407C456.983 348.566 458.623 356.456 455.182 363.264ZM186.955 221.305C186.859 224.394 187.316 227.397 190.169 228.138C192.151 228.651 196.538 230.035 198.431 229.781C199.873 229.584 200.974 228.911 202.161 228.446C201.655 226.916 201.102 225.205 201.097 225.192C201.383 224.843 202.364 224.436 203.374 223.786C203.068 223.395 202.803 222.93 202.584 222.403C202.305 221.699 202.077 221.046 201.869 220.442C199.686 220.76 197.402 221.839 195.347 222.534C193.896 223.022 190.583 223.321 189.143 223.143C187.337 222.915 187.548 222.454 186.955 221.305ZM538.258 375.403C545.002 377.303 543.958 373.236 540.348 370.882C537.353 368.934 531.958 373.636 538.258 375.403ZM538.493 208.803C541.498 210.948 541.196 203.61 538.168 206.465C536.671 207.878 537.188 207.879 538.493 208.803ZM532.034 416.862C531.212 416.858 530.369 417.425 529.596 419.198C528.297 422.197 532.036 423.649 533.179 424.497C534.062 422.088 536.998 416.87 532.034 416.862ZM498.314 269.465C496.079 271.458 495.303 273.189 499.266 273.311C501.338 273.385 501.423 272.688 500.816 271.229C499.902 269.064 500.183 268.702 498.314 269.465ZM495.674 307.334C497.605 308.07 498.902 309.185 501.153 310.449C502.766 307.306 503.476 305.831 503.363 304.138C502.412 289.29 481.39 301.823 495.674 307.334ZM579.163 271.643C580.686 271.398 580.664 270.099 580.263 268.856C579.199 269.514 579.685 268.852 578.55 269.165C578.394 270.381 578.171 270.675 579.163 271.643ZM546.602 252.329C547.848 252.143 548.619 251.75 548.845 250.563C548.956 249.999 548.755 249.551 548.359 249.255C546.05 247.54 544.773 251.076 546.602 252.329ZM513.608 380.902C512.939 381.784 513.178 383.224 514.261 384.514C517.046 387.858 523.793 392.086 522.536 396.189C522.854 401.177 525.44 406.602 531.132 402.755C529.412 397.545 529.098 399.833 525.941 392.444C525.195 390.684 524.213 388.805 522.85 387.013C521.743 385.561 520.433 384.106 518.88 382.652C517.601 381.443 515.244 378.713 513.608 380.902ZM495.02 389.361C496.688 391.055 498.413 390.051 499.783 388.503C500.075 388.166 498.5 386.592 498.389 385.459C498.26 384.146 499.548 383.266 499.147 382.958C495.705 380.247 492.94 387.263 495.02 389.361ZM508.964 263.428C507.74 265.605 510.845 267.852 512.348 266.796C513.237 266.167 513.783 264.402 513.265 263.05C512.751 261.71 511.189 262.172 509.639 261.939C509.566 262.904 509.535 262.414 508.964 263.428ZM559.114 238.904C561.173 242.751 565.368 238.174 563.742 236.233C562.697 234.999 561.464 233.9 559.766 234.937C558.23 235.877 558.487 237.741 559.114 238.904ZM207.604 407.772C206.69 405.607 206.983 405.24 205.102 406.008C202.867 408.001 202.103 409.727 206.066 409.849C208.126 409.928 208.223 409.226 207.604 407.772ZM224.161 348.544C223.11 349.197 223.584 348.54 222.449 348.853C222.305 350.063 222.065 350.35 223.057 351.319C224.585 351.086 224.57 349.769 224.161 348.544ZM192.744 330.251C192.855 329.687 192.649 329.226 192.27 328.938C189.961 327.223 188.666 330.752 190.501 332.017C191.746 331.83 192.525 331.42 192.744 330.251ZM219.148 403.334C220.025 402.71 220.571 400.945 220.052 399.593C219.539 398.253 217.977 398.715 216.427 398.482C216.354 399.447 216.322 398.957 215.752 399.971C214.528 402.148 217.646 404.39 219.148 403.334ZM489.458 212.86C491.497 214.86 494.794 215.043 497.21 213.277C498.35 212.458 501.153 207.712 498.722 206.536C490.28 202.452 484.867 208.354 489.458 212.86ZM486.848 362.155C483.058 371.409 499.093 376.322 501.168 365.364C502.864 356.433 490.708 352.756 486.848 362.155ZM338.216 77.9507C332.848 71.2651 330.989 76.0645 332.897 80.9665C334.488 85.0366 343.214 84.1997 338.216 77.9507ZM373.948 41.0542C374.752 41.6402 376.006 41.6802 378.044 40.4593C381.474 38.401 378.785 34.2839 378.257 32.6336C375.657 34.4046 369.003 37.5296 373.948 41.0542ZM364.8 55.7568C362.792 62.1711 364.745 60.1227 362.61 69.725C362.098 72.023 361.735 74.5754 361.821 77.3438C361.886 79.5749 362.159 81.9634 362.66 84.5167C363.078 86.6295 363.472 91.0388 366.657 90.0171C367.966 89.6025 368.746 87.9841 368.59 85.9491C368.206 80.6297 364.497 71.6013 368.666 68.4159C371.899 63.2182 373.191 55.9799 364.8 55.7568ZM385.067 96.2864C384.255 97.6882 382.346 97.662 382.519 98.2516C384.011 103.398 391.768 98.3621 391.196 94.8036C390.748 91.9266 388.305 91.6905 385.842 92.2685C385.304 92.3916 385.759 95.0786 385.067 96.2864ZM491.206 180.942C493.301 178.82 493.625 177.247 496.547 175.558C503.769 171.377 513.155 171.92 516.236 176.737C520.571 183.535 512.171 189.068 507.17 187.034C504.796 186.065 504.643 192.097 501.517 191.67C499.79 191.424 496.398 192.086 494.599 192.532C489.262 193.844 489.678 203.91 478.552 199.388C472.45 196.92 472.842 194.369 473.365 188.083C473.801 182.696 479.517 181.226 484.106 180.571C486.793 180.187 488.843 183.319 491.206 180.942ZM85.0637 74.1685C84.9944 73.9672 85.0435 73.9468 84.7832 73.6667C84.4056 73.2772 84.8323 73.6463 84.3574 73.5417C84.023 75.09 84.8522 74.2133 85.0637 74.1685ZM106.779 172.094C105.844 170.571 103.753 170.073 102.289 171.013C100.748 172.012 100.975 173.63 101.569 175.094C103.465 179.828 108.922 175.59 106.779 172.094ZM77.1933 131.253C73.8027 128.146 69.3051 131.339 71.8208 135.039C74.7568 139.37 80.4717 134.262 77.1933 131.253ZM116.666 180.554C117.297 181.831 117.304 183.439 116.495 184.537C113.23 185.851 111.922 186.855 110.214 183.092C109.301 181.07 109.687 179.989 112.038 178.969C114.237 177.997 115.903 179.031 116.666 180.554ZM166.452 184.498C165.615 184.386 164.472 184.716 163.709 185.336C163.231 185.189 162.796 185.111 162.468 185.118C162.466 185.148 162.73 186.131 162.919 186.757C162.77 188.372 164.003 187.773 163.331 190.828C164.938 192.792 166.071 192.335 166.937 191.789C167.077 191.745 167.209 191.647 167.318 191.529C167.511 191.406 167.692 191.288 167.857 191.234C168.242 191.088 168.975 191.157 169.433 191.082C171.146 188.386 170.029 184.938 166.452 184.498ZM132.568 172.033C131.322 172.22 129.487 173.514 128.723 174.652C127.268 176.824 129.944 181.81 131.917 181.852C133.153 181.885 134.99 180.733 135.693 179.449C137.163 176.724 135.766 172.947 132.568 172.033ZM217.491 51.6609C216.375 51.1899 217.054 51.2672 216.315 51.8764C217.032 52.5277 217.088 52.8352 217.491 51.6609ZM264.93 491.588C266.876 489.039 270.977 491.017 264.26 486.862C259.539 487.717 259.789 486.693 257.55 490.787C256.344 492.971 255.677 494.514 256.677 497.578C257.185 499.078 257.194 499.376 259.482 500.626C263.56 496.976 263.522 493.425 264.93 491.588ZM321.853 342.112L321.661 340.682C320.759 340.554 318.86 341.486 318.149 342.127C319.194 343.189 320.797 342.824 321.853 342.112ZM280.2 370.784C278.674 370.124 278.359 370.298 276.998 371.454C275.91 372.366 275.906 372.77 276.14 374.096C278.825 374.189 279.339 373.314 280.2 370.784ZM477.248 18.7735C477.614 18.3049 477.734 18.111 478.198 17.5301C478.843 16.7299 478.703 14.7316 475.243 15.0911C474.832 17.3902 474.492 18.3368 477.248 18.7735ZM429.169 87.5209C431.089 90.9652 433.236 88.6207 431.384 86.6577L430.726 86.1116C429.282 85.1296 426.165 81.0898 424.344 82.4508C424.536 84.6432 426.999 83.6484 429.169 87.5209ZM300.464 89.4698C299.865 89.4458 295.433 88.7134 296.071 92.3598C296.247 93.3365 297.433 94.2529 298.251 94.3874C299.369 94.5846 300.644 93.5367 301.418 92.7692C301.351 91.6036 301.293 90.5636 300.464 89.4698ZM439.839 42.259C441.775 42.2454 443.109 41.1301 443.861 38.718C438.836 35.4854 434.174 42.2978 439.839 42.259ZM437.862 122.348C442.421 130.549 450.719 114.114 440.095 117.652C438.558 118.176 436.947 120.701 437.862 122.348ZM310.132 344.395C310.773 343.827 310.797 344.162 311.466 343.452C310.766 341.629 310.049 342.085 308.619 342.45C307.159 342.812 300.387 343.44 300.238 347.198C300.169 348.866 302.329 348.874 304.1 348.498C304.063 349.793 304.064 350.972 304.023 351.565C303.823 354.682 304.182 358.142 307.092 359.78C309.418 361.086 306.917 352.576 306.724 351.837C306.566 351.212 306.343 349.536 306.069 347.838L306.081 347.833C309.895 345.658 309.091 345.316 310.132 344.395ZM346.534 380.635C341.349 380.719 314.754 394.72 321.333 399.823C326.032 403.45 352.418 392.369 356.562 383.24C359.389 377.032 351.165 380.565 346.534 380.635ZM165.164 157.004C165.504 154.95 167.341 153.037 165.523 151.189C164.501 150.147 163.307 149.594 161.821 150.413C159.363 151.765 159.886 154.582 161.182 156.833C163.223 159.321 164.513 161.978 164.978 158.908C165.026 158.989 165.061 159.075 165.104 159.143C165.773 158.607 165.679 157.653 165.374 156.989L165.164 157.004ZM473.152 231.516C477.372 232.71 476.729 230.159 474.468 228.697C472.594 227.476 469.211 230.407 473.152 231.516ZM473.303 127.277C475.186 128.623 475.001 124.026 473.101 125.823C472.171 126.698 472.487 126.697 473.303 127.277ZM467.742 258.916C466.927 260.794 469.262 261.707 469.982 262.228C470.534 260.719 472.369 257.454 469.262 257.451C468.761 257.457 468.218 257.812 467.742 258.916ZM487.513 200.812C488.696 200.335 488.519 200.567 489.079 201.916C489.474 202.83 489.408 203.26 488.113 203.223C485.636 203.145 486.117 202.054 487.513 200.812ZM446.521 188.928C447.721 189.393 448.542 190.087 449.946 190.87C450.958 188.911 451.392 187.983 451.328 186.93C450.733 177.643 437.582 185.482 446.521 188.928ZM498.75 166.603C499.708 166.45 499.699 165.634 499.445 164.848C498.784 165.266 499.087 164.853 498.365 165.052C498.276 165.808 498.133 165.983 498.75 166.603ZM478.383 154.518C479.153 154.399 479.653 154.148 479.782 153.419C479.848 153.06 479.731 152.778 479.482 152.594C478.04 151.511 477.236 153.729 478.383 154.518ZM494.183 197.033C493.415 198.402 495.365 199.807 496.31 199.141C496.855 198.756 497.2 197.649 496.878 196.805C496.544 195.966 495.571 196.255 494.6 196.098C494.551 196.708 494.537 196.397 494.183 197.033ZM486.209 146.117C487.494 148.516 490.129 145.652 489.107 144.438C488.446 143.677 487.679 142.975 486.615 143.633C485.651 144.22 485.82 145.387 486.209 146.117ZM448.032 157.856C449.828 157.714 451.253 156.23 451.418 154.378C451.498 153.496 450.411 150.223 448.858 150.883C443.464 153.197 444.016 158.159 448.032 157.856ZM399.179 117.3C397.99 120.943 401.117 125.18 405.978 123.347C407.855 122.639 407.496 121.292 407.979 120.516C411.905 114.426 401.139 111.221 399.179 117.3ZM291.62 338.125C291.649 337.882 291.889 337.524 291.972 337.274C291.168 335.652 289.195 335.264 287.999 336.955C287.551 337.572 287.42 338.849 288.029 339.344C288.667 339.841 288.811 339.393 289.492 339.786C289.46 339.813 289.446 339.848 289.414 339.875C289.01 340.044 288.764 339.729 288.257 340.17C287.825 340.55 287.548 341.025 287.785 341.559C289.009 344.401 290.951 342.084 291.034 341.489C291.041 341.471 290.918 340.76 290.667 340.189C292.016 339.7 291.536 338.648 291.62 338.125ZM265.516 363.93C264.518 363.985 263.709 364.911 263.757 365.926C263.808 366.984 264.641 367.328 265.503 367.43C268.307 367.774 267.786 363.821 265.516 363.93ZM237.715 367.661C235.28 368.515 235.564 371.69 238.052 371.447C240.936 371.154 240.066 366.813 237.715 367.661ZM272.311 361.249C271.361 361.213 270.417 361.778 270.273 363.161C270.115 364.65 270.521 365.143 271.741 365.24C274.032 365.424 273.908 364.469 274.174 362.445C273.874 361.722 273.101 361.281 272.311 361.249ZM272.627 350.764C272.365 351.448 272.488 352.749 272.826 353.457C273.458 354.805 276.6 354.822 277.169 353.838C277.528 353.214 277.479 351.954 277.053 351.24C276.152 349.73 273.955 349.392 272.627 350.764ZM236.16 378.417C236.181 379.127 236.065 378.744 236.537 378.979C236.7 378.437 236.844 378.334 236.16 378.417ZM177.36 303.338C177.68 303.105 178.41 302.197 178.572 301.828C178.145 301.804 176.696 302.78 177.36 303.338ZM113.962 389.31C113.604 387.618 113.962 387.685 112.525 386.959C111.76 386.572 111.227 386.363 110.18 386.784C109.665 386.998 109.568 387.009 109.158 387.855C110.459 389.256 111.691 389.175 112.331 389.643C113.233 390.289 112.602 391.817 113.962 389.31ZM186.889 326.198C186.399 326.057 185.282 326.449 184.837 326.764C185.313 327.458 186.224 327.366 186.866 327.042L186.889 326.198ZM181.28 314.709C183.005 315.157 182.575 313.05 181.237 313.117C180.901 313.141 180.588 313.286 180.523 313.787C180.451 314.306 180.83 314.595 181.28 314.709ZM159.824 340.524C159.162 340.972 159.111 341.195 159.133 341.976C160.585 342.25 160.946 341.769 161.632 340.377C160.851 339.882 160.667 339.958 159.824 340.524ZM143.372 353.776C142.419 354.042 140.585 355.409 140.667 356.611C140.779 358.161 142.321 357.06 142.918 356.524C144.244 355.355 145.362 353.236 143.372 353.776ZM179.594 326.225C178.772 326.322 175.009 326.16 174.614 328.323C174.349 329.728 177.043 329.428 177.754 329.132C180.03 328.172 179.619 327.911 180.264 327.456C180.665 327.174 180.651 327.382 181.075 327.019C180.848 325.919 180.417 326.127 179.594 326.225ZM157.833 328.639C159.005 327.792 160.186 325.202 160.207 323.971C160.177 323.969 158.298 324.534 158.114 324.61C157.251 324.955 156.839 324.968 156.145 325.443C150.864 329.033 155.036 330.664 157.833 328.639ZM169.887 307.954C167.362 309.665 164.891 312.058 165.268 315.525C165.557 318.296 170.737 311.038 171.203 310.427C172.075 309.274 176.92 304.6 176.748 303.736C175.538 303.42 171.18 307.086 169.887 307.954ZM125.547 368.777C122.821 369.795 111.111 382.485 115.443 384.05C118.526 385.17 130.615 374.12 131.27 368.325C131.73 364.381 127.986 367.864 125.547 368.777ZM385.982 380.533C385.074 381.429 383.777 379.207 383.42 383.123C386.227 384.271 390.229 382.723 390.277 379.137C388.247 377.78 387.214 379.346 385.982 380.533ZM363.958 387.228C362.692 386.258 361.83 385.049 362.142 387.565C362.282 388.629 361.459 389.935 362.498 390.567C363.04 390.903 363.63 390.974 364.221 390.354C365.204 389.327 364.726 388.073 363.958 387.228ZM310.46 422.347C309.255 421.87 309.214 421.599 308.792 422.695C308.707 424.427 309.088 425.448 310.684 423.821C311.511 422.974 311.27 422.672 310.46 422.347ZM293.541 391.744C293.385 392.441 293.323 391.978 293 392.587C293.414 393.134 293.447 393.35 294.211 393.32C294.704 392.569 294.192 392.063 293.541 391.744ZM274.096 397.725C273.913 397.457 273.658 397.361 273.392 397.414C271.817 397.709 272.712 399.653 273.921 399.38C274.332 398.778 274.474 398.288 274.096 397.725ZM312.079 413.822C311.357 413.504 310.93 414.343 310.229 414.907C310.575 415.324 310.373 415.15 310.554 415.793C310.94 417.172 313.036 416.747 313.204 415.699C313.307 415.081 312.813 414.135 312.079 413.822ZM274.244 385.728C273.356 385.666 272.439 385.745 272.181 386.887C271.955 387.902 272.797 388.544 273.498 388.742C275.815 389.404 275.644 385.808 274.244 385.728ZM131.183 341.196C131.074 341.141 131.094 341.118 130.879 341.121C130.576 341.118 130.893 341.086 130.656 341.242C131.145 342.003 131.116 341.31 131.183 341.196ZM178.261 371.043C177.293 370.827 176.286 371.519 176.08 372.51C175.882 373.556 176.6 374.106 177.416 374.443C180.012 375.536 180.477 371.532 178.261 371.043ZM150.638 367.28C148.088 367.476 147.593 370.645 150.035 371.054C152.883 371.538 153.087 367.082 150.638 367.28ZM185.444 370.23C184.54 369.958 183.49 370.236 183.017 371.554C182.508 372.959 182.783 373.55 183.937 373.976C186.086 374.751 186.194 373.8 186.941 371.894C186.834 371.119 186.194 370.479 185.444 370.23ZM206.385 350.755C205.809 351.239 205.362 352.446 205.841 353.08C206.462 353.916 206.694 353.057 207.657 354.612C209.625 354.744 209.35 353.391 209.584 352.848C209.683 352.634 209.982 352.352 210.135 352.13C209.743 350.323 207.948 349.429 206.385 350.755ZM188.27 360.11C187.859 360.712 187.654 362.02 187.815 362.787C188.099 364.265 191.117 365.125 191.9 364.311C192.389 363.791 192.653 362.559 192.418 361.751C191.907 360.037 189.875 359.127 188.27 360.11ZM304.958 342.605C304.975 342.195 304.716 341.052 304.531 340.711C304.245 341.061 304.133 342.833 304.958 342.605ZM363.707 429.914C362.205 432.25 361.907 431.741 362.644 434.31C363.03 435.689 363.39 436.589 364.984 437.379C365.766 437.773 365.901 437.89 367.273 437.42C367.43 434.234 366.015 432.837 365.835 431.503C365.593 429.677 367.958 428.723 363.707 429.914ZM328.402 347.386C327.992 347.715 327.635 348.898 327.603 349.444C328.432 349.43 328.912 348.612 329.04 347.883L328.402 347.386ZM316.132 345.683C317.509 344.464 315.626 343.636 314.877 344.81C314.689 345.118 314.617 345.464 314.957 345.798C315.32 346.151 315.771 345.992 316.132 345.683ZM323.154 378.531C323.096 379.36 323.246 379.513 323.858 379.949C324.941 378.852 324.791 378.282 324.136 376.914C323.275 377.301 323.226 377.494 323.154 378.531ZM329.8 334.625C331.402 332.736 328.535 332.101 327.271 331.965C324.552 331.686 320.992 332.705 323.734 334.528C325.065 335.413 328.554 336.091 329.8 334.625ZM325.152 356.833C325.785 354.341 325.336 354.542 325.375 353.735C325.403 353.249 325.55 353.361 325.517 352.799C324.535 352.373 324.436 352.86 324.014 353.61C323.592 354.361 321.207 357.48 322.634 359.045C323.563 360.068 324.962 357.588 325.152 356.833ZM310.565 368.864C310.546 368.886 309.859 370.797 309.802 371.007C309.548 371.918 309.314 372.289 309.254 373.148C308.845 379.674 312.625 377.039 312.758 373.518C312.815 372.027 311.517 369.561 310.565 368.864ZM241.394 375.925C238.767 379.778 239.631 386.494 244.768 387.955C247.437 385.379 245.541 383.204 244.24 380.869C243.267 379.116 246.929 377.997 241.394 375.925ZM195.18 340.542C194.358 339.603 194.421 337.852 192.883 337.887C192.067 337.895 191.392 338.176 191.129 339.134C190.704 340.705 192.033 341.62 193.413 341.966C195.416 342.112 197.14 342.733 195.18 340.542ZM225.04 336.645C225.062 337.355 224.951 336.984 225.43 337.202C225.586 336.677 225.725 336.562 225.04 336.645ZM156.647 196.684C156.33 196.614 156.2 196.611 155.796 196.505C155.252 196.372 154.276 196.964 155.258 198.67C156.511 198.293 157.062 198.237 156.647 196.684ZM201.426 203.182L201.315 203.674C201.143 204.68 199.832 207.339 200.945 207.941C202.004 207.271 200.932 206.249 202.379 204.124C203.66 202.225 201.981 201.715 201.426 203.182ZM177.136 210.171C176.677 209.168 175.818 208.763 174.415 208.986C173.961 212.426 178.473 213.11 177.136 210.171ZM299.353 380.57C298.148 380.093 298.107 379.823 297.685 380.918C297.593 382.668 297.981 383.672 299.565 382.05C300.397 381.215 300.163 380.895 299.353 380.57ZM283.104 351.544C283.602 350.804 283.085 350.286 282.434 349.967C282.284 350.677 282.203 350.207 281.881 350.815C282.308 351.357 282.328 351.579 283.104 351.544ZM262.995 355.961C262.806 355.68 262.551 355.584 262.285 355.637C260.711 355.932 261.605 357.876 262.814 357.603C263.218 357.018 263.372 356.523 262.995 355.961ZM300.972 372.045C300.238 371.732 299.816 372.584 299.122 373.13C299.468 373.548 299.266 373.373 299.447 374.016C299.833 375.395 301.922 374.987 302.097 373.922C302.188 373.309 301.712 372.371 300.972 372.045ZM171.138 221.551C170.523 221.836 170.82 221.583 170.764 222.138C171.303 222.087 171.445 222.186 171.138 221.551ZM352.601 388.137C351.098 390.473 350.788 389.969 351.525 392.539C351.928 393.924 352.271 394.817 353.882 395.615C354.659 395.996 354.781 396.118 356.166 395.643C356.311 392.462 354.896 391.066 354.721 389.744C354.474 387.905 356.856 386.958 352.601 388.137ZM312.035 336.759C311.977 337.588 312.132 337.754 312.751 338.172C313.834 337.075 313.689 336.517 313.029 335.138C312.169 335.524 312.107 335.722 312.035 336.759ZM299.458 327.087C299.439 327.109 298.739 329.025 298.683 329.236C298.434 330.159 298.207 330.512 298.147 331.371C297.739 337.897 301.524 335.274 301.651 331.741C301.701 330.268 300.41 327.784 299.458 327.087ZM194.47 184.646C194.992 184.17 195.191 184.13 195.158 183.324C194.453 182.841 193.961 183.419 193.657 184.106C194.327 184.231 193.891 184.325 194.47 184.646ZM199.383 204.218C199.125 204.426 199.035 204.694 199.08 204.977C199.359 206.616 201.217 205.585 200.953 204.328C200.386 203.931 199.925 203.792 199.383 204.218ZM142.794 168.128C142.573 167.803 141.713 167.082 141.36 166.926C141.322 167.388 142.262 168.853 142.794 168.128ZM152.736 164.298C153.245 164.345 153.523 163.942 153.64 163.462C154.059 161.634 152.045 162.184 152.108 163.581C152.13 163.946 152.275 164.26 152.736 164.298ZM178.112 182.83C177.643 183.672 177.707 183.861 178.248 184.715C178.665 185.405 178.889 185.426 179.631 185.377C179.882 183.835 179.436 183.488 178.112 182.83ZM190.893 201.333C191.138 202.338 192.45 204.18 193.598 204.034C195.07 203.839 194.023 202.29 193.507 201.67C192.384 200.354 190.365 199.266 190.893 201.333ZM166.598 169.797C167.935 170.004 167.656 167.186 167.367 166.457C166.453 164.119 166.208 164.567 165.777 163.911C165.508 163.506 165.698 163.513 165.359 163.078C164.303 163.374 164.498 163.81 164.594 164.662C164.694 165.526 164.542 169.487 166.598 169.797ZM147.21 175.741C148.835 178.301 151.107 180.794 154.409 180.227C157.06 179.787 150.128 174.701 149.547 174.237C148.446 173.387 143.993 168.521 143.173 168.762C142.882 170.033 146.373 174.421 147.21 175.741ZM208.667 169.081C209.128 171.09 213.089 171.141 211.224 167.932C209.22 164.494 208.092 166.66 208.667 169.081ZM141.543 189.615C142.218 189.752 141.771 189.851 142.357 190.154C142.866 189.684 143.082 189.651 143.049 188.845C142.34 188.349 141.847 188.928 141.543 189.615ZM207.315 163.891C207.107 164.912 207.767 165.946 208.709 166.102C209.71 166.261 210.234 165.482 210.551 164.617C211.579 161.831 207.777 161.542 207.315 163.891ZM203.747 193.057C203.936 195.725 206.947 196.085 207.341 193.505C207.802 190.495 203.557 190.49 203.747 193.057ZM199.433 154.267C200.846 153.896 201.659 150.696 200.874 149.915C200.391 149.411 199.209 149.197 198.439 149.489C196.812 150.107 195.946 152.279 196.885 153.916C197.458 154.326 198.698 154.472 199.433 154.267ZM176.89 151.93C178.394 152.297 179.256 150.875 179.579 149.403C179.721 147.288 180.325 145.455 178.221 147.623C177.33 148.526 175.661 148.558 175.692 150.155C175.716 151.008 175.982 151.718 176.89 151.93Z" fill="#FF0000" fill-opacity="0.23"/>
</svg>
