<svg width="1155" height="805" viewBox="0 0 1155 805" fill="none" xmlns="http://www.w3.org/2000/svg">
<mask id="path-1-inside-1_8_5979" fill="white">
<path d="M890.909 318.258C888.735 320.754 887.205 323.492 884.87 325.022C881.166 327.518 877.703 330.216 874.482 333.195H872.751C866.47 326.471 868.121 316.567 859.424 312.581C853.425 309.884 847.668 306.582 841.83 303.12C842.192 302.798 842.515 302.476 842.837 302.153C850.486 293.779 855.761 293.779 864.457 299.859C872.469 305.495 880.521 311.051 890.909 318.258ZM1153.29 202.828C1150.11 199.285 1146.33 200.574 1142.66 201.701C1141.17 202.144 1139.72 202.748 1138.4 203.513C1125.55 210.679 1112.19 216.155 1097.21 217.161C1093.5 217.443 1089.88 219.336 1086.22 220.503C1070.88 225.375 1055.46 230.126 1040.16 235.118C1032.55 237.614 1025.22 238.581 1017.85 234.514C1011.29 230.85 1004.57 231.857 997.763 233.991C982.302 238.782 967.043 243.976 953.596 253.316C944.416 259.718 934.311 262.697 923.158 261.691C920.179 261.449 916.998 261.087 917.2 255.49C922.796 251.585 929.077 247.317 935.237 242.848C943.289 237.01 951.422 231.172 959.192 224.932C970.546 215.793 981.336 205.928 992.851 197.031C1003.64 188.697 1013.83 180.121 1029.93 182.537C1040.92 184.187 1046.32 170.458 1039.76 160.795C1033.88 152.179 1023.97 150.931 1016.32 159.467C1003.76 173.558 987.979 182.818 972.076 192.199C965.473 196.105 959.072 200.453 952.388 204.157C942.081 209.794 933.022 216.92 926.419 226.583C920.098 235.803 911.442 241.721 901.9 246.995C893.163 251.786 883.863 256.054 876.334 262.375C875.69 262.898 875.046 263.422 874.361 263.945C872.469 254.363 863.934 247.116 854.15 247.277C843.883 247.438 834.744 257.262 834.744 268.092C834.784 273.608 837.16 278.842 840.864 282.707C829.389 286.935 817.311 289.632 804.79 291.323C802.776 291.645 800.482 290.357 798.146 289.753C796.939 284.358 795.811 279.245 795.087 275.863C794.926 275.661 794.764 275.46 794.603 275.299C794.04 269.018 794.04 262.858 795.207 256.859C796.939 255.37 798.589 253.799 800.039 252.068C800.884 251.062 801.367 248.767 800.804 247.841C800.321 247.076 799.676 246.19 798.992 245.425C800.482 242.405 802.454 239.426 804.91 236.527C805.434 235.883 805.675 234.957 806.118 234.192C822.062 206.734 833.979 176.819 855.559 152.703C858.861 149.079 860.793 143.241 861.156 138.249C862.041 125.607 867.96 116.669 878.025 109.704C885.554 104.47 890.667 97.4238 892.197 88.0831C893.284 81.5608 890.265 74.7566 884.668 72.663C878.629 70.3681 874.241 73.589 871.261 78.2996C860.391 95.5315 850.003 113.045 839.052 130.197C829.55 145.093 820.814 160.755 809.339 174.001C797.18 188.052 784.538 201.54 774.312 217.202C765.978 229.884 755.268 240.392 742.666 249.008C741.176 250.055 739.647 251.021 738.157 251.947C736.667 251.545 735.177 251.062 733.688 250.498C733.003 250.216 732.158 250.337 731.393 250.417C716.255 251.786 701.116 253.195 685.938 254.564C683.764 253.236 681.589 251.706 679.375 249.934C675.993 247.197 671.725 245.546 667.901 243.331C660.452 239.064 657.111 233.024 656.466 223.966C655.42 208.868 649.541 201.701 634.363 192.24C632.148 195.903 630.015 199.607 627.72 203.231C627.599 203.352 626.19 202.667 623.532 201.621C622.445 188.817 625.143 175.773 632.229 164.58C641.207 150.529 645.394 136.679 643.381 119.568C641.851 106.724 643.462 92.673 647.166 80.1516C653.286 59.3767 651.675 37.9576 655.42 17.0619C655.862 14.5254 655.581 11.7474 655.097 9.17065C654.252 4.70163 652.36 -0.0492243 647.126 0.433913C644.428 0.715746 640.724 3.93666 639.798 6.63418C637.785 12.3916 636.819 18.6321 636.255 24.7518C634.121 48.5061 635.168 73.0254 629.733 95.9744C621.962 128.465 609.562 159.869 598.852 191.636C598.329 193.166 594.746 193.608 592.974 194.373C585.727 188.858 595.068 177.142 583.07 173.599C578.319 181.731 573.648 189.743 568.737 198.158C562.295 197.111 556.98 196.789 552.068 195.299C532.984 189.502 513.578 190.347 494.092 191.475C483.584 192.079 472.995 191.998 462.567 193.246C455.763 194.051 448.476 195.461 442.597 198.762C427.942 206.895 413.569 215.672 399.88 225.294C389.533 232.582 379.387 238.742 366.221 239.305C361.309 239.547 355.351 241.721 351.969 245.103C343.031 254.162 333.328 253.92 322.699 250.015C314.365 246.955 305.628 244.7 297.938 240.513C274.707 227.831 251.839 214.424 227.319 200.413C230.701 189.824 227.521 181.168 219.186 174.565C212.02 168.888 205.82 160.795 192.292 164.741C197.324 172.713 201.27 178.994 206.263 186.885C201.874 186.321 199.136 186.643 197.123 185.596C158.633 165.748 120.345 145.617 81.8143 125.848C59.0263 114.132 35.9565 102.98 12.9672 91.6664C10.632 90.4988 8.01502 89.6936 5.43828 89.3715C3.90834 89.1299 1.1303 89.8144 0.808212 90.7404C0.0835002 92.9145 -0.480158 96.8601 0.606905 97.6251C12.1217 105.677 23.4754 114.173 35.8357 120.735C52.2221 129.432 69.7359 135.954 86.2431 144.409C120.908 162.164 155.13 180.644 189.635 198.722C220.958 215.148 252.402 231.253 281.753 251.142C282.84 251.907 283.081 253.96 283.766 255.41C280.183 257.101 276.64 258.832 272.05 261.046C276.881 269.622 282.639 276.104 284.088 283.472C285.698 291.645 283.122 300.623 282.8 309.239C282.679 312.742 284.007 316.245 284.048 319.788C284.048 324.136 284.37 328.968 282.8 332.873C273.459 356.386 272.13 383.482 250.711 402.203C256.026 410.255 258.24 418.026 258.562 425.595C251.798 424.991 244.994 424.428 238.23 424.347C231.949 424.266 226.595 428.454 228.447 430.99C230.46 433.768 233.842 436.103 237.103 437.271C240.606 438.519 244.672 438.197 248.457 438.68C251.396 439.042 254.335 439.284 257.234 439.928C254.415 453.456 247.933 466.38 245.517 479.143C247.531 482.565 248.094 484.417 249.342 485.504C249.544 485.665 249.664 485.786 249.866 485.947C245.678 486.35 241.773 486.712 237.908 487.437C234.929 488 232.191 490.013 233.479 494.241C238.834 499.435 245.075 494.644 250.872 495.489C255.019 496.093 258.2 497.703 255.14 502.776C239.478 504.991 224.018 508.614 209.363 503.139C196.519 515.257 196.519 515.257 182.75 516.143C176.63 516.506 170.39 516.506 164.391 517.633C158.472 518.76 152.715 520.975 146.998 523.068C145.911 523.471 144.582 525.806 144.904 526.732C145.588 528.664 147.078 531.523 148.568 531.724C152.997 532.409 157.627 532.046 162.176 531.966C179.005 531.644 195.915 530.839 212.745 531.08C221.159 531.241 229.332 532.691 237.707 529.47C245.236 526.531 253.046 528.987 259.931 532.409C262.79 533.858 265.246 537.884 265.89 541.105C266.292 543.038 263.273 546.621 260.938 547.909C256.992 550.124 252.362 551.09 248.054 552.66C245.356 553.667 242.659 554.673 239.921 555.68C227.843 559.303 215.563 562.605 202.317 559.787C200.787 559.465 198.975 560.753 197.284 561.236C174.698 567.758 152.071 574.16 129.564 580.884C128.598 580.239 127.592 579.515 126.062 578.508C125.015 579.877 123.968 581.286 122.881 582.695C122.962 582.736 123.002 582.776 123.082 582.816C120.667 583.541 118.291 584.225 115.875 584.95C112.775 585.916 109.756 587.124 106.736 588.453C103.193 585.836 101.422 584.346 101.261 584.507C99.8514 585.796 98.8046 587.446 97.6371 588.976C98.6838 589.741 99.8514 591.231 100.777 591.11C100.938 591.07 101.14 590.989 101.341 590.949C98.1202 592.479 94.9395 593.969 91.6784 595.297C74.527 602.303 57.3756 609.228 40.1034 615.871C34.3863 618.085 28.0652 618.89 22.4689 621.346C20.0532 622.393 18.7648 626.017 15.3426 630.607C31.3667 633.948 44.4114 632.861 57.2548 629.64C76.1374 624.97 94.8993 619.776 113.742 614.784C124.814 611.845 136.932 610.758 146.676 605.363C166.041 594.653 185.125 587.406 207.309 594.532C209.765 595.338 212.584 594.975 215.241 594.935C221.723 594.895 227.48 593.485 230.983 587.205C237.868 575.005 249.221 575.046 261.139 576.012C270.802 576.777 280.464 577.421 290.167 578.025C289.201 579.595 287.993 580.964 286.785 581.769C283.162 584.185 278.331 584.749 276.358 585.353C271.687 593.043 269.352 600.088 264.521 604.074C259.528 608.181 252.08 609.349 245.759 611.764C241.733 627.667 230.903 636.928 217.334 643.651C206.263 649.127 194.869 653.676 182.387 654.643C170.349 655.569 161.492 660.722 152.997 670.063C141.562 682.705 126.907 691.643 108.105 684.275C99.6501 680.974 91.4368 682.504 83.7468 686.771C64.9447 697.239 46.1829 707.788 27.5016 718.417C25.569 719.504 23.7573 721.074 22.3078 722.805C21.4624 723.852 20.6571 725.986 21.1403 726.912C22.1468 728.764 24.0391 731.381 25.6093 731.421C30.038 731.502 34.6681 731.059 38.8956 729.69C46.9076 727.154 54.5573 723.49 62.5693 720.953C82.3377 714.793 102.227 708.996 122.036 702.997C128.638 701.024 135.08 698.125 141.804 697.038C163.626 693.455 182.871 684.839 199.458 670.184C206.544 663.903 214.677 659.716 224.42 659.716C231.708 659.716 237.546 657.179 242.538 651.422C252.523 639.907 266.574 635.317 280.505 630.969C282.759 630.284 285.658 631.613 290.973 632.418C285.457 639.142 282.035 644.094 277.847 648.201C269.111 656.817 259.81 664.829 251.114 673.445C246.886 677.632 249.423 685.523 255.301 685.926C276.358 687.456 298.783 693.495 313.72 670.667C315.21 668.412 318.673 666.761 321.491 666.238C324.027 665.795 326.926 667.245 330.993 668.171C329.342 673.727 328.738 678.357 326.685 682.222C320.605 693.737 314.042 705.01 307.44 716.283C301.521 726.348 303.736 731.18 315.13 734.602C327.772 738.387 337.032 734.844 345.769 725.02C357.646 711.693 370.248 698.89 383.413 686.812C383.574 686.892 383.735 686.973 383.936 687.013C385.064 686.892 386.191 686.812 387.399 686.812C392.995 686.812 397.706 688.14 401.531 690.395C406.765 690.596 412.119 690.033 417.676 688.503C417.716 688.462 417.796 688.462 417.877 688.462C418.038 688.623 418.199 688.825 418.36 689.026C421.541 693.173 423.272 698.447 425.728 703.158C427.419 706.379 429.231 709.559 430.438 711.774C439.779 714.028 445.174 709.237 451.093 705.815C472.632 693.253 490.025 700.38 496.024 724.174C497.152 728.643 497.756 733.273 498.923 737.702C502.909 753.203 506.855 768.744 511.364 784.124C512.048 786.338 515.672 788.955 518.047 789.036C520.463 789.156 524.368 786.942 525.214 784.808C527.992 777.722 531.535 770.193 531.414 762.906C531.253 751.713 534.394 742.695 540.795 735.005C545.184 736.696 549.894 737.863 554.887 738.588C555.611 739.554 556.618 740.359 558.108 740.883C561.57 742.05 564.871 741.446 567.408 739.675C574.534 740.4 581.62 741.849 588.787 742.372C600.221 743.218 611.977 745.151 623.09 743.379C625.264 743.057 627.357 742.775 629.491 742.534C629.813 742.735 630.176 742.976 630.538 743.178C644.468 751.19 659.969 756.303 672.531 766.851C675.993 769.71 682.515 767.858 684.851 764.194C687.548 759.846 687.347 755.296 683.925 751.431C683.2 750.586 682.395 749.781 681.509 749.016C685.495 748.814 689.32 747.486 692.661 744.547C700.271 737.823 709.37 735.246 718.469 731.703C726.441 728.603 735.057 723.731 740.13 717.128C747.014 708.231 754.704 704.205 763.763 703.762C771.815 710.807 779.908 717.853 789.49 722.926C793.315 724.979 795.852 729.449 798.911 732.871C803.984 738.668 808.735 744.708 814.05 750.223C821.015 757.551 826.974 765.281 830.879 774.783C837.643 791.129 852.983 797.531 867.477 804.415C870.013 805.623 875.489 803.892 877.623 801.637C879.756 799.423 880.763 794.471 879.958 791.29C878.629 786.257 875.408 781.668 872.992 776.877C865.222 761.497 851.694 750.868 840.904 737.944C842.273 737.38 843.722 736.937 845.011 736.253C845.413 736.011 845.413 735.085 845.574 734.521C844.004 735.649 842.474 736.776 840.864 737.944C818.921 727.154 809.983 704.486 795.127 687.255C795.087 687.174 795.046 687.134 795.006 687.053C804.87 690.274 814.09 693.092 822.867 696.716C834.744 701.628 845.051 700.662 856.042 690.717C852.942 682.705 850.486 676.424 847.95 669.781C849.802 668.774 851.332 667.687 852.66 666.882C861.317 672.479 870.939 677.149 880.159 682.302C883.944 684.396 888.815 684.597 893.244 685.201C894.371 685.362 896.545 683.953 896.868 682.866C897.431 680.893 897.351 678.518 896.868 676.464C896.545 675.136 895.136 673.888 893.928 673.042C890.748 670.828 887.527 668.613 884.306 666.439C889.862 666.52 895.418 666.399 900.894 665.715C915.992 663.943 930.164 663.259 945.02 667.808C957.582 671.714 967.406 667.768 967.929 661.246C968.734 651.663 961.407 647.355 954.683 643.088C925.614 624.527 896.344 606.208 867.316 587.567C860.834 583.42 854.915 578.347 848.715 573.637C848.956 573.113 849.238 572.63 849.48 572.187C855.801 573.194 861.88 575.529 867.557 579.676C877.381 586.802 887.809 589.62 899.324 591.794C912.811 594.331 925.977 598.88 939.303 602.544C946.913 604.598 953.515 607.738 957.421 615.388C960.118 620.662 965.513 623.682 970.908 621.145C974.331 619.575 976.142 614.542 978.639 611.08C986.651 609.952 994.743 616.475 1004.2 609.63C999.132 607.456 995.186 605.242 990.959 604.115C953.878 594.13 918.649 578.911 882.816 565.383C880.723 564.578 878.871 563.169 877.945 562.645C880.079 551.614 886.681 549.761 893.808 549.721C899.927 549.681 906.047 551.372 912.086 551.171C914.301 551.13 916.716 548.151 918.287 545.937C918.649 545.454 916.153 541.83 914.381 541.146C902.061 536.475 889.178 534.502 876.012 534.623C872.872 534.663 869.772 534.583 866.712 534.341C870.416 525.725 876.858 517.955 878.307 508.493C881.206 508.534 884.145 508.695 887.084 509.138C903.712 511.674 920.058 516.304 936.364 520.733C947.436 523.712 958.186 527.98 969.097 531.684C979.524 535.267 990.113 536.113 1000.82 533.214C1004.81 532.167 1007.55 529.631 1006.46 523.873C997.682 516.868 986.248 515.016 975.216 512.157C958.91 507.849 942.444 503.984 926.258 499.153C913.294 495.247 900.974 490.094 891.191 480.955C897.31 477.17 903.712 473.587 908.141 468.353C920.541 453.738 929.52 435.983 948.885 428.333C952.549 426.883 950.335 418.63 946.107 417.583C942.725 416.778 939.223 416.657 935.76 416.214C922.836 414.563 922.836 414.563 908.745 402.364C914.623 391.453 932.781 389.158 931.05 371.001C920.783 369.189 910.758 367.458 901.82 365.928C896.264 353.406 912.972 346.119 905.041 333.517C908.342 332.631 911.764 332.108 915.348 331.947C923.843 331.544 932.378 330.9 939.384 325.344C942.605 322.808 944.376 319.506 939.585 315.359C933.385 315.842 926.5 317.131 919.776 316.527C916.797 316.285 913.496 312.662 911.482 309.803C909.027 306.22 910.556 302.395 913.697 299.536C931.09 283.875 950.456 272.521 974.049 268.495C988.342 265.999 1002.27 261.207 1016.24 257.141C1026.59 254.162 1036.74 250.538 1047 247.438C1048.09 247.116 1049.62 248.284 1051.23 248.847C1050.99 253.638 1042.53 256.698 1047.93 262.898C1054.57 265.878 1059.81 261.61 1065 258.832C1092.78 244.056 1120.44 228.958 1148.06 213.86C1153.37 210.961 1155.71 205.486 1153.29 202.828Z"/>
</mask>
<path d="M890.909 318.258C888.735 320.754 887.205 323.492 884.87 325.022C881.166 327.518 877.703 330.216 874.482 333.195H872.751C866.47 326.471 868.121 316.567 859.424 312.581C853.425 309.884 847.668 306.582 841.83 303.12C842.192 302.798 842.515 302.476 842.837 302.153C850.486 293.779 855.761 293.779 864.457 299.859C872.469 305.495 880.521 311.051 890.909 318.258ZM1153.29 202.828C1150.11 199.285 1146.33 200.574 1142.66 201.701C1141.17 202.144 1139.72 202.748 1138.4 203.513C1125.55 210.679 1112.19 216.155 1097.21 217.161C1093.5 217.443 1089.88 219.336 1086.22 220.503C1070.88 225.375 1055.46 230.126 1040.16 235.118C1032.55 237.614 1025.22 238.581 1017.85 234.514C1011.29 230.85 1004.57 231.857 997.763 233.991C982.302 238.782 967.043 243.976 953.596 253.316C944.416 259.718 934.311 262.697 923.158 261.691C920.179 261.449 916.998 261.087 917.2 255.49C922.796 251.585 929.077 247.317 935.237 242.848C943.289 237.01 951.422 231.172 959.192 224.932C970.546 215.793 981.336 205.928 992.851 197.031C1003.64 188.697 1013.83 180.121 1029.93 182.537C1040.92 184.187 1046.32 170.458 1039.76 160.795C1033.88 152.179 1023.97 150.931 1016.32 159.467C1003.76 173.558 987.979 182.818 972.076 192.199C965.473 196.105 959.072 200.453 952.388 204.157C942.081 209.794 933.022 216.92 926.419 226.583C920.098 235.803 911.442 241.721 901.9 246.995C893.163 251.786 883.863 256.054 876.334 262.375C875.69 262.898 875.046 263.422 874.361 263.945C872.469 254.363 863.934 247.116 854.15 247.277C843.883 247.438 834.744 257.262 834.744 268.092C834.784 273.608 837.16 278.842 840.864 282.707C829.389 286.935 817.311 289.632 804.79 291.323C802.776 291.645 800.482 290.357 798.146 289.753C796.939 284.358 795.811 279.245 795.087 275.863C794.926 275.661 794.764 275.46 794.603 275.299C794.04 269.018 794.04 262.858 795.207 256.859C796.939 255.37 798.589 253.799 800.039 252.068C800.884 251.062 801.367 248.767 800.804 247.841C800.321 247.076 799.676 246.19 798.992 245.425C800.482 242.405 802.454 239.426 804.91 236.527C805.434 235.883 805.675 234.957 806.118 234.192C822.062 206.734 833.979 176.819 855.559 152.703C858.861 149.079 860.793 143.241 861.156 138.249C862.041 125.607 867.96 116.669 878.025 109.704C885.554 104.47 890.667 97.4238 892.197 88.0831C893.284 81.5608 890.265 74.7566 884.668 72.663C878.629 70.3681 874.241 73.589 871.261 78.2996C860.391 95.5315 850.003 113.045 839.052 130.197C829.55 145.093 820.814 160.755 809.339 174.001C797.18 188.052 784.538 201.54 774.312 217.202C765.978 229.884 755.268 240.392 742.666 249.008C741.176 250.055 739.647 251.021 738.157 251.947C736.667 251.545 735.177 251.062 733.688 250.498C733.003 250.216 732.158 250.337 731.393 250.417C716.255 251.786 701.116 253.195 685.938 254.564C683.764 253.236 681.589 251.706 679.375 249.934C675.993 247.197 671.725 245.546 667.901 243.331C660.452 239.064 657.111 233.024 656.466 223.966C655.42 208.868 649.541 201.701 634.363 192.24C632.148 195.903 630.015 199.607 627.72 203.231C627.599 203.352 626.19 202.667 623.532 201.621C622.445 188.817 625.143 175.773 632.229 164.58C641.207 150.529 645.394 136.679 643.381 119.568C641.851 106.724 643.462 92.673 647.166 80.1516C653.286 59.3767 651.675 37.9576 655.42 17.0619C655.862 14.5254 655.581 11.7474 655.097 9.17065C654.252 4.70163 652.36 -0.0492243 647.126 0.433913C644.428 0.715746 640.724 3.93666 639.798 6.63418C637.785 12.3916 636.819 18.6321 636.255 24.7518C634.121 48.5061 635.168 73.0254 629.733 95.9744C621.962 128.465 609.562 159.869 598.852 191.636C598.329 193.166 594.746 193.608 592.974 194.373C585.727 188.858 595.068 177.142 583.07 173.599C578.319 181.731 573.648 189.743 568.737 198.158C562.295 197.111 556.98 196.789 552.068 195.299C532.984 189.502 513.578 190.347 494.092 191.475C483.584 192.079 472.995 191.998 462.567 193.246C455.763 194.051 448.476 195.461 442.597 198.762C427.942 206.895 413.569 215.672 399.88 225.294C389.533 232.582 379.387 238.742 366.221 239.305C361.309 239.547 355.351 241.721 351.969 245.103C343.031 254.162 333.328 253.92 322.699 250.015C314.365 246.955 305.628 244.7 297.938 240.513C274.707 227.831 251.839 214.424 227.319 200.413C230.701 189.824 227.521 181.168 219.186 174.565C212.02 168.888 205.82 160.795 192.292 164.741C197.324 172.713 201.27 178.994 206.263 186.885C201.874 186.321 199.136 186.643 197.123 185.596C158.633 165.748 120.345 145.617 81.8143 125.848C59.0263 114.132 35.9565 102.98 12.9672 91.6664C10.632 90.4988 8.01502 89.6936 5.43828 89.3715C3.90834 89.1299 1.1303 89.8144 0.808212 90.7404C0.0835002 92.9145 -0.480158 96.8601 0.606905 97.6251C12.1217 105.677 23.4754 114.173 35.8357 120.735C52.2221 129.432 69.7359 135.954 86.2431 144.409C120.908 162.164 155.13 180.644 189.635 198.722C220.958 215.148 252.402 231.253 281.753 251.142C282.84 251.907 283.081 253.96 283.766 255.41C280.183 257.101 276.64 258.832 272.05 261.046C276.881 269.622 282.639 276.104 284.088 283.472C285.698 291.645 283.122 300.623 282.8 309.239C282.679 312.742 284.007 316.245 284.048 319.788C284.048 324.136 284.37 328.968 282.8 332.873C273.459 356.386 272.13 383.482 250.711 402.203C256.026 410.255 258.24 418.026 258.562 425.595C251.798 424.991 244.994 424.428 238.23 424.347C231.949 424.266 226.595 428.454 228.447 430.99C230.46 433.768 233.842 436.103 237.103 437.271C240.606 438.519 244.672 438.197 248.457 438.68C251.396 439.042 254.335 439.284 257.234 439.928C254.415 453.456 247.933 466.38 245.517 479.143C247.531 482.565 248.094 484.417 249.342 485.504C249.544 485.665 249.664 485.786 249.866 485.947C245.678 486.35 241.773 486.712 237.908 487.437C234.929 488 232.191 490.013 233.479 494.241C238.834 499.435 245.075 494.644 250.872 495.489C255.019 496.093 258.2 497.703 255.14 502.776C239.478 504.991 224.018 508.614 209.363 503.139C196.519 515.257 196.519 515.257 182.75 516.143C176.63 516.506 170.39 516.506 164.391 517.633C158.472 518.76 152.715 520.975 146.998 523.068C145.911 523.471 144.582 525.806 144.904 526.732C145.588 528.664 147.078 531.523 148.568 531.724C152.997 532.409 157.627 532.046 162.176 531.966C179.005 531.644 195.915 530.839 212.745 531.08C221.159 531.241 229.332 532.691 237.707 529.47C245.236 526.531 253.046 528.987 259.931 532.409C262.79 533.858 265.246 537.884 265.89 541.105C266.292 543.038 263.273 546.621 260.938 547.909C256.992 550.124 252.362 551.09 248.054 552.66C245.356 553.667 242.659 554.673 239.921 555.68C227.843 559.303 215.563 562.605 202.317 559.787C200.787 559.465 198.975 560.753 197.284 561.236C174.698 567.758 152.071 574.16 129.564 580.884C128.598 580.239 127.592 579.515 126.062 578.508C125.015 579.877 123.968 581.286 122.881 582.695C122.962 582.736 123.002 582.776 123.082 582.816C120.667 583.541 118.291 584.225 115.875 584.95C112.775 585.916 109.756 587.124 106.736 588.453C103.193 585.836 101.422 584.346 101.261 584.507C99.8514 585.796 98.8046 587.446 97.6371 588.976C98.6838 589.741 99.8514 591.231 100.777 591.11C100.938 591.07 101.14 590.989 101.341 590.949C98.1202 592.479 94.9395 593.969 91.6784 595.297C74.527 602.303 57.3756 609.228 40.1034 615.871C34.3863 618.085 28.0652 618.89 22.4689 621.346C20.0532 622.393 18.7648 626.017 15.3426 630.607C31.3667 633.948 44.4114 632.861 57.2548 629.64C76.1374 624.97 94.8993 619.776 113.742 614.784C124.814 611.845 136.932 610.758 146.676 605.363C166.041 594.653 185.125 587.406 207.309 594.532C209.765 595.338 212.584 594.975 215.241 594.935C221.723 594.895 227.48 593.485 230.983 587.205C237.868 575.005 249.221 575.046 261.139 576.012C270.802 576.777 280.464 577.421 290.167 578.025C289.201 579.595 287.993 580.964 286.785 581.769C283.162 584.185 278.331 584.749 276.358 585.353C271.687 593.043 269.352 600.088 264.521 604.074C259.528 608.181 252.08 609.349 245.759 611.764C241.733 627.667 230.903 636.928 217.334 643.651C206.263 649.127 194.869 653.676 182.387 654.643C170.349 655.569 161.492 660.722 152.997 670.063C141.562 682.705 126.907 691.643 108.105 684.275C99.6501 680.974 91.4368 682.504 83.7468 686.771C64.9447 697.239 46.1829 707.788 27.5016 718.417C25.569 719.504 23.7573 721.074 22.3078 722.805C21.4624 723.852 20.6571 725.986 21.1403 726.912C22.1468 728.764 24.0391 731.381 25.6093 731.421C30.038 731.502 34.6681 731.059 38.8956 729.69C46.9076 727.154 54.5573 723.49 62.5693 720.953C82.3377 714.793 102.227 708.996 122.036 702.997C128.638 701.024 135.08 698.125 141.804 697.038C163.626 693.455 182.871 684.839 199.458 670.184C206.544 663.903 214.677 659.716 224.42 659.716C231.708 659.716 237.546 657.179 242.538 651.422C252.523 639.907 266.574 635.317 280.505 630.969C282.759 630.284 285.658 631.613 290.973 632.418C285.457 639.142 282.035 644.094 277.847 648.201C269.111 656.817 259.81 664.829 251.114 673.445C246.886 677.632 249.423 685.523 255.301 685.926C276.358 687.456 298.783 693.495 313.72 670.667C315.21 668.412 318.673 666.761 321.491 666.238C324.027 665.795 326.926 667.245 330.993 668.171C329.342 673.727 328.738 678.357 326.685 682.222C320.605 693.737 314.042 705.01 307.44 716.283C301.521 726.348 303.736 731.18 315.13 734.602C327.772 738.387 337.032 734.844 345.769 725.02C357.646 711.693 370.248 698.89 383.413 686.812C383.574 686.892 383.735 686.973 383.936 687.013C385.064 686.892 386.191 686.812 387.399 686.812C392.995 686.812 397.706 688.14 401.531 690.395C406.765 690.596 412.119 690.033 417.676 688.503C417.716 688.462 417.796 688.462 417.877 688.462C418.038 688.623 418.199 688.825 418.36 689.026C421.541 693.173 423.272 698.447 425.728 703.158C427.419 706.379 429.231 709.559 430.438 711.774C439.779 714.028 445.174 709.237 451.093 705.815C472.632 693.253 490.025 700.38 496.024 724.174C497.152 728.643 497.756 733.273 498.923 737.702C502.909 753.203 506.855 768.744 511.364 784.124C512.048 786.338 515.672 788.955 518.047 789.036C520.463 789.156 524.368 786.942 525.214 784.808C527.992 777.722 531.535 770.193 531.414 762.906C531.253 751.713 534.394 742.695 540.795 735.005C545.184 736.696 549.894 737.863 554.887 738.588C555.611 739.554 556.618 740.359 558.108 740.883C561.57 742.05 564.871 741.446 567.408 739.675C574.534 740.4 581.62 741.849 588.787 742.372C600.221 743.218 611.977 745.151 623.09 743.379C625.264 743.057 627.357 742.775 629.491 742.534C629.813 742.735 630.176 742.976 630.538 743.178C644.468 751.19 659.969 756.303 672.531 766.851C675.993 769.71 682.515 767.858 684.851 764.194C687.548 759.846 687.347 755.296 683.925 751.431C683.2 750.586 682.395 749.781 681.509 749.016C685.495 748.814 689.32 747.486 692.661 744.547C700.271 737.823 709.37 735.246 718.469 731.703C726.441 728.603 735.057 723.731 740.13 717.128C747.014 708.231 754.704 704.205 763.763 703.762C771.815 710.807 779.908 717.853 789.49 722.926C793.315 724.979 795.852 729.449 798.911 732.871C803.984 738.668 808.735 744.708 814.05 750.223C821.015 757.551 826.974 765.281 830.879 774.783C837.643 791.129 852.983 797.531 867.477 804.415C870.013 805.623 875.489 803.892 877.623 801.637C879.756 799.423 880.763 794.471 879.958 791.29C878.629 786.257 875.408 781.668 872.992 776.877C865.222 761.497 851.694 750.868 840.904 737.944C842.273 737.38 843.722 736.937 845.011 736.253C845.413 736.011 845.413 735.085 845.574 734.521C844.004 735.649 842.474 736.776 840.864 737.944C818.921 727.154 809.983 704.486 795.127 687.255C795.087 687.174 795.046 687.134 795.006 687.053C804.87 690.274 814.09 693.092 822.867 696.716C834.744 701.628 845.051 700.662 856.042 690.717C852.942 682.705 850.486 676.424 847.95 669.781C849.802 668.774 851.332 667.687 852.66 666.882C861.317 672.479 870.939 677.149 880.159 682.302C883.944 684.396 888.815 684.597 893.244 685.201C894.371 685.362 896.545 683.953 896.868 682.866C897.431 680.893 897.351 678.518 896.868 676.464C896.545 675.136 895.136 673.888 893.928 673.042C890.748 670.828 887.527 668.613 884.306 666.439C889.862 666.52 895.418 666.399 900.894 665.715C915.992 663.943 930.164 663.259 945.02 667.808C957.582 671.714 967.406 667.768 967.929 661.246C968.734 651.663 961.407 647.355 954.683 643.088C925.614 624.527 896.344 606.208 867.316 587.567C860.834 583.42 854.915 578.347 848.715 573.637C848.956 573.113 849.238 572.63 849.48 572.187C855.801 573.194 861.88 575.529 867.557 579.676C877.381 586.802 887.809 589.62 899.324 591.794C912.811 594.331 925.977 598.88 939.303 602.544C946.913 604.598 953.515 607.738 957.421 615.388C960.118 620.662 965.513 623.682 970.908 621.145C974.331 619.575 976.142 614.542 978.639 611.08C986.651 609.952 994.743 616.475 1004.2 609.63C999.132 607.456 995.186 605.242 990.959 604.115C953.878 594.13 918.649 578.911 882.816 565.383C880.723 564.578 878.871 563.169 877.945 562.645C880.079 551.614 886.681 549.761 893.808 549.721C899.927 549.681 906.047 551.372 912.086 551.171C914.301 551.13 916.716 548.151 918.287 545.937C918.649 545.454 916.153 541.83 914.381 541.146C902.061 536.475 889.178 534.502 876.012 534.623C872.872 534.663 869.772 534.583 866.712 534.341C870.416 525.725 876.858 517.955 878.307 508.493C881.206 508.534 884.145 508.695 887.084 509.138C903.712 511.674 920.058 516.304 936.364 520.733C947.436 523.712 958.186 527.98 969.097 531.684C979.524 535.267 990.113 536.113 1000.82 533.214C1004.81 532.167 1007.55 529.631 1006.46 523.873C997.682 516.868 986.248 515.016 975.216 512.157C958.91 507.849 942.444 503.984 926.258 499.153C913.294 495.247 900.974 490.094 891.191 480.955C897.31 477.17 903.712 473.587 908.141 468.353C920.541 453.738 929.52 435.983 948.885 428.333C952.549 426.883 950.335 418.63 946.107 417.583C942.725 416.778 939.223 416.657 935.76 416.214C922.836 414.563 922.836 414.563 908.745 402.364C914.623 391.453 932.781 389.158 931.05 371.001C920.783 369.189 910.758 367.458 901.82 365.928C896.264 353.406 912.972 346.119 905.041 333.517C908.342 332.631 911.764 332.108 915.348 331.947C923.843 331.544 932.378 330.9 939.384 325.344C942.605 322.808 944.376 319.506 939.585 315.359C933.385 315.842 926.5 317.131 919.776 316.527C916.797 316.285 913.496 312.662 911.482 309.803C909.027 306.22 910.556 302.395 913.697 299.536C931.09 283.875 950.456 272.521 974.049 268.495C988.342 265.999 1002.27 261.207 1016.24 257.141C1026.59 254.162 1036.74 250.538 1047 247.438C1048.09 247.116 1049.62 248.284 1051.23 248.847C1050.99 253.638 1042.53 256.698 1047.93 262.898C1054.57 265.878 1059.81 261.61 1065 258.832C1092.78 244.056 1120.44 228.958 1148.06 213.86C1153.37 210.961 1155.71 205.486 1153.29 202.828Z" fill="#27AE60" stroke="#2C292D" stroke-width="4" mask="url(#path-1-inside-1_8_5979)"/>
</svg>
