<svg width="582" height="640" viewBox="0 0 582 640" fill="none" xmlns="http://www.w3.org/2000/svg">
<path fill-rule="evenodd" clip-rule="evenodd" d="M1.90185 306.417C1.71789 306.19 1.7689 306.135 1.2935 305.912C0.611071 305.614 1.36029 305.866 0.693021 305.949C1.03353 308.085 1.66808 306.576 1.90185 306.417ZM233.67 351.226C233.733 351.261 240.943 350.356 237.739 347.493C237.446 346.46 238.214 345.937 237.27 344.623C236.496 343.488 235.444 342.777 234.11 343.275C227.243 345.902 232.291 350.953 233.67 351.226ZM153.935 348.725C151.994 347.269 149.095 347.681 147.729 349.61C146.261 351.647 147.355 353.582 148.84 355.114C153.612 360.176 158.411 352.091 153.935 348.725ZM96.0724 311.795C90.2177 309.564 86.1236 315.828 91.1634 319.26C97.0344 323.28 101.702 313.983 96.0724 311.795ZM172.457 359.635C172.943 357.837 172.113 355.801 170.682 354.506C168.947 352.979 166.339 352.497 164.033 354.813C161.575 357.291 161.618 358.846 163.805 360.936C167.852 364.849 169.007 362.927 172.457 359.635ZM165.243 413.313C165.665 412.928 166.632 412.64 167.165 412.316C167.989 408.056 164.833 404.289 160.11 405.483C158.375 405.923 156.256 408.052 156.723 409.886C157.309 412.324 158.628 410.7 159.322 415.061C163.568 417.429 164.214 414.23 165.243 413.313ZM182.984 341.023C182.226 344.533 188.103 349.507 190.638 348.562C192.201 347.985 193.959 345.613 194.194 343.633C194.682 339.455 191.015 335.381 186.528 335.818C185.042 336.665 183.373 339.211 182.984 341.023ZM259.093 316.665C266.368 325.255 272.062 325.14 281.093 329.95C301.084 340.604 265.205 366.414 296.993 370.277C310.786 364.249 309.076 364.495 323.535 368.627C326.746 369.549 352.63 374.052 355.032 373.012L355.145 368.728C361.692 367.082 357.69 372.031 365.234 364.814C369.435 360.845 371.428 360.611 376.619 359.244C385.35 356.911 388.89 352.345 397.478 359.288C398.756 362.339 400.174 368.035 398.21 370.665C395.551 374.17 396.571 370.413 398.111 377.15C398.643 379.537 399.464 381.775 400.41 383.938C397.279 384.654 394.252 385.925 389.04 387.551C383.623 389.248 382.747 389.112 377.822 392.822C373.497 396.122 374.725 400.822 373.461 405.167C369.727 417.799 378.349 420.373 376.581 429.777C375.455 435.73 380.398 436.293 384.327 440.306C389.185 445.251 389.467 444.746 395.835 445.648C403.006 446.668 401.214 449.808 408.655 447.376C413.977 445.626 413.58 443.666 419.419 441.584C421.064 441.01 429.628 437.529 430.346 436.688C432.059 434.581 432.452 433.061 432.937 430.558C433.571 427.269 435.322 427.915 436.628 425.87C438.286 423.194 438.888 420.632 438.848 418.105C441.35 418.073 443.406 417.874 444.94 417.943C445.448 421.041 447.488 424.062 451.513 426.122C455.372 428.108 457.041 425.562 458.997 425.246C464.835 424.28 466.993 420.558 466.728 416.581C469.148 415.137 471.885 413.124 475.242 410.444C476.065 409.785 476.877 408.996 477.693 408.127C480.432 408.04 483.209 407.664 484.302 405.852C486.569 402.232 487.844 401.95 487.708 396.555C488.01 396.31 488.295 396.096 488.611 395.9C493.957 392.549 497.378 393.318 500.109 394.655C508.794 398.899 505.596 392.314 504.628 391.525C504.013 390.996 503.862 390.746 504.799 381.645C505.759 382.967 506.807 384.131 508.113 384.238C510.514 384.46 511.364 382.492 509.626 379.225C508.308 376.69 506.26 376.355 504.433 375.77C503.803 373.784 502.657 372.275 501.358 370.226C500.418 367.384 500.003 364.566 501.261 363.425C503.362 361.513 505.518 359.28 509.049 359.925C513.528 360.726 514.813 360.574 515.862 356.171C515.901 356.027 515.94 355.883 516.001 355.772C517.398 356.386 517.964 356.039 516.709 354.429C518.083 352.856 520.28 353.295 520.242 349.134C520.156 340.829 526.402 340.836 531.449 338.911C539.14 335.957 535.858 329.077 533.704 318.541C531.463 307.791 539.637 300.409 540.292 290.922C540.427 289.197 540.104 286.14 539.064 284.07C538.597 283.126 535.529 278.311 534.947 277.945C533.421 276.97 532.96 278.761 530.395 275.716C527.73 272.553 528.615 272.674 525.248 271.438C523.807 270.904 515.275 266.683 514.19 265.808C512.286 264.25 511.26 261.339 511.009 259.564C510.751 257.578 512.397 256.778 513.467 256.195C519.201 253.04 509.628 236.213 504.159 250.693C501.863 252.807 497.521 252.724 494.428 246.321C493.022 243.426 492.3 241.305 490.596 238.202C489.234 235.745 489.806 236.872 488.259 235.119C487.129 233.805 484.04 231.773 482.765 229.902C478.625 225.378 484.479 223.49 479.676 218.224C478.378 217.211 478.515 218.301 477.387 217.134C476.544 216.27 476.431 215.359 475.429 214.262C473.848 213.608 472.05 214.53 470.444 215.703C483.275 200.715 509.88 189.973 502.747 182.352C495.123 181.846 485.202 189.392 478.738 192.596C471.671 196.064 461.162 206.035 458.267 207.07C450.94 209.668 440.529 201.915 439.062 194.971C439.025 194.889 439.008 183.268 438.994 183.219C439.763 179.985 442.635 174.984 444.187 171.98C447.863 164.944 441.254 160.244 442.975 148.475C444.218 139.938 442.196 127.386 431.407 126.914C417.587 126.347 418.641 135.627 424.922 144.18C429.816 150.842 438.891 158.988 439.996 166.061L435.272 172.823C427.675 175.312 424.064 173.919 416.735 171.549C400.81 166.371 398.124 172.82 377.908 168.768C363.329 165.852 370.822 169.597 361.819 160.394C365.049 152.303 370.124 148.511 365.593 139.899C361.189 141.561 357.247 146.068 355.007 150.158C351.207 157.083 348.852 156.184 343.017 159.966C335.457 164.876 326.953 173.109 318.153 171.037C304.704 167.84 307.944 158.989 293.117 172.14C287.39 177.472 278.591 174.841 269.579 176.231C260.281 177.688 254.422 180.029 268.128 181.838C278.979 183.274 292.443 180.249 293.376 195.051C293.757 200.789 291.372 207.551 289.045 213.207C285.198 222.589 284.418 222.133 276.833 228.644C268.557 235.764 260.345 250.079 257.25 260.564C255.551 266.28 255.757 276.785 254.061 280.454C250.634 287.898 243.237 293.479 242.218 296.159C242.27 296.251 257.604 314.883 259.093 316.665ZM269.779 138.136C270.58 139.742 274.15 143.472 275.686 144.391C276.074 142.434 272.606 135.367 269.779 138.136ZM182.487 210.482C181.584 214.179 184.581 217.155 187.572 218.471L190.406 216.099C189.458 213.977 184.828 211.146 182.487 210.482ZM217.024 158.135C215.952 156.978 214.55 156.3 212.731 157.52C210.78 158.792 210.917 160.958 211.856 162.91C215.487 170.316 221.205 162.661 217.024 158.135ZM62.7495 161.516C59.2945 160.438 58.4211 160.965 55.8803 163.294C59.3184 169.226 61.9361 169.134 68.5943 167.55C67.9273 163.328 67.1134 162.895 62.7495 161.516ZM467.71 85.4257C477.826 84.507 474.529 77.0594 468.002 79.3377L466.048 80.3175C462.26 82.6549 449.531 85.7374 450.813 91.3786C456.151 93.2379 456.408 86.4688 467.71 85.4257ZM340.353 401.333C342.835 401.931 346.219 400.093 347.398 398.35C348.97 395.977 347.86 391.881 346.878 389.264C344.078 388.199 341.611 387.278 338.144 388.076C337.468 389.437 331.137 399.007 340.353 401.333ZM372.92 13.3282C374.905 8.80559 373.665 4.53385 368.809 0.252522C356.011 8.61575 367.11 26.6031 372.92 13.3282ZM34.944 112.665C30.7301 110.832 20.4779 110.475 17.628 114.99C13.9525 120.764 22.426 121.268 26.0675 121.084C33.9666 120.689 43.6103 116.423 34.944 112.665ZM539.363 78.4098C535.994 80.8146 533.927 88.2303 537.401 91.5753C554.726 108.234 562.697 61.8077 539.363 78.4098ZM166.632 196.236C168.741 196.833 168.029 197.368 170.5 197.835C173.456 193.834 171.492 192.904 168.77 190.288C166 187.647 155.369 173.832 147.027 178.658C141.568 181.802 150.569 190.526 153.651 192.163C163.566 197.465 163.205 195.256 166.632 196.236ZM168.836 313.697C168.745 313.564 161.316 308.551 160.495 308.093C156.833 306.051 155.57 304.642 151.913 303.555C124.374 295.19 131.317 314.73 146.327 318.838C152.627 320.531 164.695 317.224 168.836 313.697ZM253.744 101.873C247.713 89.5688 238.654 77.1273 223.231 77.3208C210.908 77.4844 239.816 104.432 242.224 106.831C246.778 111.358 264.479 135.615 268.383 135.184C270.423 129.782 256.857 108.204 253.744 101.873ZM545.532 315.183C553.136 316.32 558.517 315.058 567.114 317.307C582.276 321.293 584.752 313.589 579.185 310.359C572.396 306.428 565.86 310.13 557.506 308.781C552.718 308.015 532.737 313.262 545.532 315.183ZM227.251 294.124C234.32 286.683 220.925 287.656 214.315 285.481C206.893 283.017 162.236 289.796 169.086 300.26C173.96 307.739 216.878 305.041 227.251 294.124ZM272.379 464.315C267.317 474.8 271.74 490.471 284.789 491.416C290.388 483.901 285.03 479.629 281.046 474.675C278.057 470.98 286.553 466.509 272.379 464.315ZM255.522 383.924C259.373 386.072 262.17 388.998 260.408 382.51C259.675 379.742 261.467 376.084 258.388 374.74C256.769 374.043 255.152 374.011 253.72 375.799C251.37 378.752 253.104 381.913 255.522 383.924ZM269.484 442.418C271.827 445.712 274.02 449.128 276.929 451.703C280.713 455.014 278.964 452.88 282.183 453.268C283.342 453.417 281.558 455.651 283.279 456.942C285.282 458.473 286.83 456.439 288.837 457.517C290.889 458.662 290.696 460.417 294.015 460.033C296.796 459.721 296.594 458.822 299.993 459.186C304.388 459.692 302.582 458.105 304.329 457.051C305.051 456.647 309.745 462.556 313.262 455.804C314.784 452.928 317.473 448.922 320.208 447.136C322.31 445.742 327.585 439.475 327.958 436.951C328.065 436.017 325.735 428.84 326.005 425.017C326.47 417.949 325.133 419.604 321.286 414.478C318.554 410.843 317.651 408.084 313.6 405.328C307.883 401.477 306.613 403.976 300.22 401.114C295.778 399.134 292.257 401.143 288.331 403.134C277.965 408.363 282.913 403.424 273.848 412.255C272.104 413.972 271.816 416.047 270.405 417.909C268.423 420.571 265.75 427.441 266.798 430.758C268.555 436.291 265.547 436.786 269.484 442.418ZM388.387 519.003C392.614 527.528 395.757 522.783 394.854 516.981C394.101 512.173 384.425 511.04 388.387 519.003ZM543.262 540.482C543.829 545.476 550.967 538.467 545.299 538.017C542.526 537.795 542.988 538.301 543.262 540.482ZM340.873 550.534C340.133 549.708 338.789 549.372 336.275 550.205C332.052 551.617 334.031 556.715 334.203 558.632C337.45 557.338 345.404 555.545 340.873 550.534ZM506.258 428.343C509.895 420.562 511.575 420.443 504.923 417.23C494.046 416.026 487.459 418.189 496.815 429.244C501.709 435.016 503.797 433.573 506.258 428.343ZM415.03 591.979C429.157 577.486 397.322 567.697 404.778 587.13C405.792 589.766 405.848 592.115 406.632 595.532C411.269 594.269 413.401 593.637 415.03 591.979ZM520.694 637.42C519.097 636.944 520.185 636.847 518.818 635.96C517.496 636.92 516.976 636.961 516.875 638.85C518.547 640.155 519.831 638.967 520.694 637.42ZM510.547 589.043C511.197 588.619 511.5 588.002 511.417 587.335C511.058 583.451 506.312 585.356 506.71 588.352C508.036 589.464 509.134 589.869 510.547 589.043ZM359.949 522.12C361.059 519.759 362.072 517.054 362.637 514.037C363.087 511.597 363.369 508.94 363.402 506.06C363.462 503.652 364.055 498.767 360.381 499.119C358.854 499.26 357.619 500.807 357.306 503.074C356.474 508.944 358.363 519.621 353.089 522.102C348.339 526.944 345.206 534.49 354.303 536.77C357.962 530.284 355.375 532.028 359.949 522.12ZM334.874 488.079C334.678 491.323 337.279 492.152 340.081 492.101C340.695 492.113 340.848 489.093 341.872 487.926C343.096 486.622 345.163 487.071 345.129 486.39C344.718 480.448 335.119 484.077 334.874 488.079ZM547.368 431.301C538.488 433.343 539.987 447.28 546.562 448.775C550.392 449.627 556.532 446.781 558.914 442.066C561.287 437.367 556.215 434.289 553.098 429.488C550.282 431.643 551.537 430.356 547.368 431.301ZM531.664 588.735C529.664 594.325 538.108 594.398 538.57 590.972C538.879 588.785 538.874 586.568 536.288 585.788C533.917 585.066 532.274 587.047 531.664 588.735ZM494.458 494.696C494.314 498.59 497.135 502.067 501.094 502.909C502.986 503.302 510.32 501.805 509.315 498.264C505.699 486.044 494.838 485.926 494.458 494.696ZM354.88 455.03C342.09 459.631 351.739 480.328 364.719 472.418C375.262 465.984 367.893 450.326 354.88 455.03ZM352.555 423.206C353.683 424.373 356.459 425.259 358.272 426.684C360.302 426.533 363.836 425.689 364.466 424.261C366.437 419.69 366.128 423.657 366.867 420.923C367.86 417.213 365.753 421.212 368.39 416.93C367.36 415.734 366.655 417.369 367.096 414.055C367.239 412.686 366.912 410.972 366.11 409.738C364.434 407.251 359.484 407.74 358.412 408.177C353.068 410.412 354.711 408.058 351.695 412.502C351.086 413.445 350.482 415.344 350.534 415.621C351.04 419.836 350.143 416.397 352.117 418.201C351.922 419.293 349.582 420.223 352.555 423.206ZM504.79 455.837C497.992 461.049 495.057 462.971 498.108 471.379C503.702 486.731 513.481 477.139 519.668 481.334C521.772 482.756 525.514 485.547 526.848 487.533C529.262 491.073 535.507 485.74 536.67 488.996C539.19 495.907 552.418 499.353 555.34 488.772C557.379 481.257 549.356 471.298 538.59 467.818C534.203 466.406 532.309 467.502 528.271 467.32C523.74 467.131 525.007 462.188 522.185 459.827C517.318 455.788 510.631 451.375 504.79 455.837ZM220.163 474.887C227.16 474.402 226.681 474.259 233.518 471.946C235.793 471.207 239.682 467.871 240.132 465.432C241.095 460.216 244.27 459.793 245.654 457.46C246.549 455.931 246.535 450.687 246.647 448.555C246.903 443.607 245.748 443.377 243.379 439.572C240.648 435.192 242.673 433.342 237.416 431.858C231.311 430.15 231.336 422.424 210.111 429.791C202.542 432.379 200.855 439.634 199.582 446.664C199.106 449.337 200.875 448.503 199.412 450.088C197.516 452.114 197.45 451.601 198.367 454.41C199.273 457.275 200.173 460.633 201.178 463.47C202.529 467.245 212.919 475.11 216.662 473.928C218.008 473.519 217.468 475.081 220.163 474.887Z" fill="#2828BD" fill-opacity="0.23"/>
</svg>
