<svg width="215" height="165" viewBox="0 0 215 165" fill="none" xmlns="http://www.w3.org/2000/svg">
<path fill-rule="evenodd" clip-rule="evenodd" d="M8.85929 53.9036C-0.468303 71.7903 -1.4414 94.026 5.78344 112.861C12.7676 131.068 5.78344 139.924 8.85929 161.954C10.649 174.773 35.1465 123.544 85.6465 149.924C99.8203 157.328 121.146 146.357 140.5 146.357C164.77 146.357 194.496 143.865 207.766 123.544C220.752 103.659 212.63 74.8578 200.54 54.4158C189.561 35.852 181.224 26.9848 162.148 16.9228C146.755 8.80357 117.412 1.37011 100.009 1.38978C82.8206 1.40921 68.5797 12.4208 53.6864 21.0012C37.2229 30.4863 17.6448 37.0564 8.85929 53.9036Z" fill="#F8F8F8" stroke="#2C292D"/>
</svg>
