<svg width="217" height="181" viewBox="0 0 217 181" fill="none" xmlns="http://www.w3.org/2000/svg">
<path fill-rule="evenodd" clip-rule="evenodd" d="M209.348 147.877C192.859 172.084 173.347 161.377 141.104 165.632C97.3466 171.406 70.3484 159.334 63.3467 161.377C27.3449 171.879 -5.06462 192.877 2.14102 170.377C9.34665 147.877 8.84665 103.377 4.84758 93.3767C3.4479 89.8767 21.9749 60.7358 26.3467 38.8767C31.3466 13.8764 53.0531 19.8496 70.3484 9.87707C89.9997 -1.45388 96.6753 1.79603 119.347 2.37691C143.989 3.0083 160.954 -4.53047 177.349 13.8764C193.7 32.2353 201.474 52.6794 205.848 76.8772C210.619 103.267 224.448 125.709 209.348 147.877Z" fill="#F8F8F8" stroke="#2C292D"/>
</svg>
