<svg width="211" height="182" viewBox="0 0 211 182" fill="none" xmlns="http://www.w3.org/2000/svg">
<path fill-rule="evenodd" clip-rule="evenodd" d="M15.4302 64.5376C26.1657 43.9455 40.5298 24.9063 61.1732 14.2744C82.5756 3.25163 108.262 -2.8555 131.009 5.0115C152.828 12.5576 165.199 34.6202 177.14 54.3813C187.107 70.875 190.066 89.3986 193.466 108.37C197.181 129.099 218.496 173.151 206.496 178.151C169.496 168.651 165.066 171.152 143.496 171.152C116.996 171.152 106.496 178.151 89.4961 178.151C62.4407 178.151 61.1732 187.652 30.9957 171.152C14.0974 157.628 5.13795 149.921 1.58816 128.566C-2.082 106.488 5.08218 84.3866 15.4302 64.5376Z" fill="#F8F8F8" stroke="#2C292D"/>
</svg>
