<svg width="63" height="58" viewBox="0 0 63 58" fill="none" xmlns="http://www.w3.org/2000/svg">
<path d="M22.4557 50.0804C21.0676 50.0029 19.6778 49.9007 18.2881 49.7853C17.2099 49.698 16.1334 49.6023 15.0552 49.4968L15.1986 50.1892C15.5415 51.8527 15.8383 53.526 15.9207 55.2224C15.9372 55.2851 15.9438 55.3461 15.9438 55.4104V55.7648C17.2099 55.9725 18.5106 56.0451 19.7421 56.1192C21.1072 56.1984 22.4755 56.2429 23.8439 56.266C23.2157 54.2415 22.7541 52.1791 22.4557 50.0804Z" fill="#386C55"/>
<path d="M21.8587 45.2288C21.6345 43.107 21.3641 41.0001 21.2355 38.8701C20.06 38.8883 18.8846 38.9113 17.7091 38.9311C16.1314 38.9591 14.5504 38.9756 12.9711 38.9492C13.2909 40.6671 13.6569 42.3849 13.9767 44.1028C14.2191 45.4118 14.4828 46.7125 14.7499 48.0132C17.2475 48.2523 19.7485 48.4534 22.251 48.6183C22.1027 47.4824 21.9774 46.3531 21.8587 45.2288Z" fill="#386C55"/>
<path d="M33.9396 45.0985C33.9165 43.1251 33.7978 41.1567 33.6923 39.1866C32.5943 39.18 31.4947 39.152 30.3934 39.1025C28.2766 39.0085 26.1598 38.8569 24.0348 38.8486C23.588 38.8486 23.1412 38.8486 22.6945 38.8486C22.8263 40.8781 23.0736 42.8828 23.288 44.9023C23.4198 46.1635 23.56 47.4345 23.7298 48.7007C24.0743 48.7221 24.4189 48.7435 24.7634 48.7617C27.8562 48.9348 30.9737 48.7683 34.0731 48.516C34.017 47.3686 33.9527 46.2212 33.9396 45.0985Z" fill="#386C55"/>
<path d="M13.6847 49.9966C13.6386 49.7806 13.5941 49.5646 13.5528 49.3503L12.4483 49.2366C11.0602 49.0915 9.67039 48.9085 8.32678 48.5161C8.80488 50.3098 9.48245 52.0128 10.742 53.335C11.7806 54.4263 13.078 55.0611 14.4794 55.4485C14.3986 53.6103 14.0689 51.7935 13.6847 49.9966Z" fill="#386C55"/>
<path d="M33.5408 32.1059C29.8578 32.0218 26.1765 31.9245 22.4935 31.8503C22.4935 33.7001 22.5282 35.5498 22.6139 37.3995C23.4679 37.3995 24.3235 37.3995 25.1774 37.4127C27.3173 37.4523 29.449 37.6419 31.5889 37.6979C32.2648 37.7177 32.9407 37.7259 33.6183 37.7309C33.5293 35.8581 33.4716 33.9836 33.5408 32.1059Z" fill="#386C55"/>
<path d="M37.4413 3.41859C35.9972 2.81025 34.52 2.24643 32.9802 1.92825C31.5591 1.6315 28.5999 0.723127 27.9965 2.60748C28.0773 2.85806 28.0443 3.09216 27.8976 3.30978C27.9718 4.84627 30.3952 5.47604 31.5492 5.87665C32.5813 6.2344 33.5704 6.63006 34.6486 6.84602C35.6856 7.0521 36.7291 7.22355 37.7331 7.54173C37.7463 7.48568 37.7628 7.43293 37.7859 7.38182C38.2706 6.32507 37.9821 4.9287 38.6662 4.00384C38.259 3.79941 37.8535 3.59169 37.4413 3.41859Z" fill="#69AF47"/>
<path d="M34.1341 49.9651C33.1235 50.0409 32.1113 50.1085 31.0974 50.158C28.7053 50.2767 26.3231 50.2569 23.9409 50.158C24.2047 51.9352 24.5921 53.686 25.1015 55.4088L25.146 55.4566C25.3389 55.6989 25.4411 55.9742 25.4543 56.2842C27.7458 56.299 30.039 56.2677 32.319 56.2528L33.3147 56.2463C33.3263 56.0995 33.3774 55.9693 33.4697 55.8539C33.5604 55.7385 33.6758 55.6577 33.8159 55.6132C34.1835 53.7734 34.2017 51.8692 34.1341 49.9651Z" fill="#386C55"/>
<path d="M41.8051 5.35733C41.6501 5.1562 41.4638 4.99134 41.2429 4.8644C40.8819 4.83802 40.5291 4.76878 40.1845 4.65503C39.9372 4.73416 39.7378 4.93694 39.6553 5.31447C39.507 5.96731 39.4872 6.63665 39.3438 7.28455C39.4592 7.334 39.5548 7.40984 39.6306 7.5104C39.7064 7.61097 39.7526 7.72472 39.7691 7.85001C39.7823 7.9308 39.8828 7.91266 40.079 7.85001C40.4928 7.71648 40.8736 7.51865 41.2199 7.25652C40.9726 7.08506 40.75 6.88723 40.5472 6.66632C39.9339 5.97556 40.8852 4.87429 41.51 5.57495C41.6881 5.77443 41.8875 5.94918 42.1068 6.1025C42.0722 5.82718 41.9716 5.57824 41.8051 5.35733Z" fill="#386C55"/>
<path d="M12.4783 43.9609C12.1551 42.2761 11.7974 40.5994 11.4875 38.9129C9.49759 38.8536 7.51597 38.6838 5.5459 38.4019C6.10312 39.9367 6.63068 41.4814 7.0725 43.0559C7.40882 44.2527 7.64786 45.5584 7.92977 46.8641L8.00231 46.8888C9.4267 47.4378 10.9962 47.6291 12.5079 47.7873C12.7519 47.8137 12.9976 47.8368 13.2432 47.8615C12.9811 46.5624 12.7255 45.2617 12.4783 43.9609Z" fill="#386C55"/>
<path d="M10.7227 31.9393C10.7227 31.8668 10.7326 31.7975 10.7507 31.7283C8.95207 31.7349 7.15675 31.7876 5.35977 31.8288C4.60801 31.8635 3.85955 31.842 3.11108 31.7612C3.70623 33.5088 4.36732 35.2365 5.01357 36.9675C5.1471 36.9082 5.28724 36.89 5.43231 36.9164C7.35458 37.2132 9.28839 37.3945 11.2321 37.4588C10.9189 35.6322 10.749 33.7923 10.7227 31.9393Z" fill="#386C55"/>
<path d="M21.0426 31.9392C21.0426 31.8997 21.0459 31.8617 21.0508 31.8222C18.0916 31.7678 15.129 31.7282 12.1665 31.7266C12.1714 31.7595 12.1731 31.7925 12.1731 31.8271C12.2028 33.7329 12.3841 35.6239 12.7155 37.5C15.5313 37.5445 18.3455 37.4554 21.1613 37.4159C21.0821 35.5909 21.0409 33.7659 21.0426 31.9392Z" fill="#386C55"/>
<path d="M48.1241 32.2247C47.1201 32.2412 46.1177 32.2511 45.1154 32.2544C45.117 32.3104 45.1104 32.3632 45.1005 32.4176C44.7873 34.0134 44.5829 35.6291 44.4197 37.2513C46.5612 37.06 48.6978 36.8193 50.8294 36.5407C51.2333 36.4913 51.6405 36.4649 52.0477 36.4599C52.2505 35.0224 52.4648 33.5881 52.7253 32.1604C51.1954 32.1719 49.6622 32.2 48.1241 32.2247Z" fill="#386C55"/>
<path d="M52.2341 48.7715C51.9473 48.7781 51.6604 48.7831 51.3752 48.7847C50.79 51.0812 50.1124 53.3513 49.4282 55.6198C49.7233 55.5687 50.0151 55.5061 50.3036 55.4269C51.1312 55.2011 51.9324 54.8812 52.6051 54.3339C53.1969 53.8509 53.5959 53.0975 53.8976 52.4067C54.4482 51.1472 54.7483 49.8135 55.0466 48.4797C54.1696 48.7897 53.0766 48.7501 52.2341 48.7715Z" fill="#386C55"/>
<path d="M56.7398 37.9585C55.8133 38.0129 54.8867 37.9849 53.9619 37.9585C53.7476 37.9519 53.5349 37.947 53.3239 37.9453C53.0172 40.1924 52.7188 42.4377 52.2984 44.67C52.1286 45.5635 51.9407 46.4504 51.7313 47.3324C51.9127 47.3324 52.0957 47.3324 52.277 47.3209C52.8705 47.311 53.4624 47.2681 54.0526 47.1956C54.2322 47.1758 54.4086 47.1428 54.5818 47.095C54.7318 47.0489 54.8736 46.9615 54.7664 47.0621C54.956 46.8873 55.1769 46.8263 55.4291 46.8791C55.8248 45.364 56.3342 43.8803 56.8733 42.4097C57.4734 40.7727 58.1015 39.1356 58.6373 37.4788C58.0933 37.8382 57.3712 37.9189 56.7398 37.9585Z" fill="#386C55"/>
<path d="M58.5254 32.1866C57.0911 32.2608 55.6486 32.1684 54.2094 32.1553C53.9456 33.5945 53.7247 35.0403 53.5203 36.4878C53.9176 36.5026 54.3083 36.5208 54.699 36.529C55.3898 36.5554 56.0805 36.5455 56.7713 36.4977C57.1389 36.4647 57.5874 36.4433 57.8759 36.2339C58.3061 35.9223 58.7529 36.1712 58.9211 36.5471C59.3761 35.0716 59.6976 33.5681 59.8855 32.0349C59.4354 32.114 58.9821 32.1635 58.5254 32.1866Z" fill="#386C55"/>
<path d="M61.0906 28.0833C60.6175 27.6876 59.9564 27.6283 59.3695 27.526C58.9738 27.4634 58.5831 27.3711 58.2006 27.2507C58.1693 27.254 58.138 27.254 58.1067 27.2507C56.0937 27.2507 54.0857 27.3645 52.0761 27.47C47.7518 27.6975 43.4226 27.6579 39.095 27.7272L38.1537 27.742C37.7646 28.2218 37.3772 28.7048 36.9931 29.1862C36.9931 29.2521 36.9931 29.3197 36.9848 29.3873C36.9865 29.4055 36.9865 29.4252 36.9848 29.4434C36.9749 29.8984 36.8579 30.3237 36.6337 30.7194C37.3788 30.7342 38.124 30.7458 38.8708 30.7507C43.2363 30.7837 47.582 30.7507 51.9442 30.7095C53.9093 30.6897 55.8811 30.7969 57.8429 30.7524C58.8321 30.7309 59.9069 30.6831 60.817 30.2545C61.1319 30.1078 61.4797 29.8588 61.5341 29.4928C61.5968 29.0642 61.4303 28.3833 61.0906 28.0833Z" fill="#386C55"/>
<path d="M36.6468 32.1735L34.9866 32.1372C34.9256 34.0051 34.9866 35.868 35.0757 37.7309C36.083 37.7243 37.0919 37.6996 38.1008 37.6617C39.733 37.599 41.3651 37.5017 42.9955 37.3715C43.1291 35.6553 43.35 33.9507 43.6566 32.2559C41.3189 32.2526 38.9828 32.2147 36.6468 32.1735Z" fill="#386C55"/>
<path d="M26.0955 27.7947C21.7118 27.7106 17.3266 27.5194 12.9446 27.3677C9.76773 27.2573 6.60078 27.2556 3.42722 27.2556C3.30028 27.3826 3.14861 27.4485 2.97056 27.4551C2.28969 27.498 1.25107 28.5432 1.49177 29.2735C1.70279 29.9181 2.33585 30.1539 2.96067 30.2643C4.80545 30.5924 6.79861 30.3237 8.65658 30.2956C14.425 30.2116 20.2166 30.2874 25.99 30.4275C28.6079 30.4902 31.2259 30.5874 33.8455 30.6616C33.7235 30.4539 33.646 30.2297 33.6164 29.989C33.5241 29.1466 34.0318 28.3651 34.7786 28.0074C35.1595 27.826 35.5518 27.7931 35.9574 27.9101C36.0101 27.9266 36.0629 27.9447 36.1173 27.9662L36.2673 27.7766C32.8729 27.826 29.4833 27.8557 26.0955 27.7947Z" fill="#386C55"/>
<path d="M44.2863 38.7185C44.1 40.8501 43.9565 42.9867 43.7142 45.1019C43.6186 45.9377 43.5477 46.7834 43.4768 47.6325C45.1749 47.4808 46.8729 47.3687 48.5677 47.3473H50.2361C50.4867 46.2905 50.7142 45.2338 50.907 44.1589C51.278 42.108 51.5566 40.0423 51.8402 37.9783C49.3145 38.0838 46.8086 38.4745 44.2863 38.7185Z" fill="#386C55"/>
<path d="M48.5594 48.798C47.0592 48.8261 45.5523 48.9678 44.0604 49.0882L43.3581 49.1475C43.1454 51.5265 42.8371 53.879 41.9155 56.0865C43.0547 56.042 44.1922 55.9859 45.3298 55.9183C46.07 55.8722 46.8267 55.8573 47.5785 55.8145C47.6724 55.7535 47.7763 55.7205 47.8884 55.7189C48.5825 53.4174 49.2798 51.116 49.8799 48.7898C49.4381 48.7898 48.9996 48.7914 48.5594 48.798Z" fill="#386C55"/>
<path d="M35.1498 39.1849C35.2635 41.2885 35.3872 43.3938 35.3938 45.5023C35.3938 46.4602 35.4399 47.4279 35.4844 48.4006C36.2313 48.3346 36.9781 48.267 37.7249 48.1978C39.1493 48.0659 40.5803 47.9126 42.0145 47.7708C42.097 46.7009 42.1811 45.6342 42.3212 44.5873C42.5784 42.6816 42.7185 40.756 42.8685 38.8403C40.3 39.0365 37.7249 39.1618 35.1498 39.1849Z" fill="#386C55"/>
<path d="M35.5538 49.8512C35.6395 51.9994 35.6478 54.1491 35.1829 56.2313C36.9403 56.2132 38.6993 56.1868 40.4584 56.1357C40.3479 55.9461 40.2952 55.7417 40.2985 55.5224C40.2935 55.4383 40.3051 55.3559 40.3298 55.2751C40.3562 55.1944 40.3941 55.1202 40.4452 55.0542C40.4979 54.9866 40.5589 54.9306 40.6298 54.8844C40.7024 54.8399 40.7782 54.8069 40.8606 54.7888C41.4871 53.0215 41.7327 51.1536 41.8976 49.2759C39.7775 49.4655 37.6722 49.6732 35.5538 49.8512Z" fill="#386C55"/>
<path d="M61.5521 26.6408C60.5464 26.0192 59.244 26.2319 58.2104 25.6829C58.0768 25.6038 57.9334 25.5774 57.7801 25.6022C57.6268 25.6269 57.4998 25.6978 57.3993 25.8148C53.4047 25.8478 49.4233 26.194 45.4288 26.2121C43.3994 26.2204 41.3699 26.2484 39.3422 26.2797C41.7689 23.2826 44.1429 20.2409 45.8376 16.7541C46.8812 14.6043 47.5373 11.9485 46.4146 9.70471C45.8854 8.6529 45.1188 7.82036 44.1116 7.20543C43.8906 7.07354 43.6615 6.95155 43.429 6.8345C43.5576 6.38278 43.5609 5.92777 43.4406 5.4744C43.129 4.07639 41.6551 3.04602 40.2654 3.17131C39.9324 3.02129 39.6142 2.83335 39.3174 2.68003C38.5525 2.30085 37.7694 1.96124 36.9682 1.66284C35.4333 1.07264 33.8589 0.614331 32.2466 0.289558C31.0893 0.0472133 29.9188 -0.140727 28.7499 0.141184C27.6997 0.395068 26.9299 1.26388 26.5985 2.25469C24.663 2.52011 23.2914 4.20333 22.2775 5.82226C21.0163 7.85828 20.1821 10.1498 19.3908 12.3952C18.1313 15.976 17.0102 19.621 15.5842 23.1391C15.3583 23.698 15.1193 24.2552 14.8407 24.7894C14.7945 24.8784 14.7467 24.9658 14.6956 25.0532C14.6742 25.0927 14.6511 25.1307 14.6264 25.1686C14.6264 25.1719 14.6264 25.1735 14.6264 25.1768L14.6066 25.2048C14.5884 25.2263 14.5703 25.2494 14.5522 25.2691C14.4153 25.3252 14.3082 25.4159 14.229 25.5395C14.1516 25.6648 14.1169 25.8 14.1235 25.9467C11.5237 25.8709 8.9255 25.8148 6.32401 25.8148H2.85536C2.73995 25.8082 2.63279 25.833 2.53058 25.8874C2.43002 25.9434 2.35088 26.0209 2.29483 26.1215C1.14081 26.4858 0.206057 27.681 0.024711 28.8334C-0.156635 29.9874 0.687448 30.9486 1.66177 31.3904C1.57439 31.5668 1.5645 31.7481 1.63374 31.9328C2.93943 35.8218 4.56825 39.5955 5.69919 43.5439C6.71638 47.0949 6.95872 50.9692 9.35908 53.9564C11.4775 56.5991 14.9165 57.2173 18.1181 57.4646C22.1786 57.7795 26.2918 57.7152 30.3639 57.7169C34.7096 57.7169 39.0536 57.6344 43.3977 57.4679C44.8864 57.4102 46.3883 57.3657 47.877 57.2454C48.0088 57.3014 48.1688 57.3641 48.2215 57.3773C48.3435 57.4086 48.4655 57.4036 48.5858 57.3641C48.7045 57.3229 48.8051 57.2536 48.8826 57.1547C50.5032 56.9783 52.1073 56.5414 53.4212 55.5473C54.7104 54.5713 55.3484 52.8815 55.8183 51.3945C56.3112 49.8283 56.5601 48.1946 57.0003 46.6152C58.0323 42.9157 59.7024 39.4356 60.6833 35.7229C61.0394 34.3793 61.2735 33.0143 61.3823 31.6278V31.5965C62.2363 31.209 62.9023 30.5776 62.988 29.5522C63.0127 29.267 62.9996 28.9834 62.9451 28.7032C62.8924 28.4213 62.8034 28.1525 62.6764 27.897C62.5495 27.6398 62.3912 27.4057 62.2 27.1914C62.0087 26.9787 61.7928 26.7957 61.5521 26.6408ZM39.6455 5.31284C39.7329 4.93696 39.9324 4.73418 40.1747 4.65175C40.5226 4.76715 40.8786 4.83804 41.243 4.86442C41.4623 4.99301 41.6485 5.15952 41.8002 5.3623C41.9634 5.58321 42.0607 5.8305 42.0937 6.10252C41.8728 5.9492 41.6733 5.77445 41.4952 5.57497C40.8704 4.87431 39.9192 5.97063 40.5324 6.66634C40.7352 6.88725 40.9594 7.08508 41.2051 7.25654C40.8589 7.51867 40.478 7.7165 40.0642 7.85003C39.8697 7.91103 39.7691 7.92917 39.756 7.85003C39.7395 7.72474 39.6917 7.61099 39.6158 7.51042C39.54 7.40986 39.4444 7.33402 39.329 7.28456C39.4773 6.63502 39.4955 5.96404 39.6455 5.31284ZM28.0014 2.60749C28.6048 0.723139 31.5641 1.63152 32.9868 1.92827C34.5249 2.24645 36.0021 2.81027 37.4463 3.4186C37.8584 3.5917 38.264 3.79943 38.6712 4.00385C37.987 4.92872 38.2739 6.32343 37.7925 7.38183C37.7677 7.43294 37.7513 7.48569 37.7381 7.54175C36.7291 7.22357 35.6872 7.05211 34.6486 6.84604C33.5704 6.63172 32.5812 6.23606 31.5492 5.87831C30.3952 5.481 27.9767 4.84793 27.8976 3.31144C28.0443 3.09218 28.0773 2.85808 27.9965 2.60749H28.0014ZM16.1051 25.5016C16.5091 24.7234 16.8619 23.9222 17.1635 23.0979C17.9994 20.9548 18.7264 18.7687 19.4584 16.5876C19.9332 15.1781 20.4311 13.7817 20.9306 12.382C21.7434 10.1053 22.6369 7.74947 24.058 5.77445C24.6317 4.98147 25.4626 4.0055 26.4748 3.73183C26.7683 5.37549 28.6048 6.33497 30.1133 6.90374C31.1717 7.2994 32.24 7.73298 33.3248 8.03633C34.8431 8.46002 36.4571 8.53585 37.9194 9.15408C38.0711 9.22332 38.2277 9.23816 38.3893 9.19694C38.5508 9.15737 38.6827 9.07165 38.7833 8.93976C39.3999 9.50523 40.4599 9.34861 41.3155 8.90184C41.7689 8.66609 42.1843 8.37429 42.5619 8.02973L42.8405 8.16327C43.8296 8.6595 44.6309 9.35191 45.1337 10.3609C46.1921 12.4826 45.1155 15.005 44.1214 16.9289C42.3525 20.3481 39.8878 23.3287 37.4595 26.3111C35.8092 26.3358 34.1524 26.3605 32.5054 26.3737C26.9397 26.4199 21.3807 26.1792 15.8199 25.9978C15.9271 25.8313 16.0211 25.6599 16.1051 25.5016ZM5.01667 36.9725C4.37207 35.2399 3.71098 33.5121 3.11419 31.7646C3.86265 31.8454 4.61276 31.8685 5.36452 31.8339C7.1615 31.7926 8.95682 31.7399 10.7538 31.7316C10.7357 31.8009 10.7274 31.8718 10.7258 31.9427C10.7538 33.7973 10.9252 35.6372 11.2401 37.4638C9.29478 37.3979 7.36263 37.2165 5.43871 36.9198C5.29363 36.8934 5.1535 36.9115 5.01667 36.9725ZM7.9281 46.8691C7.64783 45.5601 7.40879 44.2528 7.07247 43.0493C6.63065 41.4765 6.1031 39.9318 5.54587 38.3969C7.51595 38.6788 9.49756 38.8486 11.4874 38.908C11.7974 40.5929 12.1551 42.2711 12.4782 43.9544C12.7272 45.2584 12.9827 46.5575 13.2432 47.8566C12.9975 47.8319 12.7519 47.8071 12.5079 47.7808C10.9961 47.6241 9.42667 47.4329 8.00888 46.8823L7.9281 46.8691ZM21.1598 37.4193C18.3439 37.4589 15.5281 37.5512 12.7123 37.5034C12.381 35.6273 12.2013 33.7363 12.1716 31.8306C12.1716 31.7976 12.1683 31.763 12.165 31.73C15.1275 31.73 18.0884 31.7712 21.0476 31.8273C21.0427 31.8652 21.0411 31.9047 21.0394 31.9427C21.0444 33.766 21.0839 35.591 21.1614 37.4144L21.1598 37.4193ZM10.739 53.3349C9.47943 52.0127 8.80185 50.3097 8.32211 48.516C9.66077 48.9117 11.0555 49.0914 12.4453 49.2365L13.5482 49.3502C13.5943 49.5645 13.6388 49.7805 13.6817 49.9965C14.0642 51.7935 14.3939 53.6102 14.4747 55.4467C13.075 55.061 11.7776 54.4263 10.739 53.3349ZM13.9768 44.0994C13.657 42.3816 13.291 40.6638 12.9712 38.9459C14.5505 38.9706 16.1315 38.9558 17.7092 38.9278C18.8847 38.908 20.0601 38.8833 21.2356 38.8668C21.3675 40.9984 21.6329 43.102 21.8588 45.2254C21.9775 46.3481 22.1028 47.4791 22.2561 48.61C19.7535 48.4451 17.2526 48.244 14.7549 48.0066C14.4829 46.7092 14.2192 45.4068 13.9768 44.0994ZM19.7436 56.1227C18.5121 56.0501 17.2114 55.9776 15.9452 55.7682V55.4138C15.9452 55.3511 15.937 55.2885 15.9222 55.2275C15.8397 53.5311 15.543 51.8561 15.2001 50.1927L15.0566 49.5019C16.1348 49.6041 17.2114 49.6997 18.2895 49.7888C19.6793 49.9042 21.0674 50.0047 22.4572 50.0839C22.7556 52.1792 23.2205 54.24 23.8486 56.2628C22.477 56.243 21.107 56.1985 19.7436 56.1194V56.1227ZM33.6182 37.7309C32.9406 37.7309 32.2647 37.7177 31.5888 37.6996C29.4489 37.6435 27.3173 37.4539 25.1774 37.4127C24.3234 37.3979 23.4678 37.3962 22.6138 37.4012C22.5281 35.5515 22.4951 33.7017 22.4935 31.852C26.1764 31.9262 29.8578 32.0234 33.5407 32.1075C33.4715 33.9836 33.5292 35.8581 33.6182 37.7309ZM33.6924 39.185C33.7979 41.155 33.9166 43.1235 33.9397 45.0968C33.9529 46.2212 34.0172 47.367 34.0716 48.5193C30.9722 48.7716 27.8531 48.9381 24.7619 48.765C24.4174 48.7468 24.0745 48.7254 23.7283 48.7056C23.5585 47.4379 23.42 46.1668 23.2864 44.9056C23.0721 42.8861 22.8232 40.8814 22.693 38.8536C23.1397 38.8536 23.5865 38.8536 24.0349 38.8536C26.1583 38.8602 28.2685 39.0119 30.3936 39.1075C31.4932 39.1536 32.5944 39.18 33.6924 39.1866V39.185ZM33.8243 55.6116C33.6858 55.6578 33.5704 55.7369 33.4781 55.8523C33.3874 55.9677 33.3363 56.0996 33.3231 56.2463L32.329 56.2529C30.049 56.2661 27.7542 56.2974 25.4626 56.2826C25.4511 55.9726 25.3472 55.6973 25.1543 55.455L25.1114 55.4072C24.6004 53.6827 24.2113 51.9319 23.9459 50.1531C26.3265 50.2553 28.7087 50.2767 31.1041 50.1531C32.1163 50.1036 33.1286 50.036 34.1392 49.9602C34.2018 51.8693 34.1837 53.7734 33.8193 55.6133L33.8243 55.6116ZM33.6166 29.9858C33.6446 30.2265 33.7221 30.4507 33.8457 30.6584C31.2244 30.5842 28.6065 30.487 25.9885 30.4243C20.2217 30.2924 14.4302 30.21 8.66337 30.2924C6.81035 30.3204 4.81059 30.5908 2.97406 30.2627C2.34924 30.1506 1.71453 29.9165 1.50515 29.2719C1.26446 28.5416 2.29813 27.4964 2.9823 27.4519C3.16035 27.4469 3.31367 27.381 3.43896 27.254C6.61416 27.254 9.78277 27.254 12.9563 27.3645C17.3383 27.5162 21.7236 27.7091 26.1072 27.7915C29.4967 27.8558 32.8846 27.8228 36.2725 27.7734L36.1224 27.9613C36.068 27.9415 36.0169 27.9217 35.9625 27.9069C35.5586 27.7898 35.1646 27.8212 34.7838 28.0025C34.0254 28.3636 33.5177 29.145 33.61 29.9874L33.6166 29.9858ZM34.9915 32.1356L36.6516 32.1718C38.9877 32.2196 41.3238 32.251 43.6631 32.2543C43.3565 33.949 43.1356 35.6537 43.002 37.3699C41.3749 37.4984 39.7428 37.5957 38.1074 37.66C37.0984 37.6996 36.0895 37.7227 35.0822 37.7309C34.9849 35.868 34.9256 34.0051 34.9866 32.1372L34.9915 32.1356ZM51.8484 37.9716C51.5649 40.0356 51.2863 42.1013 50.9153 44.1522C50.7224 45.2221 50.4949 46.2855 50.2427 47.3406H48.576C46.8812 47.3587 45.1831 47.4741 43.4851 47.6258C43.5543 46.7768 43.6269 45.931 43.7225 45.0952C43.9648 42.9817 44.1083 40.8435 44.2945 38.7118C46.8087 38.4744 49.3145 38.0837 51.8435 37.9732L51.8484 37.9716ZM44.4314 37.2495C44.5929 35.6289 44.799 34.0117 45.1106 32.4158C45.1221 32.3631 45.1271 32.3087 45.1271 32.2543C46.1278 32.2543 47.1301 32.2427 48.1341 32.2229C49.6673 32.1982 51.2005 32.1702 52.7354 32.1586C52.4716 33.5863 52.2606 35.0222 52.0578 36.4598C51.6506 36.4631 51.245 36.4895 50.8395 36.5406C48.7029 36.8192 46.5663 37.0599 44.4264 37.2512L44.4314 37.2495ZM42.8735 38.8355C42.7218 40.7544 42.5833 42.6767 42.3278 44.5825C42.186 45.6293 42.1019 46.696 42.0195 47.7659C40.5819 47.9126 39.1493 48.0709 37.7249 48.2028C36.9797 48.272 36.2329 48.3396 35.4844 48.4056C35.4399 47.4346 35.3971 46.4652 35.3938 45.5073C35.3938 43.3938 35.2602 41.2935 35.1498 39.1899C37.7249 39.1619 40.3 39.0366 42.8685 38.8404L42.8735 38.8355ZM40.8556 54.789C40.7731 54.8071 40.6957 54.8401 40.6248 54.8846C40.5539 54.9307 40.4912 54.9868 40.4401 55.0544C40.389 55.1203 40.3511 55.1945 40.3247 55.2753C40.3 55.3561 40.2885 55.4385 40.2917 55.5226C40.2901 55.7402 40.3412 55.943 40.45 56.1309C38.691 56.182 36.9319 56.2084 35.1745 56.2249C35.6394 54.1427 35.6312 51.9979 35.5471 49.8465C37.6639 49.6684 39.7807 49.4607 41.8892 49.2711C41.726 51.1538 41.482 53.0217 40.8556 54.789ZM47.8868 55.7138C47.7747 55.7171 47.6709 55.7484 47.5769 55.8111C46.8218 55.8523 46.0651 55.8671 45.3282 55.9133C44.1923 55.9842 43.0548 56.0402 41.914 56.0815C42.8405 53.8756 43.1455 51.5148 43.3565 49.1442L44.0588 49.0848C45.5557 48.9645 47.0625 48.8194 48.5578 48.7947C48.998 48.7864 49.4382 48.7848 49.88 48.7848C49.2783 51.1159 48.5809 53.4173 47.8868 55.7188V55.7138ZM53.8976 52.4034C53.5959 53.0925 53.197 53.8476 52.6051 54.329C51.9325 54.8763 51.1313 55.1962 50.3037 55.4237C50.0152 55.5028 49.7234 55.5654 49.4283 55.6166C50.1125 53.3464 50.79 51.0763 51.3753 48.7815C51.6605 48.7815 51.9473 48.7749 52.2342 48.7666C53.0766 48.7452 54.1697 48.7848 55.0467 48.4748C54.7483 49.8135 54.4483 51.1472 53.8976 52.4067V52.4034ZM56.8701 42.403C56.3277 43.8785 55.8199 45.3623 55.4242 46.8823C55.172 46.8295 54.9527 46.8905 54.7632 47.0653C54.8703 46.968 54.7269 47.0521 54.5785 47.0966C54.4038 47.1444 54.2274 47.1774 54.0493 47.1972C53.4591 47.2713 52.8673 47.3126 52.2738 47.3224C52.0924 47.329 51.9094 47.3307 51.7281 47.334C51.9342 46.4536 52.1237 45.5667 52.2935 44.6731C52.7156 42.4426 53.0123 40.1956 53.319 37.9485C53.5316 37.9485 53.7443 37.9485 53.957 37.9601C54.8835 37.9897 55.81 38.0178 56.7365 37.9601C57.3663 37.9221 58.09 37.8397 58.6291 37.4787C58.0966 39.1339 57.4702 40.7693 56.8701 42.408V42.403ZM58.9209 36.5439C58.7528 36.168 58.306 35.9207 57.8757 36.2307C57.5872 36.44 57.1388 36.4598 56.7711 36.4944C56.0804 36.5423 55.3896 36.5538 54.6989 36.5274C54.3081 36.5175 53.9141 36.4994 53.5201 36.4862C53.7245 35.0321 53.9421 33.5913 54.2092 32.1537C55.6484 32.1669 57.091 32.2575 58.5253 32.1834C58.9819 32.1619 59.4353 32.1125 59.8853 32.035C59.6974 33.5665 59.3759 35.0717 58.9209 36.5472V36.5439ZM61.529 29.4945C61.473 29.8638 61.1317 30.1094 60.8135 30.2561C59.9035 30.6831 58.8286 30.7309 57.8394 30.754C55.8776 30.7985 53.9059 30.6914 51.9408 30.7112C47.5753 30.754 43.2263 30.7837 38.8657 30.7524C38.1205 30.7524 37.3754 30.7359 36.6286 30.7211C36.8544 30.3254 36.9715 29.9001 36.9814 29.445C36.9814 29.4253 36.9814 29.4071 36.9814 29.389C36.9814 29.3214 36.988 29.2571 36.988 29.1879C37.3721 28.7048 37.7595 28.2234 38.1502 27.742L39.0916 27.7288C43.4191 27.6596 47.7484 27.6992 52.0726 27.4717C54.0823 27.3662 56.0903 27.2524 58.1032 27.2524C58.1345 27.254 58.1659 27.254 58.1972 27.2524C58.5797 27.3727 58.9687 27.4651 59.366 27.5277C59.9546 27.6299 60.6157 27.6827 61.0855 28.0849C61.4301 28.3833 61.5966 29.0642 61.529 29.4994V29.4945Z" fill="#2C292D"/>
</svg>
