<?xml version="1.0" encoding="utf-8"?>
<!-- Generator: Adobe Illustrator 25.2.3, SVG Export Plug-In . SVG Version: 6.00 Build 0)  -->
<svg version="1.1" id="Слой_1" xmlns="http://www.w3.org/2000/svg" xmlns:xlink="http://www.w3.org/1999/xlink" x="0px" y="0px"
	 viewBox="0 0 147.9 141.2" style="enable-background:new 0 0 147.9 141.2;" xml:space="preserve">
<style type="text/css">
	.st0{fill:#FFFFFF;stroke:#000;stroke-miterlimit:10;}
</style>
<path class="st0" d="M96.9,95.1c-9.1,7.8,24.4,18.9,13.3,25.7c-9.2,5.6-10.6-24.7-20.9-17.7c-5.1,3.5,6.8,12.2,1.1,14.7
	c-6.2,2.8-5-12.5-11.7-11.1c-11.2,2.3,10.3,32.5-2.5,34c-12.5,1.4,4.1-32.8-6-33c-6-0.1-2.7,14.3-8.9,13.1c-6.8-1.3,4.2-12.8-1.8-16
	c-18.6-9.9-13.7,31.3-26.2,24.8c-15-7.8,23.6-18.9,16.2-33.5c-5.1-9.9-10.2,15.8-17.9,7.3c-6.4-7,20.3-6.6,9.6-16.8
	c-4.5-4.2-11.2,10.6-13.3,4.7c-2.3-6.4,13-4.9,13.1-11.8C41.2,63.1,7.3,86,6.5,75.3c-0.9-12.8,32.8,5.1,34.6-8.8
	c0.8-6.1-32.9-2.8-31.2-8.6c1.9-6.4,29,7.3,31.3,0.9c2.1-5.8-13-8.4-9.7-13.6c3.6-5.8,10.4,7.1,14.9,2c4-4.7-8.7-9.2-3.8-13.1
	c5.3-4.3,9.4,12.6,15,8.8c11.7-8-19.4-28.5-8.4-33.1C61.4,4.7,53.3,39.4,67.9,37c6-1-3.7-13.9,2.5-14.4c6.8-0.5-1.8,13.5,5.1,14.2
	c6.3,0.6,3.1-13.7,9.1-12.2c6.5,1.7-4.4,15.3,1.9,17.4c5.7,1.9,8.7-15.6,14.2-12.6c6,3.3-9.1,14.4-3.9,18.7
	c4.8,3.9,15.8-23.2,23.3-14.4c7.8,9.1-24.1,12.7-15.6,19.2c4.9,3.7,11.1-5.4,13.3,0.2c2.4,6.2-13.5,4.7-12.1,11.1
	c3.1,13.8,23.3-10.1,25.7,0.1c3.9,16.7-15.7,1.1-21.6,10.9c-5.4,9.1,27.3,7.5,25.7,13.5c-2.7,10.8-25.8-17.4-30-1.8
	c-9,7.9,20.3,13.9,15.9,20.6C114,111.1,105,90,96.9,95.1z"/>
<path class="st0" d="M6.3,56.3c0,0.4-0.1,0.8-0.2,1.1c-0.1,0.4-0.4,0.7-0.6,0.9c-0.3,0.3-0.6,0.6-1,0.7s-0.7,0.2-1.1,0.2
	S2.6,59.1,2.3,59s-0.7-0.4-1-0.6c-0.3-0.3-0.5-0.6-0.6-0.9c-0.1-0.4-0.2-0.8-0.2-1.2c0-0.4,0.1-0.8,0.2-1.1c0.1-0.4,0.4-0.7,0.6-1
	c0.3-0.3,0.6-0.5,0.9-0.6c0.4-0.2,0.7-0.2,1.1-0.2s0.8,0.1,1.1,0.2c0.4,0.1,0.7,0.4,0.9,0.6c0.3,0.3,0.5,0.6,0.6,1
	C6.3,55.5,6.3,55.9,6.3,56.3z"/>
<path class="st0" d="M125.4,51.7c0,0.4-0.1,0.8-0.2,1.1c-0.1,0.4-0.4,0.7-0.6,0.9s-0.6,0.5-0.9,0.6s-0.8,0.3-1.2,0.3
	s-0.8-0.1-1.1-0.2c-0.4-0.1-0.7-0.4-0.9-0.6s-0.5-0.6-0.6-0.9c-0.1-0.4-0.2-0.7-0.2-1.1c0-0.4,0.1-0.8,0.2-1.1
	c0.1-0.4,0.4-0.7,0.6-1c0.3-0.3,0.6-0.5,0.9-0.6c0.4-0.2,0.7-0.2,1.1-0.2s0.8,0.1,1.1,0.2c0.4,0.1,0.7,0.4,0.9,0.6
	c0.3,0.3,0.5,0.6,0.6,1C125.3,50.9,125.4,51.3,125.4,51.7z"/>
<path class="st0" d="M87.5,22.3c0,0,2.3-24.2,9.1-21.5C103.4,3.5,87.5,22.3,87.5,22.3z"/>
<path class="st0" d="M124.2,76.2c0,0,24-4.1,23.2,3.2C146.5,86.6,124.2,76.2,124.2,76.2z"/>
<path class="st0" d="M22.8,97.1c0,0-18.8,15.5-21.7,8.8C-1.7,99.3,22.8,97.1,22.8,97.1z"/>
</svg>
