<svg width="122" height="25" viewBox="0 0 122 25" fill="none" xmlns="http://www.w3.org/2000/svg">
<path d="M8.70127 16.4297C8.095 16.4297 7.4632 16.4297 6.85693 16.4297C6.37191 16.4297 6.10387 16.4552 6.32405 17.1093C6.46764 17.521 5.20723 18.1751 4.84347 17.8592C4.28506 17.3997 4.69668 17.0838 5.10831 16.7934C5.22957 16.72 5.32848 16.6243 5.44974 16.5286C5.30296 16.4775 5.15937 16.4297 5.03811 16.4073C4.35845 16.3339 3.87024 16.5765 3.45861 17.1317C3.26397 17.3997 2.82681 17.4731 2.77895 17.0359C2.70556 16.3818 2.17268 16.117 1.8823 15.6319C1.39729 14.8566 1.41962 14.3971 1.97803 13.6919C2.29393 13.3058 2.80448 13.0633 2.73109 12.4347C2.70556 12.1921 2.94807 12.0932 3.16824 12.1666C4.4797 12.5782 4.93919 12.3357 6.03048 11.9018C7.48873 11.2955 8.89592 10.4467 10.5711 10.4946C10.9828 10.5201 11.2508 10.351 11.5635 10.2297C13.1175 9.649 14.6715 9.2597 16.3212 8.96933C17.655 8.72682 19.0143 8.60557 20.3513 8.36306C21.3692 8.21947 22.0233 7.2973 22.8242 6.66869C23.6028 6.04008 24.3303 5.45614 25.3738 5.5072C26.1013 5.55506 26.6852 5.1913 27.2181 4.85306C28.0924 4.29465 29.0624 3.97875 29.9846 3.54479C30.8111 3.1555 31.8545 3.18103 32.799 3.05977C33.3574 2.98638 33.9158 2.98638 34.4998 3.01191C35.0071 3.01191 35.4698 3.03424 35.7602 2.43116C35.9069 2.1376 36.2962 1.7515 36.7557 2.23652C37.0238 2.50136 37.1929 2.30991 37.362 2.08974C37.6779 1.67811 37.847 1.94615 38.0672 2.21099C38.2842 2.50136 38.0672 3.0853 38.7213 3.0853C39.2542 3.0853 39.7424 3.03425 40.0551 2.50136C40.154 2.30991 40.2976 2.1376 40.5178 2.25885C40.6135 2.30991 40.6391 2.52689 40.6646 2.67048C40.856 3.68838 40.856 3.76177 41.8771 3.64052C42.4834 3.56713 42.895 3.64052 43.1375 4.19893C43.4311 4.82753 43.964 4.8754 44.5447 4.85306C45.1031 4.82753 45.6615 4.82753 46.2455 4.82753C46.705 4.82753 47.0687 4.85306 47.2634 4.22126C47.4102 3.71391 48.1377 3.7873 48.3068 4.34252C48.5015 4.90093 48.7918 4.92326 49.229 4.8754C51.268 4.63289 53.3325 4.73181 55.3715 4.61055C55.5151 4.61055 55.7576 4.63289 55.831 4.56269C56.5106 3.7873 57.1648 3.80964 57.8444 4.53716C58.7443 4.07767 59.7143 4.41591 60.6365 4.41591C62.6755 4.44143 64.7623 3.93089 66.8013 4.4893C67.1395 4.58503 67.5288 4.63289 67.8671 4.53716C69.0317 4.19893 70.1996 4.46377 71.3388 4.39038C72.4556 4.32018 73.6937 4.58503 74.7594 3.93089C75.0275 3.76177 75.2955 3.56713 75.6114 3.80964C75.6593 3.83516 75.7071 3.8575 75.755 3.8575C76.4602 4.00428 76.0709 2.98638 76.7984 2.96405C77.3823 2.96405 77.4302 3.83516 78.0844 3.49693C78.9587 3.03425 79.8808 2.96405 80.8764 2.96405C81.2402 2.96405 81.6294 2.7694 82.0155 2.98638C82.14 3.05977 82.3314 2.98638 82.4782 3.05977C83.1834 3.35014 83.4961 2.18865 84.0067 2.52689C84.6129 2.93852 85.1969 3.03425 85.8765 3.03425C86.4828 3.03425 87.1146 2.98638 87.6954 3.25442C87.9155 3.35015 88.1325 3.30228 88.2314 3.10764C88.4739 2.64815 88.7388 2.69601 89.0547 3.01191C89.1281 3.10764 89.3451 3.27675 89.3706 3.13316C89.5652 1.94615 90.3183 2.91299 90.7523 2.74387C91.0458 2.64814 91.2149 2.79174 91.3107 3.0853C91.5532 3.8575 92.2105 3.95642 92.8902 4.00428C93.4486 4.02981 94.007 4.02981 94.5877 4.05214C94.9036 4.05214 95.2674 4.05214 95.4142 3.76177C95.7045 3.20336 95.8003 2.79174 96.4321 3.56713C96.7958 4.02981 98.4232 3.68838 98.8603 3.27675C99.1762 2.98638 98.6402 2.72154 98.9082 2.4535C99.055 2.30991 99.1762 2.11526 99.3932 2.1376C99.6836 2.16313 99.6613 2.40564 99.6134 2.60028C99.54 2.84279 99.4187 3.05977 99.3454 3.30228C99.1986 3.80964 99.5145 4.05214 99.8782 3.8575C100.341 3.61818 100.536 3.73624 100.922 4.00428C101.748 4.53716 102.766 4.34252 103.615 4.12554C105.485 3.64052 107.377 3.56713 109.247 3.32462C110.485 3.18103 111.745 3.30228 112.983 3.4714C113.251 3.49693 113.468 3.59265 113.711 3.44587C114.416 3.01191 114.927 3.54479 115.555 3.71391C116.091 3.8575 116.844 3.25442 117.304 3.66604C118.153 4.39038 119.537 4.58503 119.754 5.98902C119.828 6.42618 120.217 6.64316 120.507 6.93672C121.235 7.63872 121.672 8.34072 121.356 9.47988C121.162 10.1819 121.356 11.0275 120.677 11.5603C119.537 12.4825 118.373 13.3792 117.23 14.2758C116.771 14.614 116.356 14.2248 115.919 14.1546C114.805 13.9344 113.762 13.5706 113.057 12.6261C112.814 12.2879 112.45 12.3134 112.109 12.1921C111.091 11.8762 110.143 11.4168 109.173 10.9796C108.057 10.4722 106.748 10.3255 105.485 10.1563C103.06 9.84045 100.606 9.91384 98.1807 9.55008C97.4276 9.42882 96.6522 9.50221 95.8736 9.50221C94.4186 9.47988 92.9635 9.45435 91.5308 9.23737C90.9246 9.13845 90.7044 9.52774 90.7044 10.0351C90.7044 10.5201 90.682 11.0051 90.0981 11.1264C89.4663 11.2476 88.86 11.1742 88.4006 10.6669C88.1804 10.4467 88.0846 10.134 87.8645 9.93937C87.5007 9.5756 87.0157 9.23737 86.5083 9.35862C84.4438 9.86598 82.4048 9.28523 80.3435 9.3331C79.0576 9.38096 77.7716 9.47988 76.4825 9.5756C75.4901 9.649 74.5169 9.45435 73.499 9.50221C72.0918 9.5756 70.6336 9.50221 69.2041 9.5756C67.5288 9.67133 65.8536 9.5756 64.2039 9.649C62.8924 9.71919 61.5842 9.8915 60.295 10.083C60.0525 10.1085 59.8611 10.1819 59.593 10.1085C58.6709 9.79259 57.7487 9.91384 56.8999 10.2776C55.6842 10.7881 54.3759 10.3733 53.1378 10.8105C51.6317 11.3434 50.0076 11.1742 48.4536 11.1742C48.0898 11.1742 47.6782 11.1264 47.4102 11.2955C45.8339 12.1666 44.0852 11.8539 42.4355 12.1443C40.6391 12.4347 38.8202 12.5559 37.0461 12.9675C35.1284 13.4015 33.1149 13.5483 31.1748 13.9599C29.6464 14.2981 28.0445 14.2758 26.564 14.831C26.465 14.8566 26.3438 14.8789 26.2704 14.8566C24.8887 14.2503 23.5773 15.1948 22.2435 15.0991C21.1011 15.0257 20.0577 15.4852 18.893 15.4118C17.9007 15.3639 16.854 15.8745 15.8617 16.2127C15.5936 16.3084 15.399 16.5765 15.0607 16.5286C14.8661 16.5031 14.6236 16.5031 14.6715 16.819C14.697 16.9626 14.7927 17.1093 14.9874 17.1093C16.0053 17.0838 15.3511 17.7635 15.2777 18.006C15.1086 18.6601 14.7672 18.1751 14.4768 18.0283C14.1864 17.9071 14.0875 17.9071 13.9918 17.8592C13.5802 17.6646 13.6025 16.9147 12.9962 17.0615C12.5591 17.1572 12.1475 17.3742 11.8316 17.7379C11.6146 17.9549 11.3465 18.1974 11.0785 17.8369C10.8839 17.5944 10.8137 17.3518 11.1519 17.0615C11.6146 16.6498 11.321 16.4552 10.8615 16.4552C10.134 16.4073 9.4288 16.4297 8.70127 16.4297ZM29.9112 18.9026C29.8889 19.1419 29.8634 19.5312 29.573 19.4834C28.8199 19.3845 28.1881 19.7961 27.4861 19.8695C26.4427 19.9429 25.6163 20.6449 24.6462 20.9608C24.3048 21.0565 23.9666 21.4458 24.0623 21.9531C24.1357 22.3903 24.5473 22.4605 24.8632 22.5817C25.3004 22.754 25.7375 22.6073 26.2002 22.5339C27.8978 22.2435 29.5953 22.001 31.2961 21.784C31.6598 21.7361 31.9981 21.784 32.314 21.567C32.8245 21.2033 33.1149 21.4202 33.3574 21.9531C33.4787 22.2212 33.651 22.7285 34.1105 22.5594C34.5955 22.3903 34.6433 22.0265 34.3274 21.5894C34.136 21.3245 34.3274 21.1043 34.621 21.082C36.2707 20.9129 37.9459 20.7916 39.5956 20.597C41.0762 20.4279 42.6525 20.9352 44.0118 20.3545C45.5403 19.7003 47.0943 20.2332 48.6004 19.9173C49.229 19.7737 49.5225 20.814 50.081 20.3545C50.5404 19.9684 51.0255 19.8216 51.5839 19.7259C51.8742 19.6748 52.1901 19.5312 52.4805 19.5791C52.9432 19.6748 53.5495 19.627 53.5271 20.4024C53.5271 20.597 53.6962 20.7916 53.9388 20.7661C54.1557 20.7406 54.3759 20.5236 54.328 20.3545C54.0121 19.2409 54.5706 19.2632 55.3715 19.5057C55.4927 19.5536 55.7097 19.5312 55.8054 19.4355C56.9478 18.6601 58.0646 18.7303 59.1559 19.4834C59.3505 19.6046 59.5675 19.6525 59.7143 19.5057C60.0781 19.2153 60.1993 19.3366 60.4897 19.7004C60.9747 20.3066 61.2427 20.2077 61.5331 19.3845C61.6544 19.0207 61.8267 18.8292 62.1426 18.8516C62.7489 18.925 63.5242 18.1017 64.0093 19.1419C64.0348 19.193 64.3252 19.2153 64.4209 19.1419C65.71 18.2485 66.9704 18.8771 68.2085 19.193C68.7892 19.3366 69.2774 19.627 69.6412 20.2332C70.2953 21.2735 70.3687 21.2033 71.3866 20.5013C72.2131 19.9173 72.9661 19.4578 74.201 19.7961C75.3178 20.0865 76.6038 20.0386 77.8674 19.8216C78.9587 19.627 80.0499 19.41 81.2657 19.7259C82.1879 19.9684 83.2791 20.2332 84.3481 19.8695C85.4873 19.4834 85.5128 19.5312 86.2626 20.597C86.6519 21.1299 86.9934 21.4458 87.7688 21.1299C88.158 20.9608 88.9334 20.7916 89.0547 21.7106C89.1025 22.0744 89.4663 22.1701 89.7822 22.001C90.1715 21.8064 90.2449 21.516 89.9545 21.1299C89.7599 20.8874 89.6386 20.597 89.5397 20.3066C89.4663 20.0641 89.4918 19.7961 89.7599 19.627C90.2194 19.3621 91.7733 19.7737 92.1116 20.2588C92.5009 20.814 93.1327 21.1044 93.7868 21.1044C93.9814 21.1044 94.1984 21.1777 94.3931 21.2033C95.0504 21.299 95.6088 21.1554 95.947 20.5236C96.4321 20.8618 96.9426 21.082 97.5234 20.7406C97.9605 20.5013 98.3977 20.2332 98.8348 19.9684C99.1252 19.7961 99.4411 19.7259 99.6836 19.9429C100.098 20.329 100.536 20.9608 101.043 20.5715C101.384 20.329 100.727 19.7482 100.631 19.2632C100.606 19.1196 100.657 18.9505 100.727 18.8292C100.874 18.5612 101.068 18.7303 101.238 18.8037C101.336 18.8516 101.407 18.925 101.48 18.9728C101.77 19.1419 102.038 19.2153 102.307 18.925C102.549 18.6825 102.307 18.4878 102.259 18.2485C102.038 17.3742 101.359 16.6498 101.48 15.6543C101.506 15.3894 101.285 15.1693 101.043 15.0735C100.536 14.8789 100.242 14.4673 99.8782 14.0812C99.5145 13.6919 99.1252 13.5228 98.5444 13.4749C96.4321 13.2579 94.3707 12.942 92.2328 13.0154C91.5308 13.0377 90.8767 13.2324 90.1715 13.21C88.4963 13.1367 86.8466 13.5706 85.2192 13.8642C84.4694 14.0078 83.812 14.3715 83.0366 13.9854C82.9154 13.9344 82.7463 14.0078 82.5995 14.0556C81.4348 14.3971 80.2701 14.2248 79.0799 14.2503C78.547 14.2758 77.9152 14.3237 77.5993 13.6695C77.5036 13.4526 77.2132 13.3792 77.092 13.5228C76.6038 14.0556 75.9241 13.7174 75.3434 13.9344C74.4212 14.2981 73.5724 14.0556 72.8672 13.3536C72.6726 13.1367 72.4077 13.0633 72.1876 13.1367C71.6802 13.3313 71.2654 14.5183 70.6591 13.2324C70.5857 13.2802 70.4645 13.3313 70.4166 13.4015C70.0273 14.0333 69.5423 13.9344 68.8626 13.8865C67.9883 13.8387 67.0661 13.8865 66.195 13.912C65.3941 13.9344 64.5932 13.6217 63.8146 13.8387C61.2906 14.5407 58.6709 14.4194 56.1213 14.6619C53.6962 14.9044 51.3414 15.533 48.9386 15.8489C48.1632 15.9447 47.4102 15.8234 46.6571 15.9957C45.518 16.2382 44.3756 16.3818 43.2109 16.5031C41.9505 16.6498 40.6646 16.7934 39.401 16.8413C38.6735 16.8668 37.9938 17.2785 37.3397 17.2785C35.7378 17.2529 34.2572 17.5688 32.8501 18.2708C31.8768 18.7814 30.76 18.5612 29.7676 18.925L29.9112 18.9026ZM103.931 21.5894C103.809 21.3245 103.471 21.2511 103.324 21.5415C103.034 22.1222 102.571 22.5594 102.185 23.0444C102.013 23.2614 102.16 23.405 102.402 23.4784C103.13 23.5518 104.224 22.2212 103.931 21.5894ZM3.50648 22.1478C3.57987 22.6328 3.8479 23.188 4.25953 23.0923C4.81794 22.9455 4.57543 22.4126 4.33292 22.001C4.25953 21.8797 4.21167 21.7106 4.23719 21.5894C4.25953 21.299 4.18614 21.1044 3.8479 21.1044C3.43628 21.1044 3.36288 21.3724 3.41075 21.7106C3.45861 21.8574 3.48414 22.001 3.50648 22.1478ZM6.5155 21.2511C6.49316 21.1554 6.25066 21.1044 6.1294 21.1044C5.96028 21.1044 5.88689 21.2735 5.88689 21.4202C5.90923 22.0744 6.20279 22.6551 6.4453 23.2359C6.49316 23.3571 6.63995 23.4784 6.80906 23.405C6.95266 23.3348 7.02605 23.2135 7.00371 22.8242C6.88245 22.4605 6.71015 21.8574 6.5155 21.2511ZM10.3031 18.0538C10.0127 17.6646 9.62344 17.6422 9.18629 17.7635C9.01717 17.8113 8.58002 18.9984 8.67575 19.0941C8.74914 19.1675 8.84805 19.2153 8.91825 19.2409C9.21182 19.2887 10.3286 18.6091 10.3765 18.3442C10.351 18.2485 10.351 18.1272 10.3031 18.0538ZM99.9772 22.5339C99.9995 22.8242 100.121 23.2135 100.51 23.0923C100.874 22.9934 101.311 22.8498 101.285 22.3169C101.263 21.9276 100.922 22.0999 100.727 22.0489C100.363 22.0265 99.9261 21.9787 99.9772 22.5339ZM86.7253 0.612347C86.435 0.685738 86.0935 0.90272 86.119 1.33987C86.119 1.65577 86.336 1.60472 86.5307 1.63025C86.8721 1.65577 87.1369 1.55686 87.0891 1.12289C87.0157 0.90272 86.9423 0.538956 86.7253 0.612347ZM84.3226 0.590011C84.396 0.299638 84.2492 0.0316018 84.0322 0.00607457C83.7386 -0.0417892 83.4738 0.20072 83.4004 0.468756C83.327 0.733601 83.5472 0.902719 83.812 1.00164C84.1056 1.00164 84.2492 0.854856 84.3226 0.590011ZM95.8258 22.1956C95.8258 21.9053 95.7301 21.7361 95.4142 21.7106C95.0249 21.6883 94.8781 21.9053 94.9036 22.269C94.9036 22.6073 95.0504 22.8242 95.4142 22.8721C95.7524 22.7764 95.8258 22.5115 95.8258 22.1956ZM101.142 2.08974C101.142 2.40564 101.384 2.50136 101.675 2.50136C101.869 2.50136 102.16 2.52689 102.16 2.28438C102.185 1.94615 101.965 1.7515 101.627 1.65577C101.336 1.63025 101.142 1.77703 101.142 2.08974ZM7.7791 17.5433C7.80463 17.8369 7.97375 18.0283 8.26412 17.9549C8.67575 17.8592 8.65341 17.5433 8.60555 17.2306C8.58002 17.0104 8.45876 16.8668 8.23859 16.8413C7.90036 16.9402 7.75357 17.2051 7.7791 17.5433ZM29.8634 18.925C29.9846 18.6346 30.3962 18.3187 29.8889 18.0283C29.6687 17.9071 29.3783 17.9326 29.1614 18.0762C28.9667 18.1974 28.9412 18.4399 29.0146 18.6346C29.1614 19.1419 29.5475 18.9505 29.8889 18.925H29.8634ZM99.3454 22.1956C99.3198 21.9053 99.0773 21.6149 98.7391 21.6372C98.4711 21.6372 98.3019 21.8574 98.3019 22.1478C98.3019 22.486 98.5444 22.5339 98.8603 22.5339C99.055 22.5115 99.3932 22.5594 99.3454 22.1956ZM2.46305 22.4605C2.44071 22.269 2.29393 22.0744 2.05142 22.0999C1.61427 22.0999 1.61427 22.4126 1.61427 22.7285C1.61427 22.9455 1.68766 23.1146 1.9557 23.1401C2.24607 22.9934 2.5141 22.8019 2.46305 22.4605ZM54.1813 2.91299C54.328 2.89065 54.4972 2.74387 54.4238 2.57475C54.3025 2.30991 54.1334 1.99401 53.7696 2.1376C53.575 2.21099 53.4282 2.38011 53.4537 2.60028C53.575 2.98638 53.8909 2.98638 54.1813 2.91299ZM8.65341 24.158C8.31198 24.2059 8.31198 24.4484 8.33751 24.7133C8.36304 24.9334 8.48429 25.077 8.7268 24.9558C8.94378 24.8345 9.1129 24.6654 9.1129 24.4006C9.03951 24.158 8.87039 24.1325 8.65341 24.158ZM3.2161 17.7635C3.04699 17.6646 2.80448 17.9805 2.77895 18.2485C2.75661 18.5389 2.97359 18.7558 3.19377 18.8292C3.38522 18.9026 3.532 18.6825 3.65326 18.4399C3.50648 18.2485 3.41075 17.8847 3.2161 17.7635ZM80.7296 1.17076C80.5382 1.07184 80.318 1.17076 80.2446 1.33987C80.1233 1.58238 80.2925 1.65577 80.5126 1.67811C80.7073 1.67811 80.9019 1.72597 80.9976 1.46113C80.9243 1.3654 80.8509 1.21862 80.7296 1.17076ZM80.2925 12.8463C80.2446 12.6261 80.0021 12.4091 79.7117 12.4825C79.4947 12.5304 79.4437 12.7474 79.4437 12.9675C79.4437 13.1845 79.5171 13.3536 79.8074 13.2579C79.9287 13.0633 80.3658 13.159 80.2925 12.8463ZM97.8648 22.8976C97.6701 22.8498 97.4532 22.9232 97.4021 23.1401C97.3542 23.3827 97.5234 23.4784 97.7435 23.5039C97.9382 23.5039 98.1328 23.5262 98.2285 23.3093C98.203 23.0923 98.0594 22.9455 97.8648 22.8976ZM0.0124331 17.6167C-0.0354307 17.7858 0.0602971 17.9326 0.207078 17.9805C0.42406 18.0283 0.570842 17.8847 0.66976 17.6901C0.765487 17.4731 0.644233 17.304 0.522978 17.1572C0.254942 17.1827 0.0858242 17.3518 0.0124331 17.6167ZM100.778 23.8421C100.583 23.8198 100.51 23.9634 100.485 24.1102C100.462 24.3527 100.583 24.4708 100.826 24.4708C100.995 24.4708 101.215 24.5218 101.311 24.2793C101.215 24.0591 101.068 23.8677 100.778 23.8421ZM17.1476 17.1317C17.0487 17.1317 16.953 17.1572 16.854 17.1827C17.0008 17.2785 17.1221 17.3742 17.2689 17.4476C17.3646 17.4954 17.4124 17.4731 17.438 17.3518C17.438 17.1827 17.3167 17.1317 17.1476 17.1317ZM45.518 21.1777C45.4446 21.2033 45.3967 21.3245 45.3967 21.4202C45.3967 21.567 45.4924 21.5894 45.5882 21.4681C45.6615 21.3947 45.7126 21.3245 45.7828 21.2511C45.6871 21.2033 45.5658 21.1554 45.518 21.1777Z" fill="#4E0087"/>
</svg>
