<svg width="167" height="138" viewBox="0 0 167 138" fill="none" xmlns="http://www.w3.org/2000/svg">
<path d="M121.202 5.21318C120.773 4.999 120.345 4.78482 119.917 4.57065C119.464 4.34423 118.846 4.4299 118.589 4.91333C118.362 5.35393 118.454 5.99646 118.937 6.24124C119.366 6.45542 119.794 6.6696 120.229 6.88378C120.681 7.11631 121.293 7.02452 121.55 6.54109C121.783 6.10049 121.685 5.45796 121.202 5.21318ZM118.43 13.8782C118.221 13.3336 118.007 12.7951 117.799 12.2566C117.61 11.7671 117.151 11.4305 116.612 11.5773C116.147 11.7059 115.743 12.2811 115.933 12.7706C116.141 13.3091 116.355 13.8538 116.563 14.3923C116.753 14.8757 117.212 15.2184 117.756 15.0654C118.215 14.943 118.619 14.3678 118.43 13.8782ZM106.252 7.66094C105.86 7.26318 105.285 7.31825 104.887 7.66094C104.135 8.30347 103.382 8.94601 102.629 9.59467C102.232 9.93123 102.28 10.6105 102.629 10.9593C103.021 11.3571 103.596 11.302 103.994 10.9593C104.747 10.3168 105.499 9.67422 106.252 9.02556C106.65 8.689 106.601 8.00362 106.252 7.66094ZM83.3593 131.315C82.7168 130.771 82.0681 130.238 81.4256 129.7C81.0217 129.363 80.4465 129.302 80.0549 129.7C79.7122 130.043 79.651 130.734 80.0549 131.071C80.7035 131.603 81.346 132.148 81.9947 132.68C82.3925 133.017 82.9677 133.078 83.3593 132.68C83.702 132.337 83.7632 131.646 83.3593 131.315ZM62.07 127.546C61.715 128.507 61.1337 129.333 60.3932 130.03C59.4753 130.881 60.8461 132.252 61.7579 131.401C62.7492 130.471 63.4652 129.339 63.9364 128.066C64.3647 126.891 62.4983 126.383 62.07 127.546ZM124.751 27.8182C124.212 27.5 123.674 27.1757 123.135 26.8513C122.689 26.5821 122.077 26.7534 121.814 27.2002C121.544 27.6591 121.71 28.2588 122.162 28.5281C122.695 28.8463 123.233 29.1706 123.772 29.4949C124.218 29.7642 124.837 29.5928 125.094 29.1461C125.363 28.6872 125.198 28.0936 124.751 27.8182ZM102.525 95.0275C102.201 94.593 101.877 94.1647 101.558 93.7363C101.252 93.3324 100.708 93.0815 100.23 93.3875C99.8327 93.6445 99.5635 94.2809 99.8878 94.7093C100.206 95.1438 100.53 95.5721 100.855 96.0066C101.155 96.4044 101.699 96.6553 102.176 96.3493C102.574 96.0923 102.85 95.462 102.525 95.0275ZM133.771 25.603L130.215 27.194C129.077 27.7019 130.063 29.3725 131.188 28.8646L134.744 27.2736C135.882 26.7657 134.897 25.0951 133.771 25.603ZM94.4293 94.7032C92.7036 93.8526 90.978 93.002 89.2523 92.1514C88.1447 91.6006 87.1595 93.2712 88.2793 93.822C90.005 94.6726 91.7245 95.5293 93.4502 96.3799C94.5639 96.9306 95.543 95.26 94.4293 94.7032ZM75.7529 118.244C74.5535 117.473 73.1644 117.253 71.7814 117.535C70.5576 117.773 71.0777 119.64 72.2955 119.401C73.1767 119.224 74.0211 119.432 74.7738 119.915C75.8264 120.588 76.7932 118.911 75.7529 118.244ZM82.0253 8.08318C80.7769 8.08318 80.7769 10.023 82.0253 10.023C83.2675 10.023 83.2737 8.08318 82.0253 8.08318ZM37.0539 123.366H36.8152C36.3073 123.366 35.8239 123.813 35.8484 124.333C35.8728 124.86 36.2706 125.306 36.8152 125.306H37.0539C37.5618 125.306 38.0452 124.86 38.0207 124.333C37.9963 123.813 37.5985 123.366 37.0539 123.366ZM165.139 11.6814C164.992 11.8099 164.79 11.8894 164.539 11.8956C158.597 11.9445 152.655 11.9935 146.707 12.0485C146.677 12.0485 146.646 12.0424 146.609 12.0363C146.615 12.0975 146.622 12.1587 146.615 12.2138C146.628 12.2566 146.634 12.2994 146.64 12.3484C149.669 12.9175 152.704 13.4254 155.758 13.8538C158.291 14.2087 165.267 15.5917 165.139 11.6814ZM146.144 10.2984C146.285 10.1821 146.475 10.1148 146.707 10.1087C152.655 10.0597 158.597 10.0047 164.539 9.95571C164.606 9.95571 164.668 9.96183 164.723 9.96795C163.254 6.4799 158.408 6.51049 155.268 6.8593C151.952 7.22034 148.733 8.15661 145.685 9.49064C145.863 9.74153 146.016 10.0169 146.144 10.2984ZM144.767 107.529C141.934 115.277 139.095 123.024 136.261 130.771C137.277 130.073 138.207 129.204 139.003 128.17C143.293 122.589 143.966 114.444 144.767 107.529ZM133.722 132.087C136.935 123.324 140.141 114.561 143.348 105.792H141.292C141.292 105.908 141.273 106.024 141.224 106.153C137.767 115.02 134.309 123.887 130.852 132.754C131.831 132.656 132.792 132.435 133.722 132.087ZM139.297 105.792H137.534C133.936 114.659 130.332 123.525 126.734 132.386C127.431 132.588 128.153 132.705 128.869 132.766C128.863 132.643 128.881 132.515 128.937 132.374C132.388 123.513 135.845 114.652 139.297 105.792ZM130.558 105.792H128.196C128.202 105.902 128.196 106.012 128.159 106.128C126.868 110.699 125.289 115.16 123.441 119.523C124.029 119.658 124.61 119.823 125.185 120.037C125.32 120.086 125.448 120.141 125.571 120.197C125.583 120.148 125.589 120.099 125.608 120.044C127.26 115.295 128.912 110.546 130.558 105.792ZM125.296 122.191C124.151 121.537 122.627 121.298 121.342 121.2C116.618 120.833 111.992 122.712 107.696 124.468H125.797C125.963 124.468 126.103 124.498 126.22 124.56C126.428 123.642 126.275 122.742 125.296 122.191ZM126.079 128.892C125.858 129.137 125.626 129.376 125.381 129.596C124.733 130.19 124.041 130.544 123.313 130.74C123.833 131.114 124.378 131.432 124.934 131.701C125.32 130.765 125.699 129.828 126.079 128.892ZM122.787 132.705C122.003 132.215 121.251 131.634 120.565 130.967C120.547 130.948 120.535 130.93 120.522 130.912C120.137 130.875 119.751 130.82 119.366 130.765C119.519 131.052 119.507 131.426 119.366 131.732L118.907 132.705H122.787ZM118.001 128.556C119.146 128.782 120.431 129.125 121.593 129.076C123.515 128.996 124.414 128.017 125.357 126.512C125.375 126.481 125.4 126.438 125.424 126.402H110.168C110.682 126.567 111.196 126.75 111.723 126.922C113.779 127.589 115.878 128.14 118.001 128.556ZM117.903 130.489C117.108 130.33 116.331 130.147 115.553 129.939C115.547 129.957 115.547 129.969 115.541 129.988C115.131 130.893 114.715 131.799 114.305 132.705H116.93C116.918 132.515 116.955 132.319 117.04 132.142C117.261 131.677 117.475 131.211 117.695 130.753C117.744 130.642 117.818 130.557 117.903 130.489ZM113.693 129.406C113.002 129.204 112.322 128.99 111.637 128.788C111.619 128.862 111.588 128.935 111.545 129.015C110.884 130.245 110.217 131.475 109.55 132.705H112.218C112.237 132.643 112.255 132.57 112.286 132.503C112.751 131.468 113.222 130.44 113.693 129.406ZM107.464 132.497C108.235 131.077 109 129.663 109.764 128.244C109.452 128.158 109.14 128.072 108.822 127.993C108.565 127.925 108.308 127.876 108.057 127.846C108.106 128.005 108.118 128.188 108.057 128.397C107.574 130.03 106.766 131.487 105.732 132.705H107.378C107.402 132.637 107.427 132.57 107.464 132.497ZM94.2641 126.402C96.0142 127.081 97.8623 127.411 99.7777 127.283C101.087 127.197 102.287 126.781 103.498 126.402H94.2641ZM105.897 124.468C102.727 122.167 98.4375 123.85 94.5945 124.358C94.5762 124.394 94.5578 124.431 94.5395 124.468H105.897ZM106.191 127.883C106.197 127.87 106.203 127.858 106.209 127.846C104.9 127.999 103.627 128.427 102.323 128.77C102.323 128.929 102.28 129.106 102.158 129.278C98.7312 134.265 91.1126 131.793 90.9229 125.808C90.9045 125.129 91.0086 124.456 91.2105 123.813C91.0269 123.311 91.2105 122.699 91.7429 122.559C93.7195 118.924 98.8169 116.813 101.834 120.613C102.06 120.894 102.103 121.212 102.03 121.494C103.517 121.482 104.973 121.733 106.368 122.51C106.258 118.379 101.607 115.846 97.899 115.766C94.1111 115.687 90.8617 117.945 89.1177 121.206C89.0687 121.304 89.0014 121.384 88.9341 121.451C88.9341 121.457 88.9341 121.457 88.928 121.463C86.5781 126.61 89.081 132.76 94.5762 134.43C99.6369 135.978 104.728 132.851 106.191 127.883ZM92.4895 112.988C91.541 114.206 90.7271 115.509 90.0662 116.874C90.9963 116.029 92.0427 115.338 93.1748 114.83C93.1748 114.726 93.1932 114.616 93.2421 114.493C93.6521 113.459 94.0621 112.419 94.4783 111.379C93.7684 111.85 93.1014 112.382 92.4895 112.988ZM92.006 135.452C88.3833 133.543 86.3272 129.902 86.1681 126.016C86.058 125.869 85.9907 125.673 86.0029 125.429C86.1865 121.096 87.4777 117.063 89.7724 113.502C89.7724 113.294 89.8336 113.074 89.9927 112.872C90.3416 112.431 90.721 112.021 91.1126 111.629C91.2656 111.44 91.4124 111.244 91.5715 111.06C91.7245 110.877 91.8959 110.779 92.0672 110.748C92.7465 110.179 93.4624 109.671 94.2212 109.231H53.307C53.203 109.396 53.0439 109.543 52.8297 109.634C46.1412 112.437 44.3115 120.539 48.6073 126.2C49.3661 127.197 47.6833 128.158 46.9367 127.179C42.4206 121.231 44.0239 113.282 49.6904 109.231H44.2992C44.238 109.543 44.0422 109.836 43.6812 109.983C39.9851 111.47 37.5434 115.044 37.3905 119.009C37.3415 120.252 35.4078 120.252 35.4567 119.009C35.6158 114.928 37.7209 111.36 41.0254 109.231H35.3466C35.2854 109.42 35.163 109.604 34.9549 109.745C29.5026 113.398 25.4638 119.554 27.8442 126.267C28.2664 127.442 26.3939 127.944 25.9778 126.781C23.5361 119.903 27.0915 113.435 32.3909 109.231H28.5846C23.7993 112.015 20.6294 118.514 20.4765 123.929C20.3173 129.657 25.3475 133.873 30.3899 135.464C30.4205 135.464 30.4511 135.452 30.4817 135.452H92.006ZM81.2359 19.3673C80.0365 17.6967 79.6571 15.6161 80.2935 13.6151C80.6729 12.4279 82.5393 12.9359 82.1538 14.1291C81.6704 15.659 81.9335 17.2684 82.9983 18.4984C83.2308 18.7738 83.2798 19.0858 83.2125 19.3673H89.7969C87.7225 15.9344 88.0468 11.4978 90.7699 8.37079C91.5899 7.4284 92.9484 8.79915 92.1345 9.73541C89.748 12.483 89.7847 16.6442 92.1712 19.3673H128.875C126.403 16.9747 125.271 13.2357 125.736 9.83332C126.164 6.74915 127.951 3.90363 130.454 2.07393H67.1797C59.8915 5.55587 59.5549 15.8426 66.8492 19.4224C66.9471 19.3918 67.0511 19.3673 67.1674 19.3673H72.8646C70.2271 16.5647 69.297 12.4341 70.8268 8.74407C71.2919 7.60587 73.1644 8.10765 72.6871 9.2581C71.2185 12.8135 72.2832 16.9196 75.4959 19.1226C75.5999 19.196 75.6734 19.2817 75.7407 19.3673H81.2359ZM127.707 9.69258C127.04 13.303 128.606 17.6294 132.057 19.2694C135.038 20.6952 138.789 19.8079 140.747 17.2011C140.71 17.0052 140.729 16.7911 140.845 16.5708C141.181 15.9344 141.616 15.3653 142.13 14.8696C141.194 15.1021 140.233 15.2184 139.272 15.2123C139.229 15.2796 139.18 15.3469 139.119 15.4081C135.178 19.3061 128.539 15.8915 129.132 10.4636C129.818 4.22796 137.143 2.8205 141.414 6.49825C141.726 6.76751 141.781 7.09184 141.689 7.37945C142.479 7.58139 143.256 7.8384 144.015 8.17497C144.082 8.10765 144.162 8.05258 144.266 8.00362C144.351 7.96691 144.443 7.93019 144.529 7.89348C144.449 7.79557 144.388 7.69154 144.339 7.55079C143.121 3.80572 139.18 1.3702 135.264 2.03722C131.507 2.67975 128.398 5.97811 127.707 9.69258ZM144.559 11.7548C144.498 11.2469 144.302 10.7818 143.947 10.3902C143.898 10.329 143.856 10.2739 143.819 10.2127C143.813 10.2066 143.813 10.2066 143.807 10.2066C140.325 8.45034 136.451 8.45646 133.024 10.1209C135.747 10.3902 138.477 10.5738 141.218 10.6656C142.46 10.7084 142.46 12.6482 141.218 12.6054C139.064 12.532 136.916 12.3973 134.768 12.2138C137.84 13.7742 141.555 13.6212 144.559 11.7548ZM123.668 21.3072H121.055C120.987 21.4296 120.92 21.5581 120.859 21.6866C121.795 21.5581 122.731 21.4296 123.668 21.3072ZM118.644 21.9926C118.65 21.8396 118.687 21.6866 118.754 21.5458L118.882 21.3072H116.459C116.465 21.4112 116.459 21.5152 116.422 21.6193C116.343 21.8579 116.257 22.1027 116.172 22.3475C116.998 22.2312 117.818 22.1149 118.644 21.9926ZM114.207 22.1272C114.305 21.8518 114.397 21.5764 114.489 21.3072H112.023C111.857 21.913 111.625 22.5066 111.337 23.0634C112.292 22.9227 113.253 22.782 114.207 22.6412C114.158 22.4699 114.152 22.2924 114.207 22.1272ZM109.036 23.4245C109.03 23.247 109.067 23.0757 109.171 22.9227C109.526 22.4087 109.795 21.8824 109.997 21.3072H106.901C106.913 21.4908 106.876 21.6866 106.797 21.8763C106.503 22.5555 106.215 23.2348 105.928 23.914C106.962 23.7488 108.002 23.5836 109.036 23.4245ZM103.725 24.2751C103.743 24.1833 103.767 24.0976 103.804 24.012C104.184 23.1063 104.569 22.2067 104.949 21.3072H103.205C103.186 21.3439 103.18 21.3867 103.156 21.4235C102.617 22.4576 102.146 23.5163 101.736 24.5994C102.397 24.4893 103.064 24.3852 103.725 24.2751ZM99.5574 24.9666C99.5635 24.9482 99.5635 24.9299 99.5696 24.9115C99.9918 23.6815 100.494 22.476 101.057 21.3072H99.1535C98.5844 22.6412 98.0214 23.9814 97.4523 25.3215C98.156 25.1991 98.8536 25.089 99.5574 24.9666ZM88.316 26.9493C88.9769 25.0706 89.6378 23.1858 90.3048 21.3072H88.6159C88.6342 21.4724 88.6159 21.6499 88.5363 21.8334C87.7653 23.5836 87.1839 25.3949 86.7433 27.2491C87.2635 27.1451 87.7898 27.0533 88.316 26.9493ZM93.6889 25.9763C94.1907 25.8845 94.6986 25.8049 95.2003 25.7131C95.8245 24.2445 96.4487 22.7758 97.0729 21.3072H95.8184C95.8062 21.3684 95.7817 21.4357 95.7511 21.503C95.0657 22.9961 94.3742 24.4831 93.6889 25.9763ZM93.7195 21.3072H92.3487C91.7368 23.0512 91.1187 24.7952 90.5068 26.5454C90.7944 26.4903 91.0881 26.4413 91.3757 26.3863C91.3757 26.3863 91.3757 26.3802 91.3819 26.3802C92.159 24.6851 92.9423 22.9961 93.7195 21.3072ZM84.7362 27.2919C85.1951 25.2236 85.856 23.2409 86.6822 21.3072H84.571C84.1854 23.4979 83.7999 25.6948 83.4144 27.8855C83.855 27.7999 84.2895 27.7203 84.724 27.6346C84.7117 27.5245 84.7117 27.4143 84.7362 27.2919ZM81.3889 28.2833L82.6189 21.3072H80.4771V28.4607C80.7831 28.3996 81.089 28.3445 81.3889 28.2833ZM81.9702 107.23C82.0008 106.752 82.0375 106.275 82.0681 105.792H80.4771V107.291H81.9763C81.9763 107.272 81.9702 107.248 81.9702 107.23ZM84.0019 105.792C83.9713 106.275 83.9407 106.752 83.904 107.23C83.904 107.248 83.8978 107.272 83.8917 107.291H85.1034C85.2441 106.795 85.3726 106.293 85.5072 105.792H84.0019ZM87.5144 105.792C87.3798 106.293 87.2451 106.795 87.1105 107.291H89.5216C89.5583 106.777 89.6623 106.275 89.8336 105.792H87.5144ZM91.9448 105.792C91.6756 106.263 91.5165 106.758 91.4614 107.291H93.6154C93.6215 106.783 93.695 106.281 93.8296 105.792H91.9448ZM118.944 119.23C119.788 119.168 120.639 119.168 121.483 119.236C123.362 114.86 124.941 110.375 126.244 105.792H124.004L118.944 119.23ZM114.709 116.078C115.945 112.743 117.053 109.371 118.02 105.944C118.032 105.889 118.056 105.84 118.081 105.792H116.606C116.612 105.908 116.6 106.024 116.551 106.153C115.615 108.778 114.672 111.403 113.736 114.028C113.724 114.059 113.705 114.089 113.693 114.12C114.079 114.75 114.421 115.405 114.709 116.078ZM108.265 121.977C108.271 122.038 108.284 122.094 108.284 122.149C110.077 121.433 111.955 120.717 113.883 120.172C113.705 119.04 113.381 117.938 112.934 116.892C111.625 118.483 110.315 120.074 109.006 121.665C108.785 121.934 108.516 122.014 108.265 121.977ZM112.322 112.241C113.093 110.093 113.864 107.946 114.629 105.792H112.341C111.882 107.162 111.423 108.527 110.97 109.898C110.878 110.161 110.713 110.338 110.517 110.442C111.172 110.987 111.772 111.593 112.322 112.241ZM107.298 118.979C107.5 119.328 107.672 119.701 107.812 120.08C109.202 118.397 110.584 116.721 111.967 115.038C111.668 114.561 111.343 114.102 110.988 113.667C109.758 115.436 108.528 117.204 107.298 118.979ZM109.097 109.402C109.097 109.39 109.097 109.39 109.104 109.377C109.501 108.184 109.899 106.991 110.303 105.792H108.192C107.965 106.587 107.733 107.376 107.506 108.166C107.47 108.276 107.427 108.362 107.372 108.447C107.972 108.723 108.547 109.041 109.097 109.402ZM105.004 116.372C105.383 116.678 105.738 117.008 106.075 117.357C107.262 115.65 108.443 113.943 109.63 112.235C109.128 111.782 108.59 111.372 108.014 111.005C107.023 112.774 106.038 114.542 105.04 116.311C105.028 116.335 105.016 116.347 105.004 116.372ZM105.157 107.646C105.31 107.689 105.463 107.737 105.616 107.786C105.622 107.744 105.628 107.695 105.64 107.652C105.817 107.034 105.995 106.41 106.179 105.792H103.792C103.602 106.293 103.406 106.789 103.217 107.285C103.865 107.358 104.514 107.474 105.157 107.646ZM102.397 114.824C102.733 114.964 103.064 115.13 103.388 115.307C104.361 113.569 105.334 111.831 106.307 110.093C105.817 109.885 105.316 109.702 104.796 109.561C104.838 109.818 104.789 110.106 104.587 110.363C103.553 111.691 102.837 113.202 102.397 114.824ZM99.1657 113.924C99.6308 113.985 100.096 114.077 100.561 114.2C101.075 112.376 101.913 110.73 103.052 109.218C102.446 109.151 101.846 109.127 101.246 109.151C101.277 109.329 101.252 109.524 101.161 109.732C100.494 111.128 99.8266 112.529 99.1657 113.924ZM100.071 107.291C100.439 107.248 100.806 107.223 101.179 107.211C101.363 106.74 101.546 106.269 101.73 105.792H99.0739C98.8659 106.293 98.6578 106.795 98.4497 107.291H100.071ZM96.3753 107.291C96.5772 106.795 96.7853 106.293 96.9933 105.792H95.8918C95.6777 106.269 95.5736 106.764 95.5553 107.291H96.3753ZM95.4757 114.077C96.0081 113.967 96.5466 113.894 97.1035 113.863C97.1157 113.777 97.1402 113.692 97.183 113.606C97.85 112.199 98.5171 110.791 99.1902 109.384C98.413 109.543 97.6542 109.769 96.9199 110.069C96.9505 110.216 96.9383 110.381 96.8648 110.565C96.4059 111.733 95.9408 112.908 95.4757 114.077ZM116.973 118.991C118.631 114.591 120.29 110.191 121.948 105.792H119.831C119.923 105.981 119.959 106.201 119.886 106.459C118.699 110.644 117.322 114.763 115.743 118.82C115.713 118.893 115.676 118.96 115.633 119.022C115.682 119.242 115.719 119.462 115.755 119.683C115.755 119.689 115.755 119.695 115.755 119.701C116.141 119.615 116.533 119.542 116.924 119.474C116.9 119.328 116.906 119.168 116.973 118.991ZM132.602 105.792C130.895 110.718 129.181 115.638 127.474 120.558C127.382 120.821 127.211 120.998 127.015 121.102C127.774 121.788 128.159 122.62 128.257 123.519C130.656 117.608 133.061 111.703 135.46 105.792H132.602ZM144.718 103.858V24.679C144.388 22.5066 143.085 20.6646 141.2 19.557C139.462 21.1236 137.13 21.9436 134.787 21.8579C134.756 21.864 134.732 21.8763 134.695 21.8824C117.34 23.859 100.071 26.5576 82.931 29.9539C82.6923 30.2231 82.3007 30.266 81.9519 30.1436C81.4623 30.2415 80.9666 30.3333 80.4771 30.4312V99.0479C80.5872 99.152 80.679 99.2805 80.7341 99.4457C81.5725 101.777 83.6898 103.307 86.0763 103.54C86.419 103.546 86.7678 103.552 87.1105 103.558C87.4226 103.564 87.6551 103.68 87.8142 103.858H103.003C103.082 103.846 103.168 103.846 103.253 103.858H144.718ZM17.6248 126.261C17.478 126.187 17.3372 126.059 17.2332 125.869C17.0496 125.52 16.8599 125.172 16.6763 124.823C16.5111 124.884 16.3275 124.896 16.1133 124.841C13.5003 124.137 10.8751 123.936 8.18259 124.193C6.94036 124.309 6.9526 122.375 8.18259 122.259C10.6671 122.02 13.1148 122.173 15.5381 122.705C15.4402 122.528 15.3423 122.351 15.2505 122.173C15.2077 122.087 15.1771 122.008 15.1526 121.922C12.9986 121.133 10.7466 120.545 8.47021 120.619C6.0714 120.692 0.533356 122.608 2.5344 126.114C3.84395 128.403 7.39931 128.384 9.63901 128.176C12.3683 127.919 15.018 127.105 17.6248 126.261ZM55.0694 10.843C54.9592 10.6962 54.898 10.5003 54.9103 10.2617C54.9225 9.92511 54.8674 9.60079 54.7573 9.31317C54.6165 9.17855 54.4819 9.05004 54.3473 8.92153C54.1698 8.75631 54.0842 8.57273 54.0597 8.38303C53.9985 8.34019 53.9312 8.29124 53.8577 8.2484C52.0954 7.75885 50.333 7.25706 48.5094 7.04288C46.9979 6.86542 45.4375 6.88378 43.9627 7.31825C41.7719 7.96079 38.6388 10.3045 41.2824 12.7767C43.8831 15.2 48.4788 13.2847 51.2325 12.1893C52.5115 11.6753 53.7782 11.1918 55.0694 10.843ZM161.278 16.4423C156.425 16.2709 151.444 15.2612 146.652 14.325V24.6667C146.671 24.8197 146.689 24.9727 146.701 25.1257C146.713 25.2848 146.695 25.4255 146.652 25.5418V105.553C146.805 105.706 146.891 105.932 146.854 106.232C145.826 114.567 145.33 125.343 138.673 131.395C135.288 134.479 130.681 135.409 126.513 134.32C126.36 134.51 126.122 134.644 125.797 134.644H104.539C104.275 134.644 104.073 134.553 103.92 134.424C102.562 135.464 100.983 136.199 99.3003 136.535C99.1535 136.67 98.9638 136.768 98.719 136.792C97.5502 136.921 96.3753 137.049 95.2065 137.178C95.0535 137.306 94.8515 137.392 94.5945 137.392H93.2054C93.132 137.398 93.0647 137.398 92.9974 137.392H30.8611C30.6775 137.484 30.4633 137.508 30.2124 137.435C25.3964 136.034 20.7824 132.588 19.1547 127.785C19.1057 127.809 19.0568 127.834 19.0017 127.852C14.8283 129.198 10.0857 130.857 5.64305 130C3.05454 129.504 0.282459 127.834 0.251862 124.884C0.209028 121.549 3.63589 119.377 6.56096 118.863C10.765 118.122 14.9139 119.67 18.7202 121.286C18.7324 121.292 18.7447 121.304 18.7569 121.31C19.6748 115.717 23.322 109.775 28.04 107.303C28.3582 107.138 28.6642 107.162 28.9151 107.291H78.5434V21.3072H67.8956C67.6998 21.5887 67.3632 21.7417 66.9288 21.5642C62.6758 19.7896 60.2341 16.0935 59.7324 12.1954C59.61 12.2505 59.4631 12.2872 59.2856 12.275C54.384 12.0057 50.3513 15.4387 45.5231 15.7569C42.5369 15.9588 38.1248 14.5147 38.2104 10.843C38.3022 7.27542 42.4084 5.41512 45.4313 5.07856C48.5461 4.73587 51.5324 5.61094 54.5248 6.43706C54.5492 6.44318 54.5737 6.4493 54.5982 6.46154C56.1158 6.87766 57.6334 7.28154 59.1694 7.50183C60.02 7.62422 60.0322 8.55437 59.5549 9.05616C59.6038 9.0684 59.6528 9.08064 59.6956 9.09288C59.714 9.099 59.7324 9.10512 59.7507 9.11123C60.2097 5.74557 62.1373 2.56349 65.6314 0.684832C65.7661 0.372743 66.0476 0.134087 66.482 0.134087H131.966C132.431 0.134087 132.724 0.40334 132.841 0.739907C133.704 0.391102 134.621 0.152445 135.564 0.0545348C140.282 -0.447256 144.749 2.56349 146.205 7.03676C146.224 7.08572 146.23 7.12855 146.236 7.17139C150.134 5.62318 154.381 4.59512 158.554 4.76035C162.055 4.90109 166.112 6.56557 166.883 10.3841C167.623 14.0741 164.747 16.5647 161.278 16.4423ZM4.76797 122.748H4.55379C3.31156 122.748 3.31156 124.682 4.55379 124.682H4.76797C6.01021 124.682 6.01633 122.748 4.76797 122.748ZM119.372 121.445C117.769 121.751 116.159 122.057 114.556 122.363C113.332 122.595 113.846 124.462 115.07 124.229C116.673 123.923 118.283 123.617 119.892 123.311C121.11 123.079 120.596 121.212 119.372 121.445ZM124.084 122.063H123.741C123.233 122.063 122.75 122.504 122.774 123.03C122.799 123.556 123.197 123.997 123.741 123.997H124.084C124.586 123.997 125.069 123.55 125.051 123.03C125.026 122.504 124.622 122.063 124.084 122.063ZM138.14 94.5808H115.168C113.92 94.5808 113.92 96.5206 115.168 96.5206H138.14C139.382 96.5206 139.382 94.5808 138.14 94.5808ZM138.483 80.1574H84.6566C83.4083 80.1574 83.4083 82.0972 84.6566 82.0972H138.483C139.725 82.0972 139.731 80.1574 138.483 80.1574ZM138.483 74.6622H84.6566C83.4083 74.6622 83.4083 76.602 84.6566 76.602H138.483C139.725 76.602 139.731 74.6622 138.483 74.6622ZM138.483 69.8584H84.6566C83.4083 69.8584 83.4083 71.7922 84.6566 71.7922H138.483C139.725 71.7922 139.731 69.8584 138.483 69.8584ZM138.483 64.0144H84.6566C83.4083 64.0144 83.4083 65.9543 84.6566 65.9543H138.483C139.725 65.9543 139.731 64.0144 138.483 64.0144ZM138.483 59.2046H84.6566C83.4083 59.2046 83.4083 61.1444 84.6566 61.1444H138.483C139.725 61.1444 139.731 59.2046 138.483 59.2046ZM138.483 53.7094H84.6566C83.4083 53.7094 83.4083 55.6492 84.6566 55.6492H138.483C139.725 55.6492 139.731 53.7094 138.483 53.7094ZM138.483 48.9056H84.6566C83.4083 48.9056 83.4083 50.8394 84.6566 50.8394H138.483C139.725 50.8394 139.731 48.9056 138.483 48.9056ZM138.483 43.4104H84.6566C83.4083 43.4104 83.4083 45.3442 84.6566 45.3442H138.483C139.725 45.3442 139.731 43.4104 138.483 43.4104ZM138.483 38.6006H84.6566C83.4083 38.6006 83.4083 40.5404 84.6566 40.5404H138.483C139.725 40.5404 139.731 38.6006 138.483 38.6006ZM138.483 33.4481H84.6566C83.4083 33.4481 83.4083 35.3879 84.6566 35.3879H138.483C139.725 35.3879 139.731 33.4481 138.483 33.4481ZM155.966 7.69766C154.265 7.58139 152.582 7.72213 150.917 8.08318C149.7 8.34631 150.214 10.2127 151.425 9.94959C152.931 9.62526 154.436 9.53347 155.966 9.63138C157.208 9.71706 157.202 7.77721 155.966 7.69766ZM159.95 7.34885H159.742C158.493 7.34885 158.493 9.28258 159.742 9.28258H159.95C161.198 9.28258 161.198 7.34885 159.95 7.34885ZM52.077 8.41362C50.1371 8.2484 48.1973 8.23004 46.2513 8.37079C45.0213 8.45646 45.0091 10.3902 46.2513 10.3045C48.1973 10.1699 50.1371 10.1821 52.077 10.3535C53.3192 10.4636 53.3131 8.52377 52.077 8.41362ZM43.1672 10.3106C41.9188 10.3106 41.9249 8.37691 43.1672 8.37691C44.4155 8.37691 44.4155 10.3106 43.1672 10.3106Z" fill="#A97313"/>
</svg>
