<svg width="97" height="77" viewBox="0 0 97 77" fill="none" xmlns="http://www.w3.org/2000/svg">
<path d="M96.977 2.85425C97.0252 2.43858 97.0024 2.02545 96.863 1.62245C96.5512 0.720152 95.3676 0.000339019 94.1181 0.0966518C94.08 0.0865136 94.0496 0.0713063 93.9989 0.0713063C85.4803 -0.0883703 76.8197 0.104256 68.2453 0.0915827C59.1817 0.0789101 50.179 -0.128924 40.9786 0.127067C40.9481 0.127067 40.9203 0.13467 40.8924 0.142274C39.9394 0.043426 38.3806 0.712549 37.453 1.2955C36.5634 1.8531 35.2859 2.99111 35.0604 3.80471C31.991 8.33143 29.5224 12.9139 26.894 17.4482C24.068 22.3374 21.1355 27.2265 18.1194 32.1056C11.9756 42.036 6.2602 51.941 0.699386 61.9145C0.230493 62.4037 0.0784193 62.9638 0.116438 63.5036C-0.0508432 64.0562 0.00745208 64.6467 0.0201247 65.2347C0.0505394 66.5096 0.0910923 67.8073 0.405377 69.0467V69.0493C0.179802 69.1202 0.121507 69.5105 0.39017 69.5714C12.6574 72.2783 25.4544 72.5013 37.9092 73.87C49.5327 75.1499 61.5363 77.246 73.2891 76.7568C74.3358 77.1903 75.7527 76.582 76.584 75.9534C77.4381 75.3071 78.1199 74.202 78.0616 73.102C80.3934 68.5043 81.8001 63.2096 83.293 58.3002C84.9455 52.861 86.4079 47.3712 87.9236 41.8966C90.8941 31.1576 95.2637 20.4415 96.8199 9.37313C96.8351 9.25654 96.7717 9.17797 96.6932 9.13741C96.9416 7.91829 96.8351 6.60539 96.8554 5.36853C96.8706 4.59042 97.0049 3.69572 96.977 2.85425ZM1.55353 62.211C1.60169 62.173 1.64224 62.1299 1.67012 62.0818C7.0231 52.5468 12.3178 43.0422 18.1625 33.5477C24.1238 23.8404 29.9076 14.0697 35.3316 4.34964C35.3569 4.34203 35.3797 4.33443 35.4051 4.32176C36.2871 3.80724 36.7053 2.94042 37.4023 2.31185C38.1424 1.64273 39.1562 1.20172 40.1396 0.93559C40.5325 0.829138 40.8316 0.753102 41.1712 0.601029C45.1504 0.96347 49.5175 0.82407 53.7223 0.816466C58.1578 0.803793 62.5679 0.846881 66.9882 0.877295C75.8135 0.93559 84.6591 1.04458 93.5655 0.872226C94.3842 1.23974 95.2688 1.34619 95.6895 2.19273C96.0063 2.8213 95.8872 3.57406 95.8289 4.30908C93.8773 9.16783 92.4529 14.1128 90.9423 18.9816C89.0743 24.9911 87.1835 30.998 85.2927 37.0074C83.3944 43.0371 81.61 49.0694 79.8232 55.1092C78.893 58.2622 77.8918 61.4076 76.8907 64.553C76.4801 65.8456 76.0999 67.1407 75.7501 68.4359C75.6868 68.6691 75.5727 68.9251 75.56 69.1608C75.1013 69.9364 74.6831 70.6891 73.6084 71.2569C72.8455 71.6522 71.8951 71.7435 71.0105 71.9082C57.035 70.7322 9.80098 66.3449 7.45651 66.0712C6.63532 65.9774 5.78371 65.8202 4.91182 65.7518C4.35928 65.2373 3.17565 65.0827 2.49892 64.6265C1.93878 64.2463 1.67012 63.7292 1.55353 63.1944C1.4851 62.8776 1.53579 62.5405 1.55353 62.211ZM92.283 24.654C90.7167 30.1083 88.9704 35.5069 87.4294 40.9689C85.8858 46.441 84.36 51.9207 82.7379 57.37C81.1437 62.723 78.9487 67.891 77.3697 73.2363C77.3368 73.3479 77.3773 73.4442 77.4508 73.5101C77.025 74.1843 76.6372 74.8559 75.9478 75.3476C75.1773 75.9002 74.2877 75.8089 73.469 76.0776C68.1591 75.5859 62.7757 75.6568 57.4608 75.1727C50.985 74.5847 44.5219 73.8573 38.0587 73.1578C26.2959 71.8905 14.5406 70.6156 2.78533 69.2926C2.58763 69.0569 2.22012 68.9504 1.9692 68.8059C1.41413 68.4841 1.07197 67.9847 0.81851 67.4297C0.815975 66.9785 0.795699 66.5248 0.772888 66.0686C0.752611 65.658 0.76275 65.2145 0.747542 64.7785C1.12519 65.1942 1.53072 65.544 1.98694 65.8329C2.61044 66.1193 3.35307 66.317 4.10583 66.2714C4.83832 66.4589 62.872 72.1287 69.6064 72.7117C69.837 72.8283 70.1107 72.8967 70.4047 72.9271C71.0941 72.8638 71.8596 72.7751 72.6225 72.6154C72.5388 73.1578 72.5464 73.6621 72.5997 74.2172C72.6428 74.638 72.6782 75.079 72.9241 75.4338C73.0052 75.5479 73.2181 75.5276 73.2612 75.3857C73.3905 74.9674 73.2815 74.5163 73.2156 74.0905C73.1345 73.576 73.061 73.0665 72.9647 72.5571C72.9621 72.5469 72.952 72.5444 72.9494 72.5368C73.9024 72.3087 74.8199 71.9488 75.5474 71.3785V71.3811C75.6792 71.8601 75.7096 72.4963 76.0619 72.8663C76.1683 72.9778 76.3407 72.9575 76.404 72.8131C76.5789 72.4151 76.4294 71.9741 76.3077 71.5762C76.2393 71.3582 76.1709 71.1175 76.0872 70.8817C76.1202 70.8412 76.1506 70.7981 76.1861 70.7575C76.3812 70.4027 76.5029 70.0428 76.5004 69.6854C76.7183 69.584 76.8451 69.3965 76.6752 69.1963C76.6727 69.1912 76.6702 69.1861 76.6676 69.1836C77.0301 68.3117 77.281 67.3638 77.3596 66.4716C77.5421 66.0382 77.6992 65.6682 77.7575 65.4781C78.1504 64.188 78.5762 62.9004 78.9766 61.6103C79.8105 58.9389 80.6114 56.2599 81.387 53.5834C83.0623 47.8122 84.7757 42.0486 86.5702 36.285C88.3494 30.5544 90.0932 24.8238 91.7787 19.0906C93.0383 14.8098 94.7669 10.4554 95.9708 6.15424C95.9277 7.2517 95.9404 8.37198 96.2927 9.38327C96.3054 9.41622 96.3282 9.43649 96.351 9.45677C94.8708 14.4828 93.7328 19.6127 92.283 24.654Z" fill="#009A7E"/>
<path d="M89.0899 14.5493C89.721 12.8866 90.2431 11.1707 90.5422 9.55622C91.0187 8.74516 91.1023 7.81498 90.7171 7.16107C90.489 6.76568 89.8401 6.25876 89.1355 6.16499C89.1152 6.04586 89.0265 5.95208 88.839 5.93941C81.6687 5.54909 74.2703 5.66821 67.0595 5.40462C58.9591 5.11568 50.7091 4.63665 42.1423 5.30577C41.9826 5.31591 41.8838 5.42236 41.866 5.51614C40.9207 5.61245 39.6584 6.36015 38.9209 6.8848C38.4114 7.24471 37.9654 7.68572 37.6156 8.14194C36.5764 9.02903 36.0873 10.3343 35.5271 11.2696C34.5108 12.9728 33.7149 14.7191 32.9545 16.4223C32.952 16.4299 32.9571 16.4325 32.9571 16.4375C32.4958 17.1092 32.2702 17.7961 32.6098 18.3283C32.8101 18.6451 33.393 19.1698 34.0926 19.3295C34.1179 19.3497 34.1534 19.3675 34.2066 19.3675C42.5504 19.7249 50.8384 20.2014 59.1897 20.5841C67.3282 20.9592 75.4743 21.6182 83.8104 21.4382C84.0461 21.4331 84.2312 21.276 84.3047 21.1113C87.2473 20.2875 89.0443 16.7924 89.0899 14.5493ZM86.9634 18.4525C86.0256 19.6209 84.7153 20.0924 83.3517 20.6779C79.712 20.4016 75.8773 20.4979 72.1895 20.356C67.9872 20.1938 63.8052 19.9859 59.6105 19.8136C55.431 19.6438 51.2312 19.5348 47.0974 19.2813C43.2474 19.0456 39.3746 18.7085 35.299 18.9011C35.152 18.6756 34.7363 18.6223 34.4119 18.5235C33.9709 18.3917 33.6566 18.1636 33.4462 17.8696C33.0154 17.2613 33.3373 16.3995 33.8062 15.6087C33.8492 15.5378 33.7276 15.52 33.6617 15.5859C34.5868 14.1362 35.5474 12.6864 36.4598 11.2366C36.6753 10.8945 36.9566 10.4965 37.2303 10.0859C37.2962 10.0631 37.3621 10.0251 37.4002 9.96935C38.0896 9.00622 38.3886 8.1242 39.4962 7.23457C40.32 6.57051 41.4276 6.28664 42.2412 5.69356C45.6704 6.00024 49.5103 5.75185 53.1195 5.73665C57.4105 5.7189 61.595 5.9166 65.7999 6.08388C73.1932 6.38042 80.6878 6.44125 88.1192 6.68203C88.3042 6.83157 88.5881 6.90508 88.8136 7.00139C89.1938 7.16107 89.5005 7.35116 89.7134 7.66037C89.9897 8.0583 89.977 8.59816 89.944 9.12788C88.8973 11.6447 88.3878 14.3719 87.9164 16.8786C87.6858 17.3981 87.3917 17.9177 86.9634 18.4525Z" fill="#009A7E"/>
<path d="M40.1215 26.825C40.1063 26.8427 40.0911 26.8605 40.0759 26.8782C40.5955 25.9328 40.6512 24.2752 40.3522 23.4059C40.3471 23.3906 40.3344 23.383 40.3268 23.3704C40.233 22.8432 39.787 22.3895 39.0925 22.2907C39.057 22.2678 39.0063 22.2501 38.9379 22.2425C37.4704 22.1082 35.937 22.0777 34.4137 22.0448C33.519 22.0245 32.1453 21.8065 31.101 22.1665C30.2773 22.1715 29.4308 22.539 28.7135 23.1144C28.2421 23.4946 28.1052 23.8697 27.9531 24.2727C27.1294 24.9798 26.6529 26.0443 26.5186 26.792C26.5388 26.8326 26.5667 26.8655 26.587 26.9061C26.5667 27.1494 26.5616 27.3927 26.554 27.6386C26.5414 28.0821 26.5363 28.5054 26.6149 28.9363C26.5388 28.9464 26.4577 28.9464 26.3817 28.9616C26.3716 28.9616 26.3665 28.9743 26.3766 28.9793C26.4628 29.0199 26.5566 29.0503 26.6453 29.0858C26.6504 29.1061 26.6504 29.1238 26.6554 29.1416C26.6808 29.2353 26.7847 29.2328 26.8354 29.1618C28.934 29.9856 31.5902 30.0667 33.7801 30.1098C35.1259 30.1402 36.6644 30.0033 37.9139 29.3849C37.9367 29.4432 37.995 29.4888 38.0685 29.4609C39.0671 29.0731 40.0024 27.9275 40.2685 26.8934C40.2913 26.8047 40.1747 26.7692 40.1215 26.825ZM27.2815 26.4118C27.4082 25.7731 27.9962 25.1243 28.313 24.4982C28.4803 24.3132 28.6577 24.1383 28.858 23.9837C29.3421 23.6086 29.4891 23.2994 30.1227 22.9775C30.442 22.8128 30.7969 22.6886 31.1441 22.5593C31.7676 22.7595 32.789 22.6379 33.5139 22.6582C35.1411 22.7063 36.7582 22.7646 38.3727 22.8356C38.5983 22.9167 38.834 22.9927 39.0317 23.1093C39.4017 23.3247 39.389 23.7531 39.4017 24.1181C39.4321 24.9621 38.9151 25.9556 38.4538 26.8503C37.957 27.1139 37.6858 27.5777 37.2068 27.8717C36.7201 28.1683 36.1752 28.3178 35.6277 28.4319C35.6201 28.4293 35.6151 28.4268 35.61 28.4268C33.5038 28.2747 31.134 27.8211 28.8073 28.0365C28.5589 27.892 28.2344 27.8236 27.9354 27.7121C27.3347 27.4865 27.1775 26.9314 27.2815 26.4118ZM39.1052 28.0264C38.9379 28.2164 38.7529 28.3888 38.5704 28.5637C36.2513 29.3114 34.2439 29.6079 31.7321 29.3975C30.1531 29.2657 28.5158 28.7816 26.9241 28.9008C27.0483 28.5257 27.1218 28.1075 27.1319 27.6766C27.431 27.9959 27.7732 28.2519 28.1533 28.4471C29.8287 28.2393 31.5877 28.6803 33.2529 28.7918C35.245 28.9261 36.7328 28.6676 38.3118 27.9833C38.5501 27.7247 38.7148 27.4535 38.7478 27.2026C38.7782 27.1773 38.8061 27.1519 38.8238 27.1164C39.1052 26.5842 39.5107 25.9277 39.8351 25.2789C39.8351 25.284 39.8351 25.2865 39.8326 25.2916C39.7616 25.9227 39.5208 26.569 39.6374 27.2026C39.6476 27.2508 39.6906 27.2685 39.7388 27.2685C39.5284 27.522 39.3231 27.778 39.1052 28.0264Z" fill="#009A7E"/>
<path d="M36.1449 31.9202C36.1424 31.905 36.1323 31.9025 36.1247 31.8898C36.112 31.6262 35.9929 31.3702 35.8788 31.2131C35.5645 30.7645 34.8397 30.4958 34.021 30.5617C34.0134 30.5617 34.0083 30.5668 34.0033 30.5693C31.7298 30.1638 28.7947 30.0776 26.2678 30.2905C26.1867 30.2956 26.1182 30.3235 26.065 30.364C24.9219 30.549 23.5077 31.4564 23.2719 32.2117C22.4837 32.9898 22.1745 33.9757 21.8703 34.7893C21.9007 34.8527 21.9337 34.911 21.9666 34.9718C21.959 35.1873 21.9666 35.4027 21.9717 35.6181C21.9844 36.1555 21.9007 36.7739 22.1542 37.2631C22.2024 37.3594 22.3544 37.3568 22.4026 37.2631C22.4077 37.2529 22.4077 37.2428 22.4127 37.2352C22.4381 37.2757 22.4736 37.3087 22.5242 37.3264C25.3883 38.2921 29.5906 39.3642 32.6954 38.2085C32.7081 38.2211 32.7208 38.2389 32.741 38.2287C33.1491 38.0817 33.5293 37.8638 33.8867 37.6103C33.9399 37.5748 33.9982 37.5469 34.0489 37.5089C34.0717 37.4937 34.0818 37.4734 34.0894 37.4532C34.3632 37.2428 34.6293 37.0198 34.8802 36.7916C35.3795 36.343 35.9751 35.7778 36.1602 35.1138C36.1804 35.0403 36.0943 34.9972 36.0385 35.0301C36.0157 35.0453 35.9929 35.0656 35.9701 35.0808C36.221 34.6575 36.2362 34.1481 36.2641 33.664C36.2945 33.0963 36.3249 32.4652 36.1449 31.9202ZM22.7295 34.1025C23.0083 33.4916 23.6471 32.8428 23.8904 32.2345C24.2275 31.9304 24.5037 31.6085 24.9295 31.3347C25.4365 31.0052 25.9941 30.9013 26.5466 30.6808C28.962 30.8582 31.5295 30.9596 34.0058 31.0205C34.3632 31.1801 34.7281 31.3297 34.9715 31.5831C35.1945 31.8163 35.1438 32.2396 35.3263 32.5032C34.9765 32.9188 34.8523 33.3877 34.6496 33.8186C34.4874 34.1608 34.3175 34.5029 34.1528 34.8451C34.0641 34.9237 33.9906 35.0098 33.9044 35.1036C33.6408 35.3875 33.3772 35.6435 33.0274 35.8893C32.7132 36.1048 32.3533 36.2416 31.9781 36.3709C31.8058 36.4292 31.636 36.4621 31.4687 36.5027C31.4662 36.5027 31.4662 36.5027 31.4636 36.5027C30.1963 36.3937 28.8657 36.3861 27.5858 36.2949C26.2754 36.2036 24.9853 35.9882 23.6065 36.0313C23.4291 35.8361 23.1401 35.7322 22.8689 35.5522C22.3874 35.2278 22.504 34.5992 22.7295 34.1025ZM34.3784 36.5914C34.0539 36.893 33.7092 37.1794 33.3721 37.4709C29.6286 38.4087 26.3464 37.1541 22.5699 36.8981C22.5496 36.8981 22.542 36.9108 22.5242 36.9133C22.6028 36.561 22.5724 36.1757 22.5623 35.8184C22.9272 36.1783 23.4063 36.4115 24.1514 36.4495C25.3477 36.5078 26.5466 36.5762 27.7454 36.6269C29.8694 36.7156 31.8058 36.9589 33.6484 36.3836C34.0539 36.0744 34.3784 35.7398 34.4924 35.4483C34.8523 34.9059 35.1489 34.3534 35.4099 33.8034C35.5062 33.6006 35.6203 33.3852 35.7141 33.1698C35.7115 33.3294 35.7115 33.484 35.7065 33.6361C35.6887 34.1354 35.6102 34.655 35.7724 35.1366C35.7825 35.1645 35.8079 35.1746 35.8357 35.1797C35.2984 35.57 34.8574 36.1428 34.3784 36.5914Z" fill="#009A7E"/>
<path d="M51.4585 32.8701C51.5877 32.1453 50.8451 31.3672 49.9352 31.286C49.9149 31.2455 49.8693 31.2151 49.7933 31.2024C48.787 31.0301 47.6541 31.0807 46.5668 31.0731C46.0092 31.0681 43.3048 30.7513 41.8829 31.0757C41.8525 31.0503 41.8094 31.0301 41.741 31.0275C41.1884 31.0072 40.5345 31.2049 40.0226 31.4939C39.7108 31.6713 39.3078 32.0008 39.1608 32.2923C39.0822 32.31 39.0037 32.3404 38.9555 32.3987C38.5424 32.9183 38.3345 33.486 38.0659 34.0208C37.82 34.5176 37.5108 35.0144 37.2776 35.5112C37.2878 35.5618 37.303 35.6075 37.3156 35.6556C37.2599 36.1549 37.2497 36.6568 37.2295 37.1611C37.2117 37.5641 37.1458 37.9874 37.2928 38.3701C37.3562 38.5323 37.5868 38.5982 37.6857 38.4208C37.8606 38.0989 37.8656 37.772 37.8809 37.407C37.891 37.1713 37.8885 36.9305 37.8885 36.6948C38.2306 37.0395 38.6843 37.2828 39.2064 37.445C39.2115 37.445 39.214 37.445 39.2191 37.4425C39.5562 37.4957 39.9034 37.5439 40.2557 37.587C40.0808 37.5793 39.9034 37.587 39.7285 37.5844C41.1682 37.8936 42.9145 37.7897 44.0931 37.8303C45.4566 37.8759 47.023 38.033 48.3638 37.5844C48.488 37.5312 48.602 37.478 48.6983 37.4222C48.7389 37.4019 48.782 37.374 48.8225 37.3512C48.7921 37.3842 48.7541 37.4146 48.7211 37.4476C48.8682 37.3842 49.0126 37.3208 49.152 37.2372C49.3675 37.1105 49.5702 36.9635 49.7806 36.8266C49.8566 36.6872 49.9099 36.5478 49.8946 36.4211C49.9834 36.2893 50.0417 36.1575 50.0569 36.0358C50.3433 35.681 50.6094 35.2881 50.8274 34.8877C50.7437 35.5847 50.6195 36.2817 50.6271 36.9863C50.6271 37.1459 50.8705 37.1713 50.9262 37.0319C51.3926 35.8736 51.6258 34.2008 51.4585 32.8701ZM50.1963 34.6215C50.029 35.0321 49.8845 35.4807 49.7705 35.9116C49.5322 36.0814 49.3801 36.3019 49.185 36.4971C48.9442 36.7404 48.6324 36.9381 48.2928 37.1054C47.8569 37.3183 47.3626 37.3538 46.9115 37.4754C44.4707 37.3259 42.002 37.0192 39.4827 37.075C39.465 37.0395 39.4345 37.0091 39.3813 36.9837C38.9961 36.8038 38.6108 36.6745 38.3548 36.3957C38.0811 36.0941 38.1622 35.681 37.9949 35.354C38.2256 34.9916 38.4156 34.6266 38.6083 34.2616C38.8947 33.7319 39.2191 33.1667 39.3509 32.6319C39.5511 32.528 39.6246 32.4241 39.7615 32.2821C39.9237 32.1148 40.1315 31.9704 40.3622 31.8462C40.7753 31.6231 41.1606 31.6181 41.594 31.5015C41.6649 31.4812 41.7258 31.4483 41.779 31.4052C42.4937 31.722 43.7407 31.6003 44.643 31.6181C46.2322 31.646 47.8721 31.7727 49.5145 31.6282C49.844 31.9121 50.3103 32.0946 50.5029 32.4824C50.6373 32.7536 50.4928 33.1768 50.7133 33.4024C50.4903 33.8029 50.3585 34.2211 50.1963 34.6215Z" fill="#009A7E"/>
<path d="M22.7731 45.6372C23.0063 45.622 23.2445 45.6068 23.4929 45.5916C22.4816 45.5155 21.4729 45.4293 20.4667 45.3457C21.2296 45.48 21.9975 45.5814 22.7731 45.6372Z" fill="#009A7E"/>
<path d="M31.7878 40.6529C31.8081 39.9812 31.2176 39.3755 30.3001 39.2741C30.2848 39.2158 30.2266 39.1702 30.1049 39.1625C27.4031 38.9699 24.6683 38.6759 21.8473 38.7215C21.7333 38.7241 21.6319 38.7697 21.5609 38.828C20.8107 38.8964 20.0174 39.1778 19.3634 39.5351C18.8768 39.8013 18.01 40.4349 17.9517 40.8734C17.3003 41.5095 16.9734 42.3713 16.8111 43.0049C16.801 43.0252 16.7934 43.048 16.7833 43.0683C16.8897 43.2837 16.9049 43.5017 16.9303 43.7121C16.9784 43.7856 17.0317 43.8413 17.0798 43.9072C17.0798 44.1962 17.0925 44.4851 17.095 44.7715C17.0975 45.1492 17.1153 45.5015 17.3105 45.8259C17.3181 45.8943 17.351 45.9577 17.4372 45.983C20.6561 46.9715 25.7911 47.9828 29.048 46.3328C29.6487 46.2872 30.2494 45.6789 30.6498 45.2835C31.1314 44.8019 31.6307 44.1049 31.7143 43.4181C31.7169 43.4029 31.7118 43.3877 31.7067 43.3724C31.8385 43.119 31.8968 42.8275 31.9399 42.531C32.0261 41.9455 32.054 41.2105 31.7878 40.6529ZM17.5563 43.0125C17.6121 42.7059 17.7591 42.3662 18.0125 41.9784C18.2584 41.6033 18.6208 41.2054 18.7602 40.8201C19.0542 40.5692 19.2925 40.2549 19.5814 40.0446C20.2353 39.5706 21.0185 39.3881 21.8118 39.1499C24.3286 39.4363 27.0355 39.4946 29.6411 39.634C30.077 39.8874 30.5712 40.0446 30.7892 40.4349C30.9895 40.7973 30.8779 41.2257 30.8931 41.6236C30.7689 41.8897 30.66 42.1609 30.5282 42.422C30.295 42.8909 30.0213 43.3648 29.8286 43.8363C29.6842 43.9529 29.5524 44.0745 29.4028 44.1911C29.1494 44.3939 28.8503 44.5662 28.5335 44.7183C28.2243 44.8628 27.9049 44.992 27.5754 45.1086C27.4411 45.1542 27.3042 45.1847 27.1699 45.2125C27.1268 45.1745 27.0634 45.1466 26.9722 45.1441C24.2957 45.025 21.7333 44.5738 19.0314 44.5459C19.0137 44.5358 19.0035 44.5282 18.9833 44.5206C18.3293 44.3406 17.9213 44.0999 17.7084 43.7983C17.683 43.5347 17.6399 43.2736 17.5639 43.0201C17.5614 43.0176 17.5588 43.0151 17.5563 43.0125ZM30.6321 44.5738C30.3077 44.9946 29.9148 45.3671 29.4966 45.6916C29.4839 45.6916 29.4763 45.684 29.4636 45.6865C27.213 46.1478 25.3779 46.5229 23.0462 46.2897C21.2568 46.1123 19.4623 45.5648 17.6628 45.58C17.7641 45.281 17.7565 44.954 17.7489 44.6271C17.7895 44.66 17.825 44.7056 17.8681 44.736C17.9492 44.7665 18.0303 44.7943 18.1266 44.8247C18.4763 44.9287 18.8261 45.0072 19.1784 45.0858C21.4823 45.542 24.2982 45.5243 26.8024 45.6257C26.9063 45.6307 26.995 45.6054 27.0634 45.5674C27.2408 45.5446 27.4259 45.5015 27.6033 45.4761C27.801 45.4457 27.9961 45.3976 28.1888 45.3393C28.1102 45.3798 28.0291 45.4204 27.948 45.4609C27.9581 45.4584 27.9657 45.4584 27.9733 45.4559C28.8123 45.2075 29.489 44.8121 30.1581 44.3533C30.2088 44.2773 30.257 44.1987 30.2823 44.1252C30.3786 44.0137 30.4521 43.8996 30.4825 43.7906C30.7715 43.4409 31.0376 43.0531 31.253 42.6552C31.2024 42.9973 31.1719 43.342 31.2683 43.6614C31.0554 43.963 30.8602 44.2798 30.6321 44.5738Z" fill="#009A7E"/>
<path d="M47.8748 41.6792C47.8621 41.6412 47.8367 41.6158 47.8089 41.6006C47.7911 41.4181 47.7531 41.2483 47.6821 41.114C47.4591 40.7059 46.7494 40.1635 45.9637 40.2041C45.9384 40.1559 45.8826 40.1154 45.7812 40.1052C44.4708 39.9963 43.1351 39.9304 41.807 39.8594C40.5854 39.7935 39.3409 39.6389 38.061 39.7099C38.0508 39.6744 38.0255 39.6414 37.957 39.6313C36.8368 39.4691 35.3794 40.2345 34.6494 41.038C34.6114 41.0557 34.5734 41.0734 34.5455 41.1039C33.7573 41.9859 33.4557 43.0073 33.007 43.9704C33.0147 44.0642 33.0299 44.158 33.0451 44.2518C33.0045 44.6928 33.0273 45.1465 33.0197 45.5875C33.0096 46.1679 32.969 46.799 33.1718 47.3465C33.2225 47.4833 33.4278 47.4681 33.4734 47.3414C33.4911 47.2932 33.4988 47.2451 33.5114 47.1969C35.7976 47.97 38.4386 48.2564 40.8236 48.3882C42.684 48.4921 45.0386 48.2285 46.2932 46.7331C46.3261 46.7863 46.3971 46.8142 46.4554 46.7585C46.8254 46.3985 47.013 45.8359 47.2487 45.3797C47.4236 45.035 47.5909 44.6852 47.7151 44.3177C47.7278 44.2847 47.743 44.2543 47.7506 44.2214C47.7658 44.1732 47.7886 44.1301 47.8013 44.082C47.8063 44.0617 47.8038 44.0439 47.7937 44.0287C47.8393 43.8184 47.8748 43.6055 47.9052 43.3976C47.9888 42.8274 48.0572 42.2317 47.8748 41.6792ZM34.8345 41.7248C34.8471 41.7122 34.8598 41.7046 34.8725 41.6919C35.2983 41.2255 35.61 40.8048 36.2893 40.4575C36.6923 40.2548 37.1181 40.1635 37.5388 40.0343C39.7718 40.597 42.9172 40.4829 45.4695 40.5133C45.619 40.6857 45.8902 40.7997 46.1284 40.9062C46.425 41.0405 46.6683 41.2559 46.8001 41.4942C46.904 41.6767 46.9319 41.8946 46.9395 42.105C46.9471 42.2723 46.9015 42.4573 46.8964 42.6322C46.7114 42.982 46.5948 43.3393 46.4478 43.6891C46.3008 44.0414 46.169 44.3962 46.0499 44.7511C45.657 45.111 45.2439 45.4582 44.7471 45.7624C44.2453 46.0691 43.6978 46.1578 43.163 46.3327C40.8312 45.993 38.0635 45.7168 35.5011 45.8891C35.3059 45.7573 35.0043 45.7091 34.7483 45.6154C34.3504 45.4709 34.0614 45.2504 33.8663 44.9767C33.6863 44.7232 33.6939 44.3836 33.7421 44.0744C33.7522 44.0161 33.7649 43.8285 33.6914 43.7221C34.1375 43.0631 34.5911 42.3787 34.8345 41.7248ZM46.3363 46.4087C46.3109 46.4011 46.2805 46.4011 46.2501 46.4138C43.9335 47.458 42.1416 47.8889 39.5665 47.6785C37.5743 47.5138 35.5872 46.8674 33.59 46.8421C33.6458 46.4391 33.628 46.0209 33.6229 45.6204C33.922 45.9626 34.3402 46.2135 34.9384 46.3022C35.0144 46.3124 35.093 46.32 35.1716 46.3301C35.2603 46.3174 35.349 46.3022 35.4377 46.2718C37.7492 46.6799 40.5296 46.5557 42.9324 46.8193C43.0059 46.8269 43.0718 46.8168 43.1377 46.799C43.4241 46.8041 43.7434 46.7534 44.0577 46.6748L44.0501 46.6799C44.7218 46.5075 45.2743 46.2439 45.7863 45.917C45.9231 45.7725 46.0397 45.6204 46.0904 45.4785C46.1766 45.3619 46.2501 45.2453 46.3059 45.1237C46.5365 44.7638 46.7266 44.3962 46.9192 44.0262C47.0637 43.7525 47.2132 43.4509 47.3349 43.1467C47.2639 43.6967 47.089 44.267 47.1473 44.817C47.0485 45.002 46.9522 45.187 46.8533 45.3695C46.6784 45.699 46.4503 46.0437 46.3363 46.4087Z" fill="#009A7E"/>
<path d="M39.8561 59.323C39.8384 59.2495 39.775 59.2014 39.7091 59.1887C39.6812 59.0924 39.6508 59.0011 39.6052 58.9226C39.3593 58.5018 38.5914 57.9341 37.7626 57.9544C37.7321 57.9037 37.6738 57.8606 37.5649 57.8504C36.1759 57.7034 34.7566 57.5995 33.3474 57.4931C32.0522 57.3917 30.7292 57.2016 29.3782 57.2421C29.3656 57.2016 29.3352 57.1686 29.2642 57.156C28.0729 56.9633 26.5522 57.7009 25.802 58.4942C25.764 58.5094 25.7234 58.5297 25.6955 58.5576C24.9047 59.4117 24.6082 60.4103 24.1773 61.3557C24.1647 61.3633 24.1469 61.3633 24.1368 61.376C23.9112 61.7334 23.934 62.182 23.9087 62.5901C23.8757 63.135 23.8022 63.8066 24.0836 64.2933C24.1317 64.3769 24.2584 64.3516 24.2914 64.273C24.4637 63.8954 24.4511 63.4518 24.446 63.0361C24.5651 63.1578 24.7172 63.2845 24.8971 63.4062C25.0137 63.4695 25.1354 63.5304 25.2849 63.5811C25.5967 63.6825 25.9135 63.7864 26.2329 63.8751C26.4179 63.8827 26.6054 63.8725 26.7905 63.8193C29.0107 64.2477 31.6239 64.2477 33.9886 64.4859C35.4586 64.4808 36.8273 64.2781 38.0414 63.4873C38.1326 63.3454 38.1909 63.2034 38.1808 63.0666C38.2036 63.026 38.2365 62.9854 38.2543 62.9449C38.4874 62.585 38.6801 62.2175 38.8752 61.85C39.0324 61.5534 39.1971 61.2265 39.3213 60.897C39.2681 61.4115 39.1971 61.9412 39.263 62.4507C39.2757 62.547 39.4202 62.552 39.4607 62.476C39.6913 62.0451 39.7674 61.5458 39.8333 61.0617C39.9119 60.5067 39.998 59.8679 39.8561 59.323ZM38.8119 60.4382C38.6268 60.7855 38.5128 61.1454 38.3683 61.4951C38.2213 61.8449 38.092 62.2023 37.9729 62.5571C37.5674 62.9145 37.1416 63.2516 36.622 63.5481C36.0999 63.8447 35.5245 63.9207 34.9619 64.0829C32.4881 63.6774 29.5531 63.3251 26.8462 63.4341C26.6358 63.2947 26.3165 63.2364 26.0428 63.135C25.617 62.9804 25.3052 62.7472 25.0923 62.4659C24.8921 62.2023 24.8921 61.8601 24.9326 61.5484C24.9428 61.4901 24.9504 61.2974 24.8693 61.191C25.3204 60.5345 25.7817 59.8527 26.0174 59.1963C26.0301 59.1861 26.0453 59.176 26.058 59.1633C26.4964 58.702 26.8133 58.2838 27.5229 57.9518C27.9411 57.7541 28.3923 57.6756 28.8333 57.5564C31.2133 58.185 34.5411 58.1546 37.2455 58.2534C37.4102 58.4334 37.6992 58.555 37.9552 58.6691C38.272 58.8136 38.5356 59.0391 38.6826 59.2825C38.7941 59.4675 38.8321 59.6931 38.8473 59.9034C38.8575 60.0758 38.8144 60.2608 38.8119 60.4382Z" fill="#009A7E"/>
<path d="M43.2621 50.5467C43.2317 50.2907 43.1227 50.0499 42.9732 49.837C42.7907 49.581 42.4333 49.2997 41.9974 49.1603C42.01 49.0462 41.9315 48.9347 41.7312 48.9169C40.1471 48.8004 38.5301 48.7395 36.9232 48.6736C35.6965 48.6229 34.2112 48.4455 32.8983 48.7294C32.0568 48.6939 30.8377 49.2312 30.2446 49.8167C30.1432 49.8142 30.0216 49.8497 29.9506 49.9257C29.4386 50.4605 29.1979 51.0967 28.9317 51.6695C28.7822 51.9939 28.6225 52.3285 28.5085 52.658C28.4933 52.6706 28.4755 52.6782 28.4654 52.6934C28.4375 52.7365 28.4248 52.7796 28.4045 52.8227C28.4375 53.028 28.4856 53.2156 28.5465 53.3854C28.5693 53.7377 28.6073 54.09 28.6276 54.4397C28.6605 54.9213 28.5642 55.522 28.8481 55.9351C28.881 55.9858 28.9647 55.9757 28.9951 55.9301C29.0331 55.8743 29.0483 55.8084 29.0737 55.745C31.2204 56.546 33.7296 56.7766 35.9905 56.954C37.7469 57.0909 39.663 57.0022 41.2269 56.1252C41.1736 56.3001 41.3967 56.4015 41.5133 56.2722C41.8656 55.8743 42.1038 55.3978 42.3623 54.934C42.6665 54.384 43.0746 53.7934 43.1557 53.1547C43.2697 52.8506 43.2722 52.5135 43.2849 52.1865C43.3052 51.6391 43.3787 51.0865 43.2621 50.5467ZM28.9292 52.9215C29.279 52.4628 29.5324 51.9559 29.7833 51.4946C29.9456 51.1981 30.1154 50.8939 30.2396 50.5923C30.3967 50.5391 30.5716 50.4275 30.6806 50.3059C30.9061 50.0499 31.1343 49.8269 31.4688 49.6165C31.92 49.3275 32.475 49.2008 32.9693 48.9905C33.8868 49.1881 35.0172 49.1197 36.0183 49.1527C37.6759 49.2084 39.3133 49.3047 40.9582 49.3833C41.2319 49.6824 41.7591 49.8269 42.043 50.1335C42.3319 50.4478 42.3066 50.8381 42.4181 51.2082C42.1824 51.5326 42.1089 51.8976 41.967 52.2321C41.7439 52.7593 41.4727 53.284 41.2446 53.8086C41.2142 53.8568 41.1838 53.905 41.1534 53.9506C40.9835 54.2015 40.7301 54.4245 40.4437 54.6273C39.8962 55.0151 39.2347 55.0683 38.5909 55.2077C36.2591 55.0328 33.8919 54.569 31.4714 54.5791C31.3218 54.5259 31.1444 54.5006 30.9492 54.4752C30.5082 54.4119 30.1331 54.3206 29.7859 54.1483C29.1573 53.8315 29.0737 53.4056 28.9292 52.9215ZM42.1748 54.346C41.8934 54.8529 41.5665 55.3497 41.3308 55.8819C41.3004 55.8059 41.2269 55.745 41.1382 55.7603C38.8925 56.1278 36.9739 56.4192 34.6725 56.1708C32.8425 55.9732 30.9949 55.3826 29.1472 55.4586C29.1877 55.1342 29.1345 54.7768 29.1117 54.4702L29.0965 54.2699C29.578 54.749 30.2522 54.9948 31.0278 55.1139C31.1267 55.1063 31.223 55.0911 31.3167 55.0683C31.626 55.1291 31.9555 55.1748 32.2799 55.2255C33.0124 55.2508 33.7753 55.2381 34.4951 55.2685C36.0893 55.3319 37.7241 55.598 39.3209 55.5448C40.0027 55.5245 40.5501 55.3547 41.0545 55.0987C41.2421 54.9213 41.4448 54.7008 41.5057 54.5031C41.825 54.1888 42.0658 53.834 42.0328 53.5527C42.2939 53.1243 42.4941 52.6858 42.669 52.2499C42.6437 52.6123 42.6487 52.9849 42.8084 53.3043C42.5499 53.6135 42.3699 53.9937 42.1748 54.346Z" fill="#009A7E"/>
<path d="M22.4257 60.8652C22.4486 60.6954 22.4663 60.523 22.4815 60.3482C22.5398 59.7196 22.5474 59.0758 22.4384 58.4523C22.5145 57.7072 21.9366 56.9443 21.0292 56.6629C21.0444 56.6097 21.0292 56.5565 20.9532 56.5235C19.8253 56.0293 17.3135 56.1738 15.8841 56.0774C14.8221 56.0039 13.3444 55.6973 12.1633 55.9051C11.3928 55.8037 10.2472 56.3081 9.62116 56.6401C9.03822 56.9493 8.36656 57.4613 8.15619 57.9403C7.90274 58.2622 7.69744 58.5892 7.482 58.9212C7.17025 59.3952 6.80527 59.8691 6.56702 60.3532C6.54928 60.3913 6.55435 60.4217 6.55689 60.4521C6.54168 60.4572 6.52647 60.4597 6.5138 60.4724C6.26795 60.7562 6.33891 61.1922 6.34398 61.5445C6.35159 62.0032 6.33131 62.4594 6.52394 62.8853C6.56196 62.974 6.69375 63.0018 6.73937 62.8979C6.75458 62.865 6.75965 62.8346 6.77232 62.8016C8.64536 64.738 12.5308 64.7659 14.9843 64.9687C18.0764 65.2196 20.5857 64.2438 22.1495 61.694H22.152C22.1545 61.6864 22.1571 61.6788 22.1621 61.6737C22.2838 61.4735 22.4105 61.286 22.5195 61.068C22.5677 60.9767 22.5043 60.8931 22.4257 60.8652ZM9.02301 58.0164C9.47163 57.6843 9.85688 57.3067 10.3714 57.0152C10.891 56.7237 11.6437 56.5767 12.1709 56.3081C13.1771 56.6426 15.0096 56.5742 16.0995 56.6553C17.164 56.7364 18.6746 57.0152 19.952 56.9519C19.9596 56.9595 19.9647 56.9696 19.9748 56.9772C20.4006 57.3067 20.9075 57.5475 21.1078 57.991C21.2446 58.2952 21.2396 58.6297 21.2649 58.9542C20.9151 59.3394 20.8011 59.7652 20.6085 60.1733C20.4361 60.5357 20.2587 60.8956 20.0382 61.2505C20.0154 61.2606 19.9951 61.2707 19.9748 61.2834C19.5161 61.5952 19.2195 61.9475 18.7025 62.2389C18.2843 62.4721 17.785 62.5912 17.3059 62.7433C15.77 62.6369 14.2619 62.4975 12.764 62.3251C11.6666 62.1984 10.559 62.0134 9.39305 62.0235C9.39052 62.0184 9.39052 62.0134 9.38799 62.0108C9.38038 61.9906 9.37024 61.9753 9.35757 61.9601C9.34236 61.9399 9.32716 61.9221 9.30181 61.9069C9.26633 61.8816 9.22577 61.8588 9.17762 61.8436C8.59467 61.6788 8.13338 61.4558 7.88499 61.0832C7.68983 60.7942 7.7532 60.4419 7.69997 60.1175C8.2449 59.4585 8.76955 58.7108 9.02301 58.0164ZM19.7797 63.453C18.3172 64.5631 16.0691 64.444 14.3684 64.335C11.7071 64.1652 9.21564 63.7977 6.84836 62.5203C6.88891 62.2947 6.89145 62.0615 6.88131 61.8207C6.87624 61.6991 6.87877 61.5622 6.87877 61.4228C6.95735 61.509 7.03085 61.6028 7.12209 61.6813C7.11956 61.6585 7.10942 61.6357 7.10688 61.6129C7.45919 61.988 8.01679 62.2846 8.59467 62.4392C8.68591 62.462 8.77462 62.4671 8.8608 62.4569C9.48176 62.6217 10.1636 62.7205 10.8555 62.8016C11.3345 62.8295 11.8085 62.8751 12.2774 62.9486C12.5435 62.9714 12.8071 63.012 13.0707 63.0424C13.9831 63.1463 14.8956 63.2426 15.8232 63.3161C16.2237 63.3136 16.614 63.3009 16.9967 63.273C17.5163 63.1818 18.0258 63.0855 18.5251 62.9689C18.7177 62.9081 18.9078 62.8346 19.0903 62.7535C19.0142 62.7991 18.9306 62.8447 18.8469 62.8903C19.3513 62.7611 19.843 62.6039 20.3246 62.4037C20.5603 62.1781 20.7428 61.9348 20.6794 61.7599C20.7022 61.7422 20.7251 61.7194 20.7403 61.6991C21.0976 61.2226 21.3587 60.7309 21.5868 60.2392C21.7161 59.9629 21.8757 59.6638 21.9366 59.3774C21.9518 59.3648 21.9594 59.347 21.9746 59.3343C21.9569 59.5929 21.9416 59.8539 21.9214 60.1125C21.8884 60.5307 21.82 60.9565 21.8783 61.3671C21.237 62.1249 20.5882 62.8396 19.7797 63.453Z" fill="#009A7E"/>
<path d="M84.9839 27.8197C85.0372 27.3888 85.0321 26.9478 84.9789 26.5093C84.989 26.4662 85.0042 26.4231 85.0118 26.3826C85.1259 25.4904 84.3832 24.1192 83.1084 24.1902C83.1388 24.0584 83.0729 23.9291 82.8727 23.9165C78.313 23.6275 73.5784 23.1257 68.8084 23.516C68.6842 23.5261 68.6006 23.6022 68.5854 23.6731C67.1153 23.9722 65.6757 24.9987 65.1891 26.1114C65.0801 26.1088 64.9686 26.1671 64.9356 26.2812C64.7709 26.854 64.8063 27.4902 64.8063 28.0833C64.8089 28.3342 64.7911 28.6105 64.8063 28.8791C64.6492 28.8918 64.5554 29.092 64.7227 29.1985C64.7709 29.2314 64.8241 29.2542 64.8722 29.2821C64.9027 29.3936 64.9407 29.5001 64.999 29.5989C65.0775 29.7231 65.298 29.751 65.369 29.5989C65.3741 29.5888 65.3741 29.5787 65.3766 29.5685C67.6096 30.7496 70.2506 30.9245 72.7395 30.9422C75.4413 30.9651 78.4803 31.1146 81.1998 30.7648C82.604 31.1957 85.2399 29.2618 85.1563 27.9058C85.1512 27.8146 85.0574 27.7918 84.9839 27.8197ZM66.0914 25.9542C66.5096 24.9353 67.9999 24.4132 69.0568 23.8353C69.0695 23.8277 69.0695 23.8201 69.0796 23.8151C73.6342 24.0077 78.1584 24.1978 82.6902 24.4741C82.7358 24.4741 82.7763 24.469 82.8144 24.4614C82.974 24.7351 83.2782 24.9151 83.5367 25.1482C83.96 25.5284 84.1678 26.048 84.0183 26.6259C83.7547 27.6575 82.424 28.0072 81.6409 28.7346C80.6904 28.2581 78.3257 28.5091 77.2637 28.4787C74.0296 28.3823 70.7879 28.0858 67.4803 28.2049C66.8796 27.404 65.549 27.2823 66.0914 25.9542ZM83.633 29.3201C83.3263 29.5913 82.9715 29.7941 82.604 29.969C82.2137 30.154 81.7777 30.192 81.3849 30.3365C79.233 30.078 76.9443 30.3314 74.795 30.3897C71.5102 30.4784 68.5321 30.263 65.4805 29.1047C65.5084 28.7625 65.4603 28.4001 65.4552 28.0681C65.4527 27.9793 65.4552 27.8881 65.4552 27.7994C65.6098 27.9971 65.7974 28.1745 66.0204 28.3114C66.066 28.286 66.1192 28.2759 66.1775 28.3063C66.7225 28.6003 67.3612 28.7397 68.0328 28.8107C67.8833 28.7422 67.7236 28.6814 67.569 28.613C68.5423 28.7346 69.546 28.8107 70.5547 28.8715C71.0211 28.8664 71.4722 28.869 71.8879 28.8994C72.4151 28.9425 72.9397 28.9704 73.4644 29.0008C74.686 29.0413 75.9052 29.0717 77.1065 29.1199C77.1395 29.1199 77.1851 29.125 77.2206 29.125C79.3167 29.1478 81.2987 29.2314 83.2376 28.7372C83.6203 28.4584 84.0867 28.0528 84.3604 27.6372C84.4213 27.5687 84.472 27.4952 84.5252 27.4243C84.5303 27.6701 84.5505 27.9134 84.5733 28.1542C84.2489 28.5167 83.9955 28.9982 83.633 29.3201Z" fill="#009A7E"/>
<path d="M66.7322 33.9016C66.7196 33.8914 66.6993 33.8914 66.6841 33.8889C66.6486 33.4834 66.4281 33.1032 66.1341 32.8421C65.8426 32.5887 65.2267 32.2718 64.6057 32.2288C64.5905 32.2237 64.5804 32.2136 64.5601 32.211C63.2193 32.0235 61.8203 31.9424 60.4364 31.846C59.4682 31.7776 58.4518 31.6331 57.4152 31.7751C57.4101 31.7725 57.4076 31.7725 57.4 31.7725C56.6219 31.6838 55.6283 32.1324 54.9542 32.5583C54.7767 32.6698 54.5841 32.8142 54.4042 32.9739C54.3661 32.9891 54.3281 33.0094 54.2977 33.0424C54.2622 33.0854 54.2369 33.126 54.2014 33.1691C54.0265 33.3516 53.8896 33.5417 53.8212 33.7241C53.626 34.0663 53.474 34.4161 53.3143 34.7633C53.1065 35.2297 52.8454 35.7112 52.6984 36.1827C52.6072 36.1624 52.5058 36.208 52.4652 36.2942C52.2903 36.687 52.3664 37.1407 52.3841 37.5615C52.4069 38.1571 52.3765 38.7502 52.5083 39.3281C52.5058 39.3838 52.5184 39.4396 52.5514 39.4877C52.5641 39.5333 52.5691 39.579 52.5843 39.6221C52.6224 39.731 52.7871 39.7741 52.8479 39.655C52.853 39.6449 52.853 39.6347 52.8581 39.6271C56.8779 40.6714 63.6629 42.1009 66.1341 37.7794C66.1822 37.8504 66.2938 37.8504 66.3394 37.7642C66.8133 36.8771 66.8868 35.6073 66.788 34.5606C66.8691 34.2792 66.8843 34.0283 66.7322 33.9016ZM54.0696 34.8368C54.1963 34.5428 54.3307 34.2513 54.4371 33.9599C54.5664 33.8458 54.6754 33.7165 54.7742 33.5924C54.977 33.3364 55.2532 33.1057 55.5523 32.8979C56.0947 32.5177 56.7334 32.4265 57.3316 32.1603C58.1426 32.4087 59.1564 32.4112 60.079 32.4771C61.4274 32.5709 62.7606 32.6977 64.1014 32.8066C64.1597 32.8218 64.218 32.8371 64.2813 32.8523C64.6919 32.9562 65.062 33.0702 65.3332 33.3161C65.8198 33.747 65.6145 34.3958 65.8451 34.9205C65.759 35.1993 65.6981 35.4654 65.6373 35.6276C65.4928 36.0154 65.1659 36.6059 65.0518 37.0951C65.0315 37.1154 65.0138 37.1357 64.9961 37.1559C64.735 37.4347 64.403 37.6502 64.0329 37.8479C63.4601 38.1546 62.7606 38.1571 62.165 38.3649C59.8078 38.2965 57.3721 37.9923 54.9618 38.1216C54.9035 38.0861 54.8426 38.0532 54.7767 38.0278C54.503 37.9163 54.2343 37.8175 53.9986 37.6705C53.5449 37.3866 53.4537 36.9557 53.2484 36.5628C53.6387 36.0078 53.8263 35.4096 54.0696 34.8368ZM53.0228 39.138C53.1014 38.7882 53.1065 38.4308 53.0938 38.0481C53.0913 37.9543 53.0887 37.8479 53.0887 37.744C53.403 38.1419 53.8111 38.441 54.3002 38.6437C54.4194 38.6716 54.5436 38.6919 54.6754 38.7071C54.8325 38.7274 55.0048 38.6741 55.1721 38.6488C55.3571 38.6767 55.5523 38.6995 55.7424 38.7248C55.3343 38.7147 54.9212 38.7223 54.5131 38.7223C56.1353 39.2951 58.3631 39.0771 59.8484 39.105C60.6341 39.1177 61.3691 39.1228 62.0661 39.0771C61.4654 39.034 60.8673 38.9935 60.2615 38.9529C61.0472 38.958 61.8228 38.958 62.5604 38.9656C62.5933 38.9656 62.6187 38.958 62.6491 38.9529C62.9405 38.9352 63.2523 38.8642 63.5539 38.7755C64.2382 38.4993 64.8947 38.1469 65.5435 37.7211C65.5562 37.6983 65.5714 37.6781 65.5841 37.6552C65.9085 37.3308 66.129 36.9734 66.0986 36.6566C66.0961 36.6085 66.0656 36.5781 66.0276 36.5527C66.0986 36.3626 66.1645 36.1751 66.2329 35.985C66.1696 36.4995 66.0758 37.014 66.1011 37.5336C62.5806 42.0147 57.6687 39.1101 53.0228 39.138Z" fill="#009A7E"/>
<path d="M81.4068 39.7084C81.2978 39.754 81.1964 39.7895 81.0925 39.8301C82.3471 38.8467 82.8135 36.2158 82.4358 34.7863C82.4206 34.7331 82.375 34.7128 82.3294 34.7204C82.3598 34.0107 81.749 33.1972 80.905 32.9868C80.8796 32.9006 80.8036 32.8271 80.6464 32.817C79.0395 32.7029 77.4149 32.6421 75.7852 32.5889C74.746 32.5559 73.5066 32.3126 72.4193 32.6218C71.4916 32.6826 70.531 33.1389 69.8873 33.7497C69.8188 33.7446 69.7402 33.7649 69.6896 33.8232C69.1421 34.4467 68.9799 35.1995 68.729 35.8711C68.6149 36.1803 68.4274 36.5706 68.3133 36.9483C68.326 37.1181 68.3488 37.2829 68.3843 37.4451C68.3691 37.6605 68.3513 37.8734 68.3386 38.0888C68.3133 38.4944 68.2271 38.8923 68.2803 39.2953C68.2854 39.3257 68.3032 39.3485 68.3158 39.3713C68.3893 39.9163 69.0787 40.4992 69.6034 40.4181C71.3117 41.1658 73.5193 41.252 75.334 41.3762C77.5695 41.5282 79.696 41.3964 81.5386 40.0354C81.6856 39.9264 81.6096 39.6273 81.4068 39.7084ZM69.3803 36.1195C69.535 35.6912 69.7529 35.2248 69.8949 34.7686C69.9151 34.7635 69.9329 34.761 69.9582 34.7534C69.9861 34.7432 70.0089 34.7255 70.0368 34.7128C70.0647 34.7001 70.0951 34.69 70.123 34.6723C70.1787 34.6342 70.2269 34.5886 70.2674 34.5405C70.4347 34.3352 70.5944 34.1349 70.8098 33.9474C71.2939 33.5241 71.9529 33.2757 72.584 33.0375C73.2633 33.2377 74.1478 33.1591 74.9462 33.1845C76.6469 33.2402 78.3425 33.296 80.0229 33.4075C80.3474 33.6001 80.6794 33.7776 80.9227 34.0412C81.2117 34.3529 81.237 34.7686 81.4372 35.1082C81.2497 35.5543 81.1863 36.0384 81.0697 36.4794C80.9633 36.8925 80.8543 37.3031 80.7428 37.7137C80.7377 37.7163 80.7326 37.7163 80.7301 37.7188C80.2815 37.99 80.2181 38.4589 79.7188 38.7276C79.4451 38.8771 79.0877 38.9379 78.7658 39.0317C76.031 38.8847 73.205 38.7352 70.4043 38.8188C70.2142 38.6794 69.9455 38.5958 69.7453 38.4589C69.2359 38.1066 69.3423 37.5211 69.0914 37.0598C69.208 36.7405 69.2764 36.4084 69.3803 36.1195ZM75.3492 40.811C73.4584 40.7248 71.5854 40.1469 69.7073 40.0709C69.5603 39.9365 69.3803 39.8326 69.208 39.7312C68.9723 39.5918 68.8608 39.3637 68.7112 39.161C68.7999 38.9227 68.8633 38.6693 68.8962 38.4031C70.0368 39.64 72.2672 39.308 73.7829 39.3409C76.4011 39.3992 78.9584 39.9771 81.0925 38.7985C81.2193 38.6135 81.313 38.4209 81.3181 38.2359C81.4322 37.8785 81.5209 37.5236 81.6172 37.1663C81.5893 37.369 81.5614 37.5693 81.5487 37.7746C81.5437 37.8582 81.6273 37.9241 81.7008 37.914C81.4068 38.5729 80.9759 39.1432 80.7478 39.8301C80.7326 39.8782 80.7453 39.9213 80.7732 39.9543C78.9458 40.6335 77.3971 40.9022 75.3492 40.811Z" fill="#009A7E"/>
<path d="M63.6455 42.7428C63.6329 42.6719 63.5822 42.6313 63.529 42.6161C63.4783 42.3753 63.3769 42.1523 63.2628 41.9977C63.0727 41.7366 62.7534 41.506 62.3707 41.397C62.1679 41.3362 61.9525 41.2981 61.7193 41.3108C61.7041 41.2779 61.6711 41.2475 61.6052 41.2272C60.5585 40.9129 59.1239 40.9763 57.9403 40.9002C56.4322 40.8039 54.8988 40.6316 53.335 40.6924C53.2589 40.6949 53.1956 40.7177 53.1423 40.7456C52.3642 40.7127 51.4594 41.1233 50.8663 41.5719C50.3265 41.9799 49.4546 42.8569 49.6979 43.3689C49.594 43.6375 49.5458 43.9189 49.4546 44.1723C49.3278 44.5196 49.1454 44.8769 48.9958 45.2267C49.0034 45.2622 49.0136 45.2951 49.0212 45.3281C48.8818 45.7488 48.8995 46.2177 48.8919 46.6562C48.8843 47.0389 48.8387 47.4596 48.9806 47.8196C48.9096 47.8779 48.9147 48.0071 49.0212 48.0527C50.9905 48.8714 53.3831 49.244 55.4893 49.5177C57.8592 49.8269 60.561 49.9562 62.2237 47.9311C62.2642 47.8829 62.2617 47.8246 62.2414 47.7765C62.4163 47.5661 62.576 47.3405 62.728 47.1149C62.9435 46.7905 63.1488 46.4762 63.2578 46.0986C63.2603 46.0885 63.2527 46.0859 63.2527 46.0783C63.5518 45.6626 63.5188 45.1076 63.5644 44.6083C63.6202 44.005 63.7621 43.3461 63.6455 42.7428ZM50.3797 44.2078C50.4659 43.9239 50.6078 43.5742 50.6154 43.265C50.8942 42.9583 51.0235 42.5477 51.2997 42.2537C51.832 41.6859 52.6329 41.5186 53.3654 41.1587C54.5794 41.3514 55.8999 41.3869 57.1698 41.4654C58.3534 41.5389 59.7068 41.7797 60.9716 41.6859C61.1389 41.7772 61.2783 41.9039 61.4734 41.9673C61.8029 42.0788 62.0893 42.2258 62.2667 42.4564C62.5278 42.8011 62.3681 43.303 62.5481 43.6654C62.4264 43.8682 62.3605 44.0836 62.2693 44.2965C62.0361 44.8364 61.6686 45.3991 61.4886 45.9465C61.4684 45.9617 61.4481 45.9744 61.4303 45.9921C61.0147 46.4078 60.7409 46.8083 60.1631 47.1454C59.8944 47.3 59.5396 47.3811 59.2303 47.4875C59.2101 47.4799 59.1949 47.4673 59.1695 47.4622C58.0518 47.1606 56.5767 47.2721 55.3322 47.2062C53.9661 47.1327 52.5543 46.8463 51.135 46.9122C50.9981 46.8184 50.8232 46.7779 50.6509 46.712C50.405 46.6232 50.2073 46.4914 50.0324 46.3444C49.8576 46.2025 49.7663 46.0175 49.6295 45.8578C50.0172 45.3408 50.2149 44.7426 50.3797 44.2078ZM62.287 46.9908C62.0767 47.262 61.879 47.5534 61.7421 47.8702C59.1771 49.3783 56.7921 49.3023 53.6746 48.7016C52.2476 48.4278 50.8004 47.9057 49.3456 47.8094C49.5027 47.4749 49.4901 47.0921 49.5027 46.7221C49.5053 46.641 49.5053 46.5548 49.5078 46.4712C49.8043 46.8919 50.2403 47.2113 50.9373 47.3785C52.4631 47.741 54.0446 47.7156 55.6059 47.8043C56.3815 47.85 57.1976 47.9767 58.0036 48.0502C58.214 48.0375 58.4193 48.0249 58.6221 47.9944C58.6347 48.0249 58.6525 48.0527 58.6778 48.0679C58.6981 48.0806 58.7209 48.0831 58.7412 48.0933C59.0149 48.1009 59.2886 48.1009 59.5573 48.073C59.5624 48.073 59.57 48.073 59.575 48.0705C59.8691 47.9818 60.1681 47.8449 60.414 47.7182C60.2999 47.8094 60.1732 47.8956 60.0515 47.9818C60.6244 47.8474 61.1161 47.5965 61.5647 47.2797C61.8916 46.9096 62.1248 46.5295 62.1096 46.1848C62.4974 45.7716 62.7204 45.2825 62.9257 44.8288C62.9409 44.7908 62.9612 44.7502 62.9815 44.7097C62.9181 45.1785 62.8522 45.6804 63.0651 46.0859C63.0702 46.0961 63.0829 46.0986 63.093 46.1062C62.7762 46.3546 62.5354 46.6689 62.287 46.9908Z" fill="#009A7E"/>
<path d="M79.3896 44.7406C79.382 44.3047 79.3567 43.8865 79.1843 43.4835C79.1615 43.4353 79.1159 43.4277 79.0753 43.4429C79.017 43.2655 78.9334 43.0957 78.8117 42.9461C78.5025 42.5634 77.9094 42.3125 77.2733 42.3125C77.2631 42.3074 77.2606 42.2998 77.253 42.2948C76.2163 41.836 74.7564 41.9653 73.4968 41.9171C72.2396 41.869 70.9495 41.7118 69.6518 41.8183C69.2818 41.4913 68.3567 41.7245 67.8498 41.9044C67.1477 42.1604 66.5977 42.6319 66.3493 43.154C66.2733 43.1743 66.1998 43.2148 66.1415 43.2883C65.7943 43.7521 65.6574 44.2692 65.4648 44.7558C65.2417 45.3286 64.9629 45.9369 64.8717 46.5224C64.8843 46.5731 64.9021 46.6213 64.9173 46.6719C64.9097 46.966 64.935 47.2625 64.9578 47.554C64.9908 47.9696 64.9578 48.3828 65.1277 48.7731C65.1682 48.8669 65.3051 48.8821 65.3507 48.7807C65.4977 48.4335 65.4749 48.0837 65.447 47.7162C65.5737 47.853 65.7207 47.9722 65.9108 48.0558C66.4 48.2687 66.9297 48.4106 67.4721 48.5146C67.4747 48.5146 67.4772 48.5146 67.4797 48.512C67.9081 48.583 68.3491 48.6388 68.7901 48.6945C69.5631 48.7604 70.3412 48.7832 71.0712 48.8111C72.5488 48.8669 74.024 48.8821 75.5016 48.8871C76.1961 48.8922 76.7587 48.7959 77.2758 48.6083C77.3848 48.4943 77.4938 48.3701 77.5673 48.2383C77.9728 47.8936 78.3023 47.4855 78.2668 47.1206C78.4037 46.7024 78.5279 46.2867 78.647 45.8685C78.7509 45.501 78.8852 45.1157 78.9613 44.7381C78.9511 45.0904 78.9131 45.4528 79.0373 45.7823C79.0728 45.8837 79.2046 45.8888 79.2527 45.7975C79.4226 45.468 79.3947 45.098 79.3896 44.7406ZM77.8689 45.61C77.6915 46.1676 77.5216 46.7277 77.367 47.2878C77.2885 47.3816 77.2124 47.4779 77.1237 47.5717C76.9134 47.7871 76.6928 47.9722 76.4216 48.1471C76.082 48.3676 75.6461 48.5019 75.2507 48.6717C75.2 48.6286 75.1316 48.5957 75.0276 48.5855C72.4982 48.4005 69.9839 48.1825 67.462 47.9848C67.1198 47.7897 66.5597 47.7415 66.2353 47.5388C65.8297 47.2904 65.8449 46.8772 65.6295 46.5579C65.9159 46.0738 66.0807 45.539 66.2581 45.0524C66.4431 44.5429 66.7371 43.9625 66.7701 43.448C66.7777 43.4404 66.7878 43.4379 66.7954 43.4277C67.3048 42.9309 67.8396 42.5381 68.6431 42.3961C68.7495 42.3784 69.0005 42.3429 69.2336 42.2821C70.4806 42.6065 71.9862 42.5685 73.3548 42.6344C74.4092 42.6826 75.5219 42.8498 76.6092 42.6749C77.1871 42.9537 77.8892 43.1033 78.1122 43.6609C78.1578 43.7749 78.1654 44.1653 78.2719 44.4365C78.0818 44.8166 77.9931 45.2222 77.8689 45.61Z" fill="#009A7E"/>
<path d="M59.8739 56.0959C59.0983 57.68 58.6193 59.4161 57.9425 61.0484C57.2202 62.7922 56.2849 64.465 55.6538 66.2442C53.1446 67.9348 50.1767 67.8334 47.2847 67.3848C45.1887 67.0629 43.1129 65.9578 41.0371 65.788C41.3032 65.347 41.2525 64.7691 41.25 64.2698C41.2474 64.1025 41.2474 63.9277 41.2449 63.7502C42.644 65.8717 45.4624 66.0795 48.0831 66.3177C49.1299 66.3887 50.1792 66.4419 51.2234 66.485C51.2336 66.4952 51.2589 66.4952 51.2716 66.5028C51.8419 66.4876 52.3843 66.4267 52.9089 66.3C53.0179 66.2645 53.1269 66.229 53.2333 66.1885C53.2004 66.2062 53.1649 66.224 53.1345 66.2442C53.7833 66.0643 54.4018 65.7652 55.0025 65.3191C55.2508 65.0454 55.4435 64.7615 55.4942 64.503C55.5854 64.3585 55.6589 64.2166 55.7071 64.0721C55.7147 64.0594 55.7273 64.0493 55.7324 64.0392C57.058 61.1701 58.8271 57.941 59.5317 54.9224C59.5444 55.2645 59.5799 55.6042 59.6838 55.9362C59.7167 56.0452 59.8815 56.0274 59.9195 55.9311C60.1603 55.2848 60.1121 54.5954 60.0995 53.9162C60.0919 53.5208 60.0868 53.1203 60.0538 52.7249C60.0995 52.3498 60.064 51.9798 59.9829 51.7643C59.7725 51.2067 59.2428 50.6212 58.4875 50.3652C58.4495 50.2892 58.3684 50.2309 58.229 50.2182C55.6817 49.9699 52.8456 49.5947 50.1488 49.6936C50.1133 49.6125 50.0221 49.5542 49.87 49.5567C48.77 49.5821 47.6066 50.018 46.788 50.6415C46.1822 51.0977 45.4396 51.8682 45.3889 52.5019C43.8124 55.2899 42.6642 58.197 41.511 61.0154C41.3894 61.3196 40.8901 62.1661 40.7633 62.8099C40.776 62.8403 40.7887 62.8657 40.8013 62.8961C40.6543 63.2585 40.6771 63.6641 40.6771 64.0544C40.6797 64.5993 40.5555 65.2887 40.8115 65.7855C40.8267 65.8134 40.8571 65.826 40.885 65.8412C40.8647 65.8767 40.8647 65.9198 40.9002 65.9502C42.8189 67.6306 46.6308 67.9373 49.0843 68.1908C51.1094 68.3986 54.4575 68.5051 55.7375 66.5965C55.778 66.5991 55.8186 66.5889 55.8439 66.5509C56.9617 64.9896 57.6587 63.033 58.414 61.2714C59.111 59.6519 59.8815 57.9309 60.1273 56.1744C60.1451 56.0426 59.9322 55.9768 59.8739 56.0959ZM41.7366 63.0862C42.1751 62.2042 42.393 61.241 42.753 60.3514C43.7744 57.832 45.1937 55.3076 46.091 52.7756C46.5675 52.3245 46.8336 51.7136 47.3126 51.2701C47.8753 50.7505 48.6306 50.4742 49.4188 50.2233C51.8444 50.7657 54.9568 50.8468 57.6612 50.862C57.9983 51.0952 58.3937 51.2777 58.6598 51.5717C58.9792 51.9215 59.0451 52.3802 58.9995 52.8238C58.9893 52.9201 58.8778 53.351 58.9234 53.6348C57.0757 56.8917 56.2419 60.4325 54.7591 63.7401C54.4449 64.1406 54.199 64.5537 53.7504 64.9237C53.2714 65.3166 52.6377 65.5726 52.0193 65.8438C49.4112 65.7145 46.8437 65.4611 44.2382 65.3115C44.2357 65.2482 44.1951 65.1848 44.0988 65.1341C43.5944 64.8604 42.9887 64.6956 42.5426 64.3737C42.0357 64.0037 41.9064 63.6083 41.7062 63.1495C41.7163 63.1293 41.7265 63.1115 41.7366 63.0862Z" fill="#009A7E"/>
<path d="M76.4805 56.017C76.6478 55.2845 76.658 54.4101 76.407 53.7384C76.4223 53.1757 76.0446 52.5801 75.6568 52.2177C75.3907 51.9617 74.8356 51.5612 74.2501 51.4117C74.1944 51.3432 74.1006 51.2875 73.9536 51.2723C71.3937 50.9909 68.74 50.7679 66.0762 50.7958C66.028 50.7476 65.9647 50.7045 65.8785 50.6792C65.1409 50.4739 64.0283 50.849 63.3617 51.2368C62.652 51.6499 61.9018 52.5066 62.1299 53.1124C61.2124 54.6584 60.7815 56.3262 60.2543 57.9103C59.5041 60.1711 58.2875 62.5232 57.773 64.784C57.7705 64.7967 57.7755 64.8068 57.773 64.8195C57.6133 65.3441 57.6387 65.8992 57.6412 66.4441C57.6412 66.951 57.5474 67.5264 57.8541 67.9547C57.8744 67.9826 57.9048 67.9877 57.9352 67.9927C57.9377 68.0156 57.9504 68.0384 57.9758 68.0561C60.1098 69.6377 63.8509 69.663 66.3905 69.7644C68.7349 69.8582 72.5216 69.7239 73.5582 67.1538C73.5607 67.1487 73.5582 67.1437 73.5582 67.1386C73.6038 67.1285 73.6495 67.1107 73.6824 67.0727C74.5974 66.0792 74.79 63.755 75.1651 62.4978C75.7759 60.4524 76.4932 58.3336 76.6098 56.1919C76.6149 56.1057 76.5515 56.0398 76.4805 56.017ZM60.305 60.3561C61.0806 58.0117 62.1451 55.5836 62.7407 53.2239C63.1767 52.8234 63.2806 52.3267 63.8128 51.9465C64.3197 51.5764 64.9432 51.5967 65.5338 51.4649C65.6073 51.4953 65.6935 51.5131 65.7822 51.5156C68.3548 51.579 70.9223 51.7665 73.4416 51.9972C73.652 52.1264 73.9206 52.2177 74.1259 52.3216C74.5746 52.5497 74.8838 52.9071 75.0865 53.2822C75.2412 53.5686 75.2234 54.002 75.4287 54.2757C74.4453 56.714 73.9865 59.2587 73.1476 61.7197C72.6889 63.0681 71.9285 64.4317 71.5508 65.7826C71.5432 65.8105 71.5483 65.8358 71.5483 65.8612C71.2289 66.1476 71.0211 66.5227 70.6485 66.7838C70.3165 67.022 69.8983 67.1183 69.5257 67.2679C69.508 67.2653 69.4953 67.2552 69.4725 67.2552C67.9619 67.1487 66.4513 67.0448 64.9407 66.9384C63.567 66.8395 62.1096 66.6292 60.6852 66.7305C60.6472 66.6646 60.5914 66.6089 60.5027 66.5683C59.9375 66.3225 59.3241 66.249 59.0301 65.7877C58.7792 65.3898 58.982 64.9386 58.8933 64.5305C59.5345 63.1796 59.8564 61.7045 60.305 60.3561ZM74.6835 62.366C74.2603 63.7626 73.2921 65.4683 73.2971 66.9358C73.2971 66.9663 73.3149 66.9891 73.325 67.0144C71.8803 68.2944 70.7347 68.9356 68.8845 69.1257C67.6806 69.2499 66.4589 69.1941 65.255 69.1232C62.7889 68.9812 60.49 68.4008 58.1075 67.8584C58.3052 67.5112 58.2698 67.1031 58.2723 66.7001C58.2723 66.4695 58.2748 66.2338 58.2748 65.9981C58.7412 66.6317 59.3419 67.1133 60.2619 67.3084C60.2721 67.311 60.2847 67.311 60.2949 67.3135C60.2974 67.3135 60.3025 67.3135 60.305 67.311C60.3582 67.3262 60.414 67.3312 60.4672 67.3439C60.7688 67.4022 61.0679 67.4554 61.3721 67.496C62.2034 67.5974 63.0778 67.6227 63.9142 67.6835C63.9446 67.6861 63.975 67.6886 64.008 67.6911C64.4085 67.6987 64.8089 67.7013 65.2094 67.7013C67.3536 67.6937 69.7285 68.0409 71.7308 67.3819C72.1819 66.9789 72.7294 66.3884 72.5849 65.9068C73.6571 64.1428 74.1259 62.1734 74.7165 60.3485C75.2462 58.7137 75.8165 57.0156 76.0598 55.3504C76.0522 55.7078 76.037 56.0651 76.0573 56.425C76.0623 56.4985 76.1206 56.5442 76.184 56.5568C75.6594 58.4856 75.264 60.4448 74.6835 62.366Z" fill="#009A7E"/>
<path d="M53.1015 9.85555C53.3448 9.24472 53.905 8.3044 53.6642 7.79495C53.5704 7.59979 53.2333 7.57444 52.9545 7.80762C52.3538 8.30693 52.1967 9.03688 51.966 9.58435C51.6771 10.2763 51.2817 11.0088 51.1043 11.6906C50.9775 12.1747 51.999 12.1442 52.3082 11.6678C52.6858 11.0848 52.8709 10.441 53.1015 9.85555Z" fill="#009A7E"/>
<path d="M60.1751 7.32878C59.5567 6.96887 58.5226 7.14629 57.6481 7.15389C56.6977 7.1615 55.7472 7.16656 54.7866 7.19444C53.9933 7.21219 53.5878 8.12716 54.3329 8.17532C55.2428 8.23108 56.2009 8.21841 57.1488 8.19813C58.041 8.17785 59.0016 8.31218 59.9419 7.90919C60.2689 7.76725 60.388 7.45297 60.1751 7.32878Z" fill="#009A7E"/>
<path d="M59.5777 10.4889C59.9325 9.64995 60.5636 8.68175 60.4394 7.91125C60.4166 7.75664 60.1175 7.76171 59.9553 7.90871C59.1544 8.63106 58.868 9.59673 58.5131 10.3976C58.2318 11.0364 57.6007 12.0248 57.8947 12.5495C57.9758 12.6914 58.2977 12.7421 58.5131 12.5571C59.2076 11.9589 59.2887 11.1631 59.5777 10.4889Z" fill="#009A7E"/>
<path d="M50.1868 15.4116C50.4884 14.7577 50.7875 14.1012 51.0359 13.4499C51.2184 12.9734 50.3008 12.8821 49.9916 13.3789C49.5709 14.0505 49.2693 14.7298 48.9398 15.4065C48.6382 16.025 48.1135 16.8259 48.1642 17.4038C48.1896 17.7104 48.7193 17.713 49.0386 17.424C49.6647 16.8639 49.9029 16.0326 50.1868 15.4116Z" fill="#009A7E"/>
<path d="M56.2726 17.3497C56.2802 17.3421 56.2853 17.337 56.2929 17.332C56.4373 17.1824 56.5007 16.9999 56.5767 16.8377C56.7541 16.4702 56.9088 16.1027 57.071 15.7327C57.3903 15.0002 57.8339 14.217 57.9048 13.5022C57.9378 13.1829 57.3548 13.0055 57.0304 13.411C56.1154 14.5617 55.6541 15.9912 55.1979 17.185C55.1574 17.2914 55.1777 17.3725 55.2182 17.4384C55.1903 17.4181 55.165 17.3979 55.127 17.3852C54.5389 17.185 53.5986 17.2762 52.8915 17.2737C51.8447 17.2661 50.6155 17.1875 49.485 17.4866C49.0973 17.5905 48.859 18.0163 49.1834 18.1227C49.9362 18.3661 50.9525 18.2875 51.8422 18.3078C52.7242 18.3255 53.7254 18.4548 54.6555 18.328C55.2055 18.2545 55.4945 17.7932 55.3196 17.5297C55.4869 17.626 55.7707 17.626 56.0191 17.5195C56.0166 17.5221 56.0141 17.5246 56.0115 17.5271C56.0166 17.5246 56.0217 17.5221 56.0267 17.5195C56.0571 17.5068 56.08 17.4866 56.1078 17.4714C56.1332 17.4587 56.156 17.4435 56.1788 17.4283C56.2143 17.4029 56.2447 17.3776 56.2726 17.3497Z" fill="#009A7E"/>
<path d="M65.1026 8.05895C65.1026 7.71172 64.4234 7.55965 64.1192 8.03107C63.6731 8.71287 63.478 9.4048 63.2068 10.0967C62.9254 10.8166 62.6137 11.544 62.3881 12.2612C62.2158 12.8188 63.2651 12.7935 63.5717 12.2562C64.2916 10.9914 65.1102 9.28568 65.1026 8.05895Z" fill="#009A7E"/>
<path d="M62.9203 13.4478C62.9736 13.0423 62.1625 13.1259 61.9243 13.5036C61.1005 14.8215 60.7685 16.3296 60.3402 17.6602C60.1551 18.2457 61.2805 18.1494 61.4934 17.5791C61.9978 16.2384 62.7581 14.7582 62.9203 13.4478Z" fill="#009A7E"/>
<path d="M75.5499 7.72508C74.754 7.45389 73.7554 7.46909 72.8227 7.43108C71.8925 7.39559 70.8331 7.26633 69.8268 7.53753C69.3833 7.65919 69.1298 8.1002 69.5075 8.23707C70.2679 8.51587 71.3324 8.43983 72.2499 8.46264C73.1801 8.48545 74.1026 8.62739 75.0759 8.5184C75.5397 8.46771 75.9884 7.87716 75.5499 7.72508Z" fill="#009A7E"/>
<path d="M76.5364 7.93743C76.4806 7.7955 76.2373 7.76255 76.0624 7.92476C75.3198 8.60909 75.1373 9.54434 74.8027 10.3148C74.4935 11.0271 73.5937 12.1879 73.8142 12.8215C73.87 12.9812 74.0829 13.0623 74.3237 12.928C75.1297 12.4819 75.3451 11.6024 75.6543 10.9536C76.0801 10.0563 76.8506 8.72061 76.5364 7.93743Z" fill="#009A7E"/>
<path d="M73.3982 13.2242C73.198 12.5804 71.8674 12.7021 71.0969 12.6413C70.2706 12.5728 68.9197 12.3042 68.025 12.7477C67.8121 12.8542 67.6904 13.0671 67.8197 13.1887C68.3114 13.6475 69.6243 13.5106 70.4328 13.5689C71.2134 13.6247 72.3464 14.0378 73.1879 13.5816C73.3374 13.5005 73.4337 13.3357 73.3982 13.2242Z" fill="#009A7E"/>
<path d="M71.4866 18.3642C71.2687 17.6545 69.9481 17.766 69.0915 17.7026C68.0929 17.6317 66.7825 17.5202 65.6318 17.804C66.2401 16.922 66.6684 16.045 66.965 15.1402C67.1703 14.5167 67.3958 13.8552 67.0866 13.3609C66.9751 13.181 66.6127 13.252 66.4353 13.4547C65.8903 14.0808 65.8067 14.8056 65.5608 15.4646C65.2972 16.1616 64.9399 16.8713 64.5115 17.5556C64.3037 17.8877 64.5014 18.1183 64.8005 18.1715C64.7219 18.2932 64.7371 18.425 64.8892 18.4833C65.903 18.8609 67.4719 18.7013 68.6707 18.7798C69.4438 18.8305 70.3993 19.2056 71.2154 18.7393C71.3675 18.6531 71.5272 18.496 71.4866 18.3642Z" fill="#009A7E"/>
<path d="M85.8378 7.76175C85.0419 7.37143 83.5693 7.63503 82.5555 7.60968C81.6507 7.58434 80.5988 7.32835 79.623 7.71867C79.4431 7.78963 79.3671 7.95692 79.4684 8.05069C80.1654 8.69954 82.0131 8.51452 83.1486 8.5424C83.9293 8.56014 84.8797 8.6894 85.6781 8.30922C85.9442 8.18249 86.0608 7.87074 85.8378 7.76175Z" fill="#009A7E"/>
<path d="M86.6473 8.57584C86.5966 8.3452 86.2392 8.38575 86.0288 8.56063C85.4484 9.05487 85.2659 9.89381 85.0099 10.4768C84.688 11.2143 84.4016 11.9595 84.1279 12.697C84.1051 12.7553 84.1051 12.8035 84.1076 12.8491C84.0443 12.8212 83.9657 12.8035 83.8719 12.8009C82.2092 12.7705 80.3464 12.588 78.6076 12.8795C78.1134 12.9632 77.8752 13.5638 78.3086 13.6652C79.8293 14.0277 81.8848 13.8072 83.5652 13.8426C84.0924 13.8528 84.3991 13.3991 84.318 13.0874C84.6069 13.1634 85.0986 12.9986 85.2355 12.6286C85.5168 11.8606 85.8362 11.0927 86.1403 10.3247C86.3583 9.77469 86.7638 9.09036 86.6473 8.57584Z" fill="#009A7E"/>
<path d="M83.5514 18.3477C83.5057 18.4617 83.4652 18.558 83.5514 18.3477V18.3477Z" fill="#009A7E"/>
<path d="M83.8534 17.5518C84.0359 17.0474 84.1803 16.538 84.3248 16.0336C84.5225 15.3341 85.1333 14.0592 84.4515 13.6511C84.378 13.608 84.2285 13.6258 84.1373 13.679C83.4656 14.0592 83.425 14.7714 83.2679 15.3062C82.9739 16.2972 82.7458 17.2907 82.3909 18.2818C82.1907 18.8394 83.3237 18.9053 83.5518 18.3476C83.5847 18.2691 83.6202 18.1854 83.6227 18.1778C83.7064 17.97 83.7799 17.7622 83.8534 17.5518Z" fill="#009A7E"/>
<path d="M81.7851 18.1007C80.0083 18.0525 78.0618 17.7762 76.2065 18.0348C75.806 18.0931 75.5779 18.3465 75.5627 18.5772L75.5399 18.5518C75.4816 18.7723 75.6666 18.9041 75.8897 18.9548C77.4611 19.3096 79.5014 19.1601 81.2199 19.2159C82.0867 19.2463 82.6595 18.1235 81.7851 18.1007Z" fill="#009A7E"/>
<path d="M25.5556 47.9621C25.5404 47.9165 25.4999 47.8785 25.4238 47.8582C24.4734 47.625 23.2061 47.658 22.1543 47.5845C20.522 47.4755 18.8011 47.1587 17.0547 47.3361C15.7545 47.3006 14.0969 48.1091 13.4329 48.9455C13.3594 48.9785 13.2909 49.0216 13.2453 49.0773C12.9006 49.5082 12.5838 49.9872 12.381 50.4333C12.234 50.7603 12.0034 51.1126 11.8665 51.4497C11.8133 51.5587 11.7778 51.6676 11.755 51.7766C11.7575 51.7893 11.7677 51.7994 11.7702 51.8147C11.755 51.8273 11.7398 51.84 11.7296 51.8603C11.5953 52.134 11.6257 52.5269 11.608 52.8259C11.5877 53.1833 11.5193 53.5762 11.6942 53.9057C11.722 53.9564 11.793 53.9614 11.8437 53.9335C11.8462 53.9361 11.8437 53.9462 11.8488 53.9488C14.9739 55.5962 21.2646 57.0004 24.5748 55.1045C24.6381 55.1425 24.7167 55.1577 24.7902 55.0893C25.254 54.6508 25.695 54.1769 26.0651 53.6522C26.3971 53.1808 26.899 52.537 26.8204 51.9414C26.8179 51.9211 26.8001 51.9059 26.7824 51.8907C26.9294 51.6347 26.9091 51.3179 26.9268 51.0188C26.9522 50.5905 26.9674 50.1469 26.8812 49.7236C27.2031 48.9329 26.6632 48.1015 25.5556 47.9621ZM12.5382 51.2571C12.7004 51.0644 12.8474 50.8667 13.0096 50.6868C13.3923 50.2584 13.6787 49.7794 13.8713 49.3207C13.8865 49.3105 13.9043 49.3004 13.917 49.2877C14.3504 48.8492 14.6748 48.4792 15.3743 48.17C15.9243 47.9266 16.4895 47.8531 17.0522 47.6909C18.2967 48.0128 19.8934 47.99 21.2925 48.0813C22.4229 48.1548 23.6725 48.3448 24.8764 48.2992C24.8916 48.3195 24.9093 48.3347 24.9397 48.3499C25.3782 48.5603 25.7863 48.7124 26.0195 49.0545C26.2146 49.3409 26.1817 49.678 26.1639 50.01C25.9789 50.2939 25.8826 50.5879 25.7559 50.8819C25.5075 51.4725 25.2363 52.0605 24.9651 52.6511C22.1188 55.2059 16.7176 53.1884 13.4937 53.1478C13.225 52.9527 12.855 52.7981 12.6674 52.5623C12.3557 52.1695 12.5331 51.7031 12.5382 51.2571ZM25.8978 53.1073C25.5303 53.7333 25.0589 54.2934 24.5215 54.7801C24.5038 54.7978 24.5063 54.8181 24.4962 54.8358C22.1365 55.0893 20.114 55.4593 17.6985 55.1045C15.7469 54.8181 13.884 53.9893 11.9223 53.8296C12.0895 53.5407 12.0819 53.1782 12.0946 52.8513C12.0997 52.7448 12.1073 52.6282 12.1124 52.5091C12.4672 53.0059 13.0147 53.3658 13.6812 53.6167C14.6647 53.8626 15.7621 54.0527 16.8875 54.1895C17.9875 54.2605 19.0368 54.2529 19.7718 54.2909C20.3345 54.3188 20.9453 54.3796 21.5612 54.4126C22.2987 54.3543 22.9679 54.2301 23.5483 54.0045C23.5305 54.0172 23.5103 54.0273 23.49 54.04C23.6674 53.9817 23.8423 53.9259 24.0146 53.8651C24.405 53.7282 24.775 53.561 25.14 53.3835C25.3858 53.1149 25.5328 52.8437 25.4948 52.5953C25.7762 52.1137 26.1285 51.5511 26.3642 51.0061C26.3236 51.3584 26.2881 51.7412 26.496 52.0276C26.5061 52.0402 26.5188 52.0377 26.5315 52.0453C26.2628 52.3469 26.098 52.7676 25.8978 53.1073Z" fill="#009A7E"/>
<path d="M39.7218 62.2381C39.7775 62.0404 39.5266 61.9415 39.41 62.0936C39.0628 62.5422 38.8144 63.0694 38.5331 63.5611C38.2999 63.9641 38.0059 64.4001 37.8487 64.8563C33.4893 66.8155 28.9018 64.9196 24.446 64.2632C24.337 64.248 24.2458 64.4051 24.3674 64.4609C27.011 65.6623 30.1995 66.1768 33.0812 66.3111C34.7667 66.3922 37.3545 66.339 38.4063 64.8005C38.4241 64.7752 38.4241 64.7524 38.4165 64.727C38.5914 64.4888 38.7409 64.2252 38.8752 63.9895C39.1946 63.4344 39.5494 62.8565 39.7218 62.2381Z" fill="#009A7E"/>
<path d="M79.6744 45.5019C79.6795 45.3727 79.4995 45.3144 79.4184 45.4056C79.0078 45.8695 78.8076 46.531 78.5744 47.0987C78.3564 47.6284 78.108 48.1455 77.8901 48.6727C73.7055 51.3188 69.7035 49.0402 65.2477 48.9844C65.0627 48.9844 64.9968 49.2607 65.1869 49.3165C67.9166 50.1199 71.0189 50.4443 73.8551 50.4773C75.4265 50.4925 77.3527 50.0743 78.2424 48.6879C78.2677 48.6499 78.2576 48.6068 78.2322 48.5738C78.5136 48.1683 78.767 47.745 79.0027 47.3116C79.2993 46.7616 79.6465 46.1356 79.6744 45.5019Z" fill="#009A7E"/>
<path d="M51.2742 36.2828C51.2742 36.2017 51.1577 36.1358 51.0918 36.1941C50.5874 36.6351 50.2782 37.3042 49.8118 37.7985C49.1325 38.5132 48.2961 38.7996 47.4547 39.2406H47.4521C45.8908 38.9846 44.2991 38.8731 42.7252 38.6982C41.1208 38.5183 39.372 38.1279 37.7777 38.46C37.7118 38.4726 37.7042 38.5766 37.7651 38.6019C39.2452 39.2203 41.0068 39.195 42.5934 39.342C44.2459 39.4941 45.9035 39.712 47.5637 39.7501C47.7563 39.7526 47.8196 39.6005 47.7892 39.4611C49.2821 39.2938 51.2742 37.8111 51.2742 36.2828Z" fill="#009A7E"/>
<path d="M61.9649 24.0806C56.5739 23.1505 50.899 23.0364 45.4371 22.7348C45.2444 22.7221 45.1836 23.0085 45.3838 23.0364C50.7976 23.8398 56.4751 24.1161 61.9446 24.2606C62.0587 24.2657 62.084 24.1009 61.9649 24.0806Z" fill="#009A7E"/>
<path d="M57.99 25.7869C53.585 24.8897 48.891 24.6261 44.4124 24.3498C44.2907 24.3422 44.2654 24.5374 44.3845 24.5602C48.782 25.4017 53.4861 25.8097 57.9596 25.9897C58.0737 25.9948 58.1066 25.8097 57.99 25.7869Z" fill="#009A7E"/>
<path d="M54.549 27.3623C51.097 26.9314 47.6221 26.6121 44.1472 26.4397C43.9445 26.4296 43.8988 26.7337 44.1092 26.7591C47.5663 27.1671 51.0514 27.4054 54.5313 27.5498C54.6504 27.5549 54.6682 27.3775 54.549 27.3623Z" fill="#009A7E"/>
<path d="M51.1322 28.6198C48.4253 28.0647 45.4472 27.9912 42.6947 28.1661C42.502 28.1788 42.5223 28.4475 42.7073 28.4601C45.4852 28.6604 48.3467 28.891 51.1322 28.8657C51.2792 28.8631 51.2615 28.6452 51.1322 28.6198Z" fill="#009A7E"/>
<path d="M47.0084 29.6432C45.9338 29.3796 44.8008 29.443 43.7034 29.4988C43.5792 29.5038 43.5614 29.6914 43.6958 29.699C44.7882 29.7497 45.8831 29.8207 46.978 29.846C47.0946 29.8485 47.125 29.6711 47.0084 29.6432Z" fill="#009A7E"/>
<path d="M54.673 58.2013C53.7605 57.5676 52.2601 57.5321 51.046 57.451C51.4617 56.4043 51.8419 55.3321 51.9711 54.2372C52.0091 53.9001 51.6163 53.7607 51.4287 54.0395C50.7495 55.0483 50.3135 56.2066 49.8725 57.342C49.3884 57.2939 48.9018 57.2508 48.4177 57.2381C47.8804 57.2229 47.67 57.4029 47.234 57.4941C47.1225 57.5195 47.1377 57.6817 47.2391 57.7095C47.49 57.7754 47.6903 58.0036 47.9995 58.072C48.4861 58.181 48.9829 58.2545 49.4822 58.3178C48.9423 59.5877 48.22 60.9766 48.2833 62.3478C48.296 62.6088 48.6179 62.6291 48.7624 62.477C49.6368 61.5519 49.9536 60.1858 50.4149 59.0148C50.4859 58.8324 50.5594 58.6473 50.6354 58.4623C51.8495 58.622 53.4361 59.1112 54.6248 58.736C54.8909 58.6524 54.8732 58.3381 54.673 58.2013Z" fill="#009A7E"/>
<path d="M72.0754 59.0077C71.0894 58.5033 69.9388 58.4957 68.854 58.3664C67.4447 58.1992 65.9646 57.9381 64.5427 58.0344C64.0991 58.0648 63.9014 58.7111 64.3906 58.8556C65.6021 59.2181 66.8795 59.3017 68.1316 59.4588C69.409 59.621 70.7904 59.9429 72.0551 59.6261C72.3643 59.5501 72.3086 59.1268 72.0754 59.0077Z" fill="#009A7E"/>
<path d="M72.0417 53.5324C69.786 54.8707 67.4947 56.2647 65.4645 57.9552C65.3733 58.0313 65.4798 58.158 65.5761 58.0971C66.8763 57.2962 68.1562 56.4598 69.4362 55.6234C70.3461 55.0253 71.4106 54.4753 72.138 53.649C72.1963 53.5831 72.1152 53.4893 72.0417 53.5324Z" fill="#009A7E"/>
<path d="M73.3116 54.0783C69.4058 56.6002 65.6268 59.3578 61.7717 61.9633C61.6881 62.019 61.7667 62.1407 61.8528 62.0925C65.898 59.8469 69.862 57.1831 73.4408 54.2456C73.5346 54.1695 73.413 54.0124 73.3116 54.0783Z" fill="#009A7E"/>
<path d="M73.4592 55.7936C69.4952 58.5791 65.2371 60.9616 61.3263 63.8104C61.2401 63.8738 61.3289 64.0183 61.4226 63.9701C65.6807 61.7321 69.7689 58.8858 73.5809 55.9609C73.6721 55.89 73.5555 55.7252 73.4592 55.7936Z" fill="#009A7E"/>
<path d="M69.7409 60.4748C68.0174 61.6027 66.228 62.5988 64.474 63.6709C64.3929 63.7216 64.4639 63.8483 64.5501 63.8179C66.489 63.1412 68.2024 61.8409 69.8853 60.6978C70.0121 60.6117 69.8676 60.3937 69.7409 60.4748Z" fill="#009A7E"/>
<path d="M71.599 42.8148C69.8628 43.9604 67.9517 44.9615 66.3271 46.2643C66.2637 46.315 66.3448 46.4113 66.4107 46.3758C68.2407 45.3848 69.9794 44.115 71.7105 42.9567C71.8068 42.8933 71.6953 42.7514 71.599 42.8148Z" fill="#009A7E"/>
<path d="M72.5841 43.4791C70.9189 44.5487 68.9749 45.4105 67.4466 46.6676C67.3477 46.7487 67.4668 46.8729 67.5657 46.8349C69.3855 46.1353 71.1141 44.8174 72.7184 43.7224C72.868 43.6236 72.7387 43.3777 72.5841 43.4791Z" fill="#009A7E"/>
<path d="M74.2884 43.3015C72.4382 44.513 70.2838 45.6662 68.7124 47.2351C68.6338 47.3162 68.7352 47.4708 68.8391 47.4226C70.8592 46.5051 72.6942 44.8881 74.476 43.5828C74.6331 43.4687 74.4506 43.195 74.2884 43.3015Z" fill="#009A7E"/>
<path d="M74.8351 44.869C74.4169 45.1351 73.9911 45.3835 73.5576 45.6268C73.109 45.8803 72.6046 46.1236 72.2701 46.519C72.1839 46.6204 72.303 46.7446 72.412 46.7116C72.8328 46.5874 73.2155 46.3137 73.5855 46.0881C74.0722 45.7941 74.5613 45.5001 75.0328 45.1808C75.2279 45.0464 75.0353 44.7397 74.8351 44.869Z" fill="#009A7E"/>
<path d="M77.8946 33.5406C75.6262 34.7369 73.3451 35.9992 71.1957 37.3982C71.1222 37.4438 71.1805 37.5554 71.2591 37.5174C73.5681 36.3945 75.7706 34.9904 77.963 33.6623C78.0416 33.6141 77.9757 33.4975 77.8946 33.5406Z" fill="#009A7E"/>
<path d="M78.8677 34.7897C76.6905 35.8086 74.1128 36.9441 72.2829 38.5231C72.1967 38.5991 72.3006 38.7487 72.3995 38.7081C74.6958 37.8134 76.8197 36.1634 78.9893 34.9823C79.1211 34.9088 78.9944 34.7289 78.8677 34.7897Z" fill="#009A7E"/>
<path d="M79.5597 35.7318C78.0871 36.3857 76.5207 37.1917 75.3827 38.3576C75.2484 38.497 75.4537 38.6617 75.5956 38.5831C77.0074 37.8025 78.3177 36.8394 79.7219 36.0384C79.9196 35.9269 79.7624 35.643 79.5597 35.7318Z" fill="#009A7E"/>
<path d="M73.325 24.3435C71.642 25.0329 69.8324 26.0644 68.4409 27.2379C68.3421 27.3216 68.4662 27.4534 68.5702 27.4077C70.2303 26.6474 71.9437 25.6082 73.434 24.5538C73.5455 24.4752 73.4517 24.2902 73.325 24.3435Z" fill="#009A7E"/>
<path d="M75.7473 24.6313C73.9452 25.2929 71.7579 26.2459 70.4197 27.6677C70.3386 27.7539 70.4475 27.906 70.554 27.8553C71.474 27.432 72.2876 26.7654 73.1545 26.2383C74.0111 25.7161 74.9109 25.2574 75.8309 24.8569C75.9729 24.7961 75.8943 24.5781 75.7473 24.6313Z" fill="#009A7E"/>
<path d="M78.0386 24.7728C76.4469 25.3937 74.8881 26.2834 73.5575 27.353C73.4358 27.4493 73.5803 27.6546 73.7121 27.576C75.1796 26.7092 76.6927 25.8931 78.1324 24.9781C78.2388 24.9122 78.1603 24.7272 78.0386 24.7728Z" fill="#009A7E"/>
<path d="M78.2851 26.1612C77.7148 26.4451 77.071 26.6884 76.5742 27.0964C76.4931 27.1623 76.5742 27.2967 76.6706 27.2713C77.2864 27.1218 77.8643 26.7492 78.4295 26.4653C78.6222 26.369 78.4802 26.0649 78.2851 26.1612Z" fill="#009A7E"/>
<path d="M59.9165 33.0567C58.1652 33.6371 56.5126 34.6941 55.0172 35.756C54.8474 35.8777 55.0274 36.1058 55.2023 36.012C56.8142 35.1199 58.4541 34.2302 60.0281 33.2671C60.1472 33.1936 60.0407 33.0162 59.9165 33.0567Z" fill="#009A7E"/>
<path d="M61.8739 32.9029C59.826 33.9472 57.5981 35.0902 55.8873 36.6439C55.7859 36.7352 55.8797 36.9303 56.014 36.8619C58.0999 35.8025 60.0008 34.3172 62.0386 33.1564C62.2084 33.0601 62.0437 32.8167 61.8739 32.9029Z" fill="#009A7E"/>
<path d="M62.9983 33.8734C61.3737 34.654 59.4855 35.536 58.1827 36.8135C58.1041 36.892 58.1852 37.0137 58.2866 36.9731C60.0202 36.3243 61.5587 35.0545 63.1935 34.1851C63.4064 34.0711 63.2062 33.7745 62.9983 33.8734Z" fill="#009A7E"/>
<path d="M62.5752 35.445C62.1114 35.7542 61.6171 36.0203 61.1761 36.36C61.0722 36.4411 61.1508 36.6058 61.28 36.5703C61.8275 36.4107 62.2938 36.071 62.7602 35.7568C62.9528 35.625 62.7703 35.3157 62.5752 35.445Z" fill="#009A7E"/>
<path d="M57.3442 41.957C55.6562 42.9835 53.6564 43.8554 52.3334 45.3786C52.2624 45.4597 52.3384 45.5991 52.4449 45.5434C54.2241 44.5955 55.6587 43.0342 57.4405 42.0939C57.5317 42.0432 57.4354 41.8987 57.3442 41.957Z" fill="#009A7E"/>
<path d="M60.1859 41.9068C58.1607 42.8573 55.7935 44.117 54.3285 45.8303C54.2727 45.8937 54.3513 46.0027 54.4273 45.9672C55.3601 45.5211 56.1762 44.8317 57.0151 44.231C58.0695 43.4783 59.1746 42.7863 60.3024 42.1476C60.452 42.064 60.343 41.8333 60.1859 41.9068Z" fill="#009A7E"/>
<path d="M60.7437 42.8764C60.0974 43.1907 59.4917 43.5658 58.9138 43.9916C58.4221 44.3566 57.7808 44.8204 57.5857 45.4236C57.5603 45.5022 57.6414 45.5808 57.7175 45.5428C58.2801 45.2766 58.7161 44.6962 59.1951 44.2983C59.7172 43.8674 60.29 43.4999 60.8857 43.178C61.0732 43.0766 60.9389 42.7801 60.7437 42.8764Z" fill="#009A7E"/>
<path d="M59.5314 44.9844C59.4756 44.9844 59.4756 45.068 59.5314 45.068C59.5846 45.068 59.5871 44.9844 59.5314 44.9844Z" fill="#009A7E"/>
<path d="M56.4996 52.657C54.8218 53.5263 53.3441 54.9583 51.8538 56.109C50.0163 57.5258 48.1863 58.9503 46.3437 60.3569C46.2246 60.4482 46.3462 60.6357 46.4729 60.5521C48.2497 59.4065 49.9453 58.1493 51.6282 56.8719C53.2858 55.6148 55.2273 54.3576 56.6086 52.7938C56.6669 52.7305 56.5782 52.6164 56.4996 52.657Z" fill="#009A7E"/>
<path d="M55.7295 54.6144C52.574 56.969 49.4311 59.3617 46.4404 61.9241C46.3086 62.0382 46.4961 62.2485 46.633 62.1522C49.8544 59.8965 52.8579 57.3391 55.9145 54.8704C56.0691 54.7437 55.8943 54.4928 55.7295 54.6144Z" fill="#009A7E"/>
<path d="M54.8581 57.4456C52.5973 58.9714 50.0526 60.5099 48.1872 62.5249C48.1061 62.6136 48.21 62.7555 48.3165 62.6947C50.704 61.3184 52.828 59.3567 55.0761 57.7574C55.2763 57.6129 55.0609 57.3062 54.8581 57.4456Z" fill="#009A7E"/>
<path d="M52.8454 60.6126C52.45 60.9421 52.0521 61.2665 51.6542 61.5935C51.1878 61.9737 50.6683 62.3336 50.3134 62.8278C50.2501 62.9191 50.3666 63.0154 50.4503 62.9748C50.9318 62.7493 51.3196 62.3716 51.7201 62.032C52.1788 61.6417 52.6351 61.2539 53.0938 60.8686C53.2687 60.7191 53.0203 60.4707 52.8454 60.6126Z" fill="#009A7E"/>
<path d="M44.3245 32.0437C43.0521 32.7128 41.6404 33.4782 40.6316 34.525C40.553 34.6087 40.6468 34.7455 40.7533 34.6898C42.0586 34.013 43.2346 33.0499 44.4994 32.2971C44.6717 32.1932 44.4968 31.9524 44.3245 32.0437Z" fill="#009A7E"/>
<path d="M45.918 32.4752C44.2426 33.6031 42.2834 34.6017 40.783 35.9526C40.6993 36.0261 40.788 36.1528 40.8869 36.1123C42.7473 35.3772 44.5012 33.9148 46.0726 32.6982C46.1943 32.6019 46.0472 32.389 45.918 32.4752Z" fill="#009A7E"/>
<path d="M48.3543 32.6502C46.5243 33.5981 44.6133 34.7082 43.0596 36.0718C42.9658 36.1554 43.0393 36.3481 43.1711 36.2847C45.0416 35.3495 46.6511 33.8946 48.4582 32.8352C48.5773 32.7642 48.4759 32.5868 48.3543 32.6502Z" fill="#009A7E"/>
<path d="M49.3326 33.4489C48.2909 33.8595 47.0033 34.3639 46.4178 35.3904C46.3443 35.5171 46.5141 35.6743 46.6333 35.583C47.5533 34.8759 48.4227 34.2549 49.477 33.7506C49.6722 33.6593 49.5328 33.3704 49.3326 33.4489Z" fill="#009A7E"/>
<path d="M39.1186 41.4103C37.8766 41.9299 36.4674 42.5534 35.6183 43.6661C35.5322 43.7802 35.6665 43.9069 35.7831 43.841C36.5308 43.4177 37.2075 42.8652 37.9324 42.4039C38.3709 42.1251 38.7434 41.7779 39.1642 41.4965C39.2123 41.4661 39.1693 41.3875 39.1186 41.4103Z" fill="#009A7E"/>
<path d="M41.065 41.1934C39.2173 42.116 37.3342 43.2996 35.8819 44.7849C35.7551 44.9142 35.9427 45.1042 36.0846 45.0155C37.836 43.8902 39.41 42.5215 41.1994 41.4393C41.354 41.3455 41.2272 41.1098 41.065 41.1934Z" fill="#009A7E"/>
<path d="M43.5006 41.0228C41.3817 42.024 39.2223 43.5143 37.6331 45.2352C37.5545 45.3214 37.6559 45.4735 37.7623 45.4051C39.7646 44.12 41.6985 42.6652 43.6476 41.2965C43.7921 41.1952 43.6628 40.9442 43.5006 41.0228Z" fill="#009A7E"/>
<path d="M44.3625 41.999C43.7947 42.2017 43.2878 42.511 42.8037 42.8658C42.3146 43.2282 41.6708 43.6667 41.4351 44.2446C41.3945 44.3434 41.4655 44.5057 41.5998 44.4524C41.9395 44.3181 42.1878 44.0672 42.4565 43.8239C43.0977 43.2409 43.7517 42.7391 44.5044 42.3259C44.6844 42.2296 44.5551 41.928 44.3625 41.999Z" fill="#009A7E"/>
<path d="M44.2866 43.6993C43.8304 43.9882 43.288 44.1352 42.8622 44.4698C42.7152 44.5864 42.8723 44.8094 43.032 44.7689C43.5567 44.6371 44.0864 44.3608 44.5401 44.0693C44.7834 43.9122 44.5299 43.5447 44.2866 43.6993Z" fill="#009A7E"/>
<path d="M35.4619 50.3284C34.1718 51.1598 32.5421 52.1128 31.6347 53.3801C31.5612 53.4814 31.6626 53.6158 31.7818 53.5524C32.4737 53.1773 33.0592 52.5791 33.6776 52.09C34.3315 51.5704 34.993 51.0635 35.6774 50.5844C35.8573 50.4577 35.6393 50.2144 35.4619 50.3284Z" fill="#009A7E"/>
<path d="M37.6512 50.7633C37.0023 51.1587 36.3763 51.5795 35.7655 52.0306C35.1698 52.4691 34.4678 52.9228 34.0546 53.5437C33.9963 53.6325 34.1053 53.7313 34.1915 53.6882C34.853 53.3714 35.4081 52.7935 35.9809 52.3424C36.5765 51.8785 37.1873 51.4299 37.7956 50.9838C37.9173 50.8951 37.7804 50.6848 37.6512 50.7633Z" fill="#009A7E"/>
<path d="M38.6111 51.3284C38.0459 51.7112 37.4858 52.0888 36.9662 52.5298C36.5505 52.8821 36.0107 53.3155 35.8789 53.8681C35.851 53.9771 35.9853 54.0328 36.0664 53.9847C36.5201 53.716 36.8547 53.1939 37.2475 52.8365C37.7392 52.3904 38.274 51.9874 38.8037 51.5844C38.971 51.4577 38.7809 51.2144 38.6111 51.3284Z" fill="#009A7E"/>
<path d="M39.0373 52.6118C38.6824 52.9464 38.249 53.1796 37.9018 53.5217C37.8156 53.6054 37.9297 53.7549 38.0361 53.7118C38.4822 53.5192 38.8852 53.2049 39.2324 52.8703C39.3794 52.7259 39.1893 52.4699 39.0373 52.6118Z" fill="#009A7E"/>
<path d="M31.7659 58.4944C30.6229 59.4373 29.3125 60.2154 28.2277 61.214C28.1339 61.2976 28.2024 61.4877 28.3367 61.4244C29.68 60.7933 30.8738 59.6983 31.9586 58.6997C32.0929 58.5755 31.9028 58.3829 31.7659 58.4944Z" fill="#009A7E"/>
<path d="M33.6436 58.9031C32.9618 59.3872 32.3028 59.8941 31.6489 60.4137C30.9722 60.951 30.2194 61.43 29.6086 62.0409C29.4743 62.1752 29.6187 62.4084 29.7987 62.3222C31.2966 61.5897 32.5588 60.2058 33.816 59.1287C33.9402 59.0222 33.7754 58.8068 33.6436 58.9031Z" fill="#009A7E"/>
<path d="M34.4978 60.19C33.7425 60.6158 32.7286 61.0264 32.313 61.84C32.2522 61.9566 32.4169 62.058 32.5107 61.987C32.8604 61.7158 33.1722 61.4066 33.5321 61.1481C33.8895 60.8896 34.2722 60.6741 34.6422 60.4409C34.7994 60.3421 34.66 60.0988 34.4978 60.19Z" fill="#009A7E"/>
<path d="M34.6803 61.3994C34.4953 61.4374 34.3863 61.5388 34.219 61.6174C34.0872 61.6782 34.1506 61.8784 34.2824 61.881C34.4548 61.8835 34.5815 61.8303 34.7488 61.7973C34.9997 61.7441 34.9338 61.3462 34.6803 61.3994Z" fill="#009A7E"/>
<path d="M14.2498 57.4746C13.4362 57.9536 12.6226 58.4326 11.809 58.9142C10.9954 59.3932 10.0475 59.8418 9.38087 60.5211C9.29723 60.6047 9.40114 60.7441 9.5076 60.7087C10.3871 60.402 11.1931 59.7759 11.9788 59.2792C12.7898 58.7697 13.5958 58.2628 14.3866 57.7204C14.5336 57.619 14.4094 57.3808 14.2498 57.4746Z" fill="#009A7E"/>
<path d="M16.8138 57.8996C14.814 58.84 12.2845 60.0008 10.9311 61.8054C10.8525 61.9093 10.9767 62.0589 11.0907 62.0006C11.9753 61.557 12.723 60.8676 13.5315 60.2999C14.6315 59.5268 15.7771 58.7918 16.9582 58.148C17.123 58.0593 16.9785 57.8236 16.8138 57.8996Z" fill="#009A7E"/>
<path d="M18.938 58.1862C17.3412 59.0707 15.2806 60.1428 14.2034 61.6686C14.1223 61.7802 14.2642 61.9272 14.3808 61.8638C15.1311 61.4532 15.7596 60.817 16.4338 60.2949C17.293 59.6334 18.1928 59.015 19.1128 58.4396C19.2827 58.3332 19.1078 58.0898 18.938 58.1862Z" fill="#009A7E"/>
<path d="M18.6294 60.2994C18.1047 60.6695 17.3824 60.9559 17.0453 61.5287C16.9718 61.6554 17.1213 61.7872 17.243 61.7239C17.8082 61.4273 18.343 60.9964 18.8499 60.6112C19.0451 60.4616 18.8322 60.155 18.6294 60.2994Z" fill="#009A7E"/>
<path d="M18.8417 48.9155C18.0154 49.3261 17.2221 49.7722 16.4465 50.2664C15.6786 50.7531 14.7965 51.2524 14.2288 51.9747C14.1604 52.0609 14.2846 52.1572 14.3682 52.1192C15.1818 51.739 15.8991 51.08 16.6493 50.5782C17.4021 50.0738 18.1751 49.5948 18.9507 49.1284C19.0673 49.0575 18.9633 48.8547 18.8417 48.9155Z" fill="#009A7E"/>
<path d="M21.2476 49.2138C19.5444 50.1643 17.4864 51.2997 16.2191 52.8053C16.143 52.894 16.252 53.0562 16.361 52.9979C17.2101 52.5417 17.9527 51.8903 18.7359 51.3327C19.623 50.7016 20.5126 50.0806 21.3693 49.409C21.4834 49.3177 21.3769 49.1428 21.2476 49.2138Z" fill="#009A7E"/>
<path d="M22.6492 49.7032C22.1169 50.0048 21.61 50.3419 21.1158 50.7069C20.6976 51.0161 20.1704 51.3532 19.9119 51.812C19.8434 51.9336 19.9575 52.0502 20.0817 52.0071C20.5683 51.8373 20.9789 51.3963 21.3768 51.0769C21.8356 50.7094 22.3172 50.3723 22.8165 50.0682C23.0344 49.9364 22.8798 49.5739 22.6492 49.7032Z" fill="#009A7E"/>
<path d="M22.6667 50.9898C22.3042 51.1292 21.886 51.3548 21.6174 51.6412C21.5312 51.7349 21.6148 51.92 21.7492 51.8946C22.1293 51.8211 22.4335 51.4866 22.801 51.3497C23.0317 51.2635 22.8973 50.9036 22.6667 50.9898Z" fill="#009A7E"/>
<path d="M24.8108 39.7626C23.2318 40.708 21.4931 41.7244 20.2157 43.0702C20.1143 43.1767 20.2309 43.3769 20.3728 43.2933C21.9721 42.3453 23.4041 41.0679 24.935 40.0085C25.0769 39.9096 24.9654 39.6714 24.8108 39.7626Z" fill="#009A7E"/>
<path d="M26.2425 40.5043C24.8637 41.2749 23.2441 42.1746 22.1998 43.3811C22.1137 43.4799 22.248 43.632 22.3595 43.5737C23.0439 43.2265 23.6369 42.679 24.2478 42.2152C24.9372 41.6905 25.6342 41.1735 26.3565 40.6944C26.4731 40.6159 26.3667 40.4334 26.2425 40.5043Z" fill="#009A7E"/>
<path d="M26.7723 41.4711C26.3921 41.7398 26.0144 42.011 25.6444 42.2923C25.3808 42.4875 25.0285 42.67 24.8714 42.964C24.8181 43.0654 24.9195 43.2073 25.0336 43.1845C25.3681 43.1161 25.6393 42.8119 25.9004 42.6016C26.2578 42.3126 26.6101 42.0186 26.9649 41.7271C27.1271 41.5979 26.9421 41.352 26.7723 41.4711Z" fill="#009A7E"/>
<path d="M27.4989 42.1877C27.2175 42.3271 26.8779 42.431 26.6625 42.6692C26.5966 42.7402 26.6422 42.8492 26.7436 42.8365C27.0705 42.8061 27.3721 42.5856 27.6636 42.4386C27.836 42.3524 27.6712 42.1015 27.4989 42.1877Z" fill="#009A7E"/>
<path d="M27.9687 32.081C27.5074 32.2736 27.0842 32.5524 26.671 32.8363C26.2097 33.1556 25.6775 33.4801 25.3556 33.9515C25.2948 34.0351 25.3632 34.1897 25.4823 34.1365C25.9056 33.9515 26.2655 33.6372 26.6355 33.3609C27.1222 33.001 27.6443 32.6715 28.0752 32.2432C28.1512 32.1646 28.0726 32.0379 27.9687 32.081Z" fill="#009A7E"/>
<path d="M30.9494 31.5967C29.3045 32.4027 27.4238 33.3861 26.2275 34.8105C26.1566 34.8967 26.2377 35.0361 26.3467 34.9778C27.9992 34.1059 29.4996 32.8513 31.099 31.8704C31.2485 31.7766 31.1091 31.5181 30.9494 31.5967Z" fill="#009A7E"/>
<path d="M32.9619 31.6279C32.0394 32.0714 31.1599 32.591 30.2905 33.1258C29.2108 33.7899 27.9283 34.4337 27.0716 35.379C26.9981 35.4601 27.0818 35.6072 27.1882 35.5641C28.126 35.1966 28.9396 34.5173 29.7735 33.9648C30.8659 33.2449 31.9912 32.5784 33.0735 31.8408C33.1824 31.7648 33.0861 31.5696 32.9619 31.6279Z" fill="#009A7E"/>
<path d="M33.2461 32.7723C32.7138 33.0334 32.1993 33.3096 31.6924 33.6163C31.1348 33.956 30.4631 34.288 30.0576 34.8101C29.9841 34.9039 30.0779 35.0357 30.192 34.9977C30.7622 34.8076 31.2565 34.3767 31.7507 34.0472C32.2855 33.6924 32.8203 33.335 33.3576 32.9852C33.4691 32.9117 33.3703 32.714 33.2461 32.7723Z" fill="#009A7E"/>
<path d="M34.5121 21.9092C32.8824 22.9103 31.1665 23.8887 29.7497 25.1864C29.6103 25.3156 29.7674 25.564 29.9398 25.4677C31.6126 24.535 33.1967 23.364 34.6566 22.1297C34.7707 22.0334 34.6439 21.8281 34.5121 21.9092Z" fill="#009A7E"/>
<path d="M35.5021 23.3361C34.7443 23.6985 34.0194 24.1041 33.3072 24.5527C32.5975 24.9988 31.7408 25.4347 31.2111 26.0962C31.1477 26.1748 31.2086 26.3167 31.3226 26.2762C32.1362 25.9974 32.8459 25.3409 33.553 24.8619C34.2297 24.4082 34.9242 23.9748 35.6364 23.582C35.7986 23.4932 35.6643 23.2575 35.5021 23.3361Z" fill="#009A7E"/>
<path d="M35.9194 24.3073C35.3947 24.5328 34.8929 24.799 34.4062 25.1031C33.9855 25.3667 33.4533 25.6607 33.1897 26.0967C33.1288 26.198 33.2099 26.3324 33.3341 26.2868C33.8056 26.1144 34.1984 25.6987 34.6141 25.4149C35.0754 25.1006 35.5671 24.8395 36.074 24.6114C36.2742 24.5176 36.1196 24.2186 35.9194 24.3073Z" fill="#009A7E"/>
<path d="M36.6023 25.016C36.0218 25.4418 35.2919 25.7156 34.7546 26.187C34.6126 26.3112 34.7495 26.5292 34.9244 26.4633C35.5834 26.2225 36.255 25.7434 36.8202 25.3278C37.0205 25.1808 36.8 24.8716 36.6023 25.016Z" fill="#009A7E"/>
<path d="M43.8129 3.18068C41.3569 3.65211 38.1988 5.01316 37.0203 7.38551C36.9442 7.53251 37.109 7.65417 37.2357 7.56039C38.2521 6.80002 39.0809 5.84196 40.1403 5.12215C41.2733 4.35418 42.5659 3.82952 43.8737 3.44934C44.041 3.40118 43.9878 3.14773 43.8129 3.18068Z" fill="#009A7E"/>
<path d="M42.5327 2.61427C40.4341 3.00713 38.1884 4.06658 37.0073 5.93201C36.911 6.08408 37.0935 6.28685 37.2405 6.15758C38.9209 4.69514 40.3555 3.44307 42.5834 2.87533C42.7506 2.83478 42.7025 2.58132 42.5327 2.61427Z" fill="#009A7E"/>
<path d="M41.0652 1.8798C39.6458 2.41966 38.1682 3.18257 37.1645 4.35607C37.0479 4.49293 37.2228 4.67542 37.3673 4.58417C38.6599 3.77058 39.7954 2.81252 41.1995 2.17888C41.3922 2.09271 41.2629 1.80377 41.0652 1.8798Z" fill="#009A7E"/>
<path d="M92.4994 6.64065C92.1547 5.74595 91.2677 5.29987 90.378 5.13765C90.1854 5.10217 90.0511 5.40378 90.2513 5.47982C90.8495 5.70793 91.3766 6.00194 91.7594 6.52913C92.2511 7.20078 92.0179 7.99663 92.0483 8.74686C92.0559 8.90401 92.2359 8.92682 92.317 8.81783C92.7706 8.21461 92.758 7.31737 92.4994 6.64065Z" fill="#009A7E"/>
<path d="M93.3685 5.28586C92.9934 4.53817 92.2533 4.15798 91.4397 4.32019C91.2952 4.35061 91.3104 4.56351 91.4447 4.599C92.0353 4.7536 92.4636 5.11351 92.75 5.64577C93.0136 6.13494 92.9756 6.74323 93.3254 7.18171C93.409 7.28563 93.6042 7.25521 93.6625 7.13862C93.9438 6.56074 93.6371 5.81558 93.3685 5.28586Z" fill="#009A7E"/>
<path d="M94.5144 3.9064C94.1874 3.45524 93.7439 3.24741 93.2142 3.12068C92.9962 3.06746 92.9126 3.41976 93.1153 3.49833C93.5259 3.65548 93.8934 3.91146 94.1089 4.30179C94.2939 4.63381 94.2229 5.19902 94.5195 5.43727C94.5701 5.48036 94.6563 5.48796 94.7096 5.44234C95.1201 5.0951 94.7678 4.26123 94.5144 3.9064Z" fill="#009A7E"/>
<path d="M23.7814 26.2396C22.4533 27.9428 21.0086 29.7398 20.0936 31.7091C20.0556 31.7902 20.1671 31.8688 20.2254 31.7978C21.5865 30.0971 22.7042 28.1684 23.9664 26.3916C24.0551 26.2674 23.8777 26.1154 23.7814 26.2396Z" fill="#009A7E"/>
<path d="M24.6003 26.816C24.0807 27.6853 23.518 28.5243 22.9452 29.3581C22.2837 30.3213 21.4245 31.2134 20.915 32.2653C20.8669 32.3641 20.9936 32.4832 21.0874 32.4123C22.7627 31.1501 23.9464 28.7955 24.8588 26.9554C24.945 26.7856 24.6966 26.6538 24.6003 26.816Z" fill="#009A7E"/>
<path d="M25.3053 27.9613C25.0012 28.5569 24.6641 29.1424 24.2814 29.6898C24.0076 30.0776 23.6528 30.4097 23.4576 30.8456C23.4069 30.9622 23.5565 31.0534 23.6528 31.0078C24.0963 30.7949 24.3827 30.3666 24.6539 29.9687C25.0493 29.3857 25.3484 28.7571 25.5816 28.0956C25.6475 27.9106 25.3966 27.7813 25.3053 27.9613Z" fill="#009A7E"/>
<path d="M13.8991 42.96C12.7966 44.5822 11.5369 46.2372 10.6396 47.9785C10.5687 48.1128 10.7588 48.1939 10.85 48.1026C12.2161 46.7112 13.2857 44.8255 14.1677 43.0944C14.259 42.9169 14.003 42.8054 13.8991 42.96Z" fill="#009A7E"/>
<path d="M15.2207 43.2377C14.7189 43.9246 14.2272 44.6191 13.7481 45.3211C13.264 46.0334 12.6405 46.7329 12.3516 47.5516C12.311 47.6605 12.4403 47.7822 12.5391 47.6986C13.2083 47.1435 13.6569 46.3096 14.141 45.5923C14.62 44.8776 15.0534 44.135 15.4311 43.3619C15.4944 43.2352 15.3018 43.1262 15.2207 43.2377Z" fill="#009A7E"/>
<path d="M15.3486 44.5245C15.1129 44.8616 14.8974 45.2089 14.6744 45.5561C14.4083 45.9768 14.094 46.3849 13.9014 46.8437C13.8431 46.9831 14.0281 47.0591 14.1244 46.9856C14.8391 46.4533 15.2117 45.4243 15.5868 44.6411C15.6527 44.5017 15.4322 44.4054 15.3486 44.5245Z" fill="#009A7E"/>
<path d="M8.83017 51.4043C7.34492 53.0061 5.85967 55.1985 5.05622 57.2464C4.99793 57.3934 5.19055 57.5582 5.30207 57.4163C6.70115 55.6471 7.97603 53.5232 8.97718 51.4905C9.02534 51.3967 8.89354 51.3359 8.83017 51.4043Z" fill="#009A7E"/>
<path d="M9.51478 52.6413C8.28805 54.1468 6.95488 55.7436 6.23506 57.571C6.18944 57.685 6.34912 57.7332 6.41502 57.6546C7.65441 56.1618 8.67584 54.4383 9.73275 52.8161C9.81639 52.6844 9.61616 52.5171 9.51478 52.6413Z" fill="#009A7E"/>
<path d="M9.9277 53.9C9.51457 54.2954 9.13692 54.7212 8.79729 55.1774C8.52102 55.5475 8.12816 55.9733 8.05973 56.4422C8.04199 56.5613 8.17632 56.6095 8.2625 56.5562C8.69337 56.2977 8.96964 55.6843 9.25097 55.2915C9.53231 54.8986 9.82632 54.5159 10.1533 54.156C10.2977 53.9963 10.0899 53.7454 9.9277 53.9Z" fill="#009A7E"/>
<path d="M23.7541 64.9122C22.8594 64.8184 21.9749 64.7297 21.0776 64.6815C20.8444 64.6689 20.5783 64.6461 20.3832 64.7855C20.2514 64.8792 20.4313 65.0465 20.4643 65.0034C20.4085 65.0769 21.6023 65.1783 21.7189 65.1834C22.4007 65.2189 23.0622 65.2011 23.7414 65.1428C23.8707 65.1327 23.8884 64.9249 23.7541 64.9122Z" fill="#009A7E"/>
<path d="M23.901 66.0657C23.3611 65.9085 22.8137 65.939 22.2535 65.9415C21.407 65.9491 20.5604 65.9491 19.7164 66.0403C19.5644 66.0581 19.5846 66.2837 19.7266 66.2989C20.3704 66.3698 21.0141 66.385 21.663 66.3901C22.398 66.3977 23.1888 66.4814 23.901 66.2735C24.0049 66.2431 24.0049 66.0961 23.901 66.0657Z" fill="#009A7E"/>
<path d="M7.28912 69.1522C7.1776 68.2474 7.13958 67.3349 7.06608 66.425C7.05087 66.2324 6.74673 66.2603 6.73405 66.4453C6.68336 67.1854 6.64534 67.9204 6.65295 68.6656C6.65802 69.2561 6.60479 70.1584 7.08636 70.5741C7.15986 70.6375 7.28659 70.6146 7.32461 70.5234C7.51723 70.0849 7.34488 69.6135 7.28912 69.1522Z" fill="#009A7E"/>
<path d="M8.9646 69.3845C8.81253 68.3605 8.60977 67.3366 8.51092 66.305C8.48811 66.0617 8.16368 66.0896 8.14341 66.3227C8.07751 67.1718 8.1282 68.0183 8.21184 68.8649C8.24732 69.2273 8.22958 70.2107 8.72129 70.3096C9.15216 70.3983 8.98742 69.5492 8.9646 69.3845Z" fill="#009A7E"/>
<path d="M10.3611 68.8316C10.3256 68.1676 10.2978 67.506 10.2724 66.8395C10.2623 66.5708 9.81113 66.5936 9.80352 66.8572C9.77818 67.6024 9.75283 68.35 9.76297 69.0927C9.77311 69.6249 9.72242 70.2687 10.0798 70.6945C10.1356 70.7604 10.2623 70.7477 10.3028 70.6666C10.569 70.1394 10.3915 69.4095 10.3611 68.8316Z" fill="#009A7E"/>
<path d="M12.0848 69.314C12.0722 68.3509 12.0215 67.3878 11.9809 66.4246C11.9682 66.1661 11.5348 66.161 11.5222 66.4221C11.4816 67.2864 11.4334 68.1532 11.4208 69.02C11.4106 69.7474 11.2814 70.5509 11.5754 71.2302C11.6337 71.367 11.8491 71.4126 11.9175 71.253C12.1862 70.6345 12.095 69.9806 12.0848 69.314Z" fill="#009A7E"/>
<path d="M13.8815 69.6961C13.8258 68.7406 13.7523 67.7825 13.552 66.8422C13.4988 66.5938 13.0806 66.5837 13.0831 66.8599C13.0882 67.7597 13.0983 68.6569 13.1262 69.5542C13.1313 69.7417 13.1262 71.2878 13.6686 71.0065C14.0868 70.7885 13.9043 70.0687 13.8815 69.6961Z" fill="#009A7E"/>
<path d="M15.6513 69.8789C15.5093 69.121 15.4536 68.3556 15.3953 67.5851C15.3775 67.3342 15.0227 67.3063 14.9593 67.5471C14.7667 68.2821 14.8427 69.0754 14.9416 69.8155C15.0176 70.3782 15.0582 70.918 15.5271 71.2754C15.6082 71.3362 15.7222 71.2754 15.7324 71.1791C15.7526 70.989 15.8211 70.9003 15.8033 70.7001C15.7805 70.4238 15.702 70.1501 15.6513 69.8789Z" fill="#009A7E"/>
<path d="M17.319 70.258C17.2709 69.3177 17.2405 68.3571 17.1163 67.4269C17.0808 67.1709 16.693 67.1608 16.6575 67.4219C16.5967 67.873 16.1126 71.8599 17.0453 71.7534C17.5623 71.6951 17.3368 70.5596 17.319 70.258Z" fill="#009A7E"/>
<path d="M19.0269 70.2269C18.9736 69.4767 18.9077 68.658 18.6036 67.961C18.5377 67.8089 18.307 67.8469 18.2918 68.0117C18.2183 68.7771 18.307 69.5654 18.3501 70.3308C18.3628 70.5234 18.2716 71.8921 18.7835 71.7375C19.26 71.593 19.0522 70.5665 19.0269 70.2269Z" fill="#009A7E"/>
<path d="M20.7962 69.8716C20.781 69.2456 20.7353 68.5866 20.5959 67.9733C20.5605 67.8136 20.3298 67.8617 20.2994 67.9986C20.1803 68.541 20.1625 69.1011 20.1144 69.6511C20.0941 69.8995 20.0941 70.1555 20.0966 70.4064C20.0966 70.6852 20.2006 70.7587 20.2512 70.9209C20.3019 71.0882 20.5985 71.1719 20.6441 70.9514C20.6745 70.8018 20.7835 70.7258 20.7987 70.5484C20.8165 70.3228 20.8038 70.0972 20.7962 69.8716Z" fill="#009A7E"/>
<path d="M22.8183 68.0005C22.7726 67.7419 22.4102 67.7343 22.362 67.9929C22.2759 68.4542 22.2708 68.9459 22.2429 69.4122C22.2176 69.7975 22.1035 70.1929 22.2936 70.5477C22.3494 70.6542 22.4964 70.6592 22.5775 70.5832C22.8107 70.3551 22.8411 70.0535 22.8639 69.7341C22.907 69.1638 22.9247 68.5631 22.8183 68.0005Z" fill="#009A7E"/>
<path d="M24.6535 67.9575C24.6104 67.7522 24.2429 67.7649 24.2302 67.9778C24.1973 68.4644 24.0959 68.9662 24.0325 69.4478C24.0072 69.6354 23.9869 69.8356 24.0452 70.0181C24.0782 70.1321 24.1415 70.1524 24.1466 70.1879C24.1669 70.378 24.4127 70.3577 24.4583 70.193C24.4685 70.1473 24.6307 70.0383 24.6459 69.9192C24.6712 69.7165 24.689 69.5137 24.6966 69.3084C24.7143 68.8648 24.7447 68.396 24.6535 67.9575Z" fill="#009A7E"/>
<path d="M26.1337 68.4306C26.1235 68.1316 25.6268 68.1138 25.6115 68.4129C25.5938 68.7196 25.5786 69.0263 25.5735 69.3355C25.5685 69.6219 25.5127 69.9336 25.7433 70.1389C25.8118 70.2023 25.9081 70.2226 25.9841 70.1541C26.1742 69.9793 26.1717 69.8069 26.1692 69.556C26.1666 69.1783 26.1463 68.8058 26.1337 68.4306Z" fill="#009A7E"/>
<path d="M27.5908 68.866C27.5782 68.4782 27.018 68.5289 27.0028 68.9014C26.9851 69.3323 26.8812 69.7607 26.8938 70.189C26.9014 70.407 27.2233 70.5261 27.3551 70.3385C27.6517 69.9102 27.6086 69.3653 27.5908 68.866Z" fill="#009A7E"/>
<path d="M62.6749 71.6746C62.6039 71.5403 62.3708 71.5479 62.3632 71.7253C62.3403 72.3311 62.2719 73.2004 62.6546 73.7124C62.7611 73.8543 62.9689 73.7884 63.0019 73.6262C63.1261 73.0407 62.9562 72.2018 62.6749 71.6746Z" fill="#009A7E"/>
<path d="M64.5426 74.1459C64.5325 73.3298 64.5401 72.5137 64.4387 71.7026C64.4083 71.4618 64.0611 71.5074 64.0332 71.7254C63.947 72.4072 63.947 73.0915 63.9369 73.7759C63.9318 74.4019 63.8609 75.0558 64.0611 75.654C64.1244 75.8415 64.3602 75.8035 64.4159 75.6362C64.5832 75.1597 64.5503 74.6477 64.5426 74.1459Z" fill="#009A7E"/>
<path d="M65.9816 74.1923C65.9765 73.4117 65.9359 72.626 65.8295 71.8479C65.8016 71.6451 65.5177 71.6958 65.4924 71.8758C65.4037 72.5322 65.3783 73.1861 65.3505 73.8476C65.315 74.6257 65.2313 75.5027 65.4823 76.2479C65.5355 76.4075 65.794 76.4025 65.8447 76.2453C66.0652 75.5863 65.9892 74.8817 65.9816 74.1923Z" fill="#009A7E"/>
<path d="M67.4335 74.9974C67.4284 74.0444 67.436 73.0559 67.2307 72.1232C67.1977 71.9762 66.9747 71.9964 66.9468 72.1333C66.7643 72.9368 66.7795 73.7681 66.7491 74.5868C66.7238 75.3116 66.6047 76.1379 66.9392 76.7994C67.0051 76.9287 67.1724 76.9287 67.2358 76.7994C67.5272 76.2342 67.4385 75.6234 67.4335 74.9974Z" fill="#009A7E"/>
<path d="M68.5522 72.6744C68.4888 72.4691 68.1492 72.5476 68.1847 72.7605C68.2759 73.3435 68.3241 73.9315 68.3139 74.5221C68.3013 75.1785 68.0529 75.873 68.2303 76.5092C68.2582 76.6181 68.4204 76.6435 68.4913 76.5573C69.2314 75.617 68.8715 73.7338 68.5522 72.6744Z" fill="#009A7E"/>
<path d="M70.2397 74.1305C70.2346 73.5247 70.227 72.8886 70.0977 72.2929C70.0597 72.1206 69.8265 72.1079 69.786 72.2879C69.6745 72.8176 69.677 73.3625 69.6517 73.8998C69.6289 74.5081 69.4971 75.2837 69.7885 75.8286C69.8494 75.9427 70.0318 75.9503 70.0952 75.8312C70.3664 75.3217 70.2448 74.6957 70.2397 74.1305Z" fill="#009A7E"/>
<path d="M71.6874 74.2862C71.6823 73.6703 71.6494 73.057 71.5885 72.4411C71.5657 72.2053 71.1805 72.1471 71.1526 72.4056C71.1019 72.8897 71.0639 73.3788 71.0538 73.868C71.0436 74.3724 70.965 74.9503 71.2134 75.404C71.2793 75.5231 71.4618 75.5155 71.5252 75.3989C71.7153 75.0517 71.6899 74.6791 71.6874 74.2862Z" fill="#009A7E"/>
<path d="M77.0529 69.5342C77.0453 69.1515 77.0858 68.6598 76.9667 68.2644C76.9692 68.2188 76.954 68.1782 76.9236 68.1427C76.9084 68.1098 76.9033 68.0692 76.8856 68.0414C76.8222 67.9222 76.7006 68.0059 76.6752 68.0971C76.6499 68.1174 76.6321 68.1453 76.622 68.1884C76.5079 68.6725 76.5333 69.1971 76.5206 69.6939C76.5105 70.0563 76.3685 70.9029 76.7158 71.1386C76.7665 71.1741 76.8324 71.1614 76.8805 71.1234C77.2227 70.8573 77.0579 69.9043 77.0529 69.5342Z" fill="#009A7E"/>
<path d="M77.9604 65.3157C77.9502 65.0952 77.6207 65.0825 77.6131 65.3081C77.565 66.5221 77.347 67.8883 77.641 69.0795C77.6816 69.2417 77.9046 69.1885 77.9375 69.0542C78.2265 67.8807 78.011 66.512 77.9604 65.3157Z" fill="#009A7E"/>
<path d="M78.7306 64.7317C78.6951 63.9536 78.614 63.1983 78.4873 62.4278C78.4645 62.2808 78.2161 62.2935 78.2237 62.4455C78.2541 63.1983 78.2516 63.9536 78.2465 64.7038C78.2414 65.2538 78.1248 65.8697 78.3783 66.3741C78.4214 66.4603 78.5684 66.4805 78.6165 66.3868C78.87 65.8824 78.7559 65.2817 78.7306 64.7317Z" fill="#009A7E"/>
<path d="M79.6026 62.0866C79.6026 61.5341 79.5696 60.9816 79.5519 60.4265C79.5418 60.2034 79.1692 60.2085 79.159 60.4316C79.1388 60.979 79.1083 61.529 79.1083 62.079C79.1058 62.52 79.0577 62.9585 79.2351 63.3716C79.2858 63.4882 79.4404 63.4553 79.4835 63.3539C79.6583 62.956 79.6051 62.515 79.6026 62.0866Z" fill="#009A7E"/>
<path d="M80.4295 58.5918C80.4295 58.3105 79.9961 58.3231 79.9961 58.6019C79.9935 59.1012 79.8795 59.7628 80.0924 60.2266C80.1456 60.3457 80.2926 60.3077 80.3382 60.2114C80.5537 59.7653 80.4295 59.0734 80.4295 58.5918Z" fill="#009A7E"/>
</svg>
