<svg width="158" height="135" viewBox="0 0 158 135" fill="none" xmlns="http://www.w3.org/2000/svg">
<path d="M148.427 66.3888C148.412 66.3493 148.401 66.3089 148.374 66.2656C148.29 66.14 148.207 66.0145 148.123 65.8889C148.103 65.8037 148.052 65.7306 147.982 65.6744C134.871 46.1149 123.924 25.2385 110.519 5.8474C110.16 5.33075 109.319 5.72879 109.625 6.31193C109.514 6.25621 109.385 6.23853 109.263 6.29883C100.549 10.6945 91.9119 15.3742 83.4417 20.2284C79.1203 22.704 74.905 25.346 70.8184 28.1954C67.2407 30.6837 63.2873 33.3746 60.4756 36.7662C60.3841 36.7523 60.2854 36.7515 60.1805 36.7925C50.6077 40.4718 41.4441 44.6754 32.6833 50.0287C24.6628 54.9253 16.3818 60.2102 9.20026 66.2772C9.08867 66.3712 9.06185 66.5065 9.08653 66.6306C9.05919 66.726 9.05353 66.8333 9.09746 66.9484C10.9541 71.8958 14.1054 76.45 16.9758 80.8514C20.2691 85.9008 23.5249 90.972 26.7133 96.0879C33.1099 106.351 39.0173 116.98 45.7117 127.048C45.7339 127.074 45.7575 127.093 45.7854 127.114C45.8341 127.195 45.8896 127.274 45.9417 127.354C45.9177 127.448 45.8793 127.543 45.8553 127.637C45.7608 128.007 46.2228 128.232 46.4883 128.065C46.5866 128.179 46.6797 128.287 46.7674 128.389C46.703 128.546 46.63 128.698 46.57 128.858C46.4678 129.124 46.8612 129.212 46.9967 129.024C47.1097 128.871 47.2212 128.726 47.3342 128.573C47.3544 128.567 47.3746 128.561 47.3939 128.552C47.4685 128.545 47.5426 128.524 47.6075 128.458C55.3253 120.943 64.0793 116.379 73.8691 112.109C82.2846 108.437 91.1453 104.601 97.7409 98.0169C98.0028 97.9892 98.2538 97.7203 98.1991 97.4151C107.387 95.115 115.425 87.8397 122.757 82.2328C130.675 76.177 138.84 70.692 148.335 67.4287C148.863 67.2481 148.789 66.6204 148.427 66.3888ZM146.911 65.6278C138.413 66.1003 130.556 71.5807 124.22 76.7961C120.2 80.1042 116.409 83.6817 112.409 87.0095C111.157 88.0468 109.858 88.9845 108.54 89.8804C111.76 87.2394 114.845 84.444 117.944 81.6591C126.147 74.2855 135.177 66.9702 146.221 64.619C146.451 64.9538 146.683 65.292 146.911 65.6278ZM47.1579 127.552C47.0735 127.448 46.995 127.34 46.9106 127.236C50.3411 118.96 57.894 113.005 65.7426 109.073C72.9258 105.478 80.7601 103.898 88.3123 101.462C86.2539 102.471 84.1757 103.45 82.0261 104.307C77.2078 106.233 72.3508 108.049 67.6541 110.271C63.2846 112.338 59.2314 114.922 55.5755 118.078C52.4458 120.781 49.0459 123.787 47.1579 127.552ZM83.6476 106.249C79.3327 108.493 74.8354 110.381 70.4057 112.377C64.0353 115.247 57.296 118.42 51.8618 123.016C53.2174 121.526 54.6524 120.097 56.2713 118.699C60.7598 114.823 65.8661 112.02 71.2655 109.629C75.6067 107.706 80.0836 106.09 84.4823 104.303C86.8999 103.325 89.4907 102.316 91.9268 101.085C89.2988 102.969 86.5956 104.718 83.6476 106.249ZM96.88 97.3414C95.4932 97.947 94.13 98.5969 92.7741 99.2593C83.4566 101.236 73.8334 104.218 65.2869 108.285C57.989 111.76 49.0285 118.21 46.2564 126.341C46.1547 126.202 46.0573 126.066 45.946 125.945C40.4566 115.502 33.8846 105.582 27.6034 95.6066C21.5695 86.0237 15.6839 76.4493 9.9719 66.6793C17.993 61.9757 25.31 56.0121 33.2371 51.1204C37.4871 48.4976 41.8697 46.0956 46.3609 43.9067C50.9223 41.6832 55.781 40.14 60.3415 37.9386C72.5577 57.7107 84.8057 77.4665 97.0084 97.2426C96.9637 97.2773 96.9213 97.3076 96.88 97.3414ZM97.7837 96.5899C97.7698 96.6049 97.7703 96.6193 97.7607 96.6366C91.6706 86.7563 85.4921 76.9488 79.5127 66.9966C73.5488 57.0728 67.7394 46.7473 60.961 37.3525C60.9653 37.3294 60.9686 37.3029 60.9652 37.2784C64.6026 34.8204 67.8498 31.7268 71.437 29.1701C75.8237 26.0451 80.4554 23.2654 85.1237 20.5882C89.46 18.101 93.8726 15.7525 98.2759 13.3846C102.107 11.3231 106.316 9.63808 109.745 6.92272C109.814 6.87017 109.846 6.80611 109.865 6.74254C115.561 17.0821 122.949 26.4917 128.896 36.712C134.269 45.9485 139.67 54.9765 145.655 63.793C136.523 65.8182 128.72 71.2687 121.656 77.1998C117.864 80.3878 114.214 83.7427 110.45 86.9663C106.416 90.4203 101.757 93.1278 97.7837 96.5899ZM111.776 88.8063C115.177 86.0332 118.355 82.9012 121.359 80.2932C128.836 73.8095 137.13 67.6677 147.246 66.5527C138.679 69.2653 131.068 74.3834 123.948 79.7219C119.896 82.7581 115.916 85.8904 111.776 88.8063Z" fill="#009A7E"/>
<path d="M82.1982 97.2034C75.4334 99.0672 68.7102 101.966 62.4263 105.073C56.8549 107.831 50.7302 111.761 47.4536 117.193C47.2628 117.506 47.7267 117.738 47.9513 117.517C50.3953 115.106 52.5899 112.689 55.3602 110.615C58.622 108.17 62.3221 106.325 66.0224 104.658C71.2948 102.282 77.621 100.974 82.4038 97.7168C82.6573 97.5456 82.5192 97.1149 82.1982 97.2034Z" fill="#009A7E"/>
<path d="M83.3272 92.1805C76.0035 94.4599 68.5156 96.6625 61.4366 99.6301C55.0276 102.314 47.5274 106.216 44.4928 112.873C44.3838 113.115 44.6902 113.345 44.8763 113.142C47.4831 110.345 49.8787 107.689 53.0451 105.508C56.0902 103.413 59.5095 101.86 62.9265 100.49C69.7462 97.7497 77.1632 96.3039 83.6576 92.8113C84.0334 92.6087 83.6925 92.0684 83.3272 92.1805Z" fill="#009A7E"/>
<path d="M79.9671 86.3279C72.3545 89.0111 64.4834 91.7209 57.1174 95.048C51.1979 97.7231 44.9067 101.734 41.7476 107.587C41.5852 107.886 42.0072 108.162 42.2284 107.916C44.4903 105.43 46.6002 102.972 49.2775 100.892C52.3815 98.481 55.9701 96.8063 59.5647 95.2794C62.9355 93.8494 66.4206 92.6784 69.8725 91.4549C73.3999 90.2024 77.3826 89.3043 80.2993 86.8634C80.5869 86.6204 80.2982 86.2111 79.9671 86.3279Z" fill="#009A7E"/>
<path d="M68.5414 82.9211C62.8131 83.835 56.6561 86.7751 51.4513 89.3364C46.8254 91.6149 42.269 94.9236 40.1597 99.7726C40.0036 100.131 40.5339 100.34 40.7435 100.054C44.0822 95.5629 47.9157 92.4543 52.9395 89.9741C58.0119 87.4727 63.9543 86.3516 68.7407 83.3744C68.9663 83.2331 68.7782 82.8823 68.5414 82.9211Z" fill="#009A7E"/>
<path d="M100.649 22.0378C92.2429 23.9386 81.8731 29.2247 76.5715 36.24C76.3518 36.5291 76.7498 36.8998 77.0269 36.6709C80.6473 33.7218 84.0883 30.8206 88.161 28.482C92.2212 26.1507 96.6659 24.6387 100.78 22.4305C100.986 22.3239 100.888 21.9837 100.649 22.0378Z" fill="#009A7E"/>
<path d="M112.75 23.7159C105.595 26.8622 98.5374 30.3886 91.7112 34.1989C85.6394 37.5886 78.5915 41.7322 74.5504 47.562C74.4062 47.771 74.6919 47.9917 74.8747 47.8408C80.8655 42.9102 86.4908 38.3069 93.3074 34.514C96.5863 32.6875 99.9515 31.0221 103.312 29.3544C106.578 27.7358 110.089 26.4771 113.103 24.402C113.506 24.1262 113.217 23.5127 112.75 23.7159Z" fill="#009A7E"/>
<path d="M119 30.2129C114.538 31.5 110.31 33.741 106.085 35.6494C102.253 37.3793 98.4427 39.1577 94.7326 41.1335C89.3871 43.9794 81.0287 48.3968 78.9974 54.5726C78.9071 54.8427 79.2053 55.0306 79.4112 54.833C81.7345 52.5733 83.5887 50.0762 86.162 48.0145C89.721 45.1561 93.7784 42.9166 97.8244 40.8409C104.771 37.2732 112.489 34.8407 119.213 30.9285C119.549 30.7298 119.438 30.0872 119 30.2129Z" fill="#009A7E"/>
<path d="M125.053 37.3352C117.375 41.2369 109.775 45.1341 101.979 48.8067C94.9094 52.1363 87.1776 55.9037 81.9808 61.9119C81.7812 62.1441 82.0575 62.5607 82.3269 62.3558C89.4567 56.9855 96.5679 52.6305 104.689 48.8973C111.598 45.7195 119.662 42.8814 125.421 37.7768C125.682 37.5449 125.327 37.1982 125.053 37.3352Z" fill="#009A7E"/>
<path d="M56.9724 62.4089C53.7461 57.9236 47.1242 57.362 42.419 59.7581C42.3675 59.7182 42.3087 59.6913 42.2375 59.7226C41.816 59.9311 41.4114 60.1601 41.0236 60.4099C40.8695 60.3557 40.7045 60.4796 40.6753 60.6447C35.287 64.3452 33.0598 72.0245 36.8202 77.6983C38.7147 80.553 42.5575 83.1077 46.022 83.3645C49.8182 83.6465 52.7111 82.3427 55.7463 80.4038C55.7829 80.4043 55.8209 80.397 55.8599 80.3676C55.9104 80.3276 55.9479 80.2804 55.9984 80.2404C56.1706 80.129 56.3462 80.0166 56.5208 79.9009C56.5814 79.858 56.5819 79.7959 56.5563 79.7449C61.5259 75.1182 60.7141 67.6105 56.9724 62.4089ZM36.9306 76.4052C33.6923 71.4967 36.6 65.0842 40.6425 61.4453C39.1522 66.1897 37.4819 71.4634 36.9359 76.4109C36.9359 76.4109 36.9349 76.4076 36.9306 76.4052ZM41.223 61.8039C42.3415 63.8602 43.7752 65.7569 45.1237 67.6999C43.4416 68.9919 42.2364 71.5653 43.1219 73.6229C41.2427 74.7234 39.3075 75.7306 37.4963 76.9283C38.4828 71.9274 40.6886 66.8939 41.223 61.8039ZM47.2194 71.0402C46.151 71.3576 44.8361 72.5952 43.9831 73.117C43.9182 73.1575 43.8489 73.1956 43.7806 73.2371C43.3827 71.1891 44.0812 69.76 45.4578 68.1911C46.0851 69.1196 46.6898 70.0582 47.2194 71.0402ZM55.6319 80.1194C52.4176 81.9931 48.8805 83.2629 45.1065 82.5115C42.164 81.9263 39.5154 79.7983 37.6793 77.4264C39.9315 76.2408 42.1663 74.9945 44.3621 73.701C45.3917 73.0958 47.0133 72.3681 47.7695 71.3819C47.7941 71.353 47.7921 71.3207 47.7988 71.2933C47.9383 71.1949 48.0224 71.0177 47.8999 70.845C45.6094 67.6263 43.9244 63.862 41.4025 60.8154C46.9181 58.6134 52.6344 58.7129 56.7215 63.7205C60.8877 68.8259 59.527 75.5348 55.6319 80.1194Z" fill="#009A7E"/>
<path d="M50.4711 67.6931C50.279 67.3033 49.7672 67.1585 49.3277 67.2408C49.2916 67.2038 49.2473 67.1764 49.1876 67.1716C48.3787 67.0974 47.9597 68.2931 47.9825 68.9319C48.0124 69.9005 49.085 70.3731 49.9104 70.2129C50.927 70.0197 50.8073 68.3696 50.4711 67.6931ZM50.038 68.8017C50.0393 69.1623 49.9082 69.4296 49.5395 69.4661C48.7645 69.5353 48.5783 68.772 48.8011 68.1758C48.8415 68.1897 48.8935 68.193 48.9494 68.1843C49.2348 68.1243 49.6013 67.8514 49.8808 68.0629C50.06 68.2048 50.0402 68.6188 50.038 68.8017Z" fill="#009A7E"/>
<path d="M40.4625 55.8867C40.7008 55.4464 40.6872 54.9289 40.1876 54.5217C39.8041 54.2014 38.614 54.6413 38.473 55.1921C38.3198 55.0647 38.0759 55.1675 38.0833 55.3841C38.1152 55.9912 38.5159 56.5872 38.8467 57.0793C38.9928 57.2963 39.138 57.5864 39.3231 57.825C39.324 57.8284 39.3207 57.8294 39.3207 57.8294C38.9641 57.9973 39.1664 58.5117 39.5451 58.3958C40.2622 58.1755 41.5625 57.7259 41.6 56.7891C41.6305 55.9673 41.0704 55.8326 40.4625 55.8867ZM39.9284 55.2195C40.0664 55.5737 39.622 55.9564 39.4127 56.1039C39.3108 56.1806 39.281 56.3058 39.3019 56.4165C39.1075 56.1076 38.9031 55.8016 38.6987 55.4957C38.9003 55.4232 39.0634 55.3436 39.2674 55.2414C39.4666 55.0967 39.6866 55.0883 39.9284 55.2195ZM40.7329 57.1727C40.6194 57.2599 40.4986 57.3347 40.3707 57.3969C40.2561 57.4553 40.1344 57.5012 40.0126 57.547C39.92 57.3512 39.7893 57.1626 39.6881 57.013C39.5984 56.8783 39.5131 56.746 39.4268 56.6103C39.4884 56.6473 39.5611 56.6593 39.6501 56.6265C39.9649 56.5034 40.2695 56.4087 40.6079 56.3809C41.0044 56.7083 41.0476 56.9731 40.7329 57.1727Z" fill="#009A7E"/>
<path d="M33.7411 78.1995C33.2978 77.8745 32.7801 77.7095 32.3249 77.4062L32.3206 77.4038C32.2102 77.3115 32.0172 77.3377 31.974 77.4922C31.8206 78.0759 31.9821 78.7405 32.0289 79.336C32.0718 79.8669 32.0677 80.5135 32.5466 80.8355C32.6232 80.8865 32.7391 80.8459 32.779 80.7688C32.8785 80.5689 32.897 80.3412 32.8905 80.1024C33.0699 80.0036 33.2455 79.8657 33.4129 79.763C33.6429 79.6241 33.8989 79.4996 34.1134 79.3324C34.35 79.4833 34.6052 79.5851 34.8603 79.5338C34.9667 79.5105 34.994 79.3897 34.9756 79.3002C34.8716 78.7977 34.1284 78.4822 33.7411 78.1995ZM33.4348 79.064C33.2169 79.1812 33.023 79.3316 32.8378 79.4868C32.8209 79.364 32.8049 79.2447 32.7951 79.1344C32.7741 78.8706 32.7632 78.5784 32.7163 78.3002C32.9369 78.4593 33.1705 78.6002 33.3951 78.7727C33.4702 78.8314 33.5473 78.8968 33.6278 78.9612C33.5652 78.9974 33.5017 79.0302 33.4348 79.064Z" fill="#009A7E"/>
<path d="M110.492 51.9707C110.448 51.9178 110.342 51.9299 110.314 51.9964C110.047 52.6162 109.892 53.1199 109.243 53.4629C108.577 53.8107 107.677 53.6971 107.132 53.1825C105.897 52.0164 107.716 49.8173 109.129 50.473C109.264 50.5364 109.431 50.4048 109.403 50.2594C109.201 49.2492 107.697 49.6113 107.098 50.0019C105.931 50.7632 105.465 52.1001 106.059 53.3844C106.619 54.584 108.221 54.8427 109.354 54.4848C110.393 54.154 111.33 52.9735 110.492 51.9707Z" fill="#009A7E"/>
<path d="M128.831 60.7527C126.198 60.1772 123.84 58.6041 121.09 58.2699C117.47 57.8279 113.423 54.4459 109.726 54.8937C109.652 54.7873 109.523 54.7186 109.368 54.7742C107.512 55.4486 105.788 56.7343 104.138 57.7947C102.106 59.0995 100.066 60.3408 98.0235 61.6341C97.9619 61.597 97.8849 61.6082 97.8194 61.6343C98.3114 61.1249 98.6222 60.4925 98.4233 59.9771C98.0849 59.0897 97.2493 58.7315 96.343 58.9659C96.3956 58.5899 96.335 58.2135 96.1253 57.9528C95.3474 56.9946 94.323 57.5291 93.6219 58.2625C93.5002 58.3849 93.6405 58.5817 93.7829 58.4934C93.738 59.3412 94.4798 60.1858 94.8652 60.9066C95.1826 61.5046 95.4661 62.3786 95.9634 62.8412C96.2333 63.0956 96.6113 62.7866 96.5268 62.479C96.9113 62.3578 97.326 62.1003 97.6747 61.7779C97.6622 61.8106 97.654 61.8458 97.6613 61.8838C97.606 61.958 97.5873 62.0581 97.6471 62.165C97.6891 62.2477 97.7335 62.3261 97.7788 62.4079C96.9304 64.0769 98.1067 68.8512 98.3181 70.3256C98.7206 73.127 98.6683 76.0843 99.2046 78.8437C99.2317 78.989 99.3488 79.0539 99.4619 79.0543C99.5409 79.1009 99.6459 79.1109 99.744 79.0463C101.643 77.7868 103.552 76.5467 105.466 75.3156C105.598 75.3179 105.718 75.2253 105.786 75.1073C108.572 73.3165 111.365 71.5381 114.161 69.7554C115.067 69.1782 115.993 68.6318 116.926 68.0946C116.966 68.1451 117.007 68.1989 117.05 68.2485C117.335 68.5678 117.828 68.1018 117.534 67.7887C117.525 67.7805 117.517 67.768 117.508 67.7598C121.269 65.631 125.158 63.7095 128.773 61.3237C128.782 61.3174 128.789 61.3044 128.798 61.2981C129.065 61.2362 129.151 60.825 128.831 60.7527ZM94.1009 58.2673C94.0946 58.2582 94.0792 58.2553 94.0672 58.2515C94.578 57.8971 95.0997 58.1522 95.6359 59.0302C95.6187 59.1226 95.5692 59.2426 95.5087 59.362C95.3668 59.4647 95.2398 59.5813 95.1446 59.7071C94.862 59.1793 94.5379 58.6852 94.1009 58.2673ZM96.1583 61.8045C95.906 61.319 95.6825 60.807 95.4432 60.3032C95.6675 60.2207 95.8603 60.0414 96.0118 59.8193C96.147 59.7441 96.2648 59.6847 96.2817 59.6799C97.1102 59.2636 98.0194 60.0055 97.5475 60.7497C97.3273 61.1009 96.6457 61.6355 96.1583 61.8045ZM103.068 76.1202C101.929 76.9027 100.786 77.6828 99.6616 78.4792C99.0835 73.5406 99.0609 68.4791 98.3981 63.5502C100.027 66.5577 101.746 69.5282 103.532 72.447C103.212 72.845 103.053 73.4594 102.885 73.8794C102.601 74.5917 102.809 75.3049 103.008 76.01C103.02 76.0538 103.042 76.0913 103.068 76.1202ZM103.537 75.7962C103.315 75.0979 103.162 74.6022 103.454 73.8913C103.582 73.5773 103.717 73.2835 103.87 72.9916C104.239 73.593 104.61 74.1977 104.985 74.7938C104.5 75.1226 104.021 75.464 103.537 75.7962ZM113.815 69.0707C110.943 70.828 108.115 72.6781 105.315 74.5715C105.614 73.4028 102.337 69.0341 101.675 67.9954C100.57 66.2669 99.8291 63.734 98.4107 62.1829C102.087 60.2024 105.384 57.0289 109.256 55.4916C109.92 57.6163 111.622 59.8738 112.749 61.7708C113.847 63.6144 115.069 65.7795 116.438 67.5126C115.56 68.0233 114.683 68.5374 113.815 69.0707ZM116.998 67.1914C116.579 66.6955 116.196 66.1745 115.834 65.6367C116.605 65.503 117.232 65.2611 118.044 65.4331C118.403 65.505 118.83 65.5175 119.095 65.8061C119.141 65.8513 119.174 65.8926 119.209 65.9229C118.473 66.3454 117.733 66.7655 116.998 67.1914ZM122.489 64.0122C121.583 64.5528 120.667 65.0852 119.75 65.6109C119.504 65.3387 119.396 65.151 119.047 64.9665C118.721 64.7941 118.321 64.7593 117.966 64.6788C117.123 64.4867 116.313 64.7374 115.534 65.0848C115.513 65.0906 115.503 65.1046 115.487 65.1128C113.476 61.9525 112.134 58.2427 109.885 55.3186C112.88 56.3298 115.866 57.2707 118.825 58.409C120.511 59.0629 122.295 59.2041 124.04 59.6841C125.291 60.029 126.499 60.707 127.756 61.0831C125.943 61.8802 124.162 63.0182 122.489 64.0122Z" fill="#009A7E"/>
<path d="M100.178 80.7371C99.5407 80.1542 98.8152 79.7097 98.0907 79.243C97.8488 79.0863 96.7276 78.1391 96.3006 78.5569C95.8759 78.9704 96.2721 79.9068 96.3347 80.3665C96.4584 81.2681 96.4522 82.1996 96.6028 83.0934C96.6483 83.3538 96.9907 83.3905 97.0717 83.1266C97.1902 82.739 97.1715 82.3433 97.1263 81.9442C97.2246 81.9562 97.3348 81.9209 97.3669 81.8169C97.4427 81.5983 97.6501 81.4695 97.8372 81.3466C98.1499 81.1402 98.4352 80.9016 98.7541 80.7044C98.7758 80.6909 98.8022 80.6687 98.8321 80.6455C99.1038 80.8301 99.3707 81.0234 99.6222 81.2393C99.6559 81.2806 99.6964 81.3201 99.7475 81.3455C99.7725 81.3566 99.7942 81.3686 99.8192 81.3796C100.228 81.5722 100.469 81.0001 100.178 80.7371ZM98.0932 80.2814C97.7964 80.4796 97.5285 80.7278 97.2452 80.9476C97.173 81.0011 97.0999 81.0768 97.0331 81.1616C96.9719 80.6176 96.9068 80.0602 96.7623 79.5438C96.6231 79.0587 96.484 79.0184 96.8255 79.2559C97.1801 79.5006 97.5337 79.7419 97.8849 79.9875C97.9904 80.063 98.095 80.1351 98.2029 80.2062C98.1663 80.2313 98.1264 80.2573 98.0932 80.2814Z" fill="#009A7E"/>
<path d="M109.858 78.3685C109.543 77.653 109.061 77.5105 108.541 77.616C108.76 77.1594 108.766 76.6727 108.295 76.2245C107.858 75.81 107.107 76.1276 106.669 76.3408C106.196 76.5748 105.361 76.9531 105.196 77.4963C105.18 77.5444 105.183 77.5911 105.201 77.6296C105.152 77.6619 105.104 77.6976 105.058 77.7289C105.005 77.7478 104.957 77.7834 104.906 77.8456C104.891 77.8572 104.896 77.874 104.892 77.8861C104.89 77.8938 104.888 77.8981 104.886 77.9058C104.882 77.9289 104.882 77.9544 104.896 77.9761C104.898 77.9828 104.902 77.9852 104.904 77.9919C104.915 78.0069 104.926 78.0184 104.94 78.029C104.953 78.0362 104.965 78.04 104.98 78.0429C105.001 78.0515 105.016 78.051 105.036 78.0452C105.039 78.0443 105.039 78.0443 105.039 78.0443C105.29 77.9285 105.162 77.8887 105.339 78.1114C105.568 78.3995 105.743 78.743 105.932 79.0606C106.404 79.8515 106.892 80.7031 107.56 81.3427C107.687 81.4667 107.918 81.3822 107.946 81.2137C108.998 80.6605 110.447 79.7125 109.858 78.3685ZM107.755 80.6088C107.621 80.3702 107.452 80.1523 107.302 79.9074C107.006 79.4234 106.73 78.9302 106.4 78.467C106.171 78.15 105.96 77.8859 105.654 77.6821C106.141 77.4621 106.607 77.2045 107.063 76.9277C107.36 77.0213 107.657 77.1148 107.953 77.2084C107.918 77.4554 107.806 77.6625 107.618 77.8331C107.407 78.0871 107.117 78.2833 106.866 78.4901C106.581 78.7287 106.916 79.2088 107.238 79.025C107.796 78.7048 108.73 77.8315 109.232 78.6537C109.696 79.4066 108.35 80.2702 107.755 80.6088Z" fill="#009A7E"/>
<path d="M111.946 78.3267C111.7 77.9924 111.584 77.5848 111.308 77.2736C111.136 77.0788 110.789 77.1417 110.753 77.422C110.664 78.2169 111.274 78.946 111.741 79.5305C111.968 79.8152 112.462 79.6043 112.396 79.2366C112.338 78.8814 112.153 78.6173 111.946 78.3267Z" fill="#009A7E"/>
<path d="M121.556 71.4757C121.163 72.9155 119.74 73.6882 118.454 72.7118C117.973 72.3464 117.803 71.7391 117.922 71.1651C118.181 69.9425 119.731 69.6511 120.75 69.7343C121.149 69.7656 121.193 69.1696 120.837 69.0602C118.548 68.3752 116.093 70.7747 117.529 72.9443C118.063 73.7535 119.252 74.1489 120.175 73.9318C121.362 73.6494 122.034 72.8371 122.265 71.6622C122.345 71.2529 121.666 71.0721 121.556 71.4757Z" fill="#009A7E"/>
<path d="M124.66 71.2106C124.361 70.7165 123.928 70.3011 123.73 69.7491C123.613 69.418 123.149 69.5037 123.032 69.7816C122.881 70.1457 122.889 70.5154 122.86 70.8991C122.844 71.1081 123.149 71.192 123.268 71.0484C123.337 70.9593 123.394 70.8774 123.438 70.7916C123.483 70.859 123.528 70.9263 123.576 70.9927C123.834 71.3564 124.045 71.737 124.282 72.1175C124.344 72.22 124.488 72.2771 124.605 72.2655C125.111 72.2115 124.834 71.4998 124.66 71.2106Z" fill="#009A7E"/>
<path d="M132.06 55.7887C131.333 54.8305 130.284 54.6795 129.155 54.9411C128.588 55.0746 127.927 55.4392 127.697 55.9974C127.582 55.9503 127.418 56.0266 127.42 56.1609C127.423 56.6158 127.641 56.8669 127.906 57.232C128.199 57.6438 128.428 58.0884 128.666 58.5344C129.005 59.1589 129.38 59.8281 129.912 60.31C130.039 60.423 130.28 60.4521 130.415 60.3369C130.582 60.1942 130.596 60.0262 130.543 59.8553C131.944 59.0817 133.237 57.3506 132.06 55.7887ZM130.142 59.2338C130.027 59.0991 129.915 58.9745 129.848 58.8697C129.242 57.9643 128.837 57.0852 128.093 56.3359C128.978 55.7722 130.322 55.4232 131.142 56.209C132.168 57.1943 131.037 58.6162 130.142 59.2338Z" fill="#009A7E"/>
<path d="M107.267 10.1077C105.538 11.0593 103.943 12.2462 102.265 13.2854C100.721 14.246 99.0717 14.9925 97.4507 15.8111C97.3169 15.8786 97.3831 16.0967 97.5342 16.0387C101.139 14.6475 104.311 12.6401 107.413 10.3502C107.561 10.2422 107.431 10.017 107.267 10.1077Z" fill="#009A7E"/>
<path d="M107.331 11.5762C105.99 12.5187 104.665 13.442 103.239 14.2523C102.235 14.8209 101.128 15.2953 100.246 16.0477C100.126 16.1513 100.243 16.3182 100.381 16.2497C102.849 14.9912 105.565 13.7964 107.533 11.7955C107.658 11.6721 107.468 11.4822 107.331 11.5762Z" fill="#009A7E"/>
<path d="M107.773 13.4558C106.208 14.4332 104.78 15.9112 103.071 16.6274C102.957 16.6747 103.026 16.8629 103.144 16.829C104.214 16.5184 105.037 15.8301 105.96 15.2336C106.659 14.7852 107.355 14.2101 107.907 13.5924C107.985 13.508 107.863 13.4008 107.773 13.4558Z" fill="#009A7E"/>
<path d="M107.396 15.7429C106.571 16.2493 105.835 16.847 105.136 17.514C105.018 17.621 105.159 17.8211 105.289 17.7146C105.67 17.3902 106.064 17.0875 106.445 16.7631C106.805 16.4556 107.224 16.2515 107.531 15.8829C107.6 15.7937 107.487 15.6913 107.396 15.7429Z" fill="#009A7E"/>
<path d="M108.146 17.0473C107.717 17.1921 107.372 17.4881 107.042 17.7869C106.936 17.8867 107.094 18.0454 107.202 17.949C107.523 17.6598 107.899 17.4427 108.216 17.1512C108.265 17.1044 108.202 17.0275 108.146 17.0473Z" fill="#009A7E"/>
<path d="M74.2119 29.3476C73.4651 29.6676 72.9314 30.3238 72.2945 30.8237C71.3498 31.5723 70.3357 32.2315 69.3867 32.9777C67.795 34.2291 66.3141 35.5872 65.3017 37.358C65.2296 37.488 65.4314 37.5942 65.517 37.4858C66.8824 35.7888 68.2958 34.3479 70.0159 32.9977C71.4137 31.8967 72.8671 30.5574 74.3479 29.593C74.5009 29.4908 74.3745 29.2791 74.2119 29.3476Z" fill="#009A7E"/>
<path d="M74.4786 31.8317C73.0999 32.3256 71.7535 33.8093 70.786 34.8598C69.3973 36.3738 67.5884 37.4652 66.7002 39.3898C66.6464 39.5073 66.816 39.5644 66.8881 39.4854C68.106 38.1006 69.326 36.799 70.6857 35.5522C71.9506 34.3945 73.1039 32.937 74.5694 32.0208C74.6843 31.9514 74.6081 31.7873 74.4786 31.8317Z" fill="#009A7E"/>
<path d="M72.8971 35.9759C71.0505 37.3551 68.9918 39.0504 67.9893 41.1865C67.9221 41.3334 68.1523 41.4241 68.2374 41.3013C69.5987 39.3612 71.2251 37.6842 73.0104 36.1293C73.1047 36.0512 72.9958 35.9002 72.8971 35.9759Z" fill="#009A7E"/>
<path d="M72.6149 38.5639C71.6973 38.9365 70.9599 40.0267 70.3599 40.7822C69.8561 41.4153 69.3133 42.0778 69.0609 42.8502C69.0253 42.9552 69.1747 43.0436 69.2482 42.9569C69.8493 42.2814 70.3082 41.4788 70.8644 40.7614C71.3712 40.1129 71.9791 39.1437 72.7211 38.7559C72.8481 38.6903 72.7425 38.5128 72.6149 38.5639Z" fill="#009A7E"/>
<path d="M71.801 41.5343C71.5812 41.7723 71.3875 42.0248 71.2053 42.2922C71.0183 42.5682 70.8853 42.9053 70.6704 43.1602C70.3473 43.5336 70.0378 44.0308 70.2361 44.5317C70.2772 44.6366 70.4134 44.5903 70.4176 44.4906C70.4305 43.9509 70.8566 43.5808 71.0916 43.1415C71.3602 42.6415 71.648 42.1579 72.0212 41.73C72.1481 41.5878 71.9322 41.3945 71.801 41.5343Z" fill="#009A7E"/>
<path d="M71.8836 44.5072C71.4892 44.8865 70.9681 45.6375 71.1989 46.213C71.222 46.2684 71.314 46.2712 71.3322 46.2076C71.4104 45.9591 71.4414 45.6986 71.535 45.453C71.6455 45.1771 71.8253 44.914 72.0359 44.7078C72.1494 44.595 72.0004 44.3934 71.8836 44.5072Z" fill="#009A7E"/>
<path d="M72.0483 46.888C71.9195 47.151 71.8202 47.4274 71.7362 47.7067C71.7098 47.8054 71.8312 47.8982 71.9029 47.8047C72.0827 47.5672 72.1623 47.2855 72.3021 47.023C72.39 46.8592 72.1275 46.7194 72.0483 46.888Z" fill="#009A7E"/>
<path d="M58.3148 40.6752C55.0304 41.4022 51.4514 43.0851 48.8921 45.2594C48.793 45.3462 48.928 45.5116 49.0353 45.4408C51.8899 43.4443 55.1718 42.2258 58.393 40.9481C58.5634 40.881 58.4972 40.6375 58.3148 40.6752Z" fill="#009A7E"/>
<path d="M60.0665 42.3847C56.5134 43.0138 53.2092 44.9934 50.5378 47.3238C50.4594 47.3937 50.5381 47.5534 50.6382 47.4956C51.9425 46.7422 53.1459 45.7262 54.4815 44.9675C56.2717 43.9508 58.2527 43.4081 60.1337 42.6061C60.2737 42.5477 60.2162 42.36 60.0665 42.3847Z" fill="#009A7E"/>
<path d="M60.7178 44.6166C57.9492 45.0571 55.9875 46.9251 53.5277 48.0609C53.4213 48.1097 53.4779 48.294 53.5914 48.2578C54.5044 47.9704 55.3805 47.4529 56.2041 46.9687C57.6966 46.0958 59.2066 45.4876 60.7902 44.8183C60.9067 44.7666 60.8328 44.5982 60.7178 44.6166Z" fill="#009A7E"/>
<path d="M61.9808 46.1077C60.9496 46.0718 60.036 46.6364 59.1357 47.0697C58.3803 47.4359 57.4873 47.9071 57.0355 48.6456C56.9356 48.8055 57.1664 48.9873 57.302 48.8499C57.8704 48.2639 58.5926 47.8708 59.322 47.5158C60.1929 47.0946 61.2349 46.8249 62.032 46.2863C62.1018 46.2371 62.066 46.1125 61.9808 46.1077Z" fill="#009A7E"/>
<path d="M62.7429 47.6467C61.3661 47.6515 60.3223 48.5123 59.2491 49.2577C59.0995 49.359 59.2326 49.5943 59.3952 49.5002C59.897 49.2031 60.379 48.8753 60.8799 48.5748C61.4832 48.2122 62.1845 48.1277 62.7791 47.7602C62.835 47.726 62.8007 47.6447 62.7429 47.6467Z" fill="#009A7E"/>
<path d="M63.1134 49.1043C62.7311 48.9915 62.4083 49.2263 62.0671 49.3716C61.6437 49.5477 61.2049 49.772 60.8277 50.0334C60.6401 50.1674 60.8305 50.4373 61.0283 50.3259C61.3747 50.1353 61.7626 50.0386 62.1187 49.8563C62.4713 49.6749 62.907 49.6302 63.1695 49.2997C63.2176 49.2385 63.1924 49.1254 63.1134 49.1043Z" fill="#009A7E"/>
<path d="M63.2538 50.3283C63.096 50.4136 62.9459 50.5005 62.7707 50.5507C62.608 50.5937 62.6579 50.8565 62.8152 50.8077C63.04 50.7396 63.2209 50.6586 63.3738 50.4798C63.4334 50.408 63.3423 50.281 63.2538 50.3283Z" fill="#009A7E"/>
<path d="M101.833 84.0512C100.09 85.335 98.3979 86.9216 96.3769 87.7821C96.2605 87.8337 96.3382 88.0156 96.457 87.9851C97.4211 87.7487 98.4808 87.0072 99.3328 86.4821C100.317 85.8826 101.23 85.0484 101.986 84.1897C102.068 84.0933 101.923 83.9818 101.833 84.0512Z" fill="#009A7E"/>
<path d="M104.592 84.4293C103.235 85.431 101.86 86.3943 100.471 87.3504C99.1836 88.2376 97.9007 88.7988 96.5236 89.4891C96.4467 89.5258 96.4843 89.6572 96.5691 89.6474C97.9347 89.5146 99.048 88.8707 100.165 88.1128C101.762 87.0313 103.364 85.9556 104.696 84.549C104.765 84.4743 104.674 84.3728 104.592 84.4293Z" fill="#009A7E"/>
<path d="M106.773 84.9028C105.379 86.0538 104.047 87.2708 102.606 88.3622C101.028 89.5587 99.6188 90.3275 97.8004 91.0679C97.7147 91.0998 97.7269 91.2567 97.8309 91.2378C101.419 90.6169 104.468 87.6203 106.943 85.1019C107.058 84.9814 106.905 84.7919 106.773 84.9028Z" fill="#009A7E"/>
<path d="M109.678 85.0124C107.988 86.6711 106.197 88.2058 104.337 89.6799C102.507 91.1308 100.504 92.1429 98.5565 93.3981C98.4915 93.4386 98.5455 93.5507 98.6163 93.5304C100.668 92.9674 102.471 91.7028 104.154 90.4508C106.212 88.9197 108.302 87.2081 109.848 85.1494C109.925 85.0472 109.766 84.9251 109.678 85.0124Z" fill="#009A7E"/>
<path d="M25.9826 58.4736C23.7085 59.4686 21.6207 60.8842 19.4831 62.1391C17.2522 63.4499 14.9564 64.8522 13.2644 66.847C13.1687 66.9583 13.3373 67.1141 13.4465 67.0245C17.3627 63.7463 21.8312 61.4655 26.0825 58.6819C26.1941 58.6134 26.1092 58.419 25.9826 58.4736Z" fill="#009A7E"/>
<path d="M24.8074 61.6325C23.6773 62.3322 22.4623 62.8375 21.3153 63.491C21.3247 63.2696 21.3297 63.0457 21.3237 62.8214C21.3236 62.7448 21.2124 62.7512 21.2048 62.8263C21.1849 63.0873 21.1437 63.3506 21.1161 63.6101C20.8135 63.7881 20.5137 63.9762 20.2266 64.1825C19.8133 64.4833 19.3905 64.776 18.97 65.0643C19.0503 64.4543 19.1161 63.8447 19.1544 63.2285C19.1606 63.1356 19.0214 63.1208 19.0076 63.2123C18.9106 63.9037 18.7929 64.5865 18.6752 65.2692C17.3724 66.1679 16.076 67.0758 14.9574 68.2097C14.867 68.3013 14.9764 68.4412 15.0861 68.366C16.2801 67.5714 17.4134 66.6921 18.5689 65.8393C18.4444 66.524 18.3176 67.213 18.182 67.8973C17.3508 68.5331 16.5986 69.2156 16.0347 69.9826C15.9746 70.0654 16.0638 70.1857 16.1509 70.1206C16.7844 69.6727 17.4021 69.2075 18.0188 68.7389C17.9005 69.3562 17.7779 69.9711 17.664 70.5908C17.6549 70.6226 17.665 70.6452 17.6819 70.6659C17.5001 70.8712 17.3266 71.0923 17.1757 71.3543C17.0954 71.494 17.2867 71.6397 17.4026 71.5226C18.2701 70.6576 19.188 69.9932 20.1346 69.2513C20.0436 69.6712 19.9526 70.0911 19.8649 70.51C19.4363 70.859 19.0526 71.2498 18.7695 71.6993C18.6767 71.8462 18.879 71.9668 18.994 71.8719C19.2345 71.668 19.4716 71.4651 19.7044 71.2598C19.2459 73.4112 18.8327 75.5678 18.6993 77.7719C18.6946 77.8571 18.8308 77.8873 18.8534 77.8006C19.3642 75.5649 19.6357 73.2702 20.005 70.9985C20.5682 70.5088 21.1334 70.0259 21.766 69.6001C21.9281 69.4916 21.7594 69.2593 21.5934 69.3543C21.1089 69.6355 20.5999 69.9455 20.129 70.2994C20.1921 69.9349 20.251 69.568 20.3218 69.2049C20.329 69.1664 20.3386 69.1236 20.3491 69.0841C20.7556 68.7597 21.1197 68.4146 21.5526 68.119C21.9192 67.8717 22.4063 67.3455 22.8215 67.1279C22.4613 68.4016 22.1132 69.6792 21.8353 70.973C21.8157 71.0698 21.7994 71.1656 21.7798 71.2624C21.7422 71.2586 21.7008 71.2668 21.6681 71.3054C21.4056 71.5849 21.0823 71.7797 20.7628 71.988C20.4434 72.1963 20.191 72.5239 20.0137 72.8592C19.9508 72.9829 20.1295 73.0848 20.2204 73.0077C20.5224 72.7643 20.7045 72.4204 21.0293 72.1923C21.2669 72.0293 21.4925 71.8625 21.7027 71.6673C21.583 72.2668 21.4676 72.8687 21.3642 73.4744C21.3031 73.4774 21.2449 73.516 21.2493 73.5949C21.2262 73.6416 21.1897 73.6667 21.1382 73.6778C21.0597 73.7222 21.1008 73.8526 21.1889 73.8419C21.2346 73.8361 21.2726 73.8288 21.3097 73.8182C20.9877 75.7591 20.7337 77.7206 20.4805 79.66C20.4633 79.778 20.6579 79.8206 20.6828 79.7041C21.2375 77.0365 21.5326 74.3158 22.0189 71.6386C22.4502 69.2653 23.1102 66.9394 23.6768 64.5929C23.6806 64.5809 23.6854 64.5722 23.6849 64.5578C23.7822 64.147 23.8838 63.7387 23.9768 63.3255C23.9854 63.2793 23.9065 63.2582 23.8945 63.3054C23.789 63.7003 23.6791 64.0927 23.5693 64.4852C23.5635 64.4905 23.5592 64.4881 23.5558 64.489C22.776 64.9862 21.8936 65.4945 21.0002 66.0279C21.1285 65.3567 21.227 64.6831 21.2811 64.0076C22.5003 63.2751 23.7594 62.593 24.873 61.734C24.936 61.6868 24.8747 61.5877 24.8074 61.6325ZM17.8925 70.4341C18.0497 69.7874 18.2002 69.1426 18.343 68.4964C18.9346 68.0423 19.5273 67.5916 20.1262 67.15C20.2945 67.0251 20.4648 66.907 20.6351 66.7889C20.5231 67.3898 20.4024 67.9859 20.275 68.584C19.4679 69.2785 18.6013 69.7276 17.8925 70.4341ZM23.4945 64.7582C23.2998 65.4521 23.1007 66.1436 22.906 66.8376C22.8915 66.8381 22.8819 66.8299 22.8684 66.8337C22.0536 67.0565 21.1426 67.821 20.4924 68.4013C20.6193 67.8143 20.7545 67.2177 20.8785 66.6206C21.7627 66.017 22.6725 65.4388 23.4945 64.7582ZM20.7462 66.1846C19.9913 66.6418 19.2302 67.1153 18.525 67.6312C18.661 66.9614 18.7807 66.2854 18.8859 65.6098C19.2144 65.3697 19.5464 65.1287 19.8836 64.8934C20.2641 64.6311 20.6572 64.3871 21.0545 64.1455C20.9691 64.8263 20.8658 65.5086 20.7462 66.1846Z" fill="#009A7E"/>
<path d="M24.8727 68.4195C24.572 70.4346 23.7937 72.4115 23.3269 74.394C22.7551 76.8113 22.1934 79.2001 21.87 81.6701C21.8548 81.7948 22.0324 81.8167 22.0597 81.6959C22.6417 79.3012 23.0695 76.8779 23.6548 74.4822C24.1385 72.495 24.8161 70.4848 25.0061 68.4396C25.0142 68.3534 24.8842 68.3324 24.8727 68.4195Z" fill="#009A7E"/>
<path d="M25.3379 73.3989C24.2413 77.1516 23.3133 80.9581 23.5075 84.9021C23.5119 84.9811 23.6361 84.9819 23.6438 84.9068C24.0128 81.02 24.5904 77.2885 25.5767 73.4944C25.6199 73.3398 25.3868 73.239 25.3379 73.3989Z" fill="#009A7E"/>
<path d="M26.4842 76.973C25.4021 80.3315 24.0613 84.8215 25.2848 88.3244C25.3085 88.3942 25.436 88.3686 25.4326 88.293C25.129 84.3876 25.6924 80.7842 26.7254 77.0387C26.7633 76.9039 26.5298 76.8396 26.4842 76.973Z" fill="#009A7E"/>
<path d="M26.9995 82.4589C26.2811 85.1151 25.7737 88.3415 26.6007 91.0212C26.634 91.1246 26.8198 91.137 26.8086 91.0089C26.6236 88.1269 26.6232 85.367 27.2725 82.5337C27.3156 82.3536 27.0469 82.2812 26.9995 82.4589Z" fill="#009A7E"/>
<path d="M28.3926 87.3149C27.8792 88.906 27.9404 90.8865 28.4827 92.4592C28.53 92.5987 28.7548 92.5306 28.7286 92.3886C28.4285 90.8085 28.2047 88.9986 28.6782 87.4335C28.7372 87.2452 28.454 87.1223 28.3926 87.3149Z" fill="#009A7E"/>
<path d="M29.6574 91.3418C29.5639 91.6129 29.5343 91.8912 29.5288 92.1772C29.5238 92.4776 29.5069 92.8762 29.6362 93.149C29.6782 93.2318 29.787 93.2298 29.8143 93.1344C29.8786 92.9009 29.8234 92.6323 29.8126 92.3911C29.8002 92.0556 29.8297 91.7263 29.9396 91.4104C30.0015 91.2322 29.717 91.168 29.6574 91.3418Z" fill="#009A7E"/>
</svg>
