<svg width="51" height="53" viewBox="0 0 51 53" fill="none" xmlns="http://www.w3.org/2000/svg">
<path fill-rule="evenodd" clip-rule="evenodd" d="M37.5972 9.77223C41.0145 11.6772 43.5412 15.177 44.377 18.999C45.185 22.6938 43.7664 26.472 41.9778 29.8043C40.3945 32.7543 37.84 34.9583 34.9261 36.607C32.2269 38.1343 29.1191 38.0146 26.1138 38.7804C21.5524 39.9427 17.0977 44.1293 12.7821 42.2499C8.55913 40.4108 6.80677 34.8781 6.58812 30.2772C6.38956 26.099 9.66469 22.8099 11.6842 19.1469C13.3137 16.191 14.4082 12.8241 17.2307 10.9731C20.0183 9.14498 23.4993 9.41226 26.8271 9.21605C30.5057 8.99915 34.3785 7.97801 37.5972 9.77223Z" fill="#F8F8F8" stroke="#2C292D"/>
<path d="M29.0087 18.05L28.7087 17.21L28.2287 16.64L27.7487 15.8L27.4787 15.53L26.0387 15.17H25.1987L24.2087 15.38L23.1287 15.98L22.5287 17.03L22.1387 17.84L21.9287 18.53L21.8087 19.55L21.8987 20.06L21.7487 20.18L21.8987 20.24L22.3187 20.27L22.7087 20.12L23.0687 19.76L23.4587 18.77L23.4287 18.56L23.2187 18.35L23.1887 18.08L23.5187 17.78L24.0587 17.06L25.4687 16.4L25.6487 16.55L26.7287 17.12L26.9387 17.3L26.9987 17.54V17.9L27.0887 18.5L27.5087 19.94V20.66L27.2387 21.98L26.8787 23.18L26.8187 23.45L26.3987 24.53L26.1587 24.86L25.8887 25.07L25.5887 25.55L25.3487 26.18L25.3187 26.39L24.8987 27.38L24.5087 27.74L24.2387 28.19L23.9987 28.85L23.9087 29.84L24.0587 30.44L24.2687 30.68L24.5687 30.8L24.8087 30.62L25.0487 30.2L26.0987 27.68L26.3687 27.08L26.9687 26L27.3887 25.64L28.1387 24.05L28.3487 23.78L28.4387 23.36L28.3187 22.4V21.77L28.4087 21.71L28.4987 21.74L28.5587 21.86L28.6787 21.92L28.8887 21.59L28.9487 21.23V19.4L28.8887 18.89L28.9787 18.53L29.0087 18.05ZM28.7687 18.5L28.4987 18.14L28.4687 17.9L28.5587 18.05H28.6487L28.7387 17.96L28.7987 17.99L28.8287 18.26L28.7687 18.5ZM28.4687 19.91H28.3787H28.4687ZM28.5887 20.75L28.6187 20.78L28.5887 20.75ZM25.8287 34.88L25.7987 34.67L25.7087 34.55L25.4687 34.4L25.3487 34.13L25.3187 33.89L25.1387 33.59L24.4787 33.32L24.1787 33.26L23.7887 33.53L23.6987 33.71V33.83L23.5787 34.01L23.4887 34.37L23.5187 34.52L23.4287 34.73L23.3687 34.7L23.3387 34.76L23.5187 35.33L23.7887 35.66L24.0887 35.84H24.3887L24.4487 35.9H25.0787L25.5587 35.81L25.8287 35.45V35.3V34.88ZM24.2387 33.89L24.1787 33.68L24.2387 33.89ZM23.9687 34.34L23.9387 34.43L23.8787 34.37L23.9687 34.34ZM24.9887 34.55L24.8987 34.61L24.8687 34.55H24.9887ZM24.3587 34.73V34.82L24.2687 34.76L24.3587 34.73Z" fill="#E02F2F"/>
<path d="M29.0087 18.05L30.0067 18.1124L30.0196 17.9072L29.9504 17.7137L29.0087 18.05ZM28.7087 17.21L29.6504 16.8737L29.5898 16.7038L29.4736 16.5659L28.7087 17.21ZM28.2287 16.64L27.3604 17.1361L27.4054 17.2148L27.4638 17.2841L28.2287 16.64ZM27.7487 15.8L28.6169 15.3039L28.5505 15.1876L28.4558 15.0929L27.7487 15.8ZM27.4787 15.53L28.1858 14.8229L27.9899 14.627L27.7212 14.5599L27.4787 15.53ZM26.0387 15.17L26.2812 14.1999L26.1618 14.17H26.0387V15.17ZM25.1987 15.17V14.17H25.0938L24.9912 14.1918L25.1987 15.17ZM24.2087 15.38L24.0012 14.4018L23.8543 14.4329L23.723 14.5058L24.2087 15.38ZM23.1287 15.98L22.643 15.1058L22.399 15.2414L22.2604 15.4839L23.1287 15.98ZM22.5287 17.03L21.6604 16.5339L21.643 16.5644L21.6277 16.5962L22.5287 17.03ZM22.1387 17.84L21.2377 17.4062L21.2044 17.4754L21.182 17.5488L22.1387 17.84ZM21.9287 18.53L20.972 18.2388L20.946 18.3244L20.9355 18.4132L21.9287 18.53ZM21.8087 19.55L20.8155 19.4332L20.7984 19.5791L20.8239 19.7238L21.8087 19.55ZM21.8987 20.06L22.5234 20.8409L22.9865 20.4703L22.8835 19.8862L21.8987 20.06ZM21.7487 20.18L21.124 19.3991L19.784 20.4711L21.3773 21.1085L21.7487 20.18ZM21.8987 20.24L21.5273 21.1685L21.672 21.2264L21.8274 21.2375L21.8987 20.24ZM22.3187 20.27L22.2474 21.2675L22.4697 21.2833L22.6777 21.2033L22.3187 20.27ZM22.7087 20.12L23.0677 21.0533L23.2657 20.9772L23.4158 20.8271L22.7087 20.12ZM23.0687 19.76L23.7758 20.4671L23.9229 20.32L23.9991 20.1265L23.0687 19.76ZM23.4587 18.77L24.3891 19.1365L24.486 18.8904L24.4486 18.6286L23.4587 18.77ZM23.4287 18.56L24.4186 18.4186L24.3715 18.0886L24.1358 17.8529L23.4287 18.56ZM23.2187 18.35L22.2248 18.4604L22.2635 18.8091L22.5116 19.0571L23.2187 18.35ZM23.1887 18.08L22.516 17.3401L22.1384 17.6833L22.1948 18.1904L23.1887 18.08ZM23.5187 17.78L24.1914 18.5199L24.2617 18.456L24.3187 18.38L23.5187 17.78ZM24.0587 17.06L23.6347 16.1543L23.4085 16.2602L23.2587 16.46L24.0587 17.06ZM25.4687 16.4L26.1089 15.6318L25.6205 15.2248L25.0447 15.4943L25.4687 16.4ZM25.6487 16.55L25.0085 17.3182L25.0891 17.3854L25.1819 17.4344L25.6487 16.55ZM26.7287 17.12L27.3795 16.3607L27.2945 16.2879L27.1954 16.2356L26.7287 17.12ZM26.9387 17.3L27.9088 17.0575L27.8315 16.7482L27.5895 16.5407L26.9387 17.3ZM26.9987 17.54H27.9987V17.4169L27.9688 17.2975L26.9987 17.54ZM26.9987 17.9H25.9987V17.9746L26.0097 18.0483L26.9987 17.9ZM27.0887 18.5L26.0997 18.6483L26.1098 18.7151L26.1287 18.78L27.0887 18.5ZM27.5087 19.94H28.5087V19.7971L28.4687 19.66L27.5087 19.94ZM27.5087 20.66L28.4884 20.8604L28.5087 20.7612V20.66H27.5087ZM27.2387 21.98L28.1965 22.2673L28.2094 22.2244L28.2184 22.1804L27.2387 21.98ZM26.8787 23.18L25.9209 22.8927L25.9104 22.9275L25.9025 22.9631L26.8787 23.18ZM26.8187 23.45L27.7507 23.8124L27.7783 23.7414L27.7949 23.6669L26.8187 23.45ZM26.3987 24.53L27.2074 25.1182L27.2837 25.0133L27.3307 24.8924L26.3987 24.53ZM26.1587 24.86L26.7726 25.6494L26.8842 25.5625L26.9674 25.4482L26.1587 24.86ZM25.8887 25.07L25.2747 24.2806L25.1347 24.3896L25.0407 24.54L25.8887 25.07ZM25.5887 25.55L24.7407 25.02L24.6889 25.1028L24.6542 25.194L25.5887 25.55ZM25.3487 26.18L24.4142 25.824L24.3745 25.9282L24.3587 26.0386L25.3487 26.18ZM25.3187 26.39L26.2393 26.7806L26.2902 26.6605L26.3086 26.5314L25.3187 26.39ZM24.8987 27.38L25.577 28.1148L25.7352 27.9688L25.8193 27.7705L24.8987 27.38ZM24.5087 27.74L23.8304 27.0052L23.725 27.1025L23.6512 27.2255L24.5087 27.74ZM24.2387 28.19L23.3812 27.6755L23.3317 27.7579L23.2989 27.8483L24.2387 28.19ZM23.9987 28.85L23.0589 28.5083L23.0145 28.6302L23.0028 28.7595L23.9987 28.85ZM23.9087 29.84L22.9128 29.7495L22.8974 29.9182L22.9385 30.0825L23.9087 29.84ZM24.0587 30.44L23.0885 30.6825L23.1471 30.9168L23.3061 31.0985L24.0587 30.44ZM24.2687 30.68L23.5161 31.3385L23.6743 31.5193L23.8973 31.6085L24.2687 30.68ZM24.5687 30.8L24.1973 31.7285L24.7191 31.9372L25.1687 31.6L24.5687 30.8ZM24.8087 30.62L25.4087 31.42L25.5742 31.2958L25.6769 31.1161L24.8087 30.62ZM25.0487 30.2L25.9169 30.6961L25.9478 30.6421L25.9718 30.5846L25.0487 30.2ZM26.0987 27.68L25.1868 27.2696L25.181 27.2824L25.1756 27.2954L26.0987 27.68ZM26.3687 27.08L25.4945 26.5944L25.4741 26.6312L25.4568 26.6696L26.3687 27.08ZM26.9687 26L26.3179 25.2407L26.1817 25.3575L26.0945 25.5144L26.9687 26ZM27.3887 25.64L28.0395 26.3993L28.2019 26.2601L28.2931 26.0666L27.3887 25.64ZM28.1387 24.05L27.3493 23.4361L27.2814 23.5234L27.2342 23.6234L28.1387 24.05ZM28.3487 23.78L29.138 24.3939L29.2785 24.2133L29.3265 23.9895L28.3487 23.78ZM28.4387 23.36L29.4165 23.5695L29.452 23.404L29.431 23.236L28.4387 23.36ZM28.3187 22.4H27.3187V22.4623L27.3264 22.524L28.3187 22.4ZM28.3187 21.77L27.764 20.938L27.3187 21.2348V21.77H28.3187ZM28.4087 21.71L28.7249 20.7613L28.2609 20.6067L27.854 20.878L28.4087 21.71ZM28.4987 21.74L29.3931 21.2928L29.2079 20.9223L28.8149 20.7913L28.4987 21.74ZM28.5587 21.86L27.6643 22.3072L27.8133 22.6054L28.1115 22.7544L28.5587 21.86ZM28.6787 21.92L28.2315 22.8144L29.0381 23.2178L29.5223 22.4569L28.6787 21.92ZM28.8887 21.59L29.7323 22.1269L29.8416 21.9552L29.8751 21.7544L28.8887 21.59ZM28.9487 21.23L29.9351 21.3944L29.9487 21.3128V21.23H28.9487ZM28.9487 19.4H29.9487V19.3414L29.9418 19.2832L28.9487 19.4ZM28.8887 18.89L27.9185 18.6475L27.8741 18.825L27.8955 19.0068L28.8887 18.89ZM28.9787 18.53L29.9488 18.7725L29.971 18.6837L29.9767 18.5924L28.9787 18.53ZM28.7687 18.5L27.9687 19.1L29.2293 20.7808L29.7388 18.7425L28.7687 18.5ZM28.4987 18.14L27.5064 18.264L27.5393 18.5275L27.6987 18.74L28.4987 18.14ZM28.4687 17.9L29.3262 17.3855L27.4764 18.024L28.4687 17.9ZM28.5587 18.05L27.7012 18.5645L27.9925 19.05H28.5587V18.05ZM28.6487 18.05V19.05H29.0629L29.3558 18.7571L28.6487 18.05ZM28.7387 17.96L29.1859 17.0656L28.5412 16.7432L28.0316 17.2529L28.7387 17.96ZM28.7987 17.99L29.7926 17.8796L29.7325 17.3389L29.2459 17.0956L28.7987 17.99ZM28.8287 18.26L29.7988 18.5025L29.8424 18.3282L29.8226 18.1496L28.8287 18.26ZM25.8287 34.88H26.8287V34.8089L26.8186 34.7386L25.8287 34.88ZM25.7987 34.67L26.7886 34.5286L26.7524 34.275L26.5987 34.07L25.7987 34.67ZM25.7087 34.55L26.5087 33.95L26.3968 33.8008L26.2387 33.702L25.7087 34.55ZM25.4687 34.4L24.5549 34.8061L24.6792 35.0858L24.9387 35.248L25.4687 34.4ZM25.3487 34.13L24.3564 34.254L24.3748 34.4009L24.4349 34.5361L25.3487 34.13ZM25.3187 33.89L26.311 33.766L26.2848 33.5565L26.1762 33.3755L25.3187 33.89ZM25.1387 33.59L25.9962 33.0755L25.8251 32.7904L25.5173 32.6645L25.1387 33.59ZM24.4787 33.32L24.8573 32.3945L24.7687 32.3582L24.6748 32.3394L24.4787 33.32ZM24.1787 33.26L24.3748 32.2794L23.9585 32.1962L23.6095 32.4378L24.1787 33.26ZM23.7887 33.53L23.2195 32.7078L23.0088 32.8536L22.8943 33.0828L23.7887 33.53ZM23.6987 33.71L22.8043 33.2628L22.6987 33.4739V33.71H23.6987ZM23.6987 33.83L24.5307 34.3847L24.6987 34.1328V33.83H23.6987ZM23.5787 34.01L22.7466 33.4553L22.6505 33.5994L22.6085 33.7675L23.5787 34.01ZM23.4887 34.37L22.5185 34.1275L22.464 34.3456L22.5081 34.5661L23.4887 34.37ZM23.5187 34.52L24.4378 34.9139L24.5602 34.6284L24.4993 34.3239L23.5187 34.52ZM23.4287 34.73L22.9815 35.6244L23.9301 36.0987L24.3478 35.1239L23.4287 34.73ZM23.3687 34.7L23.8159 33.8056L22.9215 33.3584L22.4743 34.2528L23.3687 34.7ZM23.3387 34.76L22.4443 34.3128L22.2632 34.675L22.3851 35.0611L23.3387 34.76ZM23.5187 35.33L22.5651 35.6311L22.623 35.8145L22.7447 35.9632L23.5187 35.33ZM23.7887 35.66L23.0147 36.2932L23.1249 36.4279L23.2742 36.5175L23.7887 35.66ZM24.0887 35.84L23.5742 36.6975L23.8117 36.84H24.0887V35.84ZM24.3887 35.84L25.0958 35.1329L24.8029 34.84H24.3887V35.84ZM24.4487 35.9L23.7416 36.6071L24.0345 36.9H24.4487V35.9ZM25.0787 35.9V36.9H25.1716L25.263 36.8829L25.0787 35.9ZM25.5587 35.81L25.743 36.7929L26.1253 36.7212L26.3587 36.41L25.5587 35.81ZM25.8287 35.45L26.6287 36.05L26.8287 35.7833V35.45H25.8287ZM23.9687 34.34L24.9174 34.6562L25.5498 32.7589L23.6525 33.3913L23.9687 34.34ZM23.9387 34.43L23.2316 35.1371L24.3757 36.2812L24.8874 34.7462L23.9387 34.43ZM23.8787 34.37L23.5625 33.4213L22.0275 33.933L23.1716 35.0771L23.8787 34.37ZM24.9887 34.55L25.5434 35.382L28.2915 33.55H24.9887V34.55ZM24.8987 34.61L24.0043 35.0572L24.5108 36.0704L25.4534 35.4421L24.8987 34.61ZM24.8687 34.55V33.55H23.2506L23.9743 34.9972L24.8687 34.55ZM24.3587 34.73H25.3587V33.3426L24.0425 33.7813L24.3587 34.73ZM24.3587 34.82L23.804 35.6521L25.3587 36.6885V34.82H24.3587ZM24.2687 34.76L23.9525 33.8113L22.0127 34.4579L23.714 35.5921L24.2687 34.76ZM29.9504 17.7137L29.6504 16.8737L27.7669 17.5463L28.0669 18.3863L29.9504 17.7137ZM29.4736 16.5659L28.9936 15.9959L27.4638 17.2841L27.9438 17.8541L29.4736 16.5659ZM29.0969 16.1439L28.6169 15.3039L26.8804 16.2961L27.3604 17.1361L29.0969 16.1439ZM28.4558 15.0929L28.1858 14.8229L26.7716 16.2371L27.0416 16.5071L28.4558 15.0929ZM27.7212 14.5599L26.2812 14.1999L25.7961 16.1401L27.2361 16.5001L27.7212 14.5599ZM26.0387 14.17H25.1987V16.17H26.0387V14.17ZM24.9912 14.1918L24.0012 14.4018L24.4162 16.3582L25.4062 16.1482L24.9912 14.1918ZM23.723 14.5058L22.643 15.1058L23.6143 16.8542L24.6943 16.2542L23.723 14.5058ZM22.2604 15.4839L21.6604 16.5339L23.3969 17.5261L23.9969 16.4761L22.2604 15.4839ZM21.6277 16.5962L21.2377 17.4062L23.0397 18.2738L23.4297 17.4638L21.6277 16.5962ZM21.182 17.5488L20.972 18.2388L22.8854 18.8212L23.0954 18.1312L21.182 17.5488ZM20.9355 18.4132L20.8155 19.4332L22.8018 19.6668L22.9218 18.6468L20.9355 18.4132ZM20.8239 19.7238L20.9139 20.2338L22.8835 19.8862L22.7935 19.3762L20.8239 19.7238ZM21.274 19.2791L21.124 19.3991L22.3734 20.9609L22.5234 20.8409L21.274 19.2791ZM21.3773 21.1085L21.5273 21.1685L22.2701 19.3115L22.1201 19.2515L21.3773 21.1085ZM21.8274 21.2375L22.2474 21.2675L22.3899 19.2725L21.9699 19.2425L21.8274 21.2375ZM22.6777 21.2033L23.0677 21.0533L22.3497 19.1867L21.9597 19.3367L22.6777 21.2033ZM23.4158 20.8271L23.7758 20.4671L22.3616 19.0529L22.0016 19.4129L23.4158 20.8271ZM23.9991 20.1265L24.3891 19.1365L22.5283 18.4035L22.1383 19.3935L23.9991 20.1265ZM24.4486 18.6286L24.4186 18.4186L22.4387 18.7014L22.4687 18.9114L24.4486 18.6286ZM24.1358 17.8529L23.9258 17.6429L22.5116 19.0571L22.7216 19.2671L24.1358 17.8529ZM24.2126 18.2396L24.1826 17.9696L22.1948 18.1904L22.2248 18.4604L24.2126 18.2396ZM23.8614 18.8199L24.1914 18.5199L22.846 17.0401L22.516 17.3401L23.8614 18.8199ZM24.3187 18.38L24.8587 17.66L23.2587 16.46L22.7187 17.18L24.3187 18.38ZM24.4826 17.9657L25.8926 17.3057L25.0447 15.4943L23.6347 16.1543L24.4826 17.9657ZM24.8285 17.1682L25.0085 17.3182L26.2889 15.7818L26.1089 15.6318L24.8285 17.1682ZM25.1819 17.4344L26.2619 18.0044L27.1954 16.2356L26.1154 15.6656L25.1819 17.4344ZM26.0779 17.8793L26.2879 18.0593L27.5895 16.5407L27.3795 16.3607L26.0779 17.8793ZM25.9685 17.5425L26.0285 17.7825L27.9688 17.2975L27.9088 17.0575L25.9685 17.5425ZM25.9987 17.54V17.9H27.9987V17.54H25.9987ZM26.0097 18.0483L26.0997 18.6483L28.0776 18.3517L27.9876 17.7517L26.0097 18.0483ZM26.1287 18.78L26.5487 20.22L28.4687 19.66L28.0487 18.22L26.1287 18.78ZM26.5087 19.94V20.66H28.5087V19.94H26.5087ZM26.529 20.4596L26.259 21.7796L28.2184 22.1804L28.4884 20.8604L26.529 20.4596ZM26.2809 21.6927L25.9209 22.8927L27.8365 23.4673L28.1965 22.2673L26.2809 21.6927ZM25.9025 22.9631L25.8425 23.2331L27.7949 23.6669L27.8549 23.3969L25.9025 22.9631ZM25.8867 23.0876L25.4667 24.1676L27.3307 24.8924L27.7507 23.8124L25.8867 23.0876ZM25.5899 23.9418L25.3499 24.2718L26.9674 25.4482L27.2074 25.1182L25.5899 23.9418ZM25.5447 24.0706L25.2747 24.2806L26.5026 25.8594L26.7726 25.6494L25.5447 24.0706ZM25.0407 24.54L24.7407 25.02L26.4367 26.08L26.7367 25.6L25.0407 24.54ZM24.6542 25.194L24.4142 25.824L26.2832 26.536L26.5232 25.906L24.6542 25.194ZM24.3587 26.0386L24.3287 26.2486L26.3086 26.5314L26.3386 26.3214L24.3587 26.0386ZM24.3981 25.9994L23.9781 26.9894L25.8193 27.7705L26.2393 26.7806L24.3981 25.9994ZM24.2204 26.6452L23.8304 27.0052L25.187 28.4748L25.577 28.1148L24.2204 26.6452ZM23.6512 27.2255L23.3812 27.6755L25.0962 28.7045L25.3662 28.2545L23.6512 27.2255ZM23.2989 27.8483L23.0589 28.5083L24.9385 29.1917L25.1785 28.5317L23.2989 27.8483ZM23.0028 28.7595L22.9128 29.7495L24.9046 29.9305L24.9946 28.9405L23.0028 28.7595ZM22.9385 30.0825L23.0885 30.6825L25.0288 30.1975L24.8788 29.5975L22.9385 30.0825ZM23.3061 31.0985L23.5161 31.3385L25.0213 30.0215L24.8113 29.7815L23.3061 31.0985ZM23.8973 31.6085L24.1973 31.7285L24.9401 29.8715L24.6401 29.7515L23.8973 31.6085ZM25.1687 31.6L25.4087 31.42L24.2087 29.82L23.9687 30L25.1687 31.6ZM25.6769 31.1161L25.9169 30.6961L24.1804 29.7039L23.9404 30.1239L25.6769 31.1161ZM25.9718 30.5846L27.0218 28.0646L25.1756 27.2954L24.1256 29.8154L25.9718 30.5846ZM27.0106 28.0904L27.2806 27.4904L25.4568 26.6696L25.1868 27.2696L27.0106 28.0904ZM27.2428 27.5656L27.8428 26.4856L26.0945 25.5144L25.4945 26.5944L27.2428 27.5656ZM27.6195 26.7593L28.0395 26.3993L26.7379 24.8807L26.3179 25.2407L27.6195 26.7593ZM28.2931 26.0666L29.0431 24.4766L27.2342 23.6234L26.4842 25.2134L28.2931 26.0666ZM28.928 24.6639L29.138 24.3939L27.5593 23.1661L27.3493 23.4361L28.928 24.6639ZM29.3265 23.9895L29.4165 23.5695L27.4609 23.1505L27.3709 23.5705L29.3265 23.9895ZM29.431 23.236L29.311 22.276L27.3264 22.524L27.4464 23.484L29.431 23.236ZM29.3187 22.4V21.77H27.3187V22.4H29.3187ZM28.8734 22.602L28.9634 22.542L27.854 20.878L27.764 20.938L28.8734 22.602ZM28.0925 22.6587L28.1825 22.6887L28.8149 20.7913L28.7249 20.7613L28.0925 22.6587ZM27.6043 22.1872L27.6643 22.3072L29.4531 21.4128L29.3931 21.2928L27.6043 22.1872ZM28.1115 22.7544L28.2315 22.8144L29.1259 21.0256L29.0059 20.9656L28.1115 22.7544ZM29.5223 22.4569L29.7323 22.1269L28.045 21.0531L27.835 21.3831L29.5223 22.4569ZM29.8751 21.7544L29.9351 21.3944L27.9623 21.0656L27.9023 21.4256L29.8751 21.7544ZM29.9487 21.23V19.4H27.9487V21.23H29.9487ZM29.9418 19.2832L29.8818 18.7732L27.8955 19.0068L27.9555 19.5168L29.9418 19.2832ZM29.8588 19.1325L29.9488 18.7725L28.0085 18.2875L27.9185 18.6475L29.8588 19.1325ZM29.9767 18.5924L30.0067 18.1124L28.0106 17.9876L27.9806 18.4676L29.9767 18.5924ZM29.5687 17.9L29.2987 17.54L27.6987 18.74L27.9687 19.1L29.5687 17.9ZM29.491 18.016L29.461 17.776L27.4764 18.024L27.5064 18.264L29.491 18.016ZM27.6112 18.4145L27.7012 18.5645L29.4162 17.5355L29.3262 17.3855L27.6112 18.4145ZM28.5587 19.05H28.6487V17.05H28.5587V19.05ZM29.3558 18.7571L29.4458 18.6671L28.0316 17.2529L27.9416 17.3429L29.3558 18.7571ZM28.2915 18.8544L28.3515 18.8844L29.2459 17.0956L29.1859 17.0656L28.2915 18.8544ZM27.8048 18.1004L27.8348 18.3704L29.8226 18.1496L29.7926 17.8796L27.8048 18.1004ZM27.8585 18.0175L27.7985 18.2575L29.7388 18.7425L29.7988 18.5025L27.8585 18.0175ZM28.4687 18.91H28.3787V20.91H28.4687V18.91ZM28.3787 20.91H28.4687V18.91H28.3787V20.91ZM27.8816 21.4571L27.9116 21.4871L29.3258 20.0729L29.2958 20.0429L27.8816 21.4571ZM29.3258 20.0729L29.2958 20.0429L27.8816 21.4571L27.9116 21.4871L29.3258 20.0729ZM26.8186 34.7386L26.7886 34.5286L24.8087 34.8114L24.8387 35.0214L26.8186 34.7386ZM26.5987 34.07L26.5087 33.95L24.9087 35.15L24.9987 35.27L26.5987 34.07ZM26.2387 33.702L25.9987 33.552L24.9387 35.248L25.1787 35.398L26.2387 33.702ZM26.3825 33.9939L26.2625 33.7239L24.4349 34.5361L24.5549 34.8061L26.3825 33.9939ZM26.341 34.006L26.311 33.766L24.3264 34.014L24.3564 34.254L26.341 34.006ZM26.1762 33.3755L25.9962 33.0755L24.2812 34.1045L24.4612 34.4045L26.1762 33.3755ZM25.5173 32.6645L24.8573 32.3945L24.1 34.2455L24.76 34.5155L25.5173 32.6645ZM24.6748 32.3394L24.3748 32.2794L23.9826 34.2406L24.2826 34.3006L24.6748 32.3394ZM23.6095 32.4378L23.2195 32.7078L24.3579 34.3522L24.7479 34.0822L23.6095 32.4378ZM22.8943 33.0828L22.8043 33.2628L24.5931 34.1572L24.6831 33.9772L22.8943 33.0828ZM22.6987 33.71V33.83H24.6987V33.71H22.6987ZM22.8666 33.2753L22.7466 33.4553L24.4107 34.5647L24.5307 34.3847L22.8666 33.2753ZM22.6085 33.7675L22.5185 34.1275L24.4588 34.6125L24.5488 34.2525L22.6085 33.7675ZM22.5081 34.5661L22.5381 34.7161L24.4993 34.3239L24.4693 34.1739L22.5081 34.5661ZM22.5995 34.1261L22.5095 34.3361L24.3478 35.1239L24.4378 34.9139L22.5995 34.1261ZM23.8759 33.8356L23.8159 33.8056L22.9215 35.5944L22.9815 35.6244L23.8759 33.8356ZM22.4743 34.2528L22.4443 34.3128L24.2331 35.2072L24.2631 35.1472L22.4743 34.2528ZM22.3851 35.0611L22.5651 35.6311L24.4723 35.0289L24.2923 34.4589L22.3851 35.0611ZM22.7447 35.9632L23.0147 36.2932L24.5626 35.0268L24.2926 34.6968L22.7447 35.9632ZM23.2742 36.5175L23.5742 36.6975L24.6032 34.9825L24.3032 34.8025L23.2742 36.5175ZM24.0887 36.84H24.3887V34.84H24.0887V36.84ZM23.6816 36.5471L23.7416 36.6071L25.1558 35.1929L25.0958 35.1329L23.6816 36.5471ZM24.4487 36.9H25.0787V34.9H24.4487V36.9ZM25.263 36.8829L25.743 36.7929L25.3744 34.8271L24.8944 34.9171L25.263 36.8829ZM26.3587 36.41L26.6287 36.05L25.0287 34.85L24.7587 35.21L26.3587 36.41ZM26.8287 35.45V35.3H24.8287V35.45H26.8287ZM26.8287 35.3V34.88H24.8287V35.3H26.8287ZM25.2002 33.6153L25.1402 33.4053L23.2172 33.9547L23.2772 34.1647L25.2002 33.6153ZM23.2172 33.9547L23.2772 34.1647L25.2002 33.6153L25.1402 33.4053L23.2172 33.9547ZM23.02 34.0238L22.99 34.1138L24.8874 34.7462L24.9174 34.6562L23.02 34.0238ZM24.6458 33.7229L24.5858 33.6629L23.1716 35.0771L23.2316 35.1371L24.6458 33.7229ZM24.1949 35.3187L24.2849 35.2887L23.6525 33.3913L23.5625 33.4213L24.1949 35.3187ZM24.434 33.7179L24.344 33.778L25.4534 35.4421L25.5434 35.382L24.434 33.7179ZM25.7931 34.1628L25.7631 34.1028L23.9743 34.9972L24.0043 35.0572L25.7931 34.1628ZM24.8687 35.55H24.9887V33.55H24.8687V35.55ZM23.3587 34.73V34.82H25.3587V34.73H23.3587ZM24.9134 33.9879L24.8234 33.9279L23.714 35.5921L23.804 35.6521L24.9134 33.9879ZM24.5849 35.7087L24.6749 35.6787L24.0425 33.7813L23.9525 33.8113L24.5849 35.7087Z" fill="#2C292D"/>
</svg>
