<svg width="107" height="81" viewBox="0 0 107 81" fill="none" xmlns="http://www.w3.org/2000/svg">
<path d="M32.2822 53.8128C27.6477 52.1431 22.7727 51.1026 18.0488 49.7126C12.9472 48.2134 7.81489 46.5661 2.59588 45.5144C2.34136 45.4641 2.28822 45.8361 2.52875 45.9088C2.57071 45.92 2.60986 45.9312 2.65182 45.9424C1.65332 49.0861 1.64773 52.7864 1.53585 56.0559C1.44915 58.4837 1.48271 61.0988 2.31899 63.4034C2.38891 63.5992 2.70496 63.5656 2.69097 63.3419C2.47561 60.2345 2.15677 57.1859 2.31619 54.059C2.45044 51.3935 3.07974 48.6414 2.76929 45.9787C12.4745 48.8288 22.3112 51.9529 32.1871 54.0981C32.3549 54.1345 32.4444 53.8716 32.2822 53.8128Z" fill="#C970F3"/>
<path d="M32.9331 54.002C32.8963 54.002 32.8963 54.0557 32.9331 54.0557C32.9698 54.0557 32.9698 54.002 32.9331 54.002Z" fill="#C970F3"/>
<path d="M33.8896 54.1621C33.8529 54.1621 33.8529 54.2186 33.8896 54.2186C33.9264 54.2186 33.9264 54.1621 33.8896 54.1621Z" fill="#C970F3"/>
<path d="M106.7 27.9189C106.632 27.9888 106.565 28.0587 106.501 28.1286C106.674 27.4574 106.663 26.7274 106.409 26.1708C106.395 26.1344 106.372 26.1121 106.353 26.0897C106.423 26.0142 106.406 25.8687 106.322 25.8072C105.307 25.0772 103.416 24.9122 102.146 25.0968C101.948 24.0088 101.777 22.918 101.718 21.7853C101.525 18.0039 102.899 14.4042 104.445 11.02C104.451 11.0563 104.454 11.0927 104.465 11.1263C104.51 11.2465 104.649 11.2493 104.731 11.171C105.17 10.7459 105.038 9.60755 105.047 9.04538C105.049 8.8468 105.038 8.6678 105.005 8.49998C105.019 8.45803 105.038 8.42167 105.052 8.37972C105.083 8.28462 105.117 8.14478 105.1 8.03849C105.293 7.85949 105.217 7.41758 104.859 7.37843C96.3119 6.43028 87.882 5.01784 79.4158 3.50472C72.0208 2.18458 64.3293 0.358207 56.7917 0.209971C56.9064 0.103689 56.7525 -0.0641256 56.6239 0.0253752C47.2207 6.503 38.1811 13.5987 29.0464 20.4539C19.6237 27.5273 10.2429 34.7153 1.28999 42.3844C1.26203 42.4096 1.24524 42.4376 1.22846 42.4655C1.18092 42.4711 1.13057 42.4991 1.11938 42.5578C0.246751 46.2609 0.227173 50.3808 0.0565619 54.179C-0.102861 57.6331 0.0705464 61.0398 0.629926 64.4492C0.674677 64.7373 1.00751 64.754 1.15854 64.5918C1.11659 64.7009 1.15295 64.8435 1.29559 64.9051C8.84442 68.1019 44.0938 79.2252 54.0451 80.9872C54.3584 81.046 54.5793 80.8949 54.6912 80.6768C56.2043 80.5453 57.9384 79.7063 58.9453 78.6994C58.7132 78.9763 58.4754 79.2476 58.2433 79.5245C58.0894 79.7091 58.3691 79.9776 58.5453 79.8153C62.7071 75.936 66.3683 71.4862 70.2056 67.2908C74.4821 62.6144 78.8592 58.0359 83.256 53.4713C90.7684 45.6792 98.527 37.9905 105.491 29.6809C105.536 29.6837 105.584 29.6669 105.628 29.6306C105.894 29.4068 106.107 29.0992 106.269 28.7523C106.465 28.5202 106.663 28.2908 106.856 28.0559C106.94 27.9524 106.792 27.8238 106.7 27.9189ZM1.35992 42.8879C1.46061 42.9438 1.58926 42.9466 1.70394 42.8487C10.3827 35.4201 19.4726 28.4531 28.5849 21.5699C37.8902 14.5385 47.629 7.92382 56.5539 0.408551C64.444 1.94125 72.5047 2.78871 80.4255 4.22073C88.4106 5.66113 96.393 7.05958 104.445 8.06087C104.431 8.08604 104.409 8.10562 104.395 8.13079C104.347 8.20911 104.308 8.29861 104.263 8.37972C104.188 8.52516 104.121 8.67339 104.048 8.81883C103.875 9.16005 103.701 9.49568 103.564 9.85368C103.553 9.89284 103.556 9.9264 103.561 9.95996C93.9429 16.6977 85.1243 24.8702 76.4847 32.7911C72.2222 36.6927 68.08 40.7287 63.7392 44.5408C60.1508 47.6929 56.0841 50.6353 53.2117 54.5062C53.1921 54.509 53.1725 54.5034 53.1529 54.509C52.2803 54.7775 51.5783 55.4068 50.6833 55.6641C50.0595 55.8431 49.4246 55.8571 48.787 55.8739C48.717 55.79 48.6219 55.7173 48.4877 55.6837C40.8354 53.6951 32.9817 52.4617 25.3126 50.4703C17.5931 48.4649 9.96318 45.7771 2.10669 44.3423C1.80462 44.2891 1.66758 44.6499 1.85217 44.8205C1.60604 45.7966 1.39628 46.7979 1.22567 47.8132C1.38509 46.1602 1.48578 44.5073 1.35992 42.8879ZM49.5197 56.8612C49.0918 57.029 48.6331 57.1465 48.208 57.3199C47.8724 57.2611 47.5367 57.1912 47.1983 57.1269C47.5451 57.0514 47.8947 56.9087 48.1912 56.7829C48.2164 56.7857 48.2444 56.7913 48.2695 56.7941C48.387 56.8108 48.4849 56.7913 48.5716 56.7577C48.8681 56.8192 49.1897 56.85 49.5197 56.8612ZM1.41865 64.4632C1.32356 64.4436 1.25084 64.4743 1.20329 64.5247C1.22846 64.4743 1.24245 64.4156 1.23126 64.3457C0.730615 61.2383 0.557207 58.2149 0.63552 55.1103C0.63552 58.3128 0.962758 61.5068 1.57808 64.4995C1.52493 64.4883 1.47179 64.4743 1.41865 64.4632ZM105.287 29.39C102.854 31.9128 100.435 34.4468 98.0208 36.9864C100.834 33.8735 103.489 30.6458 105.824 27.2504C105.737 27.9748 105.461 28.6628 105.287 29.39ZM105.844 26.6966C105.802 26.6966 105.76 26.7134 105.726 26.7498C102.012 30.8332 98.5886 35.188 94.8659 39.2743C90.7377 43.7997 86.4668 48.1964 82.1819 52.5735C74.0234 60.9083 65.7222 69.1284 57.6391 77.5331C57.5888 77.5862 57.5636 77.645 57.5524 77.7037C55.631 78.0421 53.978 78.3833 51.9754 78.2491C50.2637 78.1344 48.566 77.5946 46.9326 77.1051C46.9214 77.1023 46.9102 77.1079 46.9018 77.1079C42.5639 75.5696 37.9154 74.5432 33.5019 73.279C28.35 71.8078 23.2009 70.3199 18.0518 68.8263C17.8337 68.762 17.733 69.0948 17.9511 69.1647C27.785 72.3085 37.7784 75.0802 47.7129 77.8911C47.8276 77.9246 47.9115 77.8771 47.9563 77.8044C50.921 79.1189 54.7583 79.4573 57.6839 78.098C57.7958 78.1903 57.9496 78.2155 58.0811 78.0757C66.3403 69.3354 74.8177 60.7713 83.2196 52.168C86.092 49.2284 89.0875 46.2889 92.041 43.2878C88.7239 46.7923 85.4068 50.2941 82.0701 53.779C74.3534 61.8397 66.4158 69.8752 59.197 78.4057C59.2613 78.2407 59.1495 78.0449 58.9453 78.0925C57.9804 78.3106 57.0462 78.7162 56.1288 79.0798C55.5359 79.3147 54.9094 79.4573 54.322 79.6867C54.2857 79.6755 54.2493 79.6643 54.2101 79.6587C44.1105 78.0449 5.73707 65.4533 2.04516 64.6086C2.04516 64.5946 2.04795 64.5862 2.04516 64.5722C2.02278 64.466 2.0088 64.3625 1.98642 64.2562C7.1467 65.5931 12.1392 67.3496 17.2072 68.9829C17.3162 69.0165 17.3582 68.8599 17.2575 68.8151C12.3573 66.7035 7.17467 65.14 1.98363 63.9178C1.96125 63.9122 1.94167 63.9122 1.92489 63.9178C0.733412 57.5157 1.44103 51.3569 2.18221 44.9464C10.1338 47.2343 18.1833 49.1977 26.1321 51.5107C32.7104 53.4238 39.504 55.3089 46.2949 56.4612C46.1802 56.4976 46.0712 56.5367 45.9677 56.5927C45.895 56.629 45.9145 56.7241 45.9817 56.7521C46.2222 56.8528 46.4599 56.7297 46.6921 56.6514C46.7508 56.6318 46.776 56.5927 46.7872 56.5479C47.0333 56.5871 47.2794 56.6346 47.5256 56.6738C47.478 56.6878 47.4333 56.7074 47.3857 56.7213C47.0836 56.8108 46.762 56.836 46.4767 56.987C43.1932 56.341 39.9515 55.5522 36.6708 54.8782C36.4135 54.7327 36.1086 54.6628 35.8317 54.5901C35.7618 54.5733 35.7226 54.6348 35.7282 54.688C35.4234 54.6265 35.1185 54.5733 34.8108 54.5146C34.8556 54.5118 34.8975 54.509 34.9395 54.5062C35.029 54.4978 35.0206 54.358 34.9339 54.3524C34.8808 54.3468 34.8248 54.3412 34.7689 54.3384C34.6766 54.33 34.6598 54.4475 34.7074 54.495C34.3885 54.4363 34.0697 54.3719 33.748 54.316C33.625 54.2964 33.5662 54.4894 33.6865 54.5314C39.4873 56.5395 45.8418 57.91 51.9782 58.1589C52.1125 58.1617 52.1404 58.0079 52.0649 57.938C52.1265 57.9324 52.188 57.9184 52.2495 57.91C50.9154 62.9416 51.5195 70.0989 54.5709 74.4397C54.694 74.6159 54.9933 74.4649 54.9457 74.2607C54.7639 73.4832 54.5486 72.7224 54.3276 71.9644C58.6488 67.5509 63.3616 63.4814 67.5486 58.9477C67.6381 58.8526 67.4758 58.6932 67.3835 58.7854C63.1854 63.0535 57.6475 66.6671 54.2353 71.6596C54.0339 70.9771 53.827 70.3003 53.634 69.6178C55.919 67.1817 58.1566 64.7456 60.6095 62.455C63.3364 59.907 66.111 57.401 68.4883 54.5146C68.5694 54.4167 68.4296 54.2852 68.3429 54.3803C63.6721 59.3588 57.6168 63.6045 53.4885 69.0948C53.3431 68.555 53.2061 68.0096 53.0942 67.4558C55.8407 64.1527 58.4335 60.9503 61.6079 58.0219C64.7768 55.0991 68.1359 52.3973 71.2684 49.4298C71.3691 49.3347 71.2433 49.1529 71.1342 49.2508C67.6632 52.333 64.0636 55.2586 60.6346 58.3883C57.8629 60.9195 54.859 63.7835 53.0271 67.1118C52.9991 66.9524 52.9627 66.793 52.9376 66.6308C52.8536 66.1189 52.7977 65.6071 52.7586 65.0981C56.0925 61.5544 59.2334 57.9128 62.7938 54.5761C66.3403 51.2534 70.0826 48.1293 73.8528 45.0667C73.9395 44.9967 73.822 44.8737 73.7325 44.9408C66.3431 50.7276 58.2097 57.0262 52.7362 64.7764C52.6579 63.5178 52.6802 62.2648 52.725 61.0062C56.856 57.4234 60.9311 53.7706 65.0258 50.1458C69.1232 46.521 73.4053 42.9102 77.0077 38.782C77.0524 38.7317 76.9797 38.6478 76.9266 38.6925C72.8123 42.3397 68.9079 46.2302 64.7936 49.8829C60.7633 53.4685 56.6239 56.9535 52.7362 60.6985C52.7669 59.7867 52.8033 58.875 52.8117 57.9548C52.8117 57.8876 52.7893 57.8345 52.7558 57.7926C53.5277 57.5408 54.1794 56.9842 54.4367 56.1592C61.2248 51.0073 67.2409 44.6219 73.4948 38.8771C77.2398 35.4397 80.9877 32.0079 84.7551 28.5957C87.9631 25.6869 91.3949 22.9124 94.3596 19.7547C94.4492 19.6596 94.3037 19.5226 94.2058 19.5953C90.4524 22.3502 87.0681 25.7261 83.6168 28.8474C80.0927 32.0303 76.5881 35.2272 73.1032 38.452C66.4997 44.5632 60.1452 51.2702 52.932 56.6738C52.7697 56.7661 52.6103 56.8584 52.4425 56.9423C51.9614 57.1884 51.43 57.3339 50.9685 57.6191C50.9126 57.6527 50.9126 57.7114 50.9406 57.7534C50.2777 57.6667 49.6204 57.5632 48.9632 57.4541C49.2345 57.359 49.5002 57.25 49.7491 57.1437C49.8833 57.0877 49.8638 56.9395 49.7826 56.864C50.8958 56.8472 52.0929 56.5312 52.8592 55.8599C52.9292 55.8739 53.0075 55.8543 53.0886 55.7872C61.7142 48.5935 69.993 40.944 78.1376 33.205C86.5115 25.2506 95.1008 17.6766 103.824 10.1278C103.836 10.125 103.85 10.1278 103.861 10.1222C104.152 9.99912 104.353 9.76418 104.521 9.50407C104.479 9.8341 104.409 10.2117 104.401 10.5557C101.495 13.2463 98.3844 15.66 95.4225 18.2807C95.3414 18.3535 95.4532 18.4905 95.5399 18.429C98.334 16.4795 101.178 14.3231 103.587 11.8451C101.137 15.4782 100.297 20.6889 101.304 25.0548C101.268 25.0325 101.223 25.0269 101.178 25.0632C99.2095 26.7526 97.26 28.5845 95.7105 30.6794C95.635 30.7801 95.7609 30.9004 95.856 30.8109C97.7719 29.06 99.4668 27.0602 101.332 25.2506C101.341 25.2422 101.341 25.231 101.346 25.2226C101.55 26.0673 101.819 26.884 102.166 27.6448C94.066 34.0217 87.0849 42.2278 80.0255 49.6955C76.2721 53.6671 72.5187 57.6387 68.6813 61.532C64.9866 65.2799 61.0402 68.8515 57.4629 72.7252C57.4126 72.6105 57.2811 72.5322 57.1553 72.6105C56.5148 73.0217 55.9274 73.5167 55.3681 74.0397C55.0548 74.3334 54.722 74.6355 54.4255 74.9627C54.336 74.8536 54.2045 74.7753 54.02 74.753C49.9477 74.3083 45.9845 73.9363 41.9849 72.9993C37.4427 71.9337 32.9621 70.6051 28.515 69.2011C24.3197 67.8782 20.1327 66.5273 15.9513 65.1652C13.4369 64.3485 10.9141 63.5458 8.39412 62.7403C6.60131 62.1669 4.77773 61.4117 2.87863 61.4341C2.73879 61.4341 2.69684 61.6047 2.80591 61.683C6.00557 63.9625 10.9225 64.7764 14.634 65.9819C19.1146 67.4363 23.5953 68.8851 28.1207 70.194C36.5449 72.6329 45.0475 75.0998 53.785 76.0563C53.8493 76.1822 54.0311 76.2549 54.1626 76.1934C54.7779 75.9025 55.2814 75.3739 55.7596 74.8984C55.9051 74.753 56.0477 74.6075 56.1903 74.4621C56.2854 74.5572 56.4449 74.6019 56.5623 74.4984C64.7377 67.2125 72.1914 58.8889 79.7682 50.9793C83.5496 47.0357 87.3254 43.0809 91.1572 39.1848C94.9862 35.2859 99.1144 31.6667 102.896 27.7259C103.12 27.4937 102.84 27.1217 102.571 27.3231C102.471 26.7889 102.367 26.2603 102.266 25.7345C102.873 25.8184 103.494 25.8408 104.104 25.9163C104.714 25.9918 105.301 26.1344 105.908 26.1372C105.847 26.21 105.807 26.305 105.821 26.4085C105.835 26.5064 105.838 26.6015 105.844 26.6966Z" fill="#C970F3"/>
<path d="M58.2366 68.4863C58.1999 68.4863 58.1999 68.5429 58.2366 68.5429C58.2705 68.5429 58.2705 68.4863 58.2366 68.4863Z" fill="#C970F3"/>
<path d="M64.9781 63.6278C61.9574 66.9589 58.1369 69.4454 55.161 72.7793C55.0687 72.8855 55.2337 73.0226 55.3372 72.9415C58.8025 70.2341 62.1924 67.0484 65.1347 63.7649C65.2214 63.6642 65.0676 63.5299 64.9781 63.6278Z" fill="#C970F3"/>
<path d="M100.436 17.1972C97.4018 20.1647 94.5266 23.2889 91.506 26.2732C91.4528 26.3235 91.5395 26.413 91.5955 26.3655C94.7308 23.507 97.5976 20.3689 100.537 17.3147C100.604 17.2448 100.509 17.1273 100.436 17.1972Z" fill="#C970F3"/>
<path d="M99.3491 19.6923C94.821 24.6148 89.9488 29.1961 85.3618 34.0571C85.2947 34.1299 85.3898 34.2473 85.4625 34.1746C90.2396 29.4926 95.1426 24.9029 99.5142 19.8293C99.6065 19.723 99.4414 19.5916 99.3491 19.6923Z" fill="#C970F3"/>
<path d="M97.7706 23.4915C94.2045 27.6225 89.9504 31.0571 86.1467 34.9504C86.1019 34.9951 86.169 35.0594 86.2138 35.0175C90.1322 31.2417 94.3136 27.7288 97.8237 23.5474C97.8573 23.511 97.8041 23.4523 97.7706 23.4915Z" fill="#C970F3"/>
<path d="M98.7614 24.7973C97.17 26.4419 95.545 28.0473 93.9815 29.7143C93.892 29.8094 94.0375 29.9352 94.127 29.8485C95.7967 28.2711 97.3938 26.6293 98.9488 24.9372C99.0495 24.8253 98.8621 24.6938 98.7614 24.7973Z" fill="#C970F3"/>
<path d="M84.2237 39.0949C83.2503 40.0822 82.3218 41.1142 81.4463 42.191C81.4184 42.2246 81.4743 42.2638 81.5023 42.2302C82.3833 41.1618 83.3175 40.1409 84.2936 39.1592C84.3355 39.1172 84.2684 39.0501 84.2237 39.0949Z" fill="#C970F3"/>
<path d="M101.366 26.4116C99.5702 28.1037 97.7522 29.7959 96.0796 31.6139C95.9678 31.7341 96.1244 31.9131 96.253 31.804C98.1465 30.221 99.8471 28.403 101.528 26.6018C101.637 26.4843 101.486 26.2997 101.366 26.4116Z" fill="#C970F3"/>
<path fill-rule="evenodd" clip-rule="evenodd" d="M47.8572 60.6229C41.4356 58.542 34.7594 57.0792 28.2622 55.2277C20.8672 53.1244 13.5085 50.8421 6.05477 48.9542C5.99883 48.943 5.97646 49.0213 6.0296 49.0381C12.9687 51.3428 20.0309 53.2866 27.0539 55.3172C33.8671 57.2862 40.9657 58.7518 47.6559 61.0816C47.9607 61.1879 48.1621 60.7236 47.8572 60.6229Z" fill="#C970F3"/>
<path fill-rule="evenodd" clip-rule="evenodd" d="M50.7108 64.0595C43.6262 61.4416 36.0858 59.8166 28.8166 57.7945C21.3741 55.7192 13.9847 53.3334 6.48898 51.4623C6.37151 51.4315 6.30998 51.6245 6.42745 51.6665C13.705 54.2368 21.2594 56.1667 28.6824 58.2755C35.9571 60.3397 43.2151 62.7534 50.5625 64.5238C50.831 64.5881 50.9709 64.1546 50.7108 64.0595Z" fill="#C970F3"/>
<path fill-rule="evenodd" clip-rule="evenodd" d="M51.1518 67.3773C41.5613 62.6757 30.41 60.6591 20.1482 57.9377C20.0727 57.9182 20.0531 58.0356 20.1258 58.0552C25.77 59.7389 31.4449 61.3136 37.0806 63.0169C41.7766 64.4321 46.3216 66.2333 50.9672 67.7828C51.2022 67.8611 51.3812 67.4892 51.1518 67.3773Z" fill="#C970F3"/>
<path fill-rule="evenodd" clip-rule="evenodd" d="M51.2332 69.8411C48.0839 68.2216 44.4228 67.4749 41.0106 66.5911C37.2012 65.601 33.3638 64.7059 29.5461 63.7354C29.4202 63.7047 29.3643 63.92 29.4901 63.962C33.2352 65.1842 37.0306 66.1855 40.8344 67.2064C44.2773 68.1293 47.6728 69.4355 51.1549 70.1571C51.3507 70.1991 51.3843 69.9194 51.2332 69.8411Z" fill="#C970F3"/>
<path fill-rule="evenodd" clip-rule="evenodd" d="M49.9669 70.9346C44.5493 69.3432 38.6059 67.4832 32.9758 66.9854C32.7716 66.9658 32.738 67.2371 32.9254 67.2902C38.3766 68.8481 44.2249 70.8871 49.8774 71.3541C50.1152 71.3737 50.2019 71.0045 49.9669 70.9346Z" fill="#C970F3"/>
<path fill-rule="evenodd" clip-rule="evenodd" d="M43.1894 71.7172C42.121 70.92 40.5323 70.7187 39.2765 70.3495C38.9884 70.2628 38.8821 70.6879 39.1562 70.7914C40.3561 71.2417 41.7685 72.0416 43.0663 72.0444C43.2201 72.0444 43.3236 71.8178 43.1894 71.7172Z" fill="#C970F3"/>
<path fill-rule="evenodd" clip-rule="evenodd" d="M94.5962 9.98263C94.6829 9.87915 94.6633 9.69735 94.4871 9.66378C82.7821 7.31159 70.6631 5.34537 58.7539 4.37205C58.7623 4.36645 58.7707 4.35806 58.7791 4.34967C58.8462 4.28534 58.7623 4.15669 58.6784 4.20983C58.6113 4.25458 58.547 4.30213 58.4798 4.34688C58.4659 4.34688 58.4491 4.34408 58.4351 4.34408C58.3148 4.33289 58.2393 4.42519 58.2169 4.52867C57.3499 5.11323 56.5108 5.73134 55.6773 6.36904C54.6033 7.19692 53.3503 8.00242 52.4469 9.0149C52.2847 9.1939 52.5224 9.40927 52.707 9.30858C52.8581 9.23026 53.0007 9.14076 53.1462 9.05126C58.6421 10.0973 64.2275 10.7126 69.7541 11.5825C75.4822 12.4859 81.0508 13.7584 86.681 15.1121C86.8376 15.1485 86.9523 15.059 87.0026 14.9471C87.025 14.9611 87.0502 14.9695 87.0837 14.9555C88.3284 14.4828 89.4024 13.5291 90.5099 12.7991C91.8301 11.9293 93.2313 11.1937 94.5599 10.3434C94.7137 10.2427 94.6969 10.0693 94.5962 9.98263ZM90.5659 12.0495C89.3604 12.8187 87.9116 13.6018 87.0138 14.743C86.9914 14.6786 86.9383 14.6255 86.8488 14.6031C75.9185 11.9153 64.7729 10.0162 53.5797 8.75479C54.2985 8.23177 54.9725 7.60527 55.6522 7.05987C56.5668 6.32708 57.4534 5.56632 58.312 4.772C58.3316 4.7804 58.3484 4.79158 58.3736 4.79438C64.4848 5.70617 70.6324 6.397 76.7464 7.306C82.5332 8.16744 88.3423 9.47919 94.1683 10.0274C92.9013 10.5532 91.721 11.3168 90.5659 12.0495Z" fill="#C970F3"/>
<path fill-rule="evenodd" clip-rule="evenodd" d="M83.8426 17.9282C78.8305 16.5549 73.7737 15.5089 68.661 14.5943C62.7092 13.5259 56.6399 12.2365 50.6238 11.6939C50.4811 11.6827 50.4056 11.8505 50.4672 11.9484C46.9095 14.1943 43.4553 16.7647 40.1578 19.3686C40.0851 19.4245 40.169 19.5504 40.2473 19.5028C43.8469 17.2066 47.5136 14.8264 50.8531 12.1638C50.8783 12.1442 50.8951 12.1218 50.9091 12.0966C56.3071 13.4336 61.9652 13.9846 67.4415 14.9271C72.9039 15.8697 78.3523 16.9409 83.7111 18.3589C83.9908 18.4316 84.1223 18.0037 83.8426 17.9282Z" fill="#C970F3"/>
<path fill-rule="evenodd" clip-rule="evenodd" d="M84.9639 17.839C80.2791 20.5045 75.7118 24.4062 71.8017 28.2379C66.5995 26.8926 61.2994 26.0004 56.0999 24.5991C50.4054 23.0636 44.5515 21.0275 38.6613 20.4597C38.541 20.4485 38.4739 20.6387 38.6025 20.6751C43.9894 22.2302 49.516 23.3713 54.9308 24.8537C60.34 26.336 65.7604 27.6701 71.2535 28.7777C71.1165 28.9148 70.9766 29.0518 70.8424 29.1861C70.7137 29.3147 70.9123 29.5077 71.0522 29.4126C71.3095 29.2392 71.5612 29.0602 71.8129 28.8784C71.9556 28.8728 72.059 28.7833 72.1066 28.6658C74.1959 27.1219 76.1201 25.3347 78.1031 23.6622C80.3994 21.7239 82.8355 19.9926 85.1905 18.1327C85.3583 17.9985 85.1401 17.7383 84.9639 17.839Z" fill="#C970F3"/>
<path d="M61.5822 44.0357C58.4553 46.8801 55.3424 49.7833 52.3665 52.7872C52.2322 52.9242 52.4392 53.1032 52.579 52.9886C55.8318 50.3063 58.6707 47.1151 61.6857 44.1727C61.764 44.0972 61.6661 43.9602 61.5822 44.0357Z" fill="#C970F3"/>
<path d="M57.3847 46.4569C55.0157 48.7112 52.6719 51.0718 50.6582 53.6533C50.591 53.7428 50.7337 53.8603 50.8092 53.7792C53.0943 51.4438 55.2087 48.9517 57.5385 46.6583C57.6532 46.5436 57.5022 46.345 57.3847 46.4569Z" fill="#C970F3"/>
<path d="M53.7541 48.759C52.6717 49.8219 51.5613 50.8735 50.5041 51.9727C50.2076 51.8916 49.9056 51.8272 49.6063 51.7685C50.2915 51.0357 50.9628 50.2917 51.6452 49.5953C51.7515 49.489 51.5753 49.338 51.469 49.4443C50.7223 50.1799 49.9 50.9099 49.128 51.6818C48.8623 51.6343 48.5938 51.5895 48.3225 51.5504C49.1112 50.7924 49.9112 50.0484 50.7195 49.3128C50.8369 49.2038 50.6887 49.008 50.5656 49.1143C49.679 49.8806 48.7225 50.6637 47.8107 51.4888C47.4275 51.4413 47.0443 51.3965 46.6584 51.3546C46.6751 51.3378 46.6919 51.321 46.7115 51.3042C47.3884 50.6945 48.0792 50.0988 48.7812 49.517C48.9015 49.4163 48.7616 49.2233 48.633 49.3184C47.8247 49.9309 46.9101 50.577 46.0822 51.293C46.0458 51.2874 46.0095 51.2846 45.9731 51.2818C45.878 51.2707 45.8473 51.4021 45.9312 51.4301C45.7634 51.5783 45.5927 51.7238 45.4361 51.8776C45.2375 51.844 45.039 51.8105 44.8404 51.7741C45.5172 51.2203 46.1549 50.5994 46.7423 50.0037C46.8346 49.9086 46.6975 49.7603 46.6024 49.8526C45.9088 50.5239 45.1592 51.1084 44.4097 51.6958C44.06 51.6315 43.7104 51.5615 43.3636 51.4888C43.3916 51.4664 43.4196 51.4413 43.4475 51.4189C43.881 51.0665 44.309 50.7057 44.7285 50.3365C44.86 50.219 44.6782 50.0204 44.5439 50.1323C44.13 50.4875 43.7076 50.8315 43.2797 51.1672C43.1762 51.2483 43.0671 51.3294 42.9609 51.4077C42.9497 51.4049 42.9357 51.4049 42.9245 51.4021C42.863 51.3881 42.8266 51.4525 42.849 51.4916C42.614 51.6678 42.3819 51.844 42.1777 52.0482C41.9596 51.9979 41.7414 51.9447 41.5205 51.8944C41.6016 51.8328 41.6827 51.7741 41.761 51.7154C42.1274 51.4497 42.4714 51.1588 42.8182 50.8707C42.9916 50.7281 42.7539 50.4763 42.5833 50.619C42.2812 50.8735 41.9764 51.128 41.6631 51.3713C41.4757 51.5168 41.2715 51.6482 41.0758 51.7881C40.8268 51.7294 40.5751 51.6678 40.3262 51.6091C40.5807 51.4385 40.8268 51.2455 41.0562 51.1028C41.252 50.9854 41.0786 50.6777 40.8856 50.7952C40.6255 50.9546 40.3765 51.128 40.1248 51.2958C40.0213 51.363 39.9094 51.4245 39.8004 51.486C39.4955 51.4161 39.1906 51.3434 38.8886 51.2735C39.3249 51.0217 39.7584 50.756 40.15 50.4372C40.2926 50.3225 40.0996 50.1323 39.9598 50.2358C39.6018 50.5015 39.2046 50.7169 38.8131 50.9238C38.676 50.9994 38.4998 51.0665 38.3432 51.156C38.1418 51.1084 37.9376 51.0665 37.7335 51.0217C37.7586 51.0078 37.7866 50.9882 37.8062 50.9742C37.974 50.8595 37.7922 50.6134 37.6244 50.7197C37.5377 50.7756 37.4258 50.8511 37.3027 50.9294C36.9391 50.8483 36.5727 50.7672 36.2091 50.6889C36.1924 50.6358 36.1532 50.591 36.0805 50.5994C36.0301 50.605 35.9798 50.619 35.9295 50.6274C34.2933 50.2834 32.6571 49.9533 31.0125 49.6624C30.9314 49.6457 30.8894 49.7715 30.9761 49.7883C32.4893 50.096 33.994 50.4512 35.4959 50.8176C35.4792 50.8707 35.4903 50.9322 35.5491 50.9462C35.6861 50.9798 35.7952 50.949 35.9155 50.921C36.2259 50.9994 36.542 51.0749 36.8524 51.1532C36.6706 51.2175 36.486 51.2371 36.3378 51.1476C36.2511 51.0945 36.1364 51.2091 36.1784 51.2958C36.3909 51.7461 36.9224 51.5308 37.3447 51.2763C37.5796 51.335 37.8146 51.3937 38.0495 51.4525C38.0439 51.4832 38.0579 51.514 38.0859 51.5308C38.1754 51.5867 38.2816 51.5727 38.3907 51.5392C38.7124 51.6203 39.034 51.6986 39.3557 51.7797C39.269 51.8664 39.3473 52.0118 39.4647 51.9951C39.5822 51.9811 39.6969 51.9363 39.8088 51.8888C40.1024 51.9615 40.3961 52.0342 40.6898 52.1069C40.6282 52.1825 40.6954 52.3027 40.7933 52.2775C40.8772 52.258 40.9555 52.2244 41.0338 52.1908C41.7442 52.3615 42.4546 52.5293 43.1706 52.6887C43.1594 52.6971 43.1511 52.7055 43.1399 52.7139C43.0504 52.7894 43.1594 52.932 43.2601 52.8789C43.3301 52.8397 43.3944 52.7894 43.4643 52.7502C43.8055 52.8257 44.1467 52.8957 44.4908 52.9656C44.4796 52.9824 44.4628 52.9991 44.4516 53.0187C44.3845 53.1166 44.4796 53.2676 44.5943 53.1893C44.6642 53.1418 44.7313 53.0831 44.7984 53.0299C45.2068 53.1138 45.6151 53.1893 46.0235 53.2649C45.8277 53.4914 45.6403 53.7235 45.4641 53.9613C45.3886 54.062 45.5368 54.1487 45.6235 54.0871C45.9256 53.8634 46.2137 53.6117 46.4933 53.3488C46.7535 53.3963 47.0108 53.4466 47.2709 53.4886C47.3856 53.5082 47.3995 53.3404 47.2933 53.3124C47.0919 53.2621 46.8905 53.2117 46.6919 53.1614C46.9017 52.96 47.1115 52.7502 47.3156 52.5433C47.6093 52.5964 47.8974 52.6439 48.1883 52.6887C47.917 53.0075 47.6569 53.332 47.4275 53.6732C47.3772 53.7431 47.4779 53.8019 47.5366 53.7571C47.9282 53.4466 48.3029 53.1082 48.6665 52.753C48.9183 52.7838 49.1672 52.8285 49.4161 52.8509C49.486 52.8565 49.5084 52.7502 49.4385 52.7278C49.2427 52.6691 49.0385 52.63 48.8372 52.5768C49.0273 52.3894 49.2063 52.188 49.3909 51.9951C49.707 52.0426 50.023 52.0957 50.3391 52.1377C49.9 52.5992 49.4665 53.0691 49.0553 53.5529C48.9854 53.6312 49.1029 53.7263 49.1728 53.6564C50.7782 52.1097 52.2829 50.4484 53.838 48.8513C53.8939 48.7926 53.8128 48.7003 53.7541 48.759ZM42.5385 52.1349C42.7791 51.9755 43.0028 51.7881 43.2238 51.6035C43.551 51.6846 43.881 51.7685 44.2139 51.8496C43.9901 52.0258 43.7692 52.1992 43.551 52.3782C43.2126 52.2971 42.877 52.216 42.5385 52.1349ZM44.7173 52.6691C44.4488 52.602 44.1803 52.5349 43.9118 52.4677C44.1551 52.3083 44.3929 52.1321 44.625 51.9503C44.8236 52.0007 45.025 52.0454 45.2236 52.093C45.0473 52.2803 44.8739 52.4705 44.7173 52.6691ZM46.2248 53.0467C45.8585 52.9544 45.4977 52.8649 45.1313 52.7726C45.3438 52.5964 45.5396 52.4062 45.741 52.216C46.099 52.2971 46.4542 52.3698 46.8122 52.4426C46.6164 52.6439 46.4094 52.8397 46.2248 53.0467ZM47.0723 52.1797C46.7143 52.1097 46.3563 52.0398 45.9983 51.9783C46.1577 51.8244 46.3143 51.6762 46.4766 51.5252C46.843 51.5867 47.2066 51.6482 47.573 51.7098C47.4051 51.8664 47.2345 52.0202 47.0723 52.1797ZM48.3841 52.4649C48.1183 52.4006 47.8526 52.3335 47.5841 52.2775C47.7464 52.1153 47.9086 51.9531 48.0708 51.7937C48.3477 51.8384 48.6218 51.8776 48.8987 51.9195C48.7253 52.1013 48.5491 52.2775 48.3841 52.4649Z" fill="#C970F3"/>
<path d="M103.65 8.00237C103.426 8.13103 103.205 8.26807 102.982 8.40512C102.979 8.40512 102.982 8.39953 102.979 8.39953C102.691 8.32681 102.397 8.26528 102.103 8.20375C102.154 8.1562 102.21 8.11704 102.263 8.06949C102.277 8.05551 102.263 8.02754 102.24 8.03593C102.151 8.07789 102.061 8.12823 101.969 8.17298C100.529 7.8821 99.01 7.71149 97.5025 7.59402C97.5025 7.59402 97.5053 7.59122 97.5081 7.59122C97.5696 7.53808 97.4857 7.44858 97.4214 7.49613C97.3822 7.52689 97.3402 7.55207 97.3011 7.58004C96.2523 7.50172 95.2118 7.44579 94.2133 7.39264C94.1518 7.38985 94.135 7.47655 94.1965 7.49054C94.6217 7.58843 95.0552 7.67793 95.4943 7.76743C94.879 8.06949 94.2469 8.34639 93.6567 8.68202C93.5644 8.73516 93.6036 8.88899 93.7155 8.86381C94.465 8.696 95.1559 8.23731 95.8075 7.82616C96.1068 7.8849 96.4061 7.94084 96.7081 7.99118C95.9837 8.46386 95.2314 8.90017 94.5657 9.43438C94.5014 9.48752 94.5825 9.57423 94.6496 9.54626C95.4691 9.18546 96.2355 8.6093 96.9543 8.03593C97.3598 8.10306 97.7654 8.16459 98.1737 8.22053C97.8661 8.39114 97.5556 8.56455 97.2451 8.74355C97.1836 8.74355 97.1193 8.73795 97.0578 8.73795C97.0186 8.73516 97.0102 8.79389 97.0466 8.80228C97.0717 8.80788 97.0997 8.81347 97.1249 8.81906C96.3669 9.26657 95.6369 9.75323 95.03 10.3266C94.9461 10.4077 95.0608 10.5671 95.1643 10.5168C96.0229 10.0972 96.8424 9.51829 97.6423 8.92814C97.9751 8.99806 98.3108 9.06239 98.652 9.12393C98.5793 9.17147 98.5066 9.22461 98.4394 9.27216C97.7038 9.7756 96.9794 10.2902 96.2746 10.8384C96.1823 10.9111 96.2998 11.0706 96.3921 11.0062C97.1165 10.4888 97.8437 9.97139 98.5765 9.46794C98.7163 9.37005 98.8674 9.28055 99.01 9.18546C99.3428 9.2414 99.6729 9.28894 100.003 9.3309C99.7092 9.52668 99.4211 9.73645 99.1359 9.94901C98.8058 9.94621 98.473 9.9602 98.1513 9.99656C98.0283 10.0133 98.0646 10.1867 98.1737 10.2007C98.3583 10.2231 98.5485 10.2371 98.7387 10.2539C97.8353 10.9475 96.9766 11.6859 96.1991 12.3991C96.132 12.4578 96.2215 12.5417 96.2886 12.4942C97.2871 11.7698 98.3359 11.051 99.368 10.3126C99.6337 10.3322 99.8966 10.3546 100.157 10.3741C99.6113 10.7909 99.0855 11.23 98.5597 11.6691C98.501 11.6635 98.4422 11.6551 98.3751 11.6551C98.2772 11.6551 98.2828 11.8062 98.3807 11.8089C98.3835 11.8089 98.3863 11.8089 98.3891 11.8089C97.6535 12.4299 96.9375 13.062 96.2606 13.6969C96.1711 13.7836 96.3054 13.9486 96.4061 13.8703C98.8058 11.9684 101.508 10.2231 103.709 8.09746C103.754 8.05831 103.709 7.96881 103.65 8.00237ZM97.8521 8.77152C98.0786 8.6037 98.3052 8.43309 98.5261 8.27087C98.9205 8.32122 99.3121 8.36597 99.7036 8.40233C99.4799 8.54497 99.2589 8.696 99.0408 8.84703C98.6436 8.81627 98.2492 8.7883 97.8521 8.77152ZM99.4771 8.88339C99.7036 8.73795 99.933 8.59531 100.148 8.43868C100.543 8.46945 100.934 8.49462 101.323 8.5114C101.049 8.66244 100.78 8.84424 100.509 9.01485C100.165 8.9645 99.8239 8.91695 99.4771 8.88339ZM100.467 10.1476C100.252 10.0805 100.028 10.0301 99.8043 9.99936C100.076 9.80078 100.358 9.61059 100.624 9.40362C100.89 9.42879 101.15 9.43998 101.413 9.44837C101.094 9.67491 100.783 9.90985 100.467 10.1476ZM101.72 9.24419C101.485 9.19105 101.248 9.14071 101.007 9.09875C101.248 8.90856 101.491 8.72397 101.72 8.52539C102.075 8.53658 102.431 8.53658 102.777 8.53098C102.419 8.75194 102.07 9.00366 101.72 9.24419Z" fill="#C970F3"/>
<path d="M93.2569 7.9471C92.9101 8.07297 92.5913 8.24637 92.3172 8.4953C92.2389 8.56242 92.3172 8.69667 92.4123 8.65192C92.7255 8.50089 93.0024 8.29392 93.3241 8.16247C93.4583 8.10932 93.394 7.89676 93.2569 7.9471Z" fill="#C970F3"/>
<path d="M91.8674 8.00977C91.8109 8.00977 91.8109 8.09738 91.8674 8.09738C91.9211 8.09738 91.9211 8.00977 91.8674 8.00977Z" fill="#C970F3"/>
<path d="M90.7466 7.60547C90.6929 7.60547 90.6929 7.69025 90.7466 7.69025C90.8031 7.69025 90.8031 7.60547 90.7466 7.60547Z" fill="#C970F3"/>
<path d="M86.0154 22.1799C81.6522 25.9893 77.2695 29.8351 72.993 33.7423C72.9315 33.7983 73.0126 33.885 73.0769 33.8346C77.524 30.2434 82.4158 26.6858 86.1273 22.3002C86.186 22.2303 86.0881 22.1184 86.0154 22.1799Z" fill="#C970F3"/>
<path d="M83.5767 23.306C80.2539 25.7057 77.1298 28.4103 74.1931 31.266C74.1036 31.3527 74.221 31.4925 74.3189 31.4114C77.4626 28.7851 80.4665 26.0022 83.6634 23.4402C83.7445 23.3759 83.6606 23.2473 83.5767 23.306Z" fill="#C970F3"/>
<path d="M81.1656 23.7625C79.7867 24.403 78.5869 25.6281 77.4066 26.5818C76.0081 27.7117 74.5034 28.8389 73.2867 30.1646C73.2308 30.2262 73.3091 30.3268 73.3762 30.2793C74.8642 29.25 76.2095 27.9719 77.6163 26.8363C78.7966 25.8854 80.2454 24.9848 81.1964 23.7961C81.2103 23.7765 81.188 23.7513 81.1656 23.7625Z" fill="#C970F3"/>
<path d="M78.995 24.2252C77.4931 25.4922 75.952 26.6921 74.4053 27.8976C74.3102 27.9703 74.4165 28.099 74.5144 28.0374C76.1841 27.0165 77.7196 25.7328 79.0985 24.3427C79.1628 24.2812 79.0649 24.1665 78.995 24.2252Z" fill="#C970F3"/>
<path d="M90.3897 36.4989C84.4714 41.1418 78.5504 46.2181 73.253 51.563C73.1328 51.6833 73.3006 51.8819 73.4265 51.7644C78.9363 46.5538 85.2462 42.0648 90.4875 36.5968C90.5547 36.5325 90.4596 36.4458 90.3897 36.4989Z" fill="#C970F3"/>
</svg>
