<svg width="114" height="85" viewBox="0 0 114 85" fill="none" xmlns="http://www.w3.org/2000/svg">
<path fill-rule="evenodd" clip-rule="evenodd" d="M18.758 30.1744C19.9665 30.472 21.0307 30.7365 22.0949 30.9921C24.3796 31.5482 26.6613 32.1104 28.949 32.6485C29.911 32.8769 29.92 32.8559 30.4281 32.0051C32.2679 28.9178 34.9163 26.8645 38.4035 26.0258C40.5199 25.5148 42.6844 25.5719 44.8218 26.0589C45.2005 26.1461 45.5733 26.2633 46.0272 26.3866C47.837 23.5307 49.1747 20.4373 50.8612 17.3169C50.5426 17.0583 50.1908 16.8148 49.8842 16.5202C45.2667 12.0891 46.1625 3.24184 53.2662 0.635462C56.9007 -0.696284 60.956 0.0372287 63.7488 3.10054C66.4003 6.00453 67.0406 10.3214 65.321 13.8718C63.6135 17.404 59.9399 19.5384 56.0108 19.2589C55.3495 19.2138 54.6971 19.1055 53.9786 19.0214C52.5657 22.1689 50.6448 25.0608 49.5625 28.4007C53.8674 32.2426 55.1901 36.9654 53.6961 42.6441C59.1162 45.4459 64.5394 48.2506 69.9025 51.0224C71.1771 50.0934 72.3736 49.2246 73.7354 48.2326C73.4438 46.1523 73.1311 43.9217 72.8095 41.616C70.0708 41.9286 67.6929 41.3725 65.7058 39.5567C64.326 38.2941 63.4211 36.7339 63.1626 34.8851C62.4651 29.8256 65.4804 26.7232 68.5196 25.7162C72.3165 24.4536 76.2606 25.7973 78.3288 29.2605C79.4922 31.2115 79.7628 33.3128 79.2337 35.5134C78.7888 37.3682 78.0252 38.4083 75.485 40.69C75.8157 42.9477 76.1494 45.2354 76.5071 47.6855C77.0302 47.6855 77.5262 47.7155 78.0162 47.6825C83.0005 47.3458 88.2854 51.8972 88.2734 57.7893C88.2703 58.1019 88.3034 58.4116 88.3305 58.8685C91.6914 59.1932 95.0313 59.5149 98.3922 59.8395C98.5576 59.587 98.6928 59.4036 98.8071 59.2052C100.4 56.4155 102.709 54.9274 106.004 54.9815C110.059 55.0507 113.336 57.8675 113.847 61.8507C114.46 66.6576 110.805 70.719 105.974 70.8633C102.493 70.9685 98.78 68.3651 98.0766 64.445C97.9864 63.949 97.9623 63.441 97.9052 62.9329C94.4932 62.5601 91.1172 62.1934 87.6511 61.8116C86.2712 64.8749 84.0647 67.0935 80.7458 68.0254C77.4841 68.9423 74.4569 68.323 71.6611 66.3991C69.208 68.5184 66.8091 70.5927 64.3621 72.7061C65.5104 75.1471 65.7359 77.5851 64.6747 80.0472C63.8991 81.8449 62.6245 83.1947 60.8839 84.0935C57.4057 85.8882 53.1429 84.9473 50.6778 81.896C48.327 78.983 48.336 74.3024 50.8492 71.4314C52.3403 69.7299 54.1891 68.7409 56.4678 68.5786C58.6743 68.4192 60.6584 69.0084 62.399 70.4093C64.7859 68.3591 67.1037 66.366 69.5297 64.2857C67.6448 61.6883 67.245 58.7633 67.744 55.5557C62.4261 52.5014 57.0991 49.4411 51.745 46.3657C46.8089 51.6627 41.1813 52.6397 34.772 49.4952C32.1296 52.9553 29.4691 56.4335 26.7695 59.9688C28.3568 62.509 28.8348 65.2717 28.0682 68.1938C27.467 70.4845 26.1533 72.3122 24.2263 73.6831C20.4265 76.3887 15.1776 75.9948 11.7205 72.8594C8.17922 69.6458 7.77939 63.9881 9.97993 60.4197C11.4079 58.105 13.41 56.4966 16.0675 55.9345C18.6528 55.3904 21.2231 55.5527 23.6431 57.0287C26.4028 53.6408 29.1024 50.3309 31.82 46.994C31.6215 46.6994 31.4833 46.471 31.3239 46.2575C29.6284 43.9758 28.6995 41.4476 28.8047 38.5707C28.8318 37.7891 28.8077 37.0044 28.8077 36.1597C25.1342 35.1917 21.4426 34.2177 17.6968 33.2347C16.1547 35.6366 14.0834 37.3081 11.2485 37.7981C8.99089 38.1919 6.77833 37.9604 4.75816 36.764C0.558503 34.2748 -0.869442 29.982 0.507397 25.4727C1.69785 21.5676 5.37443 18.3901 11.2095 19.2348C13.7377 19.5986 15.7067 21.0085 17.1858 23.0827C18.6769 25.1751 19.0526 27.5379 18.758 30.1744ZM26.6643 63.8167C26.9409 63.8408 27.1333 64.3669 27.485 63.961C27.2565 64.4781 27.0281 64.9982 26.7605 65.6054C27.0401 66.3359 27.0371 66.3299 26.2855 66.9883C26.1833 67.0785 26.1142 67.2438 26.0901 67.3851C26.0751 67.4723 26.1713 67.5805 26.2374 67.7278C26.52 67.6136 26.7816 67.5114 27.2325 67.334C26.7094 67.8901 26.3637 68.302 25.9669 68.6477C25.8677 68.7379 25.5971 68.6357 25.4047 68.6206C25.4198 68.8671 25.4318 69.1106 25.4498 69.3992C25.7925 69.3 26.027 69.2309 26.2615 69.1648C26.2825 69.2129 26.3066 69.261 26.3306 69.3091C26.039 69.5345 25.7474 69.757 25.4468 69.9855C25.3987 70.3642 25.3476 70.746 25.2995 71.1278C25.2394 71.0977 25.1793 71.0677 25.1191 71.0376C24.8125 71.4405 24.5059 71.8433 24.1992 72.2461C24.1632 72.0297 24.1301 71.8132 24.067 71.3984C23.8024 71.708 23.6551 71.8794 23.4086 72.168C23.7964 72.186 24.0159 72.198 24.2353 72.21C23.8565 72.4686 23.4477 72.9826 23.102 72.9436C22.0588 72.8323 22.0318 73.7612 21.5327 74.2152C21.7071 74.2512 21.8604 74.2452 21.9897 74.1911C25.7685 72.6069 28.0863 68.9333 27.7706 64.8358C27.7496 64.5472 27.5632 64.2737 27.455 63.9911C27.476 63.7235 27.494 63.456 27.5151 63.1854C27.4249 63.1433 27.3347 63.1013 27.2475 63.0592C27.0521 63.3117 26.8597 63.5642 26.6643 63.8197C26.7515 64.1354 25.9218 64.409 26.5982 64.7877C27.0311 64.4571 26.6733 64.1294 26.6643 63.8167ZM112.362 61.024C112.506 60.9548 112.651 60.8917 112.795 60.8286C112.813 61.2134 112.834 61.5982 112.855 61.983C112.831 62.1513 112.819 62.3196 112.777 62.482C112.711 62.7646 112.627 63.0411 112.545 63.3177C112.323 63.1764 112.076 62.7826 111.86 63.2756C111.692 63.6724 112.079 63.6484 112.311 63.7205C112.179 64.0873 111.656 64.5803 112.566 64.5713C112.383 64.8629 112.007 65.2146 112.076 65.413C112.221 65.8429 112.167 66.0353 111.785 66.2427C111.65 66.3149 111.592 66.5524 111.526 66.7237C111.172 67.6346 110.549 68.3892 109.687 68.7259C109.154 68.9333 108.785 69.2279 108.409 69.5886C108.388 69.3451 108.427 68.9183 108.34 68.8912C107.817 68.7259 107.726 69.1227 107.576 69.6337C107.922 69.6097 108.162 69.5916 108.406 69.5766C108.391 69.7029 108.379 69.8291 108.361 69.9524C107.645 69.8712 106.93 69.787 106.106 69.6938C105.923 69.8442 105.643 70.0666 105.337 70.3131C106.392 70.4003 107.399 70.4153 108.343 69.9343C109.187 69.4594 110.119 69.0956 110.856 68.4914C112.621 67.0304 113.381 65.0493 113.423 62.7826C113.429 62.3918 113.453 61.9529 112.852 61.986C112.984 61.5982 113.586 61.1743 112.768 60.8586C112.963 59.9598 112.909 59.8726 112.248 59.9688C112.203 59.605 112.714 59.1541 111.923 58.8054C111.809 59.2233 111.707 59.605 111.601 59.9898C111.072 60.1973 110.54 60.4047 110.18 60.543C110.585 60.086 111.087 59.5419 111.565 58.9737C111.869 58.61 111.992 58.2342 111.43 57.9637C110.585 59.6201 110.201 59.9688 109.112 60.05C109.455 59.7914 109.798 59.59 110.071 59.3165C110.372 59.0188 110.621 58.6611 110.874 58.3154C111.256 57.7953 111.139 57.3775 110.579 57.0678L110.603 57.0919C106.936 53.8362 100.013 55.1318 98.5666 61.4448C98.0976 63.4921 98.5125 65.407 99.7781 67.1085C100.202 67.6106 100.62 68.1186 101.056 68.6146C101.299 68.8942 101.567 69.1557 101.819 69.4233C102.066 69.4864 102.309 69.5706 102.559 69.6127C102.962 69.6848 103.37 69.7329 103.779 69.79C104.167 70.2259 104.167 70.2259 104.765 69.9554C104.459 69.5075 104.092 69.7389 103.743 69.8321C103.28 69.4503 102.82 69.0716 102.294 68.6357C102.129 68.9152 101.976 69.1738 101.822 69.4323C101.792 68.7168 101.873 67.9503 100.827 67.827C100.683 67.809 100.548 67.4392 100.466 67.2137C100.412 67.0514 100.457 66.856 100.457 66.6756C100.379 66.6245 100.301 66.5764 100.226 66.5313C100.067 66.7388 99.9104 66.9462 99.754 67.1566C99.8172 66.7027 100.091 66.0083 99.9013 65.8369C99.243 65.2447 99.9073 64.929 100.019 64.5082C100.091 64.7667 99.9464 65.0793 100.046 65.2567C100.193 65.5182 100.533 65.6625 100.746 65.897C100.851 66.0113 100.908 66.2187 100.905 66.381C100.902 66.7147 100.845 67.0454 100.806 67.3851C101.353 67.3881 101.353 67.3881 101.51 66.9582C101.958 67.361 102.409 67.809 102.917 68.1817C102.995 68.2389 103.325 67.9533 103.641 67.7669C103.614 68.3651 104.278 68.4433 104.468 68.9784C104.603 69.3541 104.967 69.0625 105.081 68.8371C105.147 68.7048 104.988 68.4643 104.892 68.1396C105.397 68.4673 105.775 68.7138 106.148 68.9573C106.362 68.7409 106.566 68.302 106.569 68.0314C106.84 68.0915 107.101 68.1697 107.366 68.2028C108.048 68.29 108.141 68.1517 107.952 67.3129C108.52 67.2709 109.085 67.2288 109.855 67.1716C109.593 66.841 109.419 66.6245 109.251 66.4111C109.623 66.3419 109.99 66.2758 110.408 66.1976C110.258 65.2657 109.461 65.8309 109.106 65.5182C109.656 65.2206 110.42 65.383 111.021 64.6615C110.285 64.6615 109.729 64.6615 109.172 64.6615C109.169 64.6194 109.163 64.5773 109.16 64.5352C109.632 64.412 110.104 64.2887 110.703 64.1324C110.513 63.9099 110.396 63.7716 110.279 63.6334C110.591 63.4169 110.901 63.2035 111.436 62.8307C110.895 62.7555 110.658 62.7195 110.471 62.6924C110.579 62.4188 110.682 62.1573 110.787 61.8928C111.148 62.1904 111.427 62.0912 111.613 61.6974C111.644 61.6342 111.544 61.4298 111.475 61.4148C111.06 61.3186 110.802 61.4629 110.82 61.9349C110.615 61.8807 110.408 61.8266 110.107 61.7455C110.582 61.3456 111.033 61.021 111.412 60.6302C111.547 60.4859 111.523 60.1852 111.568 59.9568C111.809 59.9478 112.049 59.9387 112.29 59.9327C112.32 60.3055 112.353 60.6813 112.377 61.048C112.185 60.9939 111.989 60.9368 111.794 60.8797C111.818 61.045 111.842 61.2104 111.869 61.3757C112.031 61.2585 112.197 61.1382 112.362 61.024ZM64.5965 7.47757C64.8731 7.04468 65.4864 6.66289 64.819 6.07969C64.1666 6.48552 64.4282 6.99658 64.6056 7.48659C64.3711 7.3964 64.0885 7.17695 63.9051 7.24309C63.4692 7.39941 63.7969 7.76015 63.8179 8.03973C63.8209 8.0758 63.8149 8.11488 63.8149 8.15396C63.1085 7.70003 62.9311 7.75113 62.5734 8.5117C62.2427 8.49667 61.909 8.48164 61.5152 8.4636C62.1645 7.96157 62.7868 7.52567 63.346 7.02063C63.5353 6.84927 63.5714 6.50356 63.6766 6.23902C64.6176 5.93539 64.7168 5.65581 64.1306 4.81408C63.857 5.26801 63.3249 5.58667 63.6526 6.22699C63.3339 6.31718 62.9912 6.36227 62.6966 6.50957C62.1946 6.76209 61.7196 7.07775 61.2326 7.36935C61.44 6.93946 61.7857 6.717 62.0803 6.44043C62.6215 5.93238 63.1656 5.42434 63.6466 4.86518C64.0374 4.41125 63.8901 4.01142 63.355 3.74688C62.4802 5.71293 61.8188 6.33521 60.6945 6.26607C62.4892 4.88623 62.5884 4.75997 63.0093 3.33202C62.9942 3.29895 62.9882 3.25386 62.9612 3.22981C60.1985 0.370917 55.7974 -0.239342 52.2501 1.73874C48.7058 3.71681 46.869 7.91948 47.867 11.7824C48.9884 16.1264 52.8934 18.9943 57.3005 18.6787C61.1965 18.3991 65.0926 15.4741 65.6457 10.4988C65.7209 9.79535 65.9343 9.01975 65.3691 8.37342C65.3691 8.0758 65.3691 7.77819 65.3691 7.48358C64.831 7.87439 64.837 8.16599 65.4022 8.33734C65.2399 8.63796 65.0565 8.92656 64.9302 9.2392C64.846 9.45565 64.7318 9.81038 64.831 9.92461C65.282 10.4477 64.9332 10.6431 64.5364 10.8595C64.2538 11.0099 63.9592 11.1542 64.2268 11.6291C64.4703 11.59 64.7348 11.545 65.0865 11.4878C64.1666 12.3356 64.1666 12.3356 64.2628 13.3517C63.7879 13.5832 63.391 13.8928 63.4422 14.5602C63.4572 14.7405 63.1566 14.954 62.9912 15.1434C62.7988 15.3628 62.5944 15.5733 62.393 15.7927C62.2276 15.6755 62.0653 15.5612 61.9 15.444C61.8399 15.6244 61.7797 15.8017 61.6384 16.2136C62.0503 15.9731 62.2367 15.8649 62.4231 15.7536C62.3148 15.9039 62.2397 16.1234 62.0954 16.1925C61.1755 16.6284 60.2556 17.0583 59.489 17.7528C59.6483 17.4642 59.8107 17.1726 59.985 16.8599C59.2184 16.4631 59.0411 16.9711 58.7405 17.5213C59.0441 17.5994 59.2816 17.6626 59.5221 17.7257C58.8938 17.9512 58.2775 18.0864 57.6101 17.8009C57.3877 17.7047 57.048 17.8339 56.7774 17.9151C56.6121 17.9662 56.4798 18.1917 56.3205 18.2067C55.5389 18.2909 54.9106 17.4942 54.0538 17.8039C53.9185 17.852 53.6209 17.5062 53.4345 17.3108C53.1519 17.0162 52.9054 16.6886 52.6108 16.3428C52.4485 16.5743 52.3433 16.7216 52.1629 16.9772C51.9374 16.5563 51.8082 16.2286 51.6037 15.955C51.4594 15.7627 51.2099 15.5071 51.0205 15.5161C50.3832 15.5552 50.3502 15.1704 50.3321 14.7195C50.3231 14.5121 50.29 14.3046 50.266 14.0852C50.0165 14.1453 49.8602 14.1814 49.6377 14.2355C49.7038 13.8056 49.7579 13.4629 49.8151 13.0721C49.6106 12.9879 49.4243 12.9098 49.0876 12.7715C49.295 12.522 49.4754 12.3085 49.6557 12.0951L49.6197 12.068C49.8602 12.6903 50.3411 13.009 50.9604 13.1773C50.9213 13.5832 50.9304 14.0341 50.8221 14.4519C50.741 14.7706 50.7169 15.0081 51.0686 15.0893C51.4504 15.1764 51.5256 14.9269 51.5106 14.6023C51.5045 14.5121 51.5827 14.4159 51.6428 14.2746C51.8292 14.6143 52.0186 15.1434 52.1208 15.1283C52.7221 15.0291 52.7732 15.4891 53.0257 15.7987C53.1519 15.955 53.5007 15.931 53.7412 15.9971C53.6299 16.1835 53.5187 16.3699 53.3022 16.7306C53.651 16.6555 53.8283 16.6164 54.0057 16.5773C53.9095 16.3909 53.8163 16.2046 53.7201 16.0152C53.7862 15.8408 53.8524 15.6695 53.9336 15.459C54.3033 15.8679 54.7542 16.1895 54.9496 16.6284C55.2683 17.3409 55.5298 17.0102 55.8756 16.7276C55.7884 16.4661 55.7102 16.2316 55.596 15.8889C56.1732 16.2677 56.6421 16.5713 57.1051 16.878C57.7785 16.6946 57.6101 16.1865 57.4538 15.6063C58.2655 16.1294 59.0862 15.8979 59.8377 16.1174C60.3157 16.2557 60.3969 15.8709 60.3548 15.465C59.9189 15.3268 59.5281 15.2005 59.1373 15.0742C59.1433 15.0231 59.1493 14.972 59.1553 14.9209C59.8678 14.8728 60.5772 14.8247 61.2957 14.7766C61.5753 14.0221 60.92 14.2205 60.3879 14.01C61.0703 13.8477 61.5693 13.7275 62.0984 13.5982C62.2066 12.3296 60.917 13.3156 60.6344 12.6963C61.3619 12.534 62.0864 12.3747 62.9792 12.1733C62.1675 11.2984 61.1304 12.1823 60.439 11.5029C61.1124 11.3375 61.8128 11.557 62.4621 11.076C62.2427 10.8445 62.0803 10.6702 61.903 10.4838C62.2667 10.1501 62.9882 10.3575 63.0814 9.68111C62.6275 9.15803 62.1435 9.7713 61.6565 9.60295C62.4471 9.10693 62.4471 9.10693 62.5433 8.48164C63.1145 8.89349 63.4933 8.656 63.7789 8.11188C64.0524 7.90144 64.323 7.688 64.5965 7.47757ZM25.6001 63.7446C24.9688 63.5402 24.6381 63.9039 24.3796 64.3999C24.0459 64.3999 23.7122 64.3999 23.3214 64.3999C24.058 63.8197 24.6712 63.3057 25.3206 62.8397C25.6873 62.5752 25.6572 62.2746 25.537 61.9258C26.024 62.2234 26.2314 61.8777 26.4389 61.532C26.6794 61.1322 26.6313 60.8075 26.1533 60.5249C25.8587 60.9548 25.3867 61.2705 25.4949 61.8988C25.1582 62.0731 24.8005 62.2174 24.4878 62.4279C23.7754 62.9059 23.3755 63.0892 22.6781 63.1764C23.9227 62.2926 25.2304 61.4959 25.9759 59.9568C25.6993 59.7163 25.4198 59.4728 25.1402 59.2293L25.1763 59.2623C24.4848 58.129 23.3725 57.5187 22.2272 57.0257C18.8242 55.5737 15.5805 55.9826 12.7065 58.2853C9.79655 60.6181 8.69027 63.7446 9.38169 67.4212C9.61618 68.6717 9.94686 69.9464 11.0201 70.8272C11.8949 72.6489 13.4882 73.5298 15.2588 74.1761C15.0333 73.7101 14.7508 73.3103 14.4682 72.9135C14.0804 72.3724 13.888 73.0097 13.5543 73.1179C13.3048 72.6519 13.0703 72.2191 12.9531 72.0026C12.43 71.7381 11.9941 71.6539 11.8287 71.3984C11.6424 71.1068 11.7025 70.6588 11.6303 70.0937C11.3327 70.4544 11.1674 70.6558 11.002 70.8572C11.0531 70.3251 11.1073 69.79 11.1614 69.2459C10.978 69.0746 10.6623 68.9183 10.6172 68.7078C10.5631 68.4252 10.7886 68.2088 11.1463 68.3501L11.1223 68.329C11.2155 68.4643 11.2906 68.6206 11.4079 68.7319C11.7115 69.0205 12.3398 69.3541 12.2977 69.5586C12.1594 70.2199 12.5953 70.3733 12.9531 70.6378C12.8418 70.6198 12.6975 70.5506 12.6194 70.5957C12.46 70.6919 12.3308 70.8512 12.1895 70.9835C12.2857 71.0857 12.421 71.2901 12.4751 71.2691C12.6464 71.206 12.8118 71.0827 12.935 70.9414C12.9861 70.8783 12.926 70.719 12.914 70.6047C13.0042 70.5266 13.0943 70.4514 13.2747 70.2981C13.3258 70.6919 13.3709 71.0196 13.422 71.4044C13.6926 71.3863 13.915 71.3713 14.0533 71.3623C14.363 71.6779 14.6425 71.9605 14.9191 72.2461C15.1205 72.0327 15.3189 71.8222 15.5234 71.6028C15.9262 71.8433 15.824 72.7211 16.6176 72.5768C16.6176 72.5768 16.6357 72.7001 16.6567 72.7632C16.8942 73.5177 16.8972 73.5177 17.5165 72.8353C17.4563 72.7391 17.3902 72.6429 17.3361 72.5407C17.282 72.4325 17.2429 72.3183 17.1196 72.0176C17.8231 72.4956 18.3402 72.8474 19.0166 73.3103C19.1548 72.8203 19.2601 72.4445 19.3893 71.9966C19.5907 72.0417 19.9635 72.1649 20.3423 72.192C20.5828 72.21 20.9676 72.1499 21.0457 71.9996C21.166 71.7651 21.0758 71.4254 21.0758 71.0677C21.7161 71.0316 22.4557 70.9925 23.1531 70.9565C23.4206 70.1237 22.6901 70.4003 22.3655 70.1267C22.6721 70.0215 22.9186 69.9103 23.1771 69.8532C23.4267 69.7991 23.6912 69.7961 23.9287 69.772C24.0399 69.276 23.9437 68.9904 23.4567 68.9694C23.2643 68.9603 23.0659 68.9754 22.8705 68.9573C22.6781 68.9393 22.4857 68.8912 22.0859 68.819C24.3796 68.5034 24.4067 68.4914 24.6532 67.7549C23.8295 67.7549 23.0389 67.7549 22.2512 67.7549C22.2482 67.7098 22.2452 67.6677 22.2422 67.6226C22.9336 67.4873 23.6251 67.349 24.3135 67.2137C24.3135 67.1356 24.3165 67.0544 24.3165 66.9762C24.097 66.844 23.8746 66.7147 23.586 66.5434C23.8866 66.4201 24.1361 66.3329 24.3736 66.2187C24.6081 66.1044 24.8275 65.9662 25.065 65.8309C24.6712 64.8539 23.9918 65.873 23.5529 65.5182C23.8415 65.1485 24.7644 65.2357 24.3556 64.3789C25.3145 64.7276 25.5099 64.6194 25.5611 63.7085C25.8046 63.6875 26.0481 63.6694 26.2886 63.6514C26.2374 63.4259 26.1863 63.2035 26.1322 62.981C26.036 62.975 25.9368 62.972 25.8406 62.969C25.7595 63.2275 25.6813 63.486 25.6001 63.7446ZM12.433 36.6076C12.4811 36.3311 12.5262 36.0545 12.5743 35.7569C11.8167 35.5855 11.6604 36.0034 11.5281 36.6407C11.8979 36.6106 12.1865 36.5896 12.4751 36.5655C13.4972 36.779 14.0082 36.0304 14.6275 35.4833C13.7377 35.5615 12.9801 35.8831 12.433 36.6076ZM17.4924 27.7874C17.5255 27.7333 17.5525 27.6702 17.5976 27.6251C17.6127 27.6101 17.6698 27.6401 17.7059 27.6462C17.6397 27.8897 17.6487 28.2384 17.4924 28.3526C17.0114 28.7013 17.2579 29.1072 17.291 29.507C17.1738 29.4048 17.0715 29.2545 16.9363 29.2124C16.789 29.1673 16.4914 29.1793 16.4673 29.2424C16.4072 29.4018 16.4643 29.6062 16.4763 29.8166C16.819 29.6844 17.0535 29.5942 17.291 29.504C17.3451 29.4799 17.3992 29.4589 17.4533 29.4378C17.4563 29.4739 17.4744 29.528 17.4563 29.5461C17.282 29.7294 17.0776 29.8918 16.9242 30.0932C16.786 30.2706 16.6988 30.493 16.5575 30.7485C16.8972 30.7876 17.0715 30.8087 17.267 30.8327C17.0475 31.1303 16.6777 31.4039 16.6868 31.6624C16.7048 32.2035 16.7108 32.6425 16.1246 32.8559C16.0795 33.6676 15.5384 34.1846 15.0454 34.7408C14.9822 34.8099 15.0634 35.0053 15.0814 35.1737C17.4924 33.7788 19.1518 28.8727 17.8922 26.3625C17.3571 26.7473 17.306 27.2433 17.4984 27.8025C17.3 27.7544 17.1046 27.7063 16.9062 27.6582C16.9062 27.8265 16.9062 27.9949 16.9062 28.2925C17.1738 28.061 17.3331 27.9257 17.4924 27.7874ZM45.1074 49.396C45.3208 48.9781 45.5342 48.5603 45.7747 48.0913C44.6805 47.935 44.6805 47.935 44.1514 49.0954C44.4911 49.1856 44.8158 49.2758 45.1434 49.3629C44.2356 49.5974 43.3427 49.895 42.4348 49.3058C42.038 49.0503 41.5691 49.2667 41.4608 49.6485C41.3316 50.1115 41.0821 50.0303 40.7784 50.0333C40.5951 50.0393 40.4117 50.1025 40.1351 50.1596C42.6242 51.2538 47.6205 49.4952 50.251 46.6814C53.2 43.5279 54.4296 38.1648 52.7822 34.9602C52.5717 35.5975 52.3703 36.0785 52.2801 36.5746C52.2621 36.6768 52.6409 36.8541 52.9144 37.0495C52.68 37.3922 52.4094 37.7169 52.22 38.0867C52.0908 38.3302 51.9555 38.6759 52.0306 38.9104C52.3102 39.7852 52.3463 39.7792 51.5196 40.3143C51.0566 40.6149 50.9785 40.9305 51.4114 41.3574C51.7841 41.1801 52.1238 41.0207 52.4605 40.8614C52.5026 40.9305 52.5417 41.0027 52.5808 41.0748C52.187 41.3725 51.6579 41.5979 51.4414 41.9947C51.234 42.3765 51.3512 42.9357 51.3182 43.555C51.0867 43.6962 50.7319 43.9127 50.4193 44.1081C50.3892 44.2043 50.3772 44.2404 50.3712 44.2794C50.269 44.9769 50.5095 45.8517 49.4002 46.002C49.286 46.017 49.1447 46.2996 49.1206 46.471C48.9763 47.5562 47.837 47.439 47.2868 48.0282C46.5804 47.7185 46.3399 48.2416 45.9972 48.6925C45.7747 48.9841 45.408 49.1675 45.1074 49.396ZM63.6105 75.1772C63.7127 75.1531 63.8119 75.1321 63.9141 75.108C63.8841 75.6732 64.6236 76.2474 63.866 76.8215C63.7488 76.9117 63.8149 77.2484 63.7939 77.4739C63.5714 77.3296 63.3249 76.9358 63.1085 77.4318C62.9371 77.8286 63.3279 77.8046 63.5594 77.8737C63.4301 78.2405 62.904 78.7305 63.8179 78.7245C63.6346 79.0161 63.2468 79.3949 63.3219 79.5572C63.5624 80.0833 63.2798 80.2336 62.9431 80.459C62.8409 80.5282 62.8229 80.7296 62.7748 80.8709C62.4712 81.7667 61.8399 82.4492 61.0432 82.8159C60.5261 83.0534 60.0963 83.3961 59.6002 83.6366C59.7175 83.4051 59.9279 83.0865 59.5251 83.0083C59.0441 82.9181 58.9208 83.2999 58.8818 83.7959C59.1493 83.7629 59.3537 83.7358 59.5612 83.7118C59.7475 83.7689 59.988 83.9282 60.1083 83.8621C60.7246 83.5314 61.3408 83.1827 61.9 82.7678C64.5815 80.7897 65.5405 77.1883 64.2929 73.8995C63.1475 70.8873 59.8708 68.786 56.6962 69.0385C53.3864 69.297 50.7019 71.4074 49.7489 74.4978C48.7929 77.5911 49.8361 80.8108 52.4545 82.9151C52.68 83.0955 52.8543 83.345 53.0527 83.5614C53.5217 83.6697 53.9877 83.7809 54.6641 83.9402C54.2282 83.4442 53.9456 83.1195 53.6179 82.7468C53.3924 83.0744 53.2211 83.3209 53.0527 83.5675C53.0648 83.3781 53.1519 83.1406 53.0708 83.0143C52.8092 82.6055 52.8694 81.9621 52.0427 81.9591C51.4114 81.9561 51.9224 81.1445 51.6428 80.8138C51.4504 80.8408 51.3061 80.8619 51.231 80.8709C51.1528 80.42 51.0777 79.9781 50.9995 79.5331C50.9274 79.5301 50.8552 79.5241 50.7861 79.5181C50.9394 79.2205 51.0957 78.9259 51.252 78.6283C51.2851 79.1333 51.3542 79.47 51.742 79.7917C52.1389 80.1254 52.2711 80.4861 52.1539 80.9671C52.1088 81.1445 52.0727 81.3218 52.0366 81.4812C52.7792 81.9712 52.6108 81.2767 52.7371 81.0693C53.197 81.4962 53.6389 81.9501 54.141 82.3259C54.2221 82.386 54.5588 82.1155 54.7633 82.0042C55.0278 82.2447 55.4156 82.4702 55.599 82.8039C55.7283 83.0384 55.6651 83.366 56.071 83.2398C56.6271 83.0714 56.1581 82.6866 56.2032 82.3499C56.6572 82.6325 57.066 82.8881 57.6191 83.2338C57.7123 82.8249 57.7785 82.5303 57.8566 82.1906C58.0731 82.2417 58.3316 82.3199 58.5992 82.356C59.2966 82.4461 59.3868 82.3139 59.1914 81.4842C59.7806 81.427 60.3638 81.3699 61.1244 81.2948C60.8298 80.9611 60.6584 80.7687 60.481 80.5673C60.8598 80.4981 61.2326 80.435 61.6204 80.3628C61.3649 79.8067 61.3649 79.8067 60.3548 79.6804C60.9019 79.3588 61.6775 79.5542 62.2667 78.8207C61.5362 78.8207 60.9771 78.8207 60.4179 78.8207C60.4149 78.7756 60.4119 78.7335 60.4089 78.6914C60.8809 78.5651 61.3528 78.4449 61.9481 78.2886C61.7617 78.0691 61.6475 77.9308 61.5272 77.7895C61.8368 77.5731 62.1465 77.3567 62.6786 76.9869C62.1435 76.9087 61.906 76.8757 61.7196 76.8456C61.8248 76.578 61.93 76.3135 62.0353 76.049C62.396 76.3436 62.6786 76.2444 62.865 75.8535C62.892 75.7904 62.7928 75.583 62.7237 75.568C62.3088 75.4718 62.0503 75.6191 62.0683 76.088C61.8609 76.0339 61.6505 75.9798 61.3619 75.9047C61.8278 75.5078 62.2577 75.1862 62.6185 74.8044C62.7658 74.6511 62.7628 74.3595 62.8289 74.131L62.7958 74.1671C63.0153 74.1671 63.2317 74.1671 63.4542 74.1671C63.5173 74.5398 63.5744 74.8735 63.6255 75.2012C63.4331 75.1471 63.2377 75.09 63.0423 75.0359C63.0664 75.1982 63.0934 75.3635 63.1175 75.5289C63.2798 75.4116 63.4452 75.2944 63.6105 75.1772ZM65.1437 37.9033C65.2068 37.9634 65.2699 38.0235 65.3331 38.0837C65.6126 38.9765 66.3371 39.4485 67.0556 39.9235C70.0558 41.9046 74.0059 41.5408 76.6003 39.0487C79.1646 36.5836 79.7207 32.6996 77.9501 29.6272C76.1463 26.5008 72.4547 25.0247 69.0337 26.0649C65.6156 27.105 63.2888 30.4299 63.5534 33.9652C63.6646 35.4322 64.0464 36.8211 65.1437 37.9033ZM15.854 25.608C16.2689 25.5118 16.6838 25.4125 17.1317 25.3073C17.27 25.65 16.4072 26.137 17.1617 26.5309C17.9403 25.8515 17.9403 25.8515 17.5706 24.9917C15.7969 20.8521 11.1433 18.6877 6.85048 20.0134C2.48548 21.3602 -0.235134 25.8124 0.735868 30.2465C1.46036 33.5443 3.37832 35.8831 6.71219 36.8842C7.24429 36.9293 7.74933 37.6027 8.38364 36.9624C7.77638 36.4182 7.22024 37.0706 6.68513 36.9022C6.37249 36.4453 6.07788 35.9733 5.72916 35.5494C5.68708 35.4953 5.33836 35.6968 5.09786 35.7929C5.01369 35.6757 4.91148 35.5615 4.83933 35.4292C4.61687 35.0143 4.57779 34.4011 3.82023 34.5875C3.75409 34.6025 3.53764 34.1305 3.44445 33.869C3.37832 33.6796 3.40237 33.4601 3.38433 33.2226C3.13181 33.3128 2.9815 33.3639 2.81014 33.4241C2.81014 33.2317 2.79211 33.0753 2.81315 32.922C2.86125 32.5733 3.18291 32.1104 2.44639 32.1073C2.43136 32.1073 2.38026 31.8308 2.41934 31.7045C2.53057 31.3378 2.76806 31.5512 2.96947 31.6143L2.96647 31.6113C3.40537 32.0081 3.94949 32.3148 3.97054 33.0333C3.97655 33.2076 4.23809 33.37 4.3884 33.5413C4.10582 33.5143 3.77213 33.4752 3.84428 33.896C3.86532 34.0193 4.23809 34.2177 4.35232 34.1666C4.73411 33.9922 4.52368 33.7337 4.35232 33.5112C4.49662 33.4722 4.64092 33.4331 4.82129 33.385C4.86939 33.6676 4.91148 33.9261 4.9205 33.9772C5.32934 34.2929 5.5999 34.5123 5.87947 34.7137C6.05383 34.837 6.2793 35.0474 6.42961 35.0083C6.622 34.9632 6.7633 34.7047 6.92563 34.5394C7.32545 35.0564 7.72829 35.5735 8.24535 36.2379C8.48585 35.8531 8.66622 35.5675 8.87966 35.2248C9.1893 35.4352 9.532 35.6667 9.85968 35.8891C10.491 35.6937 10.4729 35.2879 10.1393 34.6566C10.9539 35.1286 11.7235 34.867 12.439 35.1436C12.8899 35.321 13.0583 34.9903 13.0042 34.5003C12.6645 34.3981 12.3188 34.2959 11.973 34.1906C12.5202 33.9562 13.0613 33.9501 13.5994 33.9051C13.7196 33.893 13.9 33.7668 13.9241 33.6646C13.9511 33.5533 13.8519 33.3669 13.7497 33.2918C13.6325 33.2016 13.4491 33.1956 13.2928 33.1565C13.6325 32.9611 13.9631 32.8799 14.2998 32.8439C14.6666 32.8048 14.7478 32.5944 14.7147 32.2817C14.8049 32.3509 14.883 32.4561 14.9792 32.4771C15.1686 32.5162 15.367 32.5042 15.5624 32.5132C15.5444 32.3388 15.5775 32.0472 15.5053 32.0172C15.334 31.954 15.1085 31.9901 14.9221 32.0382C14.841 32.0592 14.7989 32.2156 14.7387 32.3088C14.3209 32.1795 13.906 32.0532 13.4882 31.921C13.9631 31.3799 14.9311 31.8789 15.4272 30.9319C14.5674 30.9319 13.8399 30.9319 13.1154 30.9319C13.1124 30.8778 13.1124 30.8207 13.1094 30.7666C13.7106 30.6584 14.3119 30.5471 14.9161 30.4389C14.889 30.1533 14.868 29.9609 14.85 29.7745C15.0694 29.9279 15.2738 30.1834 15.5113 30.2165C15.9352 30.2766 16.0675 30.0241 15.842 29.6002C15.5143 29.6573 15.1807 29.7174 14.85 29.7775C14.7147 29.8317 14.5794 29.8828 14.4441 29.9339C14.4231 29.8828 14.4051 29.8317 14.381 29.7806C14.8079 29.5701 15.2318 29.3567 15.6977 29.1252C15.2107 28.2805 14.6275 29.1252 14.1525 28.8967C14.4772 28.6833 14.7989 28.4789 15.1235 28.2684C15.0243 27.9678 14.9432 27.7213 14.862 27.4718C15.0394 27.6191 15.2047 27.8596 15.3971 27.8897C15.6135 27.9227 15.8841 27.7995 16.0735 27.6642C16.1246 27.6281 15.9713 27.3034 15.9142 27.1141C15.5053 27.2553 15.1837 27.3636 14.865 27.4748C14.6185 27.6251 14.375 27.7724 14.1285 27.9227C14.6906 27.2914 15.328 26.8074 15.9623 26.3144C16.317 26.0378 16.1937 25.7943 15.8901 25.5719L15.854 25.608ZM83.8542 59.5119C83.6498 59.566 83.4424 59.6201 83.238 59.6742C83.2199 59.6261 83.2019 59.578 83.1839 59.5299C83.6979 59.2744 84.215 59.0188 84.7952 58.7363C84.2721 57.8735 83.6648 58.6701 83.1418 58.4597C83.4935 58.2192 83.8212 57.9937 84.1338 57.7773C84.0316 57.4526 83.9534 57.2031 83.8723 56.9506C84.1338 57.155 84.3954 57.3564 84.6389 57.5428C85.3423 57.0468 85.3423 57.0468 84.8884 56.5327C84.5457 56.674 84.209 56.8123 83.8723 56.9536C83.0967 57.4075 83.0967 57.4075 82.1828 57.4496C83.9745 56.8273 85.1199 55.5377 86.3103 54.224C86.5899 54.8402 85.4836 55.4385 86.4155 55.9194C86.6169 55.7812 86.8003 55.6579 87.0107 55.5136C86.8815 56.0307 86.5598 56.6469 86.7131 56.8033C87.3024 57.4105 86.9206 57.7232 86.5328 58.147C86.1359 58.5769 86.6049 58.7934 86.9085 59.1331C86.662 59.3585 86.4336 59.593 86.172 59.7884C85.8834 60.0079 85.5467 60.1852 85.9556 60.6753C86.2231 60.564 86.5117 60.4468 86.7973 60.3265C86.3013 60.9849 85.4415 61.4058 86.0277 62.4309C85.4595 62.7135 84.9786 62.963 85.0718 63.6664C85.1259 64.0542 84.8733 64.2857 84.4795 64.421C84.0587 64.5653 83.9595 64.911 84.1218 65.3559C86.7673 63.6303 88.7874 58.8234 86.9055 54.2781C85.1409 50.0123 80.7128 47.5382 76.1163 48.416C71.6551 49.2667 68.3062 53.0094 68.1439 57.7322C68.0236 61.1713 70.3173 65.3709 72.7133 65.9692C72.4006 65.5363 72.5509 64.7877 71.8415 64.8238C71.0869 64.8629 71.0027 64.5051 71.0569 63.9159C71.0719 63.7175 71.0088 63.5101 70.9757 63.2606C70.7232 63.3748 70.5698 63.444 70.3444 63.5462C70.3805 63.0321 70.4135 62.5842 70.4526 62.025C70.152 62.1002 69.9566 62.1483 69.68 62.2174C69.8754 61.7244 70.0498 61.2735 70.2542 60.7504C70.0047 60.7504 69.8243 60.7504 69.6109 60.7504C69.692 60.5159 69.7492 60.3446 69.8303 60.1071C70.2031 60.3235 70.4947 60.4919 70.8164 60.6783C70.633 60.9819 70.4857 61.2284 70.1941 61.7094C70.6781 61.5891 70.9156 61.529 71.1771 61.4659C70.9697 61.983 70.9576 62.4038 71.7182 62.3377C71.6491 62.7225 71.592 63.0562 71.5348 63.3868C71.5258 63.6153 71.4627 63.8558 71.5258 64.0572C71.5679 64.1985 71.7723 64.3097 71.9317 64.3789C71.9978 64.409 72.2052 64.3007 72.2052 64.2496C72.2112 64.0813 72.2082 63.8618 72.106 63.7536C71.9587 63.5913 71.7242 63.5101 71.5258 63.3929C71.8986 63.4259 72.2714 63.462 72.6531 63.4981C72.7043 63.8017 72.7584 64.1294 72.8185 64.4781C73.1371 64.442 73.3566 64.415 73.552 64.3909C73.8346 64.7517 73.7564 65.4641 74.4298 65.3168C74.6252 65.2717 74.7304 64.8268 74.8988 64.5292C75.2535 64.902 75.2776 65.7287 76.0832 65.7167C76.0772 65.7888 76.0471 65.867 76.0652 65.9331C76.2786 66.6456 76.2816 66.6546 76.9731 65.9962C76.8498 65.7467 76.7235 65.4972 76.4891 65.0222C77.2556 65.5543 77.7998 65.9271 78.3138 66.2818C78.9782 65.9902 78.9151 65.5393 78.5844 64.9711C79.0353 65.0823 79.372 65.1575 79.7027 65.2447C80.0424 65.3319 80.4572 65.5273 80.6136 65.0793C80.7128 64.7998 80.5594 64.43 80.5083 64.0272C81.2178 64.0272 81.9754 64.0272 82.742 64.0272C83.0576 63.0051 82.0986 63.447 81.7439 63.1223C82.4113 62.993 83.0125 62.8758 83.6017 62.7585C83.6739 62.2445 83.5446 61.9499 82.9945 61.983C82.6067 62.004 82.1918 62.0912 81.804 61.7725C82.7179 61.6012 83.5386 61.4448 84.3262 61.2975C84.3773 60.6963 84.0797 60.6843 83.737 60.6903C83.0877 60.7053 82.4413 60.6963 81.795 60.6963C81.792 60.6452 81.792 60.5941 81.789 60.543C82.5045 60.4287 83.2169 60.3175 83.9264 60.2033C83.8963 59.8876 83.8753 59.6952 83.8572 59.5089C84.1038 59.6712 84.3382 59.8726 84.6118 59.9718C84.72 60.0109 84.9305 59.8365 85.0567 59.7193C85.0988 59.6802 85.0627 59.4668 84.9996 59.4217C84.8914 59.3435 84.726 59.2924 84.5998 59.3104C84.3473 59.3495 84.1007 59.4427 83.8542 59.5119ZM51.8923 35.4803C52.9175 34.5724 52.9385 34.5364 52.4004 33.4391C50.3652 29.2935 47.0494 26.9096 42.4679 26.4858C37.3183 26.0108 32.6497 28.9027 30.4852 33.7277C28.4741 38.2129 29.5984 43.6722 33.2629 47.1714C34.8322 48.6685 36.684 49.6485 38.7883 50.1626C39.2813 50.2828 39.7112 50.3129 39.9006 49.5072C39.4737 49.4832 39.0769 49.3509 38.7703 49.4681C38.148 49.7026 37.7151 49.5523 37.3213 49.0713C37.0207 48.7016 36.4615 48.5603 36.4255 47.941C36.4164 47.8177 36.0196 47.7215 35.7551 47.5863C35.6949 47.92 35.6589 48.1244 35.5747 48.5873C35.217 47.9891 34.9795 47.6013 34.745 47.2105C34.6097 46.979 34.5315 46.6243 34.3361 46.5401C34.0596 46.4259 33.7018 46.5131 33.3681 46.5131C32.9954 46.0952 32.818 45.6382 33.0134 45.049C33.0585 44.9077 32.8361 44.6763 32.6707 44.3636C32.4933 44.7604 32.4062 44.9528 32.316 45.1573C31.5734 44.5079 32.7609 43.6061 31.9252 42.9447C31.7298 43.107 31.5494 43.2543 31.372 43.4016C31.3269 43.3716 31.2818 43.3415 31.2398 43.3115C31.4863 42.6952 31.7328 42.0759 32.0815 41.2101C31.5765 41.4717 31.3209 41.6069 31.0023 41.7753C31.1856 41.3514 31.333 41.0087 31.5193 40.5908C31.9823 40.9155 32.3701 41.1801 32.7759 41.4626C32.1025 42.133 32.0003 42.4006 32.31 42.5298C32.5024 42.608 32.812 42.4036 33.1216 42.3104C33.2629 42.593 32.5625 43.1942 33.3892 43.3986C33.5365 43.2754 33.6988 43.1401 33.9363 42.9417C33.8251 43.4888 33.7319 43.9397 33.6507 44.3396C34.0265 44.9739 34.4955 44.8897 34.9855 44.5951C35.0246 45.1122 35.0606 45.5601 35.1027 46.0711C35.5116 46.014 35.8032 45.9719 36.0948 45.9329C36.6389 47.1894 36.6389 47.1894 37.5558 46.8768C37.5558 46.5612 37.5558 46.2485 37.5558 45.7224C37.8714 46.2936 38.133 46.6453 38.2713 47.0421C38.4727 47.6223 38.9747 47.46 39.2092 47.469C39.2393 47.8568 39.1581 48.2476 39.2934 48.3498C39.7653 48.7076 40.0419 48.2927 40.3606 47.9771C40.1652 47.6073 39.9878 47.2706 39.8104 46.9369C40.1441 47.0001 40.3034 47.1985 40.5079 47.2826C40.7303 47.3698 41.064 47.2586 41.2233 47.3909C41.4157 47.5502 41.4368 47.9019 41.6051 48.1093C41.6983 48.2296 41.9418 48.2296 42.1493 48.2927C42.3747 47.956 42.5671 47.6704 42.7475 47.3999C42.5551 47.1564 42.4018 46.964 42.2184 46.7325C43.2405 46.5581 44.2085 47.7125 45.1194 46.5311C45.0893 47.1263 45.3478 47.3638 45.8349 47.2406C46.3489 47.1083 46.3128 46.7115 46.2136 46.2846C45.6304 46.1222 45.0593 45.9629 44.4881 45.8006C44.5001 45.7314 44.5091 45.6593 44.5181 45.5871C45.4952 45.536 46.4692 45.4879 47.5123 45.4368C47.4853 45.1422 47.4612 44.8957 47.4372 44.6612C46.9772 44.5891 46.5984 44.526 46.2166 44.4658C46.2257 44.4057 46.2347 44.3426 46.2407 44.2794C47.0163 44.1592 47.7889 44.0359 48.6547 43.9007C48.4983 43.4888 48.3931 43.2153 48.2939 42.9567C47.861 42.9567 47.5093 42.9748 47.1606 42.9507C46.8449 42.9297 46.5293 42.8665 46.2166 42.8214C47.1185 42.5268 47.9933 42.4096 48.8561 42.2292C49.0695 42.1841 49.3852 41.9526 49.4032 41.7813C49.4483 41.3604 49.0966 41.3093 48.7509 41.3454C48.5555 41.3694 48.3601 41.4115 48.1677 41.4055C47.4522 41.3905 46.7337 41.3574 46.0212 41.3304C46.0212 41.2702 46.0212 41.2131 46.0212 41.156C46.9772 41.0328 47.9302 40.9125 48.8681 40.7923C48.9884 39.7431 48.2007 40.2241 47.7137 39.9746C48.4983 39.6319 49.1838 39.3312 49.8692 39.0336C49.5325 38.3152 49.5325 38.3031 49.0846 38.4144C48.6637 38.5196 48.2488 38.6488 47.831 38.7691C47.8129 38.706 47.7979 38.6458 47.7769 38.5827C48.2458 38.3242 48.7148 38.0656 49.1777 37.8131C48.7689 37.0014 48.7659 36.9984 48.1707 37.1578C47.9061 37.2299 47.6476 37.3351 47.383 37.3953C47.1726 37.4434 46.9502 37.4494 46.7367 37.4764C48.2879 36.8331 49.5445 35.8531 50.7169 34.5965C50.4494 34.365 50.2299 34.1756 49.9834 33.9622C48.9463 34.7889 47.9332 35.5194 46.6646 35.7719C48.2578 34.6897 49.8 33.5714 50.8913 31.93C50.9574 31.9751 51.0266 32.0202 51.0927 32.0623C50.8432 32.6034 50.5937 33.1475 50.3171 33.7517C50.5636 33.9171 50.8011 34.0764 51.0296 34.2327C51.3572 33.884 51.6218 33.6014 51.9284 33.2768C52.1809 34.1065 50.8522 34.7558 51.8923 35.4803ZM52.0517 45.8757C54.153 46.994 56.1792 48.0192 58.1573 49.1345C60.6133 50.5233 63.0243 51.9903 65.4653 53.4063C66.262 53.8692 67.0857 54.2781 67.9184 54.723C68.4354 53.6828 68.8804 52.79 69.3223 51.9092C66.755 50.2377 54.3003 43.6902 53.3473 43.5069C52.9415 44.2524 52.5297 45.0039 52.0517 45.8757ZM26.52 59.572C29.1565 56.0187 31.6967 52.5946 34.276 49.1164C33.5906 48.5513 32.9713 48.0402 32.307 47.4931C29.5894 50.8059 26.9349 54.0436 24.3285 57.2211C25.0771 58.0238 25.7625 58.7603 26.52 59.572ZM48.9733 27.9287C50.4854 24.8714 51.9675 21.8743 53.4676 18.838C52.674 18.4472 51.9855 18.1075 51.249 17.7437C49.6798 20.7319 48.1466 23.6569 46.5984 26.606C47.4612 27.087 48.2037 27.5019 48.9733 27.9287ZM29.7096 33.3158C26.018 32.3659 22.4286 31.443 18.761 30.499C18.5085 31.2295 18.274 31.9089 18.0426 32.5823C20.198 33.4571 28.0291 35.2879 29.0873 35.1707C29.2707 34.6296 29.4571 34.0734 29.7096 33.3158ZM97.9142 62.3768C98.0104 61.6342 98.0826 61.0751 98.1637 60.4318C94.8148 60.077 91.5892 59.7343 88.3395 59.3856C88.2192 59.7524 88.117 60.0019 88.0599 60.2634C87.9938 60.555 87.9727 60.8586 87.9156 61.2915C91.2495 61.6553 94.5082 62.01 97.9142 62.3768ZM69.8213 64.7727C67.4735 66.7899 65.1948 68.7499 62.859 70.758C63.2888 71.2871 63.6766 71.7591 64.1155 72.2972C66.5025 70.2079 68.8232 68.1787 71.0478 66.2307C70.621 65.7227 70.2542 65.2868 69.8213 64.7727ZM76.1013 47.6855C75.7495 45.3917 75.4098 43.1672 75.0521 40.8373C74.4599 41.0718 73.9669 41.2642 73.3566 41.5077C73.6362 43.7203 73.9157 45.9058 74.2074 48.2025C74.8867 48.0162 75.4369 47.8658 76.1013 47.6855ZM20.9856 74.3535C20.3002 74.1791 19.5577 74.3805 18.9234 73.9566C18.8512 73.9085 18.5897 74.1039 18.4394 74.2122C18.2079 74.3865 17.9914 74.5849 17.7149 74.8194C18.8572 74.8194 19.9605 74.9818 20.9856 74.3535ZM44.2175 47.7666C43.8177 47.6584 43.5051 47.5742 43.1503 47.475C42.9579 47.8929 42.8046 48.2266 42.6513 48.5603C43.5321 48.9361 43.5321 48.9361 44.2175 47.7666ZM49.0605 36.8301C49.3431 37.0976 49.5535 37.296 49.803 37.5335C50.1127 37.278 50.3712 37.0676 50.6688 36.8211C50.4614 36.5475 50.3081 36.3491 50.1067 36.0876C49.7459 36.3431 49.4453 36.5595 49.0605 36.8301ZM48.802 42.8786C48.8982 43.3145 48.7899 43.8947 49.5144 43.7714C49.6467 43.7504 49.8331 43.3475 49.8 43.1521C49.6918 42.4878 49.2679 42.6501 48.802 42.8786ZM11.7205 36.9924C11.1734 36.9052 10.7826 36.9143 10.4549 36.773C10.037 36.5926 9.75146 36.5415 9.55906 37.1247C10.2866 37.3742 10.9329 37.3652 11.7205 36.9924ZM33.6417 44.9769C33.3591 45.5481 33.4794 45.8908 34.0656 45.9268C34.2219 45.9359 34.5195 45.7044 34.5255 45.5721C34.5526 44.8987 34.0265 45.0641 33.6417 44.9769ZM56.8826 84.5084C57.6793 84.4182 58.3376 84.3461 58.996 84.2739C58.6262 84.0515 58.2204 84.0785 57.9168 83.9162C57.3486 83.6095 57.1622 83.9372 56.8826 84.5084ZM40.1231 49.0322C40.8115 49.4351 40.8115 49.4351 41.3075 48.7887C40.6912 48.3679 40.6912 48.3679 40.1231 49.0322ZM49.1056 39.9385C49.1958 40.1159 49.2469 40.3383 49.3341 40.3534C49.6076 40.4015 49.9113 40.4255 50.1698 40.3473C50.254 40.3233 50.2389 39.9625 50.266 39.7551C50.0195 39.7311 49.77 39.683 49.5265 39.701C49.3942 39.713 49.2739 39.8363 49.1056 39.9385ZM80.1296 66.9342C80.9262 67.1085 80.9262 67.1085 81.314 66.2187C80.5414 66.0564 80.5414 66.0564 80.1296 66.9342ZM51.1318 35.3059C50.4854 35.832 50.4854 35.832 51.1258 36.4633C51.718 36.0665 51.5466 35.7028 51.1318 35.3059ZM19.4194 73.4937C20.177 73.8214 20.3243 73.3314 20.5227 72.8714C19.7561 72.5978 19.7561 72.5978 19.4194 73.4937ZM20.5648 73.8123C21.4426 74.1881 21.5808 73.641 21.7702 73.0909C20.9916 72.7091 20.7842 73.1991 20.5648 73.8123ZM78.897 66.5704C79.7237 66.9883 79.8319 66.4321 80.0574 65.9632C79.2878 65.6746 79.2878 65.6746 78.897 66.5704ZM50.9815 37.5125C50.1157 37.9604 50.1157 37.9604 50.5305 38.6278C51.0296 38.4444 51.4805 38.261 50.9815 37.5125ZM51.4594 38.7811C50.8041 39.0457 50.5636 39.3583 51.0416 39.9385C51.6398 39.7311 51.9705 39.4725 51.4594 38.7811ZM26.6794 63.1494C27.1664 62.6894 27.3858 62.2806 26.8206 61.6853C26.5321 62.1723 26.0481 62.512 26.6794 63.1494ZM50.7319 42.2713C50.0796 42.6832 50.0796 42.6832 50.6117 43.4888C51.249 43.1251 51.0326 42.7132 50.7319 42.2713ZM73.2905 65.8579C73.2574 66.6756 73.6843 66.9432 74.3877 66.9281C73.8466 66.7778 74.1292 65.7858 73.2905 65.8579ZM57.6763 17.2056C58.4098 17.4521 58.6112 17.0974 58.7375 16.5683C57.9949 16.1204 57.8386 16.5803 57.6763 17.2056ZM22.4106 71.8643C22.0739 71.69 21.8815 71.5066 21.7251 71.5336C21.5808 71.5637 21.3704 71.8132 21.3764 71.9605C21.3824 72.1078 21.653 72.3934 21.7402 72.3694C21.9416 72.3122 22.1039 72.1078 22.4106 71.8643ZM83.749 62.0401C83.9745 62.2746 84.1759 62.485 84.3743 62.6924C84.4795 62.5181 84.693 62.3227 84.6659 62.1723C84.5727 61.6703 84.242 61.7304 83.749 62.0401ZM50.3111 41.9526C50.4945 41.6791 50.7019 41.5017 50.6899 41.3454C50.6778 41.2071 50.4013 40.9696 50.272 40.9907C50.1127 41.0147 49.8902 41.2492 49.8752 41.4085C49.8662 41.5498 50.1037 41.7122 50.3111 41.9526ZM37.7121 48.6505C37.8835 49.1104 38.1089 49.3569 38.5689 49.0954C38.6561 49.0473 38.7402 48.8038 38.6921 48.7256C38.4276 48.2777 38.0969 48.3769 37.7121 48.6505ZM81.0014 64.5923C81.0134 64.893 80.6827 65.2627 81.1998 65.416C81.3441 65.4581 81.7289 65.2116 81.7529 65.0583C81.8401 64.5322 81.4463 64.5502 81.0014 64.5923ZM36.8644 47.5231C37.2131 48.2176 37.5227 48.1665 37.8263 47.923C37.8985 47.8658 37.8564 47.6614 37.8684 47.5231C37.5858 47.5231 37.3033 47.5231 36.8644 47.5231ZM51.6819 37.78C52.2982 37.3953 52.1839 37.0856 51.8563 36.7219C51.3031 36.9984 51.3933 37.3201 51.6819 37.78ZM48.4563 45.6082C48.5945 45.2865 48.7569 45.0881 48.7268 44.9318C48.6937 44.7785 48.4563 44.6703 48.312 44.544C48.2037 44.7033 48.0053 44.8687 48.0143 45.022C48.0234 45.1843 48.2338 45.3286 48.4563 45.6082ZM47.0854 47.457C47.2929 47.0512 47.4432 46.8528 47.4792 46.6333C47.4943 46.5431 47.2538 46.4138 47.1305 46.3026C47.0103 46.468 46.8389 46.6243 46.7908 46.8107C46.7578 46.9309 46.9111 47.0963 47.0854 47.457ZM49.0395 44.8115C49.2589 44.9799 49.3942 45.0851 49.5295 45.1873C49.6708 44.9919 49.8121 44.7995 49.9533 44.6041C49.8151 44.5049 49.6347 44.3005 49.5505 44.3336C49.3762 44.4027 49.2499 44.6011 49.0395 44.8115ZM11.3989 35.5404C10.987 35.312 10.6834 35.3721 10.5661 35.808C10.5301 35.9463 10.6533 36.1296 10.7044 36.292C10.9359 36.1417 11.1764 36.0004 11.3898 35.826C11.4409 35.7839 11.3989 35.6306 11.3989 35.5404ZM35.6138 46.2245C35.4244 46.504 35.1959 46.6964 35.229 46.8227C35.2651 46.973 35.5176 47.1113 35.701 47.1534C35.7731 47.1744 36.0076 46.9129 35.9926 46.8016C35.9715 46.6363 35.8002 46.489 35.6138 46.2245ZM25.1462 69.3361C24.9508 69.1046 24.8125 68.9453 24.6802 68.786C24.5299 68.9213 24.3826 69.0535 24.2323 69.1888C24.3736 69.3421 24.4939 69.5435 24.6682 69.6307C24.7434 69.6698 24.9358 69.4714 25.1462 69.3361ZM79.0173 67.352C78.5273 66.9943 78.2086 66.9973 77.8779 67.4663C78.2537 67.824 78.5663 67.7879 79.0173 67.352ZM85.682 55.694C85.5107 55.9435 85.2972 56.1359 85.3333 56.2291C85.3994 56.4065 85.6129 56.5297 85.7632 56.677C85.8564 56.5267 86.0247 56.3704 86.0247 56.2201C86.0217 56.0758 85.8443 55.9315 85.682 55.694ZM86.3163 59.0609C86.151 58.8896 85.9916 58.6821 85.9646 58.6972C85.7842 58.8054 85.6039 58.9407 85.4896 59.112C85.4626 59.1571 85.679 59.3615 85.7812 59.4908C85.9436 59.3615 86.1059 59.2323 86.3163 59.0609ZM82.5856 66.36C82.5165 66.2728 82.4473 66.1826 82.3782 66.0954C81.783 65.9992 81.7259 66.4832 81.7018 67.0243C81.9964 66.8049 82.291 66.5824 82.5856 66.36ZM107.72 68.807C106.918 68.5846 106.9 68.5786 106.725 68.9513C106.677 69.0535 106.755 69.2159 106.804 69.5135C107.137 69.2549 107.357 69.0866 107.72 68.807ZM58.9689 82.9602C58.1663 82.7408 58.1512 82.7317 57.9739 83.1045C57.9258 83.2067 58.0039 83.369 58.052 83.6667C58.3857 83.4111 58.6052 83.2398 58.9689 82.9602ZM85.4265 57.5458C85.2551 57.7713 85.0868 57.9216 85.0206 58.111C84.9996 58.1741 85.2431 58.3274 85.3694 58.4386C85.5046 58.2523 85.658 58.0689 85.7632 57.8645C85.7812 57.8344 85.5828 57.6901 85.4265 57.5458ZM62.4952 10.4327C62.7567 11.1211 63.0243 11.1632 63.3249 10.9407C63.4151 10.8776 63.4061 10.6822 63.4422 10.5469C63.1836 10.5168 62.9251 10.4838 62.4952 10.4327ZM15.9051 74.3865C16.4162 74.6631 16.7679 74.8585 17.1166 74.3114C16.6868 73.9085 16.3651 74.0498 15.9051 74.3865ZM17.4112 73.8063C17.8802 73.9687 17.8802 73.9687 18.274 73.629C17.8141 73.3584 17.8141 73.3584 17.4112 73.8063ZM22.9998 71.4795C22.8104 71.726 22.6631 71.8493 22.624 71.9966C22.5999 72.0898 22.7442 72.2281 22.8104 72.3423C22.9396 72.2281 23.108 72.1319 23.1801 71.9876C23.2192 71.9064 23.099 71.7441 22.9998 71.4795ZM76.7807 66.9041C77.2406 67.3129 77.5502 67.2228 77.8148 66.7357C77.43 66.2848 77.1354 66.4261 76.7807 66.9041ZM63.6616 9.72019C63.854 9.50074 64.0254 9.35344 64.1246 9.16705C64.1516 9.11595 63.9622 8.9476 63.872 8.83336C63.7097 8.97766 63.5203 9.10392 63.4031 9.27828C63.37 9.32939 63.5384 9.51878 63.6616 9.72019ZM85.2672 61.4478C84.8884 61.7575 84.9244 62.0401 85.2371 62.3106C85.2882 62.3557 85.4896 62.3196 85.5347 62.2595C85.7962 61.8928 85.6459 61.6493 85.2672 61.4478ZM24.548 66.4622C24.7464 67.0995 25.029 67.1747 25.3326 66.871C25.3957 66.8079 25.3386 66.4832 25.3115 66.4802C25.059 66.4532 24.8035 66.4622 24.548 66.4622ZM25.8496 64.5683C25.6422 64.8779 25.4949 65.0793 25.3837 65.2988C25.3747 65.3168 25.6152 65.5423 25.6903 65.5182C26.003 65.416 26.2284 65.2236 25.8496 64.5683ZM16.9423 26.9607C16.786 26.7834 16.6717 26.6541 16.5575 26.5218C16.4372 26.6391 16.2088 26.7653 16.2208 26.8645C16.2358 27.0088 16.4102 27.1622 16.5545 27.2433C16.6026 27.2734 16.7679 27.093 16.9423 26.9607ZM62.8469 13.7124C62.9552 13.3998 63.0814 13.2254 63.0423 13.0962C63.0033 12.9579 62.8109 12.7775 62.6846 12.7805C62.5734 12.7835 62.3479 13.036 62.375 13.1202C62.4261 13.2946 62.6094 13.4328 62.8469 13.7124ZM64.3621 9.79234C64.0344 9.91259 63.7247 9.99376 63.869 10.4176C63.8961 10.4988 64.0614 10.61 64.1246 10.589C64.4613 10.4808 64.6356 10.2703 64.3621 9.79234ZM63.5474 13.2675C63.6827 13.2495 63.8149 13.2314 63.9472 13.2104C63.9201 12.9909 63.9081 12.7655 63.845 12.555C63.836 12.525 63.5865 12.5671 63.4482 12.5761C63.4812 12.8076 63.5143 13.036 63.5474 13.2675ZM63.4091 12.1492C63.5564 11.9839 63.7127 11.8847 63.7247 11.7704C63.7338 11.6652 63.5925 11.545 63.5173 11.4307C63.382 11.5359 63.2197 11.6201 63.1235 11.7554C63.0994 11.7885 63.2768 11.9718 63.4091 12.1492ZM25.9428 66.6035C26.2855 66.4892 26.6252 66.4321 26.4749 65.9782C26.4479 65.894 26.2886 65.7888 26.2104 65.8038C25.8106 65.876 25.7084 66.1195 25.9428 66.6035ZM75.004 66.4622C74.9799 66.6065 74.9559 66.7508 74.9349 66.8951C75.1543 66.9101 75.3738 66.9312 75.5962 66.9251C75.6112 66.9221 75.6533 66.6395 75.6293 66.6335C75.4279 66.5584 75.2144 66.5163 75.004 66.4622ZM25.3326 68.2118C25.5009 68.0044 25.6542 67.8841 25.7023 67.7308C25.7234 67.6647 25.4829 67.4272 25.4408 67.4452C25.2905 67.5144 25.1342 67.6376 25.065 67.7789C25.032 67.845 25.2003 68.0074 25.3326 68.2118ZM109.082 68.0104C108.833 67.842 108.7 67.7007 108.547 67.6737C108.46 67.6587 108.241 67.848 108.253 67.9082C108.286 68.0675 108.394 68.302 108.508 68.326C108.634 68.3531 108.803 68.1727 109.082 68.0104ZM48.8441 46.5281C48.6547 46.3988 48.4923 46.2395 48.4472 46.2665C48.2819 46.3748 48.1256 46.5281 48.0264 46.6994C48.0053 46.7355 48.2368 46.9189 48.351 47.0361C48.4923 46.8888 48.6336 46.7445 48.8441 46.5281ZM25.2544 70.3342C25.05 70.2199 24.8907 70.0756 24.8336 70.1087C24.7013 70.1839 24.584 70.3342 24.5359 70.4785C24.5179 70.5356 24.7584 70.755 24.8035 70.734C24.9478 70.6679 25.056 70.5236 25.2544 70.3342ZM56.6752 17.377C56.113 17.0794 56.113 17.0794 55.7914 17.6085C55.9507 17.6445 56.107 17.7287 56.2243 17.6926C56.3836 17.6445 56.5099 17.5002 56.6752 17.377ZM59.7055 82.6656C59.9219 82.4371 60.1293 82.3139 60.1353 82.1846C60.1413 82.0644 59.9429 81.905 59.7986 81.8299C59.7445 81.8058 59.507 81.9712 59.501 82.0583C59.495 82.2177 59.6002 82.377 59.7055 82.6656ZM86.4396 56.9987C86.3253 57.0047 86.2141 57.0077 86.1029 57.0107C86.1149 57.2241 86.1269 57.4376 86.139 57.648C86.2382 57.639 86.4215 57.636 86.4245 57.6149C86.4486 57.4135 86.4396 57.2061 86.4396 56.9987ZM61.5422 15.913C61.4791 15.8168 61.416 15.7176 61.3528 15.6184C61.2386 15.5672 61.0913 15.45 61.0162 15.4831C60.9079 15.5342 60.7907 15.6935 60.7847 15.8108C60.7787 15.9009 60.941 16.0843 61.0252 16.0813C61.1995 16.0753 61.3709 15.9761 61.5422 15.913ZM83.4995 64.1234C83.6498 63.9069 83.8061 63.7807 83.7851 63.6935C83.749 63.5462 83.6047 63.4229 83.5085 63.2876C83.4063 63.3808 83.2139 63.48 83.2199 63.5612C83.235 63.7175 83.3612 63.8618 83.4995 64.1234ZM16.7499 28.3977C16.5304 28.2805 16.3621 28.1302 16.299 28.1632C16.1517 28.2474 16.0585 28.4218 15.9412 28.557C16.0464 28.6442 16.1847 28.8216 16.2479 28.8005C16.4042 28.7404 16.5244 28.5901 16.7499 28.3977ZM85.5467 60.6422C85.3062 60.5249 85.1469 60.3837 85.0687 60.4197C84.9305 60.4829 84.8403 60.6542 84.732 60.7805C84.8373 60.8707 84.9725 61.057 85.0447 61.036C85.195 60.9909 85.3153 60.8346 85.5467 60.6422ZM23.9347 71.0677C24.0519 70.8452 24.1932 70.6889 24.1602 70.6137C24.1 70.4815 23.9347 70.3943 23.8114 70.2891C23.7243 70.3913 23.5499 70.5175 23.5709 70.5867C23.616 70.734 23.7603 70.8512 23.9347 71.0677ZM73.6241 65.0854C73.3987 64.938 73.2694 64.7968 73.1281 64.7877C73.044 64.7787 72.9447 64.9741 72.8485 65.0793C72.9808 65.1846 73.0981 65.3258 73.2484 65.3739C73.3145 65.395 73.4408 65.2327 73.6241 65.0854ZM82.4143 65.5633C82.6007 65.3198 82.748 65.1996 82.781 65.0523C82.8021 64.9681 82.6458 64.8388 82.5676 64.7306C82.4473 64.8479 82.288 64.9441 82.2219 65.0854C82.1858 65.1665 82.3091 65.3168 82.4143 65.5633ZM63.3189 14.3107C63.1325 14.1483 63.0333 13.995 62.9311 13.992C62.8259 13.989 62.6515 14.1153 62.6245 14.2175C62.6004 14.3197 62.7147 14.464 62.7688 14.5872C62.9191 14.5121 63.0694 14.4369 63.3189 14.3107ZM83.5777 64.5021C83.4003 64.7847 83.268 64.92 83.235 65.0703C83.2229 65.1365 83.4183 65.2447 83.5175 65.3319C83.6107 65.2206 83.752 65.1244 83.7821 64.9982C83.8061 64.899 83.6949 64.7667 83.5777 64.5021ZM15.7909 72.7361C15.5354 72.5948 15.3821 72.4505 15.3099 72.4836C15.1746 72.5497 15.0814 72.7121 14.9702 72.8353C15.0544 72.8985 15.1506 73.0247 15.2167 73.0097C15.37 72.9766 15.5113 72.8744 15.7909 72.7361ZM111.788 62.8788C111.884 62.6864 111.971 62.5361 112.019 62.3768C112.028 62.3497 111.815 62.2084 111.8 62.2234C111.68 62.3377 111.571 62.473 111.487 62.6173C111.478 62.6323 111.638 62.7495 111.788 62.8788ZM84.4946 63.9129C84.6238 63.6634 84.7471 63.5221 84.7531 63.3748C84.7591 63.2846 84.5847 63.1884 84.4885 63.0952C84.3893 63.2275 84.245 63.3478 84.206 63.4981C84.1849 63.5792 84.3443 63.7055 84.4946 63.9129ZM54.1139 17.0162C54.0598 17.1335 54.0027 17.2447 53.9456 17.3619C54.165 17.4251 54.3845 17.4882 54.6009 17.5513C54.631 17.4672 54.661 17.383 54.6941 17.2988C54.5017 17.2056 54.3063 17.1124 54.1139 17.0162ZM15.6226 73.3404C15.5895 73.4817 15.5594 73.6199 15.5294 73.7612C15.7458 73.7673 15.9653 73.7763 16.1817 73.7733C16.1907 73.7733 16.2208 73.5809 16.1967 73.5688C16.0134 73.4817 15.815 73.4125 15.6226 73.3404ZM5.75622 34.7678C5.52474 34.6626 5.40449 34.5634 5.29026 34.5694C5.2121 34.5724 5.05878 34.7468 5.07682 34.7889C5.12792 34.9121 5.23314 35.0685 5.34437 35.0925C5.42554 35.1105 5.54879 34.9422 5.75622 34.7678ZM52.7551 15.7356C52.5327 15.6093 52.3944 15.468 52.2952 15.4921C52.19 15.5161 52.1178 15.6935 52.0336 15.8047C52.1449 15.8889 52.2561 16.0272 52.3733 16.0362C52.4695 16.0422 52.5747 15.8859 52.7551 15.7356ZM63.3369 76.539C63.2678 76.4578 63.2017 76.3796 63.1355 76.2985C62.9972 76.4428 62.8559 76.5841 62.7177 76.7284C62.7928 76.8005 62.9311 76.9418 62.9401 76.9358C63.0814 76.8125 63.2077 76.6742 63.3369 76.539ZM56.1912 84.2469C55.6711 83.7298 55.4366 83.811 55.1451 84.2469C55.4817 84.2469 55.7222 84.2469 56.1912 84.2469ZM61.93 15.1193C62.1585 14.6804 62.3028 14.5031 62.2667 14.4489C62.1826 14.3257 62.0112 14.2565 61.8729 14.1694C61.8188 14.2866 61.7136 14.4069 61.7166 14.5241C61.7166 14.6624 61.8098 14.8007 61.93 15.1193ZM110.33 65.6625C110.664 65.9391 110.763 66.0804 110.871 66.0894C110.958 66.0924 111.148 65.894 111.129 65.8549C111.072 65.7136 110.964 65.5423 110.832 65.4942C110.727 65.4581 110.561 65.5784 110.33 65.6625ZM74.8086 65.4882C74.6132 65.6235 74.499 65.7046 74.3877 65.7828C74.4659 65.888 74.535 66.0684 74.6222 66.0774C74.7364 66.0894 74.9078 65.9962 74.9769 65.894C75.016 65.8369 74.8898 65.6746 74.8086 65.4882ZM14.2818 71.9665C13.9992 71.8493 13.879 71.7621 13.7617 71.7621C13.6836 71.7621 13.6054 71.8944 13.5302 71.9665C13.6234 72.0687 13.7076 72.2251 13.8218 72.2521C13.909 72.2732 14.0353 72.1289 14.2818 71.9665ZM82.8442 66.0263C82.8983 66.1075 82.9554 66.1916 83.0065 66.2728C83.1839 66.1225 83.3612 65.9722 83.5356 65.8249C83.4965 65.7708 83.4544 65.7167 83.4123 65.6625C83.2229 65.7858 83.0335 65.906 82.8442 66.0263ZM6.66109 35.1436C6.53182 35.336 6.45366 35.4533 6.3755 35.5705C6.49574 35.6276 6.619 35.7208 6.74225 35.7238C6.81741 35.7268 6.97072 35.5555 6.95569 35.5104C6.91361 35.3961 6.79636 35.3059 6.66109 35.1436ZM13.7106 35.1947C13.7858 35.0023 13.894 34.867 13.873 34.7558C13.8579 34.6716 13.6806 34.6145 13.5753 34.5484C13.5272 34.6777 13.4461 34.8069 13.4371 34.9422C13.434 35.0023 13.5723 35.0715 13.7106 35.1947ZM64.4643 8.91453C64.5394 8.91754 64.6116 8.91754 64.6867 8.92054C64.7018 8.73115 64.7168 8.54477 64.7318 8.35839C64.6356 8.35839 64.5364 8.35839 64.4402 8.35839C64.4492 8.54176 64.4552 8.72815 64.4643 8.91453ZM110.787 66.7718C110.546 66.7087 110.396 66.6365 110.243 66.6395C110.164 66.6395 110.008 66.7959 110.023 66.838C110.062 66.9702 110.171 67.0785 110.252 67.1987C110.333 67.1326 110.417 67.0664 110.787 66.7718ZM76.45 67.5835C76.462 67.4933 76.468 67.4001 76.48 67.3069C76.2275 67.3069 75.978 67.3069 75.7285 67.3069C75.7285 67.3731 75.7285 67.4392 75.7285 67.5083C75.969 67.5324 76.2095 67.5594 76.45 67.5835ZM16.2689 31.452C16.0885 31.7015 15.9593 31.8037 15.9563 31.9119C15.9502 32.0472 16.0494 32.1855 16.1036 32.3238C16.2178 32.2547 16.4192 32.1945 16.4312 32.1104C16.4523 31.957 16.3621 31.7887 16.2689 31.452ZM62.9071 77.8677C62.6245 77.7655 62.4832 77.6663 62.378 77.6933C62.2697 77.7234 62.1976 77.8797 62.1074 77.9819C62.2246 78.0421 62.3419 78.1533 62.4561 78.1503C62.5674 78.1473 62.6726 78.024 62.9071 77.8677ZM62.4892 80.0081C62.3479 79.8368 62.2607 79.7346 62.1735 79.6293C62.0683 79.7466 61.93 79.8518 61.8729 79.9931C61.8549 80.0382 62.0383 80.2246 62.1465 80.2456C62.2307 80.2606 62.3449 80.1133 62.4892 80.0081ZM61.5182 81.4451C61.6234 81.2707 61.7437 81.1535 61.7196 81.0934C61.6745 80.9761 61.5483 80.8889 61.4551 80.7897C61.3859 80.8739 61.2506 80.9671 61.2657 81.0302C61.2927 81.1565 61.4009 81.2647 61.5182 81.4451ZM15.9953 30.484C15.836 30.6734 15.6767 30.7816 15.6767 30.8898C15.6767 30.986 15.845 31.1604 15.9472 31.1664C16.0404 31.1694 16.2028 31.0101 16.2238 30.8989C16.2448 30.8027 16.1066 30.6764 15.9953 30.484ZM110.685 63.7897C110.934 63.9099 111.057 64.0242 111.16 64.0061C111.277 63.9881 111.373 63.8558 111.481 63.7716C111.379 63.6845 111.283 63.5402 111.172 63.5281C111.06 63.5191 110.937 63.6454 110.685 63.7897ZM9.40574 36.4393C9.37568 36.3311 9.34562 36.2258 9.31556 36.1176C9.10813 36.1838 8.90371 36.2469 8.7053 36.3281C8.69628 36.3311 8.77444 36.5956 8.78647 36.5926C8.9939 36.5565 9.20132 36.4964 9.40574 36.4393Z" fill="#E45BE1"/>
<path fill-rule="evenodd" clip-rule="evenodd" d="M65.1436 37.9026C65.0804 37.5749 65.0113 37.2472 64.9602 36.9166C64.9331 36.7392 64.9993 36.4236 64.9241 36.3875C64.1154 36.0117 64.7588 35.7291 64.9692 35.4195L64.9421 35.3984C64.9421 35.5127 64.9001 35.66 64.9572 35.7351C65.4051 36.3514 65.8741 36.9526 66.337 37.5599C66.1777 37.6531 66.0184 37.7463 65.862 37.8395C66.0033 37.9267 66.1446 38.0108 66.2829 38.098C66.2889 37.9116 66.2979 37.7222 66.3039 37.5358C66.4152 37.4968 66.5234 37.4547 66.6497 37.4096C67.0405 37.5058 66.4693 38.3445 67.2719 38.2303C67.4734 38.2002 67.7439 38.6662 68.0295 38.9518C68.2099 38.8105 68.3812 38.6782 68.5676 38.5279C68.5977 38.5429 68.6668 38.561 68.7089 38.603C68.9223 38.8165 69.1598 39.0179 69.3222 39.2674C69.4635 39.4809 69.4845 39.8837 69.8422 39.6702C70.0076 39.568 70.0106 39.2043 70.1068 38.9067C70.4104 39.1051 70.7772 39.3456 71.186 39.6101C71.3664 39.4929 71.5798 39.3546 71.7933 39.2163L71.7602 39.1923C71.7602 39.4358 71.7602 39.6763 71.7602 39.9618C72.0548 39.9438 72.2713 39.9318 72.4847 39.9168L72.4787 39.9107C72.5659 40.034 72.65 40.1542 72.7943 40.3587C72.4997 40.4188 72.2592 40.5511 72.0789 40.4939C71.5257 40.3166 71.0147 40.1542 70.6058 40.7495C70.5788 40.7886 70.4315 40.7976 70.3834 40.7645C69.5056 40.1362 67.9994 40.7435 67.5846 39.2343C67.32 39.3005 67.1096 39.3516 66.827 39.4237C66.803 38.4557 65.7839 38.6091 65.3329 38.086C65.2698 38.0228 65.2067 37.9627 65.1436 37.9026ZM70.7772 40.1633C70.7381 40.028 70.696 39.8927 70.6539 39.7574C70.4645 39.8446 70.2691 39.9318 70.0827 40.028C70.0767 40.031 70.1308 40.2114 70.1519 40.2114C70.3623 40.2053 70.5697 40.1813 70.7772 40.1633Z" fill="#E45BE1"/>
<path fill-rule="evenodd" clip-rule="evenodd" d="M46.3157 34.381C47.0312 33.8429 47.7798 33.404 48.366 32.8027C48.9221 32.2345 49.3129 31.501 49.7428 30.8848C50.1486 32.3548 48.2878 34.3479 46.3157 34.381Z" fill="#E45BE1"/>
<path fill-rule="evenodd" clip-rule="evenodd" d="M39.633 33.0852C38.8874 33.5601 38.0697 33.5902 37.2551 33.4579C35.5024 33.1724 34.8952 31.6542 35.9534 30.2293C36.1698 29.9377 36.4704 29.7062 36.8282 29.5469C36.5997 29.8956 36.3382 30.2293 36.1398 30.596C35.4694 31.8196 35.8512 32.7334 37.225 33.0611C37.7781 33.1934 38.3734 33.1363 38.9506 33.1483C39.176 33.1543 39.4045 33.1092 39.633 33.0852Z" fill="#E45BE1"/>
<path fill-rule="evenodd" clip-rule="evenodd" d="M47.8309 32.1071C48.1585 31.2263 48.4081 30.5559 48.6546 29.8945C49.0845 30.598 48.9672 30.9798 47.8309 32.1071Z" fill="#E45BE1"/>
<path fill-rule="evenodd" clip-rule="evenodd" d="M39.4346 34.2441C39.5097 34.5177 39.5849 34.7883 39.6811 35.134C39.5398 35.0919 39.3925 35.0859 39.3744 35.0348C39.2903 34.8063 39.2452 34.5658 39.188 34.3283C39.2692 34.3013 39.3504 34.2712 39.4346 34.2441Z" fill="#E45BE1"/>
<path fill-rule="evenodd" clip-rule="evenodd" d="M42.0349 30.3398C42.0349 30.5984 42.0349 30.8599 42.0349 31.1184C42.0079 31.1184 41.9778 31.1184 41.9507 31.1184C41.9507 30.8599 41.9507 30.6014 41.9507 30.3428C41.9778 30.3398 42.0079 30.3398 42.0349 30.3398Z" fill="#E45BE1"/>
<path fill-rule="evenodd" clip-rule="evenodd" d="M84.6177 52.2031C84.5426 53.7964 83.5024 54.8606 81.7589 54.9929C83.1297 54.2503 84.1067 53.4417 84.6177 52.2031Z" fill="#E45BE1"/>
<path fill-rule="evenodd" clip-rule="evenodd" d="M76.0739 54.298C75.653 54.298 75.2291 54.301 74.8082 54.298C74.0988 54.2889 73.5336 54.0214 73.1669 53.3811C72.7851 52.7167 73.1639 52.1876 73.4765 51.6525C73.5697 51.4902 73.729 51.3699 73.9665 51.3008C73.8372 51.5293 73.699 51.7517 73.5847 51.9832C73.1067 52.9692 73.3743 53.6637 74.4204 53.9613C74.9315 54.1056 75.4876 54.0935 76.0228 54.1537C76.0408 54.2018 76.0558 54.2499 76.0739 54.298Z" fill="#E45BE1"/>
<path fill-rule="evenodd" clip-rule="evenodd" d="M82.6907 55.7943C83.2048 55.3795 83.7429 54.9917 84.2299 54.5437C84.6869 54.1229 85.0897 53.6449 85.4985 53.209C85.5857 54.3363 84.6327 55.2021 82.6907 55.7943Z" fill="#E45BE1"/>
<path fill-rule="evenodd" clip-rule="evenodd" d="M83.1868 52.9741C83.3882 52.415 83.5565 51.937 83.7579 51.3809C83.9594 52.2406 83.9564 52.2466 83.1868 52.9741Z" fill="#E45BE1"/>
<path fill-rule="evenodd" clip-rule="evenodd" d="M52.5085 3.57812C52.3822 5.15938 52.8181 5.5051 55.0517 5.67946C54.5437 5.67946 54.0266 5.73056 53.5246 5.67044C52.3792 5.53215 51.9703 4.66036 52.5085 3.57812Z" fill="#E45BE1"/>
<path fill-rule="evenodd" clip-rule="evenodd" d="M49.6556 12.0954C49.4933 11.8339 49.331 11.5693 49.0243 11.0703C49.5294 11.3198 49.8029 11.4551 50.2148 11.6565C49.9412 11.8459 49.7819 11.9571 49.6195 12.0684L49.6556 12.0954Z" fill="#E45BE1"/>
<path fill-rule="evenodd" clip-rule="evenodd" d="M61.7556 4.30705C61.9119 3.90422 62.0652 3.50139 62.2185 3.10156C62.2847 3.12261 62.3508 3.14365 62.4169 3.1677C62.2787 3.57354 62.1404 3.97937 61.9991 4.38822C61.9179 4.36116 61.8368 4.3311 61.7556 4.30705Z" fill="#E45BE1"/>
<path fill-rule="evenodd" clip-rule="evenodd" d="M25.1401 59.2305C24.9206 60.953 24.0068 61.9541 22.2421 62.2547C22.5548 62.0202 22.7412 61.8579 22.9456 61.7256C23.7182 61.2296 24.3585 60.6253 24.7343 59.7626C24.8184 59.5672 25.0259 59.4289 25.1732 59.2635L25.1401 59.2305Z" fill="#E45BE1"/>
<path fill-rule="evenodd" clip-rule="evenodd" d="M15.9562 61.5345C15.1416 61.5645 14.3629 61.4683 13.8549 60.6897C13.437 60.0614 13.7016 59.5233 14.2487 58.7988C14.0984 59.6045 13.6866 60.2899 14.2998 60.7438C14.7838 61.0986 15.3971 61.2759 15.9562 61.5345Z" fill="#E45BE1"/>
<path fill-rule="evenodd" clip-rule="evenodd" d="M24.1811 58.5137C24.3915 59.3975 24.0699 59.8454 23.4656 60.4226C23.7302 59.7162 23.9196 59.2171 24.1811 58.5137Z" fill="#E45BE1"/>
<path fill-rule="evenodd" clip-rule="evenodd" d="M11.1462 68.3511C10.9208 68.0505 10.6923 67.7529 10.4308 67.4072C10.9298 67.0825 11.1342 67.5966 11.5521 67.6807C11.3597 67.9603 11.2364 68.1377 11.1162 68.3241C11.1222 68.3301 11.1462 68.3511 11.1462 68.3511Z" fill="#E45BE1"/>
<path fill-rule="evenodd" clip-rule="evenodd" d="M16.7859 62.1523C16.8821 62.3868 16.9783 62.6213 17.0714 62.8558C17.0173 62.8768 16.9602 62.8979 16.9031 62.9189C16.8159 62.6844 16.7257 62.447 16.6385 62.2095C16.6866 62.1914 16.7378 62.1704 16.7859 62.1523Z" fill="#E45BE1"/>
<path fill-rule="evenodd" clip-rule="evenodd" d="M15.6375 23.3789C15.412 24.7467 14.5853 25.5945 13.458 25.6847C14.1464 24.9572 14.907 24.1515 15.6375 23.3789Z" fill="#E45BE1"/>
<path fill-rule="evenodd" clip-rule="evenodd" d="M15.89 25.5713C15.2317 25.935 14.5733 26.2988 13.9149 26.6625C13.8849 26.6264 13.8548 26.5874 13.8217 26.5513C14.6665 25.7907 15.5112 25.0302 16.4882 24.1523C16.2417 24.7205 16.0493 25.1624 15.8569 25.6073C15.8539 25.6073 15.89 25.5713 15.89 25.5713Z" fill="#E45BE1"/>
<path fill-rule="evenodd" clip-rule="evenodd" d="M5.59982 22.9531C5.32325 24.36 5.3443 24.3931 7.04881 25.1476C5.30822 25.0154 4.85429 24.348 5.59982 22.9531Z" fill="#E45BE1"/>
<path fill-rule="evenodd" clip-rule="evenodd" d="M2.96938 31.6153C2.73189 31.2756 2.49741 30.9329 2.26593 30.5932C2.29299 30.5511 2.32004 30.506 2.3501 30.4609C2.62367 30.5902 2.89723 30.7165 3.16178 30.8427C3.08362 31.1403 3.0265 31.3778 2.96637 31.6123L2.96938 31.6153Z" fill="#E45BE1"/>
<path fill-rule="evenodd" clip-rule="evenodd" d="M14.426 23.6179C14.5222 23.3323 14.6154 23.0407 14.7236 22.7611C14.7447 22.704 14.8318 22.6769 15.1024 22.4785C14.892 23.0407 14.7597 23.4014 14.6274 23.7562C14.5613 23.7111 14.4921 23.666 14.426 23.6179Z" fill="#E45BE1"/>
<path fill-rule="evenodd" clip-rule="evenodd" d="M77.3577 33.4581C77.5321 33.6445 77.7065 33.8339 77.9199 34.0684C77.6042 34.348 77.3487 34.5704 77.0301 34.856C77.1653 35.0063 77.3006 35.1566 77.4419 35.313C77.2405 36.302 76.6994 37.1918 76.1883 38.0726C75.6232 39.0466 74.559 39.4525 73.5579 39.9154C73.4527 39.7982 73.6361 39.2601 73.122 39.4645C72.8845 39.5547 72.6921 39.7591 72.4787 39.9124L72.4847 39.9184C72.6831 39.236 72.3103 39.1248 71.7602 39.194L71.7933 39.218C71.7301 39.0797 71.67 38.9444 71.5708 38.722C72.2051 38.7941 72.7552 38.8753 73.3084 38.9084C73.4978 38.9204 73.8254 38.8512 73.8705 38.74C73.9998 38.3853 73.7623 38.265 73.4256 38.265C73.2964 38.265 73.1671 38.1749 73.0438 37.9524C73.594 37.8953 74.1441 37.8382 74.7063 37.775C74.8415 37.1347 74.2583 37.3993 74.0329 37.2369C74.4447 36.8251 75.2293 37.2008 75.4759 36.5064C75.7043 36.5635 75.9298 36.6176 76.1553 36.6687C76.1222 36.5004 76.1462 36.2208 76.05 36.1757C75.7224 36.0104 75.551 36.2118 75.5029 36.5395C75.1752 36.3832 74.8446 36.2238 74.4658 36.0405C74.9919 35.8931 75.4969 35.7519 76.0019 35.6106C75.9899 35.5174 75.9779 35.4212 75.9629 35.325C75.3436 35.2739 74.7243 35.2198 74.102 35.1656C74.099 35.1266 74.099 35.0875 74.096 35.0484C74.595 34.9913 75.0911 34.9372 75.5901 34.8801C75.5961 34.7989 75.6051 34.7177 75.6141 34.6366C75.4849 34.5313 75.3556 34.4291 75.1692 34.2788C75.542 34.0744 75.8907 33.882 76.2394 33.6926C75.9598 32.9501 75.4608 33.6415 75.2143 33.4912C75.4037 33.1936 75.5871 32.896 75.7735 32.6014C76.1132 32.6795 76.4829 32.8058 76.6393 32.3428C76.6693 32.2556 76.501 31.9971 76.4318 32.0001C76.047 32.0152 75.7614 32.1775 75.8035 32.6374C75.5119 32.5923 75.2233 32.5503 74.9588 32.5082C75.7795 31.7777 76.6332 31.0141 77.6373 30.1152C77.466 30.7225 76.9158 31.3478 77.8538 31.5462C77.7125 32.1985 78.3708 33.0403 77.3938 33.4972C77.2225 33.5513 77.0481 33.6054 76.8767 33.6565C76.9128 33.5483 76.9759 33.4431 76.9759 33.3379C76.9759 33.1846 76.9309 33.0312 76.9038 32.8779C76.8046 32.905 76.6242 32.917 76.6152 32.9621C76.5881 33.1154 76.5942 33.2868 76.6423 33.4341C76.6723 33.5183 76.8076 33.5633 76.8948 33.6295C76.9579 33.8399 77.018 34.0473 77.0812 34.2578C77.1894 34.0624 77.3036 33.873 77.3998 33.6716C77.4239 33.6175 77.3728 33.5303 77.3577 33.4581ZM76.513 34.0022C76.1643 34.1736 75.9779 34.2638 75.7434 34.381C76.2875 34.6816 76.2875 34.6816 76.513 34.0022ZM77.2916 36.0855C77.024 36.0044 76.8797 35.9142 76.7475 35.9322C76.6543 35.9443 76.507 36.0946 76.507 36.1847C76.504 36.293 76.6332 36.4042 76.7054 36.5154C76.8076 36.4403 76.9128 36.3621 77.2916 36.0855ZM76.9429 31.2937C76.8377 31.5312 76.7204 31.6694 76.7475 31.7716C76.7745 31.8799 76.9369 31.955 77.0391 32.0452C77.1142 31.934 77.2465 31.8228 77.2465 31.7115C77.2435 31.6063 77.1022 31.5011 76.9429 31.2937Z" fill="#E45BE1"/>
<path fill-rule="evenodd" clip-rule="evenodd" d="M74.3215 30.6585C74.9137 30.0452 75.5751 29.3628 76.1493 28.7676C76.0621 29.8288 75.3917 30.5322 74.3215 30.6585Z" fill="#E45BE1"/>
<path fill-rule="evenodd" clip-rule="evenodd" d="M76.7685 29.7266C76.4559 30.5442 76.2755 30.7246 75.4338 31.0463C75.8306 30.6555 76.3807 30.1083 76.7685 29.7266Z" fill="#E45BE1"/>
<path fill-rule="evenodd" clip-rule="evenodd" d="M67.3561 28.399C67.311 28.7087 67.2659 29.0153 67.2208 29.322C67.1697 29.3159 67.1186 29.3099 67.0645 29.3009C67.1066 28.9913 67.1517 28.6846 67.1938 28.375C67.2479 28.381 67.302 28.39 67.3561 28.399Z" fill="#E45BE1"/>
<path fill-rule="evenodd" clip-rule="evenodd" d="M68.3722 30.0762C68.6608 30.0762 68.9554 30.0762 69.244 30.0762C69.244 30.1002 69.244 30.1273 69.244 30.1513C68.9404 30.1513 68.6338 30.1513 68.3301 30.1513C68.3422 30.1273 68.3572 30.1002 68.3722 30.0762Z" fill="#E45BE1"/>
<path fill-rule="evenodd" clip-rule="evenodd" d="M64.9692 35.4213C64.8039 35.2831 64.6385 35.1448 64.401 34.9434C65.1345 35.0937 65.1345 35.0937 65.1406 35.4244C65.1406 35.4334 65.0744 35.4574 65.0414 35.4544C65.0053 35.4484 64.9722 35.4183 64.9421 35.4003L64.9692 35.4213Z" fill="#E45BE1"/>
<path fill-rule="evenodd" clip-rule="evenodd" d="M62.3628 72.2227C62.1825 73.38 61.5151 74.0444 60.3727 74.2218C60.7605 73.9061 61.1784 73.6235 61.5301 73.2748C61.8458 72.9622 62.0893 72.5774 62.3628 72.2227Z" fill="#E45BE1"/>
<path fill-rule="evenodd" clip-rule="evenodd" d="M62.8288 74.1307C62.3177 74.3411 61.8097 74.5515 61.0551 74.8642C61.8488 74.1126 62.456 73.5354 63.1144 72.9102C62.9971 73.3731 62.8979 73.7669 62.7957 74.1667L62.8288 74.1307Z" fill="#E45BE1"/>
<path fill-rule="evenodd" clip-rule="evenodd" d="M63.5142 77.9041C63.5924 77.7387 63.6735 77.5764 63.7547 77.4141C63.8659 77.4471 63.9802 77.4802 64.0914 77.5163C63.9651 77.7447 63.9832 78.1897 63.5142 77.9041Z" fill="#E45BE1"/>
<path fill-rule="evenodd" clip-rule="evenodd" d="M61.4429 72.2769C61.5241 72.0394 61.6023 71.8049 61.6834 71.5675C61.7195 71.5675 61.7586 71.5645 61.7947 71.5645C61.8067 71.6997 61.8488 71.844 61.8157 71.9673C61.7796 72.1056 61.6744 72.2228 61.5993 72.3521C61.5481 72.328 61.497 72.304 61.4429 72.2769Z" fill="#E45BE1"/>
<path fill-rule="evenodd" clip-rule="evenodd" d="M110.579 57.0684C110.555 57.4231 110.528 57.7778 110.501 58.1326C110.405 58.1145 110.309 58.0935 110.21 58.0724C110.342 57.7448 110.474 57.4201 110.603 57.0954C110.603 57.0924 110.579 57.0684 110.579 57.0684Z" fill="#E45BE1"/>
<path fill-rule="evenodd" clip-rule="evenodd" d="M112.263 63.7478C112.344 63.5855 112.425 63.4232 112.509 63.2578C112.617 63.2939 112.732 63.327 112.84 63.363C112.717 63.5885 112.735 64.0364 112.263 63.7478Z" fill="#E45BE1"/>
</svg>
