<svg width="145" height="128" viewBox="0 0 145 128" fill="none" xmlns="http://www.w3.org/2000/svg">
<path d="M76.239 42.6068C73.9066 41.1583 71.5713 41.6379 69.0292 42.1219C66.1685 42.6675 63.6857 43.0847 61.2196 44.7278C60.9178 44.9276 61.184 45.3457 61.4808 45.3274C63.7948 45.156 66.0051 44.1219 68.3346 43.8206C69.7529 43.6343 71.1544 43.3098 72.5741 43.1163C73.8324 42.9457 74.8841 43.568 76.1466 43.2501C76.4039 43.1846 76.4682 42.7493 76.239 42.6068Z" fill="#E45BE1"/>
<path d="M77.9462 48.3145C75.9214 47.4635 73.0537 47.8206 70.9188 47.9474C67.7907 48.133 64.5101 49.0256 61.8592 50.7046C61.6666 50.8242 61.6754 51.1821 61.9514 51.1864C64.3772 51.2196 66.8343 50.0309 69.2151 49.5833C72.0784 49.0473 75.2564 49.936 77.9841 48.8686C78.2454 48.768 78.165 48.4055 77.9462 48.3145Z" fill="#E45BE1"/>
<path d="M79.716 55.3935C78.3241 53.4892 74.7954 54.2817 72.8336 54.4913C71.4255 54.6409 70.0117 54.8191 68.6155 55.0505C66.956 55.3252 65.552 56.3404 63.9997 56.9025C63.7742 56.9867 63.6522 57.3321 63.9167 57.4686C64.3281 57.6779 64.5637 57.7065 65.0388 57.5656C66.8637 57.0324 68.5372 56.3597 70.4602 56.13C72.0789 55.9409 73.6885 55.768 75.3197 55.6878C76.7664 55.6197 77.9907 55.8728 79.4115 56.0462C79.7779 56.0873 79.8963 55.6409 79.716 55.3935Z" fill="#E45BE1"/>
<path d="M61.0083 57.2862C60.5715 57.1075 60.1456 56.8818 59.7032 56.6944C59.4924 56.6081 59.2935 56.4915 59.0713 56.4253C59.0207 56.4116 58.7751 56.3958 58.6648 56.3846C58.4468 55.233 58.0354 54.123 57.7164 52.995C57.4532 52.0629 57.2535 51.0423 56.837 50.1512C56.9002 50.0867 56.912 49.9679 56.8626 49.8962C56.9941 49.7488 57.1199 49.5927 57.2442 49.4812C57.5415 49.2146 57.7874 48.8938 58.0711 48.6139C58.3394 48.3516 58.5363 48.0983 58.5986 47.7179C58.6624 47.3304 58.1853 47.1387 57.9111 47.3413C57.4998 47.6453 57.1219 48.049 56.8253 48.4684C56.6952 48.646 56.5007 48.7831 56.3848 48.9637C56.3412 49.0264 56.3127 49.17 56.2782 49.2914C56.2378 49.2784 56.1946 49.2798 56.1556 49.2971C55.4851 48.9465 54.5995 48.8439 53.9375 48.7629C52.9478 48.6474 51.9514 48.5066 50.978 48.3017C50.4909 48.1977 49.8905 47.9337 49.3617 47.9496C49.3289 46.8639 49.2123 44.3018 47.9791 44.6288C47.9135 44.6464 47.8392 44.7071 47.8258 44.782C47.7923 44.995 47.8249 45.0916 47.9037 45.2982C48.0838 45.77 48.2525 46.2244 48.3976 46.7158C48.5418 47.204 48.6679 47.6495 48.8641 48.1068C48.7995 48.1784 48.7614 48.2736 48.7758 48.365C47.8536 48.9519 47.0677 50.0973 46.3939 50.8352C45.5761 51.724 44.6665 52.5829 44.0006 53.6009C43.987 53.5875 43.9734 53.5742 43.9597 53.5608C43.943 53.5483 43.9239 53.5398 43.908 53.5305C43.928 53.4674 43.9519 53.4066 43.9582 53.3301C43.964 53.3014 43.9484 53.2682 43.9191 53.259C43.1336 53.0174 42.2209 52.9765 41.4015 52.8833C41.0178 52.84 40.003 52.806 40.2963 53.5126C40.5614 54.1519 41.7477 54.038 42.2923 54.1062C42.6493 54.1499 43.1101 54.1556 43.4616 54.0036C43.4664 54.0091 43.4729 54.021 43.4809 54.0257C43.455 54.0666 43.4532 54.135 43.4977 54.2387C43.5298 54.5462 43.793 54.9277 43.9275 55.2044C44.4379 56.2335 44.7323 57.47 45.1204 58.5557C45.2562 58.9373 45.3953 59.4439 45.6115 59.8754C45.6092 59.8795 45.6069 59.8835 45.6078 59.8866C45.5958 59.917 45.5847 59.9506 45.5727 59.981C45.5342 60.1001 45.5872 60.2728 45.7239 60.3076C45.7705 60.3189 45.8211 60.3325 45.8677 60.3438C45.54 60.622 45.2656 60.9742 44.9956 61.3049C44.606 61.79 44.0184 62.3995 43.9873 63.0468C43.9798 63.1814 44.0977 63.296 44.2316 63.2703C44.7257 63.1753 45.0826 62.7432 45.3823 62.3603C45.787 61.844 46.1369 61.2982 46.3612 60.6841C46.3802 60.6926 46.397 60.7051 46.42 60.7159C46.4865 60.7389 46.5917 60.6937 46.6202 60.6249C46.6267 60.5993 46.6254 60.5691 46.635 60.5427C47.6394 60.8004 48.6408 61.0725 49.6469 61.3366C50.5304 61.5689 51.5476 62.0374 52.4812 61.9436C52.5682 62.5185 52.8457 63.0287 53.109 63.5734C53.3527 64.0825 53.6071 64.6194 54.0707 64.9608C54.2039 65.0577 54.3851 64.9955 54.4466 64.8499C54.6401 64.3834 54.4684 64.0181 54.296 63.5748C54.0641 62.9844 53.7458 62.3219 53.4009 61.7481C54.0403 61.4442 54.5737 60.6827 54.988 60.2148C55.9259 59.1613 57.0698 58.226 57.941 57.0986C58.0265 57.2049 58.1509 57.2565 58.2768 57.2635C58.6186 57.5255 59.3087 57.8368 59.4684 57.9198C59.717 58.0469 59.9668 58.1533 60.2068 58.2861C60.4668 58.4306 60.7115 58.4806 60.9953 58.4012C61.5807 58.2341 61.5234 57.4949 61.0083 57.2862ZM56.6976 53.3462C56.9595 54.3365 57.2446 55.3376 57.6004 56.3027C56.8335 56.7937 56.0911 57.4006 55.3914 58.0673C55.7361 57.652 56.0463 57.2086 56.3458 56.7375C56.5118 56.4687 56.2142 56.1337 55.9445 56.3283C54.6545 57.2688 53.6724 58.5075 52.4676 59.5407C52.323 59.6644 52.3995 59.9498 52.5874 59.9879C53.363 60.1301 53.7506 59.6626 54.3255 59.1686C54.3418 59.1541 54.354 59.1372 54.3702 59.1227C53.8221 59.742 53.3209 60.3861 52.8874 61.0325C51.9022 60.7459 50.8975 60.512 49.9083 60.2605C49.6673 60.1993 47.7708 59.8271 46.6895 59.7327C46.5623 58.7199 45.8852 57.5316 45.6031 56.754C45.3125 55.9448 45.0159 54.8754 44.4604 54.1031C46.3925 52.8818 48.0464 50.6848 49.2257 48.7305C50.6727 49.5018 52.1463 49.7595 53.8139 49.9653C54.39 50.0387 55.2885 50.3894 56.0173 50.3946C56.1096 51.3896 56.4523 52.4058 56.6976 53.3462Z" fill="#E45BE1"/>
<path d="M52.176 50.3964C51.7715 50.3756 51.3673 50.3684 50.9643 50.303C50.7773 50.2681 50.2496 50.1002 50.0633 50.1807C50.0508 50.1841 50.036 50.1914 50.0212 50.1988C49.9035 50.2473 49.8439 50.4129 49.8739 50.5374C50.0727 51.3169 51.0954 51.3929 51.7437 51.4605C52.188 51.5046 52.6292 51.5122 53.0688 51.6017C53.4587 51.6808 53.7934 51.8664 54.1977 51.8363C54.3648 51.8221 54.4546 51.6315 54.432 51.4846C54.2888 50.4999 52.9369 50.4338 52.176 50.3964Z" fill="#E45BE1"/>
<path d="M47.5228 55.7737C47.4268 55.4153 47.3072 55.0565 47.183 54.7057C47.0953 54.5286 47.0108 54.3507 46.9285 54.1688C46.8431 53.9878 46.7929 53.9502 46.7653 53.9474C46.7707 53.9426 46.7761 53.9377 46.7798 53.9266C46.818 53.8687 46.7964 53.7759 46.7314 53.7458C46.6876 53.7201 46.6407 53.6953 46.597 53.6696C46.4754 53.6036 46.2892 53.6467 46.2322 53.7844C45.9661 54.4301 46.2855 55.1467 46.4298 55.798C46.6093 56.5929 46.7829 57.4913 47.3571 58.0954C47.4977 58.2447 47.7545 58.1521 47.7979 57.9637C47.9771 57.2189 47.7126 56.4944 47.5228 55.7737Z" fill="#E45BE1"/>
<path d="M80.827 60.2805C74.956 60.5382 68.7832 60.4077 63.3494 62.9106C63.0838 63.0327 63.225 63.4096 63.4934 63.3853C64.8722 63.2639 66.1506 62.8432 67.4906 62.5147C69.3296 62.0594 71.2069 62.0594 73.0797 61.8805C75.7506 61.6271 78.6488 62.3223 81.0536 60.8758C81.3511 60.6975 81.1224 60.2693 80.827 60.2805Z" fill="#E45BE1"/>
<path d="M82.7732 66.7178C79.4462 67.062 76.1375 67.0241 72.7955 66.9746C69.6557 66.9288 66.3935 67.4902 63.289 67.9142C60.0623 68.3573 56.9974 68.9916 53.8504 69.845C51.5103 70.4822 48.5908 70.996 46.7622 72.679C46.5901 72.8373 46.8429 73.0551 47.0164 72.9644C49.0649 71.8648 51.954 71.4748 54.2147 70.8793C57.6553 69.9709 61.034 69.3817 64.5556 68.9004C67.5504 68.4922 70.6477 68.1042 73.6807 68.1514C76.7302 68.1976 80.0514 68.545 82.9655 67.5228C83.4105 67.3696 83.2369 66.6717 82.7732 66.7178Z" fill="#E45BE1"/>
<path d="M85.4275 73.357C78.7875 72.8215 71.8092 73.138 65.2741 74.3078C58.985 75.4322 52.3472 76.344 46.5352 79.1488C46.2479 79.2903 46.4696 79.6796 46.7399 79.6377C50.4341 79.0626 53.8189 77.4452 57.478 76.8013C60.7421 76.2224 64.0164 75.6441 67.2857 75.0843C70.0167 74.6176 72.8853 74.4642 75.6592 74.3701C78.8879 74.2596 82.3994 75.0419 85.4817 73.8218C85.6938 73.7377 85.6708 73.3768 85.4275 73.357Z" fill="#E45BE1"/>
<path d="M86.5122 78.5919C84.1543 77.9864 81.4602 78.6913 79.0811 78.8325C75.3185 79.0522 71.5699 79.6997 67.8247 80.122C64.3626 80.5126 60.8368 80.9781 57.4267 81.6879C56.528 81.8743 47.5411 84.3401 47.9282 85.0216C47.7766 84.7563 47.4191 84.9608 47.4234 85.2146C47.4223 85.2353 47.4251 85.2583 47.4239 85.279C47.4291 85.4986 47.6036 85.6116 47.802 85.589C49.0671 85.4438 50.2047 84.8603 51.4066 84.4668C53.4121 83.8071 55.5513 83.3461 57.6064 82.8838C61.0176 82.1159 64.6088 81.7315 68.0768 81.3257C74.1621 80.6163 80.2961 79.6762 86.4187 79.3817C86.8585 79.359 86.9626 78.7091 86.5122 78.5919Z" fill="#E45BE1"/>
<path d="M86.8002 85.6109C83.4609 86.0468 80.1656 86.4845 76.795 86.6535C73.5438 86.8176 70.3247 86.6639 67.0725 86.9745C61.6469 87.4935 55.5562 88.2452 50.7667 91.0003C50.4706 91.1714 50.6393 91.6258 50.9723 91.5672C54.1724 91.0123 57.2499 89.6744 60.4598 89.0556C63.7777 88.4147 67.0674 88.1315 70.4313 87.8623C75.9057 87.4254 81.6613 88.3508 86.8849 86.2272C87.1749 86.1087 87.1757 85.5612 86.8002 85.6109Z" fill="#E45BE1"/>
<path d="M89.9593 90.871C86.9761 91.3848 84.1556 92.3309 81.1157 92.6832C77.0796 93.146 73.0798 93.1811 69.0237 93.2312C63.0428 93.3042 57.0861 94.5808 51.6858 97.2209C51.3129 97.4058 51.568 97.9322 51.9251 97.8638C51.9259 97.8669 51.9276 97.8733 51.9285 97.8764C55.1906 97.2777 58.4378 95.9725 61.7033 95.2233C65.4108 94.3726 69.0154 94.4265 72.8034 94.4516C78.6765 94.489 84.7329 93.8723 90.1009 91.4244C90.3813 91.2949 90.2828 90.8149 89.9593 90.871Z" fill="#E45BE1"/>
<path d="M90.807 96.4085C87.3815 96.6602 83.9662 97.1131 80.5341 97.3903C77.4733 97.6394 74.4451 97.2849 71.3944 97.6469C68.0017 98.0462 64.7235 98.7852 61.4893 99.8761C58.5923 100.849 56.0594 101.593 53.7082 103.552C53.4079 103.67 53.5694 104.197 53.9376 104.133C54.9449 103.951 55.6712 103.322 56.5858 102.869C58.1955 102.071 60.0725 101.67 61.7721 101.082C65.0183 99.9604 68.3063 99.3207 71.7 98.8499C78.0014 97.984 84.9246 99.6264 90.878 96.7736C91.0563 96.6884 91.0307 96.3928 90.807 96.4085Z" fill="#E45BE1"/>
<path d="M116.423 27.5463C110.625 28.3895 104.913 31.1197 99.5635 33.4097C94.1334 35.7383 88.3928 37.7965 83.1238 40.4387C82.8351 40.5875 83.0687 40.9837 83.3428 40.9307C88.7785 39.8991 94.0697 36.9144 99.0842 34.6734C104.835 32.1026 110.594 30.0632 116.511 27.9644C116.763 27.8767 116.697 27.5068 116.423 27.5463Z" fill="#E45BE1"/>
<path d="M118.724 32.7325C113.186 33.9072 107.856 36.372 102.68 38.6088C96.8569 41.1241 90.8708 43.4418 85.1696 46.2101C84.9563 46.3148 85.0782 46.6696 85.3105 46.6108C91.1068 45.1359 96.6236 42.2674 102.083 39.8733C107.618 37.4486 113.261 35.4776 118.905 33.3435C119.282 33.2016 119.118 32.6508 118.724 32.7325Z" fill="#E45BE1"/>
<path d="M122.09 39.0168C115.9 40.1485 109.907 43.1037 104.172 45.6059C98.1173 48.2445 91.6946 50.5093 85.8416 53.5493C85.5865 53.6856 85.7339 54.0982 86.018 54.0323C92.1016 52.6163 97.9695 49.3819 103.665 46.8668C109.758 44.1736 116.074 42.0869 122.185 39.4706C122.407 39.3737 122.361 38.9646 122.09 39.0168Z" fill="#E45BE1"/>
<path d="M121.188 46.4061C115.661 48.074 110.302 50.4819 104.916 52.5504C99.0196 54.8137 92.9301 56.6833 87.1107 59.1229C86.8488 59.2339 86.9951 59.6671 87.2698 59.6037C93.0662 58.2545 98.7023 55.7688 104.219 53.5768C109.929 51.3025 115.647 49.0497 121.418 46.9425C121.773 46.8136 121.535 46.3027 121.188 46.4061Z" fill="#E45BE1"/>
<path d="M123.734 50.9693C117.653 52.0551 111.679 54.9814 106.01 57.3601C100.14 59.8235 93.7376 62.1374 88.3695 65.5981C88.1118 65.7624 88.214 66.2686 88.5577 66.1629C94.6953 64.2601 100.55 60.8898 106.427 58.3021C112.159 55.7841 117.986 53.5258 123.803 51.2262C123.961 51.1636 123.903 50.9376 123.734 50.9693Z" fill="#E45BE1"/>
<path d="M126.677 56.3436C120.569 58.3439 114.585 60.7699 108.599 63.1147C102.693 65.4282 96.118 67.3768 90.6849 70.6952C90.4659 70.8287 90.538 71.2478 90.8297 71.173C97.0452 69.5484 103.079 66.4088 109.058 64.0522C114.971 61.7235 121.26 59.7732 126.868 56.7548C127.099 56.6315 126.917 56.2623 126.677 56.3436Z" fill="#E45BE1"/>
<path d="M129.165 75.8637C128.589 74.0772 126.557 73.1125 125.057 74.0717C124.567 74.193 124.122 74.5228 123.758 74.9535C122.995 74.4546 122.125 74.0486 121.311 73.6514C120.729 73.3689 120.143 73.084 119.564 72.7871C119.224 72.6166 118.863 72.5332 118.523 72.4168C119.32 70.3133 116.068 67.4189 114.33 69.6282C114.29 69.6796 114.285 69.7354 114.294 69.7838C113.878 70.2454 113.791 71.0439 113.858 71.7464C113.082 72.2399 111.913 72.4546 111.253 73.1343C111.143 72.909 111.01 72.6896 110.865 72.4839C109.554 70.6596 106.934 70.9131 105.435 72.2869C104.032 73.3427 104.014 75.5908 104.704 77.153C104.816 77.4085 104.956 77.6325 105.116 77.8277C104.553 78.1791 104.032 79.1243 103.748 79.5673C103.202 80.4174 102.316 81.416 102.115 82.4285C102.117 82.4349 102.114 82.4389 102.116 82.4452C101.264 82.1432 100.299 82.2319 99.5184 82.8217C97.8586 83.5078 97.4691 85.6448 98.232 87.1908C99.0507 88.8579 101.374 88.9697 102.742 88.0727C103.996 87.2473 104.499 85.2942 103.81 83.9389C103.62 83.5683 103.365 83.2526 103.065 82.9965C103.147 82.927 103.21 82.8251 103.242 82.6941C103.346 82.2686 103.735 81.8552 103.962 81.4916C104.227 81.0639 104.535 80.6619 104.785 80.2209C105.083 79.6925 105.748 79.1098 105.884 78.4682C106.975 79.0733 108.441 78.9524 109.606 78.4194C109.899 79.0782 110.425 79.8143 110.875 80.3668C111.332 80.9343 111.694 81.5954 112.13 82.1855C111.139 83.1681 111.073 85.0962 111.744 86.2894C112.609 87.8285 114.675 87.8936 116.039 87.1542C117.475 86.3717 117.92 84.5396 117.353 83.0871C118.472 82.8858 119.579 81.9605 120.551 81.3975C121.288 80.9722 122.915 80.2507 123.457 79.4326C124.228 80.4358 125.53 81.0015 126.833 80.6592C129.004 80.0943 129.824 77.9236 129.165 75.8637ZM102.568 87.3207C101.677 88.1508 100.244 88.093 99.2963 87.3849C98.0354 86.4447 98.4484 84.4205 99.4385 83.4244C99.4843 83.4325 99.5346 83.4326 99.5892 83.4112C100.736 82.9135 101.584 82.598 102.714 83.3896C104.059 84.3278 103.571 86.3857 102.568 87.3207ZM114.404 71.8313C114.308 71.1125 114.601 70.3916 115.028 69.7675C115.406 69.6152 115.775 69.4415 116.223 69.4641C116.785 69.4971 117.291 69.834 117.684 70.2249C118.548 71.071 118.124 72.2177 117.365 72.8869C116.594 73.5625 115.33 73.6361 114.726 72.707C114.618 72.5421 114.547 72.3776 114.492 72.212C114.531 72.0794 114.493 71.9399 114.404 71.8313ZM105.312 76.8471C104.466 75.4765 104.908 73.8488 105.718 72.6292C106.527 72.2355 107.046 71.8211 108.177 71.8376C109.034 71.8459 109.789 72.3234 110.356 72.9364C111.699 74.3982 111.204 76.6042 109.711 77.6501C108.292 78.6457 106.245 78.3511 105.312 76.8471ZM115.897 86.3628C114.79 87.3088 112.95 86.9995 112.21 85.7499C111.419 84.4223 112.045 83.0683 112.954 82.1075C112.967 82.1073 112.98 82.1175 112.992 82.1141C114.386 81.8494 115.636 81.6948 116.564 83.0333C117.319 84.126 116.811 85.581 115.897 86.3628ZM123.035 78.7094C121.979 79.1486 121.016 80.0051 120.009 80.5638C118.967 81.142 117.954 81.7295 117.004 82.4465C116.116 81.1616 114.429 80.8963 113.151 81.6194C113.009 81.6508 112.878 81.6995 112.749 81.7546C112.424 81.1177 112.076 80.4325 111.621 79.8848C111.135 79.2978 110.804 78.5265 110.158 78.1183C110.23 78.072 110.302 78.0288 110.37 77.9802C111.753 76.974 112.001 75.2384 111.497 73.7318C111.901 73.6507 112.322 73.3816 112.681 73.2447C113.155 73.0632 113.603 72.8717 114.031 72.6177C114.526 74.0759 116.116 74.2549 117.318 73.6474C117.719 73.4446 118.013 73.2027 118.226 72.9349C119.062 73.5537 119.942 74.0726 120.879 74.5524C121.624 74.9306 122.385 75.5322 123.192 75.8292C122.861 76.5196 122.698 77.2905 122.8 77.9193C122.843 78.1932 122.924 78.4571 123.035 78.7094ZM126.913 79.8083C126.053 80.1 125.174 79.8732 124.438 79.3906C123.389 78.703 123.424 77.3204 123.746 76.2586C123.779 76.1547 123.824 76.061 123.871 75.9633C124.078 75.908 124.186 75.6853 124.174 75.4642C124.331 75.2624 124.508 75.0722 124.685 74.8852C124.711 74.8817 124.739 74.8741 124.766 74.8602C125.722 74.4001 126.478 74.1297 127.446 74.703C128.063 75.0678 128.419 75.7203 128.624 76.3859C129.073 77.8359 128.308 79.3358 126.913 79.8083Z" fill="#E45BE1"/>
<path d="M52.419 31.3756C52.3694 31.2904 52.2802 31.2327 52.1659 31.2565C45.38 32.7417 38.6024 34.3572 31.8426 35.9645C28.3977 36.7822 24.9676 37.6673 21.568 38.6666C19.6072 39.243 17.096 39.6541 15.5636 41.0538C15.5235 41.0918 15.534 41.1808 15.6008 41.1799C18.4046 41.2477 21.4947 39.5564 24.1711 38.7985C27.3588 37.8967 30.5788 37.1155 33.7999 36.351C39.9236 34.8971 46.1481 33.6813 52.1681 31.8405C52.3318 32.5513 52.6151 33.2333 52.8444 33.9264C53.0519 34.5506 53.1601 35.2422 53.3656 35.884C53.6197 35.8193 53.8739 35.7546 54.129 35.693C54.0865 35.2591 53.9709 34.8278 53.8548 34.4069C53.5834 33.4191 53.2586 32.3947 52.7245 31.5147C52.6447 31.3797 52.5254 31.3471 52.419 31.3756Z" fill="#E45BE1"/>
<path d="M33.526 96.4056C31.0704 96.9242 28.6307 97.4148 26.2334 98.1761C25.6155 98.3723 24.6956 98.7173 23.7475 99.1821C20.5272 88.3525 17.7121 77.4211 14.835 66.496C13.3333 60.804 11.8137 55.1202 10.4286 49.4004C9.03385 43.6322 7.86015 37.6755 5.92517 32.0554C8.49857 31.4509 11.0315 30.6328 13.5372 29.8254C18.126 28.3478 22.7124 26.9489 27.3561 25.6638C36.8312 23.0434 46.3207 20.5891 55.9102 18.4206C55.9893 18.4028 56.0467 18.3671 56.1042 18.3313C57.0656 23.6956 58.6291 29.2555 60.5159 34.3582C60.765 34.3119 61.0132 34.2624 61.2614 34.2129C59.4198 28.7411 58.5914 22.8347 56.4381 17.5008C56.3967 17.3963 56.3055 17.3562 56.216 17.3598C56.1004 17.2412 55.941 17.1718 55.7266 17.2224C46.7454 19.3468 37.8193 21.6264 28.9463 24.167C21.1043 26.4145 13.4006 29.0905 5.51556 31.1523C5.37207 31.0921 5.18441 31.1424 5.09333 31.2654C3.86162 31.5852 2.6265 31.8924 1.38147 32.175C1.16624 32.2225 1.0876 32.4169 1.12155 32.5812C1.11128 32.6179 1.10414 32.6538 1.11121 32.6927C1.65496 37.4993 3.74812 42.3837 5.04814 47.0352C6.9748 53.9254 8.69902 60.8732 10.4943 67.7985C12.1729 74.2759 13.6966 80.7879 15.2837 87.2864C16.7014 93.1029 17.6992 99.6165 20.0841 105.215C20.6386 109.774 25.059 114.435 29.5266 110.954C29.6705 110.841 29.5571 110.555 29.3743 110.574C27.3175 110.792 25.3714 111.361 23.5344 110.034C22.5246 109.306 21.9514 108.28 21.5195 107.169C21.5935 107.094 21.6362 106.991 21.6022 106.864C21.3175 105.839 21.0485 104.81 20.77 103.783C22.0464 100.09 26.4135 99.2359 30.0033 98.359C33.5611 97.4873 37.8476 96.9709 41.1337 95.1353C41.0197 94.8225 40.9058 94.5098 40.7887 94.1979C38.3566 94.7544 35.9959 95.89 33.526 96.4056ZM13.7662 65.6846C16.7668 77.0082 19.5954 88.3778 22.9454 99.6044C21.8456 100.229 20.8102 101.006 20.2655 101.913C17.1024 90.1709 14.1113 78.3825 10.9528 66.6322C9.17482 60.0217 7.56203 53.3771 5.81618 46.7614C4.61158 42.2033 3.55839 37.1593 1.69695 32.8145C2.8742 32.6792 4.04128 32.4684 5.20044 32.2156C7.52006 43.4497 10.8293 54.5989 13.7662 65.6846Z" fill="#E45BE1"/>
<path d="M46.096 99.4803C44.9985 99.5126 43.9555 99.8363 42.8981 100.106C42.1895 100.289 41.4608 100.447 40.7477 100.638C38.4332 100.782 36.1514 101.424 33.9112 101.984C31.0201 102.704 28.0206 103.382 25.3033 104.613C25.1187 104.7 25.1622 105.025 25.3862 104.985C26.4274 104.805 27.4577 104.559 28.4853 104.291C28.2603 105.065 28.8271 106.592 28.9388 107.184C29.0129 107.586 29.0995 107.984 29.1861 108.382C27.1931 108.689 25.1526 109.093 23.8413 107.051C22.9747 105.706 23.3248 104.073 23.6005 102.575C26.8329 101.627 29.9543 100.478 33.2473 99.694C36.1093 99.0155 39.1401 98.4414 41.9231 97.4306C41.8361 97.1684 41.7561 96.9077 41.6651 96.6431C41.1287 96.7427 40.595 96.8653 40.059 96.9919C39.9764 96.9461 39.8769 96.9251 39.758 96.957C39.6517 96.9855 39.5806 97.0453 39.5293 97.1168C37.6639 97.5861 35.8117 98.1674 33.963 98.6117C30.5849 99.4285 26.7368 100.167 23.7043 101.986C23.7072 101.972 23.71 101.957 23.7129 101.943C23.7335 101.795 23.559 101.719 23.462 101.82C22.016 103.291 21.8076 106.267 23.1802 107.911C24.7066 109.742 27.2795 109.974 29.2981 108.913C29.6443 110.493 30.0288 112.065 30.2857 113.662C30.3368 113.978 30.776 113.966 30.8664 113.69C31.3188 112.338 31.8664 110.992 33.1491 110.237C34.7791 109.277 36.3756 110.994 37.5405 111.888C37.8941 112.157 38.3109 111.773 38.1766 111.385C37.9492 110.711 37.7489 110.014 37.5572 109.311C38.7079 109.264 39.8918 108.678 40.9686 108.356C42.1165 108.011 43.4334 107.821 44.5873 107.386C44.5179 107.102 44.4477 106.815 44.3783 106.531C43.36 106.671 42.3386 107.051 41.3829 107.337C40.1529 107.701 38.5099 107.974 37.4141 108.764C37.2388 108.097 37.0681 107.423 36.895 106.752C37.789 106.798 38.9387 106.272 39.6712 106.066C41.1034 105.668 42.5409 105.304 43.9825 104.941C43.9216 104.689 43.8584 104.441 43.7953 104.193C42.48 104.501 41.1738 104.868 39.8738 105.233C39.0467 105.462 37.58 105.63 36.7463 106.197C36.6104 105.689 36.465 105.185 36.308 104.686C38.8774 104.117 41.6112 103.71 44.048 102.721C44.1151 102.696 44.0777 102.594 44.0094 102.602C41.4118 102.941 38.7572 103.731 36.2695 104.567C36.1487 104.192 36.0288 103.819 35.8942 103.454C38.6831 103.054 41.4586 102.14 44.1559 101.36C44.2019 101.344 44.1832 101.274 44.1355 101.284C41.3595 101.783 38.5203 102.421 35.8428 103.325C35.7498 103.078 35.6546 102.835 35.5499 102.595C35.5244 102.537 35.4866 102.496 35.4474 102.463C36.9685 102.11 38.4934 101.745 39.9555 101.234C40.8277 101.137 41.6781 100.895 42.526 100.682C43.729 100.38 44.9785 100.164 46.1328 99.705C46.2513 99.6596 46.235 99.4736 46.096 99.4803ZM33.4945 109.074C31.9277 109.582 31.0937 110.798 30.6188 112.24C30.3317 110.669 30.1004 109.092 29.7946 107.526C29.6761 106.908 29.5482 104.842 28.9709 104.164C30.3775 103.784 31.7756 103.372 33.1802 103.009C33.7315 102.865 34.2862 102.733 34.8481 102.603C34.8264 102.66 34.8189 102.719 34.8314 102.791C35.3706 105.179 36.1705 107.588 36.8959 109.97C35.9126 109.19 34.6543 108.698 33.4945 109.074Z" fill="#E45BE1"/>
<path d="M30.7203 59.7212C29.3667 59.9989 28.0119 60.2973 26.6551 60.5759C24.8515 60.9504 22.7816 61.1447 21.1099 61.9869C20.218 58.5958 19.3051 55.2137 18.4883 51.8025C17.623 48.2104 16.9137 44.3999 15.4852 40.9826C15.3737 40.7167 14.9739 40.8511 15.018 41.1282C16.141 48.322 18.6007 55.4874 20.5244 62.5041C20.6298 62.8974 21.1719 62.8065 21.2092 62.4702C22.819 62.4229 24.4313 61.8719 25.9984 61.5404C27.6455 61.1943 29.3098 60.8877 30.9555 60.5113C30.8716 60.2482 30.7979 59.9859 30.7203 59.7212Z" fill="#E45BE1"/>
<path d="M29.6156 67.7238C27.1008 71.8748 24.3975 76.0355 22.2358 80.391C22.1874 80.4856 22.3158 80.5769 22.3776 80.4822C25.002 76.4276 27.8014 72.2377 29.7801 67.8123C29.8305 67.7002 29.6788 67.6219 29.6156 67.7238Z" fill="#E45BE1"/>
<path d="M32.9808 68.0092C29.419 74.3204 26.1043 80.8033 22.8772 87.3001C22.8274 87.4019 22.9975 87.499 23.0545 87.3988C26.6498 81.1126 29.9034 74.6019 33.1561 68.1254C33.2151 68.0076 33.0492 67.8889 32.9808 68.0092Z" fill="#E45BE1"/>
<path d="M34.6167 71.1619C32.7216 74.3855 30.8464 77.6208 28.9831 80.863C27.0478 84.2367 24.9059 87.7406 23.7264 91.4828C23.6902 91.5979 23.8601 91.6815 23.9185 91.5741C25.7284 88.2578 27.3326 84.8368 29.2005 81.5492C31.078 78.2351 33.0667 74.9729 34.7002 71.5237C34.671 71.4023 34.645 71.2801 34.6167 71.1619Z" fill="#E45BE1"/>
<path d="M33.9455 76.5503C31.122 81.576 27.7756 86.4767 25.6956 91.8878C25.6469 92.0062 25.8103 92.078 25.8686 91.9706C28.7283 86.942 31.5811 81.8507 34.1617 76.6692C34.2244 76.5402 34.013 76.4269 33.9455 76.5503Z" fill="#E45BE1"/>
<path d="M33.8322 82.1578C32.5236 84.3677 31.1912 86.5635 29.9661 88.8224C29.8676 89.0052 30.125 89.1401 30.2357 88.9779C31.6829 86.86 32.8986 84.6037 34.1174 82.3465C34.2236 82.1549 33.9446 81.9645 33.8322 82.1578Z" fill="#E45BE1"/>
<path d="M33.226 87.3875C32.8992 88.1447 32.4875 88.86 32.1528 89.6125C32.1018 89.7349 32.2751 89.8313 32.3638 89.7497C32.9579 89.1894 33.2674 88.3179 33.5843 87.5736C33.6879 87.3351 33.3288 87.1458 33.226 87.3875Z" fill="#E45BE1"/>
<path d="M47.2728 22.1729C45.8824 23.8269 44.3918 25.8578 43.7937 27.9793C43.7563 28.1151 43.9336 28.2137 44.0184 28.0924C44.6133 27.2226 45.0392 26.235 45.5649 25.3192C46.1488 24.2959 46.7916 23.3045 47.5023 22.3663C47.6065 22.2297 47.3818 22.0417 47.2728 22.1729Z" fill="#E45BE1"/>
<path d="M49.4796 21.6419C47.5611 24.678 45.7689 27.9352 44.4257 31.2794C44.3681 31.4274 44.5718 31.5122 44.647 31.3799C46.3868 28.2149 48.0639 24.9783 49.6853 21.7465C49.7556 21.6087 49.5573 21.5191 49.4796 21.6419Z" fill="#E45BE1"/>
<path d="M51.7667 21.809C50.1238 24.8732 48.3776 27.9141 46.9723 31.1017C46.8882 31.3009 47.1704 31.4157 47.2729 31.2352C48.9819 28.2179 50.5193 25.0731 51.9883 21.923C52.0478 21.7948 51.8333 21.6824 51.7667 21.809Z" fill="#E45BE1"/>
<path d="M53.1455 22.6515C52.1006 25.032 50.8722 27.4787 50.2487 30.0183C50.2139 30.1636 50.4219 30.1894 50.4834 30.0812C51.7486 27.8217 52.5467 25.2082 53.4072 22.7649C53.4682 22.5922 53.2176 22.4826 53.1455 22.6515Z" fill="#E45BE1"/>
<path d="M54.7624 24.7562C54.1605 26.1003 53.3073 27.3826 52.833 28.7775C52.8019 28.8742 52.9391 28.9734 53.0105 28.8897C53.9542 27.7701 54.4986 26.2238 55.0241 24.8696C55.0882 24.6961 54.8345 24.5873 54.7624 24.7562Z" fill="#E45BE1"/>
<path d="M55.602 26.625C55.3778 27.4023 55.0562 28.1411 54.8289 28.9192C54.7884 29.0558 54.9904 29.0968 55.0528 28.9917C55.4562 28.2956 55.7639 27.5673 55.985 26.7909C56.0608 26.5361 55.6801 26.3662 55.602 26.625Z" fill="#E45BE1"/>
<path d="M126.402 59.298C124.608 63.2833 122.869 67.3896 121.551 71.5666C121.515 71.6713 121.661 71.7139 121.706 71.6202C123.544 67.647 125.05 63.4707 126.596 59.3686C126.643 59.2438 126.453 59.1756 126.402 59.298Z" fill="#E45BE1"/>
<path d="M128.009 61.805C126.42 64.7221 124.991 68.0213 123.927 71.1819C123.893 71.2898 124.048 71.3808 124.111 71.2789C125.821 68.4413 127.163 65.0295 128.183 61.8671C128.214 61.76 128.058 61.7136 128.009 61.805Z" fill="#E45BE1"/>
<path d="M129.105 64.4299C127.872 66.2082 126.654 68.4209 126.238 70.5717C126.211 70.7185 126.404 70.7517 126.469 70.6426C126.956 69.7846 127.275 68.8119 127.659 67.9036C128.146 66.7567 128.703 65.6456 129.283 64.5452C129.352 64.4249 129.182 64.3174 129.105 64.4299Z" fill="#E45BE1"/>
<path d="M129.507 67.1035C129.268 67.6024 129.01 68.0897 128.752 68.577C128.505 69.0442 128.185 69.5411 128.095 70.0683C128.078 70.168 128.196 70.269 128.276 70.1796C128.632 69.7682 128.846 69.2179 129.088 68.7316C129.331 68.2381 129.574 67.7447 129.795 67.2436C129.881 67.0507 129.596 66.9129 129.507 67.1035Z" fill="#E45BE1"/>
<path d="M100.036 70.8694C98.7505 73.0018 97.5704 75.1909 96.4787 77.4344C95.4021 79.6467 94.2436 81.9286 93.519 84.2913C93.4917 84.3768 93.615 84.4491 93.6628 84.3649C94.7932 82.3659 95.6265 80.1712 96.6003 78.0884C97.7297 75.6852 98.9321 73.3169 100.243 71.0147C100.322 70.8743 100.122 70.7274 100.036 70.8694Z" fill="#E45BE1"/>
<path d="M101.396 72.5281C99.5549 75.8019 97.9841 79.3226 96.5374 82.7932C96.4901 82.9044 96.6418 82.9827 96.7019 82.8817C98.6251 79.6505 100.081 76.0653 101.607 72.6279C101.67 72.4854 101.468 72.3966 101.396 72.5281Z" fill="#E45BE1"/>
<path d="M102.1 75.6561C101.477 76.87 100.806 78.083 100.34 79.3704C100.3 79.4831 100.457 79.5701 100.52 79.4682C101.236 78.3111 101.769 77.0363 102.325 75.7931C102.392 75.6457 102.181 75.5054 102.1 75.6561Z" fill="#E45BE1"/>
<path d="M43.1338 42.4489C41.2503 44.5273 39.6616 47.1929 38.4579 49.7316C38.4074 49.8437 38.5828 49.9225 38.6477 49.8269C40.2412 47.4421 41.6794 44.9527 43.2641 42.5601C43.3168 42.4814 43.1984 42.3772 43.1338 42.4489Z" fill="#E45BE1"/>
<path d="M44.4454 43.024C42.6384 45.3878 40.9422 48.1027 39.9542 50.9336C39.9081 51.0616 40.1019 51.1218 40.1642 51.0167C41.677 48.4054 43.0326 45.7207 44.6153 43.1451C44.6853 43.0311 44.5282 42.9203 44.4454 43.024Z" fill="#E45BE1"/>
<path d="M44.8186 45.9455C43.6152 47.3216 42.5701 48.9884 41.8502 50.6803C41.7909 50.8219 41.9969 50.9027 42.078 50.7926C43.1534 49.3012 43.8731 47.5958 45.0407 46.1613C45.1674 46.0084 44.9515 45.7909 44.8186 45.9455Z" fill="#E45BE1"/>
<path d="M45.0951 48.4281C44.8446 48.7569 44.5879 49.0874 44.3542 49.4288C44.1097 49.7798 43.7571 50.1904 43.6919 50.6225C43.681 50.707 43.7844 50.7677 43.8501 50.7127C44.1457 50.4771 44.3237 50.0657 44.5344 49.751C44.7838 49.368 45.0411 48.9898 45.2993 48.6147C45.3955 48.4734 45.2046 48.2866 45.0951 48.4281Z" fill="#E45BE1"/>
<path d="M44.153 98.5191C41.6114 98.8296 39.0748 99.6589 36.5838 100.258C33.74 100.942 30.8661 101.576 28.1394 102.647C28.07 102.676 28.1108 102.79 28.1836 102.774C31.0339 102.102 33.8591 101.311 36.7131 100.628C39.183 100.038 41.8477 99.6364 44.1933 98.6443C44.2658 98.6146 44.2212 98.511 44.153 98.5191Z" fill="#E45BE1"/>
<path d="M141.095 83.0433C139.972 79.0274 139 74.8083 137.448 70.9312C135.555 62.2033 132.678 53.6304 130.426 44.9885C129.242 40.4555 128.214 35.8838 127.06 31.3393C126.158 27.7708 125.395 23.9236 124.026 20.4665C124.114 20.1542 123.873 19.8312 123.66 19.5755C123.638 19.5305 123.621 19.4774 123.598 19.4292C123.579 19.3864 123.542 19.383 123.51 19.4017C123.296 19.1563 123.088 19.0287 122.845 18.8967C122.189 18.4027 120.9 18.884 120.272 19.2291C120.003 18.4378 119.726 17.6554 119.435 16.8804C119.341 16.6302 119.071 16.6586 118.965 16.8263C118.958 16.8248 118.954 16.8225 118.946 16.821C115.283 16.5109 111.332 17.5765 107.799 18.4416C103.811 19.4218 99.9104 20.766 96.1266 22.3577C89.9901 24.9401 82.8435 28.5443 78.7858 34.1182C78.7974 33.9112 78.6995 33.6961 78.4398 33.6399C70.8505 31.989 62.5908 32.9275 55.0764 34.4209C51.2882 35.1709 47.5572 36.1842 43.8662 37.3091C41.9941 37.8788 40.1387 38.4983 38.2893 39.14C36.948 39.6013 35.04 39.912 34.0279 40.9888C33.991 40.8763 33.9573 40.763 33.9165 40.6482C33.8281 40.3931 33.4363 40.4573 33.4986 40.7397C33.629 41.3268 33.7689 41.9113 33.9056 42.4967C33.7578 42.5703 33.6436 42.7199 33.6635 42.7315C33.4305 42.6002 34.0152 42.3926 33.6822 42.4886C33.6072 42.5087 33.5384 42.5272 33.4673 42.5496C33.2992 42.598 33.1312 42.6464 32.9631 42.6949C32.602 42.7984 32.2489 42.9067 31.8937 43.0324C31.7363 42.9454 31.5062 43.0751 31.5705 43.3026C33.0316 48.3426 34.5286 53.3663 35.9934 58.3952C34.9299 58.517 33.8812 58.8694 32.8505 59.1388C31.6603 59.4509 30.5813 59.74 29.5022 60.3418C29.4121 60.3932 29.4401 60.5352 29.5455 60.541C30.6199 60.61 31.5024 60.4381 32.5456 60.2028C33.7585 59.9254 35.063 59.6642 36.2124 59.1625C38.5351 67.1803 40.7631 75.2202 42.6007 83.3918C43.3265 86.6133 44.0468 89.8397 44.7851 93.0578C44.7521 93.0599 44.7206 93.0547 44.6862 93.064C43.6231 93.325 42.5846 93.7154 41.5371 94.0471C40.2271 94.4627 38.7078 94.71 37.6688 95.6614C37.5669 95.7567 37.6435 95.8925 37.7595 95.9125C38.9719 96.1212 40.1919 95.6448 41.35 95.3005C42.5237 94.952 43.9629 94.7057 45.0065 94.0216C45.1432 94.607 45.2831 95.1915 45.4198 95.7769C44.5285 95.6656 43.418 96.1875 42.5897 96.3993C41.3862 96.7116 40.0928 96.9765 38.9618 97.4971C38.8449 97.5488 38.8607 97.7452 38.9999 97.752C40.3862 97.8089 41.8418 97.3611 43.1807 97.0159C43.9111 96.827 44.897 96.7532 45.5478 96.3171C46.0981 98.6712 46.6664 101.017 47.2605 103.36C46.4442 103.34 45.5723 103.69 44.7878 103.89C44.0699 104.075 43.2349 104.262 42.6486 104.738C42.5572 104.81 42.5468 104.997 42.6966 105.018C43.4805 105.141 44.2832 104.871 45.0421 104.688C45.8157 104.498 46.7078 104.375 47.4222 104.013C47.4273 104.032 47.4324 104.051 47.4375 104.07C47.5723 104.598 47.7236 105.125 47.8647 105.652C47.2085 105.467 46.237 105.945 45.6467 106.107C44.7898 106.336 43.4966 106.452 42.8955 107.174C42.8449 107.235 42.8689 107.337 42.9411 107.369C43.735 107.717 44.7912 107.267 45.5699 107.059C46.2392 106.879 47.4847 106.811 48.0355 106.289C49.181 110.489 50.4673 114.652 51.6097 118.853C51.742 119.334 52.4302 119.275 52.4684 118.867C55.9426 118.334 59.3622 117.16 62.7423 116.213C66.2436 115.231 69.7611 114.309 73.2547 113.298C80.095 111.315 86.9603 109.401 93.798 107.409C96.6707 108.947 100.544 107.678 102.541 105.308C109.207 103.827 115.847 102.211 122.505 100.686C129.583 99.0646 136.504 96.8599 143.557 95.1706C143.561 95.1968 143.567 95.219 143.57 95.2452C143.763 95.0135 143.93 94.7614 144.067 94.4969C144.031 94.4728 143.993 94.4454 143.944 94.4381C143.091 90.6152 142.153 86.8149 141.095 83.0433ZM82.9918 50.428C81.6596 45.2311 80.6158 39.8718 78.9623 34.7643C89.8016 24.1239 104.122 19.0802 118.968 17.5018C118.988 17.4999 119.002 17.4926 119.021 17.4875C120.156 23.1352 122.082 28.71 123.612 34.2584C125.345 40.5274 126.991 46.8198 128.815 53.0644C130.527 58.9382 132.34 64.7811 134.086 70.6457C135.855 76.5855 137.293 82.6277 139.117 88.5461C139.135 88.7384 139.163 88.9282 139.19 89.1045C139.208 89.222 139.222 89.3746 139.251 89.5198C131.558 89.9733 123.962 91.6858 116.597 93.9005C110.176 95.8351 102.947 98.2413 97.6833 102.605C96.163 96.7688 94.2059 91.0662 92.48 85.2881C90.7235 79.3959 89.0967 73.4621 87.4926 67.5256C85.9548 61.8365 84.4545 56.1373 82.9918 50.428ZM118.86 97.9407C115.751 98.6854 112.686 99.622 109.655 100.631C107.001 101.512 104.186 102.44 101.775 103.912C101.795 103.839 101.791 103.762 101.761 103.688C103.277 102.915 104.794 102.172 106.32 101.46C105.992 101.623 105.655 101.781 105.328 101.95C105.25 101.995 105.314 102.107 105.395 102.075C116.256 97.9178 127.558 93.4107 139.434 94.1308C139.431 94.3218 139.441 94.5094 139.477 94.6665C132.558 95.3307 125.619 96.3198 118.86 97.9407ZM138.15 95.4467C132.667 96.8005 127.152 97.9756 121.594 99.0741C118.172 99.753 114.761 100.497 111.359 101.273C110.098 101.56 108.806 101.844 107.526 102.171C111.548 100.668 115.593 99.3121 119.855 98.3537C125.866 97.0047 132.012 96.0821 138.15 95.4467ZM122.166 95.804C118.718 96.7379 115.168 97.7981 111.742 99.1001C114.49 97.9831 117.288 96.9785 120.173 96.1103C126.445 94.2223 132.86 93.5164 139.383 93.2299C139.436 93.226 139.476 93.2016 139.505 93.1702C139.485 93.3591 139.464 93.5686 139.447 93.7805C133.59 93.4023 127.807 94.2755 122.166 95.804ZM139.404 92.8708C132.772 93.1627 126.396 93.8514 120.01 95.729C113.596 97.6141 107.372 100.244 101.522 103.497C101.395 103.46 101.272 103.415 101.147 103.373C112.751 96.7972 126.041 91.8391 139.544 92.2045C139.546 92.3843 139.548 92.5569 139.545 92.7209C139.543 92.7758 139.535 92.8563 139.529 92.9224C139.503 92.8885 139.461 92.8692 139.404 92.8708ZM80.8879 106.718C76.6818 106.696 72.2366 108.397 68.2751 109.676C64.3534 110.941 59.8904 112.613 56.8744 115.569C56.7296 115.442 56.5717 115.327 56.3992 115.234C58.5417 113.685 60.6816 112.238 63.0497 111.042C66.0117 109.549 69.1109 108.705 72.2591 107.756C72.3521 107.727 72.3142 107.598 72.224 107.612C66.662 108.423 60.3749 111.293 56.2057 115.15C55.9304 115.023 55.6414 114.921 55.366 114.831C56.5892 114.204 57.696 113.181 58.8791 112.479C61.0154 111.207 63.3069 110.188 65.6015 109.244C69.9965 107.431 74.5124 106.282 79.1253 105.182C79.2535 105.147 79.2122 104.931 79.0798 104.949C74.1445 105.534 69.3591 107.204 64.785 109.099C62.6886 109.97 60.645 110.963 58.6748 112.092C57.4888 112.77 55.911 113.587 55.1083 114.758C55.0395 114.739 54.973 114.716 54.9011 114.698C54.9398 114.667 54.968 114.622 54.9757 114.576C55.0137 114.355 54.9826 114.176 54.9123 113.964C54.9021 113.926 54.8734 113.906 54.8447 113.887C66.912 105.602 82.0006 103.089 96.4786 103.526C96.2174 103.753 95.9756 104.001 95.783 104.158L95.2988 104.553C95.317 104.483 95.287 104.396 95.1978 104.376C91.3291 103.424 86.6296 103.538 82.7719 104.466C82.6803 104.487 82.7098 104.622 82.8002 104.622C87.003 104.556 90.9522 103.919 95.1708 104.638C95.1819 104.642 95.1896 104.633 95.1998 104.634C94.9298 104.852 94.6598 105.071 94.3899 105.289C94.1501 105.483 93.875 105.645 93.7284 105.898C93.6894 105.915 93.653 105.942 93.6246 105.974C93.6033 105.969 93.5811 105.961 93.5535 105.959C87.5369 105.936 81.7769 107.184 76.0103 108.807C69.6222 110.6 62.9505 112.561 57.2009 115.975C57.1365 115.859 57.0491 115.771 56.9607 115.679C60.3999 113.401 63.784 111.556 67.7098 110.219C71.9759 108.763 76.4647 107.75 80.8996 106.987C81.0477 106.964 81.042 106.718 80.8879 106.718ZM94.4046 105.945C94.581 105.802 94.7574 105.66 94.9337 105.517C94.9417 105.522 94.9411 105.532 94.9482 105.534C96.6522 106.576 98.7503 105.674 100.152 104.602C100.266 104.513 100.209 104.362 100.103 104.306C99.616 104.038 99.137 103.827 98.6073 103.677C98.5194 103.649 98.4849 103.771 98.5551 103.82C98.9178 104.073 99.3094 104.27 99.7003 104.478C98.9531 104.967 98.0315 105.269 97.1667 105.381C96.5936 105.457 96.0476 105.358 95.4882 105.297C95.5827 105.225 95.6675 105.141 95.7633 105.061C96.0177 104.846 96.2717 104.618 96.4619 104.34C96.465 104.339 96.461 104.337 96.4642 104.336C96.7873 104.103 97.127 103.832 97.3328 103.549C97.3839 103.552 97.4334 103.549 97.4845 103.553C97.7284 103.562 97.844 103.368 97.8402 103.179C97.9987 103.082 98.1659 102.993 98.3252 102.899C98.6166 103.161 99.2957 103.394 99.4861 103.478C100.083 103.743 100.718 104.059 101.368 104.16L101.366 104.164C101.303 104.205 101.286 104.264 101.287 104.318C99.1985 106.108 97.0141 106.789 94.3141 106.02C94.3443 105.995 94.3722 105.974 94.4046 105.945ZM98.9236 102.555C101.147 101.269 103.433 100.079 105.767 98.9813C103.626 100.112 101.566 101.382 99.6411 102.818C99.4359 102.741 99.233 102.659 99.0287 102.585C99.0136 102.579 98.9733 102.566 98.9236 102.555ZM119.931 94.6964C113.541 96.6839 106.128 99.0034 100.798 103.259C100.554 103.172 100.314 103.077 100.07 102.982C111.068 95.1578 125.9 91.163 139.29 91.5181C139.52 91.5245 139.539 91.1725 139.309 91.1629C134.452 90.9518 129.597 91.4607 124.834 92.4275C129.732 91.3157 134.711 90.6037 139.696 90.3317C139.562 90.8062 139.546 91.3475 139.547 91.8639C132.937 91.1267 126.191 92.7505 119.931 94.6964ZM44.0887 77.5105C42.461 71.2982 40.5487 65.1622 38.917 58.9476C37.3786 53.0683 36.0807 47.0736 34.1382 41.3127C35.2151 41.4287 36.2268 40.8381 37.2533 40.478C39.0768 39.8399 40.9038 39.2144 42.7432 38.6229C46.3667 37.4583 50.0414 36.4601 53.7549 35.6316C61.5574 33.8876 70.3523 32.8192 78.2684 34.539C78.2897 34.5435 78.3053 34.5393 78.3258 34.5406C79.2942 39.9812 80.8848 45.3673 82.2069 50.7267C83.6134 56.4136 85.1137 62.0754 86.639 67.7305C89.8098 79.5014 93.5654 91.0781 96.894 102.8C89.4275 102.408 81.7322 103.113 74.4551 104.717C66.8297 106.396 59.1835 109.237 53.158 114.373C53.0003 113.484 52.6277 112.543 52.4045 111.723C52.386 111.667 52.2702 111.222 52.1293 110.821C49.7889 99.6469 46.9862 88.549 44.0887 77.5105ZM48.0841 103.856C46.2498 97.0603 44.8754 90.1547 43.3697 83.2843C41.8745 76.4655 40.0853 69.7255 38.2287 62.9967C36.4398 56.5081 34.7221 49.8475 32.1865 43.5998C32.52 43.5308 32.8535 43.4618 33.1836 43.3802C33.4481 43.3161 33.7932 43.278 34.0579 43.1527C36.6876 54.4805 40.0471 65.6297 43.0811 76.8526C44.703 82.8557 46.1686 88.9007 47.6592 94.939C48.9342 100.11 50.0719 105.37 51.5787 110.493C51.5618 110.943 51.8363 111.654 51.8975 111.883C52.1425 112.809 52.2894 113.983 52.7007 114.893C52.6713 115.033 52.7292 115.174 52.8642 115.24C52.9312 115.327 53.0329 115.344 53.1216 115.3C53.8171 115.369 54.4644 115.42 55.1509 115.63C55.6556 115.787 56.127 116.045 56.6277 116.2C55.1184 116.635 53.6148 117.078 52.122 117.55C50.8305 112.967 49.3225 108.453 48.0841 103.856ZM73.0588 112.504C66.2059 114.527 59.1009 116.009 52.3637 118.389C52.3161 118.211 52.2631 118.039 52.2124 117.862C59.0952 116.313 65.8717 114.168 72.6829 112.339C74.891 111.748 77.1039 111.162 79.3137 110.576C77.2193 111.229 75.1336 111.89 73.0588 112.504ZM73.4106 111.703C68.7712 112.929 64.102 114.119 59.4645 115.402C64.3795 113.14 69.3841 111.425 74.6278 109.915C80.6773 108.172 86.7359 106.762 93.0444 106.598C86.4429 107.946 79.9229 109.985 73.4106 111.703ZM133.946 97.2566C130.393 98.2222 126.802 99.0315 123.218 99.8558C116.343 101.436 109.294 102.649 102.545 104.725C102.445 104.664 102.314 104.662 102.208 104.778C99.9154 107.282 97.2975 107.433 94.2808 106.984C94.2377 106.873 94.1329 106.782 93.9825 106.809C93.3141 106.917 92.6477 107.044 91.9821 107.175C92.5286 107.025 93.0759 106.879 93.6247 106.725C93.706 106.703 93.7112 106.61 93.6777 106.547C93.773 106.515 93.8401 106.453 93.8604 106.366C96.433 107.798 100.178 106.76 101.909 104.451C101.945 104.461 101.978 104.473 102.022 104.461C115.499 100.411 129.589 98.8521 142.926 94.3779C142.959 94.4642 142.989 94.5513 143.022 94.6376C139.967 95.3951 136.98 96.4333 133.946 97.2566ZM142.558 90.6391C140.654 84.9971 139.104 79.2158 137.477 73.5033C135.443 66.3631 133.486 59.1989 131.599 52.0193C130.049 46.1195 128.51 40.2164 126.972 34.3132C126.239 31.5016 125.496 28.6925 124.76 25.8817C124.2 23.7544 123.899 21.1565 122.72 19.2938C122.677 19.2204 122.577 19.2608 122.575 19.3396C122.492 21.1835 123.285 23.1533 123.738 24.9319C124.434 27.682 125.135 30.4344 125.845 33.1842C127.401 39.2153 128.978 45.2405 130.531 51.2723C132.384 58.4642 134.293 65.6379 136.315 72.7846C138.343 79.9534 140.278 87.2357 142.872 94.2259C142.07 94.4372 141.268 94.6454 140.464 94.8505C140.423 94.7086 140.304 94.5877 140.12 94.6029C140.1 94.6047 140.084 94.6058 140.065 94.6108C140.206 94.0495 140.085 93.222 140.099 92.7866C140.126 92.0216 140.275 91.04 140.061 90.2544C140.297 90.096 140.279 89.7032 140.039 89.5465C139.985 89.3093 139.902 89.0733 139.819 88.8373C139.843 88.7797 139.852 88.7128 139.837 88.6318C137.167 76.8152 133.254 65.274 129.845 53.6552C128.098 47.6991 126.528 41.689 124.872 35.7087C123.405 30.4085 122.156 24.9072 120.411 19.6577C120.921 19.5004 121.436 19.3693 121.967 19.312C122.277 19.2799 122.533 19.286 122.814 19.2209C122.925 19.3849 123.038 19.5553 123.162 19.7056C123.332 19.9149 123.45 20.2062 123.638 20.4041C124.4 24.401 125.801 28.3661 126.783 32.3042C127.92 36.8601 128.962 41.438 130.143 45.9822C131.248 50.2338 132.417 54.4582 133.65 58.6723C134.949 63.1202 135.877 67.698 137.347 72.0935C137.368 72.1592 137.416 72.1904 137.468 72.2072C138.262 75.8829 139.604 79.517 140.612 83.1151C141.314 85.6088 141.962 88.1169 142.558 90.6391Z" fill="#E45BE1"/>
<path d="M89.8091 105.226C87.2114 104.777 84.3845 105.048 81.7807 105.277C79.2256 105.499 76.5532 105.909 74.1977 106.952C74.1377 106.978 74.1692 107.058 74.2294 107.045C79.4206 105.851 84.4239 105.133 89.7788 105.438C89.8984 105.447 89.9322 105.248 89.8091 105.226Z" fill="#E45BE1"/>
<path d="M77.8845 108.047C72.5174 108.972 66.7333 110.818 61.8794 113.308C61.832 113.331 61.8688 113.406 61.918 113.389C64.5395 112.401 67.1335 111.373 69.8081 110.521C72.4889 109.666 75.2595 109.097 77.9228 108.19C78.0086 108.16 77.9778 108.032 77.8845 108.047Z" fill="#E45BE1"/>
<path d="M89.7514 105.647C87.1592 105.318 84.2497 105.782 81.6706 106.065C81.5757 106.073 81.5716 106.183 81.627 106.24L81.6201 106.252C81.6087 106.272 81.6445 106.293 81.6559 106.273C81.6582 106.269 81.6605 106.265 81.6628 106.261C81.6739 106.264 81.6787 106.27 81.6858 106.271C84.276 106.505 87.1863 106.195 89.7469 105.818C89.8371 105.804 89.8545 105.656 89.7514 105.647Z" fill="#E45BE1"/>
<path d="M94.0147 105.104C92.5902 104.591 90.6753 104.676 89.1795 104.723C89.1025 104.724 89.0899 104.839 89.1695 104.849C89.9679 104.913 90.7674 104.995 91.561 105.091C92.3577 105.187 93.1923 105.412 93.9926 105.334C94.1259 105.319 94.1374 105.149 94.0147 105.104Z" fill="#E45BE1"/>
<path d="M92.2694 105.859C91.8137 105.634 91.2807 105.634 90.7839 105.594C90.7736 105.593 90.7645 105.609 90.7756 105.613C91.257 105.783 91.7454 105.992 92.2599 105.973C92.3259 105.969 92.3194 105.883 92.2694 105.859Z" fill="#E45BE1"/>
</svg>
