<svg width="613" height="756" viewBox="0 0 613 756" fill="none" xmlns="http://www.w3.org/2000/svg">
<path fill-rule="evenodd" clip-rule="evenodd" d="M-110.431 423.992C-110.605 423.778 -110.556 423.726 -111.006 423.515C-111.651 423.233 -110.943 423.472 -111.574 423.55C-111.252 425.57 -110.652 424.143 -110.431 423.992ZM108.714 466.361C108.774 466.394 115.591 465.539 112.561 462.831C112.284 461.855 113.01 461.36 112.117 460.118C111.385 459.045 110.391 458.372 109.13 458.843C102.637 461.327 107.409 466.103 108.714 466.361ZM33.3213 463.996C31.486 462.62 28.7447 463.009 27.4535 464.833C26.0658 466.759 27.1003 468.589 28.5038 470.037C33.0159 474.824 37.5539 467.179 33.3213 463.996ZM-21.3894 429.077C-26.9252 426.968 -30.7963 432.891 -26.031 436.136C-20.4798 439.937 -16.066 431.146 -21.3894 429.077ZM50.835 474.312C51.2944 472.612 50.5091 470.686 49.1567 469.462C47.5157 468.019 45.0497 467.563 42.8698 469.752C40.5452 472.096 40.5859 473.566 42.6542 475.542C46.4809 479.242 47.5729 477.424 50.835 474.312ZM44.0133 525.067C44.4123 524.702 45.3274 524.43 45.8309 524.123C46.6096 520.096 43.626 516.534 39.1604 517.663C37.5196 518.079 35.5159 520.092 35.9579 521.826C36.5118 524.131 37.7593 522.596 38.4147 526.719C42.4298 528.958 43.0408 525.933 44.0133 525.067ZM60.7881 456.713C60.072 460.032 65.6283 464.736 68.0252 463.842C69.5035 463.297 71.1656 461.054 71.3879 459.181C71.8494 455.231 68.3815 451.379 64.1395 451.792C62.7339 452.593 61.1561 455.001 60.7881 456.713ZM132.752 433.683C139.631 441.805 145.014 441.696 153.554 446.244C172.456 456.317 138.531 480.722 168.587 484.374C181.629 478.674 180.012 478.907 193.684 482.815C196.72 483.686 221.194 487.944 223.465 486.96L223.572 482.91C229.763 481.353 225.978 486.033 233.111 479.209C237.083 475.456 238.968 475.235 243.877 473.942C252.132 471.737 255.48 467.42 263.599 473.984C264.808 476.869 266.148 482.255 264.291 484.741C261.778 488.056 262.741 484.503 264.198 490.873C264.701 493.13 265.477 495.246 266.372 497.291C263.411 497.968 260.549 499.17 255.621 500.707C250.499 502.312 249.671 502.183 245.014 505.691C240.925 508.812 242.086 513.256 240.89 517.364C237.359 529.308 245.512 531.742 243.841 540.634C242.776 546.262 247.449 546.795 251.165 550.589C255.758 555.265 256.025 554.787 262.046 555.641C268.827 556.605 267.132 559.573 274.167 557.274C279.2 555.62 278.824 553.766 284.346 551.797C285.9 551.255 293.998 547.964 294.677 547.168C296.297 545.176 296.668 543.739 297.127 541.372C297.726 538.263 299.382 538.873 300.617 536.939C302.185 534.409 302.753 531.986 302.716 529.597C305.081 529.567 307.026 529.379 308.476 529.445C308.956 532.374 310.885 535.23 314.692 537.177C318.34 539.056 319.918 536.648 321.768 536.349C327.287 535.436 329.328 531.917 329.077 528.156C331.365 526.791 333.953 524.888 337.128 522.353C337.906 521.73 338.674 520.985 339.446 520.163C342.035 520.081 344.66 519.725 345.694 518.012C347.838 514.589 349.044 514.322 348.914 509.221C349.2 508.989 349.47 508.787 349.769 508.602C354.824 505.433 358.058 506.16 360.64 507.425C368.852 511.437 365.828 505.211 364.913 504.465C364.331 503.965 364.189 503.729 365.075 495.123C365.982 496.373 366.973 497.474 368.208 497.575C370.479 497.785 371.282 495.924 369.639 492.835C368.393 490.438 366.456 490.121 364.729 489.568C364.133 487.69 363.05 486.264 361.821 484.326C360.933 481.639 360.54 478.974 361.729 477.895C363.716 476.088 365.754 473.976 369.093 474.586C373.328 475.344 374.544 475.2 375.535 471.036C375.572 470.9 375.609 470.764 375.667 470.66C376.987 471.24 377.522 470.912 376.336 469.389C377.635 467.903 379.713 468.318 379.676 464.383C379.595 456.53 385.501 456.537 390.273 454.717C397.545 451.924 394.442 445.418 392.406 435.456C390.286 425.292 398.015 418.312 398.635 409.342C398.762 407.711 398.456 404.82 397.474 402.863C397.032 401.971 394.131 397.418 393.581 397.071C392.138 396.149 391.702 397.843 389.277 394.964C386.757 391.974 387.593 392.088 384.41 390.919C383.048 390.414 374.98 386.423 373.954 385.596C372.154 384.122 371.184 381.37 370.946 379.691C370.702 377.813 372.259 377.057 373.271 376.506C378.692 373.523 369.641 357.613 364.47 371.304C362.299 373.302 358.194 373.224 355.269 367.17C353.939 364.432 353.257 362.428 351.645 359.493C350.357 357.171 350.898 358.235 349.435 356.578C348.367 355.336 345.447 353.414 344.241 351.646C340.326 347.368 345.862 345.583 341.32 340.604C340.093 339.645 340.223 340.676 339.156 339.572C338.358 338.756 338.252 337.894 337.304 336.857C335.81 336.239 334.11 337.11 332.591 338.22C344.723 324.048 369.879 313.891 363.135 306.685C355.926 306.207 346.545 313.342 340.433 316.371C333.751 319.65 323.815 329.079 321.078 330.057C314.15 332.514 304.305 325.183 302.919 318.617C302.884 318.539 302.867 307.552 302.854 307.505C303.581 304.447 306.297 299.719 307.764 296.878C311.24 290.226 304.991 285.781 306.618 274.654C307.794 266.582 305.881 254.713 295.68 254.267C282.613 253.731 283.609 262.505 289.549 270.593C294.176 276.892 302.757 284.594 303.801 291.282L299.335 297.675C292.152 300.029 288.738 298.712 281.808 296.471C266.75 291.575 264.21 297.673 245.095 293.841C231.31 291.084 238.396 294.625 229.883 285.924C232.937 278.273 237.735 274.687 233.451 266.544C229.287 268.116 225.56 272.377 223.442 276.245C219.849 282.793 217.622 281.942 212.105 285.519C204.956 290.161 196.915 297.946 188.595 295.987C175.878 292.964 178.942 284.594 164.922 297.029C159.507 302.071 151.188 299.584 142.667 300.897C133.875 302.275 128.335 304.489 141.295 306.199C151.555 307.557 164.285 304.697 165.168 318.692C165.527 324.118 163.272 330.511 161.072 335.86C157.435 344.731 156.697 344.3 149.526 350.456C141.701 357.188 133.936 370.723 131.009 380.637C129.403 386.042 129.597 395.974 127.994 399.444C124.754 406.482 117.76 411.759 116.796 414.294C116.846 414.38 131.344 431.997 132.752 433.683ZM142.855 264.878C143.613 266.396 146.989 269.923 148.441 270.792C148.808 268.942 145.529 262.26 142.855 264.878ZM60.3187 333.283C59.4645 336.779 62.2984 339.592 65.1266 340.837L67.8062 338.594C66.9099 336.587 62.532 333.911 60.3187 333.283ZM92.9743 283.787C91.9602 282.693 90.635 282.052 88.9149 283.206C87.0703 284.408 87.1997 286.457 88.088 288.303C91.5206 295.305 96.9278 288.067 92.9743 283.787ZM-52.8972 286.984C-56.164 285.965 -56.9899 286.463 -59.3923 288.665C-56.1415 294.275 -53.6663 294.187 -47.3708 292.689C-48.0015 288.698 -48.7711 288.288 -52.8972 286.984ZM330.006 215.038C339.571 214.17 336.454 207.128 330.282 209.282L328.434 210.208C324.853 212.418 312.817 215.333 314.029 220.667C319.076 222.425 319.319 216.025 330.006 215.038ZM209.586 513.739C211.932 514.304 215.132 512.566 216.247 510.918C217.733 508.675 216.684 504.802 215.755 502.327C213.108 501.32 210.775 500.449 207.497 501.204C206.858 502.491 200.871 511.54 209.586 513.739ZM240.379 146.868C242.255 142.592 241.084 138.552 236.492 134.504C224.391 142.412 234.885 159.42 240.379 146.868ZM-79.1883 240.794C-83.1726 239.061 -92.8664 238.723 -95.5611 242.993C-99.0363 248.452 -91.0244 248.928 -87.5813 248.755C-80.1124 248.38 -70.9939 244.347 -79.1883 240.794ZM397.756 208.405C394.57 210.678 392.616 217.69 395.901 220.853C412.282 236.604 419.819 192.707 397.756 208.405ZM45.3268 319.813C47.3212 320.378 46.648 320.883 48.9845 321.325C51.7797 317.542 49.922 316.662 47.3482 314.189C44.7296 311.692 34.6772 298.629 26.7896 303.192C21.6286 306.165 30.1388 314.414 33.0527 315.961C42.4282 320.975 42.0864 318.887 45.3268 319.813ZM47.4106 430.876C47.3245 430.75 40.3008 426.011 39.5246 425.578C36.0619 423.646 34.8672 422.315 31.4096 421.286C5.37111 413.378 11.9351 431.853 26.1281 435.738C32.0847 437.338 43.4957 434.211 47.4106 430.876ZM127.694 230.59C121.992 218.956 113.426 207.192 98.8432 207.375C87.1915 207.53 114.525 233.01 116.802 235.278C121.107 239.558 137.845 262.494 141.535 262.087C143.465 256.979 130.637 236.576 127.694 230.59ZM403.589 432.282C410.779 433.356 415.867 432.163 423.995 434.29C438.331 438.059 440.673 430.774 435.409 427.72C428.989 424.003 422.81 427.503 414.911 426.228C410.383 425.504 391.491 430.465 403.589 432.282ZM102.645 412.369C109.328 405.334 96.6623 406.254 90.4126 404.197C83.3948 401.867 41.1706 408.277 47.6478 418.171C52.2556 425.242 92.8366 422.691 102.645 412.369ZM145.314 573.29C140.528 583.204 144.71 598.022 157.048 598.915C162.342 591.81 157.276 587.771 153.509 583.087C150.683 579.592 158.716 575.365 145.314 573.29ZM129.375 497.278C133.017 499.309 135.662 502.076 133.995 495.941C133.303 493.324 134.997 489.866 132.085 488.594C130.554 487.936 129.026 487.905 127.672 489.596C125.449 492.388 127.089 495.377 129.375 497.278ZM142.577 552.586C144.792 555.7 146.865 558.931 149.617 561.366C153.194 564.496 151.541 562.478 154.584 562.845C155.68 562.986 153.993 565.098 155.621 566.319C157.514 567.767 158.978 565.844 160.876 566.863C162.816 567.945 162.634 569.605 165.772 569.241C168.402 568.947 168.211 568.097 171.424 568.441C175.58 568.919 173.872 567.419 175.524 566.422C176.207 566.04 180.645 571.627 183.97 565.243C185.409 562.523 187.952 558.736 190.538 557.047C192.525 555.729 197.514 549.803 197.866 547.417C197.967 546.534 195.764 539.747 196.019 536.132C196.459 529.45 195.195 531.015 191.557 526.168C188.974 522.731 188.12 520.122 184.29 517.516C178.884 513.875 177.683 516.238 171.639 513.532C167.439 511.659 164.109 513.559 160.398 515.442C150.596 520.386 155.275 515.716 146.703 524.066C145.054 525.69 144.782 527.652 143.447 529.412C141.574 531.929 139.046 538.425 140.037 541.561C141.698 546.793 138.854 547.261 142.577 552.586ZM255.003 624.999C259 633.06 261.972 628.573 261.119 623.087C260.406 618.541 251.258 617.47 255.003 624.999ZM401.443 645.309C401.979 650.031 408.728 643.404 403.369 642.978C400.746 642.768 401.184 643.247 401.443 645.309ZM210.077 654.813C209.378 654.032 208.107 653.715 205.73 654.502C201.737 655.837 203.608 660.657 203.771 662.47C206.841 661.247 214.362 659.552 210.077 654.813ZM366.455 539.278C369.893 531.92 371.482 531.808 365.192 528.77C354.907 527.632 348.679 529.677 357.526 540.129C362.153 545.587 364.127 544.222 366.455 539.278ZM280.195 694.001C293.553 680.297 263.451 671.042 270.502 689.416C271.461 691.908 271.513 694.129 272.255 697.361C276.639 696.166 278.655 695.569 280.195 694.001ZM380.104 736.967C378.594 736.516 379.623 736.425 378.33 735.586C377.08 736.494 376.589 736.533 376.493 738.319C378.074 739.553 379.288 738.43 380.104 736.967ZM370.51 691.225C371.125 690.824 371.411 690.24 371.332 689.609C370.993 685.937 366.505 687.739 366.882 690.571C368.135 691.623 369.174 692.006 370.51 691.225ZM228.115 627.947C229.164 625.715 230.122 623.156 230.656 620.304C231.081 617.997 231.348 615.484 231.379 612.762C231.436 610.485 231.997 605.866 228.523 606.199C227.079 606.332 225.911 607.794 225.615 609.939C224.829 615.488 226.615 625.584 221.628 627.93C217.136 632.509 214.175 639.643 222.776 641.799C226.236 635.666 223.79 637.315 228.115 627.947ZM204.405 595.76C204.22 598.827 206.679 599.612 209.328 599.563C209.909 599.574 210.054 596.719 211.022 595.615C212.179 594.382 214.134 594.807 214.102 594.163C213.713 588.545 204.637 591.976 204.405 595.76ZM405.325 542.074C396.929 544.005 398.346 557.183 404.564 558.596C408.184 559.403 413.99 556.712 416.242 552.253C418.486 547.81 413.69 544.9 410.743 540.36C408.08 542.397 409.267 541.181 405.325 542.074ZM390.476 690.933C388.585 696.219 396.569 696.289 397.007 693.049C397.299 690.981 397.294 688.885 394.849 688.147C392.607 687.464 391.053 689.337 390.476 690.933ZM355.297 602.017C355.161 605.698 357.828 608.986 361.572 609.783C363.36 610.154 370.295 608.738 369.344 605.39C365.926 593.836 355.656 593.724 355.297 602.017ZM223.321 564.511C211.228 568.861 220.351 588.431 232.625 580.952C242.593 574.869 235.626 560.063 223.321 564.511ZM221.123 534.42C222.19 535.524 224.815 536.362 226.529 537.709C228.448 537.566 231.789 536.769 232.386 535.418C234.249 531.096 233.957 534.847 234.655 532.262C235.594 528.754 233.602 532.535 236.096 528.486C235.122 527.356 234.455 528.902 234.872 525.768C235.007 524.474 234.698 522.853 233.939 521.686C232.355 519.335 227.675 519.797 226.661 520.21C221.608 522.323 223.162 520.098 220.31 524.299C219.734 525.192 219.163 526.987 219.213 527.249C219.691 531.234 218.843 527.982 220.709 529.688C220.525 530.721 218.312 531.6 221.123 534.42ZM365.066 565.274C358.639 570.202 355.864 572.02 358.748 579.969C364.038 594.485 373.284 585.415 379.134 589.383C381.124 590.727 384.661 593.366 385.923 595.244C388.205 598.591 394.11 593.548 395.21 596.627C397.593 603.162 410.1 606.42 412.863 596.415C414.79 589.31 407.205 579.893 397.025 576.603C392.877 575.268 391.086 576.304 387.268 576.131C382.984 575.953 384.182 571.279 381.514 569.047C376.912 565.228 370.589 561.056 365.066 565.274ZM95.9425 583.287C102.558 582.828 102.105 582.693 108.57 580.506C110.721 579.807 114.398 576.653 114.823 574.346C115.735 569.414 118.737 569.014 120.045 566.809C120.891 565.363 120.877 560.404 120.984 558.389C121.226 553.71 120.134 553.493 117.894 549.895C115.311 545.754 117.227 544.004 112.256 542.601C106.483 540.986 106.507 533.681 86.4378 540.647C79.2808 543.094 77.6857 549.953 76.4826 556.601C76.0318 559.129 77.7047 558.34 76.3211 559.838C74.5284 561.754 74.4662 561.269 75.3332 563.925C76.1901 566.634 77.0414 569.809 77.9913 572.491C79.2685 576.061 89.093 583.498 92.6323 582.38C93.9045 581.993 93.3941 583.47 95.9425 583.287Z" fill="#2828BD" fill-opacity="0.23"/>
</svg>
