<svg width="344" height="328" viewBox="0 0 344 328" fill="none" xmlns="http://www.w3.org/2000/svg">
<path d="M225.685 221.268C204.277 239.558 282.877 265.42 256.741 281.332C235.178 294.454 231.821 223.408 207.807 239.979C195.946 248.172 223.619 268.465 210.386 274.354C195.846 280.819 198.763 245.164 182.988 248.41C156.888 253.769 207.213 324.431 177.044 327.897C147.853 331.244 186.637 251.09 162.952 250.541C148.887 250.212 156.614 284.048 142.147 281.268C126.272 278.213 151.959 251.245 137.849 243.701C94.3834 220.436 105.714 317.079 76.5692 301.862C41.5444 283.581 131.758 257.656 114.383 223.5C102.55 200.235 90.4511 260.463 72.5912 240.674C57.7216 224.195 120.172 225.164 94.9869 201.451C84.4795 191.557 68.8144 226.206 63.8578 212.48C58.4167 197.418 94.2005 201.012 94.4291 184.853C94.9687 146.482 15.4998 200.043 13.6709 174.995C11.467 145 90.3688 186.957 94.5571 154.383C96.377 140.199 17.4934 147.734 21.5354 134.173C25.9798 119.285 89.3629 151.292 94.7309 136.322C99.6325 122.677 64.37 116.724 71.951 104.433C80.2729 90.9539 96.313 121.141 106.72 109.088C116.194 98.1052 86.4456 87.5795 97.7121 78.5078C110.085 68.5307 119.834 107.991 132.773 99.0746C160.071 80.2544 87.3601 32.3994 113.149 21.5719C141.607 9.61039 122.678 90.9448 156.971 85.3115C170.999 83.0162 148.347 52.7101 162.75 51.6127C178.553 50.4056 158.553 83.1899 174.666 84.772C189.334 86.2169 182.028 52.6918 195.891 56.24C211.127 60.1357 185.676 92.1153 200.381 96.9529C213.77 101.352 220.637 60.4101 233.513 67.4425C247.66 75.1699 212.16 101.15 224.46 111.21C235.662 120.364 261.515 56.9808 279.073 77.3921C297.299 98.5899 222.713 107.095 242.622 122.312C254.025 131.027 268.63 109.619 273.751 122.833C279.375 137.337 242.137 133.761 245.539 148.868C252.809 181.159 300.152 125.165 305.794 149.179C314.957 188.2 269.032 151.822 255.251 174.712C242.503 195.9 319.045 192.206 315.506 206.261C309.123 231.62 255.086 165.411 245.365 201.936C224.213 220.345 292.891 234.537 282.639 250.166C265.795 258.698 244.597 209.398 225.685 221.268Z" fill="#6FCF97"/>
<path d="M13.6262 130.396C13.6353 131.301 13.4616 132.179 13.1232 133.011C12.7757 133.853 12.2911 134.593 11.6509 135.243C11.0108 135.883 10.27 136.376 9.42871 136.733C8.59653 137.081 7.71862 137.254 6.81328 137.254C5.89879 137.254 5.03003 137.081 4.18871 136.733C3.34738 136.376 2.61579 135.883 1.97565 135.243C1.33551 134.593 0.841687 133.853 0.503328 133.011C0.155825 132.179 -0.00878567 131.301 0.000360944 130.396C-0.00878567 129.49 0.155825 128.613 0.503328 127.771C0.841687 126.939 1.33551 126.198 1.97565 125.549C2.61579 124.909 3.35652 124.415 4.18871 124.058C5.03003 123.711 5.89879 123.537 6.81328 123.537C7.71862 123.537 8.59653 123.711 9.42871 124.058C10.27 124.415 11.0108 124.909 11.6509 125.549C12.2911 126.198 12.7757 126.939 13.1232 127.771C13.4616 128.613 13.6353 129.49 13.6262 130.396Z" fill="#6FCF97"/>
<path d="M292.333 119.515C292.342 120.42 292.169 121.298 291.83 122.13C291.483 122.972 290.998 123.712 290.358 124.362C289.718 125.002 288.977 125.496 288.136 125.852C287.295 126.2 286.426 126.374 285.52 126.374C284.606 126.374 283.737 126.2 282.896 125.852C282.055 125.496 281.323 125.002 280.683 124.362C280.043 123.712 279.549 122.972 279.201 122.13C278.863 121.298 278.698 120.42 278.698 119.515C278.698 118.61 278.863 117.732 279.201 116.899C279.549 116.058 280.043 115.317 280.683 114.668C281.323 114.028 282.055 113.534 282.896 113.178C283.737 112.83 284.606 112.656 285.52 112.656C286.426 112.656 287.295 112.83 288.136 113.178C288.977 113.534 289.718 114.028 290.358 114.668C290.998 115.317 291.483 116.058 291.83 116.899C292.169 117.732 292.342 118.61 292.333 119.515Z" fill="#6FCF97"/>
<path d="M203.736 50.8538C203.736 50.8538 209.04 -5.89007 225.099 0.502186C240.773 6.74812 203.736 50.8538 203.736 50.8538Z" fill="#6FCF97"/>
<path d="M289.545 176.964C289.545 176.964 345.832 167.381 343.792 184.518C341.808 201.253 289.545 176.964 289.545 176.964Z" fill="#6FCF97"/>
<path d="M52.2351 225.934C52.2351 225.934 8.29401 262.312 1.47195 246.464C-5.19465 230.982 52.2351 225.934 52.2351 225.934Z" fill="#6FCF97"/>
</svg>
