<svg width="348" height="420" viewBox="0 0 348 420" fill="none" xmlns="http://www.w3.org/2000/svg">
<path fill-rule="evenodd" clip-rule="evenodd" d="M273.589 112.318C273.589 108.865 276.386 106.057 279.84 106.057C283.293 106.057 286.09 108.865 286.09 112.318C286.09 115.772 283.293 118.58 279.84 118.58C276.386 118.58 273.589 115.772 273.589 112.318Z" fill="#F8F8F8"/>
<path d="M273.586 112.319H275.313C275.313 111.063 275.815 109.948 276.635 109.117C277.466 108.298 278.58 107.795 279.837 107.784C281.094 107.795 282.219 108.298 283.039 109.117C283.858 109.948 284.361 111.063 284.361 112.319C284.361 113.576 283.858 114.702 283.039 115.521C282.219 116.352 281.094 116.854 279.837 116.854C278.58 116.854 277.466 116.352 276.635 115.521C275.815 114.702 275.313 113.576 275.313 112.319H271.859C271.87 116.734 275.433 120.308 279.837 120.308C284.241 120.308 287.803 116.734 287.803 112.319C287.803 107.904 284.241 104.342 279.837 104.342C275.433 104.342 271.859 107.904 271.859 112.319H273.586Z" fill="#2C292D"/>
<path fill-rule="evenodd" clip-rule="evenodd" d="M80.0636 112.318C80.0636 108.865 82.8502 106.057 86.3035 106.057C89.7568 106.057 92.5543 108.865 92.5543 112.318C92.5543 115.772 89.7568 118.58 86.3035 118.58C82.8502 118.58 80.0636 115.772 80.0636 112.318Z" fill="#F8F8F8"/>
<path d="M80.063 112.319H81.7787C81.7787 111.063 82.2814 109.948 83.101 109.117C83.9315 108.298 85.0461 107.795 86.3029 107.784C87.5596 107.795 88.6852 108.298 89.5048 109.117C90.3244 109.948 90.8271 111.063 90.838 112.319C90.8271 113.576 90.3244 114.702 89.5048 115.521C88.6852 116.352 87.5596 116.854 86.3029 116.854C85.0461 116.854 83.9315 116.352 83.101 115.521C82.2814 114.702 81.7787 113.576 81.7787 112.319H78.3363C78.3363 116.734 81.8989 120.308 86.3029 120.308C90.7069 120.308 94.2694 116.734 94.2803 112.319C94.2694 107.904 90.7069 104.342 86.3029 104.342C81.8989 104.342 78.3363 107.904 78.3363 112.319H80.063Z" fill="#2C292D"/>
<path fill-rule="evenodd" clip-rule="evenodd" d="M82.6303 111.925C82.6303 46.2256 123.523 1.72656 180.436 1.72656C234.574 1.72656 279.477 50.0723 283.237 112.417L275.849 113.007C272.177 52.1705 228.236 6.29449 175.541 10.5346C125.425 14.578 90.0505 53.9299 90.0505 111.925H82.6303Z" fill="#F8F8F8"/>
<path d="M82.63 111.925H84.3566C84.3566 79.436 94.4651 52.3235 111.48 33.3415C128.495 14.3704 152.427 3.45327 180.436 3.44234C206.991 3.44234 231.284 15.2884 249.469 34.8714C267.642 54.4326 279.663 81.7309 281.521 112.515L283.236 112.417L283.094 110.69L275.707 111.28L275.849 113.007L277.565 112.898C275.783 83.4248 264.669 57.3614 247.644 38.6416C230.618 19.9219 207.625 8.54575 182.283 8.54575C179.999 8.54575 177.715 8.63317 175.398 8.81895C149.925 10.8625 128.091 21.9326 112.693 39.8765C97.2845 57.8203 88.3235 82.5833 88.3235 111.925H90.0501V110.199H82.63V111.925H84.3566H82.63V113.652H90.0501C90.4982 113.652 90.9353 113.466 91.2631 113.149C91.591 112.821 91.7658 112.384 91.7658 111.925C91.7658 83.2827 100.497 59.3721 115.305 42.1277C130.123 24.8832 151.029 14.2502 175.682 12.2613C177.89 12.0755 180.097 11.999 182.283 11.999C206.587 11.999 228.629 22.8724 245.097 40.9693C261.555 59.0552 272.396 84.3755 274.133 113.105C274.155 113.575 274.374 114.001 274.712 114.307C275.062 114.613 275.521 114.766 275.991 114.723L283.378 114.133C284.307 114.056 285.018 113.247 284.952 112.308C283.05 80.7474 270.735 52.706 251.982 32.5219C233.251 12.3269 208.029 -0.0109195 180.436 7.88772e-06C151.531 -0.0109195 126.561 11.3324 108.912 31.0357C91.2522 50.728 80.9143 78.7257 80.9143 111.925C80.9143 112.384 81.1001 112.821 81.417 113.149C81.7339 113.466 82.1819 113.652 82.63 113.652V111.925Z" fill="#2C292D"/>
<path d="M309.957 394.786H3.90637L31.0735 116.973V99.7833L304.592 96.3301L309.957 394.786Z" fill="#F8F8F8"/>
<path d="M309.957 394.786V393.071H5.80721L32.7886 117.137L32.7995 116.973V101.488L302.897 98.0788L308.241 394.819L309.957 394.786V393.071V394.786L311.683 394.764L306.307 96.2975C306.296 95.3467 305.509 94.5927 304.569 94.6036L31.051 98.0678C30.1112 98.0678 29.3462 98.8437 29.3462 99.7835V116.886L2.19003 394.622C2.14631 395.114 2.2993 395.595 2.62715 395.945C2.95499 396.316 3.41397 396.513 3.90573 396.513H309.957C310.427 396.513 310.864 396.327 311.192 395.999C311.509 395.671 311.694 395.223 311.683 394.764L309.957 394.786Z" fill="#2C292D"/>
<path d="M313.049 417.822L346.095 392.917L309.497 368.854L313.049 417.822Z" fill="#F8F8F8"/>
<path d="M313.05 417.823L314.099 419.2L347.134 394.295C347.582 393.956 347.834 393.42 347.823 392.863C347.801 392.306 347.506 391.781 347.047 391.475L310.438 367.412C309.892 367.051 309.192 367.029 308.624 367.368C308.056 367.696 307.728 368.33 307.783 368.974L311.334 417.954C311.389 418.588 311.771 419.134 312.35 419.396C312.919 419.659 313.585 419.582 314.099 419.2L313.05 417.823L314.776 417.703L311.465 372.209L343.113 393.016L312.023 416.446L313.05 417.823L314.776 417.703L313.05 417.823Z" fill="#2C292D"/>
<path d="M309.597 368.713L262.683 107.095L304.68 94.5605L346.283 392.918L309.597 368.713Z" fill="#F8F8F8"/>
<path d="M309.595 368.711L311.289 368.405L264.648 108.307L303.246 96.7776L344.041 389.376L310.546 367.269L309.595 368.711L311.289 368.405L309.595 368.711L308.645 370.154L345.33 394.359C345.887 394.731 346.631 394.742 347.199 394.37C347.767 394.01 348.073 393.354 347.986 392.676L306.383 94.3188C306.306 93.8161 306.033 93.379 305.607 93.1058C305.18 92.8326 304.667 92.7561 304.186 92.8982L262.19 105.444C261.348 105.695 260.834 106.536 260.987 107.4L307.902 369.017C307.978 369.476 308.251 369.891 308.645 370.154L309.595 368.711Z" fill="#2C292D"/>
<path d="M313.401 417.823H1.72173L23.4467 119.367H289.588L313.401 417.823Z" fill="#F8F8F8"/>
<path d="M313.399 417.823V416.097H3.57759L25.0403 121.094H287.991L311.683 417.965L313.399 417.823V416.097V417.823L315.114 417.692L291.302 119.225C291.237 118.329 290.483 117.641 289.587 117.641H23.4448C22.5378 117.641 21.7947 118.34 21.7291 119.236L0.00411737 417.703C-0.0286675 418.184 0.135253 418.654 0.463095 419.003C0.790938 419.353 1.23899 419.55 1.71982 419.55H313.399C313.88 419.55 314.339 419.353 314.666 419.003C314.994 418.643 315.158 418.162 315.114 417.692L313.399 417.823Z" fill="#2C292D"/>
<path fill-rule="evenodd" clip-rule="evenodd" d="M250.038 144.119C250.038 140.655 252.836 137.857 256.278 137.857C259.731 137.857 262.529 140.655 262.529 144.119C262.529 147.572 259.731 150.37 256.278 150.37C252.836 150.37 250.038 147.572 250.038 144.119Z" fill="#F8F8F8"/>
<path d="M250.039 144.119H251.755C251.755 142.852 252.258 141.737 253.088 140.906C253.908 140.087 255.023 139.584 256.279 139.584C257.536 139.584 258.662 140.087 259.481 140.906C260.312 141.737 260.814 142.852 260.814 144.119C260.814 145.376 260.312 146.491 259.481 147.321C258.662 148.141 257.536 148.643 256.279 148.654C255.034 148.643 253.908 148.141 253.088 147.321C252.258 146.491 251.755 145.376 251.755 144.119H248.313C248.313 148.523 251.875 152.097 256.279 152.097C260.683 152.097 264.257 148.523 264.257 144.119C264.257 139.704 260.683 136.131 256.279 136.131C251.886 136.131 248.313 139.704 248.313 144.119H250.039Z" fill="#2C292D"/>
<path fill-rule="evenodd" clip-rule="evenodd" d="M56.5028 144.119C56.5028 140.655 59.3004 137.857 62.7537 137.857C66.196 137.857 69.0045 140.655 69.0045 144.119C69.0045 147.572 66.196 150.37 62.7537 150.37C59.3004 150.37 56.5028 147.572 56.5028 144.119Z" fill="#F8F8F8"/>
<path d="M56.5022 144.119H58.2288C58.2288 142.852 58.7315 141.737 59.5511 140.906C60.3707 140.087 61.4963 139.584 62.7531 139.584C63.9989 139.584 65.1244 140.087 65.955 140.906C66.7746 141.737 67.2773 142.852 67.2773 144.119C67.2773 145.376 66.7746 146.491 65.955 147.321C65.1244 148.141 63.9989 148.643 62.7531 148.654C61.4963 148.643 60.3707 148.141 59.5511 147.321C58.7315 146.491 58.2288 145.376 58.2288 144.119H54.7756C54.7756 148.523 58.3491 152.097 62.7531 152.097C67.1571 152.097 70.7196 148.523 70.7196 144.119C70.7196 139.704 67.1461 136.131 62.7531 136.131C58.3491 136.131 54.7756 139.704 54.7756 144.119H56.5022Z" fill="#2C292D"/>
<path fill-rule="evenodd" clip-rule="evenodd" d="M59.0796 143.715C59.0796 78.0267 99.9615 33.5059 156.886 33.5059C211.012 33.5059 255.916 81.8625 259.675 144.196L252.298 144.797C248.627 83.9716 204.674 38.0956 151.979 42.3357C101.863 46.3682 66.4888 85.7201 66.4888 143.715H59.0796Z" fill="#F8F8F8"/>
<path d="M59.083 143.714H60.7987C60.8097 111.225 70.9072 84.1126 87.9222 65.1306C104.948 46.1595 128.88 35.2423 156.889 35.2314C183.433 35.2423 207.726 47.0774 225.911 66.6496C244.084 86.2217 256.105 113.52 257.963 144.304L259.678 144.195L259.536 142.479L252.16 143.08L252.302 144.796L254.018 144.698C252.236 115.214 241.112 89.1614 224.086 70.4307C207.06 51.7109 184.067 40.3348 158.725 40.3348C156.452 40.3348 154.157 40.4222 151.851 40.6189C126.378 42.6625 104.544 53.7217 89.1352 71.6655C73.7266 89.5985 64.7656 114.372 64.7656 143.714H66.4922V141.998H59.083V143.714H60.7987H59.083V145.441H66.4922C66.9403 145.441 67.3883 145.255 67.7053 144.938C68.0331 144.621 68.208 144.173 68.208 143.714C68.2189 115.061 76.9395 91.1612 91.747 73.9167C106.565 56.6722 127.471 46.0393 152.124 44.0503C154.343 43.8755 156.539 43.7881 158.725 43.7881C183.029 43.7881 205.071 54.6615 221.539 72.7583C238.008 90.8552 248.849 116.165 250.575 144.905C250.608 145.364 250.827 145.801 251.165 146.097C251.515 146.402 251.974 146.555 252.433 146.512L259.82 145.922C260.749 145.845 261.46 145.026 261.405 144.097C259.493 112.536 247.188 84.4951 228.435 64.3C209.693 44.1159 184.471 31.7891 156.889 31.7891C127.984 31.7781 103.014 43.1215 85.365 62.8247C67.6943 82.528 57.3564 110.515 57.3564 143.714C57.3564 144.173 57.5422 144.621 57.8591 144.938C58.1869 145.255 58.6241 145.441 59.083 145.441V143.714Z" fill="#2C292D"/>
<path d="M262.683 108.799V119.366H289.588L262.683 108.799Z" fill="#F8F8F8"/>
<path d="M262.681 108.8H260.966V119.368C260.966 119.816 261.152 120.264 261.468 120.592C261.785 120.909 262.233 121.094 262.681 121.094H289.586C290.417 121.094 291.127 120.504 291.28 119.685C291.433 118.876 290.985 118.067 290.22 117.761L263.315 107.194C262.791 106.986 262.19 107.052 261.709 107.369C261.239 107.696 260.966 108.232 260.966 108.8H262.681L262.059 110.396L280.483 117.641H264.408V108.8H262.681L262.059 110.396L262.681 108.8Z" fill="#2C292D"/>
<path d="M58.1845 119.368V110.145L23.4443 119.368H58.1845Z" fill="#F8F8F8"/>
<path d="M58.1847 119.366H59.9004V110.143C59.9004 109.618 59.649 109.116 59.2338 108.788C58.8076 108.46 58.2612 108.351 57.7366 108.482L22.9963 117.694C22.1658 117.913 21.6194 118.732 21.7396 119.585C21.838 120.448 22.5811 121.093 23.4444 121.093H58.1847C58.6327 121.093 59.0808 120.907 59.3977 120.59C59.7255 120.262 59.9004 119.814 59.9004 119.366H58.1847V117.64H36.6673L56.458 112.394V119.366H58.1847V117.64V119.366Z" fill="#2C292D"/>
<path d="M31.0722 116.973V100.941L58.1847 110.143L31.0722 116.973Z" fill="#F8F8F8"/>
<path d="M31.0736 116.974H32.8003V103.336L52.0992 109.904L30.6474 115.302L31.0736 116.974H32.8003H31.0736L31.4889 118.646L58.6014 111.827C59.3445 111.63 59.88 110.986 59.9018 110.221C59.9346 109.456 59.4647 108.767 58.7325 108.516L31.62 99.3035C31.0955 99.1287 30.5163 99.2161 30.0683 99.533C29.6202 99.8609 29.347 100.385 29.347 100.943V116.974C29.347 117.499 29.5983 118.001 30.0136 118.329C30.4289 118.657 30.9753 118.766 31.4889 118.646L31.0736 116.974Z" fill="#2C292D"/>
</svg>
