<svg width="139" height="139" viewBox="0 0 139 139" fill="none" xmlns="http://www.w3.org/2000/svg">
<path d="M66.9686 4.45478L66.9709 4.45248C69.3851 2.00683 72.7333 0.499997 76.45 0.499997L125.1 0.499999C132.505 0.5 138.5 6.49495 138.5 13.9L138.5 62.55C138.5 66.2327 136.994 69.5832 134.58 72.0327C134.58 72.0331 134.579 72.0336 134.579 72.034L72.0676 134.545C69.6194 136.993 66.2699 138.5 62.55 138.5C58.8672 138.5 55.5166 136.994 53.0671 134.58C53.0667 134.58 53.0664 134.579 53.066 134.579L4.41858 85.9314C2.00776 83.5206 0.499996 80.1353 0.499997 76.45C0.499997 72.7661 2.00676 69.4166 4.41856 67.0048L66.9686 4.45478ZM114.675 13.4C108.633 13.4 103.75 18.2788 103.75 24.325C103.75 30.3712 108.633 35.25 114.675 35.25C120.721 35.25 125.6 30.3711 125.6 24.325C125.6 18.2789 120.721 13.4 114.675 13.4Z" fill="#56F598" stroke="#2C292D"/>
</svg>
