<svg width="164" height="158" viewBox="0 0 164 158" fill="none" xmlns="http://www.w3.org/2000/svg">
<path d="M143.538 127.04C143.393 126.66 143.38 126.275 143.495 125.886H143.205C151.389 113.399 155.383 98.2141 155.64 83.3798C155.969 64.3632 150.265 45.8299 138.184 31.0212C126.814 17.0933 110.773 6.80892 92.7617 4.37145C74.1429 1.85701 54.7115 7.4076 39.0689 17.5253C31.47 22.443 24.4099 28.5238 19.1715 35.9602C14.613 42.4473 11.4229 49.7427 8.75019 57.1748C8.73736 57.333 8.70743 57.487 8.65611 57.6366C6.23574 65.0602 4.22162 72.548 3.74696 80.3736C3.23808 88.3189 4.10189 96.1102 6.33837 103.748C8.83999 112.198 12.2097 120.391 17.3968 127.571C19.9668 131.167 22.9303 134.4 26.2829 137.282C29.6355 140.164 33.2831 142.606 37.2216 144.612C45.4448 148.794 54.3994 151.236 63.5121 152.489C72.5008 153.759 81.5194 154.092 90.5766 153.493C99.7791 152.843 108.99 150.979 117.393 147.417C117.41 147.207 117.461 147.006 117.556 146.818C117.65 146.63 117.778 146.463 117.936 146.326C118.094 146.185 118.27 146.083 118.471 146.014C118.672 145.946 118.877 145.916 119.086 145.929H119.595C125.035 145.912 130.461 146.194 135.871 146.78C140.408 147.284 144.885 148.311 149.354 149.162C152.146 149.692 154.947 150.231 157.752 150.782C152.334 143.299 146.553 135.837 143.538 127.04ZM96.8798 141.768C80.1211 145.723 61.793 145.309 45.7527 138.68C38.2265 135.572 30.8713 131.06 25.3079 125.056C22.6438 122.178 20.3303 119.044 18.3675 115.648C16.4047 112.253 14.8439 108.682 13.6807 104.941C11.3331 97.2776 10.3752 89.4435 10.8071 81.4426C10.9952 77.4058 11.4827 73.4032 12.2696 69.4391C12.988 65.9069 14.1297 62.5287 15.1261 59.0949C15.1047 58.7399 15.1774 58.4064 15.3442 58.0942L15.4939 57.8462C15.5708 57.5639 15.6478 57.2903 15.7248 57.0123C15.8402 56.5163 16.1139 56.1314 16.5415 55.8577C20.8563 47.9039 26.1546 40.4247 32.5049 33.9718C44.256 22.0538 59.3513 13.621 76.0886 11.453C84.577 10.3497 92.9841 10.7944 101.126 13.544C108.969 16.1782 116.17 20.5913 122.358 26.065C128.725 31.7353 134.126 38.2138 138.556 45.4963C142.969 52.7147 146.609 60.4419 148.358 68.7549C149.191 72.7575 149.606 76.8029 149.602 80.891C149.593 84.9791 149.17 89.0244 148.323 93.0228C147.477 97.0211 146.228 100.895 144.577 104.633C142.922 108.375 140.904 111.907 138.522 115.229C128.644 128.922 113.168 137.928 96.8798 141.768Z" fill="#EF4823"/>
<path d="M163.696 152.527C157.855 144.081 150.778 135.969 147.288 126.172C154.985 113.686 158.646 98.8642 159.185 84.2821C159.882 65.3981 154.378 46.6296 143.063 31.4659C132.497 17.3072 117.367 6.39843 100.125 2.11789C81.763 -2.43633 62.3658 1.36527 45.6499 9.67406C35.7375 14.6131 26.5007 21.3483 19.3337 29.8196C12.3891 38.0514 8.06148 48.045 4.58915 58.1284C4.51218 58.3551 4.47797 58.586 4.48225 58.8255C3.08391 63.0248 1.97208 67.2968 1.14248 71.6457C0.257295 76.7003 -0.11474 81.7976 0.0306523 86.9291C0.274399 96.6448 2.78457 106.215 6.47926 115.17C9.72923 123.196 14.3305 130.359 20.2873 136.654C26.4708 143.102 34.3434 147.759 42.6308 150.949C51.1663 154.238 60.2277 155.952 69.3147 156.748C78.2607 157.535 87.3093 157.616 96.2338 156.572C104.803 155.567 113.283 153.408 121.113 149.76C126.018 149.795 130.902 150.081 135.776 150.616C140.078 151.099 144.355 152.121 148.605 152.929C152.984 153.754 157.355 154.601 161.721 155.469C162.097 155.538 162.465 155.499 162.82 155.349C163.175 155.2 163.461 154.965 163.675 154.644C163.889 154.327 163.996 153.972 164 153.592C164.004 153.207 163.902 152.852 163.696 152.527ZM149.354 149.187C144.885 148.336 140.395 147.31 135.871 146.801C130.461 146.22 125.035 145.937 119.595 145.95H119.086C118.877 145.942 118.671 145.967 118.47 146.036C118.269 146.104 118.094 146.211 117.936 146.348C117.778 146.489 117.649 146.651 117.555 146.844C117.461 147.032 117.41 147.229 117.393 147.443C108.99 151.005 99.7789 152.869 90.5763 153.519C81.5192 154.118 72.5006 153.784 63.5118 152.514C54.3991 151.257 45.4446 148.807 37.2214 144.633C33.2786 142.628 29.631 140.181 26.2784 137.295C22.9258 134.413 19.9666 131.171 17.3966 127.571C12.2095 120.391 8.83976 112.198 6.32104 103.748C4.08455 96.1103 3.22075 88.3189 3.72962 80.3736C4.20429 72.548 6.21841 65.0603 8.63878 57.6367C8.69009 57.487 8.72003 57.3331 8.72858 57.1748C11.4055 49.7427 14.5956 42.4474 19.1541 35.9603C24.3925 28.5238 31.4569 22.443 39.0516 17.5253C54.6985 7.41619 74.1255 1.85704 92.7444 4.37148C110.756 6.81323 126.792 17.0934 138.167 31.0212C150.26 45.8299 155.969 64.3632 155.623 83.3798C155.366 98.2142 151.372 113.399 143.187 125.886H143.478C143.363 126.275 143.375 126.66 143.517 127.04C146.536 135.837 152.309 143.299 157.735 150.791C154.947 150.244 152.155 149.709 149.354 149.187Z" fill="black"/>
<path d="M148.35 68.7463C146.605 60.4332 142.961 52.7103 138.548 45.4876C134.118 38.2052 128.721 31.7266 122.35 26.0563C116.166 20.5869 108.965 16.1738 101.118 13.5354C92.9762 10.7943 84.569 10.3495 76.0849 11.4443C59.3433 13.6123 44.2524 22.0451 32.5012 33.9674C26.1466 40.4117 20.8483 47.9037 16.5421 55.8576C16.106 56.1313 15.8323 56.5161 15.7125 57.0165C15.6399 57.2944 15.5586 57.5681 15.4816 57.8503L15.3533 58.0941C15.1866 58.4062 15.1139 58.7398 15.1353 59.0947C14.1346 62.5286 12.9971 65.9068 12.2787 69.439C11.4919 73.4031 11.0044 77.4057 10.8162 81.4425C10.38 89.4434 11.3379 97.2775 13.6899 104.941C14.853 108.682 16.4139 112.253 18.3767 115.648C20.3395 119.044 22.6529 122.178 25.317 125.056C30.8762 131.06 38.2314 135.571 45.7619 138.68C61.8022 145.304 80.1345 145.723 96.8847 141.768C113.177 137.932 128.653 128.922 138.523 115.225C140.905 111.902 142.923 108.37 144.574 104.628C146.224 100.887 147.473 97.0167 148.32 93.0141C149.166 89.0158 149.59 84.9704 149.598 80.8823C149.602 76.7942 149.188 72.7488 148.35 68.7463ZM142.91 98.4962C131.437 132.129 91.163 145.561 58.6848 138.676C42.6872 135.272 27.5877 126.027 20.2283 111.039C13.1896 96.7002 13.2494 79.7021 17.3846 64.547C17.8592 62.8022 18.4665 61.1174 19.001 59.4026C26.6299 44.7265 37.7182 31.8036 52.1635 23.4948C66.5232 15.2245 84.9624 11.7864 100.827 17.461C116.692 23.1399 129.008 36.2894 137.167 50.6961C141.354 58.0983 144.398 66.0223 145.425 74.4936C145.908 78.5389 145.938 82.5843 145.514 86.6382C145.091 90.6878 144.223 94.6391 142.91 98.4962Z" fill="black"/>
</svg>
