<svg width="354" height="613" viewBox="0 0 354 613" fill="none" xmlns="http://www.w3.org/2000/svg">
<path d="M321.752 4.03711L32.2505 4.03711C15.5497 4.03711 2.00391 22.1773 2.00391 44.5821L2.00391 344.644C2.00391 352.186 2.00391 359.617 2.00391 367.494L2.00391 570.442C2.00391 592.846 15.5497 610.987 32.2505 610.987H321.752C338.453 610.987 351.999 592.846 351.999 570.442L351.999 44.5821C351.999 22.1773 338.453 4.03711 321.752 4.03711Z" fill="#949494" stroke="#2C292D" stroke-width="3" stroke-miterlimit="10"/>
<path d="M304.768 597H49.2438C32.5379 597 19 578.232 19 555.068L19 75.9324C19 52.7683 32.5379 34 49.2438 34L304.744 34C321.462 34 335 52.7683 335 75.9324L335 555.035C335.024 578.232 321.486 597 304.768 597Z" fill="#F8F8F8" stroke="#2C292D" stroke-width="3" stroke-miterlimit="10"/>
</svg>
