<svg width="101" height="73" viewBox="0 0 101 73" fill="none" xmlns="http://www.w3.org/2000/svg">
<path d="M45.1833 71.0396H55.3388V41.5588H99.2035V31.4295H55.3388V1.95135H45.1833V31.4295H1.32121V41.5588H45.1833V71.0396ZM56.66 72.3582H43.8726V42.8774H0V30.111H43.8647V0.640625H56.6521V30.111H100.522V42.8774H56.66V72.3582Z" fill="#C52BBB"/>
<path d="M35.3319 27.5305H38.6061L1.32121 2.47727V4.67929L35.3319 27.5305ZM42.9262 28.849H34.9308L34.7709 28.7416L0 5.38183V0L42.9262 28.849Z" fill="#C52BBB"/>
<path d="M61.916 27.5305H65.1928L99.2035 4.67929V2.47727L61.916 27.5305ZM65.6018 28.849H57.5985L100.522 0V5.38183L65.6018 28.849Z" fill="#C52BBB"/>
<path d="M1.32121 68.3162V70.5235L38.6061 45.4651H35.3319L1.32121 68.3162ZM0 73.0008V67.6216L34.9308 44.1465H42.9262L0 73.0008Z" fill="#C52BBB"/>
<path d="M1.32121 45.4651V63.5845L28.0416 45.4651H1.32121ZM0 66.0697V44.1465H32.3251L0 66.0697Z" fill="#C52BBB"/>
<path d="M14.6827 1.9533L41.2852 20.002V1.9533H14.6827ZM59.2395 1.9533V20.002L85.8524 1.9533H59.2395ZM42.6064 22.4871L10.3888 0.642578H90.1359L57.9183 22.4871V1.98738H42.6064V22.4871Z" fill="#C52BBB"/>
<path d="M59.2395 71.0423H85.8525L59.2395 53.0015V71.0423ZM90.1359 72.3609H57.9183V50.5059L90.1359 72.3609Z" fill="#C52BBB"/>
<path d="M1.32121 27.5291H28.0416L1.32121 9.41749V27.5291ZM32.3251 28.8477H0V6.92188L32.3251 28.8477Z" fill="#C52BBB"/>
<path d="M14.6827 71.0423H41.2852V53.0015L14.6827 71.0423ZM42.6064 72.3609H10.3888L42.6064 50.5059V72.3609Z" fill="#C52BBB"/>
<path d="M72.4832 45.4651L99.2036 63.5845V45.4651H72.4832ZM100.522 66.0697L68.1997 44.1465H100.522V66.0697Z" fill="#C52BBB"/>
<path d="M72.483 27.5291H99.2035V9.41749L72.483 27.5291ZM100.522 28.8477H68.1996L100.522 6.92188V28.8477Z" fill="#C52BBB"/>
<path d="M61.9159 45.4651L99.2034 70.5235V68.3241L65.1927 45.4651H61.9159ZM100.522 73.0008L57.5984 44.1465H65.6017L65.7642 44.2618L100.522 67.6216V73.0008Z" fill="#C52BBB"/>
</svg>
