<svg width="58" height="157" viewBox="0 0 58 157" fill="none" xmlns="http://www.w3.org/2000/svg">
<path fill-rule="evenodd" clip-rule="evenodd" d="M51.5729 86.1456V95.7455C51.8631 96.2524 52.1207 96.7799 52.3497 97.3195V86.26L51.5729 86.1456ZM49.7984 85.8798V93.2964C50.0315 93.554 50.2564 93.8198 50.469 94.0937C50.5058 94.1387 50.5385 94.1836 50.5712 94.2286V85.9984L49.7984 85.8798ZM48.024 85.6141V91.6774C48.2898 91.8736 48.5473 92.0862 48.7967 92.307V85.7326L48.024 85.6141ZM46.2496 85.3483V90.5816C46.5112 90.7084 46.7688 90.8515 47.0264 91.0028V85.4669L46.2496 85.3483ZM44.4752 85.0866L45.2479 85.2011V90.1483C44.9944 90.0542 44.7368 89.9684 44.4752 89.8948V85.0866ZM42.7007 84.8209L43.4735 84.9354V89.6658C43.3712 89.6495 43.269 89.6331 43.1668 89.6167C43.0115 89.5963 42.8561 89.5799 42.7007 89.5677V84.8209ZM40.9263 84.5551L41.699 84.6696V89.535C41.4374 89.5431 41.1798 89.5595 40.9263 89.5881V84.5551ZM39.1519 84.2894L39.9246 84.4039V89.7639C39.6629 89.8253 39.4054 89.8988 39.1519 89.9847V84.2894ZM37.3734 84.0236L38.1502 84.1381V90.3936C37.8885 90.5244 37.6268 90.6634 37.3734 90.8188V84.0236ZM35.5989 83.7579V92.2743C35.648 92.2211 35.6971 92.1721 35.7502 92.1189C35.9505 91.9186 36.1591 91.7264 36.3758 91.5424V83.8764L35.5989 83.7579ZM33.8286 83.4962V94.8951C34.0494 94.4208 34.307 93.9588 34.6013 93.5254V83.6107L33.8286 83.4962ZM32.8269 115.375L31.9438 115.276V83.2141L32.8269 83.3449V98.358C32.7492 98.9304 32.7124 99.5069 32.7124 100.087C32.7124 100.676 32.7492 101.265 32.8269 101.85V115.375ZM34.6013 115.575V107.144C34.311 106.637 34.0535 106.11 33.8286 105.57V115.489L34.6013 115.575ZM36.3758 115.775V109.593C36.1427 109.336 35.9178 109.07 35.7052 108.792C35.6684 108.751 35.6357 108.702 35.5989 108.661V115.685L36.3758 115.775ZM38.1502 115.971V111.212C37.8844 111.012 37.6268 110.799 37.3734 110.579V115.886L38.1502 115.971ZM39.9246 116.172V112.308C39.6629 112.173 39.4054 112.038 39.1519 111.883V116.086L39.9246 116.172ZM41.699 116.368L40.9263 116.282V112.737C41.1798 112.836 41.4374 112.921 41.699 112.995V116.368ZM43.4735 116.564L42.7007 116.478V113.216C42.8029 113.236 42.9052 113.253 43.0033 113.265C43.1627 113.289 43.3181 113.306 43.4735 113.318V116.564ZM45.2479 116.765L44.4752 116.679V113.351C44.7327 113.343 44.9944 113.326 45.2479 113.298V116.765ZM47.0264 116.961L46.2496 116.875V113.122C46.5112 113.06 46.7688 112.987 47.0264 112.901V116.961ZM48.7967 117.161V112.063C48.5473 112.222 48.2898 112.361 48.024 112.492V117.075L48.7967 117.161ZM50.5712 117.362V110.607C50.5221 110.66 50.473 110.714 50.424 110.763C50.2196 110.967 50.0151 111.159 49.7984 111.339V117.276L50.5712 117.362ZM52.3497 117.558V107.987C52.1248 108.461 51.8672 108.923 51.5729 109.356V117.472L52.3497 117.558ZM54.2263 117.766L53.3473 117.668V104.507C53.4209 103.943 53.4577 103.371 53.4577 102.802C53.4577 102.218 53.4209 101.637 53.3473 101.056V86.4113L54.2263 86.5422V117.766ZM5.84661 86.1456V95.7455C5.55633 96.2524 5.29875 96.7799 5.06979 97.3195V86.26L5.84661 86.1456ZM7.61695 85.8798V93.2964C7.38391 93.554 7.16312 93.8198 6.95052 94.0937C6.91372 94.1387 6.88102 94.1836 6.84422 94.2286V85.9984L7.61695 85.8798ZM9.39547 85.6141V91.6774C9.12562 91.8736 8.86805 92.0862 8.61865 92.307V85.7326L9.39547 85.6141ZM11.1699 85.3483V90.5816C10.9041 90.7084 10.6466 90.8515 10.3931 91.0028V85.4669L11.1699 85.3483ZM12.9443 85.0866V89.8948C12.6827 89.9684 12.4251 90.0542 12.1675 90.1483V85.2011L12.9443 85.0866ZM14.7187 84.8209V89.5677C14.5634 89.5799 14.408 89.5963 14.2527 89.6167C14.1504 89.6331 14.0441 89.6495 13.946 89.6658V84.9354L14.7187 84.8209ZM16.4932 84.5551V89.5881C16.2397 89.5595 15.978 89.5431 15.7164 89.535V84.6696L16.4932 84.5551ZM18.2676 84.2894V89.9847C18.0141 89.8988 17.7565 89.8253 17.4908 89.7639V84.4039L18.2676 84.2894ZM20.042 84.0236V90.8188C19.7926 90.6634 19.531 90.5244 19.2693 90.3936V84.1381L20.042 84.0236ZM21.8165 83.7579V92.2743C21.7674 92.2211 21.7183 92.1721 21.6693 92.1189C21.4648 91.9186 21.2563 91.7264 21.0437 91.5424V83.8764L21.8165 83.7579ZM23.5909 83.4962V94.8951C23.366 94.4208 23.1084 93.9588 22.8181 93.5254V83.6107L23.5909 83.4962ZM24.5926 115.375V101.85C24.6662 101.265 24.703 100.676 24.703 100.087C24.703 99.5069 24.6662 98.9304 24.5926 98.358V83.3449L25.4757 83.2141V115.276L24.5926 115.375ZM22.8181 115.575V107.144C23.1084 106.637 23.366 106.11 23.5909 105.57V115.489L22.8181 115.575ZM21.0437 115.775V109.593C21.2768 109.336 21.5016 109.07 21.7142 108.792C21.747 108.751 21.7837 108.702 21.8165 108.661V115.685L21.0437 115.775ZM19.2693 115.971V111.212C19.5351 111.012 19.7926 110.799 20.042 110.579V115.886L19.2693 115.971ZM17.4908 116.172V112.308C17.7565 112.173 18.0182 112.038 18.2676 111.883V116.086L17.4908 116.172ZM15.7164 116.368V112.995C15.9821 112.921 16.2397 112.836 16.4932 112.737V116.282L15.7164 116.368ZM13.946 116.564V113.318C14.1014 113.306 14.2567 113.289 14.4121 113.265C14.5143 113.253 14.6165 113.236 14.7187 113.216V116.478L13.946 116.564ZM12.1675 116.765V113.298C12.4251 113.326 12.6827 113.343 12.9443 113.351V116.679L12.1675 116.765ZM10.3931 116.961V112.901C10.6466 112.987 10.9082 113.06 11.1699 113.122V116.875L10.3931 116.961ZM8.61865 117.161V112.063C8.86805 112.222 9.12971 112.361 9.39547 112.492V117.075L8.61865 117.161ZM6.84422 117.362V110.607C6.89328 110.66 6.94234 110.714 6.99549 110.763C7.19583 110.967 7.40435 111.159 7.61695 111.339V117.276L6.84422 117.362ZM5.06979 117.558V107.987C5.29466 108.461 5.55224 108.923 5.84661 109.356V117.472L5.06979 117.558ZM3.18906 117.766V86.5422L4.07219 86.4113V101.056C3.99859 101.637 3.9618 102.218 3.9618 102.802C3.9618 103.371 3.99859 103.943 4.07219 104.507V117.668L3.18906 117.766ZM27.1152 154.964V131.03L26.5265 131.075V154.997L27.1152 154.964ZM4.37883 155.679L3.79008 155.716V133.385L4.37883 133.344V155.679ZM25.3653 155.017C25.1691 155.029 24.9728 155.042 24.7766 155.054C24.7766 147.118 24.7766 139.186 24.7766 131.254C24.9728 131.238 25.1691 131.222 25.3653 131.209C25.3653 139.145 25.3653 147.081 25.3653 155.017ZM23.6195 155.074C23.4233 155.087 23.227 155.099 23.0308 155.111C23.0308 147.216 23.0308 139.325 23.0308 131.43C23.227 131.418 23.4233 131.402 23.6195 131.385C23.6195 139.28 23.6195 147.179 23.6195 155.074ZM21.8696 155.127C21.6734 155.14 21.4771 155.152 21.2809 155.164C21.2809 147.314 21.2809 139.46 21.2809 131.61C21.4771 131.594 21.6734 131.577 21.8696 131.565C21.8696 139.419 21.8696 147.273 21.8696 155.127ZM20.1197 155.185C19.9235 155.197 19.7272 155.209 19.531 155.217C19.531 147.408 19.531 139.599 19.531 131.786C19.7272 131.774 19.9235 131.757 20.1197 131.741C20.1197 139.554 20.1197 147.371 20.1197 155.185ZM18.3698 155.238C18.1777 155.25 17.9814 155.262 17.7852 155.275C17.7852 147.502 17.7852 139.734 17.7852 131.966C17.9814 131.949 18.1777 131.933 18.3698 131.921C18.3698 139.693 18.3698 147.466 18.3698 155.238ZM16.6199 155.295C16.4237 155.307 16.2274 155.32 16.0312 155.332C16.0312 147.6 16.0312 139.869 16.0312 132.142C16.2274 132.129 16.4237 132.113 16.6199 132.097C16.6199 139.832 16.6199 147.56 16.6199 155.295ZM14.8741 155.348C14.6779 155.36 14.4816 155.373 14.2854 155.385C14.2854 147.694 14.2854 140.008 14.2854 132.317C14.4816 132.305 14.6779 132.289 14.8741 132.277C14.8741 139.967 14.8741 147.658 14.8741 155.348ZM13.1242 155.405C12.928 155.418 12.7317 155.43 12.5355 155.438C12.5355 147.793 12.5355 140.143 12.5355 132.497C12.7317 132.481 12.928 132.469 13.1242 132.452C13.1242 140.102 13.1242 147.756 13.1242 155.405ZM11.3743 155.459C11.1781 155.471 10.9818 155.483 10.7856 155.495C10.7856 147.891 10.7856 140.282 10.7856 132.673C10.9818 132.657 11.1781 132.645 11.3743 132.632C11.3743 140.237 11.3743 147.854 11.3743 155.459ZM9.62852 155.516C9.43227 155.528 9.23602 155.54 9.03977 155.549C9.03977 147.985 9.03977 140.421 9.03977 132.853C9.23602 132.841 9.43227 132.824 9.62852 132.808C9.62852 140.376 9.62852 147.948 9.62852 155.516ZM7.87453 155.569C7.67828 155.581 7.48203 155.594 7.28578 155.606C7.28578 148.079 7.28578 140.556 7.28578 133.029C7.48203 133.013 7.67828 133 7.87453 132.988C7.87453 140.515 7.87453 148.042 7.87453 155.569ZM6.12872 155.626C5.93247 155.639 5.73622 155.647 5.53997 155.659C5.53997 148.177 5.53997 140.691 5.53997 133.209C5.73622 133.192 5.93247 133.176 6.12872 133.164C6.12872 140.65 6.12872 148.14 6.12872 155.626ZM28.6648 129.725L2.36727 132.203V157L28.6648 156.211L54.9623 157V132.203L28.6648 129.725ZM29.83 154.964L30.4187 154.997V131.075L29.83 131.03V154.964ZM52.5705 155.679V133.344L53.1551 133.385V155.716L52.5705 155.679ZM31.5799 155.017C31.5799 147.081 31.5799 139.145 31.5799 131.209C31.7761 131.222 31.9724 131.238 32.1686 131.254C32.1686 139.186 32.1686 147.118 32.1686 155.054C31.9724 155.042 31.7761 155.029 31.5799 155.017ZM33.3257 155.074C33.3257 147.179 33.3257 139.28 33.3257 131.385C33.522 131.402 33.7182 131.418 33.9145 131.43C33.9145 139.325 33.9145 147.216 33.9145 155.111C33.7182 155.099 33.522 155.087 33.3257 155.074ZM35.0797 155.127C35.0797 147.273 35.0797 139.419 35.0797 131.565C35.2759 131.577 35.4681 131.594 35.6643 131.61C35.6643 139.46 35.6643 147.314 35.6643 155.164C35.4681 155.152 35.2759 155.14 35.0797 155.127ZM36.8255 155.185C36.8255 147.371 36.8255 139.554 36.8255 131.741C37.0217 131.757 37.218 131.774 37.4142 131.786C37.4142 139.599 37.4142 147.408 37.4142 155.217C37.218 155.209 37.0217 155.197 36.8255 155.185ZM38.5754 155.238C38.5754 147.466 38.5754 139.693 38.5754 131.921C38.7716 131.933 38.9679 131.949 39.1641 131.966C39.1641 139.734 39.1641 147.502 39.1641 155.275C38.9679 155.262 38.7716 155.25 38.5754 155.238ZM40.3253 155.295C40.3253 147.56 40.3253 139.832 40.3253 132.097C40.5215 132.113 40.7137 132.129 40.9099 132.142C40.9099 139.869 40.9099 147.6 40.9099 155.332C40.7137 155.32 40.5215 155.307 40.3253 155.295ZM42.0711 155.348C42.0711 147.658 42.0711 139.967 42.0711 132.277C42.2673 132.289 42.4636 132.305 42.6598 132.317C42.6598 140.008 42.6598 147.694 42.6598 155.385C42.4636 155.373 42.2673 155.36 42.0711 155.348ZM43.8251 155.405C43.8251 147.756 43.8251 140.102 43.8251 132.452C44.0213 132.469 44.2176 132.481 44.4097 132.497C44.4097 140.143 44.4097 147.793 44.4097 155.438C44.2176 155.43 44.0213 155.418 43.8251 155.405ZM45.5709 155.459C45.5709 147.854 45.5709 140.237 45.5709 132.632C45.7671 132.645 45.9634 132.657 46.1596 132.673C46.1596 140.282 46.1596 147.891 46.1596 155.495C45.9634 155.483 45.7671 155.471 45.5709 155.459ZM47.3208 155.516C47.3208 147.948 47.3208 140.376 47.3208 132.808C47.517 132.824 47.7133 132.841 47.9095 132.853C47.9095 140.421 47.9095 147.985 47.9095 155.549C47.7133 155.54 47.517 155.528 47.3208 155.516ZM49.0707 155.569C49.0707 148.042 49.0707 140.515 49.0707 132.988C49.2669 133 49.4632 133.013 49.6594 133.029C49.6594 140.556 49.6594 148.079 49.6594 155.606C49.4632 155.594 49.2669 155.581 49.0707 155.569ZM50.8165 155.626C50.8165 148.14 50.8165 140.65 50.8165 133.164C51.0127 133.176 51.209 133.192 51.4052 133.209C51.4052 140.691 51.4052 148.177 51.4052 155.659C51.209 155.647 51.0127 155.639 50.8165 155.626ZM3.01326 132.878V156.195L28.0147 155.528V130.547L3.01326 132.878ZM30.6232 61.6143C31.2733 61.2463 31.8334 61.4549 32.3281 62.1049L30.6681 58.2535L30.6232 61.6143ZM33.894 61.9741C34.5482 61.6143 35.1083 61.8187 35.5989 62.4688L33.9431 58.6174L33.894 61.9741ZM37.4674 62.8C38.1216 62.4361 38.6817 62.6446 39.1764 63.2947L37.5165 59.4433L37.4674 62.8ZM41.6336 63.7608C42.2878 63.401 42.8479 63.6054 43.3426 64.2555L41.6827 60.4041L41.6336 63.7608ZM45.7998 64.7257C46.454 64.3618 47.0141 64.5703 47.5089 65.2204L45.8489 61.369L45.7998 64.7257ZM31.3632 55.4733C32.0174 55.1258 32.5775 55.3466 33.0722 56.013L31.4123 52.1166L31.3632 55.4733ZM34.9366 56.3973C35.5908 56.0498 36.1509 56.2706 36.6415 56.937L34.9856 53.0406L34.9366 56.3973ZM39.1028 57.4685C39.757 57.1251 40.3171 57.3459 40.8077 58.0123L39.1519 54.1159L39.1028 57.4685ZM43.2731 58.5479C43.9232 58.2045 44.4874 58.4253 44.978 59.0876L43.3222 55.1871L43.2731 58.5479ZM32.4058 50.1787C33.0559 49.8393 33.6201 50.0642 34.1107 50.7347L32.4548 46.822L32.4058 50.1787ZM36.5761 51.2867C37.2262 50.9514 37.7904 51.1763 38.281 51.8468L36.6252 47.93L36.5761 51.2867ZM40.7423 52.4028C41.3924 52.0594 41.9566 52.2884 42.4472 52.9548L40.7914 49.0421L40.7423 52.4028ZM26.8535 61.6143L26.8045 58.2535L25.1445 62.1049C25.6392 61.4549 26.1994 61.2463 26.8535 61.6143ZM23.5786 61.9741L23.5296 58.6174L21.8737 62.4688C22.3643 61.8187 22.9245 61.6143 23.5786 61.9741ZM20.0052 62.8L19.9562 59.4433L18.3003 63.2947C18.7909 62.6446 19.3552 62.4361 20.0052 62.8ZM15.839 63.7608L15.7899 60.4041L14.1341 64.2555C14.6247 63.6054 15.1848 63.401 15.839 63.7608ZM11.6728 64.7257L11.6237 61.369L9.96786 65.2204C10.4585 64.5703 11.0186 64.3618 11.6728 64.7257ZM26.1094 55.4733L26.0604 52.1166L24.4045 56.013C24.8951 55.3466 25.4553 55.1258 26.1094 55.4733ZM22.536 56.3973L22.487 53.0406L20.8311 56.937C21.3217 56.2706 21.886 56.0498 22.536 56.3973ZM18.3698 57.4685L18.3208 54.1159L16.6649 58.0123C17.1555 57.3459 17.7197 57.1251 18.3698 57.4685ZM14.2036 58.5479L14.1545 55.1871L12.4987 59.0876C12.9893 58.4253 13.5535 58.2045 14.2036 58.5479ZM25.0668 50.1787L25.0178 46.822L23.3619 50.7347C23.8566 50.0642 24.4168 49.8393 25.0668 50.1787ZM20.9006 51.2867L20.8516 47.93L19.1957 51.8468C19.6863 51.1763 20.2505 50.9514 20.9006 51.2867ZM16.7303 52.4028L16.6853 49.0421L15.0254 52.9548C15.516 52.2884 16.0802 52.0594 16.7303 52.4028ZM25.1936 25.3408L26.9476 21.4321L25.1936 25.3408ZM38.3791 36.016C37.7495 35.3291 37.1158 35.0797 36.4821 35.3945L35.8565 32.0991L38.3791 36.016ZM35.0184 34.8139C34.4664 34.1271 33.8654 33.8777 33.1908 34.1925L33.0763 30.8317L35.0184 34.8139ZM32.2504 33.7591C31.6985 33.0681 31.0934 32.8228 30.4228 33.1376L30.3043 29.7728L32.2504 33.7591ZM32.3077 29.5765C31.7516 28.8896 31.1465 28.6443 30.4801 28.9591L30.3574 25.5984L32.3077 29.5765ZM35.1533 30.7377C34.6013 30.0508 33.9962 29.8014 33.3257 30.1162L33.203 26.7554L35.1533 30.7377ZM32.4794 25.3408C31.9642 24.6703 31.3714 24.4495 30.6804 24.7888L30.7336 21.4321L32.4794 25.3408ZM19.2979 36.016L21.8205 32.0991L21.195 35.3945C20.5613 35.0797 19.9316 35.3291 19.2979 36.016ZM22.6546 34.8139L24.6048 30.8317L24.4822 34.1925C23.8158 33.8777 23.2106 34.1271 22.6546 34.8139ZM25.4266 33.7591L27.3728 29.7728L27.2542 33.1376C26.5837 32.8228 25.9786 33.0681 25.4266 33.7591ZM25.3735 29.5765L27.3196 25.5984L27.2011 28.9591C26.5305 28.6443 25.9295 28.8896 25.3735 29.5765ZM22.5279 30.7377L24.4699 26.7554L24.3514 30.1162C23.6849 29.8014 23.0798 30.0508 22.5279 30.7377ZM25.1936 25.3408L26.9476 21.4321L26.9966 24.7888C26.3098 24.4495 25.7169 24.6703 25.1936 25.3408ZM41.3638 103.035L42.3941 103.117L42.6435 102.949L42.623 103.628L43.3017 104.642L43.821 103.767L43.727 102.23L47.8523 99.4906L47.6438 99.0531L43.6574 101.02L43.314 95.1567L42.8724 95.1077L42.6844 101.502L41.8258 101.923L41.3638 103.035ZM5.50727 101.98C5.65445 99.4292 6.61117 97.017 8.07896 95.124C9.54674 93.2351 11.5297 91.8614 13.7334 91.3871V93.509C13.7334 93.8116 13.9501 94.0324 14.2118 93.9956L14.3344 93.9792C14.6615 93.9342 14.9314 93.5867 14.9314 93.2065V91.2235C17.1351 91.0845 19.118 91.9063 20.5858 93.3905C22.0536 94.8746 23.0103 97.0211 23.1575 99.5315L21.3095 99.789C21.0478 99.8217 20.8311 100.104 20.8311 100.402V100.541C20.8311 100.922 21.0969 101.191 21.428 101.146L23.1575 100.905C23.0103 103.461 22.0536 105.869 20.5858 107.762C19.118 109.651 17.1351 111.024 14.9314 111.499V109.512C14.9314 109.131 14.6615 108.862 14.3344 108.911L14.2118 108.923C13.9501 108.96 13.7334 109.238 13.7334 109.54V111.666C11.5297 111.801 9.54674 110.983 8.07896 109.495C6.61117 108.015 5.65445 105.865 5.50727 103.354L7.23672 103.113C7.56789 103.068 7.83365 102.721 7.83365 102.344V102.205C7.83365 101.907 7.61695 101.686 7.35529 101.723L5.50727 101.98ZM12.5559 103.146L13.022 101.919L13.8765 101.281L14.0687 94.8378L14.5102 94.7765L14.8537 100.554L18.8359 97.5771L19.0444 97.9574L14.9232 101.747L15.0131 103.26L14.498 104.262L13.8152 103.428L13.8356 102.741L13.5903 102.97L12.5559 103.146ZM14.3344 90.2014C17.037 89.8253 19.4819 90.7452 21.2522 92.536C23.0226 94.3227 24.1183 96.9802 24.1183 100.087C24.1183 103.191 23.0226 106.151 21.2522 108.432C19.4819 110.714 17.037 112.308 14.3344 112.684C11.6278 113.06 9.18287 112.141 7.41253 110.354C5.64219 108.563 4.54646 105.905 4.54646 102.802C4.54646 99.6991 5.64219 96.7308 7.41253 94.4535C9.18287 92.1721 11.6278 90.5735 14.3344 90.2014ZM28.6648 0C28.9305 0 29.1472 0.216692 29.1472 0.486537V9.92289C29.1472 10.1846 28.9305 10.4053 28.6648 10.4053C28.3949 10.4053 28.1782 10.1846 28.1782 9.92289V0.486537C28.1782 0.216692 28.3949 0 28.6648 0ZM31.3264 82.6131V115.882L54.7783 118.502V86.117L31.3264 82.6131ZM31.4123 82.008L30.7131 81.9017V116.429L55.3916 119.185V85.5895L31.4123 82.008ZM2.51445 85.4342L26.6736 81.824V116.348L1.99521 119.103V85.5078L2.51445 85.4342ZM2.6044 118.425V86.0352L26.0604 82.5313V115.804L2.6044 118.425ZM29.83 121.332L30.4187 121.397V127.636L29.83 127.579V121.332ZM31.5799 121.528L32.1686 121.593V127.8L31.5799 127.742V121.528ZM33.3257 121.724L33.9145 121.789V127.963L33.3257 127.91V121.724ZM35.0797 121.916L35.6643 121.986V128.127L35.0797 128.069V121.916ZM36.8255 122.112L37.4142 122.182V128.29L36.8255 128.233V122.112ZM38.5754 122.476V128.397L39.1641 128.454V122.538L38.5754 122.476ZM40.3253 122.669V128.56L40.9099 128.617V122.734L40.3253 122.669ZM42.0711 122.865V128.724L42.6598 128.781V122.93L42.0711 122.865ZM43.8251 123.061V128.887L44.4097 128.94V123.126L43.8251 123.061ZM45.5709 123.257V129.051L46.1596 129.108V123.323L45.5709 123.257ZM47.3208 123.449V129.214L47.9095 129.271V123.519L47.3208 123.449ZM49.0707 123.646V129.378L49.6594 129.431V123.715L49.0707 123.646ZM50.8165 123.842V129.541L51.4052 129.594V123.907L50.8165 123.842ZM52.5705 124.038V129.705L53.1551 129.758V124.104L52.5705 124.038ZM27.0989 121.332V127.579L26.5101 127.636V121.397L27.0989 121.332ZM25.349 121.528V127.742L24.7602 127.8V121.593L25.349 121.528ZM23.5991 121.724V127.91L23.0103 127.963V121.789L23.5991 121.724ZM21.8492 121.916V128.069L21.2645 128.127V121.986L21.8492 121.916ZM20.1034 122.28V128.233L19.5146 128.29V122.182L20.1034 122.28ZM18.3535 122.476L17.7647 122.538V128.454L18.3535 128.397V122.476ZM16.6036 122.669L16.0189 122.734V128.617L16.6036 128.56V122.669ZM14.8537 122.865L14.2649 122.93V128.781L14.8537 128.724V122.865ZM13.1079 123.061L12.5191 123.126V128.94L13.1079 128.887V123.061ZM11.358 123.257L10.7692 123.323V129.108L11.358 129.051V123.257ZM9.60807 123.449L9.01932 123.519V129.271L9.60807 129.214V123.449ZM7.85818 123.646L7.27352 123.715V129.431L7.85818 129.378V123.646ZM6.10828 123.842L5.51953 123.907V129.594L6.10828 129.541V123.842ZM4.36247 124.038L3.77372 124.104V129.758L4.36247 129.705V124.038ZM28.0147 127.996L3.01326 130.326V123.691L28.0147 120.731V127.996ZM28.6648 119.913L54.9623 123.016V131.136L28.6648 128.679L2.36727 131.136V123.016L28.6648 119.913ZM27.8307 118.114L0.834062 121.131V83.8601L27.8307 79.8247V118.114ZM0 122.186L28.6648 118.985L57.3295 122.186V83.0178L28.6648 78.7494L28.6116 78.7412L0 83.0178V122.186ZM6.41492 73.3525C7.1345 73.238 7.72734 73.8268 7.72734 74.6527V77.6332L5.1025 78.0462V75.0615C5.1025 74.2356 5.69125 73.4629 6.41492 73.3525ZM6.19823 72.1137C7.21219 71.9542 8.03807 72.776 8.03807 73.9413V78.1238L4.35839 78.7003V74.5137C4.35839 73.3525 5.18836 72.2731 6.19823 72.1137ZM11.0513 72.6289C11.775 72.5185 12.3637 73.1031 12.3637 73.929V76.9136L9.73891 77.3225V74.3419C9.73891 73.512 10.3317 72.7392 11.0513 72.6289ZM10.8387 71.39C11.8486 71.2306 12.6827 72.0524 12.6827 73.2176V77.4002L8.99888 77.9767V73.7941C8.99888 72.6289 9.82477 71.5495 10.8387 71.39ZM15.6918 71.9052C16.4155 71.7948 17.0042 72.3794 17.0042 73.2094V76.19L14.3835 76.5988V73.6183C14.3835 72.7883 14.9722 72.0156 15.6918 71.9052ZM15.4792 70.6664C16.4932 70.5069 17.3191 71.3328 17.3191 72.4939V76.6806L13.6394 77.253V73.0704C13.6394 71.9052 14.4653 70.8258 15.4792 70.6664ZM20.3364 71.1815C21.056 71.0711 21.6447 71.6599 21.6447 72.4858V75.4663L19.024 75.8792V72.8946C19.024 72.0646 19.6127 71.296 20.3364 71.1815ZM20.1197 69.9427C21.1337 69.7873 21.9596 70.6091 21.9596 71.7703V75.9569L18.2758 76.5293V72.3467C18.2758 71.1815 19.1098 70.1021 20.1197 69.9427ZM24.9728 70.4578C25.6965 70.3474 26.2852 70.9362 26.2852 71.7621V74.7467L23.6604 75.1556V72.1709C23.6604 71.341 24.2532 70.5723 24.9728 70.4578ZM24.7602 69.219C23.7462 69.3785 22.9204 70.4578 22.9204 71.6231V75.8056L26.6001 75.2333V71.0507C26.6001 69.8854 25.7701 69.0636 24.7602 69.219ZM28.6157 77.854L54.9786 81.779V70.0245L28.6157 65.2695L2.34273 70.0245V81.779L28.6157 77.854ZM50.8451 73.4588C51.5647 73.5733 52.1575 74.3419 52.1575 75.1678V78.1525L49.5327 77.7436V74.7631C49.5327 73.9331 50.1214 73.3443 50.8451 73.4588ZM51.0577 72.22C50.0478 72.0646 49.2179 72.8864 49.2179 74.0476V78.2342L52.9016 78.8066V74.62C52.9016 73.4588 52.0717 72.3794 51.0577 72.22ZM46.2046 72.7352C46.9283 72.8496 47.517 73.6183 47.517 74.4482V77.4288L44.8922 77.0199V74.0394C44.8922 73.2094 45.4809 72.6248 46.2046 72.7352ZM46.4172 71.4963C45.4073 71.341 44.5774 72.1628 44.5774 73.328V77.5106L48.2611 78.0871V73.9004C48.2611 72.7352 47.4312 71.6558 46.4172 71.4963ZM41.5641 72.0156C42.2837 72.126 42.8765 72.8987 42.8765 73.7246V76.7051L40.2558 76.2963V73.3157C40.2558 72.4857 40.8445 71.9011 41.5641 72.0156ZM41.7767 70.7767C40.7668 70.6173 39.9369 71.4391 39.9369 72.6043V76.7869L43.6206 77.3634V73.1767C43.6206 72.0156 42.7907 70.9321 41.7767 70.7767ZM36.9236 71.2919C37.6432 71.4023 38.236 72.175 38.236 73.0009V75.9855L35.6112 75.5726V72.5921C35.6112 71.7662 36.204 71.1774 36.9236 71.2919ZM37.1403 70.0531C36.1264 69.8936 35.3005 70.7154 35.3005 71.8806V76.0632L38.9802 76.6397V72.453C38.9802 71.2919 38.1502 70.2125 37.1403 70.0531ZM32.2831 70.5682C33.0068 70.6786 33.5955 71.4513 33.5955 72.2772V75.2619L30.9707 74.853V71.8684C30.9707 71.0425 31.5635 70.4578 32.2831 70.5682ZM32.4998 69.3294C31.4859 69.1699 30.6559 69.9917 30.6559 71.157V75.3436L34.3397 75.916V71.7335C34.3397 70.5682 33.5097 69.4889 32.4998 69.3294ZM27.5445 66.6391L3.41393 71.0057V80.2376L27.5445 76.6274V66.6391ZM28.0842 63.9366V44.1113L13.2346 48.3838C13.0874 57.0597 10.1273 63.029 4.53828 68.2173L28.0842 63.9366ZM28.6648 37.8395V80.1804V37.8395ZM25.9254 39.1437C26.3425 39.021 26.6777 39.3113 26.6777 39.7856V41.4006L25.1691 41.8503V40.2394C25.1691 39.7611 25.5084 39.2664 25.9254 39.1437ZM25.7905 38.2647C26.3956 38.0848 26.8903 38.5059 26.8903 39.2009V41.5478L24.6907 42.206V39.8592C24.6907 39.1641 25.1854 38.4446 25.7905 38.2647ZM21.1827 40.5624C20.7657 40.6892 20.4264 41.1798 20.4264 41.6581V43.269L21.9391 42.8193V41.2043C21.9391 40.726 21.5998 40.4398 21.1827 40.5624ZM21.0478 39.6834C21.6529 39.5035 22.1476 39.9246 22.1476 40.6156V42.9665L19.948 43.6206V41.2779C19.948 40.5788 20.4427 39.8633 21.0478 39.6834ZM16.4359 41.9811C16.023 42.1079 15.6836 42.5985 15.6836 43.0728V44.6878L17.1964 44.2339V42.623C17.1964 42.1488 16.853 41.8544 16.4359 41.9811ZM16.3051 41.1021C15.7 41.282 15.2053 42.0016 15.2053 42.6966V45.0435L17.4049 44.3811V42.0384C17.4049 41.3392 16.9102 40.9222 16.3051 41.1021ZM28.6648 42.5781L13.7743 47.0305V40.3703L28.6648 35.4477L43.5552 40.3703V47.0305L28.6648 42.5781ZM31.0934 39.1437C31.5104 39.2664 31.8497 39.7611 31.8497 40.2394V41.8503L30.337 41.4006V39.7856C30.337 39.3113 30.6763 39.021 31.0934 39.1437ZM31.2283 38.2647C31.8293 38.4446 32.3281 39.1641 32.3281 39.8592V42.206L30.1244 41.5478V39.2009C30.1244 38.5059 30.6232 38.0848 31.2283 38.2647ZM35.8361 40.5624C35.4231 40.4398 35.0797 40.726 35.0797 41.2043V42.8193L36.5924 43.269V41.6581C36.5924 41.1798 36.2531 40.6892 35.8361 40.5624ZM35.971 39.6834C36.5761 39.8633 37.0708 40.5788 37.0708 41.2779V43.6206L34.8712 42.9665V40.6156C34.8712 39.9246 35.3659 39.5035 35.971 39.6834ZM40.5788 41.9811C40.1658 41.8544 39.8265 42.1488 39.8265 42.623V44.2339L41.3352 44.6878V43.0728C41.3352 42.5985 40.9958 42.1079 40.5788 41.9811ZM40.7137 41.1021C40.1086 40.9222 39.6139 41.3392 39.6139 42.0384V44.3811L41.8135 45.0435V42.6966C41.8135 42.0016 41.3188 41.282 40.7137 41.1021ZM28.0556 36.3758V42.0384L14.3794 46.1269V40.8977L28.0556 36.3758ZM28.6648 33.8L14.3712 38.5999V38.3219C20.9579 34.0167 26.4406 21.101 28.6648 12.282V33.8ZM53.4618 67.9802L54.1159 56.1193C53.8379 56.0825 53.6212 55.8168 53.6212 55.4897C53.6212 55.1381 53.8665 54.856 54.1691 54.856C54.4716 54.856 54.721 55.1381 54.721 55.4897C54.721 55.8168 54.5043 56.0825 54.2263 56.1193L54.9623 69.2722V69.2885L28.6648 64.509L2.36727 69.2885V69.2722L3.1032 56.1193C2.82518 56.0825 2.60849 55.8168 2.60849 55.4897C2.60849 55.1381 2.8538 54.856 3.15635 54.856C3.45891 54.856 3.70422 55.1381 3.70422 55.4897C3.70422 55.8168 3.49161 56.0825 3.21359 56.1193L3.86367 67.9802C9.86974 62.5302 12.6254 56.4628 12.6622 47.8646L28.6648 43.2527L44.6673 47.8646C44.7041 56.4628 47.4598 62.5302 53.4618 67.9802ZM52.2638 101.94L50.3463 101.719C50.0683 101.686 49.8475 101.919 49.8475 102.23V102.373C49.8475 102.765 50.1255 103.117 50.469 103.158L52.2638 103.367C52.1125 105.979 51.119 108.228 49.594 109.806C48.069 111.38 46.0084 112.284 43.7229 112.194V109.986C43.7229 109.671 43.498 109.389 43.2241 109.36L43.1014 109.344C42.758 109.303 42.4799 109.593 42.4799 109.986V112.051C40.1904 111.609 38.1338 110.235 36.6047 108.305C35.0797 106.376 34.0862 103.894 33.939 101.249L35.7339 101.453C36.0732 101.494 36.3553 101.208 36.3553 100.815V100.672C36.3553 100.357 36.1304 100.075 35.8565 100.043L33.939 99.8217C34.0862 97.2092 35.0797 94.9605 36.6047 93.3823C38.1338 91.8082 40.1904 90.9046 42.4799 90.9946V93.0552C42.4799 93.4477 42.758 93.8034 43.1014 93.8402L43.2241 93.8566C43.498 93.8852 43.7229 93.6562 43.7229 93.3455V91.1377C46.0084 91.5792 48.069 92.953 49.594 94.8828C51.119 96.8126 52.1125 99.2902 52.2638 101.94ZM28.6648 34.5891L43.5552 39.5117C43.5552 38.375 43.5184 37.635 43.453 36.5066L42.942 27.3074C43.1709 27.2828 43.3549 27.0539 43.3549 26.7799C43.3549 26.4897 43.1505 26.2525 42.8929 26.2525C42.6394 26.2525 42.435 26.4897 42.435 26.7799C42.435 27.0539 42.6149 27.2828 42.8479 27.3074L42.3082 36.9972C36.0487 31.7884 31.3101 20.0011 29.0654 11.5379C29.4988 11.3539 29.8136 10.8673 29.8136 10.299C29.8136 9.57127 29.2985 8.98253 28.6648 8.98253C28.027 8.98253 27.5159 9.57127 27.5159 10.299C27.5159 10.8673 27.8266 11.3539 28.2641 11.5379C26.0195 20.0011 21.2809 31.7884 15.0213 36.9972L14.4775 27.3074C14.7106 27.2828 14.8905 27.0539 14.8905 26.7799C14.8905 26.4897 14.686 26.2525 14.4366 26.2525C14.1791 26.2525 13.9746 26.4897 13.9746 26.7799C13.9746 27.0539 14.1545 27.2828 14.3876 27.3074L13.9092 35.9056C13.8642 36.6947 13.7743 37.5369 13.7743 38.3137V39.5117L28.6648 34.5891Z" fill="#C52BBB"/>
</svg>
